<?xml version="1.0" encoding="utf-8"?>
<!-- Generator: Adobe Illustrator 25.0.0, SVG Export Plug-In . SVG Version: 6.00 Build 0)  -->
<svg version="1.1" id="Capa_1" xmlns="http://www.w3.org/2000/svg" xmlns:xlink="http://www.w3.org/1999/xlink" x="0px" y="0px"
	 viewBox="0 0 605.14 459.39" style="enable-background:new 0 0 605.14 459.39;" xml:space="preserve">
<style type="text/css">
	.st0{opacity:0.15;}
	.st1{fill:#6C63FE;}
	.st2{opacity:0.15;fill:#6C63FE;}
	.st3{opacity:0.42;}
	.st4{opacity:0.2;fill:#6C63FE;}
	.st5{opacity:0.27;fill:#6C63FE;}
	.st6{opacity:0.42;fill:#6C63FE;}
	.st7{opacity:0.2;fill-rule:evenodd;clip-rule:evenodd;fill:#B3B3B3;}
	.st8{fill:none;}
	.st9{fill:#2E2D3F;}
	.st10{fill:#F4B37A;}
	.st11{fill:#222B55;}
	.st12{fill:#5D5D5D;}
	.st13{fill:#BEBEBE;}
	.st14{fill:#CF9766;}
	.st15{fill:#E9E9E9;}
	.st16{fill:#00656B;}
	.st17{fill:#494949;}
	.st18{fill:#CFCFCF;}
	.st19{fill:#FED54C;}
	.st20{fill:#FDFDFC;}
	.st21{fill:#FEFDFD;}
</style>
<g class="st0">
	<path class="st1" d="M57.39,318.21c-4.49,7.55-8.06,15.59-10.81,23.85c-2.71,8.27-4.54,16.84-4.9,25.5
		c-0.15,2.16-0.1,4.33-0.06,6.49l0.2,3.24c0.06,1.08,0.25,2.15,0.36,3.22c0.55,4.29,1.45,8.54,2.83,12.65
		c0.16,0.52,0.32,1.04,0.49,1.55l0.59,1.51c0.41,1,0.77,2.03,1.21,3.02c0.93,1.96,1.78,3.97,2.9,5.84c2.01,3.88,4.6,7.42,7.19,10.97
		c-2.96-3.24-5.8-6.65-8.1-10.44c-1.24-1.84-2.21-3.83-3.27-5.78c-0.51-0.99-0.91-2.02-1.37-3.04l-0.67-1.53
		c-0.2-0.52-0.38-1.05-0.57-1.57c-1.62-4.15-2.58-8.53-3.27-12.92c-0.67-4.41-0.82-8.88-0.62-13.32c0.23-4.44,0.79-8.87,1.73-13.21
		c0.96-4.33,2.19-8.6,3.74-12.75C48.09,333.23,52.14,325.28,57.39,318.21z"/>
</g>
<g>
	<path class="st2" d="M95.35,418.45h472.61c39.17-31.94,19.01-128.06-13.71-147.55c-35.22-20.97,20.71-93.51-33.55-117.06
		c-35.42-15.37-91.76,1.38-84.19-39.75c10.51-57.03-112.32-71.65-202.81-56.27c-97.83,16.62-8.49,98.34-116.08,114.81
		c-55.32,8.47-44.63,80.9-39.47,95.87c4.49,13.04,34.22,33.72-7.09,62.19C10.48,372.45,93.92,417.68,95.35,418.45z"/>
	<g class="st0">
		<path class="st1" d="M226.68,48.78c-7.2,2.58-14.1,5.85-20.7,9.58c-6.58,3.76-12.85,8.06-18.5,13.08c-0.7,0.63-1.43,1.24-2.1,1.89
			l-2.04,1.96c-1.3,1.36-2.63,2.7-3.84,4.15c-1.28,1.39-2.41,2.9-3.59,4.37l-1.64,2.3c-0.57,0.75-1.07,1.56-1.57,2.35
			c-4.13,6.33-7.07,13.39-9.11,20.77c1.16-7.56,3.72-14.99,7.68-21.64c0.93-1.7,2.05-3.28,3.12-4.89c1.16-1.54,2.29-3.12,3.56-4.58
			c2.49-2.96,5.21-5.74,8.11-8.29c2.92-2.54,5.97-4.92,9.17-7.07c3.22-2.13,6.52-4.12,9.95-5.87
			C212.02,53.38,219.21,50.51,226.68,48.78z"/>
	</g>
	<g class="st3">
		<path class="st1" d="M180.71,107.77c-11.45,10.73-17.77,26.28-17.82,41.91c-0.05,16.04,6.9,31.14,19.02,41.63
			c12.31,10.65,28.61,15.88,44.79,13.77c10.39-1.36,20.49-4.68,30.61-7.28c10.35-2.66,20.78-5.09,31.35-6.71
			c19.69-3.02,40.26-3.08,59.3,3.41c8.95,3.05,18.03,7.54,24.93,14.11c7.61,7.25,9.94,17,11.36,27.07
			c2.83,20.02,1.74,40.67,7.82,60.16c2.49,7.99,6.13,15.7,11.41,22.23c5.33,6.58,12.26,11.53,20.05,14.79
			c17.79,7.46,37.39,6.28,56.22,5.6c10.78-0.39,21.63-0.54,32.31,1.21c9.79,1.61,19.36,4.58,28.32,8.83
			c4.3,2.04,8.45,4.37,12.45,6.96c0.58,0.38,1.12-0.55,0.54-0.93c-16.15-10.45-34.8-16.32-54-17.23
			c-20.26-0.96-40.71,2.62-60.82-1.16c-8.57-1.61-16.99-4.51-24.23-9.47c-7.3-5-12.86-12.03-16.78-19.91
			c-8.81-17.71-9.23-37.81-10.77-57.12c-0.77-9.7-1.46-20.02-4.86-29.23c-3.11-8.43-9.46-14.49-16.97-19.13
			c-15.56-9.62-34.1-13.29-52.21-13.26c-20.52,0.04-40.68,4.78-60.42,9.97c-10.25,2.69-20.62,6.13-31.29,6.51
			c-8.24,0.3-16.52-1.44-24.04-4.82c-14.88-6.68-26.88-19.62-31.17-35.5c-4.21-15.62-1.18-32.99,7.79-46.42
			c2.25-3.37,4.9-6.45,7.85-9.23C181.98,108.06,181.22,107.3,180.71,107.77L180.71,107.77z"/>
	</g>
	
		<ellipse transform="matrix(0.4426 -0.8967 0.8967 0.4426 21.7443 578.1562)" class="st4" cx="475.96" cy="271.59" rx="33.64" ry="14.15"/>
	<g class="st3">
		<path class="st1" d="M139.99,307.9c-6.54,5.68-13.62,11.43-19.06,18.22c-4.33,5.4-6.5,12.02-3.97,18.73
			c2.43,6.44,7.89,11.38,13.38,15.27c6.95,4.92,14.64,9.05,22.43,12.47c16.34,7.16,33.66,9.41,51.38,9.48
			c16.59,0.07,33.18-1.65,49.41-5.04c32.71-6.84,63.97-20.53,91.03-40.15c7.38-5.35,14.48-11.07,22.02-16.18
			c6.41-4.35,13.13-8.23,20.08-11.63c14.06-6.89,29.08-11.8,44.46-14.72c30.75-5.84,63.12-3.64,92.6,6.99
			c3.71,1.34,7.36,2.81,10.96,4.41c0.63,0.28,1.17-0.65,0.54-0.93c-27.55-12.21-58.18-16.77-88.14-13.84
			c-29.99,2.94-59.18,13.34-83.84,30.73c-7.34,5.17-14.33,10.81-21.66,15.99c-6.66,4.7-13.56,9.05-20.68,13.03
			c-14.61,8.17-30.08,14.77-46.07,19.7c-15.76,4.86-32.02,8.1-48.45,9.6c-17.24,1.58-35.24,1.8-52.26-1.67
			c-8.65-1.76-17-4.75-24.94-8.59c-7.49-3.61-15.12-7.75-21.57-13.05c-5.68-4.67-11.23-11.17-10.71-19
			c0.56-8.47,8.03-14.65,13.78-20.02c3.29-3.08,6.64-6.09,10.04-9.04C141.28,308.2,140.51,307.45,139.99,307.9L139.99,307.9z"/>
	</g>
	<g class="st3">
		<path class="st1" d="M432.65,159.63c7.54,0.64,15,2,22.27,4.11c6.36,1.85,12.85,4.09,18.45,7.69c5.71,3.67,9.84,8.92,10.94,15.74
			c1.04,6.48-0.19,13.31-2.57,19.37c-10.42,26.56-40.01,36.58-65.82,40.85c-30.04,4.96-60.62,3.32-90.9,2.64
			c-15.12-0.34-30.27-0.46-45.37,0.55c-14.79,0.98-29.52,2.96-44.05,5.91c-14.45,2.93-28.85,6.71-42.74,11.7
			c-5.61,2.01-11.27,4.53-15.48,8.87c-3.7,3.81-5.95,9.3-5.31,14.64c0.29,2.47,1.23,4.7,2.79,6.63c0.43,0.54,1.19-0.23,0.76-0.76
			c-4.01-4.99-2.91-12.18,0.45-17.21c3.68-5.52,10.13-8.58,16.15-10.81c13.95-5.16,28.54-8.94,43.1-11.92
			c14.82-3.03,29.84-5.05,44.93-6.03c15.31-0.99,30.65-0.84,45.98-0.48c30.19,0.7,60.65,2.23,90.58-2.8
			c25.38-4.27,53.77-14.05,65.09-39.38c4.81-10.77,6.3-25.03-2.59-34.14c-4.09-4.19-9.47-6.89-14.87-8.99
			c-6.83-2.67-13.96-4.62-21.18-5.9c-3.51-0.62-7.04-1.07-10.59-1.37C431.96,158.49,431.96,159.57,432.65,159.63L432.65,159.63z"/>
	</g>
	<g>
		<path class="st5" d="M340.18,83.67l6.33,8.55c0.5,0.24,0.95-0.04,2.06-0.73c1.99-1.23,3.99-2.46,6.02-3.61
			c0.32-0.18,0.94-0.14,1.28,0.06c1.97,1.16,3.88,2.45,5.86,3.59c0.62,0.35,0.87,0.63,0.81,1.38c-0.24,2.98-0.4,5.97-0.58,8.93
			c2.5,1.09,9.15,2.16,11.49,1.83c0.69-2.77,1.43-5.58,2.06-8.42c0.2-0.88,0.51-1.18,1.45-1.34c2.18-0.37,4.33-0.93,6.46-1.54
			c0.86-0.25,1.43-0.29,2.08,0.48c1.68,2,3.48,3.9,5.19,5.87c0.46,0.53,0.88,0.68,1.45,0.26c2.69-1.96,5.39-3.93,8.08-5.89
			c0.66-0.48,0.22-0.96-0.03-1.4c-1.28-2.19-2.54-4.38-3.89-6.53c-0.51-0.8-0.47-1.35,0.09-2.14c1.46-2.09,2.79-4.28,4.28-6.6
			c2.95,0.17,6.2,0.37,9.54,0.56c1.23-3.7,1.75-7.46,1.7-11.44c-3.15-0.79-6.31-1.59-9.09-2.29c-0.79-2.95-1.46-5.69-2.28-8.39
			c-0.24-0.78-0.1-1.15,0.46-1.63c1.95-1.68,3.84-3.43,5.77-5.12c0.42-0.37,0.67-0.67,0.36-1.25c-1.56-2.93-3.35-5.68-5.73-8.03
			c-0.53-0.52-0.92-0.49-1.49-0.15c-2.27,1.36-4.58,2.67-6.84,4.04c-0.55,0.33-0.9,0.38-1.51-0.01c-2.13-1.35-4.31-2.62-6.53-3.82
			c-0.57-0.31-0.64-0.62-0.61-1.15c0.18-2.99,0.33-5.98,0.5-9.04c-3.69-1.14-7.39-1.84-11.3-1.8c-0.81,3.22-1.62,6.41-2.39,9.47
			c-3.1,0.75-6.1,1.47-9.31,2.25c-1.53-1.71-3.28-3.68-5.06-5.63c-1.46-1.6-1.06-1.68-3.05-0.5c-0.19,0.11-0.42,0.16-0.63,0.23
			c-1.61,1.19-3.21,2.38-4.82,3.56c-0.31,0.33-0.57,0.71-0.93,0.97c-0.93,0.67-1.1,1.31-0.42,2.36c1.41,2.19,2.69,4.47,3.97,6.74
			c0.17,0.3,0.16,0.86-0.01,1.16c-1.11,1.96-2.4,3.83-3.4,5.85c-0.49,0.99-1,1.17-2,1.1c-2.83-0.22-5.66-0.32-8.78-0.48
			c-0.61,3.83-1.2,7.56-1.8,11.33c0.7,0.19,1.1,0.31,1.5,0.41c2.49,0.63,4.98,1.28,7.49,1.86c0.71,0.17,0.92,0.51,1.09,1.2
			c0.56,2.38,1.27,4.72,1.84,7.1c0.09,0.37-0.1,0.97-0.38,1.24c-1.53,1.45-3.15,2.81-4.71,4.23
			C340.53,82.49,340.06,82.92,340.18,83.67z M359.84,75.41c-5.65-7.64-4.05-18.41,3.59-24.07l0,0c7.64-5.65,18.41-4.05,24.07,3.59
			l0,0c5.65,7.64,4.05,18.41-3.59,24.07l0,0C376.27,84.65,365.49,83.05,359.84,75.41L359.84,75.41z"/>
		<path class="st6" d="M397.76,129.69l-0.77,14.3c0.31,0.68,1.02,0.77,2.77,1.02c3.12,0.44,6.25,0.87,9.36,1.42
			c0.49,0.09,1.1,0.67,1.27,1.16c1.05,2.9,1.93,5.87,3.01,8.76c0.33,0.9,0.36,1.41-0.34,2.13c-2.81,2.89-5.54,5.86-8.26,8.77
			c1.66,3.28,7.64,10.1,10.36,11.76c3.09-2.28,6.28-4.57,9.37-6.98c0.96-0.75,1.54-0.79,2.65-0.15c2.58,1.49,5.3,2.75,8.03,3.95
			c1.11,0.48,1.74,0.92,1.75,2.28c0.03,3.51,0.26,7.03,0.35,10.54c0.02,0.94,0.33,1.46,1.28,1.52c4.48,0.28,8.96,0.55,13.45,0.82
			c1.1,0.07,1.05-0.81,1.16-1.48c0.55-3.37,1.12-6.74,1.56-10.12c0.16-1.27,0.67-1.8,1.92-2.15c3.31-0.92,6.57-2.05,10.1-3.18
			c2.91,2.71,6.12,5.7,9.43,8.77c4.45-2.78,8.23-6.24,11.58-10.42c-2.59-3.53-5.18-7.06-7.47-10.18c1.71-3.73,3.37-7.16,4.83-10.67
			c0.42-1.02,0.88-1.28,1.88-1.3c3.46-0.08,6.93-0.26,10.39-0.37c0.75-0.02,1.28-0.12,1.45-0.99c0.89-4.38,1.39-8.77,0.94-13.26
			c-0.1-1-0.54-1.3-1.42-1.43c-3.53-0.54-7.04-1.15-10.57-1.68c-0.85-0.13-1.26-0.38-1.56-1.31c-1.05-3.23-2.23-6.42-3.5-9.57
			c-0.32-0.81-0.14-1.19,0.36-1.72c2.75-2.95,5.47-5.92,8.28-8.96c-2.86-4.35-6.1-8.25-10.19-11.56c-3.6,2.64-7.18,5.27-10.61,7.78
			c-3.86-1.88-7.6-3.7-11.59-5.65c-0.13-3.08-0.25-6.64-0.43-10.19c-0.15-2.91,0.34-2.65-2.74-3.14c-0.29-0.05-0.57-0.2-0.86-0.31
			c-2.69-0.14-5.37-0.29-8.06-0.43c-0.6,0.08-1.21,0.25-1.8,0.21c-1.54-0.11-2.27,0.42-2.47,2.09c-0.41,3.49-1.04,6.95-1.67,10.41
			c-0.08,0.45-0.57,1.02-1.01,1.19c-2.84,1.08-5.78,1.92-8.55,3.15c-1.36,0.6-2.05,0.36-3.02-0.58c-2.75-2.65-5.6-5.19-8.7-8.04
			c-3.92,3.45-7.74,6.82-11.6,10.22c0.56,0.8,0.88,1.26,1.21,1.72c2.05,2.79,4.07,5.6,6.17,8.36c0.6,0.78,0.52,1.32,0.09,2.18
			c-1.46,2.95-2.74,5.99-4.18,8.95c-0.22,0.46-0.94,0.92-1.46,0.95c-2.84,0.19-5.68,0.22-8.52,0.36
			C399.14,128.75,398.28,128.8,397.76,129.69z M425.26,137.98c0.69-12.78,11.6-22.59,24.39-21.9l0,0
			c12.78,0.69,22.59,11.6,21.9,24.39l0,0c-0.69,12.78-11.6,22.59-24.39,21.9l0,0C434.38,161.68,424.58,150.76,425.26,137.98
			L425.26,137.98z"/>
		<path class="st4" d="M419.46,59.63l2.96,5.59c0.27,0.19,0.56,0.06,1.28-0.24c1.28-0.54,2.56-1.09,3.86-1.59
			c0.2-0.08,0.57,0,0.75,0.15c1.06,0.86,2.06,1.79,3.13,2.64c0.33,0.26,0.46,0.45,0.36,0.88c-0.41,1.73-0.77,3.48-1.14,5.2
			c1.37,0.87,5.19,2.09,6.59,2.1c0.65-1.57,1.34-3.16,1.96-4.77c0.19-0.5,0.4-0.65,0.97-0.66c1.31-0.02,2.63-0.16,3.94-0.33
			c0.53-0.07,0.87-0.05,1.18,0.47c0.81,1.33,1.7,2.6,2.53,3.91c0.22,0.35,0.46,0.48,0.83,0.29c1.76-0.91,3.52-1.83,5.28-2.74
			c0.43-0.22,0.21-0.55,0.1-0.82c-0.56-1.4-1.1-2.81-1.71-4.19c-0.23-0.52-0.15-0.83,0.24-1.25c1.05-1.1,2.02-2.27,3.1-3.5
			c1.72,0.36,3.61,0.77,5.56,1.18c1.05-2.06,1.7-4.23,2.02-6.58c-1.78-0.75-3.57-1.5-5.14-2.16c-0.2-1.8-0.35-3.48-0.59-5.13
			c-0.07-0.48,0.04-0.68,0.42-0.92c1.29-0.82,2.56-1.67,3.85-2.5c0.28-0.18,0.46-0.34,0.33-0.7c-0.66-1.86-1.47-3.64-2.65-5.23
			c-0.27-0.36-0.5-0.37-0.86-0.22c-1.46,0.59-2.93,1.16-4.38,1.76c-0.35,0.15-0.56,0.14-0.89-0.14c-1.13-0.99-2.3-1.92-3.5-2.83
			c-0.31-0.23-0.32-0.42-0.26-0.73c0.37-1.74,0.73-3.48,1.1-5.27c-2.07-1-4.18-1.74-6.48-2.06c-0.76,1.82-1.52,3.63-2.25,5.35
			c-1.89,0.16-3.72,0.32-5.67,0.49c-0.75-1.14-1.6-2.46-2.48-3.76c-0.72-1.07-0.47-1.08-1.75-0.57c-0.12,0.05-0.26,0.05-0.39,0.08
			c-1.05,0.56-2.1,1.11-3.15,1.67c-0.21,0.17-0.4,0.37-0.63,0.49c-0.61,0.31-0.77,0.67-0.46,1.35c0.64,1.41,1.18,2.87,1.73,4.32
			c0.07,0.19,0.02,0.52-0.11,0.68c-0.83,1.05-1.75,2.04-2.52,3.13c-0.38,0.54-0.69,0.6-1.27,0.47c-1.64-0.38-3.3-0.69-5.12-1.07
			c-0.7,2.2-1.38,4.34-2.07,6.5c0.39,0.17,0.62,0.28,0.85,0.37c1.41,0.59,2.82,1.2,4.24,1.76c0.4,0.16,0.5,0.38,0.53,0.8
			c0.12,1.45,0.32,2.89,0.45,4.34c0.02,0.22-0.15,0.56-0.34,0.69c-1.03,0.72-2.1,1.37-3.15,2.07
			C419.77,58.96,419.45,59.18,419.46,59.63z M431.75,56.52c-2.64-5-0.74-11.19,4.26-13.83l0,0c4.99-2.64,11.19-0.74,13.83,4.26l0,0
			c2.64,5,0.74,11.19-4.26,13.83h0C440.59,63.43,434.39,61.52,431.75,56.52L431.75,56.52z"/>
	</g>
	<g>
		<path class="st5" d="M86.53,421.72l1.32,0.28c1.39-4.36,3.31-9.09,5.94-13.9c9.95-18.21,7.97-21.27,20.3-31.34
			c12.34-10.07,18.48-35.12,18.48-35.12s10.84-27.63,8.87-41.24c-1.97-13.61,0.38-26.3-8.1-42.06c0,0-5.99,17.36-10.44,24.89
			c-4.44,7.52-8.67,14.72-10.85,34.6c-2.18,19.88-1.28,21.77-1.91,26.91c-0.63,5.14-5.92,26.24-5.59,29.98
			c0.33,3.74-12.29,26.47-15.07,36.79C88.64,414.61,87.58,418.13,86.53,421.72z"/>
		<path class="st5" d="M87.95,416.63c3.32-3.5,8.01-6.47,14.47-6.91c16.9-1.16,26.65,2.57,39.1-10.53
			c12.45-13.1,20.24-34.37,24.19-37.93c0,0-5.85-3.32-16.16,5.56c-10.31,8.88-17.58,15.63-23.55,20.8
			c-5.97,5.17-10.5,1.45-16.71,4.77c-5.21,2.78-12.14,11.14-15.23,15.54c-1,1.43-2.17,2.73-3.5,3.86c-1.21,1.03-2.65,2.29-3.58,3.22
			c-0.21,0.21-0.46,0.55-0.75,0.99L87.95,416.63z"/>
		<path class="st5" d="M56.24,339.88c-1.11,14.18,7.92,13.08,8.29,22.1c0.37,9.03,12.16,24.31,17.62,35.18
			c2.84,5.65,3.89,14.29,4.24,21.29h4.39c-1.7-17.7-8.88-30.02-13.17-39.89c-5.53-12.71-6.36-18.51-1.66-28.46
			c4.7-9.95-2.21-35.64,4.48-47.1c6.69-11.46,3.26-29.44,1.72-36.34c-1.54-6.91,0.16-11.6,1.54-18.89
			c1.38-7.28-1.54-17.86-1.54-17.86c-0.25,9.03-7.12,21.37-12.09,29.29c-4.97,7.92-14.37,29.47-13.26,39.24
			c1.11,9.76,0.55,10.5,0.55,10.5C53.84,322.01,57.34,325.69,56.24,339.88z"/>
		<path class="st4" d="M82.73,406.82c0.57,1.69,2.41,6,4.1,11.5l2.69-0.02c-1.27-7.01-3.43-15.13-7.02-19.77
			c-7.24-9.35-21.63-13.32-23.33-20.13c-1.7-6.81,0.02-27.26-10.54-38.62c0,0,1.55,12.71,0.1,16.12
			c-1.45,3.41-13.89,19.33-6.44,32.55c7.45,13.22,24.01,11.46,29.19,14.38C76.65,405.75,81.8,404.06,82.73,406.82z"/>
		<path class="st4" d="M75.94,345.76c-0.18,13.63,10.5,18.79,10.32,26.34c-0.18,7.55,2.21,15.66,4.24,21.74
			c1.28,3.85,0.57,14.56,0.35,24.62h2.96c0.75-7.39,1.56-18.05,1.29-22.77c-0.37-6.45,2.58-11.6,2.95-22.84
			c0.37-11.24,2.76-21.37-2.21-35.55c-4.97-14.18-4.05-31.13-24.87-46.79c0,0-3.68,16.58-0.92,25.6
			C72.81,325.13,76.12,332.13,75.94,345.76z"/>
	</g>
	<g>
		<g>
			<path class="st7" d="M449.81,412.11c0,13.61-65.57,24.64-146.46,24.64c-80.89,0-146.46-11.03-146.46-24.64
				c0-13.61,65.57-24.64,146.46-24.64C384.24,387.47,449.81,398.5,449.81,412.11z"/>
		</g>
		<path class="st8" d="M263.44,318.77c-0.03,0.05-0.06,0.09-0.09,0.13c0.11,0,0.22,0,0.34,0
			C263.61,318.85,263.52,318.81,263.44,318.77z"/>
		<path class="st9" d="M430.84,304.3c-5.04-0.15-10.09-0.87-15.11-0.32c-10.66,1.18-20.81,3.85-29.39,10.78
			c-0.86,0.69-1.86,1.2-2.79,1.79l0,0c-1.22,5.75-6.08,5.31-10.25,6.01c-0.92,0.15-1.89-0.01-2.73,0.53
			c-0.34,0.91-1.23,1.22-1.95,1.61c-4.6,2.51-8.11,6.26-11.86,9.8c-8.11,7.65-16.28,15.25-24.69,22.56
			c-4.19,3.64-8.9,6.69-13.52,9.8c-3.42,2.3-8.31,1.42-11.56-1.65c-5.6-5.29-11.06-10.74-16.9-15.76
			c-8.19-7.04-16.67-13.77-24.07-21.67c-2.61-2.78-5.19-5.61-8.39-8.88c2.35,0,4.05,0,5.71,0c0.03-0.04,0.06-0.08,0.09-0.13
			c-1.12-0.57-2.36-0.45-3.51-0.29c-4.82,0.66-8.61-1.75-12.43-4.04c-1.42-0.85-1.48-2.35-1.5-3.87c-0.04-2.96,0.38-6.03-1.71-8.6
			l0,0c-3.42-3.74-6.06-8.07-9.16-12.05c-4.89-6.28-9.44-12.9-16.83-16.68c-3.17-1.62-6.52-2.54-10.02-3.03
			c-12.44,0.6-19.27,8.65-24.34,18.71c-3.02,6-2.11,12.48-0.63,18.69c2.57,10.8,8.8,19.87,14.54,29.14
			c5.06,8.17,11.63,15.03,18.66,21.49c2.89,0.71,5.22,2.51,7.66,4.06c10.6,6.71,21.75,12.28,33.58,16.48
			c3.13,1.11,5.94,2.63,8.1,5.22c0.44,0.53,0.89,0.96-0.23,1.12c3.41,0.6,6.25,2.52,9.28,4.01h0c0,0,0,0,0,0
			c1.03,0.01,2.07,0.1,3.1,0.03c4.33-0.32,8.05,0.59,10.2,4.84c0.11,0.22,0.32,0.41,0.53,0.56c2.67,1.84,3.7,4.16,2.85,7.48
			c-0.48,1.86-0.19,3.89,1.03,5.67c0.86,1.27,0.5,2.83,0.42,4.29c3.7,2.8,8.05,3.18,12.45,3.45c4.97,0.31,6.38-0.53,8.14-5.12
			c-3.98-3.3-3.48-6.97-1.09-10.97c1.73-2.89,3.35-5.84,5.82-8.15c2.88-2.7,6.08-3.98,10.31-3.22c5.06,0.9,10.15,1.47,15.01,3.26
			c2.46-0.91,4.87,0.19,7.3,0.27c9.08,0.27,18.14,1.1,27.19-0.52c2.42-0.43,4.91-0.83,7.42-0.62c3.26-0.34,6.52-0.69,9.78-1.03
			c4.52-2.47,9.33-4.48,13.32-7.78c9.34-7.72,18.61-15.54,27.12-24.2c2.82-2.87,5.19-6.09,6.79-9.93c2.79-6.7,3.34-13.66,2.85-20.73
			C444.74,316.58,438.94,309.66,430.84,304.3z"/>
		<path class="st1" d="M217.63,263.24c3.3,2.19,7.04,2.39,10.72,3.03c4.64,0.81,9.16,0.19,13.66-0.89c0.95-0.23,1.65,0.34,2.49,0.37
			c0.85-1.62,0.38-3.37,0.38-5.05c0-4.38,0.12-8.75-0.3-13.14c-0.63-6.67,2.12-9.51,8.79-10.31c9.62-1.15,19.25-0.29,28.88-0.51
			c15.56-0.34,31.05,1.29,46.57,1.95c6.78,0.28,13.56,0.68,20.36,0.76c7.19,0.09,14.38,0.92,21.57,1.33
			c3.24,0.18,6.49-0.32,9.74,0.12c2.13,0.29,4.2,0.56,6.13,1.69c2.87,1.68,3.67,4.75,3.17,7.84c-0.74,4.57-0.7,9.22-1.68,13.75l0,0
			l0,0c3.81-1.77,7.97-1.14,11.92-1.36c5.8-0.33,11.26-1.53,16.62-3.57c0.46-0.18,1-0.15,1.51-0.21c-0.88-9.91-1.79-19.78-4.1-29.54
			c-2.85-12.03-5.83-24.07-12.63-34.43c-4.48-6.83-10.54-13.1-17.44-17.31c-11.35-6.94-24.53-8.35-37.72-8.59
			c0.85,1.23,2.48,1.85,0.54,4.03c-5.75,6.43-12.63,10.94-20.63,13.92c-1.2,0.45-2.44,0.84-3.59,1.39
			c-7.08,3.43-14.1,2.18-21.22,0.02c-4.68-1.41-8.78-3.91-12.71-6.55c-3.45-2.32-5.96-5.84-8.7-9.01c-1.36-1.57-2.82-3.07-2.43-5.41
			h0c-4.55,1.27-8.74,3.33-12.98,5.43c-9.6,4.75-18.53,10.73-28.32,15.11c-1.46,0.66-2.75,1.76-4.02,2.78
			c-7.1,5.67-9.98,13.81-12.5,22.05c-2.28,7.48-3.6,15.16-4.28,22.97c-0.54,6.19-3,11.97-4.23,18.02c-0.58,2.89-1.69,5.81-0.45,8.82
			C213.17,260.95,215.58,261.89,217.63,263.24z"/>
		<path class="st10" d="M326.01,169.97c3.34-2.93,6.8-5.75,9.48-9.35c0.16-0.22,0.62-0.22,0.94-0.33c-0.27-0.59-0.17-1.13,0.15-1.7
			c3.99-7.09,5.73-14.83,6.63-22.82c0.18-1.6-0.02-3.21,2.53-2.99c1.1,0.09,1.8-1.16,2.16-2.29c1.49-4.68,2.46-9.46,2.52-14.4
			c0.02-1.34-0.22-2.57-1.44-3.38c-2.18,0.96-3.05,2.98-3.7,4.99c-0.73,2.26-2.29,2.53-4.24,2.33c-2.26-0.24-2.01-1.93-2-3.48
			c0.02-4.12-0.07-8.24-0.99-12.29c-0.96-4.21-3.08-5.83-7.32-6.13c-4.48-0.32-8.63,1.27-12.95,1.78c-3.31,0.39-6.49-0.08-9.67-0.81
			c-1.25-0.29-2.51-0.6-3.78-0.7c-8.11-0.62-12.3,3.39-12.7,12.14c-0.07,1.63-0.09,3.27-0.01,4.9c0.08,1.68-0.69,2.58-2.27,2.88
			c-1.54,0.29-2.57-0.11-3.22-1.74c-1.05-2.63-3.29-4.28-5.53-5.87c0,0,0,0,0,0c-1.12,0.83-2.36,1.67-2.44,3.16
			c-0.27,5.01-0.03,9.96,2.37,14.55c0.41,0.77,0.89,1.84,1.72,1.76c2.88-0.26,2.58,1.61,2.62,3.43c0.02,1.28,0.27,2.56,0.38,3.84
			c0.54,6.24,0.87,12.51,3.88,18.23c0.59,1.13,0.93,2.39,1.39,3.58c3.4,3.5,6.89,6.9,10.17,10.5
			C309.02,178.92,318.36,176.66,326.01,169.97z"/>
		<path class="st11" d="M286.32,115.47c0.72,1.09,1.3,2.39,2.94,1.89c1.61-0.5,1.49-1.94,1.49-3.22c0-2.33,0.11-4.63,0.64-6.91
			c1.8-7.7,6.41-10.76,14.2-9.4c2.37,0.41,4.69,1.05,7.09,1.36c2.96,0.38,5.85,0.11,8.68-0.63c3.03-0.8,6.08-1.07,9.19-1
			c4.61,0.09,7.14,2.07,8.18,6.59c0.95,4.13,1.16,8.33,1.08,12.56c-0.02,1.08,0.2,2.1,1.49,2.39c1.31,0.29,2.39,0,3.05-1.28
			c0.27-0.53,0.5-1.1,0.76-1.64c0.41-0.86,0.85-1.7,1.48-2.41c0.62-0.71,1.27-1.46,2.39-1.02c0.11-0.32,0.33-0.65,0.32-0.97
			c-0.28-10.28,0.95-20.56-1.09-30.85c-1.78-8.94-7.51-14.13-14.99-17.71c-7.35-3.52-15.22-4.57-23.36-2.7
			c-6.03,1.39-11.96,2.88-17.02,6.73c-9.04,6.89-12.9,16.14-12.82,27.31c0.04,5.41,0.11,10.81,0.58,16.2c0,0,0,0,0,0
			C283.49,111.11,284.9,113.31,286.32,115.47z"/>
		<path class="st12" d="M286.11,116.6c0.65,1.62,1.69,2.03,3.22,1.74c1.58-0.3,2.35-1.2,2.27-2.88c-0.08-1.63-0.07-3.27,0.01-4.9
			c0.4-8.75,4.59-12.76,12.7-12.14c1.27,0.1,2.53,0.41,3.78,0.7c3.18,0.73,6.36,1.2,9.67,0.81c4.33-0.51,8.47-2.1,12.95-1.78
			c4.24,0.3,6.35,1.92,7.32,6.13c0.93,4.05,1.01,8.17,0.99,12.29c-0.01,1.55-0.26,3.24,2,3.48c1.95,0.2,3.51-0.07,4.24-2.33
			c0.65-2.02,1.53-4.03,3.7-4.99c-1.13-0.44-1.77,0.32-2.39,1.02c-0.63,0.71-1.06,1.56-1.48,2.41c-0.26,0.54-0.48,1.1-0.76,1.64
			c-0.66,1.28-1.74,1.57-3.05,1.28c-1.29-0.29-1.51-1.31-1.49-2.39c0.08-4.22-0.14-8.42-1.08-12.56c-1.04-4.53-3.57-6.5-8.18-6.59
			c-3.11-0.06-6.15,0.2-9.19,1c-2.82,0.74-5.71,1.01-8.68,0.63c-2.4-0.31-4.72-0.95-7.09-1.36c-7.79-1.36-12.4,1.7-14.2,9.4
			c-0.53,2.28-0.64,4.59-0.64,6.91c0,1.28,0.13,2.72-1.49,3.22c-1.65,0.5-2.22-0.79-2.94-1.89c-1.42-2.16-2.83-4.37-5.74-4.74
			C282.82,112.32,285.06,113.96,286.11,116.6z"/>
		<path class="st9" d="M393.52,431.77c8.07-4.18,11.28-11.24,11.07-19.87c-0.19-7.61-3.68-13.53-10.64-17.18
			c-2.26-1.19-4.36-2.7-6.94-3.22c-0.43-0.09-1-0.12-1.27-0.52c-0.1,0.01-0.21,0.03-0.31,0.04c-7.73,0.91-15.44,1.91-23.28,1.68
			c-6-0.17-11.98-0.3-17.93-1.06c-0.09-0.01-0.19-0.02-0.29-0.03c0.85,1.44-0.19,2.92-0.41,4.23c-0.76,4.38-0.21,8.66,0.44,12.93
			c0.35,2.31,0.2,4.59,0.19,6.88c-0.01,1.03-0.52,1.97-1.48,2.56c1.06,4.49,4.12,6.79,8.47,7.53c5.07,0.86,10.15,1.59,15.31,1.77
			c4.18,0.15,8.12,1.15,11.45,3.95c2.72,2.28,5.83,3.63,9.49,3.25c1.62-0.17,3.23-0.35,4.85-0.53
			C391.28,432.65,392.56,432.27,393.52,431.77z"/>
		<path class="st13" d="M344.23,391.64c5.95,0.76,11.93,0.89,17.93,1.06c7.84,0.22,15.55-0.77,23.28-1.68
			c0.1-0.02,0.21-0.03,0.31-0.04c-0.1-0.15-0.16-0.35-0.15-0.63c-2.51-0.21-5,0.19-7.42,0.62c-9.06,1.63-18.12,0.79-27.19,0.52
			c-2.43-0.07-4.84-1.18-7.3-0.27c0.1,0.12,0.19,0.25,0.26,0.38C344.04,391.62,344.14,391.63,344.23,391.64z"/>
		<path class="st9" d="M273.48,412.26c0.7-4.3-1.36-7.79-3.29-11.29c-1.48-2.67-1.61-5.53-1.43-8.44c0.12-2.05,1.52-2.94,3.34-3.25
			c0.49-0.08,0.99-0.11,1.49-0.11c-2.71-1.13-5.23-2.67-8.01-3.64c-0.04-0.15-0.09-0.28-0.14-0.41c-6.03-1-11.98,0.99-17.99,0.55
			c-1.02-0.08-2.06,0.03-3.03-0.43c-0.72,0.7-1.65,0.49-2.45,0.39c-5.27-0.66-9.76,1.95-14.54,3.36c-0.72,0.21-1.44,0.62-2.02,1.11
			c-8.19,6.8-10.98,15.69-9.75,25.98c0.3,2.52,1.92,4.45,4.3,5.74c4.85,2.64,9.61,3.39,14.5,0.16c1.21-0.8,2.57-1.38,3.87-2.03
			c3.66-1.82,7.51-2.62,11.62-2.85c5.57-0.3,11,1.52,16.61,0.68c3.16-0.47,5.85-1.15,7.28-4.28
			C273.72,413.06,273.42,412.63,273.48,412.26z"/>
		<path class="st13" d="M265.58,385.51c2.78,0.97,5.3,2.52,8.01,3.64c0.44-0.01,0.88,0,1.31-0.02h0c-3.03-1.49-5.87-3.41-9.28-4.01
			c-0.06-0.01-0.12-0.02-0.19-0.03C265.49,385.24,265.54,385.37,265.58,385.51z"/>
		<path class="st10" d="M403.98,263.32c-4.92,0.68-9.96,0.13-14.84,1.4c-0.46,0.12-0.86,0.07-1.14-0.21
			c-1.81,5.82-2.17,11.77-1.46,17.81c0,0,0,0,0,0c0,0,0,0,0,0c1.58,3.05,3.15,6.11,5.32,8.78c0.9,1.12,0.52,1.51-0.56,1.99
			c-2.27,1.01-4.5,2.1-6.74,3.16c-1.04,3.41-0.62,6.97-0.99,10.45c-0.32,3.03-0.07,6.12-0.02,9.2c8.62-7.38,18.85-11.09,29.9-12.39
			c5.75-0.68,11.67-0.99,17.39,0.79c0,0,0,0,0,0l0,0c-0.53-1.14-0.35-2.36-0.38-3.56c-0.12-4.25-1-8.32-2.74-12.2
			c-1.97-4.39-3.52-8.92-5.03-13.48c-1.75-5.28-2.33-10.88-4.54-16.03l0,0c0,0,0,0,0,0C413.83,261.79,408.9,262.64,403.98,263.32z"
			/>
		<path class="st10" d="M413.45,303.51c-11.05,1.3-21.29,5.01-29.9,12.39c0,0.22,0.01,0.43,0.01,0.65l0,0l0,0
			c0.93-0.59,1.94-1.09,2.79-1.79c8.58-6.93,18.73-9.6,29.39-10.78c5.02-0.56,10.07,0.16,15.11,0.32c0,0,0,0,0,0
			C425.12,302.52,419.2,302.83,413.45,303.51z"/>
		<path class="st10" d="M400.02,262.82c-3.94,0.22-8.11-0.41-11.92,1.36l0,0c-0.04,0.11-0.07,0.22-0.1,0.34
			c0.29,0.27,0.68,0.33,1.14,0.21c4.87-1.27,9.92-0.72,14.84-1.4c4.92-0.68,9.85-1.53,14.17-4.28c0,0,0,0,0,0
			c-0.5,0.07-1.04,0.04-1.51,0.21C411.28,261.28,405.82,262.49,400.02,262.82z"/>
		<path class="st14" d="M288.26,180.75c5.83,4.79,12.88,7.7,20.56,8.87c4.79,0.73,9.14-0.06,13.58-1.73
			c6.3-2.37,12.38-5.06,17.73-9.25c1.77-1.39,3.39-2.87,4.93-4.5c1.42-1.5,2.08-3.01,1.2-4.98l0,0l0,0
			c-4.07-2.07-6.83-5.6-9.83-8.86c-4.88,6.22-10.41,11.72-17.73,14.97c-5.65,2.51-11.11,1.37-15.71-2.47
			c-4.02-3.35-7.53-7.29-11.17-11.07c-0.65-0.68-1.26-1.42-1.31-2.45c-2.13,1.57-4.44,2.8-6.73,4.11c-2.16,1.24-4.49,2.3-6.27,4.15
			l0,0C279.64,173.13,283.95,177.21,288.26,180.75z"/>
		<path class="st14" d="M279.95,172.96c2.74,3.17,5.25,6.69,8.7,9.01c3.93,2.64,8.04,5.13,12.71,6.55
			c7.12,2.16,14.14,3.42,21.22-0.02c1.15-0.56,2.39-0.95,3.59-1.39c8-2.97,14.88-7.49,20.63-13.92c1.95-2.18,0.31-2.79-0.54-4.03
			l0,0c0.88,1.97,0.22,3.48-1.2,4.98c-1.54,1.63-3.16,3.12-4.93,4.5c-5.35,4.19-11.43,6.88-17.73,9.25
			c-4.44,1.67-8.79,2.46-13.58,1.73c-7.69-1.17-14.73-4.08-20.56-8.87c-4.31-3.55-8.63-7.63-10.75-13.21
			C277.13,169.89,278.58,171.38,279.95,172.96z"/>
		<path class="st14" d="M302.99,172.8c4.6,3.83,10.06,4.98,15.71,2.47c7.32-3.25,12.85-8.76,17.73-14.97
			c-0.32,0.11-0.78,0.11-0.94,0.33c-2.68,3.6-6.14,6.42-9.48,9.35c-7.64,6.69-16.99,8.95-25.32-0.19c-3.28-3.6-6.78-7.01-10.17-10.5
			c0.05,1.02,0.66,1.77,1.31,2.45C295.46,165.51,298.97,169.46,302.99,172.8z"/>
		<path class="st10" d="M342.72,405.24c-0.65-4.63-0.27-9.17,0.88-13.66c-3.96-0.48-7.69-2.12-11.7-2.41
			c-1.02-0.07-2.06-0.17-3.06-0.41c-5.05-1.22-8.65,1.06-11.63,4.78c-1.99,2.49-3.74,5.13-5.01,8.08c-1.07,2.46-1.34,4.78,0.77,6.89
			c0.47,0.47,0.95,1.03,0.66,1.82c5.69,3.98,11.59,7.31,18.61,8.58c3.68,0.66,7.04,0.85,10.44-0.7
			C344.05,413.89,343.33,409.55,342.72,405.24z"/>
		<path class="st10" d="M312.96,408.5c-2.11-2.11-1.84-4.43-0.77-6.89c1.28-2.94,3.02-5.59,5.01-8.08c2.98-3.72,6.58-6,11.63-4.78
			c1,0.24,2.04,0.34,3.06,0.41c4.01,0.28,7.74,1.93,11.7,2.41c0.03-0.11,0.05-0.23,0.08-0.34c-4.86-1.79-9.95-2.36-15.01-3.26
			c-4.23-0.75-7.43,0.53-10.31,3.22c-2.47,2.31-4.09,5.27-5.82,8.15c-2.39,4-2.89,7.67,1.09,10.97
			C313.91,409.54,313.43,408.97,312.96,408.5z"/>
		<path class="st10" d="M344.15,415.65c0.01-2.29,0.16-4.57-0.19-6.88c-0.65-4.27-1.2-8.55-0.44-12.93
			c0.23-1.31,1.26-2.79,0.41-4.23c-0.12-0.01-0.23-0.02-0.35-0.04c-1.14,4.49-1.52,9.04-0.88,13.66c0.6,4.32,1.33,8.66-0.04,12.97
			C343.63,417.62,344.15,416.68,344.15,415.65z"/>
		<path class="st10" d="M343.94,391.61c-0.07-0.13-0.16-0.26-0.26-0.38c-0.03,0.11-0.05,0.23-0.08,0.34
			C343.71,391.59,343.83,391.6,343.94,391.61z"/>
		<path class="st10" d="M211.52,270.13c7.63,1.72,13.45,6.17,18.35,12.06c4.56,5.48,8.72,11.24,12.82,17.06
			c0.68,0.96,1.6,1.7,2.28,2.66c0.77-0.15,1.38-0.56,1.42-1.42c0.19-4.75,0.66-9.54-0.94-14.18c-2.45,0-4.9,0-7.48,0
			c1.64-5.93,4.89-11.11,6.6-16.89c0.06-1.16,0.81-2.34,0.06-3.49c-7.08,1.37-14.17,1.91-21.31,0.36c-1.34-0.29-2.72-0.59-3.89-1.29
			c-2.7-1.61-5.5-2.67-8.7-2.28c-1,2.43-2.43,4.73-2.45,7.49l0,0l0,0C209.34,269.52,210.43,269.88,211.52,270.13z"/>
		<path class="st10" d="M235.13,289.92c3.1,3.98,5.74,8.31,9.16,12.05l0,0l0,0c0.23,0,0.45-0.02,0.67-0.07
			c-0.68-0.95-1.6-1.7-2.28-2.66c-4.1-5.82-8.26-11.58-12.82-17.06c-4.9-5.89-10.72-10.34-18.35-12.06
			c-1.09-0.24-2.17-0.61-3.23,0.09l0,0c3.5,0.49,6.84,1.4,10.02,3.03C225.7,277.02,230.25,283.63,235.13,289.92z"/>
		<path class="st10" d="M219.43,265.01c1.17,0.7,2.54,1,3.89,1.29c7.14,1.54,14.23,1,21.31-0.36c-0.04-0.06-0.08-0.12-0.13-0.18l0,0
			c-0.84-0.03-1.54-0.6-2.49-0.37c-4.49,1.08-9.02,1.7-13.66,0.89c-3.68-0.64-7.41-0.84-10.72-3.03c-2.05-1.36-4.46-2.29-6.9-0.52
			C213.93,262.34,216.73,263.4,219.43,265.01z"/>
		<path class="st10" d="M291.02,400.06c0.2-0.86,0.24-1.79-0.39-2.46c-1.99-2.14-3.73-4.51-5.91-6.45c-1.2-1.07-2.84-1.11-4.4-1.18
			c-1.71-0.07-3.44,0.12-5.14-0.21c-0.21-0.07-0.42-0.16-0.63-0.23c-0.48,0.35-1.1,0.34-1.68,0.45c-2.68,0.52-3.19,1.21-3.38,3.95
			c-0.2,2.95,0.62,5.59,2.08,8.07c1.87,3.17,3.01,6.51,2.61,10.25c-0.05,0.43-0.05,0.86-0.32,1.22c0.92,1.42,2.34,1.63,3.82,1.42
			c3.52-0.49,6.96-1.45,10.58-1.44c1.62,0.01,3.4-0.29,4.78-1.46C291.92,408.09,290.03,404.32,291.02,400.06z"/>
		<path class="st10" d="M292.61,407.71c-1.22-1.78-1.51-3.81-1.03-5.67c0.85-3.32-0.17-5.64-2.85-7.48
			c-0.21-0.14-0.42-0.34-0.53-0.56c-2.15-4.25-5.87-5.15-10.2-4.84c-1.03,0.07-2.06-0.02-3.1-0.03c0,0,0,0,0,0
			c-0.11,0.17-0.23,0.29-0.37,0.39c0.21,0.08,0.42,0.16,0.63,0.23c1.7,0.33,3.43,0.14,5.14,0.21c1.56,0.06,3.2,0.11,4.4,1.18
			c2.18,1.94,3.92,4.32,5.91,6.45c0.63,0.67,0.59,1.6,0.39,2.46c-1,4.26,0.9,8.03,2,11.93
			C293.11,410.54,293.47,408.98,292.61,407.71z"/>
		<path class="st10" d="M271.55,402c-1.46-2.48-2.29-5.13-2.08-8.07c0.19-2.74,0.71-3.43,3.38-3.95c0.58-0.11,1.2-0.1,1.68-0.45
			c-0.32-0.12-0.64-0.24-0.95-0.37c-0.5,0.01-1,0.03-1.49,0.11c-1.82,0.31-3.22,1.2-3.34,3.25c-0.17,2.91-0.04,5.77,1.43,8.44
			c1.93,3.5,4,7,3.29,11.29c-0.06,0.37,0.24,0.81,0.37,1.21c0.27-0.36,0.27-0.79,0.32-1.22C274.56,408.51,273.42,405.17,271.55,402z
			"/>
		<path class="st10" d="M274.54,389.52c0.13-0.1,0.26-0.22,0.37-0.39c-0.44,0.02-0.88,0.02-1.31,0.02
			C273.9,389.28,274.22,389.41,274.54,389.52z"/>
		<path class="st15" d="M396.22,395.37c8.12,4.5,10.42,16.13,8.36,23.36c-1.65,5.77-4.69,10.47-10.14,13.35
			c-0.94,0.5-1.68,1.18-2.19,2.12c5.39-0.59,9.97-3.15,14.18-6.27c1.85-1.37,3.6-3.04,4.69-5.35c2.27-4.84,2.18-9.93,2.43-15.08
			c0.31-6.25-4.73-13.09-10.46-15.12c-2.35-0.83-4.72-1.52-7.14-2.05c-0.73-0.16-0.84-0.4-0.57-1c-2.57,1.44-5.4,1.32-8.18,1.51
			C390.4,391.92,393.25,393.72,396.22,395.37z"/>
		<path class="st15" d="M387.2,390.83c2.78-0.2,5.61-0.08,8.18-1.51c-3.26,0.35-6.52,0.69-9.78,1.03
			C386.14,390.49,386.67,390.65,387.2,390.83z"/>
		<path class="st15" d="M394.43,432.07c5.45-2.87,8.5-7.58,10.14-13.35c2.06-7.23-0.24-18.85-8.36-23.36
			c-2.97-1.65-5.82-3.44-9.02-4.53c-0.49,0.03-0.97,0.08-1.45,0.15c0.27,0.4,0.84,0.43,1.27,0.52c2.58,0.52,4.68,2.03,6.94,3.22
			c6.95,3.65,10.45,9.58,10.64,17.18c0.21,8.62-3.01,15.68-11.07,19.87c-0.96,0.5-2.24,0.88-1.28,2.42
			C392.75,433.25,393.49,432.57,394.43,432.07z"/>
		<path class="st15" d="M387.2,390.83c-0.53-0.18-1.06-0.34-1.61-0.48c-0.01,0.28,0.05,0.47,0.15,0.63
			C386.23,390.92,386.71,390.87,387.2,390.83z"/>
		<path class="st9" d="M262.31,383.99c1.05-0.07,2.19,0.14,3.06,0.9c-0.65-1.62-2.11-2.53-3.49-3.47c-1.06-0.73-2.25-1.27-3.47-1.7
			c-13.3-4.66-25.74-11.06-37.55-18.7c-1.44-0.94-2.93-1.8-4.35-2.77c1.67,3.08,4.26,5.23,7.02,7.29c3.53,2.64,5.56,6.85,9.01,9.47
			c4.18,3.17,7.79,6.96,11.88,10.2c0.07-0.05,0.14-0.14,0.21-0.14C250.54,384.85,256.42,384.39,262.31,383.99z"/>
		<path class="st16" d="M258.42,379.72c1.22,0.43,2.42,0.97,3.47,1.7c1.37,0.95,2.84,1.85,3.49,3.47c0.08,0.07,0.17,0.15,0.25,0.23
			c1.12-0.16,0.67-0.6,0.23-1.12c-2.16-2.59-4.97-4.11-8.1-5.22c-11.83-4.19-22.98-9.76-33.58-16.48c-2.44-1.55-4.77-3.35-7.66-4.06
			c1.42,0.97,2.91,1.84,4.35,2.77C232.68,368.67,245.11,375.06,258.42,379.72z"/>
		<path class="st16" d="M265.44,385.1c-0.02-0.07-0.04-0.14-0.07-0.21c-0.88-0.77-2.02-0.97-3.06-0.9
			c-5.89,0.4-11.77,0.86-17.68,1.08c-0.07,0-0.14,0.09-0.21,0.14c0.96,0.46,2,0.36,3.03,0.43
			C253.47,386.09,259.41,384.1,265.44,385.1z"/>
		<path class="st17" d="M265.44,385.1c0.06,0.01,0.12,0.02,0.19,0.03c-0.08-0.08-0.17-0.16-0.25-0.23
			C265.4,384.96,265.42,385.03,265.44,385.1z"/>
		<path class="st18" d="M283.22,320.36c7.38,0.61,14.78,0.49,22.17,0.54c10.06,0.06,20.07,0.8,30.09,1.63
			c11.4,0.94,22.87,0.7,34.31,0.58c0.25-0.18,0.5-0.36,0.75-0.55c1.13-0.77,2.47-0.79,3.71-0.83c4.03-0.14,7.2-1.53,8.94-5.26
			c-0.48-0.19-0.6-0.68-0.6-1.19c0.05-5.96,0.17-11.92,0.93-17.85c0.03-0.25,0.17-0.48,0.26-0.71c0.26-0.35,0.54-0.66,0.83-0.94
			c0.59-4.14,1.18-8.28,1.77-12.43c-0.22-0.49-0.42-0.98-0.61-1.49c-0.86-5.52-0.06-10.93,1.04-16.31c0.11-0.55,0.31-1.17,0.95-1.34
			c-0.03-0.06-0.06-0.11-0.09-0.18c-0.15-4.22,0.56-8.38,1.1-12.53c0.73-5.61-1.32-8.76-6.94-9.6c-5.2-0.78-10.46-0.17-15.69-0.66
			c-9.84-0.92-19.73-1.15-29.6-1.45c-7.99-0.24-15.96-0.94-23.95-1.21c-7.64-0.26-15.27-1.2-22.92-1.05
			c-12.12,0.24-24.27-0.66-36.36,0.58c-6.43,0.66-8.69,3.75-7.89,10.19c0.63,5.07,0.26,10.14,0.31,15.21
			c0.01,0.86-0.11,1.73-0.83,2.36c-0.06,0.01-0.12,0.02-0.18,0.03c1.35,0.98,0.59,2.33,0.43,3.58c-0.09,0.36-0.18,0.72-0.29,1.07
			c0.37,1.94-0.04,3.92,0.06,5.87c0.15,3.18-0.15,6.38,0.44,9.54c0.25,0.1,0.5,0.23,0.75,0.41c1.79,4.55,1.36,9.27,0.92,13.95
			c-0.11,1.1-0.72,2-1.86,1.89c1.39,1.99,1.76,4.27,1.53,6.62c-0.32,3.18,1.01,5.19,3.81,6.6c2.74,1.38,5.5,2.36,8.62,2.3
			c1.5-0.03,3.13-0.46,4.46,0.71c-0.05,0.12-0.11,0.22-0.17,0.31c0.08,0.04,0.17,0.08,0.25,0.13
			C270.2,319.39,276.71,319.83,283.22,320.36z"/>
		<path class="st18" d="M259.15,317.75c-3.12,0.06-5.88-0.92-8.62-2.3c-2.8-1.4-4.13-3.42-3.81-6.6c0.24-2.35-0.14-4.63-1.53-6.62
			c-0.27-0.03-0.57-0.11-0.89-0.26c2.09,2.56,1.67,5.64,1.71,8.6c0.02,1.52,0.08,3.02,1.5,3.87c3.82,2.29,7.6,4.7,12.43,4.04
			c1.15-0.16,2.39-0.28,3.51,0.29c0.06-0.09,0.11-0.19,0.17-0.31C262.28,317.3,260.65,317.72,259.15,317.75z"/>
		<path class="st18" d="M374.26,321.73c-1.25,0.04-2.59,0.06-3.71,0.83c-0.24,0.19-0.49,0.37-0.75,0.55c0.26,0,0.52-0.01,0.77-0.01
			c0.84-0.54,1.82-0.38,2.73-0.53c4.18-0.7,9.03-0.26,10.25-6.01c-0.14-0.01-0.25-0.04-0.35-0.08
			C381.46,320.2,378.29,321.59,374.26,321.73z"/>
		<path class="st18" d="M244.74,265.91c0.06-0.01,0.12-0.02,0.18-0.03c0.72-0.63,0.84-1.5,0.83-2.36
			c-0.05-5.07,0.32-10.15-0.31-15.21c-0.8-6.43,1.46-9.53,7.89-10.19c12.09-1.24,24.24-0.34,36.36-0.58
			c7.64-0.15,15.28,0.79,22.92,1.05c7.99,0.27,15.96,0.97,23.95,1.21c9.87,0.3,19.76,0.53,29.6,1.45
			c5.23,0.49,10.49-0.11,15.69,0.66c5.63,0.84,7.67,3.99,6.94,9.6c-0.54,4.15-1.25,8.31-1.1,12.53c0.03,0.07,0.06,0.12,0.09,0.18
			c0.1-0.03,0.21-0.04,0.33-0.04l0,0c0.98-4.53,0.94-9.18,1.68-13.75c0.5-3.08-0.31-6.15-3.17-7.84c-1.93-1.14-4-1.41-6.13-1.69
			c-3.25-0.44-6.5,0.07-9.74-0.12c-7.19-0.41-14.37-1.24-21.57-1.33c-6.8-0.08-13.58-0.48-20.36-0.76
			c-15.52-0.65-31.01-2.29-46.57-1.95c-9.62,0.21-19.26-0.64-28.88,0.51c-6.67,0.8-9.42,3.64-8.79,10.31
			c0.42,4.39,0.3,8.76,0.3,13.14c0,1.68,0.47,3.43-0.38,5.05l0,0C244.58,265.8,244.66,265.86,244.74,265.91z"/>
		<path class="st18" d="M383.79,296.72c-0.1,0.23-0.23,0.46-0.26,0.71c-0.76,5.93-0.87,11.89-0.93,17.85c0,0.51,0.12,0.99,0.6,1.19
			c0.07-0.15,0.14-0.3,0.21-0.45c0.04-0.04,0.09-0.08,0.14-0.11c-0.05-3.07-0.3-6.17,0.02-9.2c0.37-3.48-0.05-7.04,0.99-10.45
			c0.02-0.16,0.05-0.32,0.07-0.47C384.33,296.06,384.05,296.37,383.79,296.72z"/>
		<path class="st18" d="M387.78,264.22c-0.64,0.16-0.84,0.79-0.95,1.34c-1.09,5.39-1.9,10.8-1.04,16.31c0.18,0.51,0.39,1,0.61,1.49
			c0.05-0.34,0.1-0.69,0.15-1.03c0,0,0,0,0,0c-0.71-6.04-0.35-11.98,1.46-17.81C387.92,264.43,387.84,264.34,387.78,264.22z"/>
		<path class="st18" d="M383.55,315.9c-0.04,0.04-0.09,0.07-0.14,0.11c-0.07,0.16-0.14,0.3-0.21,0.45c0.1,0.04,0.22,0.07,0.35,0.08
			l0,0C383.55,316.34,383.55,316.12,383.55,315.9z"/>
		<path class="st18" d="M388,264.51c0.04-0.11,0.07-0.22,0.1-0.34c-0.12,0-0.23,0.02-0.33,0.04
			C387.84,264.34,387.92,264.43,388,264.51z"/>
		<path class="st18" d="M245.17,269.49c0.16-1.25,0.92-2.6-0.43-3.58c-0.04,0.01-0.07,0.01-0.11,0.02c0.75,1.15-0.01,2.32-0.06,3.49
			c0.15,0.38,0.25,0.76,0.32,1.15C244.99,270.21,245.08,269.85,245.17,269.49z"/>
		<path class="st18" d="M245.19,302.23c1.13,0.11,1.75-0.79,1.86-1.89c0.44-4.68,0.88-9.4-0.92-13.95
			c-0.24-0.18-0.49-0.31-0.75-0.41c0.02,0.11,0.03,0.22,0.06,0.33h0c1.61,4.64,1.14,9.42,0.94,14.18c-0.04,0.86-0.65,1.27-1.42,1.42
			c0.02,0.02,0.04,0.05,0.06,0.08C245.09,302.06,245.13,302.15,245.19,302.23z"/>
		<path class="st18" d="M245.03,301.98c-0.02-0.03-0.04-0.05-0.06-0.08c-0.21,0.04-0.44,0.06-0.67,0.07l0,0
			c0.33,0.15,0.62,0.23,0.89,0.26C245.13,302.15,245.09,302.06,245.03,301.98z"/>
		<path class="st18" d="M244.49,265.75L244.49,265.75L244.49,265.75c0.05,0.06,0.09,0.12,0.13,0.18c0.04-0.01,0.08-0.01,0.11-0.02
			C244.66,265.86,244.58,265.8,244.49,265.75z"/>
		<path class="st1" d="M259.41,319.6c6.92,7.8,14.3,15.2,22.35,21.97c5.91,4.96,11.93,9.83,17.38,15.33
			c2.84,2.87,5.91,5.52,8.85,8.28c2.92,2.74,7.36,3.15,10.59,0.78c7.28-5.32,14.81-10.28,21.23-16.77
			c7.24-7.34,15.38-13.75,22.67-21.07c1.81-1.82,4.22-2.99,6.42-4.42c-0.76,0.17-1.54,0.22-2.34,0.22c-11.25,0-22.6,0.79-33.73-0.73
			c-11.75-1.6-23.5-1.27-35.24-1.47c-10.41-0.18-20.72-1.27-31.07-1.92c-1.01-0.06-2.09,0-2.85-0.9c-0.11,0-0.23,0-0.34,0
			C262.35,320.33,260.7,319.18,259.41,319.6z"/>
		<path class="st1" d="M362.49,328.13c-7.29,7.33-15.43,13.74-22.67,21.07c-6.42,6.5-13.95,11.45-21.23,16.77
			c-3.23,2.37-7.67,1.96-10.59-0.78c-2.95-2.77-6.01-5.42-8.85-8.28c-5.46-5.5-11.48-10.37-17.38-15.33
			c-8.06-6.77-15.44-14.18-22.35-21.97c1.29-0.43,2.93,0.73,3.94-0.7c-1.66,0-3.36,0-5.71,0c3.2,3.26,5.78,6.09,8.39,8.88
			c7.4,7.9,15.87,14.63,24.07,21.67c5.84,5.01,11.3,10.47,16.9,15.76c3.25,3.07,8.14,3.96,11.56,1.65c4.62-3.11,9.33-6.16,13.52-9.8
			c8.42-7.31,16.59-14.9,24.69-22.56c3.75-3.54,7.26-7.29,11.86-9.8c0.71-0.39,1.61-0.71,1.95-1.61c-0.53,0.29-1.08,0.48-1.65,0.61
			C366.71,325.13,364.31,326.3,362.49,328.13z"/>
		<path class="st1" d="M335.49,322.52c-10.03-0.82-20.03-1.57-30.09-1.63c-7.39-0.05-14.79,0.08-22.17-0.54
			c-6.51-0.53-13.02-0.98-19.53-1.46c0.76,0.9,1.84,0.83,2.85,0.9c10.35,0.65,20.66,1.74,31.07,1.92
			c11.74,0.2,23.48-0.13,35.24,1.47c11.13,1.52,22.47,0.73,33.73,0.73c0.8,0,1.58-0.05,2.34-0.22c0.3-0.19,0.59-0.39,0.88-0.6
			C358.35,323.22,346.89,323.46,335.49,322.52z"/>
		<path class="st19" d="M368.92,323.7c0.57-0.12,1.12-0.31,1.65-0.61c-0.25,0-0.51,0.01-0.77,0.01
			C369.51,323.31,369.22,323.51,368.92,323.7z"/>
		<path class="st20" d="M384.63,295.78c-0.02,0.16-0.04,0.32-0.07,0.47c0.11-0.23,0.21-0.46,0.31-0.69
			C384.79,295.63,384.7,295.7,384.63,295.78z"/>
		<path class="st20" d="M386.67,283.94c-0.03-0.54-0.08-1.08-0.13-1.62c-0.05,0.34-0.1,0.69-0.15,1.03
			C386.48,283.55,386.58,283.75,386.67,283.94z"/>
		<path class="st21" d="M245.38,285.98c-0.11-0.05-0.23-0.09-0.35-0.12c0.12,0.16,0.25,0.31,0.41,0.45h0
			C245.42,286.2,245.4,286.09,245.38,285.98z"/>
		<path class="st15" d="M222.51,416.4c-0.09-2.73,0.23-5.47,0.87-8.12c0.67-2.8,1.69-5.52,3.02-8.08c1.37-2.64,3.06-5.12,5.05-7.35
			c2.03-2.28,4.36-4.29,6.93-5.93c0.81-0.51,1.64-0.99,2.5-1.43c-4.8-0.21-9,2.14-13.44,3.45c-0.72,0.21-1.44,0.62-2.02,1.11
			c-8.19,6.8-10.98,15.69-9.75,25.98c0.3,2.52,1.92,4.45,4.3,5.74c1.28,0.7,2.56,1.26,3.83,1.66
			C222.99,421.18,222.59,418.79,222.51,416.4z"/>
	</g>
</g>
</svg>
