<?xml version="1.0" encoding="utf-8"?>
<!-- Generator: Adobe Illustrator 26.3.1, SVG Export Plug-In . SVG Version: 6.00 Build 0)  -->
<svg version="1.1" id="Capa_1" xmlns="http://www.w3.org/2000/svg" xmlns:xlink="http://www.w3.org/1999/xlink" x="0px" y="0px"
	 viewBox="0 0 594 441" style="enable-background:new 0 0 594 441;" xml:space="preserve">
<style type="text/css">
	.st0{opacity:0.15;fill:#6C63FE;}
	.st1{fill:#C4D0F0;}
	.st2{fill:url(#SVGID_1_);}
	.st3{fill:url(#SVGID_00000165206724693399044930000010624726622686471851_);}
	.st4{fill:url(#SVGID_00000098216797844641259150000017771464662791563912_);}
	.st5{fill:url(#SVGID_00000030482795495266954120000006755133361662957440_);}
	.st6{fill:#FFFFFF;}
	.st7{opacity:0.75;fill:#6C63FE;}
	.st8{fill:#003BCD;}
	.st9{fill:#FFA051;}
	.st10{fill:#6C63FE;}
	.st11{fill:#98ABD3;}
	.st12{clip-path:url(#SVGID_00000030447209322668127130000018083323091715121082_);fill:#6C63FE;}
	.st13{fill:#5252D1;}
	.st14{fill:#D1D8ED;}
	.st15{fill:#FFE1E1;}
	.st16{fill:#ECEEF7;}
	.st17{fill:#FF6666;}
	.st18{fill-rule:evenodd;clip-rule:evenodd;fill:#FFA051;}
	.st19{fill-rule:evenodd;clip-rule:evenodd;fill:#FFFFFF;}
	.st20{fill-rule:evenodd;clip-rule:evenodd;fill:#6C63FE;}
	.st21{fill:url(#SVGID_00000021107122618710261770000001746437294662055830_);}
	.st22{fill:#E0813B;}
	.st23{fill:url(#SVGID_00000103962576361896804900000018081173651808864913_);}
	.st24{fill:url(#SVGID_00000020367823170678950870000013114219588737256888_);}
	.st25{fill:url(#SVGID_00000008108218320258311940000013005178802311778701_);}
	.st26{fill:url(#SVGID_00000111170638293232476140000015756975514782556299_);}
	.st27{fill:url(#SVGID_00000177458889850962113550000003208941492915253941_);}
	.st28{fill:url(#SVGID_00000146491251658723907890000006355454961995742357_);}
	.st29{fill:url(#SVGID_00000027569315570986164850000007646279702239462828_);}
	.st30{fill:url(#SVGID_00000155862047198107026250000001204383201675671701_);}
	.st31{fill:url(#SVGID_00000052087623095488249720000016696727459410815122_);}
	.st32{fill:url(#SVGID_00000068663438167116631790000006800523440628119483_);}
	.st33{fill:url(#SVGID_00000042014706598501008390000008440648399274450332_);}
	.st34{fill:url(#SVGID_00000169536241029966763690000010421020321271938996_);}
	.st35{fill:url(#SVGID_00000106114820598630185590000015179282564843714715_);}
	.st36{fill:url(#SVGID_00000110452251726595707730000011393141582484007336_);}
	.st37{fill:url(#SVGID_00000003794443260657590510000000110847822450547611_);}
	.st38{fill:url(#SVGID_00000041264390842710796960000001307641067084098721_);}
	.st39{fill:url(#SVGID_00000141418366296869099980000004634249626171849904_);}
	.st40{fill:url(#SVGID_00000178182407159906395690000014556335691668012168_);}
	.st41{fill:url(#SVGID_00000041287275225973065640000008827830363240056706_);}
	.st42{fill:url(#SVGID_00000121994939870067802790000017753254280633081491_);}
	.st43{fill:url(#SVGID_00000016061012407687763870000009449826056251079060_);}
	.st44{fill:url(#SVGID_00000126325258826053295210000013508554450434877607_);}
	.st45{fill:url(#SVGID_00000161592536258144078980000008667813810064452755_);}
	.st46{fill:url(#SVGID_00000124141746249251853030000001124843430671916986_);}
	.st47{fill:url(#SVGID_00000033346346814542699680000000086006312942860956_);}
	.st48{fill:url(#SVGID_00000119796912716197109140000012408622085912905147_);}
	.st49{fill:url(#SVGID_00000179624534848104889640000014662249277051337894_);}
	.st50{fill:url(#SVGID_00000026163682375041350440000015133569951245299354_);}
	.st51{fill:url(#SVGID_00000145017056186452368030000011393126973742458270_);}
	.st52{fill:url(#SVGID_00000152256495479369484710000001404962855612481704_);}
	.st53{fill:url(#SVGID_00000160183770592475456770000006562132778343912122_);}
	.st54{fill:url(#SVGID_00000001658688153755406740000008464851360640933256_);}
	.st55{fill:url(#SVGID_00000055707554340724894460000001380033136868654976_);}
	.st56{fill:url(#SVGID_00000097486469220876050380000016724845016523355827_);}
</style>
<g>
	<path class="st0" d="M480.76,284.95c-38.17,89.21-138.92,127.53-217.86,121c-21.55-1.78-64.92-5.37-98.78-37.39
		c-65.03-61.49-55.01-190.04,7.24-265.71c8.02-9.75,63.51-75.04,149.98-74.17c63.31,0.64,107.74,36.4,113.15,40.86
		c6.83,5.63,21.88,19,35.45,40.22C501.8,159.61,504.61,229.2,480.76,284.95z"/>
	<g>
		<g>
			<g>
				<g>
					<path class="st1" d="M234.19,109.61c0.74,0.17,1.24,0.88,1.14,1.65c-0.22,1.68-0.51,3.38-0.87,5.05
						c-0.18,0.81-0.98,1.33-1.79,1.15c-0.01,0-0.02,0-0.03-0.01c-0.8-0.19-1.3-0.98-1.12-1.78c0.34-1.59,0.62-3.2,0.83-4.8
						c0.11-0.82,0.86-1.41,1.68-1.3C234.09,109.59,234.14,109.6,234.19,109.61z M231.09,122.33c0.06,0.01,0.11,0.03,0.17,0.05
						c0.78,0.28,1.18,1.15,0.9,1.93c-0.58,1.6-1.24,3.2-1.96,4.73c-0.35,0.75-1.24,1.08-2,0.73c-0.75-0.35-1.08-1.24-0.73-2
						c0.68-1.46,1.3-2.98,1.86-4.5C229.6,122.56,230.36,122.16,231.09,122.33z M225.26,134.06c0.16,0.04,0.32,0.11,0.47,0.2
						c0.7,0.45,0.9,1.38,0.45,2.08c-0.92,1.43-1.92,2.84-2.97,4.18c-0.51,0.66-1.45,0.77-2.11,0.27c-0.66-0.51-0.77-1.45-0.27-2.11
						c0.99-1.28,1.94-2.61,2.82-3.97C224.01,134.16,224.66,133.92,225.26,134.06z M216.96,144.19c0.27,0.06,0.52,0.2,0.73,0.42
						c0.58,0.6,0.57,1.55-0.03,2.13c-1.22,1.19-2.51,2.34-3.83,3.41c-0.64,0.52-1.59,0.43-2.12-0.21c-0.53-0.64-0.43-1.59,0.21-2.12
						c1.25-1.02,2.47-2.11,3.63-3.24C215.94,144.2,216.47,144.07,216.96,144.19z M206.6,152.21c0.38,0.09,0.72,0.32,0.94,0.68
						c0.43,0.71,0.21,1.63-0.5,2.07c-1.45,0.88-2.96,1.72-4.48,2.48c-0.74,0.37-1.65,0.07-2.02-0.67c-0.37-0.74-0.07-1.65,0.67-2.02
						c1.45-0.72,2.88-1.52,4.26-2.36C205.82,152.17,206.23,152.12,206.6,152.21z M194.73,157.74c0.49,0.12,0.91,0.47,1.08,0.98
						c0.26,0.79-0.16,1.64-0.95,1.9c-1.61,0.54-3.27,1.02-4.92,1.43c-0.81,0.2-1.62-0.3-1.82-1.1c-0.2-0.81,0.3-1.62,1.1-1.82
						c1.57-0.38,3.14-0.84,4.68-1.36C194.18,157.69,194.47,157.68,194.73,157.74z M140.29,148.57c0.2,0.05,0.4,0.14,0.57,0.27
						c1.28,0.99,2.62,1.93,3.98,2.81c0.7,0.45,0.9,1.38,0.45,2.08c-0.45,0.7-1.38,0.9-2.08,0.45c-1.43-0.92-2.84-1.92-4.19-2.96
						c-0.66-0.51-0.78-1.45-0.27-2.11C139.13,148.63,139.74,148.43,140.29,148.57z M181.94,160.5c0.61,0.14,1.08,0.66,1.15,1.31
						c0.08,0.83-0.52,1.56-1.35,1.65c-1.69,0.17-3.41,0.27-5.12,0.29c-0.83,0.01-1.51-0.65-1.52-1.48
						c-0.01-0.83,0.65-1.51,1.48-1.52c1.62-0.02,3.25-0.12,4.86-0.28C181.61,160.45,181.78,160.46,181.94,160.5z M151.49,155.36
						c0.1,0.02,0.19,0.06,0.29,0.1c1.47,0.68,2.98,1.3,4.51,1.85c0.78,0.28,1.18,1.15,0.9,1.93c-0.28,0.78-1.15,1.19-1.93,0.9
						c-1.6-0.58-3.2-1.24-4.74-1.95c-0.75-0.35-1.08-1.24-0.73-2C150.08,155.53,150.81,155.2,151.49,155.36z M168.85,160.34
						c0.74,0.17,1.24,0.88,1.14,1.65c-0.1,0.82-0.86,1.41-1.68,1.3c-1.69-0.21-3.39-0.5-5.05-0.86c-0.01,0-0.02,0-0.03-0.01
						c-0.79-0.19-1.3-0.98-1.12-1.78c0.17-0.81,0.97-1.33,1.78-1.16c1.58,0.34,3.2,0.61,4.8,0.81
						C168.74,160.31,168.8,160.32,168.85,160.34z"/>
					<path class="st1" d="M132.56,141.38c0.29,0.07,0.56,0.22,0.77,0.46c0.52,0.58,1.06,1.15,1.6,1.71
						c0.58,0.59,0.57,1.55-0.03,2.13c-0.59,0.58-1.55,0.57-2.13-0.03c-0.57-0.59-1.14-1.19-1.68-1.8c-0.55-0.62-0.5-1.57,0.11-2.12
						C131.59,141.38,132.1,141.27,132.56,141.38z"/>
				</g>
			</g>
			<g>
				<g>
					<path class="st1" d="M117.7,98.02c0.71,0.17,1.21,0.83,1.15,1.57c-0.06,0.77-0.1,1.56-0.12,2.34
						c-0.03,0.83-0.72,1.48-1.55,1.46c-0.83-0.03-1.48-0.72-1.46-1.55c0.03-0.82,0.07-1.65,0.13-2.46c0.06-0.83,0.78-1.45,1.61-1.39
						C117.55,97.99,117.63,98,117.7,98.02z"/>
					<path class="st1" d="M189.5,45.24c0.67,0.16,1.35,0.33,2.02,0.51c0.8,0.22,1.27,1.04,1.06,1.85c-0.22,0.8-1.05,1.28-1.85,1.06
						c-1.55-0.42-3.12-0.78-4.67-1.07c-0.82-0.15-1.36-0.93-1.21-1.75c0.15-0.82,0.94-1.36,1.75-1.21
						C187.56,44.81,188.54,45.02,189.5,45.24z M199.02,48.36c0.08,0.02,0.16,0.05,0.24,0.08c1.54,0.65,3.08,1.38,4.56,2.16
						c0.73,0.39,1.02,1.3,0.63,2.03c-0.39,0.73-1.3,1.02-2.03,0.63c-1.41-0.74-2.86-1.43-4.33-2.05c-0.76-0.32-1.12-1.21-0.8-1.97
						C197.58,48.55,198.32,48.19,199.02,48.36z M178.74,43.74c0.69,0.16,1.19,0.8,1.15,1.53c-0.04,0.83-0.74,1.47-1.57,1.43
						c-1.59-0.07-3.2-0.08-4.79-0.02c-0.83,0.03-1.53-0.61-1.56-1.44c-0.03-0.83,0.61-1.53,1.44-1.56c1.68-0.07,3.37-0.06,5.04,0.02
						C178.56,43.7,178.65,43.72,178.74,43.74z M210.26,54.67c0.19,0.04,0.37,0.12,0.53,0.24c1.36,0.98,2.7,2.02,3.97,3.11
						c0.63,0.54,0.71,1.49,0.17,2.12c-0.54,0.63-1.49,0.71-2.12,0.17c-1.21-1.03-2.48-2.03-3.77-2.96c-0.67-0.48-0.83-1.42-0.34-2.1
						C209.06,54.74,209.68,54.53,210.26,54.67z M165.89,44.58c0.57,0.13,1.03,0.59,1.14,1.2c0.15,0.82-0.4,1.6-1.22,1.74
						c-1.56,0.28-3.14,0.63-4.68,1.04c-0.8,0.21-1.63-0.26-1.84-1.07c-0.21-0.8,0.26-1.63,1.07-1.84c1.62-0.43,3.28-0.8,4.92-1.09
						C165.49,44.52,165.7,44.53,165.89,44.58z M153.53,48.22c0.45,0.11,0.85,0.42,1.04,0.88c0.32,0.77-0.04,1.65-0.81,1.97
						c-1.47,0.62-2.93,1.3-4.34,2.03c-0.74,0.38-1.64,0.1-2.03-0.64c-0.38-0.74-0.1-1.64,0.64-2.03c1.48-0.77,3.02-1.49,4.57-2.14
						C152.91,48.17,153.23,48.15,153.53,48.22z M142.26,54.46c0.34,0.08,0.66,0.28,0.88,0.59c0.48,0.68,0.32,1.62-0.36,2.1
						c-1.3,0.92-2.58,1.91-3.79,2.93c-0.64,0.53-1.58,0.45-2.12-0.18c-0.53-0.64-0.45-1.58,0.18-2.12c1.28-1.08,2.62-2.11,3.99-3.08
						C141.41,54.44,141.86,54.37,142.26,54.46z M132.62,63.02c0.24,0.06,0.47,0.17,0.66,0.35c0.62,0.56,0.66,1.51,0.11,2.12
						c-1.07,1.18-2.1,2.42-3.06,3.69c-0.5,0.66-1.45,0.79-2.11,0.29c-0.66-0.5-0.79-1.45-0.29-2.11c1.01-1.33,2.1-2.64,3.22-3.88
						C131.54,63.05,132.1,62.9,132.62,63.02z M125.09,73.49c0.13,0.03,0.27,0.08,0.39,0.15c0.72,0.41,0.98,1.32,0.57,2.05
						c-0.78,1.39-1.51,2.82-2.17,4.27c-0.34,0.76-1.24,1.09-1.99,0.74c-0.76-0.34-1.09-1.24-0.74-1.99c0.7-1.53,1.46-3.04,2.28-4.5
						C123.77,73.62,124.46,73.34,125.09,73.49z M120.05,85.34c0.03,0.01,0.06,0.02,0.09,0.02c0.79,0.24,1.25,1.08,1.01,1.87
						c-0.34,1.12-0.65,2.27-0.91,3.41c-0.1,0.41-0.19,0.82-0.28,1.24c-0.17,0.81-0.97,1.33-1.78,1.16
						c-0.83-0.16-1.33-0.97-1.16-1.78c0.09-0.43,0.19-0.87,0.29-1.3c0.28-1.2,0.61-2.4,0.96-3.58
						C118.5,85.61,119.28,85.16,120.05,85.34z"/>
					<path class="st1" d="M219.86,63.33c0.29,0.07,0.56,0.22,0.78,0.46c0.54,0.61,1.08,1.24,1.6,1.88c0.53,0.64,0.43,1.59-0.21,2.12
						c-0.64,0.53-1.59,0.43-2.12-0.21c-0.49-0.6-1.01-1.2-1.52-1.78c-0.55-0.62-0.5-1.57,0.13-2.12
						C218.89,63.33,219.4,63.22,219.86,63.33z"/>
				</g>
			</g>
			<g>
				<path class="st1" d="M213.88,79.83c-0.13-0.27-0.42-0.43-0.72-0.39l-8.49,1.03c-2.52-3.1-5.55-5.82-9.03-8.01l0.01-8.55
					c0-0.3-0.19-0.57-0.47-0.66l-9.7-3.35c-0.28-0.1-0.6-0.01-0.78,0.23l-5.27,6.73c-4.09-0.42-8.15-0.15-12.05,0.73l-6.04-6.05
					c-0.21-0.21-0.53-0.27-0.8-0.14l-9.23,4.49c-0.27,0.13-0.43,0.42-0.39,0.72l1.03,8.49c-3.1,2.52-5.82,5.55-8.01,9.03l-8.55-0.01
					c-0.3,0-0.57,0.19-0.66,0.47l-3.35,9.7c-0.1,0.28-0.01,0.6,0.23,0.78l6.73,5.27c-0.42,4.09-0.15,8.15,0.73,12.05l-6.05,6.04
					c-0.21,0.21-0.27,0.53-0.14,0.8l4.49,9.22c0.13,0.27,0.42,0.43,0.72,0.39l8.49-1.03c2.52,3.1,5.55,5.82,9.03,8.01l-0.01,8.55
					c0,0.3,0.19,0.57,0.47,0.66l9.7,3.35c0.28,0.1,0.6,0.01,0.78-0.23l5.27-6.73c4.09,0.42,8.15,0.15,12.05-0.73l6.04,6.05
					c0.21,0.21,0.53,0.27,0.8,0.14l9.22-4.49c0.27-0.13,0.43-0.42,0.39-0.72l-1.03-8.49c3.1-2.52,5.82-5.55,8.01-9.03l8.55,0.01
					c0.3,0,0.57-0.19,0.66-0.47l3.35-9.69c0.1-0.28,0.01-0.6-0.23-0.78l-6.73-5.27c0.42-4.09,0.15-8.15-0.73-12.05l6.05-6.04
					c0.21-0.21,0.27-0.53,0.14-0.8L213.88,79.83z"/>
				<linearGradient id="SVGID_1_" gradientUnits="userSpaceOnUse" x1="165.3034" y1="104.1389" x2="185.9267" y2="104.1389">
					<stop  offset="0" style="stop-color:#DAE3FE"/>
					<stop  offset="1" style="stop-color:#E9EFFD"/>
				</linearGradient>
				<path class="st2" d="M177.99,94.1c4.89,1.15,8.34,5.76,7.9,10.91c-0.49,5.67-5.49,9.88-11.15,9.39
					c-2.74-0.23-5.23-1.53-7.01-3.63c-1.77-2.11-2.62-4.78-2.39-7.52c0.49-5.67,5.49-9.88,11.15-9.39
					C177.01,93.91,177.51,93.99,177.99,94.1z M173.78,111.83c0.38,0.09,0.76,0.15,1.16,0.19c4.34,0.37,8.18-2.86,8.55-7.2
					c0.37-4.34-2.86-8.18-7.2-8.55c-4.34-0.37-8.18,2.86-8.55,7.2c-0.18,2.1,0.47,4.15,1.83,5.77
					C170.67,110.54,172.14,111.44,173.78,111.83z"/>
				
					<linearGradient id="SVGID_00000038403872066549468780000016800754384598992295_" gradientUnits="userSpaceOnUse" x1="150.0612" y1="104.2444" x2="200.7851" y2="104.2444">
					<stop  offset="0" style="stop-color:#DAE3FE"/>
					<stop  offset="1" style="stop-color:#E9EFFD"/>
				</linearGradient>
				<path style="fill:url(#SVGID_00000038403872066549468780000016800754384598992295_);" d="M181.21,79.56
					c0.84,0.2,1.68,0.44,2.5,0.73l0,0c0.26,0.09,0.52,0.18,0.78,0.28c1.27,0.48,2.5,1.07,3.67,1.75c0.02,0.01,0.03,0.02,0.05,0.03
					c0.05,0.03,0.09,0.05,0.14,0.08c0.09,0.05,0.17,0.1,0.26,0.16c0.23,0.14,0.33,0.4,0.27,0.65c-0.01,0.06-0.04,0.12-0.07,0.17
					c-0.17,0.28-0.54,0.37-0.83,0.2c-1.46-0.89-3.03-1.62-4.66-2.18c-8.09-2.8-16.67-1.03-22.92,3.93c-3.48,2.76-6.24,6.51-7.79,11
					c-0.27,0.79-0.5,1.59-0.69,2.39c-1.27,5.39-0.66,11.01,1.8,16.06c2.82,5.8,7.73,10.16,13.83,12.26
					c12.59,4.35,26.37-2.35,30.72-14.94c0.27-0.78,0.5-1.56,0.68-2.36c0.81-3.44,0.86-7.02,0.13-10.48c-0.02-0.09-0.02-0.18,0-0.26
					c0.05-0.22,0.23-0.4,0.46-0.45c0.33-0.07,0.64,0.14,0.71,0.46c0.76,3.63,0.71,7.39-0.14,11c-0.2,0.83-0.44,1.66-0.72,2.47
					c-4.57,13.21-19.04,20.25-32.24,15.68c-6.4-2.21-11.56-6.78-14.52-12.88c-2.58-5.3-3.22-11.2-1.89-16.86
					c0.2-0.84,0.44-1.68,0.73-2.51c2.21-6.4,6.79-11.56,12.88-14.52C169.64,78.87,175.55,78.23,181.21,79.56z"/>
			</g>
		</g>
		<g>
			<g>
				<g>
					<path class="st1" d="M295.37,75.9c0.39,0.09,0.69,0.43,0.71,0.85c0.04,0.79,0.06,1.59,0.06,2.38c0,0.51-0.42,0.93-0.93,0.92
						c-0.51,0-0.93-0.42-0.92-0.93c0-0.75-0.01-1.51-0.05-2.26c-0.03-0.51,0.37-0.95,0.88-0.98
						C295.19,75.87,295.28,75.88,295.37,75.9z"/>
					<path class="st1" d="M295.09,83.04c0.46,0.11,0.77,0.55,0.71,1.02c-0.18,1.35-0.42,2.7-0.74,4.02
						c-0.07,0.28-0.13,0.56-0.21,0.83c-0.13,0.5-0.66,0.77-1.13,0.67c-0.5-0.13-0.79-0.63-0.67-1.13c0.07-0.27,0.13-0.53,0.2-0.8
						c0.3-1.26,0.53-2.55,0.7-3.83c0.07-0.51,0.53-0.87,1.04-0.8C295.03,83.02,295.06,83.03,295.09,83.04z M292.68,92.37
						c0.04,0.01,0.09,0.02,0.13,0.04c0.48,0.19,0.71,0.73,0.52,1.2c-0.6,1.53-1.3,3.04-2.09,4.48c-0.24,0.45-0.81,0.62-1.26,0.37
						c-0.45-0.25-0.62-0.81-0.37-1.26c0.75-1.37,1.42-2.81,1.99-4.27C291.77,92.5,292.24,92.27,292.68,92.37z M288.07,100.84
						c0.11,0.03,0.23,0.08,0.33,0.15c0.42,0.3,0.51,0.88,0.21,1.3c-0.96,1.33-2.01,2.62-3.13,3.83c-0.35,0.38-0.93,0.4-1.31,0.05
						c-0.38-0.35-0.4-0.94-0.05-1.31c1.07-1.15,2.07-2.38,2.98-3.65C287.33,100.89,287.72,100.76,288.07,100.84z M281.53,107.92
						c0.19,0.04,0.36,0.15,0.5,0.3c0.33,0.39,0.28,0.98-0.11,1.31c-1.26,1.06-2.59,2.05-3.97,2.95c-0.43,0.28-1.01,0.16-1.28-0.27
						c-0.28-0.43-0.16-1,0.27-1.29c1.31-0.85,2.58-1.8,3.78-2.81C280.95,107.92,281.25,107.86,281.53,107.92z M273.45,113.19
						c0.26,0.06,0.49,0.24,0.62,0.5c0.23,0.46,0.03,1.02-0.43,1.24c-1.48,0.72-3.01,1.36-4.56,1.9c-0.49,0.17-1.01-0.09-1.18-0.57
						c-0.17-0.48,0.09-1.01,0.57-1.18c1.48-0.51,2.94-1.12,4.35-1.81C273.03,113.16,273.25,113.14,273.45,113.19z M264.34,116.33
						c0.34,0.08,0.62,0.35,0.7,0.71c0.11,0.5-0.21,0.99-0.72,1.1c-1.61,0.34-3.25,0.59-4.89,0.73c-0.51,0.04-0.96-0.34-1-0.85
						c-0.04-0.51,0.34-0.96,0.85-1c1.56-0.13,3.13-0.37,4.66-0.69C264.07,116.3,264.21,116.3,264.34,116.33z M254.74,117.15
						c0.42,0.1,0.73,0.49,0.71,0.94c-0.02,0.51-0.45,0.91-0.96,0.89c-1.64-0.06-3.29-0.23-4.92-0.5c-0.51-0.09-0.85-0.56-0.77-1.07
						c0.08-0.51,0.56-0.85,1.07-0.77c1.55,0.25,3.13,0.41,4.69,0.47C254.63,117.13,254.69,117.14,254.74,117.15z M240.69,113.96
						c0.05,0.01,0.1,0.03,0.16,0.05c1.24,0.54,2.54,1.01,3.85,1.42c0.2,0.06,0.39,0.12,0.59,0.18c0.49,0.14,0.78,0.66,0.63,1.15
						c-0.14,0.49-0.67,0.79-1.15,0.63c-0.21-0.06-0.42-0.12-0.62-0.19c-1.37-0.42-2.72-0.93-4.03-1.49
						c-0.47-0.2-0.69-0.75-0.48-1.22C239.8,114.07,240.26,113.85,240.69,113.96z"/>
				</g>
			</g>
			<g>
				<g>
					<path class="st1" d="M264.71,39.75c0.49,0.12,0.8,0.61,0.69,1.11c-0.11,0.5-0.61,0.82-1.11,0.7c-1.51-0.34-3.05-0.58-4.58-0.73
						c-0.51-0.05-0.88-0.5-0.83-1.01c0.05-0.51,0.5-0.88,1.01-0.83c1.61,0.16,3.22,0.42,4.8,0.77
						C264.7,39.75,264.7,39.75,264.71,39.75z M269.27,41.06c0.03,0.01,0.06,0.02,0.1,0.03c1.52,0.54,3.03,1.17,4.48,1.89
						c0.46,0.23,0.65,0.78,0.42,1.24c-0.23,0.46-0.79,0.65-1.24,0.42c-1.38-0.68-2.82-1.29-4.28-1.8c-0.48-0.17-0.74-0.7-0.57-1.18
						C268.34,41.2,268.82,40.95,269.27,41.06z M255.27,38.82c0.4,0.09,0.7,0.45,0.71,0.88c0.01,0.51-0.39,0.94-0.9,0.95
						c-1.54,0.04-3.1,0.17-4.62,0.4c-0.51,0.07-0.98-0.28-1.05-0.78c-0.08-0.51,0.28-0.98,0.78-1.05c1.6-0.24,3.23-0.38,4.84-0.42
						C255.11,38.8,255.19,38.81,255.27,38.82z M277.77,45.26c0.1,0.02,0.2,0.07,0.3,0.13c1.35,0.89,2.66,1.87,3.89,2.92
						c0.39,0.33,0.44,0.92,0.11,1.31c-0.33,0.39-0.92,0.44-1.31,0.11c-1.18-1-2.42-1.93-3.71-2.78c-0.43-0.28-0.55-0.86-0.27-1.29
						C277.01,45.32,277.41,45.18,277.77,45.26z M245.89,40.21c0.32,0.08,0.59,0.32,0.68,0.66c0.14,0.5-0.15,1.01-0.65,1.14
						c-1.49,0.41-2.96,0.91-4.39,1.5c-0.48,0.2-1.02-0.03-1.21-0.51c-0.19-0.47,0.03-1.02,0.51-1.21c1.5-0.61,3.04-1.14,4.6-1.57
						C245.59,40.18,245.75,40.18,245.89,40.21z M237.12,43.8c0.24,0.06,0.47,0.21,0.6,0.45c0.25,0.45,0.09,1.01-0.36,1.26
						c-1.35,0.75-2.66,1.6-3.91,2.5c-0.41,0.3-1,0.21-1.3-0.2c-0.3-0.41-0.21-0.99,0.2-1.3c1.3-0.95,2.68-1.83,4.09-2.62
						C236.66,43.78,236.9,43.75,237.12,43.8z M229.46,49.4c0.17,0.04,0.33,0.13,0.46,0.27c0.35,0.37,0.33,0.96-0.04,1.31
						c-1.13,1.05-2.2,2.19-3.19,3.37c-0.33,0.39-0.92,0.44-1.31,0.12c-0.39-0.33-0.45-0.91-0.12-1.31c1.04-1.24,2.16-2.43,3.35-3.53
						C228.85,49.4,229.17,49.33,229.46,49.4z"/>
					<path class="st1" d="M285.04,51.43c0.17,0.04,0.34,0.13,0.47,0.27c0.54,0.58,1.06,1.19,1.56,1.79c0.32,0.4,0.27,0.98-0.13,1.31
						c-0.4,0.32-0.98,0.26-1.31-0.13c-0.47-0.58-0.97-1.15-1.48-1.71c-0.35-0.38-0.32-0.97,0.05-1.31
						C284.43,51.44,284.75,51.37,285.04,51.43z"/>
				</g>
			</g>
			<g>
				<path class="st1" d="M281.53,62.93c-0.09-0.18-0.28-0.29-0.48-0.26l-5.68,0.69c-1.69-2.07-3.71-3.89-6.04-5.36l0-5.72
					c0-0.2-0.13-0.38-0.32-0.44l-6.49-2.24c-0.19-0.07-0.4,0-0.52,0.15l-3.53,4.5c-2.74-0.28-5.46-0.1-8.06,0.49l-4.04-4.05
					c-0.14-0.14-0.36-0.18-0.54-0.09l-6.17,3c-0.18,0.09-0.29,0.28-0.26,0.48l0.69,5.68c-2.07,1.69-3.89,3.71-5.36,6.04l-5.72,0
					c-0.2,0-0.38,0.13-0.44,0.32l-2.24,6.49c-0.07,0.19,0,0.4,0.15,0.52l4.5,3.53c-0.28,2.74-0.1,5.46,0.49,8.06l-4.05,4.04
					c-0.14,0.14-0.18,0.36-0.09,0.54l3,6.17c0.09,0.18,0.28,0.29,0.48,0.26l5.68-0.69c1.69,2.07,3.71,3.89,6.04,5.36l0,5.72
					c0,0.2,0.13,0.38,0.32,0.44l6.49,2.24c0.19,0.07,0.4,0,0.52-0.15l3.53-4.5c2.74,0.28,5.46,0.1,8.06-0.49l4.04,4.05
					c0.14,0.14,0.36,0.18,0.54,0.09l6.17-3c0.18-0.09,0.29-0.28,0.26-0.48l-0.69-5.68c2.07-1.69,3.89-3.71,5.36-6.04l5.72,0
					c0.2,0,0.38-0.13,0.44-0.32l2.24-6.49c0.07-0.19,0-0.4-0.15-0.52l-4.5-3.53c0.28-2.74,0.1-5.45-0.49-8.06l4.05-4.04
					c0.14-0.14,0.18-0.36,0.09-0.54L281.53,62.93z"/>
				
					<linearGradient id="SVGID_00000075885387487916975050000001165854392547504528_" gradientUnits="userSpaceOnUse" x1="248.9025" y1="79.1964" x2="262.9502" y2="79.1964">
					<stop  offset="0" style="stop-color:#DAE3FE"/>
					<stop  offset="1" style="stop-color:#E9EFFD"/>
				</linearGradient>
				<path style="fill:url(#SVGID_00000075885387487916975050000001165854392547504528_);" d="M257.55,72.36
					c1.46,0.34,2.76,1.14,3.74,2.31c1.21,1.43,1.79,3.25,1.62,5.12c-0.33,3.86-3.74,6.73-7.6,6.4c-3.86-0.34-6.73-3.74-6.4-7.6
					c0.16-1.87,1.04-3.56,2.47-4.77c1.44-1.21,3.25-1.79,5.12-1.63C256.88,72.23,257.22,72.28,257.55,72.36z M254.74,84.22
					c0.24,0.06,0.49,0.1,0.75,0.12c2.84,0.24,5.35-1.87,5.59-4.71c0.12-1.37-0.31-2.71-1.2-3.77c-0.89-1.06-2.14-1.7-3.51-1.82l0,0
					c-1.37-0.12-2.71,0.31-3.77,1.2c-1.06,0.89-1.7,2.14-1.82,3.51C250.56,81.34,252.29,83.65,254.74,84.22z"/>
				
					<linearGradient id="SVGID_00000179629189797790962990000008343970592969303946_" gradientUnits="userSpaceOnUse" x1="238.3003" y1="79.2756" x2="273.295" y2="79.2756">
					<stop  offset="0" style="stop-color:#DAE3FE"/>
					<stop  offset="1" style="stop-color:#E9EFFD"/>
				</linearGradient>
				<path style="fill:url(#SVGID_00000179629189797790962990000008343970592969303946_);" d="M259.81,62.24
					c0.57,0.14,1.14,0.3,1.71,0.5c1.13,0.39,2.21,0.89,3.23,1.5c0.05,0.03,0.09,0.06,0.14,0.08c0.35,0.21,0.51,0.63,0.42,1.01
					c-0.02,0.09-0.06,0.18-0.11,0.27c-0.27,0.44-0.84,0.58-1.28,0.31c-0.95-0.58-1.96-1.05-3.01-1.41l0,0
					c-0.06-0.02-0.12-0.04-0.17-0.06c-2.5-0.84-5.11-1.02-7.64-0.57c-1.37,0.24-2.72,0.67-4.01,1.29c-0.01,0-0.02,0.01-0.03,0.01
					c-0.03,0.02-0.06,0.03-0.1,0.05c-3.76,1.83-6.58,5.01-7.94,8.95c-0.18,0.51-0.33,1.03-0.45,1.55c-0.82,3.49-0.42,7.13,1.16,10.4
					c1.83,3.76,5.01,6.57,8.95,7.94c3.94,1.36,8.19,1.11,11.94-0.72c3.76-1.83,6.58-5.01,7.94-8.95c0.17-0.5,0.32-1.01,0.44-1.53
					c0.53-2.23,0.56-4.54,0.09-6.79c-0.03-0.14-0.03-0.28,0-0.4c0.08-0.34,0.35-0.62,0.71-0.7c0.5-0.1,0.99,0.22,1.1,0.72
					c0.53,2.51,0.49,5.1-0.1,7.59c-0.14,0.58-0.3,1.14-0.49,1.71c-1.53,4.42-4.68,7.97-8.88,10.02c-4.2,2.04-8.95,2.33-13.36,0.8
					c-4.42-1.53-7.97-4.68-10.02-8.88c-1.78-3.66-2.23-7.73-1.3-11.63c0.14-0.58,0.3-1.16,0.5-1.73
					C242.22,65.01,251.19,60.21,259.81,62.24z"/>
			</g>
		</g>
	</g>
	<g>
		<g>
			<g>
				<g>
					<polygon class="st6" points="504.42,162.15 477,124.3 403.82,177.31 444.93,234.07 495.65,197.34 					"/>
					<path class="st7" d="M444.93,235.02c-0.3,0-0.59-0.14-0.77-0.39l-41.11-56.76c-0.15-0.2-0.21-0.46-0.17-0.71
						c0.04-0.25,0.18-0.47,0.38-0.62l73.18-53.01c0.2-0.15,0.46-0.21,0.71-0.17c0.25,0.04,0.47,0.18,0.62,0.38l27.42,37.85
						c0.16,0.23,0.22,0.52,0.15,0.79l-8.77,35.18c-0.05,0.22-0.18,0.41-0.37,0.54l-50.72,36.74
						C445.32,234.97,445.13,235.02,444.93,235.02z M405.15,177.52l39.99,55.22l49.66-35.97l8.58-34.41l-26.6-36.72L405.15,177.52z"
						/>
				</g>
				<g>
					<polygon class="st6" points="481.95,178.43 495.65,197.34 504.42,162.15 					"/>
					<path class="st7" d="M495.65,198.29c-0.3,0-0.59-0.14-0.77-0.39l-13.7-18.91c-0.15-0.2-0.21-0.46-0.17-0.71
						c0.04-0.25,0.18-0.47,0.38-0.62l22.46-16.27c0.32-0.24,0.76-0.24,1.09-0.02c0.33,0.22,0.49,0.63,0.39,1.02l-8.77,35.18
						c-0.09,0.36-0.38,0.63-0.74,0.71C495.77,198.28,495.71,198.29,495.65,198.29z M483.28,178.64l11.94,16.48l7.64-30.66
						L483.28,178.64z"/>
				</g>
			</g>
			<g>
				<g>
					<polygon class="st6" points="402.02,202.89 447.07,220.68 488.75,115.13 421.2,88.45 392.31,161.6 					"/>
					<path class="st7" d="M447.07,221.63c-0.12,0-0.24-0.02-0.35-0.07l-45.05-17.79c-0.29-0.11-0.51-0.36-0.58-0.67l-9.71-41.29
						c-0.04-0.19-0.03-0.39,0.04-0.57l28.89-73.15c0.09-0.24,0.28-0.42,0.51-0.52c0.23-0.1,0.49-0.1,0.73-0.01l67.55,26.68
						c0.24,0.09,0.42,0.28,0.52,0.51c0.1,0.23,0.1,0.49,0.01,0.73l-41.69,105.55c-0.09,0.24-0.28,0.42-0.51,0.52
						C447.33,221.61,447.2,221.63,447.07,221.63z M402.83,202.18l43.7,17.26l40.99-103.77l-65.78-25.98l-28.43,71.98L402.83,202.18z
						"/>
				</g>
				<g>
					<polygon class="st6" points="414.82,170.49 392.31,161.6 402.02,202.89 					"/>
					<path class="st8" d="M402.02,203.84c-0.02,0-0.05,0-0.07,0c-0.42-0.03-0.76-0.33-0.86-0.73l-9.71-41.29
						c-0.08-0.35,0.04-0.71,0.3-0.94c0.27-0.23,0.64-0.3,0.97-0.17l22.51,8.89c0.24,0.09,0.42,0.28,0.52,0.51
						c0.1,0.23,0.1,0.49,0.01,0.73l-12.8,32.4C402.76,203.6,402.41,203.84,402.02,203.84z M393.66,163.16l8.6,36.55l11.33-28.68
						L393.66,163.16z"/>
				</g>
			</g>
		</g>
		<path class="st9" d="M536.62,219.74h-22.5c-0.6-0.04-1.78-0.27-2.49-1.51c-0.74-1.3-1.25-2.7-3.46-2.7h-10.8
			c-1.49,0-2.7,1.21-2.7,2.7v4.21v7.66v17.28c0,1.49,1.21,2.7,2.7,2.7h39.25c1.49,0,2.7-1.21,2.7-2.7v-24.95
			C539.33,220.95,538.12,219.74,536.62,219.74z"/>
		<polygon class="st10" points="491.13,232.62 483.85,221.7 490.45,217.3 481.71,212.98 472.97,208.66 473.6,218.39 474.23,228.11 
			480.99,223.6 488.27,234.52 		"/>
		<g>
			<path class="st11" d="M439.2,369.84H170.47c-14.33,0-25.94-10.09-25.94-22.53V147.65c0-12.44,11.61-22.53,25.94-22.53H439.2
				c14.33,0,25.94,10.09,25.94,22.53v199.66C465.14,359.76,453.53,369.84,439.2,369.84"/>
			<g>
				<g>
					<defs>
						<path id="SVGID_00000060748587039856870010000005541204109451092137_" d="M439.2,369.84H170.47
							c-14.33,0-25.94-10.09-25.94-22.53V147.65c0-12.44,11.61-22.53,25.94-22.53H439.2c14.33,0,25.94,10.09,25.94,22.53v199.66
							C465.14,359.76,453.53,369.84,439.2,369.84"/>
					</defs>
					<clipPath id="SVGID_00000141446400947161060180000015639476507326247337_">
						<use xlink:href="#SVGID_00000060748587039856870010000005541204109451092137_"  style="overflow:visible;"/>
					</clipPath>
					
						<rect x="144.52" y="122.53" style="clip-path:url(#SVGID_00000141446400947161060180000015639476507326247337_);fill:#6C63FE;" width="324.39" height="47.91"/>
				</g>
				<g>
					<g>
						<path class="st13" d="M243.15,138.77c0,5.93-4.81,10.75-10.75,10.75c-5.94,0-10.75-4.81-10.75-10.75
							c0-5.93,4.81-10.75,10.75-10.75C238.34,128.02,243.15,132.84,243.15,138.77"/>
						<path class="st11" d="M232.37,143.5L232.37,143.5c-2.94,0-5.35-2.41-5.35-5.35v-20.33c0-2.94,2.41-5.35,5.35-5.35
							c2.94,0,5.35,2.41,5.35,5.35v20.33C237.72,141.09,235.32,143.5,232.37,143.5"/>
					</g>
					<g>
						<path class="st13" d="M395.7,138.77c0,5.93-4.81,10.75-10.75,10.75c-5.93,0-10.75-4.81-10.75-10.75
							c0-5.93,4.81-10.75,10.75-10.75C390.89,128.02,395.7,132.84,395.7,138.77"/>
						<path class="st11" d="M384.92,143.5L384.92,143.5c-2.94,0-5.35-2.41-5.35-5.35v-20.33c0-2.94,2.41-5.35,5.35-5.35
							s5.35,2.41,5.35,5.35v20.33C390.27,141.09,387.86,143.5,384.92,143.5"/>
					</g>
					<g>
						<path class="st13" d="M445.97,138.77c0,5.93-4.81,10.75-10.75,10.75c-5.93,0-10.75-4.81-10.75-10.75
							c0-5.93,4.81-10.75,10.75-10.75C441.16,128.02,445.97,132.84,445.97,138.77"/>
						<path class="st11" d="M435.19,143.5L435.19,143.5c-2.94,0-5.35-2.41-5.35-5.35v-20.33c0-2.94,2.41-5.35,5.35-5.35
							c2.94,0,5.35,2.41,5.35,5.35v20.33C440.53,141.09,438.13,143.5,435.19,143.5"/>
					</g>
					<g>
						<path class="st13" d="M192.52,138.77c0,5.93-4.81,10.75-10.75,10.75c-5.94,0-10.75-4.81-10.75-10.75
							c0-5.93,4.81-10.75,10.75-10.75C187.71,128.02,192.52,132.84,192.52,138.77"/>
						<path class="st11" d="M181.74,143.5L181.74,143.5c-2.94,0-5.35-2.41-5.35-5.35v-20.33c0-2.94,2.41-5.35,5.35-5.35
							c2.94,0,5.35,2.41,5.35,5.35v20.33C187.09,141.09,184.68,143.5,181.74,143.5"/>
					</g>
				</g>
			</g>
			<g>
				<g>
					<path class="st14" d="M448.36,342.41c0,5.87-4.76,10.63-10.63,10.63H171.78c-5.87,0-10.63-4.76-10.63-10.63V195.78
						c0-5.87,4.76-10.63,10.63-10.63h265.95c5.87,0,10.63,4.76,10.63,10.63V342.41z"/>
					<g>
						<rect x="199.93" y="183.71" class="st11" width="2.51" height="174.6"/>
						<rect x="285.53" y="183.71" class="st11" width="2.51" height="174.6"/>
						<rect x="325.6" y="183.71" class="st11" width="2.51" height="174.6"/>
						<rect x="366.19" y="183.71" class="st11" width="2.51" height="174.6"/>
						<rect x="407.27" y="183.71" class="st11" width="2.51" height="174.6"/>
						<rect x="242.82" y="183.71" class="st11" width="2.51" height="174.6"/>
					</g>
					<g>
						<rect x="161.15" y="182.19" class="st11" width="291.63" height="2.62"/>
						<rect x="161.15" y="271.46" class="st11" width="291.63" height="2.62"/>
						<rect x="161.15" y="313.23" class="st11" width="291.63" height="2.62"/>
						<rect x="161.15" y="355.55" class="st11" width="291.63" height="2.62"/>
						<rect x="161.15" y="226.92" class="st11" width="291.63" height="2.62"/>
					</g>
				</g>
				<g>
					<path class="st15" d="M199.93,185.15h-28.14c-5.87,0-10.63,4.76-10.63,10.63v31.14h38.78V185.15z"/>
					<rect x="368.7" y="229.54" class="st15" width="38.58" height="41.92"/>
					<rect x="202.44" y="229.37" class="st15" width="40.38" height="41.92"/>
					<rect x="288.2" y="315.85" class="st15" width="37.55" height="37.2"/>
					<rect x="409.78" y="274.07" class="st15" width="38.58" height="39.15"/>
					<rect x="288.05" y="229.54" class="st16" width="37.55" height="41.47"/>
				</g>
			</g>
		</g>
		<g>
			<g>
				<path class="st13" d="M294.11,138.77c0,5.93-4.81,10.75-10.75,10.75c-5.94,0-10.75-4.81-10.75-10.75
					c0-5.93,4.81-10.75,10.75-10.75C289.3,128.02,294.11,132.84,294.11,138.77"/>
				<path class="st11" d="M283.33,143.5L283.33,143.5c-2.94,0-5.35-2.41-5.35-5.35v-20.33c0-2.94,2.41-5.35,5.35-5.35
					c2.94,0,5.35,2.41,5.35,5.35v20.33C288.68,141.09,286.27,143.5,283.33,143.5"/>
			</g>
			<g>
				<path class="st13" d="M345.07,138.77c0,5.93-4.81,10.75-10.75,10.75c-5.94,0-10.75-4.81-10.75-10.75
					c0-5.93,4.81-10.75,10.75-10.75C340.26,128.02,345.07,132.84,345.07,138.77"/>
				<path class="st11" d="M334.29,143.5L334.29,143.5c-2.94,0-5.35-2.41-5.35-5.35v-20.33c0-2.94,2.41-5.35,5.35-5.35
					c2.94,0,5.35,2.41,5.35,5.35v20.33C339.64,141.09,337.23,143.5,334.29,143.5"/>
			</g>
		</g>
		<g>
			<path class="st10" d="M495.44,261.62h-54.18c-3.92,0-7.09,3.18-7.09,7.1v10.51c0,3.92,3.18,7.1,7.09,7.1h0.52l-6.71,9.19
				l15.74-9.19h44.62c3.92,0,7.09-3.18,7.09-7.1v-10.51C502.53,264.8,499.36,261.62,495.44,261.62z"/>
			<g>
				<path class="st6" d="M489.5,282.7c-4.77,0-8.64-3.88-8.64-8.64c0-4.77,3.88-8.64,8.64-8.64c4.77,0,8.64,3.88,8.64,8.64
					C498.14,278.82,494.26,282.7,489.5,282.7z M489.5,267.32c-3.71,0-6.74,3.02-6.74,6.74c0,3.71,3.02,6.74,6.74,6.74
					c3.71,0,6.74-3.02,6.74-6.74C496.23,270.34,493.21,267.32,489.5,267.32z"/>
				<g>
					<path class="st6" d="M478.74,270.53h-38.1c-0.53,0-0.95-0.43-0.95-0.95s0.43-0.95,0.95-0.95h38.1c0.53,0,0.95,0.43,0.95,0.95
						S479.26,270.53,478.74,270.53z"/>
					<path class="st6" d="M478.74,275.05h-38.1c-0.53,0-0.95-0.43-0.95-0.95s0.43-0.95,0.95-0.95h38.1c0.53,0,0.95,0.43,0.95,0.95
						S479.26,275.05,478.74,275.05z"/>
					<path class="st6" d="M478.74,279.48h-38.1c-0.53,0-0.95-0.43-0.95-0.95s0.43-0.95,0.95-0.95h38.1c0.53,0,0.95,0.43,0.95,0.95
						S479.26,279.48,478.74,279.48z"/>
				</g>
			</g>
		</g>
		<g>
			<g>
				<path class="st6" d="M374.42,264.04c0,1.3,1.05,2.35,2.35,2.35h22.57c1.3,0,2.36-1.05,2.36-2.35l-0.48-18.76
					c0-1.3-1.05-2.35-2.35-2.35h-21.62c-1.3,0-2.35,1.05-2.35,2.35L374.42,264.04z"/>
				<path class="st17" d="M399.34,267.35h-22.57c-1.82,0-3.31-1.48-3.31-3.31l0.48-18.78c0-1.8,1.48-3.28,3.31-3.28h21.62
					c1.82,0,3.31,1.48,3.31,3.31l0.48,18.73C402.65,265.86,401.17,267.35,399.34,267.35z M377.25,243.88c-0.77,0-1.4,0.63-1.4,1.4
					l-0.48,18.78c0,0.75,0.63,1.38,1.4,1.38h22.57c0.77,0,1.4-0.63,1.4-1.4l-0.48-18.73c0-0.8-0.63-1.43-1.4-1.43H377.25z"/>
			</g>
			<path class="st17" d="M394.88,243.88h-13.55c-0.46,0-0.85-0.33-0.94-0.78c-0.09-0.5-0.14-0.97-0.14-1.43
				c0-4.33,3.52-7.85,7.85-7.85c4.33,0,7.85,3.52,7.85,7.85c0,0.47-0.05,0.96-0.14,1.44C395.73,243.55,395.34,243.88,394.88,243.88z
				 M382.17,241.97h11.87c0.01-0.1,0.01-0.21,0.01-0.31c0-3.28-2.67-5.94-5.94-5.94c-3.28,0-5.95,2.67-5.95,5.94
				C382.16,241.77,382.16,241.87,382.17,241.97z"/>
			<g>
				<path class="st17" d="M394.14,250.48c-1.24,0-2.26-1.01-2.26-2.25c0-1.24,1.01-2.26,2.26-2.26c1.24,0,2.25,1.01,2.25,2.26
					C396.39,249.47,395.38,250.48,394.14,250.48z M394.14,247.88c-0.19,0-0.35,0.16-0.35,0.35c0,0.19,0.16,0.35,0.35,0.35
					c0.19,0,0.35-0.16,0.35-0.35C394.49,248.03,394.33,247.88,394.14,247.88z"/>
				<path class="st17" d="M381.98,250.48c-1.24,0-2.26-1.01-2.26-2.25c0-1.24,1.01-2.26,2.26-2.26c1.24,0,2.26,1.01,2.26,2.26
					C384.23,249.47,383.22,250.48,381.98,250.48z M381.98,247.88c-0.19,0-0.35,0.16-0.35,0.35c0,0.19,0.16,0.35,0.35,0.35
					c0.19,0,0.35-0.16,0.35-0.35C382.33,248.03,382.17,247.88,381.98,247.88z"/>
			</g>
		</g>
		<path class="st10" d="M512.48,352.9c0,0.93-4.34,1.69-9.69,1.69s-9.69-0.76-9.69-1.69c0-0.93,4.34-1.69,9.69-1.69
			S512.48,351.97,512.48,352.9z"/>
		<path class="st10" d="M498.32,349.37c-0.05-0.2-0.1-0.37-0.12-0.49c-1.5-7.67-4.41-14.94-8.65-21.64
			c-5.02-7.92-11.75-14.42-19.46-18.79c-4.92-2.8-10.51-4.68-15.73-5.31c-5.1-0.61-10.21-0.07-14.54,1.5
			c-8.54,3.12-14.66,8.98-18.66,17.92c0.51-12.06-2.51-21.04-9.21-27.43c-2.78-2.65-5.85-4.45-9.38-5.51
			c-0.35-8.26-3.09-16.03-8.37-23.77c-1.24-1.82-2.56-3.49-3.93-4.99c-0.3-0.29-0.58-0.33-0.76-0.31c-0.27,0.03-0.51,0.21-0.61,0.48
			c-0.12,0.31-0.05,0.67,0.21,0.95c1,1.09,1.94,2.25,2.88,3.53c5.65,7.72,8.57,15.47,8.95,23.67c-2.78-0.38-5.19-0.45-7.35-0.24
			c-4.84,0.48-8.29,2.41-10.56,5.92c-1.06,1.64-2.11,4.16-1.12,6.9c1,2.74,3.4,4.81,6.41,5.53c1.06,0.25,2.09,0.33,3.08,0.23
			c2.59-0.26,4.87-1.67,6.97-4.32c2.31-2.92,3.89-7.47,4.15-11.93c4.91,1.56,7.87,4.34,9.9,6.59c5.94,6.58,8.29,16.35,6.8,28.25
			c-0.16,1.24-0.48,3.07-0.96,5.44l-0.03,0.14c-0.12,0.59-0.29,1.4,0.39,1.6c0.09,0.03,0.18,0.04,0.27,0.03
			c0.79-0.08,1.05-1.48,1.27-2.72c0.05-0.28,0.1-0.54,0.14-0.74c1.95-8.29,6.39-15.32,12.52-19.81c4.24-3.1,9.07-4.93,14.35-5.46
			c3.55-0.35,7.27-0.09,11.08,0.78c5.68,1.29,11,3.85,16.25,7.8c3.99,3.01,7.68,6.72,10.97,11.03c5.88,7.71,9.86,16.84,11.51,26.39
			c0.02,0.13,0.04,0.26,0.05,0.4c0.07,0.6,0.17,1.42,0.97,1.35l0.06-0.01c0.19-0.03,0.34-0.12,0.44-0.28
			C498.85,351.56,498.61,350.5,498.32,349.37z M400.92,290.88C400.92,290.88,400.92,290.88,400.92,290.88l-0.01,0.06
			c-0.17,6.16-3.05,12.09-6.85,14.11c-1.89,1-4.12,1.19-6.19,0.49c-2.03-0.68-3.67-2.17-4.39-3.99c-0.67-1.68-0.51-3.52,0.44-5.3
			c1.75-3.27,5.3-5.33,10.01-5.79C396.15,290.24,398.57,290.39,400.92,290.88z"/>
		<path class="st9" d="M505.94,322.81c-4.78-0.08-8.7,3.72-8.81,8.5c-0.17,8.08,7.51,20.96,8.45,21c1.69,0.06,8.73-13.39,8.86-20.69
			C514.53,326.84,510.72,322.9,505.94,322.81 M509.79,332.32c-0.04,2.25-1.89,4.03-4.14,3.99c-2.24-0.04-4.03-1.89-3.99-4.14
			c0.04-2.25,1.9-4.04,4.14-4C508.04,328.22,509.83,330.07,509.79,332.32"/>
		<g>
			<g>
				<g>
					<path class="st6" d="M139.48,205.64l-14.19,9.98v1.58c0,4.94-4,8.94-8.94,8.94H88.49c-4.94,0-8.94-4-8.94-8.94v-13.66
						c0-4.94,4-8.94,8.94-8.94h27.85c4.94,0,8.94,4,8.94,8.94v2.1H139.48z"/>
					<path class="st18" d="M92.69,208.95c-0.12-0.37-0.2-0.75-0.25-1.15c-0.01-0.07-0.04-0.14-0.05-0.21l0.03,0
						c-0.02-0.19-0.05-0.37-0.05-0.57c0-3.25,2.33-5.88,5.21-5.88c2.39,0,4.38,1.81,5.01,4.27c0.62-2.46,2.61-4.28,5-4.28
						c2.88,0,5.22,2.63,5.23,5.87c0,0.2-0.03,0.38-0.05,0.57l0.03,0c-0.01,0.07-0.03,0.14-0.05,0.22c-0.05,0.4-0.13,0.78-0.24,1.15
						c-0.01,0.03-0.02,0.06-0.02,0.09c-0.05,0.14-0.09,0.27-0.14,0.41c-2.07,6.33-9.31,11.42-9.71,11.59l0,0.02
						c0,0-0.02-0.01-0.02-0.01c0,0-0.02,0.01-0.02,0.01v-0.02c-0.4-0.17-7.65-5.24-9.73-11.57c-0.06-0.13-0.1-0.27-0.14-0.41
						C92.7,209.01,92.69,208.98,92.69,208.95z"/>
				</g>
				<g>
					<path class="st10" d="M129.84,166.27h54.18c3.92,0,7.09,3.18,7.09,7.1v10.51c0,3.92-3.18,7.1-7.09,7.1h-0.52l6.71,9.19
						l-15.74-9.19h-44.62c-3.92,0-7.09-3.18-7.09-7.1v-10.51C122.75,169.44,125.92,166.27,129.84,166.27z"/>
					<g>
						<path class="st6" d="M135.78,187.34c-4.77,0-8.64-3.88-8.64-8.64c0-4.77,3.88-8.64,8.64-8.64c4.77,0,8.64,3.88,8.64,8.64
							C144.43,183.47,140.55,187.34,135.78,187.34z M135.78,171.96c-3.71,0-6.74,3.02-6.74,6.74c0,3.71,3.02,6.74,6.74,6.74
							c3.71,0,6.74-3.02,6.74-6.74C142.52,174.99,139.5,171.96,135.78,171.96z"/>
						<g>
							<path class="st6" d="M184.64,175.18h-38.1c-0.53,0-0.95-0.43-0.95-0.95c0-0.53,0.43-0.95,0.95-0.95h38.1
								c0.53,0,0.95,0.43,0.95,0.95C185.59,174.75,185.16,175.18,184.64,175.18z"/>
							<path class="st6" d="M184.64,179.69h-38.1c-0.53,0-0.95-0.43-0.95-0.95c0-0.53,0.43-0.95,0.95-0.95h38.1
								c0.53,0,0.95,0.43,0.95,0.95C185.59,179.26,185.16,179.69,184.64,179.69z"/>
							<path class="st6" d="M184.64,184.13h-38.1c-0.53,0-0.95-0.43-0.95-0.95s0.43-0.95,0.95-0.95h38.1c0.53,0,0.95,0.43,0.95,0.95
								S185.16,184.13,184.64,184.13z"/>
						</g>
					</g>
				</g>
				<g>
					<path class="st10" d="M239.01,302.72h54.18c3.92,0,7.09,3.18,7.09,7.1v10.51c0,3.92-3.18,7.1-7.09,7.1h-0.52l6.71,9.19
						l-15.74-9.19h-44.62c-3.92,0-7.09-3.18-7.09-7.1v-10.51C231.92,305.89,235.1,302.72,239.01,302.72z"/>
					<g>
						<path class="st6" d="M244.96,323.79c-4.77,0-8.64-3.88-8.64-8.64c0-4.77,3.88-8.64,8.64-8.64c4.77,0,8.64,3.88,8.64,8.64
							C253.6,319.92,249.72,323.79,244.96,323.79z M244.96,308.41c-3.71,0-6.74,3.02-6.74,6.74c0,3.71,3.02,6.74,6.74,6.74
							c3.71,0,6.74-3.02,6.74-6.74C251.69,311.44,248.67,308.41,244.96,308.41z"/>
						<g>
							<path class="st6" d="M293.81,311.63h-38.1c-0.53,0-0.95-0.43-0.95-0.95s0.43-0.95,0.95-0.95h38.1c0.53,0,0.95,0.43,0.95,0.95
								S294.34,311.63,293.81,311.63z"/>
							<path class="st6" d="M293.81,316.14h-38.1c-0.53,0-0.95-0.43-0.95-0.95c0-0.53,0.43-0.95,0.95-0.95h38.1
								c0.53,0,0.95,0.43,0.95,0.95C294.77,315.72,294.34,316.14,293.81,316.14z"/>
							<path class="st6" d="M293.81,320.58h-38.1c-0.53,0-0.95-0.43-0.95-0.95c0-0.53,0.43-0.95,0.95-0.95h38.1
								c0.53,0,0.95,0.43,0.95,0.95C294.77,320.15,294.34,320.58,293.81,320.58z"/>
						</g>
					</g>
				</g>
				<g>
					<g>
						<path class="st19" d="M168.77,249.97v43.91c0,3.71-3.14,6.72-7.02,6.72H93.89c-3.88,0-7.02-3.01-7.02-6.72v-43.91H168.77z"/>
						<g>
							<path class="st20" d="M86.88,244.31c0-3.71,3.14-6.72,7.02-6.72h67.86c3.88,0,7.02,3.01,7.02,6.72v5.66H86.88V244.31z"/>
							<g>
								<path class="st10" d="M99.49,243.58c0,1.48,1.2,2.69,2.69,2.69c1.48,0,2.69-1.2,2.69-2.69c0-1.48-1.2-2.69-2.69-2.69
									C100.7,240.89,99.49,242.09,99.49,243.58z"/>
								<polygon class="st10" points="95.62,246.24 92.55,246.24 94.08,243.58 95.62,240.92 97.15,243.58 98.69,246.24 								"/>
							</g>
						</g>
					</g>
					<g>
						<g>
							<path class="st9" d="M129.58,271.05H95.24c-1.7,0-3.08-1.38-3.08-3.08v-11.01c0-1.7,1.38-3.08,3.08-3.08h34.34
								c1.7,0,3.08,1.38,3.08,3.08v11.01C132.66,269.67,131.28,271.05,129.58,271.05z M95.24,255.8c-0.65,0-1.17,0.52-1.17,1.17
								v11.01c0,0.65,0.52,1.17,1.17,1.17h34.34c0.65,0,1.17-0.53,1.17-1.17v-11.01c0-0.65-0.53-1.17-1.17-1.17H95.24z"/>
							<g>
								<path class="st9" d="M121.37,260.9h-19.66c-0.53,0-0.95-0.43-0.95-0.95s0.43-0.95,0.95-0.95h19.66
									c0.53,0,0.95,0.43,0.95,0.95S121.9,260.9,121.37,260.9z"/>
								<path class="st9" d="M121.37,265.79h-9.83c-0.53,0-0.95-0.43-0.95-0.95c0-0.53,0.43-0.95,0.95-0.95h9.83
									c0.53,0,0.95,0.43,0.95,0.95C122.32,265.36,121.9,265.79,121.37,265.79z"/>
							</g>
						</g>
						<g>
							<path class="st9" d="M223.46,264.47c-1.3,0-2.36-1.06-2.36-2.36c0-1.3,1.06-2.36,2.36-2.36c1.3,0,2.36,1.06,2.36,2.36
								C225.82,263.41,224.76,264.47,223.46,264.47z M223.46,261.66c-0.25,0-0.45,0.2-0.45,0.45c0,0.25,0.2,0.45,0.45,0.45
								c0.25,0,0.45-0.2,0.45-0.45C223.91,261.86,223.71,261.66,223.46,261.66z"/>
							<path class="st9" d="M223.46,263.06h-96.34c-0.53,0-0.95-0.43-0.95-0.95c0-0.53,0.43-0.95,0.95-0.95h96.34
								c0.53,0,0.95,0.43,0.95,0.95C224.41,262.64,223.98,263.06,223.46,263.06z"/>
						</g>
					</g>
				</g>
				<g>
					<path class="st10" d="M302.58,247.02c-0.71,0.07-1.35,0.06-1.96,0.05c-1.17-0.02-2.27-0.05-3.34,0.62
						c-1.04,0.65-1.39,2.18-1.43,2.99c-0.02,0.42,0,0.8,0.03,1.13c0.05,0.66,0.06,1.01-0.16,1.34c-0.29,0.45-1.04,0.85-1.89,0.76
						c-0.13-0.01-0.26-0.04-0.38-0.07c-0.91-0.26-2.22-1.68-3.08-2.62c-0.13-0.14-0.26-0.28-0.38-0.4c-0.25-0.27-0.5-0.56-0.76-0.87
						c-0.97-1.13-1.96-2.29-3.3-2.57c-0.22-0.05-0.44-0.08-0.69-0.11c-0.69-0.07-1.41-0.06-2.24-0.05c-0.56,0.01-1.15,0.02-1.79,0
						h-0.03l-13.33,0.11c-0.2,0-0.4-0.01-0.59-0.03c-2.59-0.28-4.56-2.45-4.58-5.07l-0.17-20.97c-0.02-2.83,2.26-5.15,5.09-5.18
						l34.38-0.28c0.2,0,0.4,0.01,0.59,0.03c2.59,0.28,4.56,2.45,4.58,5.06l0.17,20.97c0.02,2.6-1.91,4.81-4.49,5.13L302.58,247.02z"
						/>
					<path class="st6" d="M294.57,230.06c1.02,0.11,1.79,0.96,1.8,1.99c0,0.54-0.2,1.05-0.58,1.43c-0.38,0.38-0.88,0.6-1.42,0.6
						c-0.08,0-0.16,0-0.24-0.01c-1.01-0.11-1.79-0.96-1.8-1.99c0-0.54,0.2-1.05,0.58-1.43c0.38-0.38,0.88-0.6,1.42-0.6
						C294.41,230.05,294.49,230.05,294.57,230.06"/>
					<path class="st6" d="M285.57,230.15c1.02,0.11,1.79,0.96,1.8,1.99c0.01,0.54-0.2,1.05-0.58,1.43c-0.38,0.39-0.88,0.6-1.42,0.61
						c-0.08,0-0.16,0-0.24-0.01c-1.01-0.11-1.79-0.96-1.8-1.99c-0.01-0.54,0.2-1.05,0.58-1.43c0.38-0.39,0.88-0.6,1.42-0.6
						C285.42,230.13,285.5,230.14,285.57,230.15"/>
					<path class="st6" d="M276.58,230.23c1.02,0.11,1.79,0.96,1.8,1.99c0.01,0.54-0.2,1.05-0.58,1.43c-0.38,0.39-0.88,0.6-1.42,0.61
						c-0.08,0-0.16,0-0.24-0.01c-1.02-0.11-1.79-0.96-1.8-1.99c0-0.54,0.2-1.05,0.58-1.43c0.38-0.38,0.88-0.6,1.42-0.6
						C276.42,230.22,276.5,230.22,276.58,230.23"/>
				</g>
			</g>
			<g>
				<path class="st6" d="M82.45,344.25h48.03c0,0,1.89-14.08-6.44-30.72c-7.08-14.15-5.79-27.61-5.79-27.61H70.22
					c0,0-0.95,16.81,6.34,30.23C84.32,330.44,82.45,344.25,82.45,344.25z"/>
				<path class="st6" d="M110.46,379.31h48.03c0,0,1.89-14.08-6.44-30.72c-7.08-14.15-5.79-27.61-5.79-27.61H98.24
					c0,0-0.95,16.81,6.34,30.23C112.33,365.51,110.46,379.31,110.46,379.31z"/>
				<path class="st10" d="M130.48,345.2H82.45c-0.28,0-0.54-0.12-0.72-0.33c-0.18-0.21-0.26-0.48-0.23-0.75
					c0.02-0.14,1.72-13.68-5.78-27.51c-7.33-13.51-6.49-30.05-6.45-30.74c0.03-0.5,0.45-0.9,0.95-0.9h48.03
					c0.27,0,0.52,0.11,0.71,0.31c0.18,0.2,0.27,0.46,0.24,0.73c-0.01,0.13-1.18,13.38,5.69,27.09c8.37,16.71,6.61,30.69,6.53,31.27
					C131.36,344.85,130.96,345.2,130.48,345.2z M83.5,343.29h46.11c0.23-3.22,0.54-15.43-6.42-29.34
					c-6.07-12.13-6.11-23.61-5.95-27.08H71.15c-0.06,3.63,0.13,17.55,6.25,28.83C84.05,327.96,83.78,339.72,83.5,343.29z"/>
				<path class="st10" d="M158.49,380.27h-48.03c-0.28,0-0.54-0.12-0.72-0.33c-0.18-0.21-0.26-0.48-0.23-0.75
					c0.02-0.14,1.72-13.68-5.78-27.51c-7.33-13.51-6.49-30.05-6.45-30.74c0.03-0.5,0.45-0.9,0.95-0.9h48.03
					c0.27,0,0.52,0.11,0.71,0.31c0.18,0.2,0.27,0.46,0.24,0.73c-0.01,0.13-1.18,13.38,5.69,27.09c8.37,16.71,6.61,30.69,6.53,31.27
					C159.37,379.91,158.97,380.27,158.49,380.27z M111.52,378.36h46.11c0.23-3.22,0.54-15.43-6.42-29.34
					c-6.07-12.13-6.11-23.61-5.95-27.08H99.16c-0.06,3.63,0.13,17.55,6.25,28.83C112.07,363.03,111.79,374.79,111.52,378.36z"/>
			</g>
		</g>
	</g>
	<g>
		<g>
			<g>
				
					<linearGradient id="SVGID_00000000929897396648250160000006115423613418047116_" gradientUnits="userSpaceOnUse" x1="-52.8191" y1="228.3503" x2="-77.263" y2="258.4007" gradientTransform="matrix(-1 0 0 1 148 0)">
					<stop  offset="0" style="stop-color:#FEBBBA"/>
					<stop  offset="1" style="stop-color:#FF928E"/>
				</linearGradient>
				<path style="fill:url(#SVGID_00000000929897396648250160000006115423613418047116_);" d="M194.24,244.53l6.05,19.19
					c0,0,7.02,5.17,15.98,0.24c1.38-0.75,2.8-1.74,4.24-3.04c10.87-9.7,3.66-23.81,3.66-23.81s8.29-3.35,4.61-10.39
					c-0.25-0.48-0.96-0.41-1.11,0.12c-0.54,1.94-1.85,5.33-4.59,6.54c-0.14,0.06-0.27,0.12-0.4,0.18c-0.12-0.37-0.12-0.8,0.17-1.26
					c0.86-1.3-0.69-3.08-0.69-3.08s-0.1,1.57-1.29,2.55c-1.03,0.86-1.52,2.74-0.82,4.3c1.49,5.77,3.71,13.39-4.95,18.97
					c-0.89,0.57-1.81,0.91-2.75,1.07C204.07,257.5,194.24,244.53,194.24,244.53z"/>
				<path class="st22" d="M194.24,244.53l6.05,19.19c0,0,7.02,5.17,15.98,0.24l-3.92-7.84C204.07,257.5,194.24,244.53,194.24,244.53
					z"/>
				
					<linearGradient id="SVGID_00000150799312091035154780000015329909857488924599_" gradientUnits="userSpaceOnUse" x1="197.7067" y1="202.8115" x2="153.216" y2="289.5404">
					<stop  offset="0" style="stop-color:#E1473D"/>
					<stop  offset="1" style="stop-color:#E9605A"/>
				</linearGradient>
				<path style="fill:url(#SVGID_00000150799312091035154780000015329909857488924599_);" d="M192.43,220.99
					c0,0,3.43-11.93-9.39-8.65c0,0-6.28-0.88-6.46,5.04c0,0-2.71,4.09-2.83,9.13c0,0-12.34,3.19-14.29,8.14
					c-1.99,5.06-0.89,13.1,4.18,14.49c0,0-4.03,2.14-1.99,6.72c2.04,4.58,11.89,7.61,17.53,1.85c0,0,16.48,1.78,15.88-9.81
					c0,0,7.52-5.11-0.73-14.51C186.07,223.98,192.43,220.99,192.43,220.99z"/>
				<path class="st22" d="M193.43,242.42c-2.59-0.78-10.13-2.21-17.31,4.41c-1.22,1.12-1.71,2.83-1.28,4.43
					c1.93,7.1,7.01,28.06,2.55,37.13c0,0,7.86,8.66,16.43,1.68c0,0,3.85-16.76,8.88-24.12c3.48-5.08-5.55-19.08-7.83-22.46
					C194.53,242.97,194.02,242.59,193.43,242.42z"/>
				
					<linearGradient id="SVGID_00000021092414046523289910000001177099722332060049_" gradientUnits="userSpaceOnUse" x1="187.1093" y1="250.2083" x2="186.6087" y2="229.9329">
					<stop  offset="0" style="stop-color:#FEBBBA"/>
					<stop  offset="1" style="stop-color:#FF928E"/>
				</linearGradient>
				<path style="fill:url(#SVGID_00000021092414046523289910000001177099722332060049_);" d="M186.28,228.32
					c0,0-3.83,10.84-4.12,15.62c0,0,4.23,1.93,8.23-1.32c0,0,0.42-10.83,1.02-12.76L186.28,228.32z"/>
				
					<linearGradient id="SVGID_00000133524685512139239300000004050599829060364733_" gradientUnits="userSpaceOnUse" x1="-15359.498" y1="3897.6997" x2="-15340.1084" y2="3919.9919" gradientTransform="matrix(-0.9534 0.3019 0.3019 0.9534 -15626.8867 1141.3737)">
					<stop  offset="0" style="stop-color:#FEBBBA"/>
					<stop  offset="1" style="stop-color:#FF928E"/>
				</linearGradient>
				<path style="fill:url(#SVGID_00000133524685512139239300000004050599829060364733_);" d="M192.42,217.61
					c0,0,10.35,13.79,4.46,18c-5.89,4.21-13.26-5.58-13.26-5.58s-2.51-7.62-0.14-10.28C185.85,217.09,192.42,217.61,192.42,217.61z"
					/>
				
					<linearGradient id="SVGID_00000154420443378027517990000006273881395899485355_" gradientUnits="userSpaceOnUse" x1="194.952" y1="201.3984" x2="150.4613" y2="288.1271">
					<stop  offset="0" style="stop-color:#E1473D"/>
					<stop  offset="1" style="stop-color:#E9605A"/>
				</linearGradient>
				<path style="fill:url(#SVGID_00000154420443378027517990000006273881395899485355_);" d="M187.7,214.37c0,0,4.63,0.98,5.32,3.05
					c0.69,2.07-6.43,4.17-8.44,4.31l-1.42,8.44c0,0-4.97-7.79-3.18-12.4C181.77,213.16,187.7,214.37,187.7,214.37z"/>
				
					<linearGradient id="SVGID_00000060715214213287884830000007675232452169237913_" gradientUnits="userSpaceOnUse" x1="-15354.6533" y1="3893.4861" x2="-15335.2646" y2="3915.7778" gradientTransform="matrix(-0.9534 0.3019 0.3019 0.9534 -15626.8867 1141.3737)">
					<stop  offset="0" style="stop-color:#FEBBBA"/>
					<stop  offset="1" style="stop-color:#FF928E"/>
				</linearGradient>
				<path style="fill:url(#SVGID_00000060715214213287884830000007675232452169237913_);" d="M185.53,228.95
					c0,0-4.01-4.42-5.49-1.44c-1.48,2.98,3.63,5.07,5.35,3.59L185.53,228.95z"/>
				
					<linearGradient id="SVGID_00000172426833485144715590000008479242929415664802_" gradientUnits="userSpaceOnUse" x1="13234.4404" y1="495.4387" x2="13280.7002" y2="413.7801" gradientTransform="matrix(1 -9.500000e-03 9.500000e-03 1 -13081.0332 48.4421)">
					<stop  offset="0" style="stop-color:#FEBBBA"/>
					<stop  offset="1" style="stop-color:#FF928E"/>
				</linearGradient>
				<path style="fill:url(#SVGID_00000172426833485144715590000008479242929415664802_);" d="M203.83,325.26
					c-0.03,0.76,1.31,6.8,2.03,10.02c0.29,1.3,0.09,2.65-0.57,3.8l-25.18,42.38c-0.3,0.51-0.53,1.07-0.66,1.65
					c-0.46,1.99-1.42,6.86-0.92,11.3l1.3,2.71l-5.63-1.28l-1.23-15.13l1.59-0.97c1.38-0.84,2.45-2.1,3.07-3.59
					c2.28-5.53,7.93-19.61,9.39-26.47c1.66-7.8,10.32-14.13,10.32-14.13l-1.52-3.6L203.83,325.26z"/>
				
					<linearGradient id="SVGID_00000179617365344420194520000016208681473329931662_" gradientUnits="userSpaceOnUse" x1="165.5568" y1="361.3591" x2="179.8246" y2="412.1725">
					<stop  offset="0" style="stop-color:#09005D"/>
					<stop  offset="1" style="stop-color:#1A0F91"/>
				</linearGradient>
				<path style="fill:url(#SVGID_00000179617365344420194520000016208681473329931662_);" d="M167.94,390.63c0,0,3.04-4.82,3.4-6.7
					c0.36-1.88,1.35-5.19,3.23-4.2c0,0,0.88,9.12,0.58,12.68c-0.3,3.56,4.03,3.45,4.03,3.45s1.19,0.17,2.07,1.04
					c0.6,0.6,0.17,1.65-0.68,1.71c-1.42,0.09-3.67,0.12-6.04-0.34c-0.83-0.16-1.44-0.86-1.49-1.7l-0.62-10.5l-3.84,4.85
					L167.94,390.63z"/>
				
					<linearGradient id="SVGID_00000133523049485009052720000000128634587377465740_" gradientUnits="userSpaceOnUse" x1="194.6582" y1="359.7287" x2="241.4664" y2="327.9391">
					<stop  offset="0" style="stop-color:#FEBBBA"/>
					<stop  offset="1" style="stop-color:#FF928E"/>
				</linearGradient>
				<path style="fill:url(#SVGID_00000133523049485009052720000000128634587377465740_);" d="M188.79,332.01
					c0,0-0.89,37.91-1.01,43.29c-0.12,5.38,0.85,17.32,6.25,20.88l-2.35,1.74c0,0-2.94-2.49-5.8-7.3c-3.22-5.39-4.2-6.38-4.2-6.38
					l1.07-2.19c0.47-0.96,0.61-2.04,0.39-3.09c-1.16-5.65-5.06-24.42-6.12-28.47c-1.25-4.77-1.34-11.15,3.02-16.48
					C184.4,328.69,188.79,332.01,188.79,332.01z"/>
				
					<linearGradient id="SVGID_00000049213127315372733370000018297659898676753854_" gradientUnits="userSpaceOnUse" x1="235.2439" y1="353.2486" x2="209.9011" y2="374.086">
					<stop  offset="0" style="stop-color:#09005D"/>
					<stop  offset="1" style="stop-color:#1A0F91"/>
				</linearGradient>
				<path style="fill:url(#SVGID_00000049213127315372733370000018297659898676753854_);" d="M183.8,399.63
					c-0.17,0-0.31-0.12-0.33-0.28c-0.18-1.26-0.93-6.33-1.54-7.64c-0.7-1.5-2.99-7.83,0-8.36c0,0,7.44,10.87,8.87,12.33
					c1.43,1.47,3.23,0.51,3.23,0.51s1.39,0.41,2.44,1.75c0.5,0.64,0.03,1.57-0.78,1.58l-5.01,0.05c-1.45,0.01-2.76-0.87-3.3-2.22
					c-0.88-2.2-2.4-5.43-4.16-6.87l0.92,8.78C184.15,399.46,184,399.63,183.8,399.63z"/>
				
					<linearGradient id="SVGID_00000182524157627937350910000015443693475544421814_" gradientUnits="userSpaceOnUse" x1="171.3162" y1="289.2116" x2="200.0381" y2="334.2655">
					<stop  offset="0" style="stop-color:#4F52FF"/>
					<stop  offset="1" style="stop-color:#4042E2"/>
				</linearGradient>
				<path style="fill:url(#SVGID_00000182524157627937350910000015443693475544421814_);" d="M195.01,285.98c0,0-1.13,3.6,0.61,9.52
					l10.76,37.57c0.17,0.59-0.15,1.21-0.73,1.42c-3.22,1.16-13.8,4.42-28.24,3.42c-0.73-0.05-1.34-0.57-1.49-1.28
					c-0.95-4.28-4.2-18.9-4.87-21.9c-2.55-11.44-5.39-23.78,7.12-31.24C183.93,285.96,189.31,287.42,195.01,285.98z"/>
				<path class="st22" d="M160.23,271.45c0,0-0.08,0.01-0.08,0c1.36-1.06,8.55-1.1,8.55-1.1s5.23-7.57,7-9.45
					c0.06-0.06,0.12-0.12,0.16-0.16c0.04-0.04,0.08-0.08,0.14-0.13c0.65-0.6,1.34-1.2,2.08-1.82c0.82-0.69,1.48-1.57,1.88-2.57
					c2.77-6.97,0.58-11.53-4.45-8.6c0,0-10.64,8.84-14.77,21.36c-0.05,0.16-0.09,0.3-0.14,0.45c-0.16,0.58-0.33,1.13-0.47,1.65
					c-0.01,0.04,0.03,0.09,0.02,0.13C160.12,271.29,160.26,271.36,160.23,271.45z"/>
			</g>
			
				<linearGradient id="SVGID_00000003800915350787527220000003871933787551522473_" gradientUnits="userSpaceOnUse" x1="3196.9893" y1="277.6154" x2="3225.4543" y2="277.6154" gradientTransform="matrix(1 0 0 1 -3037.2822 0)">
				<stop  offset="0" style="stop-color:#FEBBBA"/>
				<stop  offset="1" style="stop-color:#FF928E"/>
			</linearGradient>
			<path style="fill:url(#SVGID_00000003800915350787527220000003871933787551522473_);" d="M186.54,276c0,0-12.36,6.99-16.53,1.02
				c-0.87-1.24-1.52-5.5-1.3-6.68c-3.71-1.87-6.49,0.88-8.58,0.73c-0.55,2.86-0.81,5.64,0.87,8.72c7.31,13.37,27.18-0.74,27.18-0.74
				L186.54,276z"/>
			<g>
				
					<linearGradient id="SVGID_00000044168299807800590290000010842789479335204245_" gradientUnits="userSpaceOnUse" x1="3234.1836" y1="257.6629" x2="3250.0493" y2="323.7697" gradientTransform="matrix(1 0 0 1 -3037.2822 0)">
					<stop  offset="0" style="stop-color:#09005D"/>
					<stop  offset="1" style="stop-color:#1A0F91"/>
				</linearGradient>
				<path style="fill:url(#SVGID_00000044168299807800590290000010842789479335204245_);" d="M185.05,284.84l6.75-23.56
					c0.08-0.27,0.3-0.46,0.58-0.49c1.22-0.14,4.76-0.54,8.85-0.89c4.93-0.42,10.65-0.75,14.07-0.47c0.49,0.04,0.78,0.55,0.56,0.99
					c-1.94,3.93-9.94,19.93-13.95,25.17c-0.13,0.17-0.34,0.28-0.56,0.27l-15.65-0.15C185.25,285.71,184.93,285.28,185.05,284.84z"/>
				
					<linearGradient id="SVGID_00000079459306644814922090000007815312652451787423_" gradientUnits="userSpaceOnUse" x1="3244.1172" y1="247.2426" x2="3240.7383" y2="262.0806" gradientTransform="matrix(1 0 0 1 -3037.2822 0)">
					<stop  offset="0" style="stop-color:#4F52FF"/>
					<stop  offset="1" style="stop-color:#4042E2"/>
				</linearGradient>
				<path style="fill:url(#SVGID_00000079459306644814922090000007815312652451787423_);" d="M201.93,257.85l4.89-0.82
					c0.26-0.04,0.47,0.21,0.39,0.46l-0.48,1.47c-0.04,0.13-0.15,0.22-0.29,0.24l-4.71,0.63c-0.24,0.03-0.44-0.19-0.39-0.43l0.3-1.28
					C201.68,257.98,201.79,257.87,201.93,257.85z"/>
				
					<linearGradient id="SVGID_00000044145215948018274810000014296199657796118430_" gradientUnits="userSpaceOnUse" x1="3242.3486" y1="253.4667" x2="3240.7327" y2="263.1628" gradientTransform="matrix(1 0 0 1 -3037.2822 0)">
					<stop  offset="0" style="stop-color:#4F52FF"/>
					<stop  offset="1" style="stop-color:#4042E2"/>
				</linearGradient>
				<path style="fill:url(#SVGID_00000044145215948018274810000014296199657796118430_);" d="M198.27,261.99l0.4-2.1
					c0.04-0.21,0.21-0.37,0.43-0.39l9.88-1c0.33-0.03,0.6,0.27,0.52,0.6l-0.63,2.62c-0.05,0.21-0.23,0.36-0.45,0.37l-9.66,0.49
					C198.46,262.58,198.21,262.3,198.27,261.99z"/>
				
					<linearGradient id="SVGID_00000139265117325683351360000006666781163649820836_" gradientUnits="userSpaceOnUse" x1="3223.3123" y1="275.1517" x2="3232.3013" y2="275.1517" gradientTransform="matrix(1 0 0 1 -3037.2822 0)">
					<stop  offset="0" style="stop-color:#FEBBBA"/>
					<stop  offset="1" style="stop-color:#FF928E"/>
				</linearGradient>
				<path style="fill:url(#SVGID_00000139265117325683351360000006666781163649820836_);" d="M186.68,279.15
					c0,0-0.94-3.86-0.56-5.24c0.38-1.37,1.11-3.13,3.56-2.74c2.45,0.39,5.34,1.42,5.34,1.42s-0.15,1.79-2.01,1.21l1.15,0.89
					c0,0-0.17,1.43-1.74,0.67l1.07,1.18c0,0-0.68,1.17-1.83,0.42C190.51,276.21,189.96,279.61,186.68,279.15z"/>
			</g>
		</g>
	</g>
	<g>
		
			<linearGradient id="SVGID_00000114763437627462831300000001145968229958784386_" gradientUnits="userSpaceOnUse" x1="403.2856" y1="404.2888" x2="426.0379" y2="404.2888">
			<stop  offset="0" style="stop-color:#4F52FF"/>
			<stop  offset="1" style="stop-color:#4042E2"/>
		</linearGradient>
		<path style="fill:url(#SVGID_00000114763437627462831300000001145968229958784386_);" d="M403.93,403.19
			c3.9,0.34,10.66,0.88,16,1.12c3.21,0.14,5.05-0.17,6.11-0.6c0,0.12-0.01,0.23-0.01,0.34c-0.03,0.56-0.48,1.01-1.05,1.04
			c-10.08,0.56-18.09,0.19-20.94,0.02c-0.59-0.04-0.94-0.68-0.64-1.18C403.55,403.68,403.73,403.43,403.93,403.19z"/>
		
			<linearGradient id="SVGID_00000010276333432558082490000014069582222909183108_" gradientUnits="userSpaceOnUse" x1="-1692.5093" y1="399.8296" x2="-1670.3982" y2="399.8296" gradientTransform="matrix(-1 0 0 1 -1266.4701 0)">
			<stop  offset="0" style="stop-color:#09005D"/>
			<stop  offset="1" style="stop-color:#1A0F91"/>
		</linearGradient>
		<path style="fill:url(#SVGID_00000010276333432558082490000014069582222909183108_);" d="M419.92,404.31
			c-5.33-0.23-12.1-0.78-16-1.12c3.83-4.7,16-7.87,16-7.87h3.44c2.36,3.41,2.7,6.65,2.68,8.39
			C424.97,404.13,423.13,404.45,419.92,404.31z"/>
		
			<linearGradient id="SVGID_00000075160084036398881420000008291548238673766534_" gradientUnits="userSpaceOnUse" x1="-1690.4073" y1="393.6041" x2="-1683.9985" y2="393.6041" gradientTransform="matrix(-1 0 0 1 -1266.4701 0)">
			<stop  offset="0" style="stop-color:#FEBBBA"/>
			<stop  offset="1" style="stop-color:#FF928E"/>
		</linearGradient>
		<path style="fill:url(#SVGID_00000075160084036398881420000008291548238673766534_);" d="M423.94,389.71l-0.32,6.36
			c-0.03,0.69-0.55,1.27-1.24,1.37c-0.69,0.1-1.61,0.11-2.58-0.21c-0.6-0.2-1.04-0.7-1.16-1.32l-1.11-6.19H423.94z"/>
		<g>
			
				<linearGradient id="SVGID_00000080887829739704898460000008403374308151486634_" gradientUnits="userSpaceOnUse" x1="457.9285" y1="409.9306" x2="466.6475" y2="409.9306">
				<stop  offset="0" style="stop-color:#4F52FF"/>
				<stop  offset="1" style="stop-color:#4042E2"/>
			</linearGradient>
			<path style="fill:url(#SVGID_00000080887829739704898460000008403374308151486634_);" d="M463.81,410.53
				c1.69-0.3,2.46-1.44,2.78-2.65c0,0.01,0,0.02,0.01,0.03c0.25,1.28-0.33,2.61-1.48,3.24c-1.39,0.76-2.92,0.89-4.1,0.83
				c-1.27-0.07-2.43-0.75-3.07-1.83l-0.01-0.02C459.2,410.94,460.99,411.03,463.81,410.53z"/>
			
				<linearGradient id="SVGID_00000139255560741810604410000011506484931586570384_" gradientUnits="userSpaceOnUse" x1="-1733.0542" y1="401.2541" x2="-1720.2563" y2="401.2541" gradientTransform="matrix(-1 0 0 1 -1266.4701 0)">
				<stop  offset="0" style="stop-color:#09005D"/>
				<stop  offset="1" style="stop-color:#1A0F91"/>
			</linearGradient>
			<path style="fill:url(#SVGID_00000139255560741810604410000011506484931586570384_);" d="M455.84,391.67h2.83
				c4.32-0.11,7.03,11.65,7.91,16.2c-0.32,1.21-1.09,2.35-2.78,2.65c-2.82,0.51-4.61,0.41-5.88-0.4c-2.33-3.96-3.49-9.77-4.04-13.16
				C453.25,393.11,455.84,391.67,455.84,391.67z"/>
		</g>
		
			<linearGradient id="SVGID_00000173875194219127990020000005487076263120255416_" gradientUnits="userSpaceOnUse" x1="-1726.4021" y1="390.2621" x2="-1718.7429" y2="390.2621" gradientTransform="matrix(-1 0 0 1 -1266.4701 0)">
			<stop  offset="0" style="stop-color:#FEBBBA"/>
			<stop  offset="1" style="stop-color:#FF928E"/>
		</linearGradient>
		<path style="fill:url(#SVGID_00000173875194219127990020000005487076263120255416_);" d="M458.31,385.76l1.57,6.26
			c0.19,0.77-0.17,1.56-0.88,1.92c-0.88,0.45-2.12,0.93-3.26,0.79c-0.54-0.06-0.98-0.44-1.16-0.95l-2.31-6.58L458.31,385.76z"/>
		
			<linearGradient id="SVGID_00000072989213644936844030000014621211040334612412_" gradientUnits="userSpaceOnUse" x1="-1652.6599" y1="288.2963" x2="-1718.052" y2="395.4148" gradientTransform="matrix(-1 0 0 1 -1266.4701 0)">
			<stop  offset="0" style="stop-color:#09005D"/>
			<stop  offset="1" style="stop-color:#1A0F91"/>
		</linearGradient>
		<path style="fill:url(#SVGID_00000072989213644936844030000014621211040334612412_);" d="M402.97,303.36
			c0,0,14.06,87.88,13.83,88.36c0,0,3.88,1.76,8.12,0.22c0,0-1.27-46.98-4.25-64.99c0,0,23.99,41.99,31.61,62.91
			c0,0,3.97-0.47,7.26-2.64c0,0-25.83-75.58-32.73-85.64L402.97,303.36z"/>
		
			<linearGradient id="SVGID_00000086658448402284087670000015711329533698159805_" gradientUnits="userSpaceOnUse" x1="471.9502" y1="271.1301" x2="436.6365" y2="302.6602">
			<stop  offset="0" style="stop-color:#4F52FF"/>
			<stop  offset="1" style="stop-color:#4042E2"/>
		</linearGradient>
		<path style="fill:url(#SVGID_00000086658448402284087670000015711329533698159805_);" d="M420.1,326.5c0.08,0,0.15-0.02,0.22-0.06
			c0.19-0.12,0.25-0.38,0.13-0.57l-5.25-8.39c-0.06-0.1-0.16-0.16-0.27-0.19l-3.87-0.78c-0.23-0.04-0.44,0.1-0.49,0.33
			c-0.04,0.22,0.1,0.44,0.33,0.49l3.69,0.74l5.16,8.24C419.83,326.43,419.96,326.5,420.1,326.5z"/>
		
			<linearGradient id="SVGID_00000025436264267807411220000010954233969898812340_" gradientUnits="userSpaceOnUse" x1="393.8621" y1="263.6364" x2="339.6304" y2="222.0169">
			<stop  offset="0" style="stop-color:#FEBBBA"/>
			<stop  offset="1" style="stop-color:#FF928E"/>
		</linearGradient>
		<path style="fill:url(#SVGID_00000025436264267807411220000010954233969898812340_);" d="M338.46,217.31c0,0,9.49,2.09,15.26,4.76
			c1.15,0.53,2.06,1.45,2.58,2.59c1.73,3.78,6.89,13.26,16.9,17.78c-1.44,1.91-3.76,5.89-4.77,12.59
			c-6.01-4.48-11.21-11.95-13.7-24.21c0,0-1.9,1.03-4.27-0.12c-1.25-0.61-2.7-1.47-3.78-2.15c-1.08-0.68-1.88-1.73-2.2-2.95
			c-0.41-1.62-0.17-3.04-0.17-4.57l-4.88-1.51C339.43,219.52,337.97,218.97,338.46,217.31z"/>
		<path class="st22" d="M368.42,255.03c1.01-6.69,3.33-10.67,4.77-12.59c6.22,2.81,14.31,3.71,24.61,0.14
			c0.95-0.33,1.94-0.52,2.94-0.58c5.48-0.32,23.56-0.91,38.52,4.03c3.15,1.04,5.7,3.37,7.01,6.38c4.05,9.28,10.6,30.43-7.59,41.1
			c-1.4-3.47-3.01-6.26-4.39-8.3c2.93-4.94,3.8-11.69-1.4-20.47c-3.79,10.23-5.57,25.16-5.94,31.77c-0.12,2.18,0.26,4.35,1.11,6.35
			l0.09,0.22c0.18,0.43-0.07,0.92-0.53,1.03c-10.24,2.3-20.88,1.67-24.06,1.41c-0.57-0.05-1.04-0.45-1.17-1
			c-4.98-20.97-4.99-35.28-3.77-44.33C393.98,261.23,379.74,263.45,368.42,255.03z"/>
		
			<linearGradient id="SVGID_00000054227152837320946060000015768899775407880085_" gradientUnits="userSpaceOnUse" x1="426.1421" y1="185.7607" x2="411.0069" y2="225.7008">
			<stop  offset="0" style="stop-color:#E1473D"/>
			<stop  offset="1" style="stop-color:#E9605A"/>
		</linearGradient>
		<path style="fill:url(#SVGID_00000054227152837320946060000015768899775407880085_);" d="M398.62,260.76
			c0.21,0,0.38-0.15,0.41-0.36c1.17-8.83,3.55-12.68,3.57-12.72c0.12-0.19,0.06-0.45-0.13-0.57c-0.19-0.12-0.45-0.07-0.57,0.13
			c-0.1,0.16-2.5,4.02-3.7,13.06c-0.03,0.23,0.13,0.44,0.36,0.47C398.58,260.76,398.6,260.76,398.62,260.76z"/>
		
			<linearGradient id="SVGID_00000099634500080173046430000005232022072529811865_" gradientUnits="userSpaceOnUse" x1="-1688.6687" y1="254.4358" x2="-1685.35" y2="237.0129" gradientTransform="matrix(-1 0 0 1 -1266.4701 0)">
			<stop  offset="0" style="stop-color:#FEBBBA"/>
			<stop  offset="1" style="stop-color:#FF928E"/>
		</linearGradient>
		<path style="fill:url(#SVGID_00000099634500080173046430000005232022072529811865_);" d="M423.88,229.78
			c0,0,1.04,10.95,1.95,14.19c0.14,0.49-0.08,1.01-0.52,1.26c-1.55,0.88-5.26,2.33-10.34-0.16c-0.82-0.4-1.32-1.26-1.28-2.17
			l0.45-10.58L423.88,229.78z"/>
		<g>
			
				<linearGradient id="SVGID_00000131357036468376522370000015830997620723476396_" gradientUnits="userSpaceOnUse" x1="-1679.6888" y1="222.4702" x2="-1698.6239" y2="236.9584" gradientTransform="matrix(-1 0 0 1 -1266.4701 0)">
				<stop  offset="0" style="stop-color:#FEBBBA"/>
				<stop  offset="1" style="stop-color:#FF928E"/>
			</linearGradient>
			<path style="fill:url(#SVGID_00000131357036468376522370000015830997620723476396_);" d="M413.91,215.77c0,0-3.31,7.61-3.53,11.6
				c-0.22,3.99-1.08,6.58,3.53,7.39c4.62,0.8,8.51-1.5,10.62-5.47c0,0,3.3-6.13,2.56-8.64
				C426.35,218.14,413.91,215.77,413.91,215.77z"/>
			
				<linearGradient id="SVGID_00000000938133438986761840000005184174000199144097_" gradientUnits="userSpaceOnUse" x1="-1693.0183" y1="210.9987" x2="-1675.3833" y2="233.7037" gradientTransform="matrix(-1 0 0 1 -1266.4701 0)">
				<stop  offset="0" style="stop-color:#09005D"/>
				<stop  offset="1" style="stop-color:#1A0F91"/>
			</linearGradient>
			<path style="fill:url(#SVGID_00000000938133438986761840000005184174000199144097_);" d="M422.95,226.43l-0.26-0.12
				c-0.33-0.15-0.48-0.55-0.31-0.87c0.65-1.26,1.92-4.14,0.28-4.81c-2.11-0.87-10.48-2.57-12.29-5.54c-1.74-2.85-0.2-6.54,2.11-7.59
				c0.15-0.07,0.34-0.01,0.42,0.14l0.19,0.36c0.13,0.25,0.5,0.21,0.58-0.06c0.08-0.26,0.42-0.31,0.57-0.08
				c0.56,0.89,2.05,2.33,6.06,3.07c5.7,1.05,9.46,3.36,9.56,7.29c0.01,0.25,0.27,0.39,0.49,0.26c0.42-0.26,1.09-0.38,1.99,0.38
				c1.56,1.32,0.92,4.73-2.51,7.53c-0.16,0.13-0.16,0.39,0.01,0.5c0.62,0.4,1.55,1.37-0.85,2.65c-2.48,1.33-4.34,1.22-5.05,1.1
				c-0.18-0.03-0.29-0.2-0.25-0.38l0.76-3.46c0.04-0.2-0.11-0.38-0.31-0.38H422.95z"/>
			
				<linearGradient id="SVGID_00000003796244762518169950000017070841279736595632_" gradientUnits="userSpaceOnUse" x1="-1682.0375" y1="219.4007" x2="-1700.9725" y2="233.8888" gradientTransform="matrix(-1 0 0 1 -1266.4701 0)">
				<stop  offset="0" style="stop-color:#FEBBBA"/>
				<stop  offset="1" style="stop-color:#FF928E"/>
			</linearGradient>
			<path style="fill:url(#SVGID_00000003796244762518169950000017070841279736595632_);" d="M422.81,227.16c0,0,1.26-4.86,3.44-3.5
				c2.18,1.36-1.13,5.45-2.88,5.63L422.81,227.16z"/>
		</g>
		
			<linearGradient id="SVGID_00000054232835010513937430000009729026313456697763_" gradientUnits="userSpaceOnUse" x1="346.1312" y1="225.8224" x2="353.5757" y2="225.8224">
			<stop  offset="0" style="stop-color:#FF928E"/>
			<stop  offset="1" style="stop-color:#FE7062"/>
		</linearGradient>
		<path style="fill:url(#SVGID_00000054232835010513937430000009729026313456697763_);" d="M352.19,229.69
			c0.09,0,0.18-0.03,0.26-0.09c0.18-0.14,0.2-0.41,0.06-0.58c-0.36-0.44-3.54-4.33-4.77-5.03c-0.45-0.25-0.71-0.51-0.77-0.75
			c-0.03-0.11-0.01-0.24,0.06-0.39l3.74,0.75l2.12,1.82c0.17,0.15,0.44,0.13,0.59-0.04c0.15-0.17,0.13-0.44-0.04-0.59l-2.2-1.89
			c-0.05-0.05-0.12-0.08-0.19-0.09l-4.14-0.83c-0.17-0.03-0.33,0.04-0.43,0.18c-0.3,0.45-0.4,0.87-0.31,1.28
			c0.11,0.48,0.5,0.91,1.17,1.29c0.92,0.52,3.58,3.66,4.53,4.83C351.95,229.63,352.07,229.69,352.19,229.69z"/>
		
			<linearGradient id="SVGID_00000152953367161917408420000017328843296429889435_" gradientUnits="userSpaceOnUse" x1="421.278" y1="300.0573" x2="449.0258" y2="252.5496">
			<stop  offset="0" style="stop-color:#FEBBBA"/>
			<stop  offset="1" style="stop-color:#FF928E"/>
		</linearGradient>
		<path style="fill:url(#SVGID_00000152953367161917408420000017328843296429889435_);" d="M422.97,298.78l-14.64,0.18l5.12-4.82
			c1.27-1.2,3.22-1.39,4.69-0.44c0.86,0.56,1.79,1.32,2.6,2.32c0,0,9.13-3.34,13.56-10.81c1.38,2.05,2.99,4.84,4.39,8.3
			C434.72,295.85,429.58,297.68,422.97,298.78z"/>
		<g>
			
				<linearGradient id="SVGID_00000020379305160792605030000009541554741699180466_" gradientUnits="userSpaceOnUse" x1="-2557.1814" y1="265.6291" x2="-2587.1218" y2="273.835" gradientTransform="matrix(0.9988 -0.0494 0.0494 0.9988 2968.6838 -100.8238)">
				<stop  offset="0" style="stop-color:#09005D"/>
				<stop  offset="1" style="stop-color:#1A0F91"/>
			</linearGradient>
			<path style="fill:url(#SVGID_00000020379305160792605030000009541554741699180466_);" d="M421.39,300.67c-0.03,0-0.06,0-0.09,0
				l-37.16-0.04c-0.92,0-1.66-0.74-1.66-1.65c0-0.91,0.75-1.66,1.67-1.64l37.16,0.04c0.92,0,1.66,0.74,1.66,1.65
				C422.97,299.91,422.27,300.62,421.39,300.67z"/>
			
				<linearGradient id="SVGID_00000125584880462377440780000003213143983128762779_" gradientUnits="userSpaceOnUse" x1="358.0468" y1="307.9961" x2="384.9537" y2="270.7187">
				<stop  offset="0" style="stop-color:#09005D"/>
				<stop  offset="1" style="stop-color:#1A0F91"/>
			</linearGradient>
			<path style="fill:url(#SVGID_00000125584880462377440780000003213143983128762779_);" d="M350.73,267.28h30.95
				c2.28,0,4.36,1.3,5.34,3.35l14.31,30.02h-38.46c-1.47,0-2.79-0.89-3.33-2.24l-11.1-27.78
				C347.79,269.02,348.99,267.28,350.73,267.28z"/>
			
				<linearGradient id="SVGID_00000144333558043439819340000007245816907023233681_" gradientUnits="userSpaceOnUse" x1="367.5956" y1="283.4122" x2="372.8359" y2="283.4122">
				<stop  offset="0" style="stop-color:#4F52FF"/>
				<stop  offset="1" style="stop-color:#4042E2"/>
			</linearGradient>
			<path style="fill:url(#SVGID_00000144333558043439819340000007245816907023233681_);" d="M372.54,282.67
				c0.67,2.06,0.18,4.06-1.11,4.47c-1.28,0.41-2.86-0.93-3.54-2.99c-0.67-2.06-0.18-4.06,1.11-4.47
				C370.28,279.27,371.87,280.61,372.54,282.67z"/>
		</g>
	</g>
</g>
</svg>
