<?xml version="1.0" encoding="utf-8"?>
<!-- Generator: Adobe Illustrator 25.0.0, SVG Export Plug-In . SVG Version: 6.00 Build 0)  -->
<svg version="1.1" id="Capa_1" xmlns="http://www.w3.org/2000/svg" xmlns:xlink="http://www.w3.org/1999/xlink" x="0px" y="0px"
	 viewBox="0 0 573.43 459.39" style="enable-background:new 0 0 573.43 459.39;" xml:space="preserve">
<style type="text/css">
	.st0{opacity:0.15;}
	.st1{fill:#6C63FE;}
	.st2{fill:#FFFFFF;}
	.st3{fill:#2E2D3F;}
	.st4{fill:#8BA7BA;}
	.st5{fill:#2A3942;}
	.st6{opacity:0.54;}
	.st7{fill:#EFFFFB;}
	.st8{fill:#4D3426;}
	.st9{opacity:0.52;}
	.st10{fill:#FFF200;}
	.st11{fill:#FFB980;}
	.st12{fill:#FF7657;}
	.st13{fill:#EF5B51;}
	.st14{clip-path:url(#SVGID_2_);}
	.st15{fill:#3C464F;}
	.st16{opacity:0.52;clip-path:url(#SVGID_2_);}
	.st17{fill:#345480;}
	.st18{fill:#294873;}
	.st19{fill:#40628F;}
	.st20{fill:#D64238;}
	.st21{fill:#D49F55;}
	.st22{fill:#F0CD9C;}
	.st23{fill:#D1773B;}
	.st24{fill:#4A6570;}
	.st25{opacity:0.58;}
	.st26{fill:#F4B37A;}
	.st27{opacity:0.74;}
	.st28{fill:#59889C;}
	.st29{fill:#CF9766;}
</style>
<g>
	<g class="st0">
		<rect x="72.77" y="39.12" class="st1" width="71.39" height="20.52"/>
	</g>
	<g class="st0">
		<rect x="360.33" y="39.25" class="st1" width="71.39" height="20.52"/>
	</g>
	<g class="st0">
		<rect x="323.74" y="16.05" class="st1" width="71.39" height="20.52"/>
	</g>
	<g class="st0">
		<rect x="288.05" y="94.57" class="st1" width="71.39" height="20.52"/>
	</g>
	<g class="st0">
		<rect x="352.29" y="234.67" class="st1" width="71.39" height="20.52"/>
	</g>
	<g class="st0">
		<rect x="247.45" y="414.47" class="st1" width="71.39" height="20.52"/>
	</g>
	<g class="st0">
		<rect x="283.59" y="391.72" class="st1" width="71.39" height="20.52"/>
	</g>
	<g class="st0">
		<rect x="247.89" y="39.25" class="st1" width="71.39" height="20.52"/>
	</g>
	<g class="st0">
		<path class="st1" d="M71.89,92.47c0.69-10.14,1.56-20.51,5.71-29.79c5.85-13.07,17.5-22.5,28.99-31.05
			c9.5-7.08,19.56-14.09,31.17-16.46c7.29-1.49,14.82-1.05,22.25-0.61c6.54,0.39,14,1.26,17.79,6.61c4.44,6.27,1.28,15.02-2.85,21.5
			c-10.68,16.77-26.78,29.3-39.36,44.69c-18.4,22.51-28.8,50.54-35.65,78.79c-2.4,9.91-4.46,20.07-9.28,29.07
			c-2.4,4.47-14.78,21.52-20.89,16.34c-4.69-3.98-0.98-31.47-0.94-37.7C69.02,146.71,70.04,119.56,71.89,92.47z"/>
	</g>
	<g class="st0">
		<path class="st1" d="M506.67,240.35c-3.92,55.31-22.06,109.25-42.22,149.35c-16.37,35.76-86.4,33.83-111.98,44.34
			c-17.33,3.87-35.23,7.66-53.42,11.22H60.51v-98.11c1.06-3.38,1.95-6.28,2.55-8.57c9.16-27.97,18.23-55.49,22.71-79.43
			c4.59-33.38,2.44-77.36,21.71-113.62c11.56-49.98,0.18-6.58,55.65-66.13c33.66-40.27,59.37-62.56,104.4-62.46
			c16.28,1.15,47.29,3.57,66.34,28.25c7.4,9.58,4.93,43.79,27.07,48.07c12.69,2.04,22.05-1.78,34.19-6.45
			c45.11-22.46,81.67,7.55,97.08,45.49c8.2,20.93,12.75,43,14.45,65.36C507.75,211.83,507.67,226.14,506.67,240.35z"/>
	</g>
	<g>
		<g>
			<path d="M237.32,350.38c-1.07,10.2-2.12,20.39-3.43,30.56c-0.18,1.39-0.36,2.78-0.55,4.16c-0.19,1.43-0.54,2.93-0.49,4.38
				c0.02,0.44,0.62,0.51,0.75,0.1c0.4-1.21,0.47-2.55,0.65-3.8c0.18-1.25,0.34-2.5,0.51-3.75c0.34-2.56,0.66-5.12,0.96-7.68
				c0.58-5.09,1.13-10.18,1.55-15.28c0.24-2.9,0.44-5.8,0.61-8.7C237.9,350.02,237.35,350.03,237.32,350.38L237.32,350.38z"/>
		</g>
	</g>
	<g>
		<g>
			<path d="M213.48,331.83c-0.79,4.41-1.59,8.91-3.22,13.1c-1.43,3.69-3.92,6.71-7.49,8.48c-1.88,0.93-3.94,1.44-6.04,1.47
				c-0.79,0.01-0.8,1.25,0,1.23c3.95-0.08,7.78-1.7,10.59-4.47c3.13-3.1,4.37-7.42,5.33-11.59c0.62-2.69,1.12-5.4,1.35-8.15
				C214.04,331.6,213.54,331.53,213.48,331.83L213.48,331.83z"/>
		</g>
	</g>
	<g>
		<g>
			<path d="M259.12,329.7c-1.45,6.35-1.3,14.24,3.04,19.52c0.51,0.62,1.1,1.18,1.77,1.63c0.73,0.49,1.46,0.71,2.34,0.73
				c0.5,0.01,0.58-0.71,0.12-0.86c-3.59-1.11-5.44-5.03-6.31-8.4c-1.06-4.14-0.66-8.34-0.48-12.55
				C259.6,329.49,259.18,329.43,259.12,329.7L259.12,329.7z"/>
		</g>
	</g>
	<g>
		<g>
			<path d="M232.34,334.49c-0.25,3.59-0.58,7.17-0.84,10.76c-0.07,0.89-0.13,1.77-0.18,2.66c-0.04,0.63-0.06,1.3,0.3,1.85
				c0.75,1.13,2.67,1.36,3.88,1.12c0.41-0.08,0.31-0.72-0.1-0.73c-0.75,0-1.48-0.03-2.2-0.28c-0.76-0.26-1.12-0.7-1.11-1.51
				c0-1.51,0.11-3.04,0.16-4.55c0.1-3.11,0.13-6.21,0.25-9.32C232.5,334.39,232.35,334.39,232.34,334.49L232.34,334.49z"/>
		</g>
	</g>
	<g>
		<path class="st2" d="M420.56,150.34l-5.3-10.6c0.79-8.53,0.64-26.79-0.05-29.55c-0.89-3.57-26.77-0.89-37.48,0
			c-10.71,0.89-8.03,31.23-8.03,31.23c3.18,3.18,30.56,3.34,42.11,2.91L420.56,150.34z"/>
	</g>
	<g>
		<g>
			<path class="st1" d="M397.72,126.14v-0.45c0-0.87-3.38-4.18-4.28-5.86c-0.68-1.25-1.83-2.85-2.25-2.93
				c-1.13-0.23-1.29,2.15,0,4.73c0.23,0.45,0.62,2.48-0.79,2.48c-1.19,0-4.78,0-4.78,0c-0.86,0-1.61,0.66-1.64,1.52
				c-0.03,0.69,0.39,1.29,0.99,1.52c-0.58,0.23-0.99,0.8-0.99,1.46c0,0.67,0.41,1.23,0.99,1.47c-0.58,0.23-0.99,0.8-0.99,1.47
				c0,0.67,0.41,1.23,0.99,1.46c-0.6,0.24-1.02,0.83-0.99,1.52c0.03,0.86,0.78,1.52,1.64,1.52h10.53c0.87,0,1.58-0.71,1.58-1.58
				h5.41v-8.34L397.72,126.14z"/>
		</g>
		<g>
			<rect x="400.65" y="124.57" class="st3" width="5.18" height="11.49"/>
		</g>
	</g>
	<g>
		<g>
			<path class="st2" d="M329.32,140.4c-1.66-4.14-50.67-1.61-51.38,1.21c-0.55,2.19-0.67,16.65-0.04,23.41l-4.2,8.4l6.93-4.77
				c9.15,0.35,46.38-0.49,48.9-3.01C329.53,165.64,331.1,144.86,329.32,140.4z"/>
		</g>
		<g>
			<circle class="st3" cx="288.27" cy="152.89" r="3.12"/>
		</g>
		<g>
			<circle class="st3" cx="303.44" cy="152.89" r="3.12"/>
		</g>
		<g>
			<circle class="st3" cx="318.61" cy="152.89" r="3.12"/>
		</g>
	</g>
	<g>
		<path d="M213.54,24.08c-2.21,0-4.02-1.8-4.02-4.02s1.8-4.02,4.02-4.02c2.21,0,4.02,1.8,4.02,4.02S215.75,24.08,213.54,24.08z
			 M213.54,16.94c-1.72,0-3.12,1.4-3.12,3.12c0,1.72,1.4,3.12,3.12,3.12c1.72,0,3.12-1.4,3.12-3.12
			C216.66,18.34,215.26,16.94,213.54,16.94z"/>
	</g>
	<g>
		<path d="M359.66,82.97c-3.57,0-6.47-2.9-6.47-6.47c0-3.57,2.9-6.47,6.47-6.47s6.47,2.9,6.47,6.47
			C366.13,80.07,363.22,82.97,359.66,82.97z M359.66,70.93c-3.08,0-5.58,2.5-5.58,5.58c0,3.08,2.5,5.58,5.58,5.58
			s5.58-2.5,5.58-5.58C365.23,73.43,362.73,70.93,359.66,70.93z"/>
	</g>
	<g>
		<path d="M462.94,29.43c-1.48,0-2.68-1.2-2.68-2.68s1.2-2.68,2.68-2.68c1.48,0,2.68,1.2,2.68,2.68S464.42,29.43,462.94,29.43z
			 M462.94,24.97c-0.98,0-1.78,0.8-1.78,1.78s0.8,1.78,1.78,1.78c0.98,0,1.78-0.8,1.78-1.78S463.93,24.97,462.94,24.97z"/>
	</g>
	<g>
		<path d="M301.43,348.44c-1.72,0-3.12-1.4-3.12-3.12c0-1.72,1.4-3.12,3.12-3.12c1.72,0,3.12,1.4,3.12,3.12
			C304.56,347.04,303.15,348.44,301.43,348.44z M301.43,343.08c-1.23,0-2.23,1-2.23,2.23c0,1.23,1,2.23,2.23,2.23
			c1.23,0,2.23-1,2.23-2.23C303.66,344.08,302.66,343.08,301.43,343.08z"/>
	</g>
	<g>
		<path d="M490.6,337.73c-1.72,0-3.12-1.4-3.12-3.12s1.4-3.12,3.12-3.12s3.12,1.4,3.12,3.12S492.33,337.73,490.6,337.73z
			 M490.6,332.38c-1.23,0-2.23,1-2.23,2.23s1,2.23,2.23,2.23c1.23,0,2.23-1,2.23-2.23S491.83,332.38,490.6,332.38z"/>
	</g>
	<g>
		<polygon points="490.2,120.39 486.89,110.68 474.22,115 470.47,104.02 458.65,108.06 454.47,95.81 455.32,95.52 459.21,106.92 
			471.03,102.89 474.77,113.87 487.44,109.55 491.04,120.11 		"/>
	</g>
	<g>
		<polygon points="170.97,436.66 167.16,425.71 156.98,429.25 154.46,416.36 155.34,416.19 157.66,428.07 167.71,424.57 
			171.52,435.53 186.27,430.39 186.56,431.24 		"/>
	</g>
	<g>
		<rect x="405.83" y="156.4" transform="matrix(0.53 -0.848 0.848 0.53 54.7594 420.009)" width="0.89" height="8.42"/>
	</g>
	<g>
		<rect x="411.19" y="151.75" transform="matrix(0.9138 -0.4061 0.4061 0.9138 -27.9376 180.638)" width="0.89" height="8.79"/>
	</g>
	<g>
		<g>
			<g>
				<g>
					<path class="st1" d="M183.81,419.52l-65.7,2.33c-5.66,0-10.38-3.74-10.85-8.59L82,152.22c-0.53-5.46,4.48-10.15,10.85-10.15
						l65.7,2.33c5.66,0,10.38,3.74,10.85,8.59l25.26,256.37C195.18,414.83,190.17,419.52,183.81,419.52z"/>
				</g>
			</g>
			<g>
				<g>
					<path class="st4" d="M192.98,419.52l-65.7,2.33c-5.66,0-10.38-3.74-10.85-8.59L91.17,152.22c-0.53-5.46,4.48-10.15,10.85-10.15
						l65.7,2.33c5.66,0,10.38,3.74,10.85,8.59l25.26,256.37C204.35,414.83,199.35,419.52,192.98,419.52z"/>
				</g>
			</g>
			<g>
				<g>
					<path class="st5" d="M194.79,419.52l-65.7,2.33c-5.66,0-10.38-3.74-10.85-8.59L92.98,152.22c-0.53-5.46,4.48-10.15,10.85-10.15
						l65.7,2.33c5.66,0,10.38,3.74,10.85,8.59l25.26,256.37C206.16,414.83,201.15,419.52,194.79,419.52z"/>
				</g>
			</g>
			<g>
				<g>
					<path class="st1" d="M198.81,413.33c-1.05,0.99-2.48,1.52-4.03,1.52l-65.7,2.33c-2.82,0-5.21-1.9-5.45-4.32l-3.67-37.93
						L98.37,151.83c-0.13-1.33,0.37-2.6,1.42-3.57c1.05-0.99,2.48-1.52,4.03-1.52l65.7,2.33c2.82,0,5.21,1.9,5.45,4.32l12.5,126.91
						l12.76,129.46C200.36,411.09,199.86,412.36,198.81,413.33z"/>
				</g>
			</g>
			<g>
				<g class="st6">
					<polygon class="st1" points="186.19,265.43 116.41,338.25 112.45,297.24 184.63,251.45 					"/>
				</g>
			</g>
			<g>
				<g>
					<path class="st1" d="M198.81,413.33c-1.05,0.99-2.48,1.52-4.03,1.52l-65.7,2.33c-2.82,0-5.21-1.9-5.45-4.32l-3.67-37.93
						c15.72-22.38,48.94-68.75,67.51-94.64l12.76,129.46C200.36,411.09,199.86,412.36,198.81,413.33z"/>
				</g>
			</g>
			<g>
				<g>
					<path class="st5" d="M121.1,146.73l3.4,5.25c0.68,0.74,1.63,1.16,2.64,1.18l27.6,0.35c1.12,0.01,2.18-0.49,2.88-1.36l3.12-5.42
						H121.1z"/>
				</g>
			</g>
		</g>
		<g>
			<g>
				
					<ellipse transform="matrix(0.9968 -0.08 0.08 0.9968 -29.4031 12.1786)" class="st1" cx="137.32" cy="373.11" rx="7.87" ry="13.05"/>
			</g>
		</g>
		<g>
			<g>
				
					<ellipse transform="matrix(0.9968 -0.08 0.08 0.9968 -29.1798 13.9809)" class="st1" cx="159.92" cy="371.21" rx="7.87" ry="13.05"/>
			</g>
		</g>
		<g>
			<g>
				<path class="st1" d="M189.76,368.44c0.58,7.19-2.47,13.29-6.8,13.64c-4.33,0.35-8.31-5.2-8.89-12.38
					c-0.58-7.19,2.47-13.29,6.8-13.64C185.2,355.71,189.19,361.26,189.76,368.44z"/>
			</g>
		</g>
		<g>
			<g>
				<g>
					
						<ellipse transform="matrix(0.9969 -0.0787 0.0787 0.9969 -18.5598 12.348)" class="st7" cx="147.34" cy="241.59" rx="27.38" ry="45.41"/>
				</g>
			</g>
			<g>
				<g>
					<path class="st1" d="M132.12,249.11l13.13,15.13c1.98,2.28,5.67,1.66,6.79-1.15l14.3-35.79c0.39-0.98,0.38-2.08-0.03-3.06
						l-0.02-0.06c-1.4-3.33-6.13-3.28-7.46,0.07l-12.02,30.11l-8.51-10.45c-2.3-2.83-6.88-1.39-7.15,2.24l0,0
						C131.06,247.23,131.41,248.29,132.12,249.11z"/>
				</g>
			</g>
		</g>
		<g>
			<g>
				<path class="st7" d="M126.92,316.16c-1.02,0-1.88-0.8-1.94-1.84c-0.06-1.07,0.76-1.99,1.83-2.05l55.96-3.11
					c1.07-0.07,1.99,0.76,2.05,1.83c0.06,1.07-0.76,1.99-1.83,2.05l-55.96,3.11C126.99,316.16,126.95,316.16,126.92,316.16z"/>
			</g>
		</g>
		<g>
			<g>
				<path class="st7" d="M168.9,176.32c-0.02,0-0.04,0-0.06,0l-55.96-1.55c-1.07-0.03-1.92-0.92-1.89-2s0.93-1.91,2-1.89l55.96,1.55
					c1.07,0.03,1.92,0.92,1.89,2C170.81,175.49,169.95,176.32,168.9,176.32z"/>
			</g>
		</g>
		<g>
			<g>
				<path class="st7" d="M126.92,331.12c-1.01,0-1.87-0.78-1.94-1.81c-0.07-1.07,0.73-2,1.8-2.07l55.96-3.89
					c1.08-0.07,2,0.73,2.07,1.8c0.07,1.07-0.73,2-1.8,2.07l-55.96,3.89C127.01,331.12,126.96,331.12,126.92,331.12z"/>
			</g>
		</g>
	</g>
	<g>
		<g>
			<g>
				<g>
					<path class="st8" d="M230.75,196.7c0,0-3.66-12.59-3.87-14.63c-0.21-2.04-1.36-8.64,1.94-10.59c3.29-1.94,1.35-7.77,4.85-8.94
						c3.83-1.28,8.61-1.05,12.58-0.92c4.92,0.17,11.28,2.42,13.36,7.43c1.54,3.7-0.35,10.42-1.19,14.26L230.75,196.7z"/>
				</g>
				<g class="st9">
					<path class="st10" d="M230.12,182.07c-0.21-2.04-1.36-8.64,1.94-10.59c3.29-1.94,1.35-7.77,4.85-8.94
						c2.06-0.69,4.39-0.93,6.73-1c-3.34-0.08-6.95-0.01-9.97,1c-3.5,1.17-1.55,6.99-4.85,8.94c-3.29,1.94-2.15,8.55-1.94,10.59
						c0.21,2.04,3.87,14.63,3.87,14.63l2.85-1.38C232.64,192.01,230.29,183.7,230.12,182.07z"/>
				</g>
				<g id="POLYLINE_46_">
					<g>
						<path class="st11" d="M256.38,196.5c-0.39,1.77-1.12,2.84-2.05,3.51c-3.02,2.2-8.03,0.27-9.45,4.75
							c-0.3,0.98-0.92,2.32-1.22,3.64c-0.24,1.06-0.26,2.12,0.25,2.94c0.24,0.38,0.69,0.77,0.59,1.26c-0.1,0.48-0.69,0.77-1.11,0.92
							c-0.86,0.31-1.85,0.28-2.75,0.21c-3.91-0.3-11.53-2.1-12.59-6.74c-0.28-1.24,0.08-2.53,0.45-3.75
							c1.39-4.62,4.44-10.91,3.71-15.79c0,0.03-1.6-0.95-1.78-1.17c-0.52-0.66-0.76-1.49-0.72-2.32c0.08-1.76,1.64-3.57,3.2-4.3
							c2.82-1.32,3.92,2.42,4.84,4.42c0.32,0.7,0.71,1.59,1.61,1.23c1.03-0.41,1.88-1.23,1.83-2.36c-0.03-0.89-0.27-1.76,0.05-2.63
							c0.78-2.01,3.23-2.96,4.54-4.56c0.98-1.2,0.92-2.26,0.96-3.68c0.03-1.06,1.2-1.46,2.04-1.78c1.57-0.6,4.3-1.57,5.9-0.55
							c1.02,0.66,1.36,2.11,1.77,3.17c0.46,1.22,1.09,2.37,1.45,3.62C259.4,181.87,257.54,191.21,256.38,196.5z"/>
					</g>
				</g>
				<g id="POLYLINE_45_">
					<g class="st9">
						<path class="st10" d="M234.72,190.32c0.31-4.08,0.65-7.32,0.72-8.19c0.1-1.07,0.15-2.27-0.57-3.08
							c-1.85-2.06-5.1,3.47-5.16,4.9c-0.04,0.83,0.2,1.66,0.72,2.32c0.17,0.22,1.78,1.2,1.78,1.17c0.74,4.88-2.32,11.17-3.71,15.79
							c-0.37,1.22-0.73,2.51-0.45,3.75c0.74,3.22,4.62,5.07,8.23,6C233.53,212.28,234.05,199.28,234.72,190.32z"/>
					</g>
					<g>
						<path class="st11" d="M257.92,176.53c-0.36-1.25-0.99-2.4-1.45-3.62c-0.41-1.06-0.75-2.51-1.77-3.17
							c-1.51-0.96-4-0.16-5.6,0.43c0.21,6.93,1.16,13.85-3.78,18.8c-1.55,2.33-6.99-0.78-7.77,1.55c-2.72,7-3.3,15.17-1.26,22.46
							c1.6,0.41,3.15,0.65,4.35,0.74c0.9,0.07,1.89,0.1,2.75-0.21c0.42-0.16,1.01-0.44,1.11-0.92c0.1-0.49-0.35-0.88-0.59-1.26
							c-0.51-0.82-0.49-1.88-0.25-2.94c0.29-1.32,0.91-2.66,1.22-3.64c1.42-4.48,6.43-2.55,9.45-4.75c0.93-0.67,1.67-1.74,2.05-3.51
							C257.54,191.21,259.4,181.87,257.92,176.53z"/>
					</g>
				</g>
				<g>
					<path class="st12" d="M253.24,200.23c0.07,0,0.13,0,0.2,0c-1.49,1.02-3.3,0.97-5.01,1.43c-1.71,0.45-3,1.36-3.55,3.1
						c-0.38,1.2-0.84,2.49-1.26,3.62c-1.02-0.87-1.1-2.61-1.35-3.83c-0.23-1.14-0.36-2.31-0.38-3.47c-0.07-3.39,2.85-2.03,5.04-1.66
						C248.99,199.77,251.14,200.18,253.24,200.23z"/>
				</g>
			</g>
			<g id="POLYLINE_44_">
				<g>
					<path class="st13" d="M247.11,211.69c-0.85,1.32-2.69,2.46-4.28,1.98c-0.7-0.22-1.32-0.68-1.91-1.08
						c-1.07-0.72-2.15-1.44-3.26-2.1c-2.05-1.24-4.2-2.45-6.48-3.2c-0.99-0.33-2.02-0.47-3.04-0.71c-0.72-0.17-1.27-0.43-1.25-1.26
						c0.02-0.92,0.36-1.9,0.59-2.78c0.17-0.66,0.38-1.42,0.95-1.84c1.11-0.82,2.95,0.12,3.99,0.6c2.36,1.12,4.52,2.62,6.75,3.96
						c1.9,1.15,3.82,1.9,5.91,2.59c1.18,0.4,2.61,0.94,2.52,2.44C247.57,210.78,247.38,211.26,247.11,211.69z"/>
				</g>
			</g>
			<g>
				<defs>
					<path id="SVGID_1_" d="M228.25,411.55c-1.05,0.99-2.48,1.52-4.03,1.52l-65.7,2.33c-2.82,0-5.21-1.9-5.45-4.32l-3.67-37.93
						c15.72-22.38,48.94-68.75,67.51-94.64l12.76,129.46C229.81,409.3,229.3,410.57,228.25,411.55z"/>
				</defs>
				<clipPath id="SVGID_2_">
					<use xlink:href="#SVGID_1_"  style="overflow:visible;"/>
				</clipPath>
				<g id="POLYLINE_43_" class="st14">
					<g>
						<path class="st15" d="M204.95,410.31c-2.88-1.9-2.6-5.84-3.85-8.64c-1.53-3.42-4.61-6.62-7.82-8.48
							c-3.67-2.13-9.36-3.12-13.14-0.62c-3.01,2-6.72,7.34-3.36,10.49c6.96,6.59,16.98,12.92,26.17,15.74
							c1.98,0.61,5.81,2.58,7.22,0.11c0.87-1.52,1.6-3.88,0.54-5.61C209.48,411.28,206.79,411.52,204.95,410.31z"/>
					</g>
				</g>
				<g class="st16">
					<path class="st10" d="M181.76,405.06c-3.36-3.15,0.35-8.49,3.36-10.49c2.41-1.6,5.6-1.77,8.55-1.13
						c-0.13-0.08-0.26-0.17-0.39-0.25c-3.67-2.13-9.36-3.12-13.14-0.62c-3.01,2-6.72,7.34-3.36,10.49
						c6.59,6.24,15.93,12.24,24.7,15.26C194.28,415.04,187.11,410.13,181.76,405.06z"/>
				</g>
			</g>
			<g id="POLYLINE_42_">
				<g>
					<path class="st17" d="M244.65,338.31c-1.12,4.66-1.09,9.5-4.59,13.31c-0.85,0.94-1.86,1.73-2.88,2.49
						c-0.72,0.54-1.46,1.05-2.17,1.59c-1.67,1.26-3.29,2.61-4.81,4.06c-2.95,2.79-5.48,5.95-7.9,9.21
						c-2.82,3.82-5.53,7.81-8.77,11.31c-1.5,1.62-3.18,3.05-4.87,4.46c-1.08,0.92-2.25,1.84-3.02,3.04
						c-0.62,0.96-0.85,2.11-1.44,3.09c-0.73,1.21-2.15,1.73-3.02,2.81c-0.83,1-1.27,2.28-1.07,3.57c0.19,1.18,1.03,2.67-0.28,3.48
						c-1.19,0.72-2.78,0.82-4.1,1.12c-2.26,0.51-4.23,1.01-6.4-0.05c-2.5-1.23-3.89-3.28-5.39-5.53c-0.61-0.93-1.42-1.47-2.27-2.18
						c-0.85-0.72-1.2-1.66-1.25-2.74c-0.09-1.73,0.52-3.4,1.56-4.76c1.26-1.66,2.98-2.98,4.54-4.35c1.62-1.42,3.24-2.88,4.79-4.39
						c3.16-3.11,5.95-6.49,8.47-10.14c2.57-3.72,4.91-7.61,7.5-11.32c2.49-3.57,5.28-6.78,8.6-9.62c3.01-2.57,6.77-5,8.6-8.64
						c0.81-1.59,1.2-3.4,1.78-5.08c2.14-6.26,0.44-13.39-0.09-19.93c-0.44-5.42-0.69-11.46,2.77-15.67c1.24,0.3,2.49,0.6,3.74,0.9
						c1.12-0.23,2.33-0.12,3.43,0.25c0.78,0.26,1.49,0.65,2.17,1.1c1.31,0.32,2.6,0.63,3.91,0.95l-0.9,1.72
						c3.27,3.51,5.67,7.86,6.95,12.5c0.48,1.71,0.81,3.46,0.96,5.21C249.82,326.73,246.18,331.92,244.65,338.31z"/>
				</g>
			</g>
			<g class="st9">
				<path class="st10" d="M188.63,400.93c-0.61-0.93-1.42-1.47-2.27-2.18c-0.85-0.71-1.2-1.66-1.25-2.74
					c-0.09-1.73,0.52-3.4,1.56-4.76c1.26-1.66,2.98-2.98,4.54-4.35c1.62-1.42,3.24-2.88,4.79-4.39c3.16-3.11,5.95-6.49,8.47-10.14
					c2.57-3.72,4.91-7.61,7.5-11.32c2.49-3.57,5.28-6.78,8.6-9.62c3.01-2.57,6.77-5,8.6-8.64c0.81-1.59,1.2-3.4,1.78-5.08
					c2.14-6.26,0.44-13.39-0.09-19.93c-0.44-5.42-0.69-11.46,2.77-15.67c1.24,0.3,2.49,0.6,3.74,0.9c1.12-0.23,2.33-0.12,3.43,0.25
					c0.78,0.26,1.49,0.65,2.17,1.1c0.01,0,0.02,0.01,0.03,0.01c-0.54-0.69-1.09-1.37-1.69-2.01l0.9-1.72
					c-1.31-0.32-2.6-0.63-3.91-0.95c-0.68-0.46-1.39-0.84-2.17-1.1c-1.1-0.37-2.31-0.48-3.43-0.25c-1.24-0.3-2.49-0.6-3.74-0.9
					c-3.47,4.2-3.21,10.24-2.77,15.67c0.52,6.54,2.23,13.67,0.09,19.93c-0.58,1.69-0.97,3.49-1.78,5.08
					c-1.83,3.64-5.59,6.07-8.6,8.64c-3.32,2.84-6.11,6.05-8.6,9.62c-2.59,3.71-4.93,7.6-7.5,11.32c-2.52,3.65-5.32,7.03-8.47,10.14
					c-1.55,1.52-3.16,2.97-4.79,4.39c-1.56,1.38-3.28,2.69-4.54,4.35c-1.04,1.36-1.65,3.03-1.56,4.76c0.05,1.08,0.4,2.03,1.25,2.74
					c0.85,0.71,1.66,1.25,2.27,2.18c1.46,2.17,2.81,4.15,5.16,5.39C188.95,401.42,188.79,401.17,188.63,400.93z"/>
			</g>
			<g>
				<path class="st18" d="M244.65,338.31c-1.12,4.66-1.09,9.5-4.59,13.31c-0.85,0.94-1.86,1.73-2.88,2.49
					c-1.02-7,2.07-11.46,2.01-18.32c-0.06-6.97-6.15-10.14-6.94-16.15c-0.26-1.94-0.49-3.87-0.72-5.81
					c-0.57-4.84-1.31-10.62,4.93-8.39c0.88,0.31,1.75,0.72,2.6,1.2c3.48,1.93,6.71,5.06,9.19,8.21c0.48,1.71,0.81,3.46,0.96,5.21
					C249.82,326.73,246.18,331.92,244.65,338.31z"/>
			</g>
			<g id="POLYLINE_41_">
				<g>
					<path class="st19" d="M228.36,299.01c0.21,2.18,0.66,4.34,1.7,6.29c0.85,1.59,2.06,2.95,3.32,4.22c1.74,1.72,3.67,3.24,5.38,5
						c1.64,1.69,2.9,3.66,4.05,5.7c2.62,4.63,5.05,9.4,8.11,13.77c1.37,1.95,3.13,3.57,4.52,5.51c0.79,1.11,0.93,2.46,1.6,3.62
						c0.8,1.37,2.05,2.33,2.47,3.93c0.29,1.11,0.27,2.28-0.09,3.38c-0.32,0.98-0.82,1.9-1.16,2.89c-0.38,1.06-0.65,2.15-0.86,3.25
						c-0.38,2-0.6,4.03-0.8,6.06c-0.63,6.05-1.27,12.1-1.88,18.15c-0.26,2.57-0.49,5.15-0.6,7.74c-0.09,1.94-0.22,4.01,0.22,5.91
						c0.33,1.5,1.13,2.54,0.57,4.11c-0.47,1.31-1.44,2.32-2.04,3.56c-0.79,1.63-0.93,3.56-1.16,5.33c-0.14,1.11-0.55,2.86,0.11,3.93
						c0.7,1.13,2.58,0.78,3.66,0.6c2.33-0.36,4.67-0.89,6.89-1.7c1.98-0.71,3.85-1.7,5.61-2.83c1.62-1.04,3.66-2.27,4.63-3.99
						c0.79-1.42,0.66-3.21,0.72-4.77c0.08-2.2,0.81-4.22,1.13-6.39c0.72-4.88-0.09-9.88,0.58-14.79c0.35-2.57,1.04-5.07,1.47-7.63
						c0.42-2.42,0.33-4.83,0.39-7.28c0.04-1.8,0.27-3.5,0.92-5.18c0.68-1.75,1.75-3.41,1.95-5.32c0.22-2.17-0.16-4.48-0.41-6.63
						c-0.28-2.41-0.62-4.87-1.38-7.18c-0.79-2.39-2.18-4.52-3.11-6.86c-1.06-2.66-1.87-5.42-2.76-8.15
						c-1.64-5.02-3.71-9.87-5.63-14.79c-0.92-2.36-1.72-4.77-2.69-7.11c-0.53-1.29-1.11-2.46-2.13-3.43
						c-0.88-0.83-1.43-1.64-1.89-2.76"/>
				</g>
			</g>
			<g class="st9">
				<path class="st10" d="M260.11,407.41c0.23-1.77,0.37-3.69,1.16-5.33c0.6-1.24,1.57-2.25,2.04-3.56
					c0.56-1.57-0.23-2.61-0.57-4.11c-0.43-1.9-0.31-3.97-0.22-5.91c0.12-2.59,0.34-5.17,0.6-7.74c0.6-6.06,1.25-12.1,1.88-18.15
					c0.21-2.02,0.42-4.05,0.8-6.06c0.21-1.1,0.48-2.19,0.86-3.25c0.34-0.98,0.84-1.9,1.16-2.89c0.36-1.09,0.38-2.27,0.09-3.38
					c-0.42-1.6-1.67-2.55-2.47-3.93c-0.67-1.16-0.8-2.51-1.6-3.62c-1.39-1.93-3.15-3.56-4.52-5.51c-3.06-4.37-5.49-9.13-8.11-13.77
					c-1.16-2.04-2.41-4.02-4.05-5.7c-1.71-1.76-3.64-3.28-5.38-5c-1.26-1.26-2.47-2.63-3.32-4.22c-1.04-1.95-1.49-4.11-1.7-6.29
					l23.47-2.87c-0.17-0.3-0.33-0.62-0.48-0.97l-31.4,3.85c0.21,2.18,0.66,4.34,1.7,6.29c0.85,1.59,2.06,2.95,3.32,4.22
					c1.74,1.72,3.67,3.24,5.38,5c1.64,1.69,2.9,3.66,4.05,5.7c2.62,4.63,5.05,9.4,8.11,13.77c1.37,1.95,3.13,3.57,4.52,5.51
					c0.79,1.11,0.93,2.46,1.6,3.62c0.8,1.37,2.05,2.33,2.47,3.93c0.29,1.11,0.27,2.28-0.09,3.38c-0.32,0.98-0.82,1.9-1.16,2.89
					c-0.38,1.06-0.65,2.15-0.86,3.25c-0.38,2-0.6,4.03-0.8,6.06c-0.63,6.05-1.27,12.1-1.88,18.15c-0.26,2.57-0.49,5.15-0.6,7.74
					c-0.09,1.94-0.22,4.01,0.22,5.91c0.33,1.5,1.13,2.54,0.57,4.11c-0.47,1.31-1.44,2.32-2.04,3.56c-0.79,1.63-0.93,3.56-1.16,5.33
					c-0.14,1.11-0.55,2.86,0.11,3.93c0.7,1.13,2.58,0.78,3.66,0.6c1.53-0.24,3.07-0.56,4.58-0.98
					C259.64,409.89,259.98,408.4,260.11,407.41z"/>
			</g>
			<g id="POLYLINE_40_">
				<g>
					<path class="st13" d="M226.88,205.5c-0.86,0.87-1.7,1.74-2.5,2.65c-3.4,3.89-5.65,8.45-6.53,13.56
						c-0.88,5.06-0.23,10.11,0.76,15.11c1.06,5.37,2.24,10.72,3.27,16.1c0.97,5.06,1.67,10.16,2.18,15.3
						c0.53,5.28-0.58,10.02-0.55,15.29c0.02,3.65-1.56,7.04-1.32,10.66c0.17,2.55,0.51,6.35,2.96,7.72
						c1.31,0.74,2.84,0.93,4.33,1.11c8.04,0.98,12.33,2.17,20.09-0.59c3.65-1.28,7.86-1.5,11.3-3.32c1.28-0.68,2.07-1.02,2.42-2.48
						c0.14-0.6-0.19-3.54-1.16-3.51c1.46-0.03,2.26-1.92,1.79-3.3c-0.69-2.02-2.24-2.69-2.8-4.81c-0.71-2.71-0.6-5.87-0.86-8.65
						c0,0-1.25-13.28-1.25-13.28c-0.89-6.95-1.74-13.92-2.78-20.85c-1.06-7.04-1.9-14.27-4.01-21.09c-1.09-3.55-2.82-6.54-5.14-9.42
						L226.88,205.5z"/>
				</g>
			</g>
			<g class="st9">
				<path class="st10" d="M236.4,303c-1.49-0.18-3.03-0.38-4.33-1.11c-2.45-1.37-2.79-5.17-2.96-7.72c-0.24-3.62,1.34-7,1.32-10.66
					c-0.03-5.27,1.07-10.01,0.55-15.29c-0.51-5.14-1.22-10.24-2.18-15.3c-1.03-5.38-2.21-10.73-3.27-16.1
					c-0.98-5-1.63-10.05-0.76-15.11c0.88-5.11,3.12-9.67,6.53-13.56c0.3-0.35,0.62-0.68,0.93-1.02l-5.34-1.64
					c-0.86,0.87-1.7,1.74-2.5,2.65c-3.4,3.89-5.65,8.45-6.53,13.56c-0.88,5.06-0.23,10.11,0.76,15.11
					c1.06,5.37,2.24,10.72,3.27,16.1c0.97,5.06,1.67,10.16,2.18,15.3c0.53,5.28-0.58,10.02-0.55,15.29
					c0.02,3.65-1.56,7.04-1.32,10.66c0.17,2.55,0.51,6.35,2.96,7.72c1.31,0.74,2.84,0.93,4.33,1.11c5.72,0.7,9.55,1.5,14.07,0.91
					C241.42,303.69,239.13,303.34,236.4,303z"/>
			</g>
			<g>
				<path class="st20" d="M225.78,259.14c0.88,4.12,1.89,8.49,4.86,11.49c2.21,2.23,5.23,3.42,8.16,4.55
					c6.75,2.6,13.49,5.2,20.24,7.8c-0.2-4.38-0.4-8.76-0.59-13.14c-8.32-3.13-15.96-8.05-22.32-14.26
					c-3.2-3.13-6.09-6.58-8.57-10.31c-1.27-1.89-4.36-8.77-4.97-2.95C222.02,247.51,224.7,254.06,225.78,259.14z"/>
			</g>
			<g>
				<path class="st20" d="M245.69,237.9c1.11,7.72-1.12,15.75,0.78,23.32c-0.32-1.26-2.76-3.23-3.56-4.38
					c-1.11-1.59-2.1-3.27-2.97-5.01c-1.76-3.54-3.01-7.34-3.71-11.24c-0.7-3.89-0.84-7.89-0.4-11.82c0.26-2.32,1.41-9.85,4.49-5.43
					C243.11,227.36,245,233.09,245.69,237.9z"/>
			</g>
			<g id="POLYLINE_39_">
				<g>
					<path class="st15" d="M252.67,411.98c-0.58,2.25-0.68,5.07-0.03,7.32c0.63,2.18,2.91,2.16,4.79,2.24
						c6.81,0.31,13.65,0.16,20.46,0.12c3.71-0.03,7.43,0.02,11.14-0.18c1.69-0.09,4.7,0.07,5.8-1.61c0.93-1.43,0.46-3.81-0.04-5.28
						c-0.34-1.02-0.87-1.66-1.93-1.93c-1.41-0.36-2.93-0.37-4.37-0.52c-2.43-0.26-4.74-0.79-6.77-2.2
						c-2.39-1.67-4.22-3.94-6.83-5.32c-0.76-0.4-1.53-0.77-2.29-1.15"/>
				</g>
			</g>
			<g>
				<g id="POLYLINE_38_">
					<g>
						<path class="st21" d="M314.63,234.5c0.04,0.18-0.02,0.42,0.01,0.7c0.03,0.53,0.06,1.06,0.1,1.59l1.01,16.78
							c0.19,3.28,0.39,6.56,0.58,9.83c0.32,5.26,0.62,10.52,0.94,15.79c0.07,1.2,0.14,2.42,0.21,3.62
							c-7.81,0.46-15.62,0.93-23.43,1.39c-1.08,0.07-2.17,0.13-3.26,0.19l-13.71,0.82c-5.42,0.32-10.84,0.65-16.26,0.97l-0.49,0.03
							c-0.8,0.05-1.6,0.1-2.4,0.14c-0.32-5.47-0.65-10.94-0.97-16.41c-0.52-8.72-1.04-17.43-1.56-26.15
							c-0.12-2.01-0.24-4.01-0.36-6.01c0.05,0.1,1.59-0.1,1.72-0.1c1.57-0.1,3.15-0.19,4.72-0.28c5.06-0.3,10.12-0.6,15.17-0.9
							c6-0.36,11.99-0.71,17.99-1.07c4.87-0.29,9.73-0.58,14.6-0.87c1.39-0.09,2.79-0.16,4.18-0.25c0.26-0.01,0.73-0.14,0.98-0.06
							C314.55,234.29,314.61,234.38,314.63,234.5z"/>
					</g>
				</g>
				<g>
					<g>
						
							<rect x="256.75" y="236.08" transform="matrix(0.9988 -0.0497 0.0497 0.9988 -12.5703 14.5784)" class="st21" width="60.12" height="47.85"/>
					</g>
					<g>
						
							<rect x="282.09" y="236.1" transform="matrix(0.9988 -0.0497 0.0497 0.9988 -12.1154 14.5424)" class="st22" width="8.52" height="29.57"/>
					</g>
				</g>
				<g>
					<path class="st23" d="M315.52,234.78c0.04,0.18-0.02,0.42,0.01,0.7c0.03,0.53,0.06,1.06,0.1,1.59l1.01,16.78
						c0.19,3.28,0.39,6.56,0.58,9.83c0.32,5.26,0.62,10.52,0.94,15.79c0.07,1.2,0.14,2.42,0.21,3.62
						c-7.81,0.46-15.62,0.93-23.43,1.39c-1.08,0.07-2.17,0.13-3.26,0.19l-13.71,0.82c-5.42,0.32-10.84,0.65-16.26,0.97l-3.77-0.11
						l52.86-8.43l3.51-43.34L315.52,234.78z"/>
				</g>
				<g>
					
						<rect x="304.88" y="269.44" transform="matrix(0.9988 -0.0497 0.0497 0.9988 -13.2397 15.7231)" class="st24" width="9.14" height="9.14"/>
				</g>
				<g>
					
						<rect x="292.69" y="271.9" transform="matrix(0.9988 -0.0497 0.0497 0.9988 -13.1827 15.1126)" class="st24" width="9.14" height="1.42"/>
				</g>
				<g>
					
						<rect x="292.86" y="275.22" transform="matrix(0.9988 -0.0497 0.0497 0.9988 -13.3498 15.128)" class="st24" width="9.14" height="1.42"/>
				</g>
			</g>
			<g id="POLYLINE_37_">
				<g>
					<path class="st11" d="M286.67,272.9c-1.29,0.03-2.56,0.43-3.88,0.46c-3.01,0.07-5.66-1.59-8.27-2.86
						c-8.93-4.33-18.4-8.42-26.72-13.89c-2.08-1.37-8.74-16.49-7.61-16.7c-5.01,0.93-10.02,1.85-15.03,2.78
						c2.08,7.01,2.81,20.25,10.73,23.54c6.21,2.59,12.35,5.51,18.65,7.85c6.67,2.48,13.81,3.38,20.5,5.79
						c5.24,1.89,9.26,7.41,15.08,7.47c1.14,0.01,2.28-0.15,3.41-0.31c1.19-0.17,2.39-0.34,3.58-0.51c0.62-0.09,1.26-0.18,1.8-0.5
						c0.54-0.31,0.97-0.91,0.9-1.53c-0.58,0.09-2.21-1.71-2.99-1.98c-1.72-0.59-3.17-1.17-3.81-2.91c0.88,2.65,4.5,1.78,6.33,0.97
						c-2.96-2.51-7.42-6.49-11.21-7.53C287.63,272.94,287.15,272.89,286.67,272.9z"/>
				</g>
			</g>
			<g class="st9">
				<g>
					<path class="st10" d="M297.75,280.15c0.17,0.32,0.38,0.59,0.61,0.82c0.04-0.01,0.09-0.03,0.13-0.04
						C298.2,280.74,297.95,280.48,297.75,280.15z"/>
				</g>
				<g>
					<path class="st10" d="M287.3,273.36c0.44-0.01,0.88-0.07,1.32-0.13c-0.17-0.06-0.33-0.11-0.5-0.16
						c-0.49-0.13-0.97-0.18-1.45-0.17c-0.56,0.01-1.12,0.1-1.68,0.19C285.74,273.28,286.51,273.38,287.3,273.36z"/>
				</g>
				<g>
					<path class="st10" d="M279.55,279.89c-6.69-2.41-13.83-3.31-20.5-5.79c-6.3-2.35-12.44-5.27-18.65-7.85
						c-7.91-3.3-8.65-16.54-10.73-23.54c3.49-0.65,6.98-1.29,10.47-1.94c-0.1-0.51-0.1-0.82,0.05-0.84
						c-5.01,0.93-10.02,1.85-15.03,2.78c2.08,7.01,2.81,20.25,10.73,23.54c6.21,2.59,12.35,5.51,18.65,7.85
						c6.67,2.48,13.81,3.38,20.5,5.79c5.24,1.89,9.26,7.41,15.08,7.47c0.9,0.01,1.8-0.09,2.69-0.21
						C287.94,286.14,284.22,281.57,279.55,279.89z"/>
				</g>
			</g>
			<g id="POLYLINE_36_">
				<g>
					<path class="st13" d="M241.79,223.14c0.14,0.63,0.26,1.25,0.39,1.89c0.88,4.51-0.05,9.09-0.02,13.63
						c0.01,1.24,0.14,2.46,0.25,3.69c0.05,0.59,0.14,1.21,0.05,1.8c-0.23,1.52-2.08,1.03-3.14,0.85c-4.02-0.68-8.15-0.6-11.91,1.16
						c-0.77,0.36-1.57,0.96-2.42,1.12c-0.75,0.15-0.97-0.41-1.13-1.05c-0.46-1.97-0.63-3.98-1.16-5.95
						c-0.66-2.46-1.46-4.88-2.14-7.34c-0.61-2.23-0.89-4.46-1.12-6.75c-0.56-5.64-0.7-12.69,6.15-14.61
						C231.36,209.96,240.6,217.57,241.79,223.14z"/>
				</g>
			</g>
			<g class="st9">
				<g>
					<path class="st10" d="M227.16,246.23c-0.46-1.97-0.63-3.98-1.16-5.95c-0.66-2.46-1.46-4.88-2.14-7.34
						c-0.61-2.23-0.89-4.46-1.12-6.75c-0.56-5.64-0.7-12.69,6.15-14.61c0.04-0.01,0.09-0.02,0.14-0.03
						c-1.21-0.25-2.38-0.26-3.43,0.03c-6.84,1.92-6.7,8.97-6.15,14.61c0.23,2.3,0.51,4.52,1.12,6.75c0.68,2.46,1.48,4.87,2.14,7.34
						c0.53,1.97,0.7,3.98,1.16,5.95c0.15,0.64,0.38,1.2,1.13,1.05c0.76-0.15,1.48-0.63,2.18-0.99
						C227.17,246.27,227.17,246.25,227.16,246.23z"/>
				</g>
			</g>
		</g>
		<g>
			<path class="st13" d="M227.34,178.95c2.13-0.89,7.39-1.93,8.07-1.81c1.52,0.28,3.04,0.89,4.56,0.62c1.35-0.24,2.61-1.28,3.89-1.8
				c2.03-0.83,4.11-1.11,6.27-1.45c2.92-0.46,5.53-0.61,8.37,0.5c0.42,0.16,0.86,0.35,1.29,0.23c1.41-0.38,0.99-4.2,0.68-5.17
				c-0.65-2.04-2.56-4.22-3.98-5.78c-3.06-3.37-7.17-5.82-11.83-5.82c-4.74,0-10.02,1.3-13.58,4.78c-3.72,3.63-6.8,11.39-4.62,16.4
				C226.37,179.45,226.73,179.21,227.34,178.95z"/>
		</g>
		<g>
			<g>
				<path class="st20" d="M241.45,177.14c-0.35-0.06-1.88,0.18-3.58,0.54c0.71,0.13,1.41,0.2,2.12,0.07
					c0.54-0.1,1.07-0.33,1.59-0.59C241.53,177.16,241.49,177.15,241.45,177.14z"/>
			</g>
			<g class="st9">
				<path class="st10" d="M237.11,163.25c2.7-2.64,6.39-4.02,10.08-4.54c-0.82-0.16-1.67-0.24-2.53-0.24
					c-4.74,0-10.02,1.3-13.58,4.78c-3.72,3.63-6.8,11.39-4.62,16.4c-0.09-0.2,0.27-0.44,0.88-0.7c1.06-0.44,2.91-0.93,4.57-1.28
					C231.09,172.78,233.85,166.43,237.11,163.25z"/>
			</g>
			<g>
				<path class="st20" d="M256.6,174.44c0.62,0.13,1.25,0.31,1.9,0.56c0.42,0.16,0.86,0.35,1.29,0.23c0.41-0.11,0.66-0.52,0.81-1.05
					C259.29,174.12,257.98,174.24,256.6,174.44z"/>
			</g>
		</g>
		<g>
			<path class="st2" d="M249.26,162.09c2.86-0.63,5.79,1.35,7.21,3.92c1.42,2.57,1.67,5.6,1.89,8.52
				c-0.05-0.68-13.32,1.15-14.19,1.22C242.47,171.46,243.91,163.27,249.26,162.09z"/>
		</g>
		<g>
			<path class="st13" d="M240.96,177.83c-0.31-0.01-0.62-0.04-0.92-0.09c-0.94-0.16-1.87-0.88-1.93-1.84
				c-0.2-3.19,8.63-4.54,10.66-4.79c5.02-0.63,10.02-0.02,14.9,1.22c1.07,0.27,2.2,0.66,2.82,1.57c2.31,3.36-4.03,2.85-5.51,2.81
				c-4.23-0.14-8.46-0.15-12.69,0.09C246.05,176.92,243.3,177.89,240.96,177.83z"/>
		</g>
		<g>
			<path class="st20" d="M260.99,174.9c-4.23-0.14-8.46-0.15-12.69,0.09c-3.77,0.22-7.43,1.55-11.02,2.6
				c3.8,0.02,7.29-0.63,11.02-0.8c4.23-0.24,8.46-0.22,12.69-0.09c1.44,0.05,7.5,0.53,5.67-2.55
				C265.55,175.2,262.04,174.94,260.99,174.9z"/>
		</g>
		<g>
			<path class="st20" d="M230.69,298.79c8.35,2.5,17.49,2.27,25.7-0.65c2.79-1.03,4.09-2.59,6.1-4.77
				c-4.04,1.29-8.28,2.79-12.44,3.61C244.8,298,235.94,300.36,230.69,298.79z"/>
		</g>
		<g>
			<path class="st12" d="M297.39,285.31c-1.69-0.58-3.44-1.15-5.19-1.54c-0.44-0.1-0.79,0.58-0.33,0.78
				c1.69,0.71,3.48,1.28,5.24,1.8C297.77,286.54,298.03,285.53,297.39,285.31z"/>
		</g>
		<g>
			<path class="st12" d="M293.45,286.91c-1.58-0.67-3.36-1.04-5.03-1.42c-0.39-0.09-0.52,0.45-0.16,0.58
				c1.57,0.59,3.23,1.27,4.88,1.57C293.55,287.72,293.9,287.1,293.45,286.91z"/>
		</g>
	</g>
	<g>
		<g class="st25">
			<path class="st3" d="M423.02,240.81c-1.38,2.84-2.77,5.74-3.19,8.87c-0.42,3.13,0.31,6.58,2.63,8.72
				c3.83,3.53,10.41,1.95,13.91-1.91c3.5-3.86,4.71-9.21,5.79-14.3c1.7-8,3.4-15.99,5.1-23.99c0.92-4.32,5.03-12.65-1.72-12.54
				c-5.56,0.09-8.85,6.94-10.81,10.96C430.82,224.68,426.93,232.75,423.02,240.81z"/>
		</g>
		<g id="POLYLINE_35_">
			<g>
				<path class="st26" d="M424.86,244.41c-0.99-0.45-1.98-0.91-2.94-1.41c-4.6-2.35-8.79-5.38-13.3-7.87
					c-2.89-1.51-5.73-3.12-8.6-4.67c-2.14-1.15-4.73-3.53-7.1-4.01c-0.5,1.82,0.33,3.62,1.39,5.05c-4.26,0.58-8.52,1.4-12.86,1.86
					c-0.65,1.79,0.04,3.88,1.4,5.21s3.26,1.98,5.16,2.15c4.93,0.45,10.13-1.8,14.95-0.1c3.22,1.14,5.84,4.71,8.33,7.02
					c3.59,3.34,7.18,6.61,10.99,9.69c2.73-0.76,3.86-2.39,4.47-5.16C427.34,249.4,427.44,245.59,424.86,244.41z"/>
			</g>
		</g>
		<g id="POLYLINE_34_">
			<g>
				<path class="st3" d="M466.07,397.86c1.56,3.12,7.15,14.1,3.37,16.9c-0.53,0.4-1.17,0.63-1.8,0.85c-1.39,0.5-2.78,1-4.16,1.5
					c-8.4,3.04-15.84,4.2-24.71,4.91c-0.85,0.07-1.8,0.11-2.46-0.43c-3.04-2.45,3.11-3.07,4.08-3.55c2.73-1.33,5.37-4.64,7.39-6.86
					c2.67-2.94,5.12-5.77,7-9.28c1.2-2.24,0.42-2.17,2.42-3.56c0.53-0.37,7.92-2.33,7.95-2.26
					C465.45,396.65,465.76,397.25,466.07,397.86z"/>
			</g>
		</g>
		<g id="POLYLINE_33_">
			<g class="st27">
				<path class="st1" d="M431.51,296.99c0.02-0.81,0.03-1.63,0.05-2.45l26.45-23.16c0.62,0.96,1.19,1.95,1.72,2.95
					c2.18,4.17,3.37,8.75,3.51,13.45c0.13,4.27-0.6,8.49-1.67,12.61c-1.22,4.74-2.57,9.44-3.57,14.23
					c-1.07,5.2-1.97,10.51-3.51,15.6c-1.22,4.03-3,7.83-2.79,12.13c0.08,1.8,0.26,3.71,0.91,5.41c0.65,1.71,1.82,3.15,2.91,4.59
					c2.65,3.51,5.13,7.05,6.93,11.08c1.89,4.2,2.7,8.54,3.07,13.1c0.4,4.85,0.54,9.84,1.66,14.6c0.39,1.62,1.2,3.08,1.62,4.69
					c0.35,1.31,0.29,2.71,0.12,4.05l-11.49,2.68c-0.51-1.21-0.92-2.48-1.12-3.78c-0.25-1.6-0.14-3.24-0.35-4.85
					c-0.49-3.67-1.88-6.97-3.57-10.23c-1.98-3.82-3.95-7.64-5.67-11.59c-1.58-3.6-2.92-7.37-4.96-10.74
					c-1.96-3.23-4.8-5.66-7.24-8.49c-1.47-1.71-2.54-3.54-2.78-5.81c-0.21-1.9,0.02-3.82,0.1-5.72c0.08-1.62,0.05-3.24,0-4.86
					c-0.15-4.65-0.32-9.31-0.39-13.96c-0.16-8.88,1.21-18.79-0.21-27.44c-1.36-8.24-2.87-15.3,3.67-22.17
					c5.99-6.29,16.28-7.94,23.94-3.85c0.57,1.49-0.04,3.33-1.38,4.19"/>
			</g>
		</g>
		<g id="POLYLINE_32_">
			<g>
				<path class="st3" d="M452.89,403.6c0.84,3.39,3.89,15.32-0.41,17.23c-0.61,0.27-1.28,0.36-1.94,0.44
					c-1.46,0.18-2.93,0.37-4.39,0.55c-7.88,0.98-15.51,1.24-23.43,1.32c-3.67,0.04-8.7-1.88-2.56-4.13
					c4.2-1.54,8.31-3.84,11.97-6.41c3.25-2.29,6.25-4.51,8.87-7.52c1.66-1.92,0.88-2.02,3.14-2.94c0.6-0.24,8.24-0.54,8.26-0.47
					C452.55,402.29,452.72,402.94,452.89,403.6z"/>
			</g>
		</g>
		<g id="POLYLINE_31_">
			<g>
				<path class="st1" d="M447.59,271.84c5.2-3.47,15.5-5.19,20.83-0.81c5.51,4.54,1.92,11.54,0.53,18.44
					c-3.72,18.59-12.61,32.92-18.98,50.09c-3.38,9.1,2.22,16,4.13,24.54c2.62,11.76-0.87,23.41-0.45,35.11
					c0.05,1.35-0.31,2.71-0.78,3.98l-11.8,0.09c-0.24-1.3-0.35-2.62-0.27-3.94c0.11-1.62,0.58-3.19,0.73-4.81
					c0.33-3.69-0.3-7.21-1.24-10.77c-1.91-7.27-3.52-15.86-6-23.43c-2.73-8.31-5.52-12.78-4.58-21.71
					c1.49-14.09,6.59-27.35,8.82-41.26C440.03,287.99,438.58,277.85,447.59,271.84z"/>
			</g>
		</g>
		<g>
			<path class="st28" d="M434.95,283.19c3.63,4.12,8.46,7.24,13.8,8.48c5.34,1.24,11.19,0.51,15.88-2.34
				c1.75-1.06,3.38-2.48,4.15-4.37c0.77-1.89,0.47-4.33-1.13-5.61c-1.23-0.99-2.92-1.12-4.5-1.21c-10.7-0.61-21.4-1.22-32.09-1.83
				c0.41,5.38,4.82,10.19,10.14,11.06"/>
		</g>
		<g>
			<path class="st8" d="M439.91,195.82c4.43,2.5,9.86,0.52,14.82,0.1c0.9-0.11-0.12-4.71-0.27-5.19c-1.33-4.05-2.71-8.19-5.28-11.6
				c-2.05-2.72-3.72-5.6-6.39-7.83c-0.69-0.58-9.36-5.24-9.39-4.63c-0.27,5.06,0.46,9.89,1.09,14.93c0.5,4.05,0.21,9.41,3.37,12.61
				C438.5,194.89,439.19,195.41,439.91,195.82z"/>
		</g>
		<g>
			<path class="st8" d="M441.85,155.4c5-2.22,11.26-2.49,15.53-0.5c8.24,3.85,9.04,11.79,10.26,19.72
				c0.58,3.74,4.59,15.46,1.69,18.48c-0.73,0.76-1.81,1.05-2.83,1.31c-2.91,0.73-5.81,1.46-8.72,2.19c-2.07,0.52-4.22,1.05-6.33,0.7
				c-4.99-0.81-5.29-4.72-7.02-8.37c-2.02-4.29-5.35-8.06-7.42-12.41c-2.18-4.57-4.68-10.97-1.71-15.76
				C436.74,158.43,439.11,156.62,441.85,155.4z"/>
		</g>
		<g id="POLYLINE_30_">
			<g>
				<path class="st3" d="M468.49,260.55c0,1.07,0.03,2.15,0.09,3.21c0.35,6.78,6.02,12.11-0.84,18.11c-3.35,2.93-8,3.89-12.44,4.08
					c-12.89,0.56-32.85-3.35-27.22-19.4c2.67-7.6,3.76-17.78,3.12-25.81c-0.34-4.21-1.21-8.38-1.36-12.6
					c-0.29-8.05,3.78-11.52,7.45-17.89c3.12-5.43,6.69-9.71,13.04-11.23c3.38-0.81,7.21-0.69,10.66-0.77
					c3.38-0.08,5.85,0.97,8.06,3.55c3.25,3.8,1.56,7.76,1.12,12.58c-0.97,10.79-1.01,21.63-1.23,32.45
					C468.83,251.34,468.47,255.98,468.49,260.55z"/>
			</g>
		</g>
		<g class="st25">
			<path class="st3" d="M455.79,233.13c0.54,2.18,1.79,4.12,3.01,6.01c4.23,6.53,8.46,13.05,12.7,19.58
				c0.33-10.32-0.25-20.66-1.75-30.88c-0.37-2.5-0.83-5.08-2.27-7.16C460.65,210.82,454.37,227.4,455.79,233.13z"/>
		</g>
		<g id="POLYLINE_29_">
			<g>
				<path class="st26" d="M462.39,261.59c-0.46,0.99-0.93,1.97-1.43,2.93c-2.07,3.98-4.69,7.7-7.52,11.17
					c-5.24,6.39-10.81,12.64-14,20.16c-0.28,0.67,3.23-0.58,3.42-0.69c1.26-0.76,2.2-2.82,3.02-3.97c-0.72,4.86-2.63,9.19-4.3,13.79
					c-0.44,1.23,7.82-2.03,8.79-3.26c2.59-3.27,4.07-8.29,5.15-12.25c0.4-1.49,0.68-2.98,1.45-4.34c2.1-3.74,5.61-6.83,8.53-9.92
					c3.38-3.56,6.67-7.11,9.79-10.9c-0.73-2.74-2.35-3.89-5.12-4.52C467.4,259.17,463.59,259.02,462.39,261.59z"/>
			</g>
		</g>
		<g id="POLYLINE_28_">
			<g>
				<path class="st3" d="M465.35,240.37c0.48,2.12,1.09,4.2,1.68,6.29c0.33,1.19,0.78,2.45,0.83,3.7c0.04,1.41-1.06,2.96-1.71,4.14
					c-0.9,1.6-1.97,3.06-3.01,4.57c-0.44,0.62-1.72,2.18-0.49,2.62c1.2,0.43,2.93-0.03,4.14-0.13c2.09-0.18,4.52-0.37,6.35,0.88
					c0.3,0.21,0.6,0.45,0.88,0.71c0.37,0.34,1.04,1.29,1.63,1.29c0.47,0,0.75-0.54,0.97-0.88c0.54-0.85,1.04-1.72,1.57-2.58
					c1.42-2.27,2.96-4.62,3.37-7.32c0.5-3.34-0.17-6.97-0.5-10.31c-0.42-4.13-0.8-8.26-1.56-12.34c-0.34-1.82-0.78-3.64-0.84-5.5
					c-0.06-1.89,0.11-3.79,0.03-5.67c-0.13-3.13-1.01-6.05-2.46-8.82c-1.54-2.95-3.61-5.92-6.41-7.8c-1.21-0.81-2.56-1.47-3.94-1.94
					c-0.75-0.26-1.68-0.55-2.47-0.36c-1.3,0.32-1.27,2.1-1.44,3.15c-0.42,2.6-1.97,4.48-2.61,6.91c-1.19,4.52-1,8.94,1.04,13.06
					C463.09,229.45,464.02,234.51,465.35,240.37z"/>
			</g>
		</g>
		<g id="POLYLINE_27_">
			<g>
				<path class="st26" d="M436.19,187.34c0.36,1.66,1.05,2.66,1.92,3.29c2.83,2.06,7.52,0.26,8.85,4.45
					c0.28,0.91,0.86,2.17,1.14,3.41c0.23,0.99,0.25,1.98-0.24,2.75c-0.23,0.35-0.65,0.72-0.55,1.18c0.1,0.45,0.65,0.72,1.04,0.86
					c0.8,0.29,1.73,0.27,2.57,0.2c5.05-0.41,8.88-3.03,13.3-4.9c-1.29-1.9-3.9-2.8-5.2-4.84c-2.16-3.38-2.28-8.36-1.82-12.23
					c0.38-3.13,3.02-5.78,1.9-8.88c-0.8-2.2-2.97-1.61-4.02,0.02c-0.62,0.95-0.97,2.04-1.44,3.06c-0.3,0.66-0.67,1.49-1.51,1.15
					c-2.96-1.18-1.55-6.87-2.88-9.4c-1.25-2.39-3.52-3.73-5.96-4.66c-1.47-0.56-4.02-1.47-5.53-0.51c-0.95,0.62-1.28,1.97-1.66,2.96
					c-0.43,1.14-1.02,2.22-1.35,3.39C433.37,173.63,435.1,182.38,436.19,187.34z"/>
			</g>
		</g>
		<g>
			<path class="st8" d="M450.01,154.59c4.96,1.78,8.93,6.39,10.44,11.71c1.35,4.76,0.75,8.24-0.3,12.96
				c-0.93-2.77-1.86-5.54-2.8-8.31c-1.2,0.27-2.85,0.2-3.23,1.51c-0.31,1.08,0.2,2.19-0.28,3.38c-1.69-1.08-4-2.64-4.63-4.66
				c-0.58-1.83-0.64-4.16-0.92-6.06c0.21,1.47-0.71,3.2-0.73,4.7c-1.13-0.15-2.28,0.08-3.42,0.16c-5.07,0.34-3.54-3.36-4.47-6.55
				c-0.06,0.49-0.45,5.84-0.54,5.85c-1.96,0.06-3.91,0.12-5.87,0.18c-0.87-2.31-0.8-3.96,0.16-6.3c1.49-3.63,2.18-5.75,5.63-7.62
				C442.84,153.48,446.65,153.39,450.01,154.59z"/>
		</g>
		<g>
			<path class="st29" d="M439.13,190.82c-0.06,0-0.13,0-0.19,0c1.4,0.96,3.09,0.91,4.69,1.34c1.6,0.43,2.81,1.27,3.32,2.91
				c0.35,1.13,0.79,2.33,1.18,3.39c0.95-0.81,1.03-2.44,1.26-3.59c0.22-1.07,0.33-2.16,0.36-3.25c0.07-3.17-2.67-1.9-4.72-1.56
				C443.12,190.39,441.1,190.77,439.13,190.82z"/>
		</g>
		<g>
			<path class="st29" d="M393.8,238c-0.38-0.89-1.2-1.64-1.81-2.38c-0.7-0.83-1.39-1.67-2.09-2.5c-0.34-0.4-0.9,0.17-0.57,0.57
				c0.07,0.08,0.13,0.16,0.2,0.24c-2.75,0.06-5.63,0.67-8.29,1.24c-0.35,0.07-0.28,0.65,0.08,0.63c2.84-0.22,5.96-0.44,8.71-1.25
				c0.45,0.56,0.91,1.11,1.36,1.67c0.61,0.75,1.18,1.66,1.99,2.2C393.67,238.61,393.91,238.25,393.8,238z"/>
		</g>
		<g>
			<path class="st29" d="M391.17,236.25c-2.75,0.03-5.59,0.78-8.3,1.24c-0.5,0.08-0.28,0.83,0.21,0.76c2.68-0.41,5.58-0.58,8.17-1.4
				C391.57,236.75,391.52,236.25,391.17,236.25z"/>
		</g>
		<g>
			<path class="st29" d="M392.61,237.89c-0.96,0.03-1.91,0.44-2.82,0.73c-1.04,0.33-2.07,0.67-3.11,1
				c-0.48,0.16-0.28,0.91,0.21,0.76c1.04-0.31,2.08-0.62,3.13-0.93c0.91-0.27,1.94-0.47,2.74-0.99
				C393.01,238.31,392.93,237.88,392.61,237.89z"/>
		</g>
		<g>
			<path class="st29" d="M448.07,295.67c-0.9,0.09-2.02,2.99-4.15,8.81c-0.13,0.34,0.41,0.56,0.58,0.25
				c1.52-2.73,3.25-5.82,4.12-8.82C448.73,295.56,448.4,295.64,448.07,295.67z"/>
		</g>
		<g>
			<path class="st29" d="M450.5,296.38c-0.85,2.82-1.52,5.25-3.6,7.47c-0.33,0.35,0.18,0.86,0.52,0.52
				c2.01-1.99,3.85-4.98,3.63-7.92C451.03,296.14,450.59,296.06,450.5,296.38z"/>
		</g>
	</g>
</g>
</svg>
