<?xml version="1.0" encoding="utf-8"?>
<!-- Generator: Adobe Illustrator 25.0.0, SVG Export Plug-In . SVG Version: 6.00 Build 0)  -->
<svg version="1.1" id="Capa_1" xmlns="http://www.w3.org/2000/svg" xmlns:xlink="http://www.w3.org/1999/xlink" x="0px" y="0px"
	 viewBox="0 0 718.71 467.07" style="enable-background:new 0 0 718.71 467.07;" xml:space="preserve">
<style type="text/css">
	.st0{opacity:0.15;}
	.st1{fill:#6C63FE;}
	.st2{opacity:0.19;}
	.st3{opacity:0.18;}
	.st4{opacity:0.5;}
	.st5{opacity:0.2;}
	.st6{opacity:0.42;}
	.st7{fill:#2D3554;}
	.st8{opacity:0.47;}
	.st9{fill:#007CFF;}
	.st10{opacity:0.4;}
	.st11{opacity:0.75;fill:#6C63FE;}
	.st12{fill:#FFFFFF;}
	.st13{opacity:0.39;fill:#6C63FE;}
	.st14{opacity:0.17;fill:#6C63FE;}
	.st15{opacity:0.5;fill:#FFFFFF;}
	.st16{opacity:0.86;fill:#6C63FE;}
	.st17{fill:#1A2E35;}
	.st18{fill:#FFC3BD;}
	.st19{fill:#FF847F;}
	.st20{opacity:0.8;fill:#1A2E35;}
	.st21{opacity:0.3;}
</style>
<g>
	<g class="st0">
		<path class="st1" d="M78.65,399.53c0,0-42.88-64.87,3.82-141.19s109.42-37.94,106.38-126.77c-3.04-88.83,129.62-97.45,176.5-71.69
			c46.88,25.76,88.27,11,144.26,12.8c90.81,2.91,116.23,92.52,91.05,136.12c-35.72,61.87,111.91,69.15,26.93,190.73H78.65z"/>
	</g>
	<g class="st2">
		<path class="st1" d="M149.66,259.73c-4.22-15.48,20.77-24.53,20.77-24.53s29.02,14.39,33.8,12.34
			c4.78-2.06-22.41-17.15-22.41-17.15c8.14-5.9,36.33-8.22,36.33-8.22s14.61,28.09,18.74,24.92s-14.21-24.21-14.21-24.21
			c9.82-2.39,23.33,2.77,23.33,2.77c19.05,10.15,5.04,34.08,5.04,34.08s5.27,9.62,17.49,17.05l0,0c0,0,2.49,1.23,5.83,3.85
			l-2.28,1.34c-0.54-0.5-1.1-0.97-1.65-1.4c0,0-0.01-0.01-0.01-0.01c-0.01-0.01-0.02-0.01-0.02-0.02c-0.36-0.26-0.88-0.63-1.52-1.08
			c0,0,0,0,0,0c0,0,0,0,0,0c-1.49-0.95-2.55-1.68-3.28-2.23c0,0,0,0-0.01-0.01c-4.59-3.05-10.86-6.86-13.55-6.85
			c0,0,0.04-0.5-0.13-1.33c0.04,0.42,0.08,0.87,0.13,1.33c1,10.64-17.66,23.46-29.82,27.6c-12.16,4.14-9.23-1.69-6.3-10.09
			c2.93-8.4,15.94-14.27,18.42-18.34c2.47-4.07-3.96-2.92-10.86,1.89c-6.91,4.8-6.28,14.16-17.31,22.13
			c-11.03,7.97-32.84-8.79-32.84-8.79c9.54-2.23,21.4-15.18,20.32-18.29c-1.08-3.11-22.34,9.74-26.17,10.87
			C163.64,278.46,153.88,275.21,149.66,259.73z"/>
	</g>
	<g class="st3">
		<path class="st1" d="M567.65,373.61c15.52-15.08-7.28-42.74-7.28-42.74s-43.57-3.21-47.71-8.87c-4.14-5.67,37.79-4.53,37.79-4.53
			c-5.4-12.43-36.53-34.48-36.53-34.48s-36.24,22.58-38.86,16.07c-2.62-6.51,33.11-18.36,33.11-18.36
			c-9.76-9.52-28.98-12.79-28.98-12.79c-29.08-1.29-29.23,36.11-29.23,36.11s-12.73,7.56-32,7.79l0,0c0,0-3.74-0.28-9.41,0.47
			l1.73,3.11c0.98-0.21,1.94-0.38,2.88-0.49c0.01,0,0.01,0,0.02,0c0.01,0,0.03,0,0.04,0c0.6-0.05,1.45-0.13,2.5-0.21c0,0,0,0,0,0
			c0,0,0,0,0.01,0c2.39-0.08,4.12-0.2,5.34-0.35c0,0,0.01,0,0.01,0c7.42-0.39,17.31-0.51,20.43,1.34c0,0,0.29-0.61,1.06-1.46
			c-0.34,0.46-0.69,0.95-1.06,1.46c-8.46,11.66,4.41,39.35,15.68,52.51c11.27,13.15,11.87,4.36,14.24-7.4
			c2.36-11.76-8.71-27.51-8.79-33.94c-0.08-6.42,6.59-0.67,11.32,9.65c4.73,10.32-2.43,20.75,4.91,37.58
			c7.34,16.83,44.16,12.34,44.16,12.34c-9.54-9.14-14.43-32.3-11.04-35.17c3.38-2.87,19.25,26.64,22.93,30.58
			C538.56,385.76,552.12,388.69,567.65,373.61z"/>
	</g>
	<g>
		<g class="st4">
			<path class="st1" d="M238.95,213.91c0,0-19.83-20.66-41.68-25.43c-2.9-0.63-5,2.74-3.16,5.08c0.03,0.04,0.06,0.08,0.09,0.12
				C197.41,197.6,223.32,204.86,238.95,213.91z"/>
		</g>
		<g class="st4">
			<path class="st1" d="M245.26,219.34c0,0-32.99-19.63-62.25-17.25c-1.78,0.15-3.21,1.66-3.13,3.44c0.05,1.16,0.72,2.54,2.72,3.97
				C187.94,213.3,222.69,213.45,245.26,219.34z"/>
		</g>
	</g>
	<g>
		<g class="st4">
			<path class="st1" d="M477.65,264.8c0,0,4.71-29.44,20.57-46.48c2.11-2.27,5.9-0.62,5.72,2.47c0,0.05-0.01,0.1-0.01,0.16
				C503.52,226.21,485.66,247.79,477.65,264.8z"/>
		</g>
		<g class="st4">
			<path class="st1" d="M475.48,273.2c0,0,16.57-36.37,43.02-51.69c1.61-0.93,3.73-0.49,4.72,1.09c0.65,1.03,0.89,2.6,0.03,5.01
				C520.93,234.02,491.29,254.77,475.48,273.2z"/>
		</g>
	</g>
	<g class="st5">
		<path class="st1" d="M342.05,197.18l11.55-1.27c0.96-0.1,1.9,0.35,2.42,1.17c0.67,1.04,1.38,2.06,2.14,3.06
			c1.41,1.85,2.93,3.57,4.56,5.12c0.76,0.73,1.01,1.83,0.62,2.8l-4.46,11.29c-0.49,1.2,0.04,2.58,1.22,3.17l9.93,4.95
			c1.13,0.56,2.48,0.18,3.16-0.87l6.04-9.41c0.57-0.93,1.69-1.35,2.77-1.06c4.57,1.22,9.32,1.71,14.08,1.44
			c1.15-0.06,2.21,0.69,2.55,1.78l2.02,6.49c0.4,1.23,1.65,1.99,2.93,1.75l10.81-2.15c0.22-0.04,0.43-0.1,0.62-0.21
			c0.94-0.44,1.52-1.46,1.39-2.53l-0.94-8.63l-0.23-2.1c1.8-1.01,3.56-2.16,5.25-3.44c2.27-1.73,4.33-3.64,6.16-5.67
			c0.7-0.77,1.8-1.05,2.77-0.66l9.09,3.6c1.25,0.48,2.66-0.05,3.24-1.25l3.79-7.59l1.08-2.18c0.59-1.19,0.2-2.64-0.91-3.35
			l-7.86-5.05c-0.92-0.58-1.37-1.67-1.1-2.7c0.74-3.1,1.16-6.27,1.23-9.45c0.03-0.28,0.03-0.53,0.03-0.8
			c-0.01-0.09,0.01-0.18,0.02-0.27c0.1-1.02,0.81-1.86,1.79-2.16l10.54-3.3c0.12-0.03,0.24-0.09,0.34-0.13
			c1.03-0.49,1.61-1.65,1.4-2.79L449.95,154c-0.26-1.3-1.46-2.19-2.79-2.05l-12.04,1.33c-1.02,0.12-2-0.4-2.48-1.31
			c-1.08-1.98-2.33-3.91-3.75-5.78c-0.75-0.99-1.54-1.93-2.36-2.84c-0.66-0.74-0.85-1.79-0.49-2.71l4.28-10.85
			c0.48-1.19-0.04-2.57-1.2-3.15l-9.83-4.89c-1.19-0.59-2.63-0.21-3.36,0.92l-4.78,7.44c-0.64,1-1.86,1.42-2.98,1.05
			c-4.37-1.53-8.95-2.35-13.57-2.48c-1.09-0.01-2.06-0.74-2.39-1.8l-2.97-9.5c-0.4-1.27-1.7-2.04-3.01-1.79l-10.74,2.12
			c-1.29,0.25-2.17,1.46-2.02,2.75l0.05,0.5L374.6,131c0.12,1.07-0.43,2.08-1.4,2.58l-0.01,0.01c-2.3,1.18-4.53,2.58-6.67,4.21
			c-1.14,0.87-2.21,1.78-3.25,2.74c-0.71,0.67-1.74,0.87-2.65,0.51l-9.23-3.66c-1.26-0.5-2.7,0.05-3.3,1.26l-4.87,9.79
			c-0.14,0.28-0.21,0.58-0.25,0.86c-0.1,0.94,0.33,1.9,1.16,2.43l6.29,4.02c0.76,0.5,1.21,1.37,1.17,2.26
			c-0.01,0.23-0.05,0.47-0.13,0.71c-1.93,5.62-2.71,11.55-2.32,17.49c0.08,1.01-0.48,1.94-1.35,2.4c-0.13,0.06-0.26,0.12-0.4,0.16
			l-8.53,2.67c-1.24,0.39-1.98,1.64-1.74,2.92l0.05,0.25l2.07,10.51C339.49,196.44,340.71,197.33,342.05,197.18z M415.99,164.61
			c0.65,1.65,1.18,3.43,1.55,5.34c0.7,3.63-0.06,9.35-1.7,12.67c-0.17,0.36-0.36,0.7-0.54,1.05c-11.35,20.94-40.95,16.68-45.76-6.99
			c-0.62-3.1-0.22-7.6,0.9-11.05c0.27-0.8,0.56-1.54,0.89-2.18c1.52-3.01,3.39-5.52,5.53-7.57
			C389.05,144.24,409.36,148.12,415.99,164.61z"/>
	</g>
	<g class="st6">
		<path class="st1" d="M488.15,178.27l7.17-0.79c0.6-0.06,1.18,0.22,1.5,0.72c0.41,0.65,0.86,1.28,1.33,1.9
			c0.88,1.15,1.82,2.22,2.83,3.18c0.47,0.45,0.63,1.13,0.38,1.74l-2.77,7.01c-0.3,0.75,0.03,1.6,0.76,1.97l6.17,3.08
			c0.7,0.35,1.54,0.11,1.96-0.54l3.75-5.84c0.35-0.58,1.05-0.84,1.72-0.66c2.84,0.76,5.79,1.06,8.74,0.9
			c0.71-0.04,1.37,0.43,1.59,1.11l1.25,4.03c0.25,0.76,1.02,1.24,1.82,1.09l6.71-1.34c0.14-0.03,0.27-0.07,0.39-0.13
			c0.58-0.28,0.94-0.91,0.86-1.57l-0.58-5.36l-0.14-1.31c1.12-0.62,2.21-1.34,3.26-2.14c1.41-1.07,2.69-2.26,3.83-3.52
			c0.44-0.48,1.12-0.65,1.72-0.41l5.65,2.24c0.77,0.3,1.65-0.03,2.01-0.77l2.35-4.72l0.67-1.35c0.37-0.74,0.13-1.64-0.57-2.08
			l-4.88-3.14c-0.57-0.36-0.85-1.04-0.68-1.68c0.46-1.93,0.72-3.9,0.76-5.87c0.02-0.17,0.02-0.33,0.02-0.5c0-0.06,0-0.11,0.01-0.17
			c0.06-0.63,0.5-1.16,1.11-1.34l6.54-2.05c0.08-0.02,0.15-0.05,0.21-0.08c0.64-0.31,1-1.02,0.87-1.73l-1.32-6.69
			c-0.16-0.81-0.91-1.36-1.73-1.27l-7.48,0.82c-0.63,0.08-1.24-0.25-1.54-0.81c-0.67-1.23-1.45-2.43-2.33-3.59
			c-0.47-0.61-0.96-1.2-1.46-1.76c-0.41-0.46-0.53-1.11-0.3-1.68l2.66-6.74c0.3-0.74-0.03-1.59-0.75-1.95l-6.11-3.03
			c-0.74-0.37-1.63-0.13-2.09,0.57l-2.97,4.62c-0.4,0.62-1.16,0.88-1.85,0.65c-2.71-0.95-5.56-1.46-8.43-1.54
			c-0.68-0.01-1.28-0.46-1.48-1.12l-1.85-5.9c-0.25-0.79-1.05-1.27-1.87-1.11l-6.67,1.32c-0.8,0.16-1.35,0.91-1.25,1.71l0.03,0.31
			l0.68,6.22c0.07,0.67-0.27,1.29-0.87,1.6l-0.01,0c-1.43,0.73-2.82,1.6-4.14,2.62c-0.71,0.54-1.37,1.11-2.02,1.7
			c-0.44,0.42-1.08,0.54-1.65,0.32l-5.73-2.27c-0.78-0.31-1.68,0.03-2.05,0.78l-3.03,6.08c-0.09,0.17-0.13,0.36-0.16,0.53
			c-0.06,0.58,0.21,1.18,0.72,1.51l3.9,2.5c0.47,0.31,0.75,0.85,0.73,1.41c-0.01,0.14-0.03,0.29-0.08,0.44
			c-1.2,3.49-1.68,7.17-1.44,10.86c0.05,0.62-0.3,1.21-0.84,1.49c-0.08,0.04-0.16,0.07-0.25,0.1l-5.3,1.66
			c-0.77,0.24-1.23,1.02-1.08,1.81l0.03,0.16l1.28,6.52C486.56,177.81,487.32,178.36,488.15,178.27z M534.07,158.05
			c0.41,1.03,0.74,2.13,0.96,3.31c0.43,2.25-0.03,5.81-1.06,7.87c-0.11,0.22-0.22,0.44-0.33,0.65c-7.05,13-25.43,10.36-28.42-4.34
			c-0.39-1.92-0.13-4.72,0.56-6.86c0.17-0.49,0.35-0.96,0.55-1.35c0.94-1.87,2.11-3.43,3.43-4.7
			C517.34,145.4,529.95,147.81,534.07,158.05z"/>
	</g>
	<g class="st6">
		<path class="st1" d="M157.48,153.63l7.17-0.79c0.6-0.06,1.18,0.22,1.5,0.72c0.41,0.65,0.86,1.28,1.33,1.9
			c0.88,1.15,1.82,2.22,2.83,3.18c0.47,0.45,0.63,1.13,0.38,1.74l-2.77,7.01c-0.3,0.75,0.03,1.6,0.76,1.97l6.17,3.08
			c0.7,0.35,1.54,0.11,1.96-0.54l3.75-5.84c0.35-0.58,1.05-0.84,1.72-0.66c2.83,0.76,5.79,1.06,8.74,0.9
			c0.71-0.04,1.37,0.43,1.59,1.11l1.25,4.03c0.25,0.76,1.02,1.24,1.82,1.09l6.71-1.34c0.14-0.03,0.27-0.07,0.39-0.13
			c0.58-0.28,0.94-0.91,0.86-1.57l-0.58-5.36l-0.14-1.31c1.12-0.62,2.21-1.34,3.26-2.14c1.41-1.07,2.69-2.26,3.83-3.52
			c0.44-0.48,1.12-0.65,1.72-0.41l5.65,2.24c0.77,0.3,1.65-0.03,2.01-0.77l2.35-4.72l0.67-1.35c0.37-0.74,0.13-1.64-0.57-2.08
			l-4.88-3.14c-0.57-0.36-0.85-1.04-0.68-1.68c0.46-1.93,0.72-3.9,0.76-5.87c0.02-0.17,0.02-0.33,0.02-0.5c0-0.06,0-0.11,0.01-0.17
			c0.06-0.63,0.5-1.16,1.11-1.34l6.54-2.05c0.08-0.02,0.15-0.05,0.21-0.08c0.64-0.31,1-1.02,0.87-1.73l-1.32-6.69
			c-0.16-0.81-0.91-1.36-1.73-1.27l-7.48,0.82c-0.63,0.08-1.24-0.25-1.54-0.81c-0.67-1.23-1.45-2.43-2.33-3.59
			c-0.47-0.61-0.96-1.2-1.46-1.76c-0.41-0.46-0.53-1.11-0.3-1.68l2.66-6.74c0.3-0.74-0.03-1.59-0.75-1.95l-6.11-3.03
			c-0.74-0.37-1.63-0.13-2.09,0.57l-2.97,4.62c-0.4,0.62-1.16,0.88-1.85,0.65c-2.71-0.95-5.56-1.46-8.43-1.54
			c-0.68-0.01-1.28-0.46-1.48-1.12l-1.85-5.9c-0.25-0.79-1.05-1.27-1.87-1.11l-6.67,1.32c-0.8,0.16-1.35,0.91-1.25,1.71l0.03,0.31
			l0.68,6.22c0.07,0.67-0.27,1.29-0.87,1.6l-0.01,0c-1.43,0.73-2.82,1.6-4.14,2.62c-0.71,0.54-1.37,1.11-2.02,1.7
			c-0.44,0.42-1.08,0.54-1.65,0.32l-5.73-2.27c-0.78-0.31-1.68,0.03-2.05,0.78l-3.03,6.08c-0.09,0.17-0.13,0.36-0.16,0.53
			c-0.06,0.58,0.21,1.18,0.72,1.51l3.9,2.5c0.47,0.31,0.75,0.85,0.73,1.41c-0.01,0.14-0.03,0.29-0.08,0.44
			c-1.2,3.49-1.68,7.17-1.44,10.86c0.05,0.62-0.3,1.21-0.84,1.49c-0.08,0.04-0.16,0.07-0.25,0.1l-5.3,1.66
			c-0.77,0.24-1.23,1.02-1.08,1.81l0.03,0.16l1.28,6.52C155.89,153.17,156.65,153.72,157.48,153.63z M203.4,133.41
			c0.41,1.03,0.74,2.13,0.96,3.31c0.43,2.25-0.03,5.81-1.06,7.87c-0.11,0.22-0.22,0.44-0.33,0.65c-7.05,13-25.43,10.36-28.42-4.34
			c-0.39-1.92-0.13-4.72,0.56-6.86c0.17-0.49,0.35-0.96,0.55-1.35c0.94-1.87,2.11-3.43,3.43-4.7
			C186.67,120.75,199.28,123.16,203.4,133.41z"/>
	</g>
	<g>
		<path class="st1" d="M446.34,134.47l4.9-1.64c0.41-0.13,0.86-0.03,1.16,0.28c0.39,0.39,0.79,0.76,1.22,1.12
			c0.79,0.67,1.61,1.27,2.46,1.79c0.4,0.24,0.61,0.7,0.53,1.16l-0.87,5.33c-0.1,0.57,0.26,1.12,0.83,1.26l4.78,1.21
			c0.54,0.14,1.1-0.16,1.29-0.68l1.73-4.66c0.16-0.46,0.61-0.75,1.11-0.72c2.1,0.1,4.21-0.14,6.25-0.71
			c0.49-0.14,1.03,0.09,1.28,0.53l1.49,2.63c0.29,0.5,0.9,0.71,1.44,0.48l4.49-1.96c0.09-0.04,0.18-0.09,0.25-0.15
			c0.37-0.28,0.52-0.78,0.36-1.23l-1.22-3.66l-0.3-0.89c0.69-0.61,1.34-1.28,1.95-1.99c0.82-0.97,1.54-1.99,2.14-3.05
			c0.23-0.4,0.68-0.63,1.14-0.55l4.29,0.71c0.59,0.09,1.15-0.27,1.29-0.85l0.93-3.66l0.26-1.05c0.15-0.57-0.16-1.17-0.71-1.37
			l-3.89-1.45c-0.45-0.16-0.75-0.6-0.73-1.07c0.03-1.42-0.09-2.84-0.36-4.22c-0.01-0.12-0.04-0.23-0.06-0.35
			c-0.01-0.04-0.01-0.08-0.02-0.12c-0.05-0.45,0.18-0.89,0.57-1.11l4.27-2.43c0.05-0.02,0.1-0.06,0.14-0.09
			c0.4-0.31,0.55-0.87,0.34-1.34l-1.95-4.48c-0.24-0.54-0.84-0.81-1.41-0.63l-5.11,1.72c-0.43,0.15-0.91,0.01-1.2-0.33
			c-0.66-0.76-1.38-1.48-2.18-2.16c-0.42-0.36-0.85-0.69-1.29-1.01c-0.36-0.26-0.54-0.7-0.47-1.13l0.83-5.12
			c0.09-0.56-0.26-1.11-0.82-1.25l-4.73-1.19c-0.57-0.15-1.16,0.16-1.37,0.72l-1.37,3.69c-0.18,0.49-0.68,0.79-1.2,0.74
			c-2.04-0.25-4.11-0.18-6.13,0.21c-0.48,0.1-0.97-0.13-1.21-0.55l-2.19-3.85c-0.29-0.52-0.93-0.72-1.48-0.49l-4.47,1.94
			c-0.54,0.23-0.8,0.84-0.62,1.39l0.07,0.21l1.42,4.25c0.15,0.46,0.01,0.95-0.36,1.25l0,0c-0.89,0.73-1.73,1.55-2.5,2.46
			c-0.41,0.49-0.79,0.98-1.15,1.5c-0.25,0.36-0.68,0.54-1.11,0.47l-4.36-0.72c-0.6-0.1-1.17,0.28-1.31,0.86l-1.19,4.71
			c-0.03,0.13-0.04,0.27-0.03,0.4c0.05,0.42,0.32,0.79,0.73,0.95l3.11,1.15c0.38,0.15,0.65,0.48,0.72,0.87
			c0.02,0.1,0.02,0.21,0.01,0.32c-0.31,2.62-0.09,5.28,0.65,7.82c0.13,0.43-0.02,0.89-0.36,1.17c-0.05,0.04-0.1,0.08-0.16,0.11
			l-3.46,1.97c-0.5,0.28-0.71,0.9-0.48,1.43l0.04,0.1l1.89,4.37C445.16,134.39,445.77,134.66,446.34,134.47z M475.39,113.33
			c0.44,0.66,0.84,1.38,1.18,2.17c0.65,1.51,0.86,4.07,0.46,5.66c-0.04,0.17-0.09,0.34-0.14,0.51
			c-2.95,10.17-16.21,11.12-20.54,1.29c-0.56-1.29-0.81-3.28-0.65-4.88c0.04-0.37,0.1-0.72,0.18-1.03c0.37-1.45,0.95-2.72,1.69-3.81
			C461.75,107.03,470.94,106.79,475.39,113.33z"/>
	</g>
	<g>
		<path class="st7" d="M674.67,400.38H56.04c-0.37,0-0.67-0.3-0.67-0.67v-0.37c0-0.37,0.3-0.67,0.67-0.67h618.63
			c0.37,0,0.67,0.3,0.67,0.67v0.37C675.34,400.08,675.04,400.38,674.67,400.38z"/>
	</g>
	<g class="st8">
		<path class="st1" d="M143.97,356.59c-0.64-0.43-1.3-0.82-1.9-1.29c-1.01-0.79-2.02-1.16-3.39-1c-1.89,0.22-3.71-0.27-5.17-1.63
			c-1.85-1.71-1.76-4.48,0.19-6.08c1.65-1.36,3.61-1.65,5.65-1.44c0.76,0.08,1.53,0.28,2.24,0.57c3.04,1.21,3.89,4.46,1.85,6.8
			c0.15,0.11,0.29,0.22,0.44,0.32c1.99,1.33,3.99,2.66,5.98,3.99c0.77,0.52,1.05,1.16,0.83,1.87c-0.22,0.7-0.78,1.07-1.7,1.07
			c-9.69,0-19.39,0-29.08,0.02c-0.31,0-0.65,0.1-0.91,0.26c-2.16,1.32-4.31,2.67-6.45,4.01c-0.15,0.1-0.3,0.2-0.59,0.38
			c0.3,0.03,0.45,0.06,0.59,0.05c4.38,0,8.76,0.01,13.14-0.02c1.37-0.01,1.92,1.01,1.73,1.78c-0.08,0.33-0.27,0.68-0.51,0.92
			c-1.36,1.4-2.75,2.76-4.12,4.14c-0.12,0.12-0.23,0.25-0.37,0.39c1.15,1.28,1.46,2.72,0.87,4.41c0.24,0,0.4,0,0.57,0
			c2.59,0,5.17,0,7.76,0.01c0.35,0,0.57-0.05,0.64-0.47c0.04-0.25,0.23-0.5,0.42-0.69c3.04-3.06,6.09-6.1,9.13-9.15
			c0.4-0.4,0.87-0.58,1.44-0.58c11.38,0.01,22.77,0.01,34.15,0.01c0.18,0,0.37,0,0.67,0c-0.15-0.18-0.22-0.29-0.31-0.37
			c-2.07-2.07-4.14-4.15-6.22-6.22c-0.47-0.47-0.64-0.99-0.47-1.65c0.44,0.29,0.83,0.61,1.27,0.83c1.78,0.91,3.94,0.31,5.13-1.45
			c0.23-0.34,0.47-0.47,0.88-0.46c4.97,0.01,9.93,0.01,14.9,0.01c1.3,0,2.08,1,1.64,2.1c-0.24,0.61-0.8,0.96-1.57,0.96
			c-2.35,0-4.69,0-7.04,0c-3.14,0-6.28,0-9.42,0c-0.16,0-0.33,0.02-0.59,0.03c0.18,0.19,0.28,0.32,0.4,0.44
			c2.01,2.01,4.02,4.03,6.04,6.03c0.55,0.54,0.8,1.14,0.51,1.86c-0.29,0.73-0.9,0.96-1.67,0.96c-12.4-0.01-24.8,0-37.2-0.02
			c-0.53,0-0.89,0.16-1.25,0.53c-2.27,2.31-4.57,4.59-6.86,6.89c-0.09,0.09-0.17,0.2-0.34,0.4c0.32,0,0.53,0,0.75,0
			c20.04,0,40.08,0,60.13,0.01c0.37,0,0.76,0.04,1.11,0.16c0.67,0.24,1.03,0.82,0.98,1.48c-0.04,0.59-0.51,1.15-1.15,1.32
			c-0.25,0.07-0.51,0.09-0.77,0.09c-19.75,0-39.5,0-59.25,0c-14.63,0-29.25,0-43.88-0.02c-0.46,0-0.99-0.11-1.37-0.35
			c-0.98-0.63-0.82-2.04,0.26-2.49c0.34-0.14,0.73-0.2,1.1-0.2c5.71-0.01,11.42-0.01,17.13-0.01c0.15,0,0.31,0,0.51,0
			c-0.03-0.17-0.04-0.3-0.07-0.43c-0.46-1.74,0.08-3.36,1.53-4.44c1.61-1.2,3.48-1.55,5.4-1.26c1.01,0.15,1.68-0.04,2.3-0.81
			c0.45-0.55,1.02-1,1.54-1.49c-0.03-0.05-0.06-0.11-0.08-0.16c-0.2,0-0.39,0-0.59,0c-4.92,0-9.83,0-14.75,0
			c-0.82,0-1.39-0.34-1.63-0.94c-0.28-0.72-0.05-1.44,0.69-1.92c1.16-0.75,2.34-1.46,3.51-2.2c2.82-1.76,5.65-3.52,8.46-5.3
			c0.5-0.32,1.01-0.45,1.61-0.45c7.99,0.01,15.97,0.01,23.96,0.01c0.2,0,0.39,0,0.59,0C143.95,356.69,143.96,356.64,143.97,356.59z
			 M138.36,351.3c0.92-0.03,1.81-0.15,2.57-0.68c0.77-0.53,0.76-1.25,0.01-1.8c-1.22-0.89-3.88-0.89-5.11,0
			c-0.78,0.56-0.76,1.3,0.03,1.83C136.63,351.15,137.49,351.27,138.36,351.3z M117.46,372.83c-0.82,0.24-1.62,0.42-2.38,0.7
			c-0.43,0.15-0.76,0.5-0.77,1.01c-0.02,0.52,0.33,0.83,0.74,1.03c1.58,0.78,3.19,0.8,4.76-0.01c1.01-0.52,1.01-1.51-0.01-2.01
			C119.08,373.21,118.27,373.07,117.46,372.83z"/>
		<path class="st1" d="M119.73,286.12c8.23-0.04,15.78,5.27,18.28,13.11c2.62,8.18,0.75,15.33-5.52,21.25
			c-1.49,1.41-2.6,3.06-3.6,4.82c-2.68,4.76-5.4,9.5-8.11,14.24c-0.04,0.07-0.09,0.15-0.13,0.22c-0.54,0.82-1.29,0.82-1.79-0.01
			c-0.52-0.85-1-1.73-1.5-2.6c-2.49-4.37-4.98-8.74-7.47-13.12c-0.78-1.38-1.79-2.57-2.97-3.62c-7.25-6.49-8.69-17.36-3.33-25.5
			c3.3-5.01,7.98-7.88,13.92-8.7c0.36-0.05,0.72-0.08,1.08-0.09C118.97,286.11,119.35,286.12,119.73,286.12z M119.74,335.12
			c0.13-0.2,0.21-0.33,0.29-0.46c2-3.5,4.02-6.99,5.98-10.51c1.27-2.27,2.69-4.39,4.64-6.16c3.35-3.03,5.14-6.88,5.38-11.38
			c0.25-4.56-1.17-8.61-4.22-12.02c-7.1-7.92-19.57-7.14-25.56,1.85c-4.72,7.09-3.47,16.14,2.86,21.82c1.33,1.2,2.46,2.56,3.35,4.11
			c1.88,3.29,3.75,6.59,5.63,9.88C118.63,333.2,119.17,334.13,119.74,335.12z"/>
		<path class="st1" d="M174.07,300.8c7.94,0.03,15.25,4.94,18,12.41c2.88,7.83,1.41,14.91-4.24,21.08c-2.6,2.07-4.16,4.92-5.75,7.75
			c-2.3,4.11-4.65,8.18-6.98,12.27c-0.03,0.06-0.06,0.12-0.1,0.18c-0.52,0.84-1.33,0.85-1.83,0c-0.62-1.05-1.22-2.12-1.82-3.18
			c-2.47-4.32-4.89-8.67-7.44-12.96c-0.68-1.15-1.63-2.19-2.61-3.11c-4.52-4.21-6.75-9.37-6.58-15.53
			c0.24-9.35,7.33-17.31,16.58-18.67C172.21,300.91,173.15,300.88,174.07,300.8z M174.08,349.88c0.13-0.22,0.22-0.36,0.31-0.51
			c1.99-3.49,4-6.96,5.96-10.47c1.26-2.25,2.66-4.37,4.61-6.12c5.28-4.74,6.92-12.43,4.09-18.94c-3.16-7.27-10.74-11.23-18.45-9.56
			c-7.09,1.54-12.46,7.78-12.8,15.32c-0.24,5.37,1.71,9.87,5.73,13.46c1.23,1.1,2.29,2.35,3.11,3.78c1.9,3.3,3.78,6.61,5.67,9.92
			C172.88,347.79,173.46,348.8,174.08,349.88z"/>
		<path class="st1" d="M123.3,347.38c-1.59-1.36-3.07-2.62-4.48-3.82c0.69-0.07,1.44-0.06,2.13-0.24c1.22-0.32,2.05-1.18,2.6-2.29
			c0.28-0.57,0.64-0.71,1.25-0.71c5.52,0.03,11.04,0.01,16.56,0.03c0.45,0,0.97,0.15,1.34,0.41c4.29,2.95,8.56,5.93,12.84,8.89
			c0.26,0.18,0.63,0.29,0.94,0.29c3.33,0.02,6.66,0.02,9.99,0c0.37,0,0.59,0.1,0.77,0.44c0.46,0.86,0.95,1.7,1.48,2.63
			c-0.27,0-0.46,0-0.64,0c-4.12,0-8.24,0.01-12.37-0.02c-0.43,0-0.93-0.16-1.29-0.4c-4.3-2.96-8.58-5.96-12.88-8.93
			c-0.21-0.15-0.5-0.26-0.75-0.26c-5.64-0.01-11.28-0.01-16.92-0.01c-0.1,0-0.2,0.01-0.43,0.03c0.49,0.43,0.91,0.81,1.33,1.17
			c1.26,1.07,2.54,2.12,3.78,3.22c0.88,0.78,0.58,2.18-0.52,2.55c-0.24,0.08-0.51,0.08-0.76,0.08c-9.78,0-19.56,0.01-29.34,0.01
			c-0.26,0-0.52,0.01-0.78-0.01c-0.66-0.04-1.09-0.39-1.33-0.99c-0.23-0.59-0.11-1.15,0.34-1.57c0.23-0.22,0.58-0.35,0.9-0.45
			c0.26-0.07,0.55-0.03,0.82-0.03c8.28,0,16.56,0,24.84-0.01C122.85,347.41,123,347.39,123.3,347.38z"/>
		<path class="st1" d="M87.58,376.13c0.4,0,0.79-0.02,1.19,0c0.84,0.04,1.45,0.68,1.46,1.51c0.01,0.8-0.57,1.48-1.38,1.53
			c-0.88,0.05-1.76,0.04-2.64,0c-0.79-0.04-1.38-0.76-1.36-1.55c0.02-0.79,0.64-1.44,1.44-1.48
			C86.72,376.12,87.15,376.13,87.58,376.13z"/>
		<path class="st1" d="M203.22,376.14c0.4,0,0.79-0.01,1.19,0c0.81,0.03,1.44,0.65,1.48,1.44c0.04,0.77-0.49,1.5-1.27,1.56
			c-0.94,0.07-1.9,0.08-2.84,0.01c-0.78-0.06-1.31-0.79-1.27-1.57c0.04-0.78,0.63-1.4,1.42-1.44
			C202.36,376.12,202.79,376.14,203.22,376.14z"/>
		<path class="st1" d="M119.73,293.19c6.47,0.03,11.56,5.13,11.56,11.59c0.01,6.5-5.38,11.87-11.77,11.72
			c-6.39-0.15-11.46-5.39-11.41-11.8C108.16,298.19,113.24,293.16,119.73,293.19z M127.77,304.68c-0.04-4.48-3.71-8.07-8.19-8.01
			c-4.47,0.06-8.04,3.74-7.98,8.25c0.06,4.49,3.74,8.1,8.21,8.04C124.26,312.9,127.81,309.21,127.77,304.68z"/>
		<path class="st1" d="M174.17,308.41c6.47,0.03,11.56,5.13,11.56,11.59c0.01,6.5-5.38,11.87-11.77,11.72
			c-6.39-0.15-11.46-5.39-11.41-11.8C162.6,313.41,167.68,308.38,174.17,308.41z M182.21,319.9c-0.04-4.48-3.71-8.07-8.19-8.01
			c-4.47,0.06-8.04,3.74-7.98,8.25c0.06,4.49,3.74,8.1,8.21,8.04C178.7,328.11,182.25,324.42,182.21,319.9z"/>
		<path class="st1" d="M210.55,377.66c-0.01,0.86-0.69,1.53-1.56,1.53c-0.82,0-1.51-0.7-1.51-1.53c0-0.86,0.68-1.53,1.55-1.53
			C209.86,376.14,210.55,376.84,210.55,377.66z"/>
		<path class="st1" d="M83.25,377.67c-0.01,0.83-0.69,1.52-1.52,1.52c-0.85,0.01-1.55-0.69-1.55-1.54c0-0.84,0.72-1.54,1.57-1.52
			C82.58,376.15,83.26,376.85,83.25,377.67z"/>
	</g>
	<g class="st5">
		<path class="st1" d="M103.81,209.24c-6.49,5.13-12.49,10.86-18.03,16.97c-5.57,6.08-10.74,12.53-15.4,19.31
			c-9.37,13.54-16.7,28.45-21.51,44.15l-1.72,5.91l-1.4,6l-0.35,1.5c-0.1,0.5-0.18,1.01-0.27,1.51l-0.53,3.03l-0.53,3.03
			c-0.18,1.01-0.26,2.04-0.4,3.05c-0.24,2.04-0.51,4.07-0.73,6.12l-0.39,6.15c-0.18,2.05-0.15,4.11-0.16,6.16l-0.03,3.08
			c-0.01,1.03-0.04,2.06,0.04,3.08c0.58,16.45,3.49,32.82,8.28,48.66c-1.29-3.93-2.72-7.83-3.85-11.82l-1.6-6.01l-0.79-3.01
			l-0.63-3.05l-1.22-6.11c-0.36-2.05-0.59-4.11-0.89-6.17c-0.68-4.11-0.84-8.27-1.17-12.42c-0.1-1.04-0.09-2.08-0.11-3.12
			l-0.04-3.12c-0.02-2.08-0.08-4.17,0.08-6.25l0.31-6.24c0.19-2.07,0.44-4.15,0.66-6.22c0.13-1.03,0.19-2.08,0.38-3.1l0.53-3.08
			l0.53-3.08c0.09-0.51,0.17-1.03,0.27-1.54l0.35-1.52l1.4-6.1l1.72-6.02c2.49-7.96,5.58-15.73,9.31-23.19
			c3.74-7.45,8.08-14.6,12.96-21.33c4.85-6.76,10.26-13.11,16.07-19.04c2.91-2.97,5.95-5.79,9.08-8.52
			C97.15,214.18,100.38,211.57,103.81,209.24z"/>
	</g>
	<g class="st5">
		<path class="st1" d="M466.89,50.1c5.7-0.82,11.46-1.25,17.22-1.47c5.76-0.22,11.53-0.23,17.3,0c11.53,0.48,23.05,1.89,34.35,4.39
			c11.3,2.48,22.37,6.22,32.78,11.39c10.39,5.19,20.06,11.95,28.26,20.23c8.2,8.3,14.75,18.16,19.52,28.77
			c2.35,5.33,4.22,10.85,5.75,16.44c1.54,5.6,2.52,11.33,3.32,17.07c1.38,11.51,1.5,23.12,0.68,34.63
			c-0.23,2.88-0.56,5.75-0.83,8.62l-1.16,8.57l-1.43,8.52l-1.73,8.46c1.95-11.35,3.49-22.77,3.98-34.25
			c0.58-11.46,0.25-22.98-1.33-34.31l-0.71-4.23l-0.36-2.11l-0.45-2.09c-0.31-1.39-0.57-2.8-0.91-4.18l-1.08-4.14
			c-1.56-5.49-3.44-10.88-5.8-16.07c-4.73-10.35-11.13-19.95-19.16-28.02c-7.98-8.12-17.42-14.73-27.58-19.9
			c-10.16-5.2-21.06-8.91-32.17-11.62c-11.13-2.69-22.54-4.29-34-5.01C489.89,49,478.36,49.05,466.89,50.1z"/>
	</g>
	<g>
		<g>
			<path class="st9" d="M294.28,124.73h175.1c3.74,0,6.6,3.06,6.37,6.79l-14.28,230.06c-0.23,3.74-3.48,6.79-7.21,6.79h-175.1
				c-3.74,0-6.6-3.06-6.37-6.79l14.28-230.06C287.3,127.78,290.55,124.73,294.28,124.73z"/>
			<path class="st10" d="M294.28,124.73h175.1c3.74,0,6.6,3.06,6.37,6.79l-14.28,230.06c-0.23,3.74-3.48,6.79-7.21,6.79h-175.1
				c-3.74,0-6.6-3.06-6.37-6.79l14.28-230.06C287.3,127.78,290.55,124.73,294.28,124.73z"/>
		</g>
		<path class="st11" d="M290.26,124.73h175.1c3.74,0,6.6,3.06,6.37,6.79l-14.28,230.06c-0.23,3.74-3.48,6.79-7.21,6.79h-175.1
			c-3.74,0-6.6-3.06-6.37-6.79l14.28-230.06C283.28,127.78,286.52,124.73,290.26,124.73z"/>
		<polygon class="st10" points="278.26,355.95 448.69,357.99 462.52,135.18 291.96,135.18 		"/>
		<path class="st12" d="M273.28,353.69c57.53,0,115.07,0,172.6,0c9.51-87.1,12.43-134.13,13.73-221.23c-57.53,0-115.07,0-172.6,0
			C285.71,219.56,282.79,266.59,273.28,353.69z"/>
		<g>
			<path class="st13" d="M438.99,193.05h-29.72c-0.61,0-1.18-0.25-1.6-0.69c-0.42-0.44-0.63-1.03-0.59-1.64l1.84-29.72
				c0.07-1.16,1.03-2.06,2.19-2.06h29.72c0.61,0,1.18,0.25,1.6,0.69c0.42,0.44,0.63,1.03,0.59,1.64l-1.84,29.72
				C441.11,192.15,440.15,193.05,438.99,193.05z M411.61,188.66h25.32l1.57-25.33h-25.32L411.61,188.66z"/>
			<path class="st13" d="M436.18,238.32h-29.72c-0.61,0-1.18-0.25-1.6-0.69c-0.42-0.44-0.63-1.03-0.59-1.64l1.84-29.72
				c0.07-1.16,1.03-2.06,2.19-2.06h29.72c0.61,0,1.18,0.25,1.6,0.69c0.42,0.44,0.63,1.03,0.59,1.64l-1.84,29.72
				C438.3,237.42,437.34,238.32,436.18,238.32z M408.8,233.93h25.32l1.57-25.33h-25.32L408.8,233.93z"/>
			<path class="st13" d="M433.38,283.58h-29.72c-0.61,0-1.18-0.25-1.6-0.69c-0.42-0.44-0.63-1.03-0.59-1.64l1.84-29.72
				c0.07-1.16,1.03-2.06,2.19-2.06h29.72c0.61,0,1.18,0.25,1.6,0.69c0.42,0.44,0.63,1.03,0.59,1.64l-1.84,29.72
				C435.49,282.68,434.54,283.58,433.38,283.58z M405.99,279.2h25.32l1.57-25.33h-25.32L405.99,279.2z"/>
			<path class="st13" d="M430.57,328.85h-29.72c-0.61,0-1.18-0.25-1.6-0.69c-0.42-0.44-0.63-1.03-0.59-1.64l1.84-29.72
				c0.07-1.16,1.03-2.06,2.19-2.06h29.72c0.61,0,1.18,0.25,1.6,0.69c0.42,0.44,0.63,1.03,0.59,1.64l-1.84,29.72
				C432.68,327.95,431.73,328.85,430.57,328.85z M403.18,324.46h25.32l1.57-25.33h-25.32L403.18,324.46z"/>
			<path class="st13" d="M316.05,172.11h67.3c2.04,0,3.82-1.67,3.95-3.71l0,0c0.13-2.04-1.44-3.71-3.48-3.71h-67.3
				c-2.04,0-3.82,1.67-3.95,3.71l0,0C312.44,170.44,314.01,172.11,316.05,172.11z"/>
			<path class="st13" d="M327.91,187.31h54.51c2.04,0,3.82-1.67,3.95-3.71l0,0c0.13-2.04-1.44-3.71-3.48-3.71h-54.51
				c-2.04,0-3.82,1.67-3.95,3.71l0,0C324.3,185.64,325.87,187.31,327.91,187.31z"/>
			<path class="st13" d="M312.76,225.15h67.3c2.04,0,3.61,1.67,3.48,3.71l0,0c-0.13,2.04-1.9,3.71-3.95,3.71h-67.3
				c-2.04,0-3.61-1.67-3.48-3.71l0,0C308.94,226.82,310.72,225.15,312.76,225.15z"/>
			<path class="st13" d="M326.51,209.95h54.51c2.04,0,3.61,1.67,3.48,3.71l0,0c-0.13,2.04-1.9,3.71-3.95,3.71h-54.51
				c-2.04,0-3.61-1.67-3.48-3.71l0,0C322.69,211.62,324.46,209.95,326.51,209.95z"/>
			<path class="st13" d="M310.44,262.64h67.3c2.04,0,3.82-1.67,3.95-3.71l0,0c0.13-2.04-1.44-3.71-3.48-3.71h-67.3
				c-2.04,0-3.82,1.67-3.95,3.71l0,0C306.83,260.97,308.39,262.64,310.44,262.64z"/>
			<path class="st13" d="M349.72,277.85h27.08c2.04,0,3.82-1.67,3.95-3.71l0,0c0.13-2.04-1.44-3.71-3.48-3.71h-27.08
				c-2.04,0-3.82,1.67-3.95,3.71l0,0C346.11,276.18,347.67,277.85,349.72,277.85z"/>
			<path class="st13" d="M322.29,277.85h14.28c2.04,0,3.82-1.67,3.95-3.71l0,0c0.13-2.04-1.44-3.71-3.48-3.71h-14.28
				c-2.04,0-3.82,1.67-3.95,3.71l0,0C318.68,276.18,320.25,277.85,322.29,277.85z"/>
			<path class="st13" d="M307.63,307.91h67.3c2.04,0,3.82-1.67,3.95-3.71v0c0.13-2.04-1.44-3.71-3.48-3.71h-67.3
				c-2.04,0-3.82,1.67-3.95,3.71v0C304.02,306.24,305.58,307.91,307.63,307.91z"/>
			<path class="st13" d="M319.48,323.11h54.51c2.04,0,3.82-1.67,3.95-3.71l0,0c0.13-2.04-1.44-3.71-3.48-3.71h-54.51
				c-2.04,0-3.82,1.67-3.95,3.71l0,0C315.87,321.44,317.44,323.11,319.48,323.11z"/>
			<path class="st11" d="M422.65,184.92c-0.43,0-0.86-0.12-1.24-0.38l-11.45-7.82c-1-0.68-1.26-2.05-0.57-3.05
				c0.68-1,2.04-1.26,3.05-0.57l9.78,6.68c3.57-4.31,13.76-15.99,22.24-19.77c1.1-0.49,2.4,0,2.9,1.11c0.49,1.11,0,2.4-1.11,2.9
				c-9.25,4.12-21.74,19.91-21.87,20.07C423.94,184.63,423.3,184.92,422.65,184.92z"/>
			<path class="st11" d="M417.31,229.3c-0.55,0-1.1-0.21-1.52-0.61l-9.97-9.61c-0.87-0.84-0.9-2.23-0.06-3.1
				c0.84-0.87,2.23-0.9,3.1-0.06l8.49,8.18c4.2-3.75,15.97-13.76,24.84-16.18c1.17-0.32,2.38,0.37,2.7,1.54
				c0.32,1.17-0.37,2.38-1.54,2.7c-9.7,2.65-24.38,16.42-24.53,16.55C418.39,229.11,417.85,229.3,417.31,229.3z"/>
		</g>
		<path class="st10" d="M398.67,137.73l3.24,0.03c3.59,0.04,6.54-2.87,6.56-6.45l0.04-5.93c0-0.37-0.28-0.66-0.65-0.66h-9.02
			c-0.4,0-0.74,0.34-0.74,0.73l-0.08,11.61C398.02,137.44,398.31,137.73,398.67,137.73z"/>
		<g>
			<g>
				<path class="st9" d="M349.73,113.97h54.3c3.37,0,5.75,2.76,5.3,6.12l-1.63,12.1c-0.45,3.37-3.58,6.13-6.95,6.13h-54.3
					c-3.37,0-5.75-2.76-5.3-6.13l1.63-12.1C343.24,116.72,346.36,113.97,349.73,113.97z"/>
				<path class="st14" d="M349.73,113.97h54.3c3.37,0,5.75,2.76,5.3,6.12l-1.63,12.1c-0.45,3.37-3.58,6.13-6.95,6.13h-54.3
					c-3.37,0-5.75-2.76-5.3-6.13l1.63-12.1C343.24,116.72,346.36,113.97,349.73,113.97z"/>
			</g>
			<path class="st15" d="M402.63,119.82h-24.41c-0.91,0-1.65-0.74-1.65-1.64c0-0.91,0.74-1.65,1.65-1.65h24.41
				c0.91,0,1.65,0.74,1.65,1.65C404.27,119.08,403.53,119.82,402.63,119.82z"/>
			<path class="st15" d="M370.04,119.82h-2.58c-0.91,0-1.64-0.74-1.64-1.64c0-0.91,0.74-1.65,1.64-1.65h2.58
				c0.91,0,1.65,0.74,1.65,1.65C371.68,119.08,370.94,119.82,370.04,119.82z"/>
		</g>
	</g>
	<g>
		<g>
			<polygon class="st16" points="284.61,343.43 292.45,344.93 311,257.71 299.48,255.52 			"/>
			<polygon class="st17" points="312.18,197.16 321.58,194.08 322.23,190.66 313.47,190.39 			"/>
			<polygon class="st16" points="311.95,195.18 322.64,191.7 311.65,254.3 300.13,252.1 			"/>
			
				<rect x="300.18" y="253.17" transform="matrix(-0.9823 -0.1874 0.1874 -0.9823 557.9357 562.5754)" class="st17" width="10.77" height="3.47"/>
			<path class="st9" d="M286.02,353.76c-0.1,0.52,0.12,0.99,0.48,1.06c0.37,0.07,0.74-0.29,0.84-0.81c0.1-0.52-0.12-0.99-0.48-1.06
				C286.49,352.88,286.12,353.24,286.02,353.76z"/>
			<polygon class="st17" points="285.48,353.82 287.82,354.27 292.45,344.93 284.61,343.43 			"/>
			<path class="st17" d="M299.61,236.25c-0.14,0-0.28-0.03-0.42-0.09c-0.5-0.23-0.71-0.82-0.48-1.31
				c4.92-10.56,8.92-32.62,9.46-37.87c0.16-1.55,1.15-2.89,2.58-3.51l2.6-1.12c0.5-0.22,1.08,0.01,1.3,0.52
				c0.22,0.5-0.02,1.08-0.52,1.3l-2.6,1.12c-0.77,0.33-1.31,1.06-1.39,1.89c-0.56,5.51-4.54,27.57-9.64,38.51
				C300.34,236.04,299.99,236.25,299.61,236.25z"/>
		</g>
		<g>
			<g>
				<path class="st18" d="M263,194.11c-1.98,3.39-3.98,6.99-5.86,10.52c-0.93,1.78-1.84,3.57-2.71,5.35
					c-0.84,1.8-1.67,3.59-2.39,5.39l-0.13,0.33c0,0.01-0.01-0.01-0.02,0.01c-0.02,0.02-0.04,0.08-0.06,0.17
					c-0.04,0.17-0.06,0.45-0.05,0.78c0.01,0.66,0.14,1.49,0.34,2.33c0.41,1.71,1.02,3.55,1.75,5.37c0.71,1.83,1.52,3.67,2.36,5.51
					c0.82,1.84,1.74,3.69,2.62,5.49l-3.77,2.58c-2.81-3.3-5.29-6.73-7.49-10.55c-1.07-1.92-2.1-3.9-2.9-6.17
					c-0.39-1.14-0.75-2.34-0.95-3.75c-0.1-0.71-0.15-1.47-0.09-2.33c0.03-0.43,0.08-0.88,0.19-1.37c0.04-0.23,0.12-0.5,0.19-0.74
					l0.13-0.41c1.3-4.24,2.97-8.22,4.81-12.09c1.87-3.88,3.86-7.56,6.19-11.27L263,194.11z"/>
				<path class="st18" d="M258.29,234.21l3.55,2.76l-5.42,4.48c0,0-2.48-2.39-2.09-5.32L258.29,234.21z"/>
				<polygon class="st18" points="263.29,241.02 259.67,245.67 256.42,241.46 261.84,236.98 				"/>
				<path class="st17" d="M283.48,160.97c0.1,0.48,0.43,0.82,0.75,0.76c0.31-0.06,0.49-0.51,0.39-0.99
					c-0.1-0.48-0.43-0.82-0.75-0.76C283.56,160.05,283.38,160.49,283.48,160.97z"/>
				<path class="st19" d="M283.87,161.8c0,0,1.66,2.55,3.14,3.65c-0.69,0.97-2.21,0.9-2.21,0.9L283.87,161.8z"/>
				<path class="st17" d="M281.17,158.66c-0.07,0-0.14-0.03-0.2-0.08c-0.12-0.11-0.12-0.29-0.02-0.41c1.08-1.17,2.4-0.96,2.45-0.95
					c0.16,0.03,0.26,0.18,0.24,0.33c-0.03,0.16-0.18,0.26-0.33,0.24l0,0c-0.04-0.01-1.07-0.16-1.93,0.78
					C281.33,158.63,281.25,158.66,281.17,158.66z"/>
				<path class="st18" d="M269.77,167.74c0.87,4.45,1.74,12.62-1.37,15.59c0,0,1.22,4.52,9.49,4.52c9.1,0,4.35-4.52,4.35-4.52
					c-4.97-1.19-4.84-4.87-3.97-8.33L269.77,167.74z"/>
				<path class="st17" d="M266.64,183.67c-0.66-1.57,0.76-6.34,2.26-6.81c1.66-0.51,7.97-0.23,11.1,1.08
					c2.23,2.26,2.87,6.95,2.87,6.95L266.64,183.67z"/>
				<path class="st9" d="M240.64,391.82c0.61,0.13,1.22,0.17,1.52-0.08c0.12-0.11,0.25-0.31,0.14-0.67
					c-0.06-0.19-0.18-0.33-0.37-0.42c-0.82-0.39-2.71,0.38-2.79,0.41c-0.05,0.02-0.09,0.07-0.09,0.13c0,0.06,0.03,0.11,0.08,0.13
					C239.41,391.45,240.03,391.68,240.64,391.82z M241.63,390.84c0.06,0.01,0.12,0.03,0.17,0.06c0.11,0.05,0.19,0.14,0.22,0.25
					c0.08,0.26-0.02,0.34-0.05,0.37c-0.33,0.28-1.54,0.02-2.4-0.32C240.15,390.99,241.09,390.73,241.63,390.84z"/>
				<path class="st9" d="M239.16,391.32c0.02,0.01,0.05,0,0.07,0c0.69-0.2,2.16-1.25,2.18-1.94c0-0.13-0.04-0.35-0.37-0.47
					c-0.21-0.07-0.43-0.06-0.64,0.05c-0.81,0.42-1.33,2.1-1.35,2.17c-0.02,0.05,0,0.11,0.04,0.14
					C239.11,391.3,239.13,391.32,239.16,391.32z M240.88,389.17c0.02,0,0.04,0.01,0.06,0.02c0.18,0.06,0.18,0.15,0.17,0.19
					c-0.01,0.41-0.98,1.23-1.69,1.56c0.18-0.49,0.58-1.45,1.11-1.71C240.65,389.16,240.76,389.15,240.88,389.17z"/>
				<path class="st9" d="M284.59,392.84c0.78,0,1.54-0.11,1.79-0.46c0.09-0.12,0.16-0.33-0.01-0.63c-0.1-0.17-0.25-0.28-0.46-0.34
					c-1.01-0.28-3.14,0.94-3.23,0.99c-0.05,0.03-0.08,0.09-0.07,0.15c0.01,0.06,0.06,0.11,0.11,0.12
					C283.11,392.74,283.87,392.84,284.59,392.84z M285.56,391.66c0.1,0,0.2,0.01,0.28,0.03c0.13,0.04,0.23,0.1,0.28,0.2
					c0.1,0.18,0.06,0.27,0.03,0.32c-0.28,0.39-1.82,0.4-2.95,0.24C283.76,392.16,284.85,391.66,285.56,391.66z"/>
				<path class="st9" d="M282.75,392.67c0.02,0,0.04,0,0.06-0.01c0.73-0.33,2.19-1.65,2.08-2.34c-0.03-0.16-0.14-0.36-0.54-0.4
					c-0.3-0.03-0.56,0.05-0.8,0.25c-0.77,0.64-0.94,2.28-0.95,2.35c0,0.05,0.02,0.1,0.06,0.13
					C282.7,392.66,282.72,392.67,282.75,392.67z M284.24,390.2c0.03,0,0.06,0,0.09,0c0.26,0.03,0.28,0.13,0.28,0.16
					c0.07,0.41-0.92,1.45-1.67,1.9c0.08-0.48,0.3-1.46,0.8-1.88C283.89,390.26,284.06,390.2,284.24,390.2z"/>
				<polygon class="st18" points="276.06,392.53 282.15,392.53 282.75,378.43 276.67,378.43 				"/>
				<polygon class="st18" points="232.12,389.71 238.23,391 242.55,377.86 236.43,376.57 				"/>
				<path class="st17" d="M238.89,390.4l-6.69-1.45c-0.24-0.05-0.49,0.07-0.59,0.3l-2.32,5.04c-0.24,0.52,0.08,1.13,0.64,1.25
					c2.34,0.47,3.51,0.57,6.45,1.21c1.81,0.39,5.89,1.39,8.39,1.93c2.44,0.53,3.36-1.86,2.38-2.3c-4.37-2-6.19-3.75-7.38-5.39
					C239.57,390.68,239.25,390.47,238.89,390.4z"/>
				<path class="st17" d="M282.11,391.82h-6.65c-0.25,0-0.46,0.17-0.52,0.42l-1.2,5.41c-0.12,0.56,0.3,1.09,0.88,1.08
					c2.4-0.04,5.86-0.18,8.88-0.18c3.53,0,2.16,0.19,6.29,0.19c2.5,0,3.19-2.53,2.15-2.76c-4.76-1.04-4.24-1.15-8.36-3.69
					C283.13,392.02,282.63,391.82,282.11,391.82z"/>
				<g>
					<path class="st17" d="M257.5,184.71c-5.71,1.31-10.41,15.88-10.41,15.88l11.46,8.73c0,0,4.21-3.97,6.08-11.25
						C266.58,190.43,263.33,183.37,257.5,184.71z"/>
				</g>
				<path class="st5" d="M262.39,195.42c-3.1,3.07-4.11,8.65-4.35,13.51l0.51,0.39c0,0,4.21-3.97,6.08-11.26
					c0.12-0.46,0.22-0.91,0.3-1.36L262.39,195.42z"/>
				<g>
					<path class="st17" d="M291.61,185.02c0,0,6.48,7.32,0.36,52.63c-9.81,0-27.79,0-32.57,0c-0.22-5,2.92-29.39-1.9-52.94
						c0,0,5.58-1.12,10.9-1.38c4.16-0.2,10.19-0.33,13.84,0C287.07,183.77,291.61,185.02,291.61,185.02z"/>
				</g>
				<g>
					<polygon class="st5" points="282.75,378.43 282.44,385.7 276.35,385.7 276.66,378.43 					"/>
					<polygon class="st5" points="236.43,376.58 242.55,377.87 240.32,384.63 234.2,383.35 					"/>
				</g>
				<path class="st18" d="M267.22,163.22c1.56,5.84,2.18,9.33,5.79,11.76c5.42,3.65,12.16-0.54,12.37-6.73
					c0.19-5.57-2.4-14.18-8.66-15.35C270.55,151.74,265.66,157.38,267.22,163.22z"/>
				<g>
					<path class="st18" d="M273.04,174.3c-0.03,0-0.05,0-0.08,0c-1.91,0-3.71-0.9-4.82-2.45c-1.83-2.55-4.4-6.97-4.69-12.09
						c2.32-2.45,11.04-4.06,14.93-3.18c3.24,0.74,2.77,9.95-0.3,14.93C277.01,173.25,275.08,174.29,273.04,174.3z"/>
					<path class="st20" d="M273.04,174.3c-0.03,0-0.05,0-0.08,0c-1.91,0-3.71-0.9-4.82-2.45c-1.83-2.55-4.4-6.97-4.69-12.09
						c2.32-2.45,11.04-4.06,14.93-3.18c3.24,0.74,2.77,9.95-0.3,14.93C277.01,173.25,275.08,174.29,273.04,174.3z"/>
				</g>
				<path class="st17" d="M266.98,161.84c-2.74-0.2-4.29-1.92-4.79-3.4c-0.69-2.06,0.04-6.43,4.2-6.56c4.15-0.13,4.59-2.5,3.31-2.98
					c2.72,0.2,1.85,2.1,1.85,2.1c0.73,0.04,1.41-1.94,5.54-1.79c4.13,0.15,6.18-0.73,5.65-1.66c1.97,0.4,1.41,2.78-0.24,3.42
					c0,0,3.93,2.98,4.86,1.35c0.66,1.19-0.64,2.62-5.61,1.97c1.98,2.77-2.71,2.15-4.71,3.41
					C275.05,158.96,269.72,162.03,266.98,161.84z"/>
				<path class="st18" d="M277.15,162.94c0.4,1.53,1.4,2.85,2.46,3.63c1.58,1.18,2.77,0.02,2.66-1.77c-0.1-1.61-1.05-4.17-2.8-4.65
					C277.75,159.68,276.7,161.19,277.15,162.94z"/>
				<path class="st17" d="M280.42,237.65c0,0-6.91,46.53-10.7,63.96c-4.15,19.09-26.43,82.25-26.43,82.25l-10.9-2.36
					c0,0,15.58-51.47,19.06-78.16c2.68-20.5,7.96-65.69,7.96-65.69H280.42z"/>
				<path class="st9" d="M245.89,380.22c0.05,0.01-2.03,3.94-2.03,3.94l-12.26-2.65l1.03-3.69L245.89,380.22z"/>
				<path class="st21" d="M276.05,254.23c-7.99,1.57-7.14,31.36-6.18,46.69c2.3-10.83,5.68-31.68,7.98-46.47
					C277.32,254.18,276.72,254.09,276.05,254.23z"/>
				<path class="st17" d="M291.97,237.65c0,0,0.84,45.52,0.18,64.09c-0.69,19.31-7.43,82.55-7.43,82.55H274.4
					c0,0-0.38-62.11-0.84-81.08c-0.5-20.68-3-65.57-3-65.57H291.97z"/>
				<path class="st9" d="M286.7,380.18c0.05,0-0.58,4.28-0.58,4.28h-12.55l-0.34-3.82L286.7,380.18z"/>
				<path class="st11" d="M291.76,184.21c1.6,0.67,3.13,1.85,3.59,5.78c0.44,3.78-0.41,36.87-1.45,47.43
					c-0.07,0.73-0.61,1.42-1.34,1.45c-6.51,0.28-26.68-2.44-33.48-1.24c-0.78,0.14-1.48-0.73-1.44-1.53
					c0.54-10.3-0.24-26.9-1.49-37.46c-0.82-6.89-0.83-14.1,4.96-15.32C265.37,182.42,285.54,181.62,291.76,184.21z"/>
				<path class="st18" d="M294.28,193.36c0.36,1.75,0.76,3.65,1.19,5.46c0.45,1.83,0.89,3.65,1.4,5.43c0.5,1.79,1.03,3.55,1.64,5.22
					c0.6,1.67,1.27,3.3,2.03,4.6c0.36,0.64,0.76,1.22,1.06,1.56c0.15,0.17,0.27,0.27,0.3,0.31c0,0.01-0.01,0.07,0.16,0.12
					c0.28,0.12,0.9,0.23,1.61,0.2c0.71-0.02,1.52-0.11,2.35-0.25c3.35-0.61,7.04-1.85,10.54-3.1l2.31,3.94
					c-3.31,2.57-6.73,4.69-10.91,6.23c-1.05,0.38-2.16,0.7-3.39,0.91c-1.23,0.2-2.59,0.34-4.22,0.07c-0.79-0.12-1.73-0.43-2.58-0.88
					c-0.82-0.45-1.47-0.96-2.02-1.47c-1.11-1.02-1.87-2.04-2.55-3.04c-2.56-4.01-3.91-7.89-5.18-11.82c-0.6-1.96-1.15-3.92-1.6-5.9
					c-0.46-1.99-0.89-3.91-1.23-6.01L294.28,193.36z"/>
				<g>
					<path class="st17" d="M280.89,190.97c-4.95,9.95,6.8,21.18,6.8,21.18l13.1-6.84c0,0-1.38-8.49-4.47-15.36
						C292.5,181.48,283.73,185.25,280.89,190.97z"/>
				</g>
				<path class="st18" d="M315.35,213.5l4.44-2.92l1.85,6.65c0,0-1.99,2.33-5.63-0.21L315.35,213.5z"/>
				<path class="st18" d="M323.67,213.27l-0.14,1.39c-0.07,0.67-0.39,1.29-0.91,1.73l-0.97,0.83l-1.85-6.65l0.57-0.15
					C322.15,209.98,323.85,211.43,323.67,213.27z"/>
			</g>
		</g>
	</g>
</g>
</svg>
