<?xml version="1.0" encoding="utf-8"?>
<!-- Generator: Adobe Illustrator 25.0.0, SVG Export Plug-In . SVG Version: 6.00 Build 0)  -->
<svg version="1.1" id="Capa_1" xmlns="http://www.w3.org/2000/svg" xmlns:xlink="http://www.w3.org/1999/xlink" x="0px" y="0px"
	 viewBox="0 0 573.43 385.71" style="enable-background:new 0 0 573.43 385.71;" xml:space="preserve">
<style type="text/css">
	.st0{opacity:0.15;}
	.st1{fill:#6C63FE;}
	.st2{fill:#B5453C;}
	.st3{fill:#233862;}
	.st4{fill:#82B378;}
	.st5{fill:#A8D29F;}
	.st6{opacity:0.74;}
	.st7{opacity:0.8;}
	.st8{fill:#FFFFFF;}
	.st9{fill:#1F426D;}
	.st10{fill:#2E2D3F;}
	.st11{fill:#ED985F;}
	.st12{fill:#181919;}
	.st13{fill:#FFB27D;}
	.st14{fill:#4D4DF4;}
	.st15{fill:#222B55;}
	.st16{fill:#ED7D2B;}
	.st17{fill:#F99746;}
	.st18{fill:#AA413E;}
	.st19{fill:#C65447;}
	.st20{fill:#163560;}
	.st21{fill:#9C5F33;}
	.st22{fill:#80BDCC;}
	.st23{fill:#E7F0FD;}
	.st24{fill:#5F9AA8;}
	.st25{fill:#AB7041;}
	.st26{fill:#415DA5;}
	.st27{fill:#2B478B;}
	.st28{opacity:0.43;}
	.st29{opacity:0.87;}
	.st30{fill:#D0E0F7;}
	.st31{opacity:0.2;}
</style>
<g>
	<g class="st0">
		<ellipse class="st1" cx="292.01" cy="184.77" rx="239.89" ry="153.57"/>
	</g>
	<g>
		<path class="st2" d="M434.32,281.55h19.67c0,0,0.74-3.14-0.56-5.27c-1.14-1.89-0.7-2.96,0.14-4.53c-0.89,0.36-2.04,0.7-3.31,0.62
			c-0.98-0.06-2.02-0.5-2.92-1.03c-0.85,0.96-4.47,5.07-5.6,5.89C440.44,278.15,434.71,277.82,434.32,281.55z"/>
	</g>
	<g>
		<path class="st3" d="M440.14,256.51l4.2,15.59c0,0,8.15,2.17,10.95,0l-0.94-17.09L440.14,256.51z"/>
	</g>
	<g>
		<path class="st4" d="M516.49,282.36h-49.3c-15.94,0-28.87-12.92-28.87-28.87v0c0-15.94,12.92-28.87,28.87-28.87h49.29
			c15.94,0,28.87,12.92,28.87,28.87v0C545.36,269.43,532.43,282.36,516.49,282.36z"/>
	</g>
	<g>
		<path class="st5" d="M516.49,282.36h-24.91c-15.94,0-28.87-12.92-28.87-28.87v0c0-15.94,12.92-28.87,28.87-28.87h24.91
			c15.94,0,28.87,12.92,28.87,28.87v0C545.36,269.43,532.43,282.36,516.49,282.36z"/>
	</g>
	<g>
		<g class="st6">
			<path class="st1" d="M343.52,245.64H210.29c-34.98,0-63.34-28.36-63.34-63.34v-36.87c0-34.47,27.95-62.42,62.42-62.42h134.16
				c34.98,0,63.34,28.36,63.34,63.34v35.95C406.87,217.28,378.51,245.64,343.52,245.64z"/>
		</g>
		<g class="st7">
			<path class="st8" d="M401.18,100.12v125.71c0,8.71-7.06,15.76-15.76,15.76H167.04c-7.95,0-14.4-6.45-14.4-14.4V99.92
				c0-7.37,6.13-13.35,13.7-13.35h220.95C394.96,86.57,401.18,92.63,401.18,100.12z"/>
		</g>
		<g class="st6">
			<path class="st1" d="M401.18,100.47v1.98H152.64v-2.18c0-7.57,6.13-13.7,13.7-13.7h220.95
				C394.96,86.57,401.18,92.79,401.18,100.47z"/>
		</g>
		<g class="st6">
			<path class="st1" d="M401.18,227.69v-1.98H152.64v2.18c0,7.57,6.13,13.7,13.7,13.7h220.95
				C394.96,241.59,401.18,235.37,401.18,227.69z"/>
		</g>
	</g>
	<g>
		<g>
			<path class="st9" d="M136.14,276.36c0,0,5.19,2.75,6.92,3.08c2.12,0.4,3.61,0.35,3.61,2.76h-16.18c0,0-1.53-2.93-0.69-4.69
				C130.64,275.75,136.14,276.36,136.14,276.36z"/>
		</g>
		<g>
			<path class="st9" d="M164.13,275.66c0,0,5.19,2.57,6.8,3.27c1.98,0.86,3.97,0.18,4.17,3.27h-14.19c0,0-1.53-2.93-0.69-4.69
				S164.13,275.66,164.13,275.66z"/>
		</g>
		<g>
			<path class="st10" d="M125.05,259.93l12.16,17.13c0,0-3.82,2.04-8.85,0.82c0,0-13.89-10.22-12.97-12.89
				C116.3,262.32,125.05,259.93,125.05,259.93z"/>
		</g>
		<g>
			<path class="st10" d="M63.88,271.48c0,0-0.24,10.72,6.78,10.72c7.02,0,18.62,0.01,18.62,0.01l-1.98-19.12L63.88,271.48z"/>
		</g>
		<g>
			<path class="st11" d="M75.39,218.06c-0.63,3.51-2.04,7.41-5.15,9.24c-4.49,2.64-13.16-3.87-17.86-7.91
				c1.03-0.27,2.18-0.56,3.41-0.83c0.96-1.79,2.13-4.85,2-8.86c-0.01-0.34-0.03-0.67-0.06-1.02c0.64-0.34,1.85-0.99,3.15-1.67
				l6.26,3.03c0,0,0.18,0.79,0.38,2.26c0.11,0.8,0.23,1.8,0.33,2.99c0.05,0.56,0.09,1.16,0.13,1.79c0.17,0,0.34,0,0.51,0.01
				C70.9,217.13,73.25,217.42,75.39,218.06z"/>
		</g>
		<g>
			<path class="st11" d="M52.38,219.39c0,0-9.29,1.93-10.76,5.82c-2.2,5.8,3.05,26.41,3.05,32.45c0,6.04-0.41,16.94,1.22,22.34h2.78
				c0,0,3.37-18.38,3.37-21.27C52.04,255.84,52.38,219.39,52.38,219.39z"/>
		</g>
		<g>
			<path class="st12" d="M131.67,254.9c0,0-3.39,2.91-8.32,6.86c-0.34,0.27-0.69,0.55-1.04,0.83v0c0,0,0,0,0,0
				c-10.99,8.73-28.46,21.6-34.29,20.19c-6.88-1.65-3.94-14.23-2.38-19.51c0.43-1.43,0.75-2.33,0.75-2.33
				c0-1.02,32.15-13.67,38.66-11.92c1.06,0.28,1.95,0.63,2.7,1.01c1.78,0.91,2.75,2.02,3.28,2.95
				C131.65,254.06,131.67,254.9,131.67,254.9z"/>
		</g>
		<g>
			<path class="st12" d="M166.91,276.13c-0.79,2.49-7.86,3.66-7.86,3.66c-23.02-5.42-33.2-13.68-36.74-17.2c0,0,0,0,0,0
				c-0.93-0.92-1.4-1.52-1.53-1.65l6.97-10.91c1.1,1.02,2.2,2,3.28,2.95C150.27,269.78,166.91,276.13,166.91,276.13z"/>
		</g>
		<g>
			<path class="st11" d="M45.89,279.99c0,0-4.37-0.17-6.28,0.44c-1.91,0.61-3.66,1.76-3.66,1.76h12.6l0.12-2.2H45.89z"/>
		</g>
		<g>
			<path class="st13" d="M75.38,218.06c0,0,19.96,19.56,25.45,21.76c5.49,2.2,25.29,6.68,25.29,6.68l-1.07,2.53
				c0,0-22.73-0.08-26.93-1.51c-4.2-1.42-23.89-12.82-25.03-16.69C71.94,226.96,75.38,218.06,75.38,218.06z"/>
		</g>
		<g>
			<path class="st10" d="M122.31,262.59c-10.99,8.73-28.46,21.6-34.29,20.19c-6.88-1.65-3.94-14.23-2.38-19.51l1.67-0.2
				C87.3,263.08,102.68,266.78,122.31,262.59z"/>
		</g>
		<g>
			<path class="st10" d="M159.05,279.79c-23.02-5.42-33.2-13.68-36.74-17.2v0c0.03-0.05,0.33-0.45,1.04-0.83
				C126.11,260.27,135.11,259.03,159.05,279.79z"/>
		</g>
		<g>
			<path class="st14" d="M97.38,237.69c0,0-0.36,1.15-1.27,2.57c-1.06,1.64-2.85,3.62-5.7,4.6l-8.9-5.97l0,0.01
				c0.05,0.24,1.61,7.87,2.52,9.07c0.92,1.22,9.26,9.71,9.26,9.71s-2.8,6.16-8.46,11.53c-5.49,5.21-13.66,9.67-24.59,7.04
				c0,0-7.98-22.87-7.85-27.23c0,0-0.04-0.01-0.11-0.03c-1.13-0.27-10.46-2.58-10.99-5.45c0,0-1.15-9.97-0.52-16.12
				c0.23-2.25,0.7-3.99,1.55-4.54c3.18-2.03,12.26-4.05,12.26-4.05s3.01,2.36,9.05,0.98c1.46-0.33,2.63-0.66,3.58-0.96
				c2.98-0.94,3.68-1.64,3.68-1.64s5.51-0.07,8.56,2.67C82.49,222.64,97.38,237.69,97.38,237.69z"/>
		</g>
		<g>
			<path class="st14" d="M96.1,240.26c-1.06,1.64-2.85,3.62-5.7,4.6l-8.9-5.97C82.83,237.09,92.58,239.37,96.1,240.26z"/>
		</g>
		<g>
			<path class="st1" d="M93.28,257.68c0,0-2.8,6.16-8.46,11.53c-5.49,5.21-13.66,9.67-24.59,7.04c0,0-7.98-22.87-7.85-27.23
				c0,0-0.04-0.01-0.11-0.03c-1.13-0.27-10.46-2.58-10.99-5.45c0,0-1.15-9.97-0.52-16.12c0.23-2.25,0.7-3.99,1.55-4.54
				c3.18-2.03,12.26-4.05,12.26-4.05s3.01,2.36,9.05,0.98c1.46-0.33,2.63-0.66,3.58-0.96c1.66,0.51,3.76,0.56,5.65,0.53
				c3.1-0.05,2.24,21.56,3.74,27.74C78.08,253.3,93.28,257.68,93.28,257.68z"/>
		</g>
		<g>
			<path class="st13" d="M67.85,215.29c0.05,0.56,0.09,1.16,0.13,1.79c-2.09-0.65-2.71-5.07-2.71-5.07
				c0.92-0.18,1.66-0.04,2.24,0.29C67.63,213.1,67.75,214.1,67.85,215.29z"/>
		</g>
		<g>
			<path class="st13" d="M68.49,217.09c-0.15,0.05-0.32,0.05-0.51-0.01C68.15,217.08,68.32,217.08,68.49,217.09z"/>
		</g>
		<g>
			<path class="st13" d="M68.6,212.66c0,0-11.12,1.28-11.81-5.66c-0.69-6.94-2.59-11.44,4.48-12.55c7.07-1.11,8.71,1.4,9.51,3.66
				C71.57,200.37,71.47,212.15,68.6,212.66z"/>
		</g>
		<g>
			<path class="st15" d="M72.96,192.37c0,0,1.07,4.93-2.98,7.3c-4.04,2.37-4.35,4.73-5.65,4.27c-1.3-0.46-3.05,0.08-2.29,1.37
				s1.4,2.08,1.58,2.8c0.18,0.71-2.34,4.07-3.94,4.15c-1.6,0.08-2.59,0.86-4.12-5.26c-1.53-6.11-2.88-10.45,0.48-13.41
				C60.54,189.62,71.66,193.16,72.96,192.37z"/>
		</g>
		<g>
			<path class="st13" d="M126.12,246.5c0,0,5.85,2.28,6.46,2.36c0.61,0.08,1.25,6.51,1.25,6.51l-8.78-6.35L126.12,246.5z"/>
		</g>
	</g>
	<g>
		<path class="st2" d="M399.79,281.55h22.38c0,0,0.84-3.57-0.63-6c-1.3-2.15-0.8-3.37,0.16-5.15c-1.01,0.42-2.33,0.79-3.77,0.71
			c-1.12-0.06-2.29-0.57-3.33-1.17c-0.96,1.1-5.09,5.77-6.38,6.7C406.76,277.68,400.24,277.31,399.79,281.55z"/>
	</g>
	<g>
		<path class="st10" d="M500.43,209.41c0,0-22.29-2.91-32.24-0.41c-1.43,0.36-2.54,0.93-3.4,1.64
			c-9.02,4.37-33.17,16.25-37.03,20.11c-0.55,0.55-0.85,1.09-0.95,1.62c-0.14,0.03-0.21,0.04-0.21,0.04s-7.87,28-16.1,41.21
			c0,0,7.89,2.45,12.22,0.51c0,0,13.76-19.2,16.83-30.45c0.9-3.3,3.33-5.98,6.56-7.11c10.93-3.82,17.54-6.51,21.48-8.31
			c4.23-1.92,8.8-2.96,13.45-3.05c3.75-0.07,7.67-0.23,11.18-0.49C502.96,223.91,500.43,209.41,500.43,209.41z"/>
	</g>
	<g>
		<path class="st16" d="M500.69,173.14c-1.34,5.24-0.73,24.49,0.47,30.29c1.03,4.98-2.06,9.88-7.02,11.05
			c-5.98,1.41-12.69,1.69-17.8,0.7c-4.76-0.92-8.11-2.95-8.15-6.19c-0.05-3.68,0.59-7.09,1.12-10.29c0.53-3.25,0.94-6.28,0.38-9.16
			c-0.59-3.03-2.09-12.18-2.11-19.57c0-0.15,0-0.3,0-0.45c0.02-3.34,0.35-6.28,1.23-8.05c0.08-0.17,0.19-0.32,0.31-0.47
			c0.27-0.32,0.62-0.57,1.05-0.79c0.35-0.17,0.74-0.32,1.18-0.43c0.86-0.23,1.89-0.35,3.01-0.4c1.21-0.06,2.54-0.04,3.91,0.02
			c1.37,0.89,6.6,4.23,8.74,3.81C487.03,163.21,504.21,159.35,500.69,173.14z"/>
	</g>
	<g>
		<path class="st17" d="M476.35,215.18c-4.76-0.92-8.11-2.95-8.15-6.19c-0.05-3.68,0.59-7.09,1.12-10.29
			c0.49-0.71,1.08-1.36,1.76-1.96C471.07,196.74,477.59,209.79,476.35,215.18z"/>
	</g>
	<g>
		<g>
			<g>
				<path class="st4" d="M312.03,123.97c-1.34,1.14-4.07,3.28-5.15,4.19l2.75,34.43l-28.33-12.67l-5.15,4.19
					c-0.68,2.71-1.05,5.55-1.05,8.48c0,19.07,15.46,34.54,34.54,34.54s34.54-15.46,34.54-34.54S331.11,123.97,312.03,123.97z"/>
			</g>
			<g>
				<path class="st18" d="M300.96,121.07c-14.92,1.18-27.17,11.83-30.73,25.95l33.49,8.48l5.15-4.19L300.96,121.07z"/>
			</g>
		</g>
		<g>
			<g>
				<path class="st5" d="M314.78,123.86c-0.93,0-1.84,0.04-2.75,0.11l2.75,34.43l-33.49-8.48c-0.68,2.71-1.05,5.55-1.05,8.48
					c0,19.07,15.46,34.54,34.54,34.54c19.07,0,34.54-15.46,34.54-34.54S333.86,123.86,314.78,123.86z"/>
			</g>
			<g>
				<path class="st19" d="M306.11,116.89c-14.92,1.18-27.17,11.83-30.73,25.95l33.49,8.48L306.11,116.89z"/>
			</g>
		</g>
	</g>
	<g>
		<g>
			<g>
				<g>
					<path class="st13" d="M351.33,279.91c0,0,4.39-5.02,5.64-7.31l3.42-6.31l4.48,1.11l-5.68,8.05l-5.93,5.02L351.33,279.91z"/>
				</g>
				<g>
					<path class="st20" d="M379.63,156.54c1.03-0.59,2.27-0.65,3.13-0.6c-0.22-0.23-0.66-0.31-0.66-0.31
						c0.54-0.08,1.73,0.45,1.73,0.45c7.46-2.88,8.64,8.11,8.48,10.67c-0.16,2.55,2.51,3.39,6.39,5.4c7.41,3.84,8.06,8.98,8.06,8.98
						c-0.06,0.03-0.12,0.07-0.18,0.12c-0.37-0.62-1.12-1.79-1.76-1.97c0.02,0.06,0.75,1.61,1.03,2.5c-2.19,1.66-6.27,5.35-9.13,7.96
						c0.01-0.51-0.01-1.24-0.19-1.62l-0.35,2.12c-1.53,1.4-2.58,2.39-2.58,2.39c0.19-2.06-9.33-12.95-14.3-16.21
						c-1.21-1.78-1.64-4.92-1.67-5.17c0.21,2.49,0.64,3.89,1.02,4.68C374.45,172.04,376.9,158.09,379.63,156.54z"/>
				</g>
				<g>
					<path class="st21" d="M379.6,176.57c-0.02,0.01,2.4,1.27,4.22,0.77c1.71-0.47,2.83-2.69,2.81-2.7
						c-0.73-0.14-0.94-1.14-0.92-5.43l-0.33,0.06l-5.52,1.09c0,0,0.13,1.74,0.13,3.37C380,175.12,379.92,176.42,379.6,176.57z"/>
				</g>
				<g>
					<path class="st5" d="M385.84,158.34c0,0-2.72-2.9-6.14-0.15C379.7,158.19,381.69,157.85,385.84,158.34z"/>
				</g>
				<g>
					<path class="st20" d="M385.95,168.68c0,0,1.62-2.56,2.01-4.74c0.28-1.56-0.52-7.35-6.33-6.51c0,0-1.69,0.17-3.28,1.24
						c-1.26,0.85-3.08,2.69-1.05,7.74l0.53,1.71L385.95,168.68z"/>
				</g>
				<g>
					<path class="st22" d="M357.87,270.4l2.93,0.09l3.17,0.1c0,0,7.31-8.14,11.42-21.2c0.1-0.3,0.2-0.61,0.3-0.92
						c2.25-6.55,6.9-14.76,9.35-22.2c0.39-1.19,0.74-2.3,1.06-3.36c0.1-0.34,0.2-0.67,0.29-1c1.81-6.28,2.33-10.4,2.81-14.81
						l-17.71,0.14C371.48,207.24,368.62,237.32,357.87,270.4z"/>
				</g>
				<g>
					<path class="st23" d="M372.73,209.1c0,0,7.58,3.85,16.6,1.02c0.11-0.03-0.6-34.84-3.15-35.8c-0.59,0.73-2.33,1.46-3.89,1.43
						c-1.8-0.04-2.38-0.81-2.28-1.65c-1.91,1.06-3.44,2.07-3.44,2.07C374.93,179,372.73,209.1,372.73,209.1z"/>
				</g>
				<g>
					<path class="st24" d="M389.2,198c0.77,1.1,2.26,7.76,5.95,8.59c-1.9-4.75-3.35-6.83-3.57-8.29c-0.42-2.72-0.43-5.54-0.22-8.2
						c-1.24-2.17-2.16-3.65-2.16-3.65c-0.1-0.35-1.96-6.13-2.56-0.96C386.04,190.65,388.33,196.77,389.2,198z"/>
				</g>
				<g>
					<path class="st25" d="M378.83,171.92c0,0,7.31,0.12,7.31-4.43c0.01-4.55,0.95-7.6-3.71-7.87c-4.66-0.27-5.57,1.47-5.94,2.99
						C376.12,164.13,376.93,171.77,378.83,171.92z"/>
				</g>
				<g>
					<path class="st20" d="M379.11,159.51c0,0,2,5.34,5.07,6.13c3.07,0.79,4.4-0.03,4.4-0.03s-0.67-3.02-1.15-6.29
						C387.42,159.32,380.61,156.97,379.11,159.51z"/>
				</g>
				<g>
					<path class="st20" d="M379.6,159.94c0,0-1.49,1.19-1.86,2.35c-0.36,1.16-0.53,3.54-1.22,3.46c0,0-1.51-3.63,0.19-5.68
						C378.5,157.9,379.6,159.94,379.6,159.94z"/>
				</g>
				<g>
					<path class="st25" d="M349.43,179.48c0,0-1.03-3.71-5.11-3.19c-0.47,0.15-1.84,0.69-0.96,2.16c0.64,1.08,0.92,0.52,1.94,1.97
						c1.01,1.45,2.12,1.78,3.37,1.61L349.43,179.48z"/>
				</g>
				<g>
					<path class="st13" d="M384.31,279.16c0.25-1.37,0.72-3.73,0.72-3.73l-0.11-8.39h5.1l-1.91,8.03c-0.04,0.37-0.14,1.82,0.39,3.35
						c0,0,0.49,2.23-1.71,2.27C384.6,280.74,384.06,280.53,384.31,279.16z"/>
				</g>
				<g>
					<path class="st3" d="M384.1,281.78h4.57c0.23-1.19-0.17-3.36-0.17-3.36c-2.49,2.41-4.04-0.06-4.04-0.06
						C384.09,279.31,384.1,281.43,384.1,281.78z"/>
				</g>
				<g>
					<path class="st3" d="M349.2,281.8h5.63c0.49-0.45,0.96-1.35,1.53-2.52c0.33-0.68,1.07-1.05,1.83-1.26v3.77h1.17l1.07-4.01
						c0.72-1.35,0.17-2.57-0.34-3.63c-0.59,0-2.28,0.4-5.27,3.85c-0.98,1.13-2.07,1.54-3.15,1.5c-0.02,0.01-0.03,0.02-0.04,0.02
						C349.94,280.31,349.38,281.27,349.2,281.8z"/>
				</g>
				<g>
					<path class="st26" d="M349.43,179.48c0,0,4.8,2.68,6.51,3.46c0.98,0.44,3.22,1.49,4.81,2.24c1.01,0.47,2.21,0.21,2.93-0.63
						c2.6-3.04,9.37-9.63,16.32-10.43c0,0-4.23,10.44-4.35,12.56c-0.12,2.11-0.5,34.56-0.5,34.56s0.25,1.49-2.61,0.87
						c-2.86-0.62-3.61-1.24-3.61-1.24s2.73-20.02,1.99-26.98c-0.15-1.37-0.01-2.92,0.3-4.51c-4.24,2.58-9.25,3.72-9.25,3.72
						s-3.75-1.63-8.87-5.39c-1.61-1.18-4.43-5.67-4.43-5.67L349.43,179.48z"/>
				</g>
				<g>
					<path class="st24" d="M360.79,270.49l3.17,0.1c0,0,7.31-8.14,11.42-21.2c0.1-0.3,0.2-0.61,0.3-0.92
						c2.25-6.55,6.9-14.76,9.35-22.2c0.39-1.19,0.74-2.3,1.06-3.36c0.1-0.34,0.2-0.67,0.29-1l-2.61-1.98c0,0-7.83,12.68-10.26,24.62
						C371.41,254.91,362.98,267.38,360.79,270.49z"/>
				</g>
				<g>
					<path class="st22" d="M383.5,245.65c-0.04,5.8,0.25,19.15,1,24.67h2.8c1.55,0,2.32-0.02,2.32-0.02
						c1.9-9.6,3.24-17.55,4.23-24.4c0.81-5.62,1.52-10.44,2.07-14.58c0.55-4.17,0.94-7.67,1.08-10.62c0.02-0.46,0.04-0.92,0.05-1.36
						c0.01-0.44,0.01-0.87,0.01-1.29l-15.3-1.49C381.95,226.73,383.53,242.28,383.5,245.65z"/>
				</g>
				<g>
					<path class="st24" d="M387.31,270.32c1.55,0,2.32-0.02,2.32-0.02c1.9-9.6,3.24-17.55,4.23-24.4
						c0.81-5.62,1.52-10.44,2.07-14.58c0.55-4.17,0.94-7.67,1.08-10.62l-5.62,3.3c0,0,3.58,1.26,2.22,10.84
						C392.25,244.41,389.21,268.97,387.31,270.32z"/>
				</g>
				<g>
					<path class="st26" d="M386.59,220.6c0,0,1.08,3.89,4.81,3.4c3.73-0.5,9.03-2.73,9.03-2.73s-1.59-5.04-3.58-11.65
						c-0.02-0.07-0.04-0.14-0.06-0.21c-2.34-7.81-5.2-17.76-6.62-24.23c-0.03-0.14-0.06-0.27-0.09-0.41
						c-0.39-1.82-0.66-3.35-0.76-4.44l-3.15-6c0,0-4.56,10.35-4.81,12.96C381.12,189.89,386.59,220.6,386.59,220.6z"/>
				</g>
				<g>
					<path class="st25" d="M390.31,186.89l-4.14-12.57c0.01,0.01,5.21,1.53,7.8,2.83c0,0,1.62,2.09,2.62,6.9
						c0,0,1.06,11.56-1.3,15.78c0,0-7.46,1.49-19.39-2.61v-2.74c0,0,13.05,0.68,15.73,0.99L390.31,186.89z"/>
				</g>
				<g>
					<path class="st27" d="M387.11,192.75c0.16,4.17,1.14,12.21,9.68,16.65c-2.34-7.81-5.2-17.76-6.62-24.23
						C388.62,187.55,387.03,190.55,387.11,192.75z"/>
				</g>
				<g>
					<path class="st26" d="M386.17,174.32c0,0,7.63,0.53,9.45,4.59c1.82,4.06,2.4,17.57,0.08,21.55c0,0-3.19,0.91-8.85-0.15
						c-0.07-0.01-0.14-0.03-0.21-0.04c0,0-1.8-4.41-0.19-5.28c0,0,4.77,0.25,4.27-1.33C390.24,192.09,386.17,174.32,386.17,174.32z"
						/>
				</g>
				<g>
					<path class="st25" d="M377.23,195.22c0,0-1.04-1.26-1.26-2.55c-0.22-1.29-0.91-2.24-2.71-2.48c-1.8-0.24-2.57-0.26-2.56,0.24
						c0,0.51,1.47,4.04,4.04,6.15C377.32,198.7,377.23,195.22,377.23,195.22z"/>
				</g>
			</g>
		</g>
		<g>
			<path class="st3" d="M345.49,178.47c0.1,0,0.19-0.04,0.26-0.12c0.11-0.14,0.09-0.34-0.04-0.45l-22.44-18.51
				c-0.14-0.11-0.34-0.09-0.45,0.04c-0.11,0.14-0.09,0.34,0.04,0.45l22.44,18.51C345.35,178.44,345.42,178.47,345.49,178.47z"/>
		</g>
	</g>
	<g>
		<path class="st20" d="M294.75,138.83c0.1,0,0.2-0.04,0.28-0.12c0.15-0.15,0.15-0.4,0-0.56l-17.83-17.83H162.51
			c-0.22,0-0.4,0.18-0.4,0.4c0,0.22,0.18,0.4,0.4,0.4h114.36l17.6,17.6C294.55,138.79,294.65,138.83,294.75,138.83z"/>
	</g>
	<g class="st28">
		<path class="st1" d="M271.98,118.81H164.46c-2.01,0-3.64-1.63-3.64-3.64l0,0c0-2.01,1.63-3.64,3.64-3.64h107.52
			c2.01,0,3.64,1.63,3.64,3.64l0,0C275.61,117.18,273.99,118.81,271.98,118.81z"/>
	</g>
	<g class="st28">
		<path class="st1" d="M184.59,216.56L184.59,216.56c-12.41,0-22.47-10.06-22.47-22.47v-26.77c0-12.41,10.06-22.47,22.47-22.47h0
			c12.41,0,22.47,10.06,22.47,22.47v26.77C207.06,206.5,197,216.56,184.59,216.56z"/>
	</g>
	<g class="st28">
		<path class="st1" d="M238.92,217.86L238.92,217.86c-12.41,0-22.47-10.06-22.47-22.47v-26.77c0-12.41,10.06-22.47,22.47-22.47h0
			c12.41,0,22.47,10.06,22.47,22.47v26.77C261.39,207.79,251.33,217.86,238.92,217.86z"/>
	</g>
	<g class="st29">
		<path class="st1" d="M201.68,140.34H167.5c-2.97,0-5.38-2.41-5.38-5.38l0,0c0-2.97,2.41-5.38,5.38-5.38h34.19
			c2.97,0,5.38,2.41,5.38,5.38l0,0C207.06,137.93,204.65,140.34,201.68,140.34z"/>
	</g>
	<g class="st29">
		<path class="st1" d="M257.3,138.29h-34.19c-2.97,0-5.38-2.41-5.38-5.38l0,0c0-2.97,2.41-5.38,5.38-5.38h34.19
			c2.97,0,5.38,2.41,5.38,5.38l0,0C262.68,135.88,260.27,138.29,257.3,138.29z"/>
	</g>
	<g id="girl_2_11_">
		<g>
			<path class="st16" d="M186.7,262.91c0.52-1.23,8.5-22.13,14.68-22.13c3.32,0,6.27,0.76,5.58,6.22
				c-0.7,5.46-6.8,35.06-10.63,34.63C192.5,281.21,186.7,262.91,186.7,262.91z"/>
		</g>
		<g>
			<path class="st2" d="M209.18,276.81c0,0-0.59,3.74,0,4.82h11.44c0,0-1.31-2.9-2.88-3.56c-1.57-0.65-2.97-1.63-2.97-1.63
				L209.18,276.81z"/>
		</g>
		<g>
			<path class="st16" d="M211.97,244.49c0,0,3.1,29.84,3.44,32.32c0,0-4.79,0.96-6.23,0c-1.44-0.96-7.45-16.97-7.32-19.85
				C201.99,254.09,211.97,244.49,211.97,244.49z"/>
		</g>
		<g>
			<path class="st17" d="M191.67,262.91c0.52-1.23,8.5-22.13,14.68-22.13c3.32,0,6.27,0.76,5.58,6.22
				c-0.7,5.46-6.8,35.06-10.63,34.63C197.46,281.21,191.67,262.91,191.67,262.91z"/>
		</g>
		<g>
			<path class="st17" d="M168.12,267.22c0,0-2.38,13.65,7.73,14.41c10.11,0.76,23.88,0.6,25.44,0c1.57-0.6,6.54-12.45-2.83-14.8
				C189.1,264.48,168.12,267.22,168.12,267.22z"/>
		</g>
		<g>
			<path class="st2" d="M197.06,248.52c0.82-4.21,3.51-21.01,0.82-26.42c-0.96-1.94-4.75-2.12-8.89-1.95
				c-1.29,0.83-6.21,3.98-8.23,3.59c-0.02,0-18.09,10.6-13.53,20.74c2.09,4.64,1.34,11.66,0.21,17.11c-0.97,4.69,1.94,9.3,6.6,10.4
				c10.87,2.56,24.34,1.16,24.42-5.16C198.56,259.85,196.01,253.9,197.06,248.52z"/>
		</g>
		<g>
			<path class="st13" d="M212.84,242c-0.88-0.88-3.54-1.13-5.17-1.2c-0.52-1.23-1.26-2.58-2.28-4.03
				c-5.62-7.97-7.76-16.32-9.48-15.6c-1.71,0.72-3.91,9.62-3.91,9.62s9.47,15.52,16,18.66C212.32,249.97,214.15,243.3,212.84,242z"
				/>
		</g>
		<g>
			<path class="st2" d="M195.49,220.51c0,0,2.55,0.05,4.92,5.47c0,0-2.47,9.61-7.56,8.76C187.75,233.89,195.49,220.51,195.49,220.51
				z"/>
		</g>
		<g>
			<path class="st15" d="M186.56,195.51c0,0-6.12-1.16-9.17,1.06c-5.52,4.03-5.82,17.94-7.89,20.01c-2.07,2.07-7.06,1.19-7.5,11.9
				c-0.44,10.72,1.99,11.61-0.91,16.4c-2.89,4.78,1.22,9.57,1.22,9.57s-1.69-2.64-0.96-4.55c0,0,3.6,5.19,6.05,6.65
				c6.64,3.96,14.03,2.56,17.66,0.12c0.53-0.36,1.15-0.57,1.78-0.68c1.8-0.3,5.59-2.67,4.2-17.71c-0.76-8.25,4.49-16.49,2.3-20.09
				c0,0,0.98,1.54,1.1,3.25c0,0,1.31-2.52-0.96-4.86c-2.28-2.34,2.67-7.2,1.94-12.82C194.91,199.9,192.2,195.67,186.56,195.51z"/>
		</g>
	</g>
	<g>
		<g>
			<polygon class="st14" points="460.67,198.2 434.23,198.2 427.25,181.75 453.69,181.75 			"/>
		</g>
		<g class="st6">
			<polygon class="st1" points="461.13,198.2 434.68,198.2 427.7,181.75 454.15,181.75 			"/>
		</g>
		<g>
			<polygon class="st30" points="460.16,197.56 435.58,197.56 429.1,182.28 453.67,182.28 			"/>
		</g>
		<g>
			<polygon class="st14" points="469.61,198.73 434.44,198.73 434.23,198.2 469.61,198.2 			"/>
		</g>
	</g>
	<g>
		<g>
			<polygon class="st14" points="234.29,280.78 260.73,280.78 267.71,264.34 241.27,264.34 			"/>
		</g>
		<g class="st6">
			<polygon class="st1" points="233.83,280.78 260.28,280.78 267.26,264.34 240.81,264.34 			"/>
		</g>
		<g>
			<polygon class="st30" points="234.8,280.15 259.38,280.15 265.86,264.87 241.29,264.87 			"/>
		</g>
		<g>
			<polygon class="st14" points="225.35,281.31 260.52,281.31 260.73,280.78 225.35,280.78 			"/>
		</g>
	</g>
	<g>
		<path class="st13" d="M467.36,165.55c0,0,0.11,24.58-2.2,29.05l-11.98,4.03l-0.72,3.03c0,0,15.74,0.71,17.61-0.95
			c1.88-1.65,5.05-21.16,5.34-24.89C475.7,172.08,471.87,164.66,467.36,165.55z"/>
	</g>
	<g>
		<path class="st16" d="M474.17,174.9c-2.97,0.5-5.1-2.35-6.41-5.02c-0.06-0.12-0.12-0.24-0.17-0.36c-0.97-2.06-1.45-3.93-1.45-3.93
			c1.03-2.36,2.09-3.76,2.99-4.6c0.39-0.35,0.74-0.61,1.05-0.79c0.67-0.39,1.12-0.43,1.18-0.43c0.01,0,0.01,0,0.01,0
			s0.82,1.42,1.78,3.4C475.2,167.45,477.87,174.28,474.17,174.9z"/>
	</g>
	<g>
		<path class="st17" d="M471.35,159.79c-0.07,0-0.52,0.04-1.18,0.43c-0.43,0.21-0.78,0.47-1.05,0.79c-0.9,0.84-1.96,2.24-2.99,4.6
			c0,0,0.48,1.86,1.45,3.93l0.17,0.36c2.66-1.39,4.35-4.19,5.39-6.7c0.61-1.48,1-2.86,1.22-3.8
			C473.24,159.44,472.21,159.56,471.35,159.79z"/>
	</g>
	<g>
		<path class="st3" d="M480.84,133.22c0,0,6.5-1.24,9.74,1.13c5.87,4.28,6.18,19.06,8.38,21.26c2.2,2.2-27.65,5.53-25.33,1.72
			c0,0-1.04,1.63-1.16,3.45c0,0-1.4-2.68,1.02-5.17c2.42-2.49-2.84-7.65-2.06-13.62C471.97,137.88,474.85,133.39,480.84,133.22z"/>
	</g>
	<g>
		<path class="st3" d="M498.97,155.6c0,0,4.4,3.54,3.29,9.07c-1.1,5.54,4.01,11.67,3.25,14.4c-0.76,2.73-9.31,9.66-13.86,9.98
			c0,0,3.68-1.84,4.11-4.66c0,0-6.03,6-10.54,5.22c-4.51-0.78-10.43-2.53-8.71-5.99c1.72-3.46,6.59-9.91,3.12-13.67
			c-3.46-3.76-5.3-5.14-4.21-8.09s-2.74-1.62-2-4.62C473.75,155.95,498.97,155.6,498.97,155.6z"/>
	</g>
	<g>
		<path class="st13" d="M448.19,197.25c-0.45,0.07-0.85,0.17-0.6,0.35l1.07,0.98l0,0c-0.47,0.1-0.95,0.15-1.43,0.15h-3.31
			c0.39,0.42,0.89,0.88,1.39,1.37c1.52,1.52,7.15,1.55,7.15,1.55l0.72-3.03C453.18,198.62,450.21,196.94,448.19,197.25z"/>
	</g>
	<g class="st0">
		<path class="st1" d="M78.41,193.09c1.37-0.08,2.68-0.37,3.94-0.86c2.38-0.92,4.4-2.45,6-4.65c0.2-0.28,0.37-0.33,0.68-0.25
			c7.04,1.94,14.01,1.69,20.85-1.16c3.07-1.28,5.83-3.12,8.09-5.83c1.49-1.79,2.59-3.84,3.04-6.27c0.6-3.26-0.07-6.23-1.7-8.95
			c-1.59-2.65-3.75-4.59-6.2-6.14c-3.23-2.04-6.72-3.23-10.38-3.83c-3.64-0.61-7.29-0.61-10.93,0.05
			c-4.68,0.84-9.05,2.55-12.79,5.93c-2.18,1.96-3.88,4.33-4.62,7.41c-0.93,3.82-0.07,7.25,2.01,10.33c1.76,2.61,4.06,4.47,6.63,5.95
			c0.3,0.17,0.41,0.31,0.35,0.71c-0.3,2.09-1.27,3.78-2.58,5.23C80.05,191.56,79.24,192.29,78.41,193.09z"/>
	</g>
	<g class="st29">
		<path class="st1" d="M203.21,207.32c1.37-0.07,2.67-0.33,3.94-0.77c2.38-0.82,4.4-2.19,5.99-4.15c0.2-0.25,0.37-0.3,0.68-0.22
			c7.05,1.74,14.01,1.53,20.85-1c3.06-1.14,5.83-2.78,8.08-5.19c1.49-1.6,2.58-3.43,3.03-5.59c0.6-2.91-0.08-5.56-1.72-7.99
			c-1.59-2.37-3.75-4.1-6.21-5.49c-3.23-1.82-6.72-2.89-10.38-3.44c-3.64-0.55-7.29-0.55-10.93,0.02
			c-4.67,0.74-9.04,2.27-12.78,5.27c-2.17,1.75-3.87,3.86-4.61,6.61c-0.92,3.41-0.06,6.47,2.03,9.23c1.76,2.33,4.07,4,6.64,5.32
			c0.3,0.15,0.41,0.28,0.35,0.64c-0.3,1.87-1.26,3.37-2.57,4.66C204.84,205.96,204.03,206.6,203.21,207.32z"/>
	</g>
	<g class="st0">
		<path class="st1" d="M457.02,141.9c-1.36-0.15-2.65-0.5-3.89-1.01c-2.32-0.97-4.25-2.46-5.71-4.52c-0.19-0.26-0.35-0.32-0.66-0.26
			c-7.14,1.29-14.08,0.64-20.74-2.33c-2.99-1.33-5.64-3.14-7.73-5.69c-1.39-1.69-2.36-3.59-2.67-5.77
			c-0.41-2.94,0.44-5.54,2.22-7.86c1.74-2.26,4.01-3.86,6.55-5.08c3.34-1.61,6.89-2.46,10.58-2.77c3.67-0.31,7.31-0.09,10.9,0.72
			c4.62,1.04,8.88,2.84,12.42,6.08c2.06,1.88,3.62,4.1,4.18,6.89c0.7,3.46-0.35,6.46-2.61,9.08c-1.91,2.21-4.31,3.73-6.96,4.89
			c-0.3,0.13-0.42,0.25-0.39,0.62c0.18,1.88,1.04,3.44,2.27,4.82C455.48,140.44,456.25,141.13,457.02,141.9z"/>
	</g>
	<g class="st28">
		<g>
			<path class="st1" d="M438.84,113.32c0.49,0.06,1,0.08,1.48,0.2c1.54,0.38,2.47,1.64,2.57,3.29c0.09,1.52-0.41,2.8-1.42,3.91
				c-0.37,0.41-0.74,0.83-1.11,1.23c-0.59,0.64-0.92,1.38-1.02,2.25c-0.08,0.7-0.55,1.08-1.24,1.04c-0.62-0.04-1.05-0.5-1.08-1.17
				c-0.05-1.24,0.4-2.3,1.17-3.24c0.52-0.64,1.07-1.25,1.52-1.93c0.49-0.73,0.68-1.56,0.42-2.45c-0.19-0.64-0.68-1.03-1.28-1.02
				c-0.61,0.01-1.06,0.39-1.25,1.05c-0.04,0.15-0.07,0.31-0.1,0.47c-0.14,0.79-0.66,1.2-1.38,1.09c-0.78-0.12-1.24-0.75-1.11-1.55
				C435.34,114.35,436.56,113.35,438.84,113.32z"/>
		</g>
		<g>
			<path class="st1" d="M438.18,129.22c-0.91,0-1.59-0.67-1.59-1.56c0-0.88,0.71-1.61,1.58-1.61c0.86-0.01,1.58,0.72,1.59,1.6
				C439.77,128.54,439.09,129.22,438.18,129.22z"/>
		</g>
	</g>
	<g class="st28">
		<g>
			<path class="st1" d="M99.04,166.22c-0.22,2.65-0.44,5.3-0.66,7.95c-0.05,0.61-0.1,1.23-0.17,1.84c-0.07,0.57-0.38,0.91-0.99,0.93
				c-0.6,0.02-1.04-0.19-1.12-0.84c-0.15-1.22-0.33-2.44-0.39-3.66c-0.13-2.96-0.22-5.92-0.29-8.88c-0.03-1.19,0.54-1.75,1.68-1.75
				c1.19-0.01,1.78,0.56,1.79,1.73c0.01,0.89,0,1.78,0,2.67C98.95,166.21,98.99,166.22,99.04,166.22z"/>
		</g>
		<g>
			<path class="st1" d="M97.15,182.04c-1.16,0-1.99-0.8-2-1.94c-0.01-1.17,0.85-2.07,1.97-2.09c1.06-0.02,2.05,0.98,2.05,2.06
				C99.17,181.16,98.27,182.03,97.15,182.04z"/>
		</g>
	</g>
	<g>
		
			<rect x="293.57" y="17.67" transform="matrix(2.539090e-03 -1 1 2.539090e-03 10.6158 576.3736)" class="st1" width="1.31" height="530.4"/>
	</g>
	<g class="st31">
		<g>
			<path class="st1" d="M351.38,81c-1.14,0-2.27,0.01-3.41,0c-0.98-0.01-1.23-0.3-1.31-1.27c-0.15-1.97-1.09-3.62-2.2-5.18
				c-3.2-4.5-1.59-10.63,3.4-12.96c3.47-1.62,7.62-0.69,10.13,2.26c2.52,2.96,2.71,7.27,0.62,10.46c-0.89,1.36-1.51,2.9-2.24,4.36
				c-0.11,0.22-0.12,0.5-0.14,0.75c-0.13,1.43-0.28,1.58-1.7,1.58C353.48,81,352.43,81,351.38,81z M354.08,78.98
				c0.41-1.1,0.7-2.11,1.15-3.05c0.45-0.94,1.03-1.83,1.62-2.69c1.9-2.76,1.47-6.5-1.05-8.73c-2.54-2.26-6.23-2.25-8.77,0.01
				c-2.52,2.25-2.96,5.97-1.02,8.73c1.14,1.61,2.08,3.31,2.54,5.25c0.05,0.19,0.34,0.46,0.53,0.46
				C350.77,78.99,352.44,78.98,354.08,78.98z"/>
		</g>
		<g>
			<path class="st1" d="M351.45,83.59c-0.94,0-1.87-0.01-2.81,0c-0.6,0.01-1.01-0.22-1.03-0.86c-0.01-0.64,0.38-0.88,0.99-0.87
				c1.87,0.01,3.75,0.01,5.62,0c0.59,0,1.01,0.16,1.02,0.84c0,0.73-0.46,0.89-1.07,0.89C353.26,83.59,352.35,83.59,351.45,83.59z"/>
		</g>
		<g>
			<path class="st1" d="M351.38,85.98c-0.88,0-1.76-0.01-2.64,0c-0.55,0-0.98-0.17-1-0.78c-0.02-0.67,0.43-0.85,1.02-0.85
				c1.79,0,3.57,0,5.36,0c0.54,0,0.98,0.15,1,0.78c0.01,0.66-0.42,0.86-1.01,0.85C353.2,85.97,352.29,85.98,351.38,85.98z"/>
		</g>
		<g>
			<path class="st1" d="M353.99,86.81c0,1.18-0.97,2-2.41,2.07c-1.5,0.07-2.6-0.73-2.76-2.07
				C350.53,86.81,352.23,86.81,353.99,86.81z"/>
		</g>
		<g>
			<path class="st1" d="M352.06,56.38c0,0.62,0.06,1.25-0.03,1.86c-0.03,0.25-0.37,0.46-0.57,0.69c-0.22-0.24-0.62-0.46-0.63-0.71
				c-0.07-1.21-0.06-2.43,0-3.65c0.01-0.24,0.37-0.47,0.57-0.7c0.22,0.24,0.58,0.46,0.63,0.73
				C352.13,55.18,352.06,55.79,352.06,56.38z"/>
		</g>
		<g>
			<path class="st1" d="M362.05,80.54c-0.26-0.18-0.48-0.3-0.66-0.47c-0.79-0.77-1.6-1.53-2.32-2.36c-0.2-0.22-0.3-0.77-0.16-1
				c0.27-0.43,0.68-0.22,1,0.09c0.82,0.82,1.66,1.63,2.45,2.48c0.17,0.19,0.23,0.54,0.21,0.81
				C362.54,80.25,362.25,80.37,362.05,80.54z"/>
		</g>
		<g>
			<path class="st1" d="M344.2,61.41c-0.1,0.14-0.2,0.41-0.36,0.46c-0.2,0.07-0.55,0.05-0.69-0.08c-0.95-0.89-1.87-1.81-2.75-2.77
				c-0.14-0.15-0.1-0.61,0.04-0.8c0.1-0.14,0.61-0.2,0.73-0.08c0.99,0.93,1.94,1.9,2.89,2.87C344.13,61.08,344.13,61.21,344.2,61.41
				z"/>
		</g>
		<g>
			<path class="st1" d="M359.25,62.02c-0.14-0.12-0.39-0.22-0.44-0.39c-0.06-0.21-0.05-0.55,0.08-0.69c0.9-0.94,1.81-1.87,2.77-2.75
				c0.14-0.13,0.61-0.08,0.8,0.06c0.13,0.09,0.17,0.6,0.05,0.73c-0.93,0.99-1.9,1.94-2.87,2.89
				C359.57,61.94,359.44,61.95,359.25,62.02z"/>
		</g>
		<g>
			<path class="st1" d="M340.87,80.45c-0.56-0.01-0.87-0.58-0.51-0.97c0.9-0.98,1.85-1.91,2.83-2.82c0.14-0.13,0.59-0.11,0.73,0.02
				c0.16,0.14,0.25,0.61,0.15,0.73c-0.94,1.02-1.93,1.99-2.92,2.96C341.07,80.43,340.93,80.43,340.87,80.45z"/>
		</g>
		<g>
			<path class="st1" d="M364.48,68.76c0.62,0,1.25-0.06,1.86,0.03c0.25,0.03,0.45,0.38,0.67,0.58c-0.22,0.21-0.43,0.59-0.66,0.6
				c-1.24,0.06-2.49,0.06-3.72,0c-0.23-0.01-0.45-0.38-0.68-0.58c0.22-0.21,0.42-0.56,0.67-0.59
				C363.23,68.7,363.86,68.76,364.48,68.76z"/>
		</g>
		<g>
			<path class="st1" d="M338.46,69.99c-0.59,0-1.2,0.07-1.78-0.03c-0.27-0.04-0.49-0.41-0.73-0.62c0.24-0.19,0.46-0.54,0.71-0.55
				c1.21-0.06,2.43-0.06,3.65,0c0.25,0.01,0.48,0.4,0.73,0.62c-0.24,0.2-0.45,0.52-0.71,0.56
				C339.71,70.05,339.08,69.99,338.46,69.99z"/>
		</g>
		<g>
			<path class="st1" d="M345.81,68.82c0.13-2.91,2.39-5.05,5.37-5.02c0.62,0.01,1.21,0.11,1.22,0.85c0.01,0.72-0.52,0.89-1.17,0.89
				c-2.02,0.01-3.15,0.95-3.59,2.91c-0.05,0.22-0.08,0.45-0.11,0.67c-0.08,0.54-0.36,0.92-0.95,0.87
				C345.92,69.93,345.76,69.48,345.81,68.82z"/>
		</g>
	</g>
	<g class="st31">
		<g>
			<path class="st1" d="M120.54,216.14c-1.14,0-2.27,0.01-3.41,0c-0.98-0.01-1.23-0.3-1.31-1.27c-0.15-1.97-1.09-3.62-2.2-5.18
				c-3.2-4.5-1.59-10.63,3.4-12.96c3.47-1.62,7.62-0.69,10.13,2.26c2.52,2.96,2.71,7.27,0.62,10.46c-0.89,1.36-1.51,2.9-2.24,4.36
				c-0.11,0.22-0.12,0.5-0.14,0.75c-0.13,1.43-0.28,1.58-1.7,1.58C122.65,216.14,121.6,216.14,120.54,216.14z M123.25,214.12
				c0.41-1.1,0.7-2.11,1.15-3.05c0.45-0.94,1.03-1.83,1.62-2.69c1.9-2.76,1.47-6.5-1.05-8.73c-2.54-2.26-6.23-2.25-8.77,0.01
				c-2.52,2.25-2.96,5.97-1.02,8.73c1.14,1.61,2.08,3.31,2.54,5.25c0.05,0.19,0.34,0.46,0.53,0.46
				C119.93,214.13,121.61,214.12,123.25,214.12z"/>
		</g>
		<g>
			<path class="st1" d="M120.61,218.73c-0.94,0-1.87-0.01-2.81,0c-0.6,0.01-1.01-0.22-1.03-0.86c-0.01-0.64,0.38-0.88,0.99-0.87
				c1.87,0.01,3.75,0.01,5.62,0c0.59,0,1.01,0.16,1.02,0.84c0,0.73-0.46,0.89-1.07,0.89C122.43,218.73,121.52,218.73,120.61,218.73z
				"/>
		</g>
		<g>
			<path class="st1" d="M120.55,221.12c-0.88,0-1.76-0.01-2.64,0c-0.55,0-0.98-0.17-1-0.78c-0.02-0.67,0.43-0.85,1.02-0.85
				c1.79,0,3.57,0,5.36,0c0.54,0,0.98,0.15,1,0.78c0.01,0.66-0.42,0.86-1.01,0.85C122.36,221.11,121.45,221.12,120.55,221.12z"/>
		</g>
		<g>
			<path class="st1" d="M123.15,221.95c0,1.18-0.97,2-2.41,2.07c-1.5,0.07-2.6-0.73-2.76-2.07
				C119.7,221.95,121.4,221.95,123.15,221.95z"/>
		</g>
		<g>
			<path class="st1" d="M121.22,191.52c0,0.62,0.06,1.25-0.03,1.86c-0.03,0.25-0.37,0.46-0.57,0.69c-0.22-0.24-0.62-0.46-0.63-0.71
				c-0.07-1.21-0.06-2.43,0-3.65c0.01-0.24,0.37-0.47,0.57-0.7c0.22,0.24,0.58,0.46,0.63,0.73
				C121.29,190.32,121.22,190.93,121.22,191.52z"/>
		</g>
		<g>
			<path class="st1" d="M131.21,215.68c-0.26-0.18-0.48-0.3-0.66-0.47c-0.79-0.77-1.6-1.53-2.32-2.36c-0.2-0.22-0.3-0.77-0.16-1
				c0.27-0.43,0.68-0.22,1,0.09c0.82,0.82,1.66,1.63,2.45,2.48c0.17,0.19,0.23,0.54,0.21,0.81
				C131.71,215.39,131.42,215.51,131.21,215.68z"/>
		</g>
		<g>
			<path class="st1" d="M113.36,196.55c-0.1,0.14-0.2,0.4-0.36,0.46c-0.2,0.07-0.55,0.05-0.69-0.08c-0.95-0.89-1.87-1.81-2.75-2.77
				c-0.14-0.15-0.1-0.61,0.04-0.8c0.1-0.14,0.61-0.2,0.73-0.08c0.99,0.93,1.94,1.9,2.89,2.87
				C113.29,196.22,113.3,196.35,113.36,196.55z"/>
		</g>
		<g>
			<path class="st1" d="M128.41,197.16c-0.14-0.12-0.39-0.22-0.44-0.39c-0.06-0.21-0.05-0.55,0.08-0.69
				c0.9-0.94,1.81-1.87,2.77-2.75c0.14-0.13,0.61-0.08,0.8,0.06c0.13,0.09,0.17,0.6,0.05,0.73c-0.93,0.99-1.9,1.94-2.87,2.89
				C128.73,197.08,128.6,197.09,128.41,197.16z"/>
		</g>
		<g>
			<path class="st1" d="M110.03,215.59c-0.56-0.01-0.87-0.58-0.51-0.97c0.9-0.98,1.85-1.91,2.83-2.82c0.14-0.13,0.59-0.11,0.73,0.02
				c0.16,0.14,0.25,0.61,0.15,0.73c-0.94,1.02-1.93,1.99-2.92,2.96C110.24,215.57,110.09,215.57,110.03,215.59z"/>
		</g>
		<g>
			<path class="st1" d="M133.65,203.9c0.62,0,1.25-0.06,1.86,0.03c0.25,0.03,0.45,0.38,0.67,0.58c-0.22,0.21-0.43,0.59-0.66,0.6
				c-1.24,0.06-2.49,0.06-3.72,0c-0.23-0.01-0.45-0.38-0.68-0.58c0.22-0.21,0.42-0.56,0.67-0.59
				C132.4,203.84,133.03,203.9,133.65,203.9z"/>
		</g>
		<g>
			<path class="st1" d="M107.62,205.13c-0.59,0-1.2,0.07-1.78-0.03c-0.27-0.04-0.49-0.41-0.73-0.62c0.24-0.19,0.46-0.54,0.71-0.55
				c1.21-0.06,2.43-0.06,3.65,0c0.25,0.01,0.48,0.4,0.73,0.62c-0.24,0.2-0.45,0.52-0.71,0.56
				C108.88,205.19,108.25,205.13,107.62,205.13z"/>
		</g>
		<g>
			<path class="st1" d="M114.98,203.96c0.13-2.91,2.39-5.05,5.37-5.02c0.62,0.01,1.21,0.11,1.22,0.85c0.01,0.72-0.52,0.89-1.17,0.89
				c-2.02,0.01-3.15,0.95-3.59,2.91c-0.05,0.22-0.08,0.45-0.11,0.67c-0.08,0.54-0.36,0.92-0.95,0.87
				C115.09,205.07,114.92,204.61,114.98,203.96z"/>
		</g>
	</g>
	<g class="st7">
		<path class="st8" d="M221.52,195.62c-4.13,0-7.47-3.35-7.51-7.45c-0.04-4.2,3.36-7.61,7.55-7.6c4.13,0.01,7.5,3.38,7.5,7.53
			C229.07,192.26,225.7,195.62,221.52,195.62z M227.92,188.1c0-3.5-2.86-6.37-6.35-6.38c-3.52-0.01-6.4,2.85-6.4,6.35
			c0,3.52,2.85,6.4,6.35,6.4C225.05,194.47,227.91,191.62,227.92,188.1z"/>
	</g>
	<g class="st7">
		<path class="st8" d="M221.78,186.72c0,0.26,0,0.52,0,0.77c0,0.04,0.03,0.1,0.07,0.13c0.19,0.14,0.28,0.32,0.24,0.56
			c-0.01,0.09,0.01,0.14,0.07,0.2c0.77,0.78,1.54,1.56,2.31,2.34c0.07,0.07,0.12,0.14,0.1,0.25c-0.02,0.1-0.07,0.16-0.16,0.19
			c-0.09,0.03-0.18,0.01-0.25-0.06c-0.2-0.2-0.4-0.41-0.61-0.61c-0.59-0.6-1.18-1.2-1.77-1.8c-0.03-0.03-0.09-0.04-0.13-0.04
			c-0.41,0.05-0.72-0.26-0.65-0.66c0.03-0.15,0.11-0.27,0.24-0.36c0.06-0.04,0.07-0.08,0.07-0.14c0-0.51,0-1.03,0-1.54
			c0-0.18,0.11-0.28,0.27-0.27c0.13,0.01,0.21,0.11,0.21,0.25C221.78,186.19,221.78,186.45,221.78,186.72
			C221.78,186.72,221.78,186.72,221.78,186.72z"/>
	</g>
	<g class="st7">
		<path class="st8" d="M221.72,183.41c0,0.19,0,0.38,0,0.57c0,0.13-0.07,0.21-0.18,0.2c-0.11,0-0.17-0.08-0.17-0.2
			c0-0.39,0-0.79,0-1.18c0-0.12,0.07-0.2,0.17-0.2c0.11,0,0.18,0.07,0.18,0.2C221.72,183,221.72,183.21,221.72,183.41z"/>
	</g>
	<g class="st7">
		<path class="st8" d="M221.72,192.79c0,0.19,0,0.38,0,0.57c0,0.13-0.06,0.21-0.17,0.21c-0.11,0-0.18-0.07-0.18-0.21
			c0-0.39,0-0.78,0-1.17c0-0.13,0.07-0.21,0.18-0.21c0.11,0,0.17,0.08,0.17,0.21C221.72,192.4,221.72,192.6,221.72,192.79z"/>
	</g>
	<g class="st7">
		<path class="st8" d="M216.84,188.27c-0.2,0-0.39,0-0.59,0c-0.13,0-0.21-0.07-0.2-0.18c0-0.1,0.08-0.17,0.2-0.17
			c0.39,0,0.79,0,1.18,0c0.12,0,0.2,0.07,0.2,0.18s-0.08,0.17-0.2,0.18C217.24,188.27,217.04,188.27,216.84,188.27
			C216.84,188.27,216.84,188.27,216.84,188.27z"/>
	</g>
	<g class="st7">
		<path class="st8" d="M226.24,188.27c-0.2,0-0.4,0-0.6,0c-0.12,0-0.2-0.07-0.2-0.17c0-0.1,0.08-0.18,0.2-0.18c0.4,0,0.8,0,1.19,0
			c0.12,0,0.2,0.08,0.2,0.18c0,0.1-0.08,0.17-0.2,0.17C226.63,188.27,226.44,188.27,226.24,188.27
			C226.24,188.27,226.24,188.27,226.24,188.27z"/>
	</g>
	<g class="st31">
		<g>
			<path class="st1" d="M110.23,115.11c0.37-0.62,0.82-1.08,1.49-1.27c0.43-0.12,0.68-0.4,0.88-0.81c1.13-2.35,3.13-3.48,5.75-3.29
				c0.66,0.05,1.31,0.18,1.97,0.2c0.49,0.01,1.01-0.03,1.45-0.19c0.49-0.18,0.79-0.09,1.1,0.34c-0.81,0.52-1.7,0.72-2.65,0.66
				c-0.68-0.05-1.35-0.16-2.02-0.21c-2.38-0.17-4.15,0.94-5.08,3.14c-0.14,0.33-0.09,0.51,0.18,0.74c2.58,2.14,5.15,4.29,7.7,6.46
				c0.32,0.27,0.54,0.24,0.85,0.02c2.05-1.41,2.76-3.34,2.08-5.75c-0.17-0.62-0.38-1.22-0.53-1.85c-0.22-0.93-0.12-1.85,0.23-2.58
				c0.4,0.21,0.54,0.45,0.52,0.98c-0.04,0.77,0.15,1.55,0.27,2.32c0.16,1.01,0.48,2.01,0.5,3.01c0.03,1.87-0.97,3.26-2.44,4.32
				c-0.36,0.26-0.57,0.54-0.62,0.97c-0.08,0.71-0.43,1.26-0.99,1.73C117.32,121.06,113.79,118.1,110.23,115.11z"/>
		</g>
		<g>
			<path class="st1" d="M123.31,109.51c-0.5-0.21-0.59-0.5-0.56-1.01c0.04-0.7-0.09-1.41-0.22-2.11c-0.11-0.61-0.35-1.2-0.46-1.81
				c-0.41-2.39,0.45-4.28,2.37-5.69c0.33-0.25,0.57-0.49,0.57-0.92c-0.01-0.79,0.58-1.22,1.03-1.78c3.57,2.99,7.11,5.96,10.67,8.95
				c-0.43,0.6-0.81,1.2-1.6,1.34c-0.37,0.07-0.57,0.3-0.74,0.64c-1.2,2.46-3.19,3.59-5.92,3.38c-0.49-0.04-0.98-0.15-1.47-0.15
				c-0.6,0-1.22,0.01-1.78,0.17c-0.49,0.15-0.8,0.1-1.1-0.36c0.73-0.46,1.53-0.67,2.38-0.64c0.69,0.02,1.38,0.13,2.08,0.18
				c2.5,0.19,4.24-0.85,5.26-3.13c0.14-0.31,0.12-0.51-0.16-0.74c-2.59-2.15-5.17-4.32-7.75-6.5c-0.27-0.23-0.46-0.24-0.76-0.04
				c-2.06,1.39-2.8,3.3-2.17,5.72c0.17,0.66,0.38,1.3,0.53,1.96C123.69,107.83,123.61,108.66,123.31,109.51z"/>
		</g>
		<g>
			<path class="st1" d="M113.95,114.16c0.66-0.16,1.18-0.37,1.71-0.39c2.02-0.07,4.03-0.13,5.83-1.3c-0.74,1.85-0.62,3.68-0.31,5.55
				c0.11,0.66,0.01,1.36,0.01,2.05c-0.05,0.01-0.11,0.02-0.16,0.03C118.71,118.16,116.4,116.21,113.95,114.16z"/>
		</g>
		<g>
			<path class="st1" d="M123.96,109.54c0.47-1.58,0.29-3.01-0.24-4.55c2,0.91,3.5,2.18,4.76,3.98
				C126.89,108.74,125.43,108.76,123.96,109.54z"/>
		</g>
	</g>
	<g class="st31">
		<g>
			<path class="st1" d="M407.02,223.09c0.37-0.62,0.82-1.08,1.49-1.27c0.43-0.12,0.68-0.4,0.88-0.81c1.13-2.35,3.13-3.48,5.75-3.29
				c0.66,0.05,1.31,0.18,1.97,0.2c0.49,0.01,1.01-0.03,1.45-0.19c0.49-0.18,0.79-0.09,1.1,0.34c-0.81,0.52-1.7,0.72-2.65,0.66
				c-0.68-0.05-1.35-0.16-2.02-0.21c-2.38-0.17-4.15,0.94-5.08,3.14c-0.14,0.33-0.09,0.51,0.18,0.74c2.58,2.14,5.15,4.29,7.7,6.46
				c0.32,0.27,0.54,0.24,0.85,0.02c2.05-1.41,2.76-3.34,2.08-5.75c-0.17-0.62-0.38-1.22-0.53-1.85c-0.22-0.93-0.12-1.85,0.23-2.58
				c0.4,0.21,0.54,0.45,0.52,0.98c-0.04,0.77,0.15,1.55,0.27,2.32c0.16,1.01,0.48,2.01,0.5,3.01c0.03,1.87-0.97,3.26-2.44,4.32
				c-0.36,0.26-0.57,0.54-0.62,0.97c-0.08,0.71-0.43,1.26-0.99,1.73C414.11,229.04,410.58,226.08,407.02,223.09z"/>
		</g>
		<g>
			<path class="st1" d="M420.1,217.49c-0.5-0.21-0.59-0.5-0.56-1.01c0.04-0.7-0.09-1.41-0.22-2.11c-0.11-0.61-0.35-1.2-0.46-1.81
				c-0.41-2.39,0.45-4.28,2.37-5.69c0.33-0.25,0.57-0.49,0.57-0.92c-0.01-0.79,0.58-1.22,1.03-1.78c3.57,2.99,7.11,5.96,10.67,8.95
				c-0.43,0.6-0.81,1.2-1.6,1.34c-0.37,0.07-0.57,0.3-0.74,0.64c-1.2,2.46-3.19,3.59-5.92,3.38c-0.49-0.04-0.98-0.15-1.47-0.15
				c-0.6,0-1.22,0.01-1.78,0.17c-0.49,0.15-0.8,0.1-1.1-0.36c0.73-0.46,1.53-0.67,2.38-0.64c0.69,0.02,1.38,0.13,2.08,0.18
				c2.5,0.19,4.24-0.85,5.26-3.13c0.14-0.31,0.12-0.51-0.16-0.74c-2.59-2.15-5.17-4.32-7.75-6.5c-0.27-0.23-0.46-0.24-0.76-0.04
				c-2.06,1.39-2.8,3.3-2.17,5.72c0.17,0.66,0.38,1.3,0.53,1.96C420.48,215.81,420.4,216.64,420.1,217.49z"/>
		</g>
		<g>
			<path class="st1" d="M410.74,222.14c0.66-0.16,1.18-0.37,1.71-0.39c2.02-0.07,4.03-0.13,5.83-1.3c-0.74,1.85-0.62,3.68-0.31,5.55
				c0.11,0.66,0.01,1.36,0.01,2.05c-0.05,0.01-0.11,0.02-0.16,0.03C415.5,226.14,413.18,224.19,410.74,222.14z"/>
		</g>
		<g>
			<path class="st1" d="M420.75,217.52c0.47-1.58,0.29-3.01-0.24-4.55c2,0.91,3.5,2.18,4.76,3.98
				C423.68,216.72,422.22,216.74,420.75,217.52z"/>
		</g>
	</g>
</g>
</svg>
