<svg xmlns="http://www.w3.org/2000/svg" width="187" height="53" fill="none" viewBox="0 0 187 53">
  <path fill="#fff" d="M102.621 7.837c2.584-.452 5.392-.138 7.661 1.24 1.869 1.118 3.083 3.22 3.145 5.391.015.278-.326.354-.539.333-.814-.003-1.632.03-2.444-.019-.276-.112-.243-.454-.328-.685a4.233 4.233 0 0 0-2.077-2.801c-1.412-.79-3.121-.858-4.685-.583-1.446.26-2.816 1.113-3.53 2.423-.795 1.427-.974 3.13-.807 4.734.178 1.524.882 3.051 2.161 3.954 1.422 1.015 3.288 1.211 4.974.92 1.396-.237 2.701-1.08 3.374-2.342.375-.615.527-1.322.748-1.997l.177-.128c.868-.045 1.742-.027 2.613-.01.242-.02.437.247.364.48-.22 2.207-1.504 4.252-3.332 5.491-1.935 1.341-4.391 1.749-6.697 1.467-2.228-.262-4.444-1.263-5.842-3.06-1.514-1.903-1.97-4.44-1.814-6.817.13-2.068.903-4.133 2.36-5.633 1.197-1.253 2.823-2.046 4.518-2.358Zm24.057-.105c2.634-.285 5.482.062 7.68 1.641 2.07 1.464 3.254 3.942 3.447 6.434.257 2.826-.651 5.872-2.837 7.77-1.926 1.692-4.583 2.282-7.092 2.206-2.313-.045-4.707-.718-6.434-2.318-1.869-1.709-2.782-4.287-2.751-6.786-.021-2.456.873-4.983 2.699-6.672 1.433-1.343 3.359-2.056 5.288-2.275Zm-.243 3.037c-1.597.347-3.086 1.343-3.825 2.826-.752 1.505-.837 3.282-.485 4.908.314 1.43 1.226 2.727 2.505 3.454 1.622.927 3.603 1.106 5.412.716 1.422-.31 2.78-1.101 3.585-2.339.93-1.411 1.106-3.194.885-4.837-.2-1.481-.966-2.909-2.213-3.765-1.687-1.17-3.893-1.392-5.864-.963ZM61.758 8.75c-.01-.26-.019-.67.34-.683 1.027-.002 2.077-.081 3.095.043 3.4 4.092 6.693 8.28 10.067 12.4.016-3.983-.003-7.965.009-11.946-.03-.216.064-.484.32-.492.807-.045 1.62-.02 2.43-.016.201-.015.498.088.47.342.05 5.356-.036 10.714.043 16.07 2.41-5.359 4.843-10.708 7.261-16.063.071-.214.245-.385.49-.347.933-.009 1.866-.024 2.8.009.214.017.283.236.37.397 2.438 5.4 4.883 10.799 7.324 16.199.2.252.081.728-.288.702-.924.021-1.847.014-2.769.004-.283.053-.403-.216-.49-.425-.635-1.46-1.277-2.92-1.914-4.38-2.526.002-5.053-.004-7.58.003-.718 1.57-1.329 3.204-2.123 4.735-1.04.141-2.136.096-3.19.01-1.107.112-2.234.081-3.344.026-3.4-4.11-6.714-8.297-10.083-12.434-.003 4.018.009 8.04-.005 12.058.034.253-.217.45-.46.409-.857-.007-1.72.046-2.572-.033a20.627 20.627 0 0 1-.18-.197c-.045-5.462-.003-10.928-.02-16.39Zm23.253 8.88h5.052l-2.552-5.89c-.837 1.962-1.668 3.926-2.5 5.89Zm29.646-9.477c.221-.174.54-.07.804-.105.68.019 1.367-.037 2.047.034.311.083.242.421.261.67-.003 5.288-.005 10.578 0 15.866-.017.256.064.628-.257.734-.796.053-1.593.012-2.391.024-.258.04-.642-.075-.586-.406-.012-5.352.001-10.704-.007-16.056.043-.243-.092-.59.129-.761Zm23.994.417c-.054-.26.138-.545.426-.51.989-.007 1.981-.038 2.97.017 1.272 1.424 2.415 2.969 3.639 4.439 2.155 2.666 4.309 5.336 6.468 8.001 0-3.81.004-7.621-.001-11.432.013-.288-.045-.592.065-.867.173-.208.459-.155.701-.169.744.014 1.491-.032 2.233.028.278.097.257.421.262.661.006 5.235-.017 10.47.013 15.704 2.442-5.36 4.849-10.737 7.293-16.098.157-.438.708-.252 1.062-.296.782.055 1.608-.106 2.366.088.64 1.168 1.115 2.431 1.691 3.634 1.909 4.238 3.842 8.46 5.734 12.705.062-4.78.008-9.562.027-14.34.018-.632-.053-1.271.043-1.896.208-.248.554-.176.843-.191.692.017 1.387-.028 2.079.027.227.04.29.287.27.485v13.882c3.182.001 6.363-.006 9.546.001.248-.04.538.15.502.428.003.751.031 1.505-.017 2.256-.113.259-.425.257-.658.25-2.932-.005-5.865-.001-8.797-.001-1.243-.033-2.49.07-3.726-.06a20.897 20.897 0 0 1-3.319.013c-.834-1.52-1.42-3.184-2.154-4.763-2.527-.006-5.053 0-7.578-.002-.641 1.456-1.276 2.913-1.913 4.37-.093.193-.202.481-.473.433-.978.003-1.962.047-2.939-.038-1.027.09-2.061.036-3.089.041-.271.047-.414-.219-.566-.38-3.252-4.036-6.512-8.063-9.769-12.094-.012 4.08.026 8.163-.017 12.243-.461.483-1.295.128-1.906.237-.424-.063-1.284.227-1.306-.427-.012-5.459-.003-10.92-.005-16.378Zm25.731 3.2c-.816 1.96-1.657 3.906-2.48 5.862 1.685-.004 3.369-.002 5.054-.002-.869-1.949-1.659-3.933-2.574-5.86Zm-96.97 17.472c2.294-.304 4.797-.176 6.821 1.052 1.553.93 2.477 2.72 2.466 4.514-.16.378-.614.252-.931.278-.703-.037-1.42.069-2.111-.057-.276-.245-.233-.686-.382-1.007-.35-1.066-1.446-1.653-2.492-1.84-1.451-.253-3.079-.305-4.372.513-.768.468-1.17 1.55-.712 2.363.386.585 1.1.811 1.75.97 1.841.366 3.71.595 5.547.998 1.591.376 3.294 1.2 3.943 2.806.777 2.11.014 4.73-1.865 6.006-1.802 1.256-4.101 1.491-6.238 1.38-1.858-.106-3.799-.562-5.238-1.806-1.301-1.115-1.93-2.883-1.824-4.57l.193-.213a38.253 38.253 0 0 1 2.779-.008c.359.151.209.617.31.916.121 1.043.913 1.9 1.866 2.28 1.267.523 2.68.571 4.029.444.947-.126 1.972-.39 2.618-1.143.633-.735.574-2.031-.285-2.572-1.09-.688-2.425-.706-3.654-.954-2.035-.385-4.297-.46-5.96-1.855-1.988-1.666-1.79-5.014-.011-6.76 1.002-.993 2.38-1.516 3.753-1.735Zm28.001 1.56c2.38-1.724 5.518-2.004 8.335-1.445 1.859.366 3.673 1.316 4.765 2.905a7.333 7.333 0 0 1 1.201 2.86c.019.445-.516.402-.818.395-.797-.043-1.617.081-2.397-.066-.266-.334-.335-.787-.561-1.147-.604-1.146-1.793-1.885-3.046-2.118-1.812-.34-3.85-.223-5.388.892-1.381.988-2.092 2.67-2.251 4.32-.15 1.69.123 3.51 1.165 4.895.894 1.206 2.375 1.842 3.84 1.978 1.8.193 3.78-.126 5.167-1.372.844-.725 1.355-1.767 1.561-2.85-1.718-.026-3.437.031-5.15-.027l-.208-.22c-.038-.8-.038-1.605 0-2.405.052-.254.334-.275.541-.266 2.471.005 4.943-.005 7.414.005a.376.376 0 0 1 .411.43c.012 2.934.008 5.868.002 8.8.036.627-.717.425-1.103.456-.447-.054-.962.12-1.36-.116-.209-.564-.237-1.175-.359-1.76-1.695 1.719-4.179 2.42-6.547 2.292-2.3-.06-4.677-.824-6.292-2.524-1.95-2.003-2.624-4.962-2.296-7.68.22-2.414 1.353-4.82 3.374-6.232Zm50.607 1.758c1.398-1.946 3.713-3.053 6.05-3.344 2.302-.276 4.739-.09 6.836.968 2.152 1.079 3.745 3.183 4.227 5.538.298-.497.074-1.075.141-1.613.071-1.405.779-2.763 1.918-3.594 1.569-1.165 3.602-1.461 5.51-1.408 1.835.054 3.772.46 5.201 1.683 1.08.908 1.689 2.287 1.788 3.681.055.233-.018.56-.295.592-.853.04-1.709.023-2.56.01-.428-.008-.371-.531-.49-.821-.206-.889-.944-1.565-1.788-1.852-.986-.342-2.049-.423-3.083-.355-.921.091-1.919.348-2.544 1.08-.567.654-.619 1.828.161 2.346.994.68 2.256.673 3.398.92 1.849.365 3.809.459 5.497 1.378 1.051.553 1.919 1.526 2.152 2.714.34 1.786-.212 3.79-1.617 4.994-1.543 1.359-3.679 1.74-5.673 1.771-2.076-.002-4.285-.324-5.98-1.614-1.193-.892-1.912-2.31-2.075-3.778-.797 2.01-2.373 3.706-4.385 4.533-2.518 1.042-5.4 1.104-8.014.388-2.435-.67-4.508-2.513-5.405-4.881-1.179-3.02-.897-6.68 1.03-9.335Zm6.305-.393c-1.227.233-2.418.789-3.281 1.707-.892.948-1.365 2.228-1.472 3.512-.145 1.628.126 3.38 1.148 4.7.914 1.205 2.362 1.904 3.835 2.131 1.639.25 3.391.064 4.856-.75a5.222 5.222 0 0 0 2.384-2.79c.461-1.275.509-2.678.276-4.007-.249-1.405-1.032-2.729-2.228-3.526-1.6-1.075-3.651-1.322-5.518-.977Zm10.863 3.714c.376 1.547.335 3.178-.014 4.724.892.035 1.798-.07 2.684.055.197.249.121.598.2.89.131 1.121 1.037 2.005 2.075 2.355 1.316.46 2.754.499 4.126.312.832-.145 1.709-.417 2.285-1.073.658-.732.606-2.071-.276-2.608-1.066-.666-2.368-.69-3.567-.93-1.838-.354-3.811-.432-5.444-1.443-.927-.583-1.769-1.526-1.833-2.667-.081.128-.16.256-.236.385Zm-85.739-5.92c-.066-.331.277-.488.552-.443 4.32 0 8.64-.002 12.96 0 .205-.009.502.02.533.288.03.8.038 1.607-.009 2.408l-.198.198c-3.535.047-7.073-.003-10.61.024.01 1.334.002 2.67.004 4.006 3.433.02 6.871-.038 10.302.028.047.06.14.183.186.245.032.792.037 1.591-.003 2.383l-.235.235c-3.415.052-6.834.007-10.25.023 0 1.515.002 3.032-.001 4.549 3.594.017 7.193-.024 10.786.019l.232.174c.103.801.05 1.623.027 2.429-.034.293-.367.305-.595.293-4.43-.007-8.86.007-13.29-.005-.258.036-.442-.209-.391-.452-.006-5.468-.007-10.936 0-16.402Zm34.274-.414c.889-.062 1.788-.03 2.681-.017.227-.009.346.243.317.445.012 3.507-.009 7.016.01 10.525-.003 1.046.316 2.166 1.159 2.846 1.075.88 2.542 1.008 3.878.966 1.22-.046 2.559-.336 3.398-1.296.647-.732.837-1.748.816-2.697-.005-3.392 0-6.783-.003-10.175-.007-.23-.005-.576.295-.609.853-.038 1.709-.019 2.563-.012.331-.028.428.352.4.614 0 3.228.002 6.454-.001 9.68.02 1.751-.251 3.626-1.388 5.027-1.158 1.469-3.043 2.121-4.846 2.313-1.849.18-3.766.12-5.53-.506-1.244-.445-2.373-1.279-3.036-2.435-.696-1.169-.929-2.55-.947-3.89-.002-3.397.001-6.795-.002-10.192-.007-.209-.011-.507.236-.587Z"/>
  <path fill="#fff" d="M128.877 30.151c-.04-.269.062-.657.404-.628 3.155-.015 6.312 0 9.468-.007 1.208-.038 2.489.038 3.545.69 2.808 1.687 2.876 6.481.012 8.15 1.428.868 1.773 2.669 1.769 4.215.126 1.229-.05 2.6.684 3.673.184.224-.019.612-.314.57-.91.003-1.823.025-2.731-.011-.302-.123-.421-.483-.512-.767-.42-1.715.022-3.62-.849-5.226-.475-.87-1.554-1.03-2.451-1.002-1.923-.002-3.846 0-5.768 0-.004 2.183.007 4.368-.004 6.553.038.248-.162.499-.424.454-.848.002-1.695.024-2.539-.012-.293-.036-.297-.394-.29-.616V30.15Zm3.26 2.275c-.007 1.49-.001 2.979-.003 4.468 2.206-.001 4.411.006 6.617-.001.839-.004 1.802-.304 2.187-1.119.383-.845.326-1.96-.325-2.663-.523-.537-1.31-.671-2.029-.678-2.149-.01-4.298.003-6.447-.007ZM3.345 2.932A7.97 7.97 0 0 1 8.618.975h34.176c1.384.009 2.806-.097 4.144.342 3.23.93 5.632 4.093 5.647 7.457.016 14.724.002 29.448.007 44.171-6.764.005-13.527-.007-20.291.007-1.09-1.185-2.17-2.382-3.274-3.553-.021-2.541-.009-5.081-.007-7.622a504.07 504.07 0 0 0 3.788-3.091c-1.477.197-2.95.43-4.429.62a480.458 480.458 0 0 0-1.258-4.405c-.322.944-.633 1.892-.949 2.836-.737-.418-1.474-.843-2.21-1.26.325 1.218.658 2.435.99 3.654-1.176-.27-2.346-.56-3.523-.819 1.19.927 2.398 1.826 3.592 2.745.002 2.241-.005 4.485.005 6.727-.009.283.03.616-.223.815-1.054 1.122-2.128 2.224-3.175 3.353-4.391-.014-8.782-.002-13.172-.005a7.911 7.911 0 0 1-5.12-1.959c-1.67-1.45-2.7-3.623-2.716-5.839.002-12.138 0-24.278 0-36.416.03-2.204 1.058-4.363 2.725-5.8Zm22.264 8.405c.104 1.072.76 2.02 1.597 2.667.98-.627 1.726-1.664 1.79-2.85.164-1.356-.515-2.71-1.645-3.455-1.155.804-1.857 2.232-1.742 3.638Zm4.448-.847c-.654 1.337-.374 2.97.454 4.168 1.21-.328 2.252-1.263 2.565-2.497.395-1.224.053-2.593-.794-3.544-1.013.183-1.842.932-2.225 1.873Zm-9.841-1.088c-.168 1.357.178 2.847 1.224 3.787.797.718 1.924.87 2.956.792.245-1.063.085-2.248-.625-3.106-.826-1.077-2.24-1.51-3.555-1.473Zm14.389 3.58c-.552.939-.539 2.081-.335 3.12 2.083.354 3.985-1.684 3.724-3.72-.082-.358-.069-.846-.38-1.081-1.249-.23-2.414.644-3.01 1.681ZM14.69 11.896c-.126 1.43.476 2.962 1.694 3.768.846.55 1.906.561 2.867.392.185-1.21-.226-2.52-1.2-3.295-.921-.79-2.191-.946-3.361-.865Zm10.572 3.488c-.906.427-1.498 1.291-1.88 2.189 1.12.695 2.507 1.073 3.806.721 1.065-.312 1.783-1.275 2.174-2.27-1.086-.995-2.764-1.26-4.1-.64Zm17.066-.096c-.794 1.115-.958 2.68-.276 3.886.51.877 1.457 1.381 2.411 1.626.67-.99.901-2.31.416-3.427-.47-1.05-1.502-1.712-2.55-2.085Zm-31.434.355c-.98.844-1.451 2.197-1.348 3.473.135 1.237 1.062 2.202 2.056 2.861.954-1.033 1.588-2.521 1.15-3.926-.315-.968-.953-1.926-1.858-2.408Zm23.48 3.355c.754.957 2.045 1.46 3.242 1.155 1.164-.212 2.077-1.142 2.444-2.243-.678-.905-1.872-1.276-2.963-1.05-1.22.164-2.147 1.108-2.724 2.139Zm-20.415-.933c-.307 1.367-.053 2.906.895 3.973.759.84 1.933 1.144 3.032 1.108.128-1.35-.026-2.838-.913-3.921-.739-.867-1.924-1.13-3.013-1.16Zm4.795.523c.128 1.617 1.533 3.027 3.16 3.098.936.067 1.835-.271 2.64-.715-.29-1.289-1.266-2.43-2.553-2.792-1.091-.287-2.23-.014-3.247.409Zm11.817 2.777c.206 1.401 1.352 2.435 2.568 3.027.894-1.196 1.14-2.85.606-4.247-.37-.953-1.196-1.69-2.155-2.021a3.61 3.61 0 0 0-1.019 3.24Zm-4.553 2.088c.21 1.013.912 1.854 1.757 2.416.953-.74 1.46-1.948 1.395-3.146.027-1.296-.74-2.466-1.745-3.226-1.165.92-1.688 2.513-1.407 3.956Zm12.411-1.98c-.04 1.395.777 2.798 2.047 3.397 1 .447 2.16.255 3.128-.183-.04-1.457-.88-2.984-2.339-3.42-.918-.237-1.986-.229-2.836.206ZM7.565 26.175c.606 1.006 1.77 1.47 2.869 1.703.48-1.222.557-2.713-.195-3.842-.618-.958-1.683-1.498-2.748-1.803-.634 1.213-.6 2.753.074 3.942Zm27.43.889c.423.833 1.15 1.463 1.94 1.941 1.135-1.235 1.436-3.137.77-4.672-.34-.778-1.007-1.372-1.775-1.714-1.317 1.017-1.698 2.985-.935 4.445Zm-14.332-.318c.556.967 1.646 1.48 2.72 1.614.32-1.291.312-2.755-.42-3.908-.548-.844-1.548-1.229-2.504-1.37-.54 1.163-.448 2.566.204 3.664Zm-8.694-.447c.74.987 1.968 1.65 3.223 1.424a3.012 3.012 0 0 0 2.621-2.226c-.774-.663-1.769-1.126-2.808-1.048-1.253.055-2.28.92-3.036 1.85Zm32.311-1.224c-1.206.808-1.558 2.373-1.476 3.742 2.306.502 4.864-1.636 4.357-4.05-.865-.555-2.077-.258-2.88.308Zm-27.499 4.517c-.162 1.001-.174 2.252.679 2.958.215.233.531.081.76-.038 1.829-1.154 2.474-4.062.905-5.685-1.196.43-2.166 1.488-2.344 2.765Zm7.962-2.672c-.271.977-.38 2.085.186 2.983.637 1.286 2.028 2.043 3.442 2.054.485-1.155.166-2.487-.411-3.547-.614-1.129-1.992-1.597-3.217-1.49Zm5.36.4c-.003 1.259.625 2.457 1.557 3.282.905.785 2.277.825 3.34.354.154-1.064-.254-2.239-1.108-2.93-.994-.942-2.52-1.204-3.788-.707Zm7.022 2.988c-.237 1.029-.018 2.111.426 3.053 2.038-.438 3.603-2.682 2.986-4.739-.125-.283-.173-.7-.473-.835-1.416.03-2.613 1.189-2.94 2.521ZM5.98 28.733c-.06 1.368.557 2.78 1.688 3.576.964.633 2.193.557 3.267.29-.073-1.219-.5-2.517-1.517-3.267-.975-.734-2.275-.81-3.438-.6Zm6.843.402c-.518 1.078-.675 2.395-.1 3.486.433.785 1.05 1.57 1.936 1.854.416.12 1.055.146 1.196-.375.502-1.415.118-3.129-.985-4.166-.532-.55-1.288-.823-2.047-.8Zm30.833 1.18c-1.491.456-2.561 1.89-2.646 3.436 1.196.558 2.651.425 3.783-.226.972-.62 1.42-1.796 1.487-2.908-.812-.37-1.754-.645-2.624-.302ZM19.72 33.047c.58.775 1.34 1.542 2.366 1.614 1.441.268 2.884-.462 3.709-1.633-.658-1.097-1.943-1.688-3.186-1.767-1.224-.069-2.296.777-2.89 1.786Zm10.022-.749c-.778.275-1.37.877-1.866 1.514.663 1.425 2.367 2.071 3.86 1.949.964-.082 1.741-.784 2.198-1.597-.509-.689-.98-1.496-1.801-1.848a3.47 3.47 0 0 0-2.39-.018Zm5.511 2.72c-1.41.468-2.373 1.823-2.542 3.273 1.097.61 2.468.52 3.584.014 1.126-.537 1.687-1.811 1.763-3-.865-.407-1.883-.696-2.805-.287Zm-24.926 2.24c.703 1 1.925 1.649 3.16 1.456 1.257-.094 2.368-1.003 2.69-2.225-.787-.685-1.81-1.151-2.872-1.058-1.226.083-2.218.93-2.978 1.828ZM38.233 38.3c.949.71 2.243.782 3.353.461 1.16-.357 1.87-1.519 2.063-2.665-.765-.473-1.675-.878-2.586-.605-1.415.255-2.49 1.444-2.83 2.81Zm-19.367-2.062c-1.294.69-1.826 2.188-2.133 3.535 2.292 1.215 5.447-.991 5.076-3.566-.917-.466-2.045-.494-2.943.03Z"/>
  <path fill="#015B93" d="M25.61 11.337c-.116-1.406.586-2.834 1.74-3.638 1.131.746 1.81 2.099 1.645 3.455-.063 1.186-.809 2.223-1.79 2.85-.836-.647-1.492-1.595-1.596-2.667Zm4.447-.847c.383-.94 1.212-1.69 2.225-1.873.847.951 1.189 2.32.794 3.543-.313 1.235-1.355 2.17-2.565 2.498-.829-1.198-1.108-2.83-.454-4.168Zm-9.841-1.088c1.315-.037 2.729.396 3.555 1.473.71.857.87 2.043.625 3.106-1.032.078-2.16-.074-2.957-.792-1.045-.94-1.39-2.43-1.223-3.787Zm14.389 3.58c.595-1.037 1.76-1.91 3.01-1.681.31.235.297.723.38 1.08.26 2.037-1.642 4.075-3.725 3.721-.204-1.039-.218-2.181.335-3.12ZM14.69 11.896c1.17-.08 2.44.075 3.362.865.973.775 1.384 2.085 1.2 3.295-.962.169-2.022.159-2.868-.392-1.218-.806-1.82-2.339-1.694-3.768Zm10.572 3.488c1.336-.62 3.014-.355 4.1.64-.39.995-1.108 1.958-2.173 2.27-1.3.352-2.688-.026-3.806-.721.381-.898.973-1.762 1.88-2.189Zm17.066-.096c1.05.373 2.082 1.035 2.551 2.085.485 1.116.254 2.437-.416 3.427-.954-.245-1.902-.749-2.411-1.626-.682-1.206-.518-2.771.276-3.886Zm-31.434.355c.905.482 1.543 1.44 1.857 2.408.439 1.405-.195 2.893-1.15 3.926-.993-.659-1.92-1.624-2.055-2.861-.103-1.276.368-2.629 1.348-3.473Zm3.066 2.422c1.089.03 2.274.293 3.013 1.16.887 1.083 1.04 2.571.913 3.92-1.1.037-2.273-.267-3.032-1.107-.948-1.067-1.202-2.606-.894-3.973Zm4.794.523c1.017-.423 2.156-.696 3.246-.41 1.288.363 2.263 1.504 2.555 2.793-.806.444-1.705.782-2.64.715-1.628-.071-3.033-1.481-3.16-3.098Zm11.817 2.777a3.61 3.61 0 0 1 1.019-3.242c.96.332 1.786 1.069 2.155 2.021.534 1.399.288 3.052-.605 4.248-1.217-.592-2.363-1.626-2.569-3.027Zm7.859.109c.848-.436 1.917-.444 2.835-.208 1.458.437 2.299 1.964 2.339 3.421-.969.438-2.129.63-3.128.183-1.27-.599-2.086-2.002-2.047-3.396ZM7.565 26.175c-.673-1.19-.708-2.729-.074-3.942 1.065.305 2.13.845 2.747 1.803.753 1.13.675 2.62.196 3.842-1.1-.233-2.263-.697-2.869-1.703Zm27.43.889c-.763-1.46-.382-3.428.935-4.445.768.342 1.434.936 1.775 1.714.666 1.535.365 3.437-.77 4.672-.79-.478-1.517-1.108-1.94-1.941Zm-14.332-.318c-.652-1.098-.744-2.5-.204-3.664.956.142 1.956.526 2.505 1.37.731 1.153.738 2.617.419 3.908-1.074-.135-2.164-.647-2.72-1.614ZM11.97 26.3c.755-.931 1.782-1.796 3.035-1.851 1.04-.078 2.033.385 2.808 1.047a3.013 3.013 0 0 1-2.621 2.227c-1.255.226-2.484-.437-3.223-1.424Zm32.31-1.225c.804-.566 2.016-.863 2.88-.308.508 2.414-2.05 4.552-4.355 4.05-.083-1.369.269-2.934 1.475-3.742Zm-27.499 4.517c.178-1.277 1.148-2.335 2.344-2.765 1.569 1.622.923 4.53-.904 5.685-.23.12-.546.271-.761.038-.853-.706-.84-1.957-.679-2.958Zm20.344.716c.326-1.332 1.524-2.492 2.939-2.521.3.134.348.552.473.835.618 2.057-.948 4.301-2.986 4.74-.444-.943-.663-2.025-.426-3.054ZM5.98 28.733c1.164-.211 2.464-.135 3.439.598 1.018.751 1.444 2.05 1.517 3.268-1.074.267-2.303.343-3.267-.29-1.13-.796-1.749-2.208-1.688-3.576Zm37.677 1.582c.87-.343 1.812-.067 2.624.302-.066 1.112-.515 2.289-1.486 2.908-1.133.651-2.588.784-3.784.227.085-1.547 1.155-2.981 2.646-3.437Zm-23.938 2.732c.593-1.01 1.665-1.855 2.889-1.786 1.243.08 2.528.67 3.186 1.767-.825 1.17-2.268 1.9-3.709 1.633-1.027-.072-1.786-.839-2.366-1.614Zm10.022-.749a3.47 3.47 0 0 1 2.39.018c.822.352 1.293 1.16 1.802 1.848-.457.813-1.234 1.515-2.198 1.596-1.493.123-3.197-.523-3.86-1.948.496-.637 1.088-1.24 1.866-1.514Zm5.511 2.72c.922-.409 1.94-.12 2.805.287-.076 1.189-.637 2.463-1.763 3-1.116.505-2.487.597-3.584-.014.169-1.45 1.132-2.805 2.542-3.273Zm-8.131-.117a458.62 458.62 0 0 1 1.258 4.404c1.48-.19 2.952-.422 4.43-.62a501.612 501.612 0 0 1-3.79 3.092c-.001 2.54-.013 5.081.008 7.622 1.104 1.172 2.185 2.367 3.274 3.553-3.557.024-7.116.023-10.673 0 1.047-1.128 2.12-2.231 3.175-3.353.252-.199.214-.532.223-.815-.01-2.242-.003-4.486-.005-6.727-1.195-.919-2.403-1.818-3.592-2.745 1.177.26 2.347.55 3.523.819-.332-1.219-.665-2.436-.99-3.654.736.417 1.473.842 2.21 1.26.316-.944.627-1.892.95-2.836Zm-16.795 2.357c.76-.897 1.752-1.744 2.978-1.827 1.061-.093 2.085.373 2.872 1.058-.321 1.222-1.433 2.131-2.69 2.225-1.235.193-2.457-.456-3.16-1.456ZM38.233 38.3c.34-1.366 1.415-2.555 2.83-2.81.911-.273 1.82.132 2.585.605-.191 1.146-.902 2.308-2.062 2.665-1.11.321-2.404.249-3.353-.46Zm-19.367-2.063c.898-.525 2.026-.497 2.943-.031.371 2.575-2.784 4.78-5.076 3.566.307-1.347.839-2.845 2.133-3.535Z"/>
  <path fill="#F5821F" d="M34.373 18.998c.577-1.03 1.504-1.974 2.724-2.138 1.09-.226 2.285.145 2.963 1.05-.367 1.1-1.28 2.03-2.444 2.243-1.197.306-2.488-.198-3.242-1.154Zm-8.355 4.455c-.281-1.443.242-3.036 1.407-3.956 1.004.76 1.773 1.93 1.745 3.226.065 1.198-.442 2.406-1.395 3.146-.845-.562-1.546-1.403-1.757-2.416Zm-1.275 3.467c1.225-.107 2.603.361 3.217 1.49.576 1.06.896 2.392.41 3.546-1.413-.01-2.804-.767-3.44-2.053-.567-.898-.458-2.006-.187-2.983Zm5.361.4c1.268-.498 2.794-.236 3.788.707.854.69 1.262 1.865 1.108 2.928-1.063.472-2.435.432-3.34-.353-.932-.825-1.56-2.023-1.556-3.283Zm-17.28 1.815c.76-.024 1.515.248 2.047.799 1.103 1.037 1.487 2.75.985 4.166-.141.521-.78.495-1.196.375-.887-.283-1.503-1.069-1.936-1.854-.575-1.09-.418-2.408.1-3.486Z"/>
</svg>
