<svg xmlns="http://www.w3.org/2000/svg" width="46" height="46" fill="none" viewBox="0 0 46 46">
  <path fill="#fff" d="M2.978 2.668A6.897 6.897 0 0 1 7.541.974h29.576c1.198.008 2.428-.083 3.586.296 2.794.805 4.873 3.543 4.887 6.454.013 12.741.001 25.483.006 38.225-5.853.004-11.707-.006-17.56.006-.943-1.026-1.878-2.062-2.833-3.076-.018-2.198-.008-4.397-.006-6.595a436.103 436.103 0 0 0 3.278-2.675c-1.278.17-2.552.372-3.832.536a427.02 427.02 0 0 0-1.09-3.812c-.279.817-.547 1.637-.82 2.454-.639-.361-1.276-.729-1.914-1.09.282 1.054.57 2.107.857 3.162-1.017-.233-2.03-.484-3.048-.708 1.029.802 2.075 1.58 3.108 2.375.002 1.94-.004 3.881.005 5.822-.008.245.025.533-.193.705-.913.97-1.842 1.925-2.748 2.902-3.8-.012-7.6-.002-11.4-.005a6.847 6.847 0 0 1-4.43-1.695C1.526 43 .634 41.12.62 39.202V7.688c.025-1.907.916-3.776 2.358-5.02Zm19.267 7.274c.09.927.658 1.747 1.382 2.307.848-.542 1.494-1.44 1.549-2.466.142-1.174-.445-2.345-1.424-2.99-.999.696-1.607 1.931-1.507 3.149Zm3.85-.734c-.567 1.158-.325 2.57.392 3.607 1.047-.284 1.95-1.093 2.22-2.161.342-1.059.046-2.243-.688-3.066-.876.158-1.593.806-1.925 1.62Zm-8.517-.94c-.145 1.173.154 2.462 1.059 3.276.69.621 1.665.753 2.558.686.212-.92.074-1.946-.54-2.689-.716-.932-1.939-1.307-3.077-1.274Zm12.452 3.097c-.478.813-.466 1.801-.29 2.7 1.803.306 3.449-1.457 3.223-3.22-.071-.309-.06-.732-.328-.935-1.082-.198-2.09.557-2.605 1.455Zm-17.234-.94c-.11 1.237.412 2.563 1.466 3.261.732.476 1.65.485 2.481.339.16-1.047-.196-2.18-1.038-2.851-.797-.684-1.897-.819-2.91-.748Zm9.15 3.019c-.785.369-1.297 1.117-1.627 1.894.968.602 2.168.929 3.293.624.922-.27 1.543-1.104 1.88-1.964-.939-.862-2.39-1.09-3.547-.554Zm14.768-.084c-.687.965-.83 2.32-.24 3.364.441.759 1.261 1.195 2.087 1.407.58-.858.78-2 .36-2.966-.406-.908-1.3-1.482-2.207-1.805Zm-27.203.308c-.848.73-1.256 1.901-1.166 3.005.116 1.071.918 1.906 1.779 2.476.825-.894 1.374-2.182.994-3.397-.271-.838-.824-1.667-1.607-2.084Zm20.319 2.904c.652.827 1.77 1.263 2.806.999 1.007-.184 1.797-.989 2.115-1.942-.587-.782-1.62-1.104-2.564-.908-1.056.142-1.858.959-2.357 1.85Zm-17.666-.808c-.266 1.182-.046 2.515.774 3.438.657.727 1.672.99 2.624.959.11-1.168-.023-2.456-.79-3.394-.64-.75-1.666-.978-2.608-1.003Zm4.149.452c.11 1.4 1.326 2.62 2.735 2.681.81.058 1.587-.234 2.285-.618-.253-1.116-1.096-2.103-2.21-2.417-.945-.248-1.93-.012-2.81.354Zm10.226 2.403c.178 1.213 1.17 2.108 2.223 2.62.773-1.035.986-2.466.524-3.676-.32-.824-1.035-1.462-1.865-1.749a3.125 3.125 0 0 0-.882 2.805Zm-3.94 1.807c.183.877.789 1.605 1.52 2.091.825-.64 1.264-1.686 1.208-2.722.023-1.122-.641-2.135-1.51-2.792-1.009.796-1.461 2.175-1.218 3.423Zm10.74-1.713c-.034 1.207.673 2.421 1.772 2.94.865.387 1.869.22 2.706-.159-.034-1.26-.761-2.582-2.023-2.96-.795-.204-1.72-.197-2.454.18ZM6.63 22.782c.524.87 1.531 1.272 2.482 1.474.416-1.058.483-2.348-.168-3.325-.535-.829-1.457-1.296-2.378-1.56-.548 1.05-.518 2.382.064 3.41Zm23.737.769c.366.721.995 1.267 1.68 1.68.982-1.07 1.242-2.715.665-4.043-.294-.673-.87-1.187-1.535-1.483-1.14.88-1.47 2.582-.81 3.846Zm-12.402-.275c.48.837 1.425 1.28 2.354 1.397.276-1.117.27-2.384-.363-3.382-.475-.73-1.34-1.063-2.167-1.186-.468 1.007-.389 2.221.176 3.171Zm-7.523-.387c.639.855 1.702 1.428 2.788 1.233a2.607 2.607 0 0 0 2.269-1.927c-.67-.574-1.531-.974-2.43-.907-1.084.048-1.973.796-2.627 1.601Zm27.96-1.059c-1.043.7-1.348 2.054-1.276 3.239 1.995.434 4.209-1.416 3.77-3.506-.749-.48-1.797-.223-2.493.267Zm-23.796 3.91c-.14.865-.151 1.948.587 2.56.186.2.46.07.658-.034 1.582-.999 2.14-3.516.783-4.92-1.035.372-1.874 1.288-2.028 2.393Zm6.89-2.313c-.235.845-.329 1.804.16 2.58.552 1.114 1.756 1.77 2.98 1.778.419-.999.143-2.152-.356-3.069-.532-.977-1.724-1.382-2.784-1.289Zm4.639.345c-.003 1.09.54 2.127 1.347 2.84.783.68 1.97.715 2.89.307.133-.92-.22-1.937-.959-2.535-.86-.815-2.18-1.042-3.278-.612Zm6.076 2.587c-.205.89-.015 1.826.368 2.642 1.764-.38 3.119-2.321 2.584-4.101-.107-.245-.15-.607-.409-.723-1.225.025-2.261 1.029-2.543 2.182ZM5.259 24.995c-.052 1.185.482 2.406 1.46 3.095.836.548 1.9.482 2.828.25-.063-1.054-.432-2.177-1.313-2.826-.844-.635-1.968-.7-2.975-.519Zm5.922.348c-.448.934-.584 2.073-.087 3.017.375.68.909 1.36 1.676 1.604.36.105.913.127 1.035-.324.435-1.224.102-2.708-.853-3.605-.46-.477-1.114-.713-1.771-.692Zm26.683 1.022c-1.29.394-2.217 1.635-2.29 2.974 1.035.482 2.294.367 3.274-.196.84-.536 1.23-1.555 1.286-2.517-.702-.32-1.518-.558-2.27-.261Zm-20.716 2.364c.502.67 1.159 1.334 2.047 1.397 1.248.231 2.496-.4 3.21-1.413-.569-.95-1.682-1.46-2.757-1.53-1.059-.06-1.986.672-2.5 1.546Zm8.673-.648c-.674.238-1.186.759-1.615 1.31.574 1.234 2.048 1.792 3.34 1.686.835-.07 1.507-.678 1.903-1.382-.44-.595-.849-1.294-1.56-1.6a3.004 3.004 0 0 0-2.068-.014Zm4.769 2.354c-1.22.405-2.054 1.577-2.2 2.832.95.528 2.136.45 3.102.012.974-.465 1.46-1.567 1.525-2.596-.748-.353-1.63-.602-2.427-.248ZM9.02 32.374c.608.864 1.665 1.426 2.735 1.259 1.087-.081 2.049-.868 2.326-1.926-.68-.593-1.566-.996-2.485-.915-1.06.071-1.919.805-2.576 1.581Zm24.15.9c.82.614 1.941.677 2.901.399 1.004-.31 1.62-1.314 1.785-2.306-.662-.41-1.449-.76-2.237-.524-1.225.22-2.155 1.25-2.45 2.431ZM16.41 31.49c-1.12.598-1.58 1.894-1.846 3.06 1.983 1.05 4.714-.858 4.392-3.087-.793-.403-1.77-.427-2.546.027Z"/>
  <path fill="#015B93" d="M22.245 9.942c-.1-1.218.508-2.453 1.507-3.149.979.645 1.566 1.816 1.424 2.99-.055 1.026-.7 1.924-1.55 2.466-.724-.56-1.291-1.38-1.38-2.307Zm3.849-.734c.332-.814 1.049-1.462 1.925-1.62.734.823 1.03 2.007.688 3.066-.27 1.068-1.173 1.877-2.22 2.161-.717-1.036-.959-2.45-.393-3.607Zm-8.516-.941c1.138-.033 2.361.342 3.077 1.274.614.743.752 1.769.54 2.689-.893.067-1.868-.065-2.558-.686-.905-.814-1.204-2.103-1.059-3.277Zm12.452 3.098c.515-.898 1.523-1.653 2.605-1.455.269.203.257.626.328.935.226 1.763-1.42 3.526-3.223 3.22-.176-.899-.188-1.887.29-2.7Zm-17.234-.94c1.012-.07 2.112.065 2.91.749.841.67 1.197 1.804 1.037 2.851-.832.146-1.749.137-2.48-.339-1.055-.697-1.576-2.024-1.467-3.26Zm9.149 3.019c1.156-.536 2.608-.308 3.547.554-.337.86-.958 1.694-1.88 1.964-1.125.305-2.325-.022-3.293-.624.33-.777.842-1.525 1.626-1.894Zm14.769-.084c.908.323 1.8.897 2.207 1.805.42.966.22 2.108-.36 2.966-.826-.212-1.646-.648-2.086-1.407-.59-1.044-.448-2.399.239-3.364Zm-27.203.308c.783.417 1.336 1.246 1.607 2.084.38 1.215-.168 2.503-.994 3.397-.86-.57-1.663-1.405-1.78-2.476-.089-1.104.319-2.275 1.167-3.005Zm2.653 2.096c.942.025 1.968.253 2.608 1.003.767.938.9 2.226.79 3.394-.952.03-1.967-.232-2.624-.96-.82-.922-1.04-2.255-.774-3.438Zm4.149.452c.88-.366 1.865-.602 2.81-.354 1.113.314 1.957 1.301 2.21 2.417-.698.384-1.476.676-2.285.618-1.409-.061-2.624-1.281-2.735-2.68ZM26.54 18.62a3.124 3.124 0 0 1 .88-2.806c.831.287 1.546.925 1.866 1.75.462 1.209.25 2.64-.524 3.675-1.053-.512-2.045-1.407-2.223-2.62Zm6.8.093c.734-.376 1.659-.384 2.453-.179 1.263.378 1.99 1.7 2.024 2.96-.838.38-1.841.546-2.706.159-1.1-.519-1.806-1.733-1.771-2.94ZM6.63 22.782c-.582-1.03-.612-2.361-.064-3.412.921.265 1.843.732 2.378 1.561.65.977.584 2.267.168 3.325-.951-.202-1.958-.604-2.482-1.474Zm23.737.769c-.66-1.264-.33-2.966.81-3.846.665.296 1.241.81 1.535 1.483.577 1.328.317 2.974-.666 4.043-.684-.414-1.313-.959-1.679-1.68Zm-12.402-.275c-.565-.95-.644-2.164-.176-3.17.827.122 1.692.455 2.167 1.185.633.998.639 2.264.363 3.382-.93-.117-1.873-.56-2.354-1.397Zm-7.523-.386c.654-.806 1.543-1.554 2.627-1.602.899-.067 1.76.333 2.43.907a2.607 2.607 0 0 1-2.269 1.927c-1.086.195-2.15-.378-2.788-1.233Zm27.961-1.06c.696-.49 1.744-.746 2.493-.267.439 2.09-1.775 3.94-3.77 3.506-.072-1.185.233-2.54 1.277-3.239Zm-23.797 3.909c.154-1.105.993-2.02 2.028-2.393 1.358 1.404.8 3.921-.783 4.92-.198.103-.472.235-.658.033-.738-.61-.728-1.694-.587-2.56Zm17.604.62c.283-1.153 1.32-2.157 2.544-2.182.26.116.302.478.41.723.534 1.78-.82 3.722-2.584 4.101-.384-.816-.574-1.752-.37-2.642ZM5.26 24.995c1.006-.182 2.13-.116 2.974.518.881.65 1.25 1.773 1.313 2.828-.929.231-1.992.297-2.827-.251-.979-.689-1.513-1.91-1.46-3.095Zm32.604 1.37c.752-.297 1.568-.058 2.27.261-.057.962-.445 1.98-1.286 2.517-.98.563-2.239.678-3.274.196.073-1.339 1-2.58 2.29-2.974ZM17.148 28.73c.514-.875 1.441-1.606 2.5-1.547 1.075.07 2.188.58 2.757 1.53-.714 1.012-1.962 1.644-3.21 1.413-.888-.063-1.545-.726-2.047-1.397Zm8.673-.649a3.004 3.004 0 0 1 2.069.015c.71.305 1.118 1.004 1.559 1.6-.396.703-1.068 1.31-1.903 1.381-1.292.106-2.766-.453-3.34-1.686.43-.551.941-1.072 1.615-1.31Zm4.769 2.354c.797-.354 1.679-.105 2.427.248-.066 1.029-.551 2.131-1.525 2.596-.966.437-2.152.516-3.102-.012.146-1.255.98-2.427 2.2-2.832Zm-7.036-.102c.369 1.27.732 2.54 1.088 3.812 1.28-.164 2.555-.366 3.833-.536a434.098 434.098 0 0 1-3.278 2.675c-.002 2.198-.012 4.397.006 6.595.956 1.014 1.89 2.05 2.833 3.076-3.078.02-6.158.019-9.236 0 .906-.977 1.835-1.932 2.748-2.902.218-.172.185-.46.193-.705-.01-1.94-.003-3.882-.005-5.822-1.034-.795-2.079-1.573-3.108-2.375 1.018.224 2.031.475 3.048.708-.286-1.055-.575-2.108-.857-3.162.638.361 1.276.729 1.913 1.09.274-.817.542-1.637.822-2.454ZM9.02 32.373c.657-.776 1.516-1.51 2.576-1.581.919-.08 1.804.322 2.486.915-.278 1.058-1.24 1.845-2.327 1.926-1.07.167-2.127-.395-2.735-1.26Zm24.15.901c.294-1.181 1.224-2.21 2.449-2.431.788-.236 1.575.115 2.237.524-.166.992-.781 1.997-1.785 2.306-.96.278-2.08.215-2.902-.399ZM16.41 31.49c.777-.455 1.753-.43 2.547-.028.32 2.229-2.41 4.138-4.393 3.086.266-1.165.726-2.461 1.846-3.059Z"/>
  <path fill="#F5821F" d="M29.83 16.572c.499-.892 1.3-1.71 2.357-1.851.944-.196 1.977.125 2.564.908-.318.953-1.108 1.758-2.115 1.942-1.036.264-2.154-.172-2.806-1Zm-7.23 3.854c-.244-1.248.208-2.627 1.217-3.423.869.657 1.534 1.67 1.51 2.792.056 1.036-.383 2.082-1.207 2.722-.732-.486-1.338-1.214-1.52-2.09Zm-1.104 3.001c1.06-.093 2.252.312 2.784 1.289.498.917.775 2.07.355 3.07-1.223-.01-2.427-.665-2.978-1.778-.49-.777-.396-1.736-.161-2.581Zm4.639.345c1.097-.43 2.418-.203 3.278.612.74.598 1.092 1.615.959 2.535-.92.408-2.107.373-2.89-.306-.807-.714-1.35-1.75-1.347-2.841Zm-14.954 1.571c.657-.02 1.311.215 1.771.692.955.897 1.288 2.38.853 3.605-.122.451-.675.429-1.035.324-.768-.245-1.3-.924-1.676-1.604-.497-.944-.361-2.083.087-3.017Z"/>
</svg>
