<?xml version="1.0" encoding="UTF-8"?><svg id="Capa_2" xmlns="http://www.w3.org/2000/svg" viewBox="0 0 1135.32 722.03"><defs><style>.cls-1{fill:#fff;}.cls-2{fill:#ff735d;}.cls-3{fill:#fafafa;}.cls-4{opacity:.6;}.cls-5{fill:#f5f5f5;}.cls-6{fill:#e1e1e1;}.cls-7{fill:#7c4236;}.cls-8{opacity:.3;}.cls-9{fill:#00a0e4;}.cls-10{fill:#ffc19d;}.cls-11{fill:#ff9c6a;}.cls-12{fill:#375a64;}.cls-13{fill:#eb4a2a;}.cls-14{fill:#c07560;}.cls-15{fill:#004980;}.cls-16{fill:#ececec;}.cls-17{fill:#1a2e35;}</style></defs><g id="Capa_1-2"><g><g><g><path class="cls-16" d="M88.06,581.54c.09-15.23,10.05-24.96,10.05-24.96,3.04,12.53-10.05,24.96-10.05,24.96Z"/><path class="cls-16" d="M102.66,574.47c14-5.99,26.9-.74,26.9-.74-10.27,7.78-26.9,.74-26.9,.74Z"/><path class="cls-16" d="M104.32,566.35c-2.43-11.77,3.66-20.91,3.66-20.91,4.4,9.17-3.66,20.91-3.66,20.91Z"/><path class="cls-16" d="M47.9,537.07c21.33,5.68,32.77,24.22,32.77,24.22-18.23,.01-32.77-24.22-32.77-24.22Z"/><path class="cls-16" d="M81.96,545.81c-1.11-22.99,21.36-49,21.36-49-3.39,28.54-21.36,49-21.36,49"/><path class="cls-16" d="M81.85,480.34c.95,18.64-8.08,32.93-8.08,32.93-3.17-14.79,8.08-32.93,8.08-32.93Z"/><path class="cls-16" d="M73.19,527.05c-16.81-1.8-25.95-18.52-25.95-18.52,20.32,5.69,25.95,18.52,25.95,18.52Z"/><path class="cls-16" d="M36.94,597.33c12.84-8.18,26.42-5.09,26.42-5.09-8.88,9.34-26.42,5.09-26.42,5.09Z"/><path class="cls-16" d="M80.49,604.87c-3.19,8.79-11.29,12.72-11.29,12.72,.72-7.76,11.29-12.72,11.29-12.72Z"/><path class="cls-16" d="M78.33,602.4c-9.56,5.88-20.1,3.59-20.1,3.59,6.47-6.74,20.1-3.59,20.1-3.59Z"/><path class="cls-6" d="M86.92,633.34s-.02-.12-.03-.34c0-.27-.01-.6-.02-1,0-.94,0-2.23,0-3.85,.02-1.67,.02-3.72-.03-6.09-.04-2.37-.04-5.08-.17-8.07-.14-5.98-.57-13.08-1.18-20.96-.68-7.87-1.64-16.51-2.96-25.53-2.66-18.05-6.29-34.19-9.2-45.78-1.47-5.8-2.71-10.47-3.61-13.69-.42-1.57-.76-2.81-1-3.72-.1-.39-.18-.71-.24-.97-.05-.22-.07-.34-.06-.34,.01,0,.06,.1,.13,.32,.09,.26,.19,.57,.31,.95,.28,.9,.66,2.13,1.14,3.68,.99,3.2,2.31,7.86,3.85,13.64,3.05,11.57,6.77,27.72,9.43,45.81,1.32,9.04,2.25,17.7,2.9,25.59,.57,7.9,.94,15.02,1.02,21,.09,2.99,.06,5.7,.06,8.08,.01,2.38-.03,4.42-.09,6.1-.06,1.62-.1,2.91-.13,3.85-.02,.4-.04,.73-.05,1-.02,.23-.03,.34-.04,.34Z"/><path class="cls-6" d="M56.07,584.68c.12-.17,6.91,4.28,15.17,9.94,8.26,5.66,14.86,10.39,14.75,10.57s-6.91-4.28-15.17-9.94c-8.26-5.66-14.86-10.39-14.74-10.56Z"/><path class="cls-6" d="M85.99,587.13s.34-.44,1.04-1.14c.83-.8,1.84-1.78,3.02-2.91,2.72-2.55,6.23-5.84,10.1-9.47,3.88-3.63,7.38-6.92,10.1-9.47,1.2-1.12,2.22-2.08,3.06-2.87,.73-.67,1.15-1.03,1.19-.99,.04,.04-.31,.46-.98,1.2-.66,.74-1.66,1.78-2.9,3.05-2.49,2.53-6,5.95-9.96,9.64-3.95,3.69-7.59,6.98-10.26,9.32-1.33,1.17-2.42,2.1-3.19,2.74-.77,.63-1.21,.96-1.24,.92Z"/><path class="cls-16" d="M34.5,573.79s17.37-.33,24.72,13.34c0,0-14.82,.49-24.72-13.34Z"/><path class="cls-16" d="M58.22,566.82s14.14,10.09,11.89,25.44c0,0-12.19-8.44-11.89-25.44Z"/><path class="cls-16" d="M132.71,541.96s-5.58,19.44-23.31,22.94c0,0,4.53-16.66,23.31-22.94Z"/><path class="cls-16" d="M50.5,469.68s22.16,14.45,19.71,37.96c0,0-19.08-12.07-19.71-37.96Z"/></g><path class="cls-6" d="M124.25,598.25s-.49,.45-1.44,1.15c-.96,.69-2.32,1.73-3.98,3.04-3.31,2.62-7.69,6.49-12,11.27-4.3,4.8-7.68,9.57-9.93,13.14-1.13,1.78-2.01,3.25-2.6,4.28-.6,1.02-.95,1.58-.99,1.55-.05-.02,.22-.62,.73-1.69,.51-1.07,1.32-2.59,2.4-4.42,2.15-3.66,5.48-8.53,9.82-13.37,4.34-4.83,8.82-8.67,12.23-11.19,1.7-1.27,3.12-2.24,4.14-2.86,1.01-.63,1.58-.96,1.6-.91Z"/><path class="cls-16" d="M104.97,612.69c-2.83-14.96,5.09-26.42,5.09-26.42,2.38,16.48-5.09,26.42-5.09,26.42Z"/><path class="cls-16" d="M119.88,604.56c9.55-5.61,19.34-3,19.34-3-10.7,5.67-19.34,3-19.34,3Z"/></g><g><polygon class="cls-16" points="54.61 635.15 62.92 689.78 111.23 689.78 122.44 635.94 54.61 635.15"/><g><path class="cls-3" d="M115.68,670.16c0,.16-12.38,.28-27.64,.28s-27.64-.13-27.64-.28,12.37-.28,27.64-.28,27.64,.13,27.64,.28Z"/><path class="cls-3" d="M115.87,667.48c0,.16-12.46,.28-27.83,.28s-27.83-.13-27.83-.28,12.46-.28,27.83-.28,27.83,.13,27.83,.28Z"/><path class="cls-3" d="M115.77,664.44c0,.16-12.46,.28-27.83,.28s-27.83-.13-27.83-.28,12.46-.28,27.83-.28,27.83,.13,27.83,.28Z"/><path class="cls-3" d="M68.47,686.67c-.15,.03-.82-3.05-1.48-6.88-.66-3.83-1.08-6.95-.92-6.98,.15-.03,.82,3.05,1.48,6.88,.66,3.83,1.08,6.95,.92,6.98Z"/><path class="cls-3" d="M71.76,686.09c-.16,0-.34-3.01-.6-6.71-.25-3.71-.47-6.71-.32-6.73,.15-.02,.63,2.97,.88,6.69,.26,3.72,.19,6.75,.03,6.75Z"/><path class="cls-3" d="M77.75,686.08c-.15,.03-.81-3.04-1.26-6.88-.45-3.84-.52-6.98-.37-6.99,.16-.01,.48,3.1,.93,6.92,.45,3.82,.85,6.92,.69,6.95Z"/><path class="cls-3" d="M81.95,686.37c-.15,.01-.55-3.11-.67-6.99-.13-3.88,.06-7.03,.21-7.02,.16,0,.22,3.14,.35,7,.12,3.86,.26,7,.1,7.01Z"/><path class="cls-3" d="M89.39,686.09c-.16,0-.38-2.97-.51-6.64-.12-3.67-.1-6.65,.06-6.66,.16,0,.38,2.97,.51,6.64,.12,3.67,.1,6.65-.06,6.66Z"/><path class="cls-3" d="M94.83,686.37c-.16,0-.26-3.08-.23-6.87,.03-3.79,.18-6.86,.34-6.86,.16,0,.26,3.07,.23,6.87-.03,3.79-.18,6.86-.34,6.86Z"/><path class="cls-3" d="M99.93,685.64c-.16-.02,.03-3.23,.41-7.18,.38-3.95,.82-7.14,.98-7.12,.16,.02-.03,3.23-.41,7.18-.38,3.95-.82,7.14-.98,7.12Z"/><path class="cls-3" d="M106.5,684.93c-.15-.02,.09-2.78,.81-6.1,.72-3.33,1.65-5.93,1.8-5.89,.16,.05-.53,2.71-1.24,6.01-.72,3.3-1.21,6-1.37,5.98Z"/></g><path class="cls-16" d="M49.07,624.33v10.22c0,2.22,1.8,4.02,4.02,4.02H123.04c2.22,0,4.02-1.8,4.02-4.02v-10.22H49.07Z"/><polygon class="cls-6" points="55.13 638.58 55.71 641.83 120.25 646.43 121.89 638.58 55.13 638.58"/></g></g><g><g><polygon class="cls-5" points="225.55 11.29 222.13 105.28 245.24 115.79 250.36 129.04 291.77 112.18 286.1 98.82 294.01 74.15 225.55 11.29"/><path class="cls-6" d="M225.55,11.29c1.92,1.75,28.29,25.81,68.66,62.64l.14,.12-.06,.18c-2.51,7.84-5.15,16.11-7.9,24.67v-.21c1.79,4.23,3.71,8.76,5.67,13.36l.12,.29-.29,.12c-6.78,2.76-13.9,5.66-21.14,8.61-6.88,2.8-13.66,5.56-20.28,8.25l-.3,.12-.12-.3c-1.73-4.49-3.43-8.91-5.11-13.25l.16,.17c-7.99-3.64-15.71-7.16-23.1-10.52l-.18-.08v-.19c2.18-55.02,3.62-91.37,3.72-93.98-.09,2.6-1.29,38.96-3.12,94l-.17-.28c7.4,3.36,15.12,6.86,23.12,10.49l.12,.05,.05,.12c1.68,4.34,3.38,8.76,5.12,13.24l-.42-.18c6.62-2.7,13.39-5.45,20.27-8.26,7.24-2.95,14.36-5.84,21.14-8.6l-.17,.41c-1.95-4.6-3.87-9.13-5.66-13.36l-.04-.1,.03-.11c2.75-8.56,5.41-16.83,7.93-24.66l.08,.3C253.67,37.27,227.46,13.06,225.55,11.29Z"/></g><path class="cls-6" d="M266.41,69.49c2.93,6.91-.36,14.83-7.37,17.68-7,2.85-15.06-.44-17.99-7.36-2.93-6.91,.36-14.83,7.37-17.68,7-2.85,15.06,.44,17.99,7.36Z"/><path class="cls-6" d="M225.55,11.29c.16-.07,6.6,14.06,14.39,31.55,7.78,17.5,13.96,31.74,13.8,31.81-.16,.07-6.6-14.06-14.39-31.56-7.78-17.49-13.96-31.73-13.8-31.8Z"/><path class="cls-6" d="M382.79,380.5h0c-11.12,4.53-23.91-.66-28.63-11.61l-97.44-226.04,40.42-16.45,97.34,225.82c4.76,11.04-.49,23.73-11.69,28.29Z"/><polygon class="cls-6" points="301.02 124.81 253.49 144.16 246.57 127.85 294.1 108.5 301.02 124.81"/></g><g><g><polygon class="cls-5" points="270.3 472.09 245.6 561.62 275.88 583.21 343.96 599.79 370.95 498.71 270.3 472.09"/><path class="cls-16" d="M258.75,557.61l-13.15,4.01s4.15,7.86,10.63,12.39c6.49,4.53,12.83,7.54,19.64,9.2,0,0-14.55-8.46-17.12-25.6Z"/></g><path class="cls-6" d="M351.28,527.71c-.04,.17-17.21-4.22-38.34-9.8-21.14-5.58-38.23-10.24-38.19-10.4,.04-.17,17.21,4.22,38.34,9.8,21.13,5.58,38.23,10.24,38.18,10.4Z"/><path class="cls-6" d="M347.3,541.42c-.04,.17-17.21-4.22-38.34-9.8-21.14-5.58-38.23-10.24-38.19-10.4,.04-.17,17.21,4.22,38.34,9.8,21.13,5.58,38.23,10.24,38.18,10.4Z"/><path class="cls-6" d="M344.5,553.77c-.04,.17-17.21-4.22-38.34-9.8-21.14-5.58-38.23-10.24-38.19-10.4,.04-.17,17.21,4.22,38.34,9.8,21.13,5.58,38.23,10.24,38.18,10.4Z"/><path class="cls-6" d="M341.3,565.53c-.04,.17-17.21-4.22-38.34-9.8-21.14-5.58-38.23-10.24-38.19-10.4,.04-.17,17.21,4.22,38.34,9.8,21.13,5.58,38.23,10.24,38.18,10.4Z"/></g><g><g><polygon class="cls-5" points="1058.56 390.03 1039.72 458.32 1062.81 474.78 1114.73 487.43 1135.32 410.34 1058.56 390.03"/><path class="cls-16" d="M1049.75,455.26l-10.03,3.06s3.16,5.99,8.11,9.45c4.95,3.46,9.79,5.75,14.98,7.01,0,0-11.1-6.45-13.06-19.52Z"/></g><path class="cls-6" d="M1120.32,432.45c-.03,.13-13.13-3.22-29.24-7.47-16.12-4.26-29.16-7.81-29.12-7.93,.03-.13,13.12,3.22,29.25,7.47,16.12,4.25,29.15,7.81,29.12,7.93Z"/><path class="cls-6" d="M1117.28,442.91c-.03,.13-13.13-3.22-29.24-7.47-16.12-4.26-29.16-7.81-29.12-7.93,.03-.13,13.12,3.22,29.25,7.47,16.11,4.25,29.15,7.81,29.12,7.93Z"/><path class="cls-6" d="M1115.14,452.33c-.03,.13-13.13-3.22-29.24-7.47-16.12-4.26-29.16-7.81-29.12-7.93,.03-.13,13.12,3.22,29.25,7.47,16.12,4.25,29.15,7.81,29.12,7.93Z"/><path class="cls-6" d="M1112.71,461.3c-.03,.13-13.13-3.22-29.24-7.47-16.12-4.26-29.16-7.81-29.12-7.93,.03-.13,13.12,3.22,29.25,7.47,16.12,4.25,29.15,7.81,29.12,7.93Z"/></g><path class="cls-6" d="M958.98,50.61l-24.9,6.37-1.21,7.62c-.39,2.54-.39,4.55,0,6.04,.51,1.98,1.67,3.23,3.51,3.76,1.08,.32,3.49,.14,7.23-.52l.49,1.92-23.45,6-.49-1.92c2.43-1.03,4.24-2.61,5.43-4.74,1.19-2.13,2.29-6.19,3.31-12.17L939.73,.25l.99-.25,40.21,51.31c3.83,4.86,6.7,7.8,8.62,8.82,1.45,.77,3.28,.97,5.47,.6l.49,1.92-34.1,8.72-.49-1.92,1.4-.36c2.74-.7,4.56-1.57,5.48-2.62,.62-.75,.8-1.64,.53-2.68-.16-.62-.43-1.24-.8-1.84-.15-.29-1-1.46-2.56-3.5l-5.99-7.83Zm-2.75-3.4l-16.71-21.59-4.6,27.05,21.32-5.45Z"/><g><rect class="cls-16" x="1016.98" y="228" width="100.58" height="91.54" rx="8.92" ry="8.92" transform="translate(8.48 -31.16) rotate(1.68)"/><path class="cls-6" d="M1016.32,295.48l33.96-22.79c2.64-2.11,6.43-1.97,8.9,.34l16.73,8.59,23.87-23.34c3.01-2.68,7.65-2.29,10.16,.86l7.8,9.79-.38,40.11c-.06,6.44-5.41,11.57-11.84,11.37l-78.46-2.48c-6.36-.2-11.34-5.54-11.11-11.9l.39-10.55Z"/><path class="cls-6" d="M1064.89,251.59c.25,5.55-4.04,10.25-9.58,10.5-5.55,.25-10.25-4.04-10.5-9.58-.25-5.55,4.04-10.25,9.58-10.5,5.55-.25,10.25,4.04,10.5,9.58Z"/></g><g><rect class="cls-3" x="43.74" y="13.41" width="69.91" height="63.62" rx="8.92" ry="8.92" transform="translate(1.36 -2.29) rotate(1.68)"/><path class="cls-5" d="M43.28,60.31l23.6-15.84c1.83-1.47,4.47-1.37,6.19,.23l11.63,5.97,16.59-16.22c2.09-1.86,5.32-1.59,7.06,.6l5.42,6.8-.2,21.6c-.07,7.92-6.65,14.23-14.56,13.98l-42.1-1.33c-7.82-.25-13.95-6.81-13.66-14.63l.04-1.17Z"/><path class="cls-5" d="M77.04,29.81c.18,3.86-2.81,7.12-6.66,7.3-3.86,.18-7.12-2.81-7.3-6.66s2.81-7.12,6.66-7.3c3.86-.18,7.12,2.81,7.3,6.66Z"/></g><g><g><path class="cls-5" d="M663.45,601.55c8.84,22.44-2.23,47.81-24.72,56.67-22.49,8.86-47.89-2.15-56.73-24.59-8.84-22.44,2.23-47.81,24.72-56.67,22.49-8.86,47.89,2.15,56.73,24.58Z"/><path class="cls-16" d="M653.76,605.37c6.74,17.1-1.7,36.43-18.84,43.18-17.14,6.75-36.49-1.64-43.23-18.73-6.74-17.1,1.7-36.43,18.84-43.19,17.14-6.75,36.49,1.64,43.23,18.74Z"/><path class="cls-6" d="M653.37,604.4c-.19,.08-.85-1.23-2.29-3.41-1.44-2.16-3.73-5.21-7.33-8.1-1.79-1.44-3.91-2.83-6.33-4.02-2.43-1.16-5.16-2.15-8.13-2.72-1.48-.29-3.02-.5-4.6-.57-1.58-.08-3.19-.07-4.83,.1-1.63,.17-3.28,.43-4.92,.86-1.64,.43-3.27,.98-4.87,1.66-1.59,.7-3.12,1.51-4.55,2.4-1.44,.9-2.76,1.92-4.01,2.99-1.25,1.07-2.37,2.24-3.39,3.44-1.03,1.19-1.94,2.46-2.75,3.73-1.63,2.55-2.78,5.21-3.61,7.77-.8,2.57-1.24,5.07-1.43,7.36-.37,4.6,.28,8.35,.86,10.89,.6,2.54,1.09,3.93,.9,4-.14,.06-.94-1.19-1.86-3.73-.89-2.52-1.86-6.39-1.7-11.26,.08-2.43,.44-5.09,1.2-7.86,.78-2.76,1.95-5.63,3.64-8.41,.84-1.39,1.79-2.76,2.88-4.06,1.09-1.31,2.28-2.58,3.61-3.75,1.33-1.17,2.75-2.28,4.3-3.26,1.55-.98,3.19-1.85,4.91-2.6,1.73-.73,3.49-1.32,5.26-1.77,1.77-.45,3.56-.72,5.32-.89,1.76-.17,3.51-.16,5.2-.05,1.7,.1,3.35,.36,4.93,.7,3.17,.68,6.06,1.81,8.61,3.13,2.54,1.35,4.72,2.92,6.54,4.53,3.65,3.24,5.8,6.59,7.01,8.98,1.21,2.4,1.57,3.85,1.43,3.91Z"/></g><path class="cls-6" d="M633.53,634.72l2.21,5.37-4.8,1.97-2.15-5.23c-4.87,1.66-10.04,2.05-13.52,1.07l.23-6.94c3.13,.79,7.11,.67,10.71-.42l-3.29-8.01c-5.86,.89-12.54,1.56-15.35-5.3-2.09-5.09-.19-10.97,7.04-14.95l-2.19-5.33,4.8-1.97,2.15,5.23c3.72-1.19,7.61-1.67,10.94-1.07l.03,6.89c-3.02-.39-5.85-.18-8.37,.52l3.35,8.16c5.84-.94,12.42-1.57,15.2,5.2,2.05,4.99,.18,10.81-6.98,14.81Zm-13.51-19.24l-2.8-6.81c-2.31,1.62-2.74,3.43-2.09,5.01,.69,1.68,2.5,2,4.89,1.8Zm13,8.17c-.69-1.68-2.46-2.02-4.82-1.89l2.72,6.62c2.18-1.51,2.73-3.19,2.1-4.73Z"/></g><g><g><path class="cls-5" d="M84.49,271.1c8.84,22.44-2.23,47.81-24.72,56.67-22.49,8.86-47.89-2.15-56.73-24.59-8.84-22.44,2.23-47.81,24.72-56.67,22.49-8.86,47.89,2.15,56.73,24.58Z"/><path class="cls-16" d="M74.8,274.92c6.74,17.1-1.7,36.43-18.84,43.18-17.14,6.75-36.49-1.64-43.23-18.73-6.74-17.1,1.7-36.43,18.84-43.19,17.14-6.75,36.49,1.64,43.23,18.74Z"/><path class="cls-6" d="M74.41,273.95c-.19,.08-.85-1.23-2.29-3.41-1.44-2.16-3.73-5.21-7.33-8.1-1.8-1.44-3.91-2.83-6.33-4.02-2.43-1.16-5.16-2.15-8.13-2.72-1.48-.29-3.02-.5-4.6-.57-1.58-.08-3.19-.07-4.83,.1-1.63,.17-3.28,.43-4.92,.86-1.64,.43-3.27,.98-4.87,1.66-1.59,.7-3.12,1.51-4.55,2.4-1.44,.9-2.76,1.92-4.01,2.99-1.25,1.07-2.37,2.24-3.39,3.44-1.03,1.19-1.94,2.46-2.75,3.73-1.63,2.55-2.78,5.21-3.61,7.77-.8,2.57-1.24,5.07-1.43,7.36-.37,4.6,.28,8.35,.86,10.89,.6,2.54,1.09,3.93,.9,4-.14,.06-.94-1.19-1.86-3.73-.89-2.52-1.86-6.39-1.7-11.26,.08-2.43,.44-5.09,1.2-7.86,.78-2.76,1.95-5.63,3.64-8.41,.84-1.39,1.79-2.76,2.88-4.06,1.09-1.31,2.28-2.58,3.61-3.75,1.33-1.17,2.75-2.28,4.3-3.26,1.55-.98,3.19-1.85,4.91-2.6,1.73-.73,3.49-1.32,5.26-1.77,1.77-.45,3.56-.72,5.32-.89,1.76-.17,3.51-.16,5.2-.05,1.7,.1,3.35,.36,4.93,.7,3.17,.68,6.06,1.81,8.61,3.13,2.54,1.35,4.72,2.92,6.54,4.53,3.65,3.24,5.8,6.59,7.01,8.98,1.21,2.4,1.57,3.85,1.43,3.91Z"/></g><path class="cls-6" d="M54.57,304.27l2.21,5.37-4.8,1.97-2.15-5.23c-4.87,1.66-10.04,2.05-13.52,1.07l.23-6.94c3.13,.79,7.12,.67,10.71-.42l-3.29-8.01c-5.86,.89-12.54,1.56-15.35-5.3-2.09-5.09-.19-10.97,7.04-14.95l-2.19-5.33,4.8-1.97,2.15,5.23c3.72-1.19,7.61-1.67,10.94-1.07l.03,6.89c-3.02-.39-5.85-.18-8.37,.52l3.35,8.16c5.84-.94,12.42-1.57,15.2,5.2,2.05,4.99,.18,10.81-6.98,14.81Zm-13.51-19.24l-2.8-6.81c-2.31,1.62-2.74,3.43-2.09,5.01,.69,1.68,2.5,2,4.89,1.8Zm13,8.17c-.69-1.68-2.46-2.02-4.82-1.89l2.72,6.62c2.18-1.51,2.73-3.19,2.1-4.73Z"/></g><path class="cls-17" d="M168.97,121.25c.03,.13,.06,.27,.09,.4l-.06,.03-.02-.43Z"/><path class="cls-17" d="M1104.2,690.14s1.2-.03,3.66-.05c2.48-.01,6.2-.03,11.25-.05v.19c-55.17,.03-274.42,.17-536.36,.33-152.26-.05-290.09-.09-389.86-.12-49.88-.06-90.24-.1-118.14-.14-13.94-.03-24.77-.06-32.12-.08-3.66-.02-6.46-.03-8.35-.04-1.88-.01-2.85-.04-2.85-.04,0,0,.96-.03,2.85-.04,1.89,0,4.69-.02,8.35-.04,7.35-.02,18.18-.05,32.12-.08,27.91-.03,68.27-.08,118.14-.14,99.77-.03,237.6-.08,389.86-.12,261.94,.16,481.19,.3,536.36,.33v.19c-5.05-.02-8.77-.04-11.25-.05-2.46-.02-3.66-.05-3.66-.05Z"/><g><g><path class="cls-3" d="M497.55,57.48h-83.08c-4.02,0-7.22-3.36-7.03-7.38l1.69-35.2c.18-3.75,3.28-6.7,7.03-6.7h83.08c4.02,0,7.22,3.36,7.03,7.38l-1.69,35.2c-.18,3.75-3.28,6.7-7.03,6.7Z"/><path class="cls-17" d="M497.55,57.48c-.02-.07,1.03,.07,2.74-.65,.83-.38,1.83-1.01,2.66-2.08,.85-1.04,1.46-2.54,1.48-4.3,.31-7.14,.76-17.41,1.3-30.07-.03-3.11,1.02-6.74-1.3-9.38-1.04-1.29-2.6-2.19-4.31-2.4-1.71-.13-3.61-.03-5.46-.05-7.47,.01-15.46,.03-23.85,.04-16.8,.01-35.27,.02-54.66,.03-2.29,0-4.51,1.24-5.66,3.19-.58,.96-.91,2.06-.96,3.19-.06,1.19-.11,2.37-.17,3.55-.23,4.72-.45,9.36-.67,13.93-.22,4.57-.44,9.05-.65,13.44-.05,1.1-.11,2.19-.16,3.28-.08,1.11-.1,2.1,.21,3.09,.56,1.95,2.04,3.59,3.9,4.31,.93,.38,1.89,.5,2.92,.49,1.04,0,2.07,0,3.09,0,2.05,0,4.07,0,6.06,0,3.98,0,7.84,.01,11.58,.02,7.47,.02,14.43,.04,20.78,.05,12.68,.06,22.95,.1,30.1,.14,3.52,.03,6.27,.06,8.18,.08,.9,.02,1.61,.03,2.13,.04,.48,.01,.72,.03,.72,.04s-.25,.03-.72,.04c-.52,.01-1.22,.02-2.13,.04-1.91,.02-4.66,.05-8.18,.08-7.15,.03-17.42,.08-30.1,.14-6.36,.02-13.32,.03-20.78,.05-3.74,0-7.6,.01-11.58,.02-1.99,0-4.01,0-6.06,0-1.02,0-2.05,0-3.09,0-1.04,.02-2.19-.11-3.21-.54-2.08-.8-3.74-2.63-4.37-4.82-.35-1.08-.32-2.3-.25-3.35,.05-1.09,.1-2.18,.15-3.28,.21-4.39,.42-8.88,.63-13.45,.22-4.57,.44-9.21,.66-13.93,.06-1.18,.11-2.36,.17-3.55,.05-1.25,.42-2.51,1.08-3.59,1.3-2.19,3.81-3.61,6.39-3.6,19.39,.01,37.85,.02,54.66,.03,8.4,.01,16.38,.03,23.85,.04,1.89,.04,3.66-.06,5.55,.08,1.88,.24,3.6,1.24,4.73,2.66,1.15,1.41,1.71,3.21,1.64,4.95-.08,1.66-.17,3.29-.24,4.87-.66,12.66-1.2,22.92-1.58,30.06-.05,1.81-.72,3.38-1.62,4.44-.87,1.09-1.92,1.71-2.79,2.08-.88,.36-1.6,.45-2.08,.5-.48,.01-.73,0-.73,0Z"/></g><polygon class="cls-2" points="756.02 57.77 759.58 35.52 774.73 26.72 787.18 40.06 783.43 62.87 756.02 57.77"/><g><polygon class="cls-6" points="826.08 81.27 807.69 484.89 511.14 476.47 493.49 445.64 525.39 70.52 801.37 52.25 826.08 81.27"/><g class="cls-8"><polygon points="807.69 484.89 782.99 455.88 801.37 52.25 826.08 81.27 807.69 484.89"/></g><g><polygon class="cls-3" points="801.37 52.25 782.99 455.88 493.49 445.64 515.39 48.17 801.37 52.25"/><path class="cls-17" d="M801.37,52.25c-2.84-.04-112.4-1.47-285.99-3.74l.35-.33c-6.1,111.07-13.65,248.66-21.82,397.48l-.41-.45c1.51,.05,3.14,.11,4.78,.17,101.86,3.61,198.55,7.05,284.71,10.1l-.4,.37c11.09-238.37,18.62-400.16,18.78-403.61-.15,3.44-7.37,165.26-18,403.64l-.02,.38h-.38c-86.16-3.05-182.85-6.45-284.71-10.04-1.64-.06-3.27-.12-4.78-.17l-.44-.02,.02-.43c8.23-148.82,15.84-286.4,21.98-397.47l.02-.33h.33c173.58,2.69,283.14,4.39,285.98,4.43Z"/></g><rect class="cls-6" x="545.01" y="135.5" width="108.83" height="11.48" rx="2.35" ry="2.35" transform="translate(1194.46 299.99) rotate(-178.32)"/><rect class="cls-6" x="544.04" y="157.69" width="108.83" height="11.48" rx="2.35" ry="2.35" transform="translate(1191.86 344.32) rotate(-178.32)"/><rect class="cls-6" x="543.06" y="179.88" width="108.83" height="11.48" rx="2.35" ry="2.35" transform="translate(1189.26 388.66) rotate(-178.32)"/><rect class="cls-6" x="542.09" y="202.06" width="108.83" height="11.48" rx="2.35" ry="2.35" transform="translate(1186.66 433) rotate(-178.32)"/><rect class="cls-6" x="541.11" y="224.25" width="108.83" height="11.48" rx="2.35" ry="2.35" transform="translate(1184.06 477.34) rotate(-178.32)"/><rect class="cls-6" x="540.14" y="246.44" width="108.83" height="11.48" rx="2.35" ry="2.35" transform="translate(1181.46 521.67) rotate(-178.32)"/><rect class="cls-6" x="539.17" y="268.63" width="108.83" height="11.48" rx="2.35" ry="2.35" transform="translate(1178.86 566.01) rotate(-178.32)"/><rect class="cls-6" x="660.04" y="249.76" width="108.83" height="11.48" rx="2.35" ry="2.35" transform="translate(1421.12 531.82) rotate(-178.32)"/><rect class="cls-6" x="659.07" y="271.95" width="108.83" height="11.48" rx="2.35" ry="2.35" transform="translate(1418.52 576.16) rotate(-178.32)"/><rect class="cls-6" x="657.89" y="295.34" width="108.83" height="11.48" rx="2.35" ry="2.35" transform="translate(1415.48 622.91) rotate(-178.32)"/><rect class="cls-6" x="656.72" y="318.74" width="108.83" height="11.48" rx="2.35" ry="2.35" transform="translate(1412.45 669.66) rotate(-178.32)"/><rect class="cls-6" x="655.54" y="342.14" width="108.83" height="11.48" rx="2.35" ry="2.35" transform="translate(1409.41 716.41) rotate(-178.32)"/><rect class="cls-6" x="654.36" y="365.53" width="108.83" height="11.48" rx="2.35" ry="2.35" transform="translate(1406.37 763.16) rotate(-178.32)"/><rect class="cls-6" x="653.19" y="388.93" width="108.83" height="11.48" rx="2.35" ry="2.35" transform="translate(1403.33 809.91) rotate(-178.32)"/><path class="cls-6" d="M532.94,416.37l223.12,6.54c2.12,.06,3.89-1.61,3.96-3.73l.11-3.79c.06-2.12-1.61-3.89-3.73-3.96l-223.12-6.54c-2.12-.06-3.89,1.61-3.96,3.73l-.11,3.79c-.06,2.12,1.61,3.89,3.73,3.96Z"/><rect class="cls-6" x="546.77" y="106.13" width="75.89" height="11.48" rx="2.35" ry="2.35" transform="translate(1165.9 240.82) rotate(-178.32)"/><path class="cls-17" d="M509.49,454.75s.48,.04,1.41,.09c.95,.04,2.34,.1,4.15,.18,3.67,.14,9.06,.34,16.02,.61,13.97,.49,34.22,1.21,59.45,2.1,50.52,1.71,120.97,4.09,200.83,6.78h.43l.02-.42c.76-15.96,1.55-32.7,2.36-49.73,4.29-91.54,8.17-174.4,10.98-234.4,1.36-29.98,2.46-54.24,3.23-71.04,.36-8.37,.64-14.88,.83-19.32,.08-2.19,.15-3.87,.19-5.02,.04-1.13,.04-1.71,.04-1.71,0,0-.06,.58-.13,1.71-.06,1.15-.16,2.83-.28,5.02-.23,4.43-.57,10.94-1,19.31-.83,16.79-2.03,41.05-3.51,71.02-2.88,60-6.85,142.85-11.23,234.39-.81,17.04-1.6,33.77-2.35,49.73l.45-.42c-79.86-2.58-150.32-4.86-200.84-6.49-25.24-.78-45.49-1.4-59.46-1.83-6.96-.2-12.35-.35-16.02-.45-1.81-.04-3.2-.07-4.15-.1-.93-.02-1.41,0-1.41,0Z"/><path class="cls-17" d="M533.01,466.83s.45,.04,1.33,.09c.9,.04,2.21,.1,3.92,.18,3.47,.14,8.56,.35,15.13,.62,13.2,.5,32.35,1.24,56.25,2.15,47.85,1.76,114.71,4.21,190.83,7l.43,.02,.02-.43c1.02-19.26,2.07-39.29,3.16-59.76,4.71-90.33,8.97-172.09,12.05-231.29,1.5-29.58,2.71-53.52,3.55-70.09,.4-8.26,.71-14.68,.92-19.06,.09-2.16,.17-3.82,.22-4.96,.04-1.12,.04-1.69,.04-1.69,0,0-.06,.57-.13,1.69-.07,1.14-.17,2.79-.3,4.95-.25,4.38-.62,10.79-1.09,19.05-.91,16.57-2.21,40.5-3.83,70.08-3.15,59.2-7.5,140.96-12.31,231.28-1.08,20.47-2.13,40.5-3.14,59.76l.45-.41c-76.13-2.67-142.99-5.02-190.84-6.7-23.91-.8-43.06-1.45-56.26-1.89-6.58-.2-11.67-.36-15.14-.47-1.71-.04-3.02-.08-3.92-.1-.88-.02-1.33,0-1.33,0Z"/><g><polygon class="cls-15" points="628.87 47.1 633.24 42.82 685.37 43.07 687.9 47.84 628.87 47.1"/><rect class="cls-15" x="645.81" y="30.37" width="24.84" height="59.03" transform="translate(726.4 -597.53) rotate(90.72)"/><rect class="cls-15" x="655.54" y="41.11" width="4.96" height="63.13" rx="1.25" ry="1.25" transform="translate(739 -584.37) rotate(90.72)"/><path class="cls-12" d="M671.16,66.42h-.03l-25.96-.33c-.75,0-1.44-.38-1.86-.99-.42-.61-.52-1.4-.26-2.09l7.65-20.57c-3.38-2.51-5.41-6.46-5.47-10.67-.11-7.4,5.82-13.57,13.2-13.76,3.7-.11,7.24,1.29,9.88,3.9,2.65,2.61,4.08,6.1,4.03,9.82-.05,4.41-2.23,8.46-5.84,10.97l6.83,20.71c.23,.7,.11,1.48-.33,2.07-.43,.59-1.12,.93-1.85,.93Zm-12.37-46.78c-.11,0-.21,0-.32,0-6.38,.16-11.7,5.7-11.6,12.09,.06,3.9,2.03,7.53,5.28,9.72l.53,.36-8.09,21.76c-.08,.2-.05,.42,.07,.6,.12,.18,.32,.28,.53,.28l25.96,.33c.23,0,.41-.09,.53-.27,.13-.17,.16-.39,.09-.59l-7.22-21.92,.54-.34c3.46-2.17,5.56-5.89,5.61-9.95,.04-3.27-1.22-6.34-3.55-8.64-2.25-2.22-5.22-3.44-8.38-3.44Z"/><path class="cls-12" d="M687.17,70.57s-.21-.03-.59-.03c-.44-.01-1-.03-1.69-.04-1.53-.03-3.65-.08-6.24-.13-5.32-.09-12.58-.21-20.59-.34-8.02-.09-15.27-.17-20.6-.23-2.59,0-4.71-.01-6.24-.02-.7,0-1.26,.01-1.7,.02-.39,0-.59,.02-.59,.04,0,.02,.2,.04,.59,.06,.44,.02,1,.04,1.7,.07,1.53,.04,3.65,.1,6.24,.17,5.27,.12,12.55,.26,20.6,.37,8.04,.11,15.32,.18,20.6,.19,2.64,0,4.77,0,6.24-.02,.74-.02,1.31-.02,1.7-.05,.39-.03,.59-.05,.59-.06Z"/><path class="cls-12" d="M688.02,47.33s-.21-.03-.59-.03c-.44-.01-1-.03-1.69-.04-1.53-.03-3.65-.08-6.24-.13-5.32-.09-12.58-.21-20.59-.34-8.02-.09-15.27-.17-20.6-.23-2.59,0-4.71-.01-6.24-.02-.7,0-1.26,.01-1.7,.02-.39,0-.59,.02-.59,.04,0,.02,.2,.04,.59,.06,.44,.02,1,.04,1.7,.07,1.53,.04,3.65,.1,6.24,.17,5.27,.12,12.55,.26,20.6,.37,8.04,.11,15.32,.18,20.6,.19,2.64,0,4.77,0,6.24-.02,.74-.02,1.31-.02,1.7-.05,.39-.03,.59-.05,.59-.06Z"/></g><g><rect class="cls-16" x="538.12" y="296.55" width="100.58" height="91.54" rx="8.92" ry="8.92" transform="translate(10.28 -17.1) rotate(1.68)"/><path class="cls-6" d="M537.42,365.28c.03-.79,.43-1.51,1.09-1.95l32.92-22.09c2.57-2.06,6.23-1.97,8.7,.16,.13,.12,.28,.22,.44,.3l14.92,7.66c.94,.48,2.08,.31,2.84-.43l22.6-22.1c3.01-2.68,7.65-2.29,10.16,.86l7.25,9.11c.35,.44,.54,.99,.53,1.55l-.34,36.77c-.07,7.79-6.54,14-14.33,13.75l-73.59-2.33c-7.69-.24-13.72-6.7-13.44-14.39l.25-6.88Z"/><path class="cls-6" d="M586.03,320.14c.25,5.55-4.04,10.25-9.58,10.5-5.55,.25-10.25-4.04-10.5-9.58-.25-5.55,4.04-10.25,9.58-10.5,5.55-.25,10.25,4.04,10.5,9.58Z"/></g><g><rect class="cls-16" x="668.05" y="141.63" width="100.58" height="91.54" rx="8.92" ry="8.92" transform="translate(5.8 -20.97) rotate(1.68)"/><path class="cls-6" d="M667.39,209.1l33.96-22.79c2.64-2.11,6.43-1.97,8.9,.34l16.73,8.59,23.87-23.34c3.01-2.68,7.65-2.29,10.16,.86l7.8,9.79-.33,35.2c-.09,9.13-7.66,16.4-16.79,16.12l-68.75-2.17c-9.02-.29-16.08-7.85-15.75-16.87l.21-5.74Z"/><path class="cls-6" d="M715.95,165.22c.25,5.55-4.04,10.25-9.58,10.5-5.55,.25-10.25-4.04-10.5-9.58-.25-5.55,4.04-10.25,9.58-10.5,5.55-.25,10.25,4.04,10.5,9.58Z"/></g></g><path class="cls-17" d="M552.69,193.98s-.48-.02-1.32-.37c-.82-.36-2-1.11-3-2.53-.97-1.4-1.81-3.53-1.46-6.01,.3-2.45,1.68-5.1,3.98-7.18,2.3-2.1,5.48-3.52,8.96-4.4,3.49-.87,7.31-1.42,11.35-1.47,8.06-.11,17.06,1.75,25.21,6.39,2.02,1.19,3.91,2.64,5.34,4.48,1.42,1.84,2.33,4.08,2.4,6.37,.09,2.31-.88,4.54-2.39,6.12-1.51,1.6-3.42,2.62-5.32,3.34-3.85,1.44-7.75,1.67-11.31,1.83-3.58,.12-6.93-.06-9.95-.43-6.06-.75-10.8-2.2-13.99-3.37-1.59-.59-2.81-1.1-3.62-1.49-.81-.38-1.23-.59-1.22-.62,.01-.03,.45,.13,1.29,.46,.83,.33,2.06,.8,3.66,1.33,3.2,1.07,7.94,2.43,13.95,3.09,3,.33,6.31,.47,9.86,.32,3.53-.19,7.37-.45,11.06-1.86,1.82-.71,3.63-1.69,5.01-3.16,1.37-1.45,2.24-3.45,2.15-5.54-.06-2.08-.91-4.16-2.24-5.88-1.34-1.73-3.14-3.12-5.1-4.27-7.98-4.55-16.84-6.41-24.77-6.34-3.98,.02-7.75,.54-11.19,1.37-3.42,.84-6.5,2.19-8.73,4.17-2.23,1.96-3.57,4.47-3.91,6.79-.37,2.34,.37,4.38,1.27,5.76,.92,1.4,2.02,2.16,2.8,2.56,.79,.39,1.26,.48,1.25,.52Z"/><path class="cls-17" d="M595.02,422.79s-.48-.02-1.32-.37c-.82-.36-2-1.11-3-2.53-.97-1.4-1.81-3.53-1.46-6.01,.31-2.45,1.68-5.1,3.98-7.18,2.3-2.1,5.48-3.52,8.96-4.4,3.49-.87,7.31-1.42,11.35-1.47,8.06-.11,17.06,1.75,25.21,6.39,2.02,1.19,3.91,2.64,5.34,4.48,1.42,1.84,2.33,4.08,2.4,6.37,.09,2.31-.88,4.54-2.39,6.12-1.51,1.6-3.42,2.62-5.32,3.34-3.85,1.44-7.75,1.67-11.31,1.83-3.58,.12-6.93-.06-9.95-.43-6.06-.75-10.8-2.2-13.99-3.37-1.6-.59-2.81-1.1-3.62-1.49-.81-.38-1.23-.59-1.22-.62,.01-.03,.45,.13,1.29,.46,.83,.33,2.06,.8,3.66,1.33,3.2,1.07,7.94,2.43,13.95,3.09,3,.33,6.31,.47,9.86,.32,3.53-.19,7.37-.45,11.06-1.86,1.82-.71,3.63-1.69,5.01-3.16,1.37-1.45,2.24-3.45,2.15-5.54-.06-2.08-.91-4.16-2.24-5.88-1.34-1.73-3.14-3.12-5.1-4.27-7.98-4.54-16.84-6.41-24.77-6.34-3.98,.02-7.75,.54-11.19,1.37-3.42,.84-6.5,2.19-8.73,4.17-2.23,1.96-3.57,4.47-3.91,6.79-.37,2.34,.37,4.38,1.27,5.76,.92,1.4,2.02,2.16,2.8,2.56,.79,.39,1.26,.48,1.25,.52Z"/><path class="cls-17" d="M545.88,119.04s-.48-.02-1.32-.37c-.82-.36-2-1.11-3-2.53-.97-1.4-1.81-3.53-1.46-6.01,.3-2.45,1.68-5.1,3.98-7.18,2.3-2.1,5.48-3.52,8.96-4.4,3.49-.87,7.31-1.42,11.35-1.47,8.06-.11,17.06,1.75,25.21,6.39,2.02,1.19,3.91,2.64,5.34,4.48,1.42,1.84,2.33,4.08,2.4,6.37,.09,2.31-.88,4.54-2.39,6.12-1.51,1.6-3.42,2.62-5.32,3.34-3.85,1.44-7.75,1.67-11.31,1.83-3.58,.12-6.93-.06-9.95-.43-6.06-.75-10.8-2.2-13.99-3.37-1.6-.59-2.81-1.1-3.62-1.49-.81-.38-1.23-.59-1.22-.62,.01-.03,.45,.13,1.29,.46,.83,.33,2.06,.8,3.66,1.33,3.2,1.07,7.94,2.43,13.95,3.09,3,.33,6.31,.47,9.86,.32,3.53-.19,7.37-.45,11.06-1.86,1.82-.71,3.63-1.69,5.01-3.16,1.37-1.45,2.24-3.45,2.15-5.54-.06-2.08-.91-4.16-2.24-5.88-1.34-1.73-3.14-3.12-5.1-4.27-7.98-4.54-16.84-6.41-24.77-6.34-3.98,.02-7.75,.54-11.19,1.37-3.42,.84-6.5,2.19-8.73,4.17-2.23,1.96-3.57,4.47-3.91,6.79-.37,2.34,.37,4.38,1.27,5.76,.92,1.4,2.02,2.16,2.8,2.56,.79,.39,1.26,.48,1.25,.52Z"/><polygon class="cls-2" points="797.22 348.86 819.74 349.42 830.48 363.27 818.92 377.38 795.81 376.7 797.22 348.86"/><polygon class="cls-12" points="799.35 309.36 821.87 309.92 832.61 323.77 821.05 337.88 797.94 337.2 799.35 309.36"/><path class="cls-6" d="M420.9,25.33h71.9c.29,0,.52,.23,.52,.52v1.01c0,.29-.23,.52-.52,.52h-71.9c-.29,0-.52-.23-.52-.52v-1.01c0-.29,.23-.52,.52-.52Z"/><path class="cls-6" d="M420.9,31.82h71.9c.29,0,.52,.23,.52,.52v1.01c0,.29-.23,.52-.52,.52h-71.9c-.29,0-.52-.23-.52-.52v-1.01c0-.29,.23-.52,.52-.52Z"/><path class="cls-6" d="M420.9,38.31h71.9c.29,0,.52,.23,.52,.52v1.01c0,.29-.23,.52-.52,.52h-71.9c-.29,0-.52-.23-.52-.52v-1.01c0-.29,.23-.52,.52-.52Z"/><path class="cls-17" d="M506.46,31.39c.19-.14,11.52,14.54,25.31,32.78,13.8,18.25,24.82,33.16,24.64,33.3-.19,.14-11.52-14.53-25.32-32.78-13.79-18.24-24.82-33.15-24.63-33.29Z"/><circle class="cls-17" cx="506.04" cy="30.07" r="2.77"/><g><path class="cls-3" d="M583.21,592.26h-83.08c-4.02,0-7.22-3.36-7.03-7.38l1.69-35.2c.18-3.75,3.28-6.7,7.03-6.7h83.08c4.02,0,7.23,3.36,7.03,7.38l-1.69,35.2c-.18,3.75-3.28,6.7-7.03,6.7Z"/><path class="cls-17" d="M583.21,592.26c-.02-.07,1.03,.07,2.74-.65,.83-.38,1.83-1.01,2.66-2.08,.85-1.04,1.46-2.54,1.48-4.3,.31-7.14,.76-17.41,1.3-30.07-.03-3.11,1.02-6.74-1.3-9.38-1.04-1.29-2.6-2.19-4.31-2.4-1.71-.13-3.61-.03-5.46-.05-7.47,.01-15.46,.03-23.85,.04-16.8,.01-35.27,.02-54.66,.03-2.29,0-4.51,1.24-5.66,3.19-.58,.96-.91,2.06-.96,3.19-.06,1.19-.11,2.37-.17,3.55-.23,4.72-.45,9.36-.67,13.93-.22,4.57-.44,9.05-.65,13.44-.05,1.1-.11,2.19-.16,3.28-.08,1.11-.1,2.1,.21,3.09,.56,1.95,2.04,3.59,3.9,4.31,.93,.38,1.89,.5,2.92,.49,1.04,0,2.07,0,3.09,0,2.05,0,4.07,0,6.06,0,3.98,0,7.84,.01,11.58,.02,7.47,.02,14.43,.04,20.78,.05,12.68,.06,22.95,.1,30.1,.14,3.52,.03,6.27,.06,8.18,.08,.9,.02,1.61,.03,2.13,.04,.48,.01,.72,.03,.72,.04s-.25,.03-.72,.04c-.52,.01-1.22,.02-2.13,.04-1.91,.02-4.66,.05-8.18,.08-7.15,.03-17.42,.08-30.1,.14-6.36,.02-13.32,.03-20.78,.05-3.74,0-7.6,.01-11.58,.02-1.99,0-4.01,0-6.06,0-1.02,0-2.05,0-3.09,0-1.04,.02-2.19-.11-3.21-.54-2.08-.8-3.74-2.63-4.37-4.82-.35-1.08-.32-2.3-.25-3.35,.05-1.09,.1-2.18,.15-3.28,.21-4.39,.42-8.88,.63-13.45,.22-4.57,.44-9.21,.66-13.93,.06-1.18,.11-2.36,.17-3.55,.05-1.25,.42-2.51,1.08-3.59,1.3-2.19,3.81-3.61,6.39-3.6,19.39,.01,37.85,.02,54.66,.03,8.4,.01,16.38,.03,23.85,.04,1.89,.04,3.66-.06,5.55,.08,1.88,.24,3.6,1.24,4.73,2.66,1.15,1.41,1.71,3.21,1.64,4.95-.08,1.66-.17,3.29-.24,4.87-.66,12.66-1.2,22.92-1.58,30.06-.05,1.81-.72,3.38-1.62,4.44-.87,1.09-1.92,1.71-2.79,2.08-.88,.36-1.6,.45-2.08,.5-.48,.01-.73,0-.73,0Z"/></g><path class="cls-6" d="M506.56,560.1h71.9c.29,0,.52,.23,.52,.52v1.01c0,.29-.23,.52-.52,.52h-71.9c-.29,0-.52-.23-.52-.52v-1.01c0-.29,.23-.52,.52-.52Z"/><path class="cls-6" d="M506.56,566.6h71.9c.29,0,.52,.23,.52,.52v1.01c0,.29-.23,.52-.52,.52h-71.9c-.29,0-.52-.23-.52-.52v-1.01c0-.29,.23-.52,.52-.52Z"/><rect class="cls-6" x="506.04" y="573.09" width="72.93" height="2.05" rx=".52" ry=".52"/><path class="cls-17" d="M614.65,427.63c.21,.11-13.08,26.02-29.67,57.87-16.6,31.86-30.22,57.59-30.43,57.48-.21-.11,13.07-26.02,29.67-57.87,16.59-31.85,30.22-57.58,30.42-57.47Z"/><path class="cls-17" d="M557.33,542.98c0,1.53-1.24,2.77-2.77,2.77s-2.77-1.24-2.77-2.77,1.24-2.77,2.77-2.77,2.77,1.24,2.77,2.77Z"/></g><g><g><path class="cls-13" d="M830.13,560.91h242.34c1.39,0,2.51,1.13,2.51,2.51v4.93c0,1.39-1.13,2.51-2.51,2.51h-242.34v-9.95h0Z"/><path class="cls-17" d="M826.88,566.66c0,.2-20.2,.36-45.11,.36s-45.11-.16-45.11-.36,20.19-.36,45.11-.36,45.11,.16,45.11,.36Z"/><g><path class="cls-13" d="M737.26,510.92h122.73v59.94h-122.73c-8.35,0-15.14-6.78-15.14-15.14v-29.67c0-8.35,6.78-15.14,15.14-15.14Z"/><path class="cls-13" d="M831.28,510.92h241.19c1.39,0,2.51,1.13,2.51,2.51v4.93c0,1.39-1.13,2.51-2.51,2.51h-241.19c-.63,0-1.14-.51-1.14-1.14v-7.66c0-.63,.51-1.14,1.14-1.14Z"/><path class="cls-5" d="M1067.68,560.91h-210.22c-11.06,0-20.02-8.96-20.02-20.02h0c0-11.06,8.96-20.02,20.02-20.02h210.22c-5.64,13.35-5.64,26.69,0,40.04Z"/><g class="cls-8"><path d="M837.44,570.86h-92.6c-12.54,0-22.71-10.17-22.71-22.71v-14.7c0-12.44,10.09-22.53,22.53-22.53h95.06c-21.7,13.15-20.08,44.63-2.28,59.94Z"/></g><path class="cls-17" d="M1042.14,542.75c0,.2-43.15,.36-96.36,.36s-96.37-.16-96.37-.36,43.14-.36,96.37-.36,96.36,.16,96.36,.36Z"/><path class="cls-17" d="M1061.97,551.65c0,.2-43.15,.36-96.36,.36s-96.37-.16-96.37-.36,43.14-.36,96.37-.36,96.36,.16,96.36,.36Z"/><path class="cls-17" d="M1056.13,530.13c0,.2-43.15,.36-96.36,.36s-96.37-.16-96.37-.36,43.14-.36,96.37-.36,96.36,.16,96.36,.36Z"/><path class="cls-17" d="M826.88,515.9c0,.2-20.2,.36-45.11,.36s-45.11-.16-45.11-.36,20.19-.36,45.11-.36,45.11,.16,45.11,.36Z"/></g></g><g><path class="cls-13" d="M691.19,612.94h150.51c4.17,0,7.56,3.39,7.56,7.56v62.08c0,4.17-3.39,7.56-7.56,7.56h-150.51c-10.76,0-19.49-8.73-19.49-19.49v-38.21c0-10.76,8.73-19.49,19.49-19.49Z"/><path class="cls-13" d="M812.66,612.94h310.23c1.79,0,3.24,1.45,3.24,3.24v6.34c0,1.79-1.45,3.24-3.24,3.24h-310.23c-1.03,0-1.87-.84-1.87-1.87v-9.08c0-1.03,.84-1.87,1.87-1.87Z"/><path class="cls-13" d="M812.66,677.32h310.23c1.79,0,3.24,1.45,3.24,3.24v6.34c0,1.79-1.45,3.24-3.24,3.24h-310.23c-1.03,0-1.87-.84-1.87-1.87v-9.08c0-1.03,.84-1.87,1.87-1.87Z"/><path class="cls-5" d="M1116.72,677.32h-270.74c-14.24,0-25.78-11.54-25.78-25.78h0c0-14.24,11.54-25.78,25.78-25.78h270.74c-7.26,17.19-7.26,34.38,0,51.57Z"/><g class="cls-8"><path d="M820.2,690.14h-110.32c-21.09,0-38.18-17.1-38.18-38.18h0c0-21.55,17.47-39.01,39.01-39.01h112.43c-27.95,16.93-25.86,57.48-2.94,77.2Z"/></g><path class="cls-17" d="M1083.82,653.93c0,.2-55.57,.36-124.1,.36s-124.11-.16-124.11-.36,55.56-.36,124.11-.36,124.1,.16,124.1,.36Z"/><path class="cls-17" d="M1109.37,665.39c0,.2-55.57,.36-124.1,.36s-124.11-.16-124.11-.36,55.56-.36,124.11-.36,124.1,.16,124.1,.36Z"/><path class="cls-17" d="M1101.84,643.3c0,.2-55.57,.36-124.1,.36s-124.11-.16-124.11-.36,55.56-.36,124.11-.36,124.1,.16,124.1,.36Z"/><path class="cls-17" d="M806.61,684.73c0,.2-26.01,.36-58.09,.36s-58.1-.16-58.1-.36,26.01-.36,58.1-.36,58.09,.16,58.09,.36Z"/><path class="cls-17" d="M806.61,619.35c0,.2-26.01,.36-58.09,.36s-58.1-.16-58.1-.36,26.01-.36,58.1-.36,58.09,.16,58.09,.36Z"/></g><g><path class="cls-15" d="M762.27,569.02h132.58c.29,0,.52,.23,.52,.52v43.16c0,.29-.23,.52-.52,.52h-132.58c-6.16,0-11.16-5-11.16-11.16v-21.88c0-6.16,5-11.16,11.16-11.16Z"/><path class="cls-15" d="M865.31,569.02h252.37c1.45,0,2.63,1.18,2.63,2.63v5.15c0,1.45-1.18,2.63-2.63,2.63h-252.37c-.66,0-1.2-.54-1.2-1.2v-8.02c0-.66,.54-1.2,1.2-1.2Z"/><path class="cls-15" d="M865.31,602.81h252.37c1.45,0,2.63,1.18,2.63,2.63v5.15c0,1.45-1.18,2.63-2.63,2.63h-252.37c-.66,0-1.2-.54-1.2-1.2v-8.02c0-.66,.54-1.2,1.2-1.2Z"/><path class="cls-5" d="M1112.67,602.81h-229.22c-6.45,0-11.69-5.23-11.69-11.69h0c0-6.45,5.23-11.69,11.69-11.69h229.22c-5.9,7.79-5.9,15.58,0,23.38Z"/><g class="cls-8"><path d="M871.76,613.22h-98.73c-12.11,0-21.92-9.81-21.92-21.92h0c0-12.3,9.97-22.28,22.28-22.28h100.76c-22.71,9.69-21.01,32.91-2.39,44.2Z"/></g><path class="cls-17" d="M1085.95,589.28c0,.2-45.15,.36-100.83,.36s-100.84-.16-100.84-.36,45.14-.36,100.84-.36,100.83,.16,100.83,.36Z"/><path class="cls-17" d="M1106.7,595.57c0,.2-45.15,.36-100.83,.36s-100.84-.16-100.84-.36,45.14-.36,100.84-.36,100.83,.16,100.83,.36Z"/><path class="cls-17" d="M860.71,608.83c0,.2-21.13,.36-47.2,.36s-47.2-.16-47.2-.36,21.13-.36,47.2-.36,47.2,.16,47.2,.36Z"/><path class="cls-17" d="M860.71,574.23c0,.2-21.13,.36-47.2,.36s-47.2-.16-47.2-.36,21.13-.36,47.2-.36,47.2,.16,47.2,.36Z"/><path class="cls-17" d="M1117.3,569.02c0,.2-77.53,.36-173.14,.36s-173.15-.16-173.15-.36,77.51-.36,173.15-.36,173.14,.16,173.14,.36Z"/></g><polygon class="cls-13" points="978.27 529.47 978.27 553.48 986.59 548.15 995.87 553.48 995.87 529.47 978.27 529.47"/></g><g><g><path class="cls-1" d="M1088.4,118.92h-74.28c-15.73,0-28.48,12.75-28.48,28.48h0c0,15.17,11.87,27.54,26.83,28.39,2.24,3.88,4.48,7.76,6.73,11.64,2.8-3.85,5.6-7.7,8.4-11.55h60.8c15.73,0,28.48-12.75,28.48-28.48h0c0-15.73-12.75-28.48-28.48-28.48Z"/><path class="cls-17" d="M1088.4,118.92s.26-.01,.76,0c.53,.02,1.27,.05,2.23,.08,1.93,.26,4.85,.63,8.32,2.09,3.45,1.45,7.42,4.02,10.9,8.13,1.69,2.09,3.22,4.55,4.41,7.37,1.2,2.81,1.9,6.02,2.08,9.42,.41,6.76-1.79,14.52-7.21,20.55-2.68,3.01-6.1,5.57-10.05,7.31-3.95,1.77-8.47,2.46-13,2.38-18.06,.01-38.04,.03-59.23,.05l.34-.17c-2.67,3.67-5.52,7.59-8.4,11.55l-.39,.53-.33-.57c-.87-1.5-1.8-3.11-2.74-4.74-1.37-2.36-2.72-4.71-3.99-6.9l.34,.21c-2.86-.21-5.66-.79-8.33-1.74-2.65-.99-5.12-2.38-7.36-4.02-4.44-3.35-7.84-7.93-9.7-12.98-1.92-5.04-2.23-10.5-1.29-15.57,1.01-5.06,3.31-9.75,6.58-13.43,3.24-3.7,7.31-6.51,11.69-8.08,.55-.19,1.09-.41,1.64-.58l1.67-.43c1.1-.34,2.24-.41,3.35-.61,1.12-.15,2.24-.14,3.35-.21,1.1,0,2.18,0,3.26,0,8.61,.02,16.62,.04,23.93,.05,14.59,.06,26.37,.1,34.54,.13,4.04,.03,7.19,.06,9.36,.08,1.04,.02,1.85,.03,2.43,.04,.55,.01,.83,.04,.83,.04,0,0-.28,.03-.83,.04-.58,0-1.39,.02-2.43,.04-2.17,.02-5.32,.04-9.36,.08-8.17,.03-19.95,.08-34.54,.13-7.31,.02-15.32,.03-23.93,.05-1.08,0-2.16,0-3.26,0-1.08,.08-2.17,.07-3.26,.22-1.08,.19-2.2,.27-3.27,.6l-1.63,.42c-.54,.17-1.06,.38-1.59,.57-4.27,1.55-8.22,4.29-11.36,7.9-3.17,3.59-5.39,8.16-6.37,13.08-.9,4.93-.59,10.23,1.28,15.12,1.81,4.9,5.11,9.34,9.43,12.59,2.18,1.6,4.57,2.95,7.14,3.9,2.59,.92,5.31,1.48,8.08,1.68l.23,.02,.11,.2c1.26,2.19,2.62,4.53,3.99,6.9,.94,1.62,1.87,3.24,2.74,4.74l-.71-.04c2.88-3.96,5.73-7.88,8.4-11.55l.13-.17h.22c21.19,.02,41.17,.03,59.23,.05,4.49,.08,8.84-.57,12.71-2.29,3.86-1.68,7.21-4.17,9.83-7.1,5.32-5.88,7.5-13.45,7.14-20.08-.16-3.33-.83-6.48-1.99-9.25-1.15-2.77-2.64-5.2-4.28-7.27-3.39-4.07-7.29-6.64-10.68-8.12-6.92-2.86-11.24-2.23-11.18-2.46Z"/></g><polygon class="cls-2" points="1018.62 138.5 1021.29 143.9 1027.24 144.76 1022.93 148.96 1023.95 154.89 1018.62 152.09 1013.3 154.89 1014.31 148.96 1010.01 144.76 1015.96 143.9 1018.62 138.5"/><polygon class="cls-2" points="1041.22 138.5 1043.88 143.9 1049.84 144.76 1045.53 148.96 1046.55 154.89 1041.22 152.09 1035.89 154.89 1036.91 148.96 1032.6 144.76 1038.56 143.9 1041.22 138.5"/><polygon class="cls-2" points="1063.82 138.5 1066.48 143.9 1072.43 144.76 1068.12 148.96 1069.14 154.89 1063.82 152.09 1058.49 154.89 1059.51 148.96 1055.2 144.76 1061.15 143.9 1063.82 138.5"/><polygon class="cls-2" points="1086.41 138.5 1089.07 143.9 1095.03 144.76 1090.72 148.96 1091.74 154.89 1086.41 152.09 1081.08 154.89 1082.1 148.96 1077.79 144.76 1083.75 143.9 1086.41 138.5"/></g><g><g><path class="cls-1" d="M207.87,210.27l12.13,1.17c4.83,6.15,11.56,10.94,19.75,13.35,18.46,5.45,38.51-3.65,46.55-21.14,10.09-21.97-1.75-47.59-25.02-54.14-18.66-5.25-38.71,4.31-46.42,22.1-3.94,9.1-4.16,18.76-1.42,27.41v-.02l-5.57,11.27Z"/><path class="cls-17" d="M207.87,210.27s.15-.26,.4-.75c.27-.52,.64-1.24,1.11-2.16,.97-1.92,2.38-4.69,4.21-8.28l-.32,.02v.02c.07,.09,.18,.11,.26,.06,.07-.04,.1-.13,.08-.21-1.46-4.77-2.52-11.42-1.03-19.05,.71-3.8,2.16-7.77,4.34-11.64,2.17-3.87,5.15-7.61,8.96-10.78,3.8-3.17,8.42-5.75,13.59-7.31,5.16-1.57,10.86-2.11,16.58-1.32,11.42,1.51,22.89,8.79,28.8,20.1l1.09,2.12,.89,2.2c.66,1.44,.97,3,1.46,4.48,.69,3.05,1.19,6.13,1.15,9.19,.04,6.12-1.37,12.09-3.9,17.32-2.57,5.21-6.22,9.66-10.44,13.06-4.21,3.41-8.96,5.79-13.74,7.16-9.6,2.75-19.02,1.47-26.08-1.61-7.15-3.06-12.06-7.66-15.15-11.55l-.13-.07c-3.88-.33-6.89-.58-8.97-.76-1-.08-1.78-.14-2.35-.19-.53-.04-.83-.05-.83-.05-.01,0,.24,.04,.74,.1,.56,.06,1.31,.15,2.29,.26,2.1,.23,5.14,.56,9.07,.99l-.12-.07c3.06,3.96,7.98,8.67,15.21,11.84,7.13,3.18,16.71,4.55,26.5,1.79,4.87-1.38,9.72-3.78,14.03-7.25,4.31-3.46,8.05-7.99,10.68-13.3,2.59-5.33,4.05-11.42,4.01-17.68,.04-3.13-.46-6.28-1.17-9.39-.5-1.52-.81-3.11-1.49-4.58l-.91-2.25-1.12-2.17c-6.04-11.56-17.78-18.99-29.44-20.5-5.85-.79-11.66-.22-16.92,1.39-5.26,1.61-9.96,4.26-13.82,7.5-3.87,3.24-6.88,7.07-9.07,11.01-2.19,3.95-3.63,7.99-4.33,11.85-1.45,7.75-.31,14.47,1.23,19.27l.33-.15v-.02c-.06-.08-.18-.11-.26-.06-.03,.02-.05,.05-.07,.08-1.76,3.68-3.12,6.52-4.06,8.49-.43,.92-.77,1.63-1.01,2.15-.22,.48-.33,.72-.32,.71Z"/></g><path class="cls-6" d="M252.55,202.45l-.06,4.4-3.93-.05,.06-4.28c-3.89-.29-7.6-1.55-9.74-3.27l2.22-4.77c1.95,1.48,4.76,2.58,7.59,2.89l.09-6.56c-4.35-1.12-9.2-2.64-9.13-8.26,.06-4.17,3.13-7.7,9.35-8.33l.06-4.36,3.93,.05-.06,4.28c2.94,.27,5.8,1.1,7.94,2.5l-2.03,4.81c-1.99-1.17-4.02-1.86-5.99-2.12l-.09,6.68c4.35,1.08,9.12,2.6,9.05,8.14-.05,4.09-3.09,7.58-9.27,8.25Zm-3.7-17.42l.07-5.58c-2.09,.44-2.93,1.57-2.95,2.87-.02,1.37,1.15,2.14,2.87,2.71Zm6.63,9.56c.02-1.38-1.11-2.14-2.79-2.75l-.07,5.42c1.97-.41,2.85-1.42,2.87-2.67Z"/></g><g><g><path class="cls-1" d="M82.54,190.39l-3.17-11.76c4.05-6.69,6.16-14.68,5.54-23.18-1.4-19.19-16.98-34.76-36.18-36.12-24.11-1.7-43.92,18.4-41.86,42.49,1.66,19.32,17.67,34.71,37.03,35.66,9.9,.48,19.02-2.72,26.15-8.33v.02l12.49,1.23Z"/><path class="cls-17" d="M82.54,190.39s-.3-.05-.84-.11c-.58-.07-1.38-.16-2.41-.28-2.14-.24-5.23-.58-9.23-1.02l.13,.29v-.02c.07-.08,.06-.19-.02-.25-.07-.05-.16-.05-.22,0-3.95,3.05-9.8,6.38-17.47,7.67-3.81,.67-8.04,.72-12.42,.04-4.38-.67-8.94-2.14-13.24-4.59-4.3-2.44-8.34-5.86-11.63-10.14-3.28-4.27-5.8-9.42-7.08-15.05-2.61-11.22,.16-24.52,8.66-34.03l1.6-1.77,1.75-1.61c1.11-1.13,2.46-1.96,3.68-2.94,2.61-1.72,5.31-3.27,8.2-4.31,5.71-2.2,11.8-2.97,17.58-2.45,5.78,.56,11.23,2.42,15.9,5.17,4.68,2.74,8.58,6.35,11.54,10.33,5.96,8.02,8.07,17.29,7.68,24.98-.35,7.77-2.92,13.99-5.47,18.25l-.02,.14c1.06,3.75,1.88,6.65,2.45,8.66,.28,.97,.49,1.71,.65,2.26,.15,.51,.24,.79,.24,.79,.01,.01-.04-.24-.17-.73-.14-.54-.32-1.28-.56-2.24-.53-2.05-1.29-5.01-2.27-8.84l-.02,.14c2.63-4.26,5.31-10.52,5.72-18.41,.46-7.8-1.63-17.24-7.66-25.43-3-4.07-6.96-7.76-11.72-10.57-4.75-2.81-10.31-4.73-16.22-5.31-5.9-.55-12.12,.24-17.96,2.48-2.95,1.07-5.72,2.64-8.38,4.4-1.24,1-2.62,1.86-3.76,3.01l-1.78,1.65-1.63,1.81c-8.69,9.73-11.51,23.33-8.82,34.77,1.32,5.75,3.9,11,7.26,15.34,3.36,4.36,7.49,7.82,11.89,10.29,4.4,2.48,9.04,3.95,13.5,4.61,4.46,.66,8.76,.59,12.61-.13,7.77-1.37,13.65-4.8,17.6-7.94l-.26-.25v.02c-.07,.08-.06,.19,.02,.25,.03,.02,.06,.03,.09,.04,4.07,.35,7.21,.62,9.38,.81,1.01,.08,1.8,.15,2.37,.19,.53,.04,.79,.06,.77,.05Z"/></g><polygon class="cls-2" points="45.11 177.3 24.53 163.53 29.33 156.35 43.14 165.58 60.31 142.85 67.2 148.06 45.11 177.3"/></g><g><g><g><path class="cls-17" d="M889.7,140.24s-7.44,27.82-8.08,47.51l-.21,6.56s16.42,13.63,30.19,14.47l11.54-28.38-33.44-40.15Z"/><g><g><g><path class="cls-17" d="M962.63,157.31c-3.14-13.57-4.34-29.36-15.63-38.21-8.37-6.57-17.91-8.4-28.54-7.95-5.23,.22-11.15,2.63-15.7,5.22-6.25,3.54-8.9,10.72-11.92,17.24-6.04,13.06-5.28,30.75-1.18,35.66l54.58,28.82c10.9-5.67,17.73-7.93,19.47-22.46,.73-6.11,.32-12.32-1.07-18.32Z"/><g><path class="cls-14" d="M946.42,129.88l-34.35-10.14c-11.07-1.61-18.99,11.78-20.13,22.9-1.27,12.36-2.33,27.5-1.22,36.8,2.22,18.7,16.37,21.63,16.37,21.63,0-.06,.03,.28-.08,5.81l-.04,11.38c-.15,3.62,.49,4.84,2.7,7.7,5.07,6.56,14.3,7.44,25.19,3.41,6.31-2.34,10.7-7.03,11.18-13.43l5.97-79.21c.2-3.39-2.23-6.37-5.59-6.86Z"/><path class="cls-17" d="M895.21,159.57c-.09,1.26,.89,2.37,2.2,2.5,1.31,.12,2.45-.8,2.54-2.05,.09-1.26-.89-2.37-2.2-2.5-1.31-.12-2.45,.8-2.54,2.05Z"/><path class="cls-17" d="M894.21,153.85c.28,.32,2.14-.94,4.71-.84,2.56,.07,4.39,1.46,4.69,1.16,.14-.13-.14-.71-.93-1.34-.78-.63-2.14-1.26-3.74-1.31-1.6-.05-2.97,.48-3.76,1.05-.81,.57-1.1,1.13-.96,1.27Z"/><path class="cls-17" d="M917.76,159.94c-.09,1.26,.89,2.37,2.2,2.5,1.31,.12,2.45-.79,2.54-2.05,.09-1.26-.89-2.37-2.2-2.5-1.31-.12-2.45,.8-2.54,2.05Z"/><path class="cls-17" d="M919.45,154.16c.28,.32,2.14-.94,4.71-.83,2.56,.07,4.39,1.46,4.69,1.16,.14-.13-.13-.71-.93-1.34-.78-.63-2.14-1.26-3.73-1.31-1.6-.05-2.96,.48-3.76,1.05-.81,.57-1.1,1.13-.96,1.27Z"/><path class="cls-17" d="M909.46,170.79c.02-.15-1.57-.48-4.14-.92-.65-.09-1.27-.25-1.36-.7-.14-.48,.17-1.17,.51-1.92,.68-1.56,1.39-3.2,2.13-4.91,2.97-7,5.15-12.76,4.86-12.88-.28-.12-2.92,5.46-5.89,12.45-.72,1.73-1.4,3.37-2.05,4.94-.28,.73-.74,1.56-.44,2.56,.16,.5,.62,.87,1.04,1,.41,.14,.78,.17,1.11,.2,2.59,.24,4.21,.32,4.22,.17Z"/><path class="cls-7" d="M907.02,201.07s12.47,1.3,25.16-5.66c0,0-6.67,12.76-25.2,10.29l.05-4.63Z"/><path class="cls-7" d="M917.78,176.49c-.62-1.1-1.8-1.72-3.03-1.81-1.77-.13-3.28,.42-4.49,2.01-.41,.46-.43,1.79-.28,2.16,.15,.37,.03,.19,.31,.45,1,.96,2.06,1.91,3.38,2.28,1.32,.37,2.97,0,3.89-1.26,.82-1.12,.85-2.74,.23-3.84Z"/><path class="cls-17" d="M917.39,172.97c-.42-.04-.55,2.74-3.02,4.61-2.47,1.88-5.42,1.43-5.46,1.82-.05,.17,.64,.57,1.89,.66,1.23,.1,3.04-.22,4.55-1.36,1.51-1.15,2.21-2.73,2.35-3.87,.16-1.16-.12-1.86-.31-1.86Z"/><path class="cls-17" d="M918.48,144.77c.18,.72,2.77,.64,5.73,1.29,2.98,.59,5.31,1.71,5.77,1.12,.21-.28-.15-.98-1.06-1.74-.9-.77-2.39-1.55-4.17-1.93-1.78-.37-3.46-.25-4.59,.09-1.14,.34-1.75,.83-1.67,1.17Z"/><path class="cls-17" d="M894.43,146.95c.58,.5,2.45-.38,4.8-.74,2.34-.44,4.4-.24,4.77-.91,.16-.32-.24-.85-1.19-1.28-.94-.42-2.43-.66-4.04-.38-1.61,.28-2.93,1-3.66,1.71-.75,.71-.93,1.35-.67,1.6Z"/></g></g><path class="cls-17" d="M911.95,117.74c-.03,.13-.06,.27-.09,.4l.06,.03,.02-.43Z"/></g><path class="cls-17" d="M935.97,208.58c.53-4.87-1.44-9.77-.87-14.64,.6-5.16,3.95-9.59,5.32-14.6,2.2-8.03-.82-16.57-1.92-24.86-4.65-.57-8.99-3.37-12.09-6.98-3.73-4.35-5.98-9.73-8.18-15.02,.13,5.18,1.93,10.32,5.06,14.45-2.06,.43-4.24-.45-5.79-1.88-1.55-1.43-2.57-3.34-3.4-5.28-2.02-4.69-3.12-9.77-3.29-14.87-.69,7.3,.12,14.75,2.43,21.72-1.3-.4-2.7-.04-4.04,.15-1.35,.2-2.89,.16-3.85-.82-.64-.65-.87-1.59-1.05-2.48-1.28-6.21-1.49-12.64-.62-18.92-1.66,3.4-3.3,6.83-4.26,10.48-.96,3.65-1.21,7.58-.08,11.19-.54,.68-1.67,.57-2.31-.01-.64-.59-.88-1.48-1.01-2.34-.49-3.12,.06-6.3,.61-9.42-1.86,3.29-2.48,7.12-3.5,10.76-1.03,3.64-2.66,7.37-5.83,9.45-.55-5.45-.35-9.17,.46-14.27,.63-3.9,2.47-7.76,4.18-11.32,1.91-3.99,4.57-7.89,7.54-10.49,5.48-4.8,7.77-2.73,11.27-.9l.41,.17c.01-.09,.02-.17,.03-.26l.16-.74c9.1-2.05,18.76-1.6,27.63,1.29,6.59,2.15,7.2,16.35,8.81,9.6,.97-4.08,6.26-.36,6.33-.24,7.78,14.03,16.02,36.28,16.4,71.44h0l-34.54,9.64Z"/></g></g><path class="cls-17" d="M958.48,101.43c-3.11-3.4-7.49-5.74-12.09-5.89-4.6-.14-9.33,2.12-11.68,6.08-2.34,3.96-1.88,9.53,1.44,12.72l5.75,4.6c3.95,2.18,8.84,2.9,13.05,1.27,4.21-1.63,7.48-5.84,7.37-10.35-.08-3.15-1.7-6.1-3.83-8.43Z"/><path class="cls-12" d="M954.04,126.94c-1.11,.52-4.26-4.3-9.87-8.08-5.53-3.91-11.15-5.15-11.06-6.37,.05-.56,1.63-1.01,4.19-.74,2.55,.25,6.03,1.36,9.29,3.61,3.25,2.25,5.52,5.12,6.66,7.41,1.15,2.3,1.29,3.94,.79,4.18Z"/></g><g><path class="cls-9" d="M874.15,279.75l21.52-20.16,14.58,23.16c-.29,2.08-18.88,42.13-26.92,50.43-9.18,9.47-21.7,8.74-27.22-4.34-4.35-10.31-11.58-42.04-11.58-42.04l29.62-7.05Z"/><path class="cls-9" d="M897.61,219.12c-5.14,1.85-16.97,8.32-20.41,12.56-1.67,2.05-3.28,4.38-4.35,6.72-2.69,5.92-7.81,49.85-7.81,49.85l22.92,16.6,19.96-76.83-1.27-12.18-9.04,3.28Z"/><path class="cls-9" d="M890.01,345.93l1.44-11.35s-4.42-20.25-6.04-37.82c-2.58-27.94,4.71-45.31,5.7-48.25,.56-1.67,15.53-32.67,15.53-32.67,0,0,3.14,9.55,15.78,7.29,17.61-3.15,24.03-12.7,24.03-12.7l22.76,4.92s8.87,35.61,10.17,47.41c.7,6.33-7.64,42.08-7.64,42.08l13.42,20.08c.4,.99-5.83,28.43-7.05,29.56-1.22,1.13-23.05,6.2-23.32,7.14-.27,.93-41.62,18.25-41.6,17.54,.03-.71-19.9-24.37-19.9-24.37l-3.3-8.86Z"/><path class="cls-17" d="M884.86,252.77s0,.29-.05,.83c-.08,.64-.17,1.41-.28,2.36-.24,2.04-.59,5-.89,8.67-.57,7.32-1.15,17.53,.53,28.64,1.47,11.13,3.62,21.09,5,28.33,.7,3.62,1.24,6.55,1.58,8.59,.15,.94,.27,1.71,.36,2.35,.07,.54,.1,.82,.07,.83-.03,0-.11-.27-.24-.8-.14-.63-.31-1.39-.52-2.32-.46-2.14-1.09-5.02-1.85-8.53-1.53-7.2-3.78-17.16-5.26-28.34-1.7-11.18-1.01-21.49-.29-28.81,.38-3.67,.82-6.63,1.16-8.66,.17-1.02,.32-1.8,.44-2.34,.12-.53,.19-.81,.22-.8Z"/></g><g><path class="cls-17" d="M989.16,341.09c4.08,6.93,13.4,33.43,17.02,46.97,16.53,61.78,30.51,144.85,35.16,161.78,6.19,22.56,20.05,73.6,27.1,107.59l-33.87,14.77s-44.37-119.55-56.47-148.92c-12.54-30.44-33.47-87.85-33.47-87.85l-12.09,227.73-32.45,1s-11.1-64.17-15.51-102.53c-4.41-38.35-4.9-117.3-4.94-137.34-.04-24.4,10.53-79.3,10.53-79.3,0,0,12.66,9.5,36.39,5.86,18.9-2.9,58.09-17.44,58.09-17.44l4.51,7.66Z"/><path class="cls-12" d="M923.19,358.77c-.06,0,.01,.94,.19,2.62,.17,1.68,.47,4.1,.87,7.09,.79,5.98,2.04,14.21,3.65,23.27,1.62,9.06,3.31,17.22,4.64,23.1,.66,2.94,1.23,5.31,1.64,6.95,.42,1.63,.67,2.53,.73,2.52,.06-.01-.09-.93-.41-2.59-.35-1.8-.82-4.15-1.38-7-1.18-5.91-2.77-14.07-4.39-23.12-1.62-9.04-2.95-17.26-3.9-23.21-.46-2.86-.84-5.23-1.13-7.04-.28-1.66-.46-2.58-.51-2.57Z"/><path class="cls-12" d="M934.77,358.29s-.05-.41-.63-.66c-.56-.24-1.45-.31-2.47-.08-.51,.12-1.07,.3-1.62,.66-.58,.38-.98,1.07-1.11,1.8-.27,1.46,.41,3.2,1.86,4.12,1.4,.92,3.24,1.02,4.52,.2,.64-.39,1.08-1.07,1.25-1.68,.18-.63,.19-1.23,.12-1.76-.14-1.07-.63-1.85-1.09-2.23-.47-.39-.82-.42-.83-.38-.03,.07,.26,.2,.59,.61,.33,.4,.68,1.11,.73,2.05,.06,.91-.18,2.15-1.18,2.72-1,.6-2.5,.51-3.65-.25-1.16-.73-1.73-2.14-1.55-3.29,.08-.58,.35-1.07,.75-1.36,.42-.31,.91-.51,1.36-.65,.91-.29,1.71-.3,2.21-.19,.51,.12,.68,.39,.74,.35Z"/><path class="cls-12" d="M914.02,416.2c-.06,.11,1.47,1.09,3.92,2.69,2.45,1.6,5.81,3.86,9.41,6.52,3.6,2.66,6.75,5.2,9.01,7.07,2.26,1.87,3.65,3.05,3.73,2.95,.07-.08-1.17-1.41-3.34-3.4-2.17-1.99-5.28-4.63-8.9-7.3-3.62-2.67-7.05-4.86-9.6-6.34-2.55-1.48-4.19-2.28-4.24-2.18Z"/><path class="cls-12" d="M996.18,539.39c0,.06,.5,.07,1.4,.05,.9-.02,2.2-.12,3.8-.3,3.2-.36,7.6-1.17,12.31-2.64,4.7-1.48,8.78-3.33,11.61-4.86,1.42-.76,2.54-1.43,3.29-1.93,.75-.49,1.16-.79,1.13-.84-.07-.11-1.8,.85-4.69,2.23-2.88,1.38-6.95,3.13-11.6,4.59-4.65,1.45-8.98,2.34-12.14,2.85-3.16,.51-5.13,.71-5.12,.84Z"/><path class="cls-12" d="M1001.68,535.92c.04,.11,1.31-.21,3.32-.88,2.01-.67,4.75-1.72,7.7-3.04,2.95-1.33,5.55-2.69,7.39-3.75,1.84-1.06,2.92-1.8,2.87-1.9-.12-.21-4.73,2.25-10.6,4.88-5.86,2.65-10.76,4.46-10.68,4.7Z"/></g><g><path class="cls-17" d="M899.89,640.55l-.17,33.81s-34.42,11.18-35.06,17.43l65.54,2.68,2.43-52.67-32.74-1.25Z"/><path class="cls-6" d="M920.1,672.35c1.25,.4,2.07,1.86,1.73,3.13-.35,1.27-1.83,2.11-3.09,1.74-1.26-.38-2.3-2.1-1.81-3.32,.49-1.22,2.28-2.12,3.41-1.45"/><path class="cls-12" d="M930.2,694.47l.04-5.32-62.85-.58s-2.97,1.15-2.72,3.22l65.54,2.68Z"/><path class="cls-1" d="M898.67,673.98c0,.32,1.59,.53,3.12,1.62,1.56,1.05,2.32,2.47,2.62,2.36,.3-.05-.1-1.98-1.98-3.27-1.87-1.31-3.82-1.01-3.76-.71Z"/><path class="cls-1" d="M891.68,676.54c-.09,.31,1.28,.91,2.31,2.31,1.07,1.37,1.29,2.84,1.61,2.84,.3,.06,.6-1.8-.72-3.52-1.3-1.73-3.18-1.94-3.2-1.63Z"/><path class="cls-1" d="M887.44,684.61c.29,.08,.8-1.5,.05-3.29-.74-1.79-2.22-2.55-2.36-2.28-.19,.26,.74,1.24,1.33,2.71,.63,1.46,.66,2.81,.98,2.86Z"/><path class="cls-1" d="M899.56,666.28c.12,.3,1.61-.08,3.41,.11,1.81,.16,3.19,.82,3.37,.56,.19-.22-1.13-1.46-3.26-1.67-2.13-.22-3.67,.74-3.52,1Z"/></g><g><path class="cls-17" d="M1054.68,637l12.56,38.93,18.81,27.93c1.36,2.01,.72,4.75-1.38,5.97h0c-1.18,.68-2.6,.75-3.83,.19-7.86-3.6-36.72-17-37.48-19.9-.88-3.36-15.97-40.18-15.97-40.18l27.3-12.93Z"/><path class="cls-12" d="M1084.66,709.83l-42.22-22.32,.57,1.64c.49,1.41,1.46,2.61,2.76,3.37,3.46,2.03,13.12,7.42,34.94,17.54,1.27,.59,2.76,.5,3.95-.23h0Z"/><g class="cls-4"><path class="cls-1" d="M1046.04,672.29c1.2,.33,2.03,1.69,1.74,2.9-.28,1.21-1.65,2.07-2.86,1.75-1.21-.31-2.25-1.91-1.83-3.08,.42-1.17,2.08-2.09,3.18-1.49"/></g><path class="cls-1" d="M1069.96,696.02c.26,.03,.42-2.3,2.34-4.18,1.86-1.94,4.19-2.14,4.15-2.4,0-.11-.59-.24-1.54-.05-.94,.18-2.21,.76-3.25,1.82-1.04,1.06-1.61,2.33-1.77,3.27-.17,.95-.04,1.54,.07,1.54Z"/><path class="cls-1" d="M1074.51,700.24c.24,.1,1.04-1.58,2.84-2.85,1.77-1.31,3.62-1.54,3.6-1.8,.04-.24-2.1-.41-4.13,1.07-2.04,1.46-2.56,3.55-2.32,3.58Z"/><path class="cls-1" d="M1062.53,691.17c.24,.12,1.47-2.48,4.09-4.7,2.59-2.26,5.35-3.07,5.27-3.33,0-.23-3.07,.23-5.85,2.65-2.81,2.38-3.73,5.34-3.51,5.38Z"/><path class="cls-1" d="M1057.73,679.66c.18,.2,2.01-1.44,4.75-2.51,2.73-1.1,5.18-1.17,5.18-1.43,.04-.23-2.57-.58-5.51,.6-2.94,1.15-4.6,3.2-4.42,3.34Z"/><path class="cls-1" d="M1053.75,668.32c.2,.18,1.9-1.85,4.88-2.74,2.96-.95,5.51-.23,5.57-.5,.04-.1-.56-.44-1.62-.65-1.06-.21-2.61-.21-4.21,.28-1.6,.5-2.87,1.37-3.63,2.15-.77,.77-1.06,1.39-.98,1.45Z"/><path class="cls-1" d="M1057.81,663.45s-.04-.57-.46-1.48c-.41-.91-1.16-2.19-2.49-3.42-.67-.57-1.42-1.34-2.68-1.48-.63-.07-1.39,.31-1.67,.98-.28,.66-.2,1.34,0,1.96,.89,2.44,3.82,4.08,6.7,3.47,2.88-.66,4.83-3.11,5.19-5.61,.05-.63-.02-1.36-.55-1.91-.52-.56-1.4-.54-1.92-.26-1.09,.57-1.58,1.48-2.09,2.21-.96,1.53-1.39,2.95-1.59,3.92-.2,.98-.18,1.54-.13,1.54,.17,.05,.32-2.24,2.25-5.11,.5-.68,1.07-1.52,1.86-1.88,.39-.18,.79-.14,1.05,.13,.26,.26,.34,.77,.29,1.28-.32,2.06-2.12,4.29-4.56,4.81-2.42,.54-5-.91-5.73-2.86-.17-.47-.21-1-.05-1.37,.15-.36,.51-.57,.91-.55,.86,.04,1.64,.68,2.29,1.21,2.62,2.27,3.21,4.53,3.37,4.43Z"/></g><g><polygon class="cls-14" points="848.91 252.77 864.55 268.91 865.18 282.97 847.04 287.14 846.11 287.14 844.94 278.07 834.48 264.17 848.91 252.77"/><g><path class="cls-12" d="M832.19,241.09c-17.38,18.55-40.94,29.23-66.35,30.06-25.41,.83-49.62-8.28-68.17-25.66h0c-38.3-35.88-40.28-96.23-4.4-134.53,17.38-18.55,40.94-29.23,66.35-30.06,25.41-.83,49.62,8.28,68.17,25.66,15.07,14.11,24.51,32,28.24,50.85,5.76,29.08-2.08,60.44-23.84,83.67Zm-130.17-.25c17.31,16.22,39.9,24.72,63.61,23.94,23.71-.77,45.69-10.74,61.91-28.05,16.22-17.31,24.72-39.9,23.94-63.61-.77-23.71-10.73-45.69-28.05-61.91-17.31-16.22-39.9-24.72-63.61-23.94-23.71,.77-45.69,10.74-61.91,28.05-20.31,21.68-27.62,50.94-22.24,78.07,3.48,17.59,12.3,34.28,26.35,47.45Z"/><path class="cls-17" d="M832.19,241.09c-17.38,18.55-40.94,29.23-66.35,30.06-25.41,.83-49.62-8.28-68.17-25.66h0c-38.3-35.88-40.28-96.23-4.4-134.53,17.38-18.55,40.94-29.23,66.35-30.06,25.41-.83,49.62,8.28,68.17,25.66,15.07,14.11,24.51,32,28.24,50.85,5.76,29.08-2.08,60.44-23.84,83.67Zm-130.17-.25c17.31,16.22,39.9,24.72,63.61,23.94,23.71-.77,45.69-10.74,61.91-28.05,16.22-17.31,24.72-39.9,23.94-63.61-.77-23.71-10.73-45.69-28.05-61.91-17.31-16.22-39.9-24.72-63.61-23.94-23.71,.77-45.69,10.74-61.91,28.05-20.31,21.68-27.62,50.94-22.24,78.07,3.48,17.59,12.3,34.28,26.35,47.45Z"/><path class="cls-12" d="M834.53,236.51c-17.38,18.55-40.94,29.23-66.35,30.06-25.41,.83-49.62-8.28-68.17-25.66h0c-38.3-35.88-40.28-96.23-4.4-134.53,17.38-18.55,40.94-29.23,66.35-30.06,25.41-.83,49.62,8.28,68.17,25.66,15.06,14.11,24.51,32,28.24,50.85,5.76,29.08-2.08,60.44-23.84,83.67Zm-130.17-.25c17.31,16.22,39.9,24.72,63.61,23.94,23.71-.77,45.69-10.74,61.91-28.05,16.22-17.31,24.72-39.9,23.94-63.61-.77-23.71-10.73-45.69-28.05-61.91-17.31-16.22-39.9-24.72-63.61-23.94-23.71,.77-45.69,10.74-61.91,28.05-20.31,21.68-27.62,50.94-22.24,78.07,3.48,17.59,12.3,34.28,26.35,47.45Z"/></g><path class="cls-12" d="M940.19,356.65l3.03-2.93c2.7-2.61,1.19-8.59-1.65-11.49l-106.33-109.9-14.22,13.76,106.17,109.74c3.59,3.52,9.52,4.2,12.99,.83Z"/><g><path class="cls-14" d="M842.19,245.58c-.5-.48-1.49-.77-2.15-.57-.66,.2-1.2,.68-1.69,1.18-3.46,3.51-5.47,8.41-5.48,13.33,0,2.11,.56,4.53,2.44,5.5l2.14-1.24c.66-.85,2.64-2.28,2.9-3.33,1.1-4.42-.48-4.23,2.29-11.89,.27-.75,.57-2.01-.45-2.98Z"/><path class="cls-14" d="M841.69,251.84c.6-1.05,1.27-2.06,2.11-2.79,.85-.73,1.89-1.13,2.81-.84,1.47,.46,2.19,2.59,2.02,4.56-.17,1.97-1.01,3.83-1.83,5.61-1.75,3.8-3.5,7.59-5.25,11.39l-1.02-.75c-.72,.71-1.78,.34-2.27-.5-.49-.84-.53-2-.5-3.1,.15-4.74,1.61-9.54,3.92-13.58Z"/><path class="cls-14" d="M844.27,263.2c1.21-2.67,3.23-4.9,5.26-7.05,.71-.75,1.46-1.51,2.44-1.85,.98-.34,2.26-.09,2.74,.81,.46,.86,.05,1.91-.37,2.79-2.63,5.49-5.66,10.8-9.04,15.88l-3.14-3.16c-1.42-2.57,.9-4.74,2.11-7.41Z"/></g><g><g><g><path class="cls-14" d="M929.09,298.3l-2.88-.61-15.09-12.86-8.26-6.94c-.69-.58-1.53-.97-2.42-1.11l-8.17-1.36s-1.28,3.56,2.45,5.6l4.48,2.32,4.1,4.84-.52,1.05s-26.85,4.17-28.53,6.22c-1.68,2.05,0,3.91,.74,4.28,.74,.37,2.05,.19,2.05,.19,0,0-1.3,3.17,2.61,5.77,0,0-2.98,3.91,2.24,5.77,0,0,1.49,2.98,4.47,3.91,2.98,.93,19,2.79,20.67,2.79s19.25,.03,19.25,.03l3.87,.63-1.05-20.53Z"/><path class="cls-7" d="M876.42,299.97c-.02,.22,3.31,.68,7.43,.4,4.1-.3,7.37-.88,7.35-1.09-.02-.25-3.35-.05-7.4,.25-4.05,.28-7.36,.2-7.37,.44Z"/><path class="cls-7" d="M879.64,305.7c0,.12,.7,.21,1.82,.36,1.12,.14,2.67,.36,4.42,.47,1.76,.11,3.34-.05,4.45-.1,1.13-.08,1.8-.06,1.83-.16,.03-.12-.68-.36-1.83-.43-1.15-.11-2.72-.04-4.41-.15-1.71-.1-3.28-.23-4.43-.22-1.15,0-1.86,.12-1.85,.23Z"/><path class="cls-7" d="M881.34,311.35c-.02,.23,3.22,.67,7.24,.97,2.01,.13,3.78,.28,4.96,.77,1.18,.45,1.72,1.08,1.83,.99,.08-.04-.33-.88-1.58-1.53-1.23-.68-3.14-.94-5.14-1.07-4.02-.3-7.29-.36-7.3-.13Z"/></g><g><path class="cls-9" d="M969.22,215.35s11.35,1.96,19.96,18.87c4.76,9.35,26.99,65.57,28.31,70.5,5.64,21.09-5.27,34.69-15.78,35.61-11.57,1.02-71.39-18.29-71.39-18.29l-1.32-25.56,54.57,8.29-26.22-50.89s-1.01-33.89,11.88-38.53Z"/><path class="cls-17" d="M1001.9,318.74c.08-.03-.28-1.42-1.47-3.41-1.17-1.98-3.27-4.47-6.14-6.52-2.88-2.05-5.91-3.23-8.17-3.69-2.26-.48-3.7-.36-3.7-.28,0,.15,1.4,.25,3.55,.86,2.16,.59,5.03,1.82,7.82,3.79,2.78,1.99,4.87,4.31,6.13,6.16,1.28,1.84,1.83,3.14,1.97,3.08Z"/></g></g><path class="cls-17" d="M986.71,338.14s-.1,0-.28-.04c-.22-.05-.49-.1-.82-.18-.73-.15-1.77-.46-3.14-.84-2.73-.79-6.7-2.01-11.69-3.6-9.99-3.19-24.12-7.85-40.72-13.47l-.25-.09v-.27c-.4-7.36-.82-15.37-1.26-23.74l-.03-.52,.52,.08c4.3,.7,8.83,1.43,13.43,2.17,14.8,2.42,28.81,4.7,41.15,6.72l-.4,.56c-7.42-14.53-13.69-26.79-18.12-35.48-2.16-4.29-3.88-7.7-5.08-10.09-.56-1.13-.99-2.03-1.32-2.69-.29-.61-.43-.93-.42-.94,.02,0,.2,.29,.53,.89,.35,.64,.82,1.52,1.42,2.63,1.25,2.37,3.03,5.74,5.27,9.99,4.51,8.66,10.87,20.87,18.4,35.34l.35,.68-.76-.12c-12.35-1.99-26.36-4.25-41.17-6.63-4.6-.75-9.12-1.48-13.42-2.18l.49-.44c.42,8.36,.82,16.38,1.19,23.74l-.27-.35c16.56,5.61,30.62,10.38,40.61,13.76,4.94,1.62,8.87,2.91,11.62,3.81,1.36,.41,2.39,.76,3.1,.95,.32,.1,.58,.17,.8,.24,.18,.06,.27,.09,.27,.1Z"/><path class="cls-17" d="M971.65,216.38c.08,.13-1.54,1.07-3.81,3.02-2.26,1.94-5.07,5.02-7.25,9.01-2.16,4-3.23,8.04-3.62,10.99-.4,2.96-.3,4.83-.46,4.84-.06,0-.12-.46-.19-1.31-.08-.85-.08-2.08,.05-3.6,.12-1.52,.44-3.31,.98-5.26,.58-1.93,1.38-4.01,2.48-6.07,1.13-2.04,2.43-3.85,3.74-5.39,1.34-1.51,2.66-2.76,3.88-3.69,1.2-.93,2.23-1.61,2.99-2,.75-.4,1.17-.6,1.2-.55Z"/></g></g></g><g><path class="cls-10" d="M342.27,250.81s-12.06,67.09-11.48,73.36c.58,6.27,3.79,16.25,11.07,17.96,7.28,1.71,13.97,0,13.97,0l-8.73-82.4-4.83-8.92Z"/><g><g><path class="cls-10" d="M377.49,193.5l-.84-69.32c-.77-17.24,8.62-32.06,25.87-32.35l1.6,.07c16.06,.66,28.93,13.54,29.56,29.61,.59,14.94,1.04,31.46,.61,39.45-.89,16.53-17.54,18.42-17.54,18.42-.04,0-.1,10.06-.09,14.92l-13.31,18.47v.99l-25.84-20.26Z"/><path class="cls-11" d="M416.74,179.38s-10.45,.18-21.28-7.26c0,0,4.67,12.65,21.24,11.84l.04-4.59Z"/><path class="cls-17" d="M428.4,135.77c0,1.25-1.07,2.27-2.38,2.29-1.3,.02-2.35-.98-2.35-2.23,0-1.25,1.07-2.27,2.37-2.29,1.3-.02,2.36,.98,2.35,2.23Z"/><path class="cls-17" d="M429.85,128.66c-.31,.3-2.04-1.1-4.58-1.2-2.54-.13-4.46,1.1-4.72,.77-.13-.14,.19-.69,1.03-1.25,.82-.56,2.21-1.07,3.8-1,1.58,.07,2.89,.71,3.63,1.34,.76,.63,1,1.2,.85,1.33Z"/><path class="cls-17" d="M405.69,135.77c0,1.25-1.07,2.27-2.38,2.29-1.3,.02-2.35-.98-2.35-2.23,0-1.25,1.07-2.27,2.37-2.29,1.3-.02,2.36,.98,2.35,2.23Z"/><path class="cls-17" d="M404.9,128.22c-.31,.3-2.04-1.1-4.58-1.2-2.54-.13-4.46,1.1-4.72,.77-.13-.14,.19-.69,1.03-1.24,.82-.56,2.21-1.07,3.79-1,1.58,.07,2.89,.71,3.63,1.34,.75,.63,1,1.2,.85,1.33Z"/><path class="cls-17" d="M413.21,148.13c0-.14,1.59-.35,4.16-.57,.65-.04,1.27-.14,1.4-.58,.17-.46-.07-1.17-.35-1.94-.55-1.6-1.12-3.27-1.72-5.02-2.38-7.15-4.07-13.01-3.78-13.11,.29-.09,2.45,5.63,4.82,12.77,.57,1.76,1.12,3.44,1.63,5.05,.21,.75,.6,1.6,.23,2.56-.19,.48-.69,.81-1.11,.9-.42,.11-.79,.1-1.11,.11-2.58,.03-4.18-.02-4.19-.17Z"/><path class="cls-17" d="M406.05,120.3c-.37,.63-2.81-.15-5.81-.34-3-.25-5.52,.17-5.8-.51-.12-.32,.41-.89,1.49-1.37,1.07-.48,2.7-.83,4.5-.7,1.8,.13,3.36,.71,4.35,1.34,1,.63,1.44,1.27,1.27,1.57Z"/><path class="cls-17" d="M430.27,121.19c-.54,.56-2.6-.09-5.09-.18-2.49-.17-4.61,.27-5.08-.35-.2-.3,.14-.87,1.08-1.39,.92-.52,2.45-.93,4.16-.84,1.71,.09,3.18,.65,4.03,1.27,.86,.62,1.14,1.22,.9,1.5Z"/><path class="cls-10" d="M377.49,136.48c-.28-.13-11.23-3.83-11.33,7.49-.11,11.32,11.29,9.1,11.31,8.77,.02-.32,.03-16.26,.03-16.26Z"/><path class="cls-11" d="M374.04,148.42s-.2,.14-.53,.29c-.33,.15-.89,.24-1.48,.02-1.19-.45-2.18-2.36-2.22-4.4-.02-1.03,.21-2.01,.58-2.82,.35-.83,.89-1.4,1.5-1.5,.6-.13,1.02,.23,1.16,.55,.15,.32,.07,.54,.13,.56,.03,.03,.24-.19,.16-.66-.04-.23-.17-.49-.44-.71-.27-.22-.67-.34-1.09-.3-.87,.05-1.67,.85-2.08,1.74-.46,.89-.73,1.99-.71,3.15,.05,2.28,1.2,4.43,2.83,4.92,.79,.22,1.46-.02,1.81-.28,.35-.28,.42-.53,.38-.55Z"/><path class="cls-17" d="M405.23,149.71c.39-.02,.41,2.58,2.64,4.41,2.23,1.84,5,1.54,5.02,1.9,.04,.16-.61,.51-1.79,.55-1.15,.04-2.83-.32-4.19-1.44-1.36-1.13-1.95-2.63-2.05-3.7-.1-1.09,.18-1.73,.36-1.72Z"/></g><g><path class="cls-17" d="M456.52,106.6c-.17-.67-.65-1.22-1.24-1.58-1.29-.78-2.78-.7-4.23-.74-3.59-.1-7.15-1.06-10.33-2.72,1.12-.55,2.17-1.23,3.07-2.1,1.85-1.81,2.94-4.59,2.13-7.04-.15-.46-.41-.94-.88-1.09-.73-.23-1.39,.48-1.9,1.05-1.71,1.87-3.28,2.66-5.79,2.37-1.56-.18-3.07-.54-4.29-1.32-.05-.05-.09-.11-.14-.16-.58-.61-1.15-1.2-1.71-1.77h0c-4.21-4.28-7.84-7.25-11.6-8.81-5.5-2.29-14.74-3.3-20.52-1.85-5.78,1.45-11.01,6.07-11.88,11.96-3.2-2.77-8.06-2.8-12.01-1.26l-.1-.04c-4.4,1.51-6.95,6.12-8.29,10.58-.07,.24-.14,.49-.21,.74-1.51,2.33-3.55,4.32-5.97,5.7-.43,.24-.92,.54-.97,1.03-.06,.48,.35,.89,.74,1.18,1.04,.76,2.26,1.27,3.53,1.52-.41,1.06-.9,2.09-1.49,3.06-.5,.83-1.1,1.83-.68,2.71,.33,.68,1.18,.97,1.93,.87,.75-.1,1.41-.51,2.05-.9-.5,1.17-1,2.33-1.51,3.5,1.58,.29,3.23,.19,4.77-.26,.88,4.19,1.5,11.95,2.54,14.79,3.01,.09,3.74-.23,5.25,.29,1.95,.67,1.17,4.14,3.73,3.18,1.3-.49,3.36-5.39,3.81-6.71,2.98-8.75,4.05-18.14,3.11-27.34,1.84-1.92,4.05-3.47,6.47-4.56l-.2,.17c4.65-1.56,9.9-3.08,14.27-.85,3.39,1.73,5.35,5.28,7.87,8.13,4.77,5.4,10.2,8.32,17.4,8.71,.59,5.01,.69,13.19,.88,17.85l4.09-9.29v.04c.33-.54,.6-1.09,.87-1.64l.09-.17v-.02c.42-.88,.82-1.77,1.34-2.64l.04,.04c2.5,2.26,6.27-1.11,4.3-3.85-.39-.54-.86-1.03-1.39-1.43,1.14,1.1,2.86,1.64,4.38,1.19,1.52-.45,2.71-1.97,2.6-3.55-.08-1.08-.84-2.05-1.81-2.49,2.04,.18,4.13-.24,5.92-1.24,1.17-.65,2.33-1.73,1.95-3.21Z"/><path class="cls-12" d="M392.4,94.76s-.7,.43-1.68,1.5c-.97,1.07-2.07,2.93-2.61,5.47-.28,1.26-.45,2.68-.47,4.21-.02,1.53,.08,3.16,.18,4.89,.09,1.72,.19,3.54,.06,5.44-.07,.94-.19,1.9-.41,2.86-.22,.94-.48,1.96-1.2,2.77-.58,.66-1.53,.94-2.35,.76-.83-.16-1.56-.61-2.09-1.21-1.05-1.26-1.3-2.84-1.55-4.23l.35,.05c-.58,1.24-1.18,2.47-2.06,3.45-.86,.98-2.05,1.63-3.24,1.72-.6,.05-1.2-.06-1.7-.32-.52-.26-.89-.7-1.15-1.16-.24-.47-.37-.98-.33-1.47,.03-.49,.23-.96,.55-1.28l.17,.16c-1.29,1.44-2.65,2.21-3.59,2.63-.47,.21-.85,.34-1.11,.42-.26,.07-.39,.1-.4,.09,0-.01,.13-.06,.38-.16,.25-.1,.62-.24,1.08-.47,.91-.45,2.23-1.24,3.47-2.67l.17,.16c-.56,.58-.61,1.62-.14,2.46,.24,.41,.58,.8,1.04,1.02,.45,.23,1,.32,1.55,.27,1.1-.1,2.21-.7,3.01-1.63,.83-.93,1.4-2.13,1.98-3.38l.24-.53,.1,.58c.25,1.39,.51,2.91,1.47,4.04,.48,.54,1.15,.95,1.87,1.08,.73,.15,1.49-.08,2-.64,.63-.7,.9-1.66,1.11-2.59,.21-.94,.34-1.88,.4-2.8,.13-1.86,.04-3.67-.04-5.39-.09-1.72-.18-3.37-.14-4.91,.03-1.54,.23-2.98,.53-4.26,.58-2.58,1.74-4.46,2.76-5.51,1.03-1.06,1.79-1.4,1.79-1.4Z"/><path class="cls-12" d="M443.49,111.47s-.04,.04-.13,.11c-.11,.08-.25,.18-.42,.3-.18,.13-.41,.29-.71,.44-.29,.16-.62,.36-1.01,.52-1.55,.71-4.02,1.41-7.11,1.2-3.05-.21-6.71-1.33-9.96-3.81-3.28-2.42-6.15-5.96-8.48-10-1.18-2.02-2.14-4.09-3.2-6-1.05-1.91-2.22-3.68-3.65-5.09-1.41-1.41-3.05-2.46-4.74-2.95-.85-.26-1.7-.33-2.52-.32-.82,.03-1.59,.19-2.31,.42-1.43,.46-2.6,1.24-3.48,2.04-.89,.81-1.49,1.67-1.9,2.4-.77,1.51-.82,2.49-.88,2.48,0,0,0-.06,.02-.17,.02-.14,.05-.3,.08-.51,.09-.44,.28-1.08,.65-1.86,.4-.76,.99-1.65,1.88-2.49,.89-.84,2.07-1.65,3.54-2.14,.74-.24,1.54-.41,2.38-.46,.84-.02,1.74,.04,2.62,.31,1.76,.5,3.46,1.57,4.9,3.01,1.47,1.43,2.66,3.23,3.73,5.16,1.07,1.93,2.03,3.99,3.21,5.99,2.31,4.01,5.14,7.51,8.36,9.91,3.19,2.45,6.76,3.58,9.77,3.82,3.03,.25,5.48-.4,7.03-1.06,1.56-.67,2.3-1.28,2.33-1.23Z"/><path class="cls-12" d="M445.08,104.21s-.2,.17-.6,.41c-.39,.25-1,.55-1.77,.87-.77,.33-1.72,.63-2.8,.88-1.08,.23-2.29,.4-3.57,.43-1.28,.02-2.49-.1-3.58-.28-1.09-.21-2.05-.47-2.83-.77-.78-.29-1.4-.57-1.8-.8-.41-.22-.63-.36-.62-.38,.03-.07,.94,.42,2.51,.92,.78,.26,1.73,.49,2.8,.67,1.07,.16,2.26,.27,3.52,.25,1.25-.03,2.44-.19,3.5-.39,1.06-.23,2-.5,2.77-.79,1.54-.57,2.43-1.09,2.47-1.03Z"/></g></g><g><g><g><g><path class="cls-12" d="M401.73,630.41l-1.64,37.44s37.5,14.24,37.87,21.18l-72.7-.57,.16-58.44,36.31,.38Z"/><path class="cls-6" d="M377.63,664.53c-1.41,.37-2.39,1.95-2.08,3.37,.32,1.42,1.91,2.44,3.32,2.09,1.42-.35,2.66-2.2,2.18-3.58-.47-1.38-2.41-2.47-3.7-1.79"/><g class="cls-4"><path class="cls-1" d="M365.26,688.47l.25-5.89,69.61,2.75s3.23,1.43,2.84,3.71l-72.7-.57Z"/></g><path class="cls-17" d="M401.27,667.49c-.01,.35-1.79,.5-3.55,1.63-1.79,1.08-2.7,2.61-3.02,2.47-.33-.07,.22-2.19,2.37-3.52,2.14-1.35,4.28-.91,4.2-.58Z"/><path class="cls-17" d="M408.87,670.7c.08,.34-1.46,.94-2.68,2.43-1.26,1.46-1.58,3.08-1.93,3.06-.33,.05-.56-2.03,.99-3.85,1.53-1.84,3.62-1.97,3.63-1.63Z"/><path class="cls-17" d="M413.13,679.86c-.32,.07-.8-1.7,.12-3.64,.91-1.94,2.59-2.7,2.74-2.4,.2,.29-.89,1.33-1.62,2.93-.77,1.58-.89,3.08-1.24,3.11Z"/><path class="cls-17" d="M400.7,658.92c-.15,.32-1.78-.18-3.78-.06-2.01,.08-3.58,.74-3.76,.44-.2-.26,1.33-1.56,3.7-1.67,2.36-.13,4.02,1.02,3.85,1.29Z"/></g><path class="cls-17" d="M401.63,658.49c.18,0,.21,3.47,.1,9.01l-.29-.44c4.25,1.61,9.89,3.79,15.89,6.62,6.57,3.07,12.36,6.28,16.11,9.28,1.88,1.48,3.27,2.89,3.99,4.06,.76,1.17,.66,2.06,.54,2.02-.06-.01-.11-.73-.93-1.75-.79-1.02-2.21-2.28-4.11-3.64-3.8-2.76-9.58-5.81-16.11-8.86-5.96-2.81-11.54-5.08-15.71-6.87l-.31-.13,.02-.31c.33-5.54,.63-8.99,.82-8.98Z"/></g><g><path class="cls-17" d="M354.71,369.36v33.93l13.38,108.35s-4.24,50.81-6.85,79.49c-2.26,24.91,1.44,68.29,1.44,68.29h39.68l14.2-144.67,8.81-90.22,15.98-53.45-86.65-1.72Z"/><g><path class="cls-12" d="M425.06,623.92l-10.39,36s33.11,22.66,31.83,29.5l-70.53-17.65,13.89-56.76,35.2,8.91Z"/><path class="cls-6" d="M393.62,651.41c-1.46,.03-2.79,1.33-2.81,2.79-.03,1.46,1.28,2.82,2.74,2.81,1.46,0,3.1-1.52,2.96-2.97-.14-1.45-1.76-2.97-3.17-2.61"/><g class="cls-4"><path class="cls-1" d="M375.97,671.77l1.62-5.67,67.02,19.04s2.8,2.15,1.89,4.28l-70.53-17.64Z"/></g><path class="cls-17" d="M415.9,659.85c-.1,.34-1.86,.07-3.83,.75-1.99,.63-3.24,1.91-3.52,1.69-.3-.15,.73-2.08,3.13-2.86,2.39-.81,4.37,.12,4.22,.42Z"/><path class="cls-17" d="M422.53,664.76c0,.35-1.64,.57-3.18,1.73-1.57,1.12-2.26,2.62-2.6,2.52-.34-.03-.07-2.1,1.86-3.51,1.92-1.43,3.98-1.06,3.91-.73Z"/><path class="cls-17" d="M424.52,674.66c-.33,0-.38-1.85,.98-3.51,1.34-1.67,3.15-2.01,3.23-1.69,.12,.33-1.17,1.08-2.27,2.47-1.12,1.36-1.59,2.79-1.94,2.73Z"/><path class="cls-17" d="M417.36,651.38c-.22,.28-1.68-.59-3.66-.95-1.97-.4-3.65-.12-3.76-.46-.14-.3,1.66-1.2,3.99-.75,2.33,.43,3.67,1.93,3.43,2.16Z"/></g><polygon class="cls-17" points="456.69 371.67 458.51 390.12 456.31 524.12 424.9 631.76 417.29 657.87 376.76 650.23 408 371.71 456.69 371.67"/></g></g><path class="cls-12" d="M455.46,526.93s-.04,.22-.15,.64c-.12,.44-.29,1.06-.51,1.86-.47,1.66-1.15,4.08-2.04,7.21-1.82,6.31-4.45,15.49-7.78,27.06-6.72,23.18-16.21,55.92-27.34,94.27l-.09,.31-.32-.06c-12.81-2.41-26.44-4.97-40.54-7.61l-.37-.07,.07-.37c2.07-10.92,4.23-22.34,6.43-33.97,6.55-34.47,12.72-66.98,18.12-95.39v.12c-6.71-42.14-12.07-75.74-15.14-95.04l.02,.05c-2.95-5.36-5.22-9.5-6.77-12.32-.75-1.39-1.33-2.45-1.73-3.18-.38-.72-.56-1.09-.56-1.09,0,0,.23,.35,.63,1.05,.42,.73,1.01,1.77,1.8,3.15,1.58,2.8,3.9,6.91,6.9,12.24v.02l.02,.03c3.15,19.28,8.63,52.87,15.5,94.98v.12c-5.37,28.41-11.52,60.93-18.04,95.4-2.21,11.64-4.37,23.05-6.44,33.97l-.3-.44c14.1,2.66,27.72,5.23,40.53,7.65l-.41,.25c11.23-38.32,20.82-71.04,27.6-94.19,3.41-11.55,6.12-20.7,7.98-27,.93-3.12,1.66-5.52,2.15-7.18,.25-.8,.43-1.41,.57-1.84,.13-.41,.21-.62,.21-.62Z"/><path class="cls-12" d="M449.4,382.66c.07,.04-.65,1.37-2.21,3.24-1.55,1.86-4.02,4.2-7.2,6.14-3.18,1.93-6.39,3.06-8.76,3.58-2.37,.53-3.88,.56-3.89,.48-.07-.26,6.01-.85,12.25-4.71,6.29-3.77,9.61-8.91,9.8-8.73Z"/></g><g><g><path class="cls-10" d="M535.78,180.47c.51-.76,.38-1.83-.38-2.36-.2-.14-.4-.21-.61-.18-.81,.13-2.95,1.69-4.59,1.72-1.64,.03-4.44-.48-6.09,1.05-1.64,1.53-5.65,9.9-6.16,11.72-.51,1.82-2.29,17.79-2.29,17.79l20.12-29.73Z"/><path class="cls-17" d="M542.73,178.38c-.09,.1-19.67,8.74-28.27,12.54-1.92,.84-2.35,3.33-.84,4.8h0c.93,.91,2.35,1.13,3.5,.54l28.1-13.69,2.32-3.52-4.81-.67Z"/><path class="cls-10" d="M521.99,196l6.24-4.6,8.24-11.96s3.37-2.01,5.12-.74c1.75,1.26,2.32,2.73,1.51,4.36,0,0,4.66,1.11,4.99,2.67,.33,1.56-.67,5.35-.67,5.35,0,0,.69,2.91,.03,4.46-.66,1.54-.59,2.88-.59,2.88,0,0,3.02,3.69,1.72,7.47-1.3,3.77-6.74,12.2-9.65,14.38-2.91,2.18-8.42,4.79-8.42,4.79l-3.6,7.54-14.93-13.52,9.99-23.06Z"/><path class="cls-11" d="M536.21,179.95s-.12,.24-.37,.64c-.3,.45-.67,1.02-1.11,1.69-.95,1.42-2.28,3.38-3.77,5.52-.75,1.07-1.46,2.09-2.11,3.02-.33,.46-.68,.89-1.07,1.23-.39,.34-.81,.59-1.2,.78-.79,.37-1.47,.53-1.93,.65-.47,.11-.73,.15-.73,.13,0-.02,.25-.1,.7-.25,.45-.15,1.12-.35,1.87-.73,1.61-.68,2.68-2.92,4.22-5.01,1.48-2.15,2.84-4.08,3.84-5.47,.48-.65,.87-1.2,1.19-1.64,.29-.38,.45-.59,.47-.58Z"/><path class="cls-11" d="M538.13,192.39c-.07-.04,1-2.15,2.41-4.7,1.4-2.56,2.6-4.6,2.67-4.56s-1,2.15-2.41,4.7c-1.4,2.56-2.6,4.6-2.67,4.56Z"/><path class="cls-11" d="M540.09,199.87s-.07-.27-.22-.66c-.15-.39-.46-.89-.97-1.25-.51-.36-1.1-.47-1.51-.48-.42-.01-.68,.06-.69,0-.01-.03,.23-.18,.69-.22,.45-.05,1.11,.04,1.69,.45,.58,.4,.9,1,1,1.43,.11,.44,.05,.72,.02,.72Z"/><path class="cls-11" d="M547.03,202.11s-.26-.14-.62-.42c-.36-.28-.85-.67-1.46-.95-.61-.28-1.23-.36-1.65-.27-.43,.08-.58,.34-.62,.31-.04,0,.07-.36,.56-.52,.47-.16,1.17-.11,1.83,.2,.66,.3,1.15,.75,1.48,1.07,.32,.33,.5,.55,.47,.58Z"/><path class="cls-11" d="M544.35,195.82c-.07-.05,.54-1.14,1.37-2.45,.83-1.31,1.56-2.33,1.63-2.28,.07,.05-.54,1.14-1.37,2.45-.83,1.31-1.56,2.33-1.63,2.28Z"/><path class="cls-11" d="M532.38,196.37s-.04-.26-.16-.63c-.11-.37-.37-.86-.84-1.2-.47-.34-1.02-.44-1.41-.43-.39,0-.63,.08-.65,.04-.02-.03,.21-.19,.63-.25,.42-.06,1.05,0,1.6,.4,.55,.4,.81,.98,.87,1.4,.07,.43-.02,.69-.05,.68Z"/><path class="cls-12" d="M516.05,196.33s.27-.27,.54-.79c.27-.5,.46-1.35,.15-2.17-.32-.82-1.02-1.33-1.55-1.54-.54-.23-.92-.22-.92-.27,0-.03,.39-.12,1,.07,.59,.18,1.4,.7,1.76,1.63,.36,.93,.1,1.87-.24,2.39-.34,.54-.71,.71-.73,.69Z"/></g><g><path class="cls-10" d="M463.54,234.12l23.69,20.27,29.07-43.44,18.91,11.15s-28.33,65.23-36.01,70.99c-7.68,5.76-14.16,4.27-24.04-.29-9.88-4.56-45.07-39.99-45.07-39.99l33.46-18.69Z"/><path class="cls-11" d="M488.07,272.42c-.23-.04,.41-4.13,.13-9.19-.25-5.06-1.33-9.07-1.1-9.13,.17-.07,1.61,3.91,1.87,9.09,.29,5.17-.71,9.28-.89,9.23Z"/></g></g><g><path class="cls-9" d="M366.87,200.94s20.14,.29,20.43,25.39c.29,25.1-5.13,58.67-5.13,58.67l-51.4-9.06s6.38-46.72,11.82-60.18c5.48-13.54,15.94-17.1,24.27-14.82Z"/><path class="cls-9" d="M376.42,182.88l-.64,4.09s-27.47,18.15-29.02,22.83c-2.41,7.26,2.84,68.62,5.16,86.01,2.32,17.39,2.79,55.71,2.79,55.71-1.69,4.51-3.6,8.58-4.24,14.88-.63,6.25,4.24,11.95,4.24,11.95,29.47,9.62,65.48,2.23,104.43-6.65l-.37-11.04-12.73-119.95s3.71-31.18-11.5-40.2c-1.67-.99-14.94-8.53-14.94-8.53l-43.18-9.11Z"/><g class="cls-8"><path d="M420.6,234.88s-.24,17.26,9.05,37c9.29,19.74,23.11,32.07,23.11,32.07l-4.12-35.89-28.04-33.17Z"/></g><g><path class="cls-9" d="M443.66,204.59c-4.82-3.9-13.77-6.01-18.88-2.51-2.27,1.56-4.93,3.91-6.2,7.63-4.36,12.75-1.75,26.47,1.74,36.65,3.49,10.18,20.36,29.78,20.36,29.78l41.67-25.3s-27.89-33.81-30.8-37.3c-1.52-1.82-5.21-6.79-7.88-8.96Z"/><path class="cls-9" d="M443.66,204.59s.33,.21,.88,.7c.56,.49,1.34,1.27,2.3,2.33,1.93,2.13,4.48,5.44,7.92,9.48,6.81,8.19,16.44,19.78,27.86,33.52l.25,.31-.34,.21c-11.79,7.17-25.2,15.33-39.37,23.94-.78,.47-1.56,.95-2.28,1.38l-.28,.17-.21-.25c-4.66-5.51-8.99-11.05-12.88-16.62-1.94-2.79-3.76-5.59-5.32-8.47-.78-1.44-1.49-2.91-2.05-4.42-.56-1.51-1.01-3.02-1.45-4.51-3.48-11.97-3.57-23.71-.39-32.64,.76-2.27,2.11-4.18,3.65-5.66,1.56-1.44,3.19-2.71,5.02-3.29,1.81-.59,3.58-.7,5.18-.61,1.61,.09,3.05,.37,4.32,.74,2.54,.7,4.35,1.71,5.51,2.44,1.17,.74,1.68,1.26,1.68,1.26-.03,.04-.57-.44-1.76-1.13-1.18-.68-2.99-1.63-5.51-2.28-1.25-.34-2.68-.6-4.26-.66-1.57-.06-3.3,.07-5.03,.65-1.73,.56-3.31,1.82-4.82,3.24-1.48,1.45-2.77,3.3-3.48,5.49-3.07,8.83-2.93,20.42,.56,32.28,.44,1.48,.89,2.99,1.45,4.46,.55,1.47,1.25,2.9,2.02,4.32,1.54,2.84,3.36,5.62,5.29,8.39,3.87,5.53,8.21,11.06,12.84,16.54l-.49-.08c.72-.44,1.5-.91,2.28-1.38,14.18-8.59,27.61-16.73,39.41-23.88l-.09,.51c-11.33-13.81-20.89-25.46-27.64-33.69-3.39-4.08-5.9-7.45-7.76-9.6-.93-1.08-1.68-1.88-2.21-2.4-.52-.52-.82-.76-.8-.78Z"/></g><path class="cls-17" d="M346.22,223.7s.07,.25,.12,.73c.05,.57,.12,1.26,.19,2.09,.14,1.94,.33,4.54,.56,7.71,.42,6.62,.99,15.55,1.61,25.43,.65,9.93,1.33,18.91,1.92,25.4,.29,3.16,.54,5.76,.71,7.69,.07,.84,.13,1.53,.18,2.09,.03,.48,.04,.73,.01,.74-.03,0-.08-.24-.16-.72-.09-.56-.2-1.25-.32-2.08-.26-1.81-.6-4.43-.96-7.67-.73-6.49-1.5-15.47-2.15-25.41-.65-9.93-1.1-18.93-1.39-25.45-.13-3.17-.24-5.78-.31-7.72-.02-.84-.04-1.53-.05-2.1,0-.48,0-.73,.03-.74Z"/><path class="cls-17" d="M438.37,369.36s-.26,.11-.77,.24c-.6,.14-1.34,.33-2.25,.55-.98,.24-2.18,.49-3.58,.75-1.4,.28-3,.58-4.78,.85-3.54,.61-7.8,1.11-12.53,1.57-4.74,.4-9.96,.69-15.44,.76-5.49,.04-10.72-.15-15.46-.46-4.74-.38-9-.81-12.55-1.39-1.78-.24-3.38-.54-4.78-.81-1.41-.25-2.61-.5-3.59-.74-.91-.22-1.65-.4-2.25-.54-.51-.13-.78-.21-.77-.24,0-.03,.28,0,.81,.09,.6,.11,1.36,.24,2.28,.4,.98,.2,2.19,.4,3.6,.61,1.41,.23,3.01,.49,4.79,.7,3.55,.51,7.8,.88,12.52,1.22,4.73,.27,9.94,.44,15.4,.4,5.47-.07,10.67-.34,15.39-.69,4.72-.42,8.96-.86,12.51-1.4,1.78-.23,3.38-.5,4.78-.74,1.41-.22,2.62-.43,3.6-.63,.92-.16,1.67-.3,2.27-.41,.52-.08,.8-.12,.81-.09Z"/></g></g><g><g><path class="cls-17" d="M126.5,112.38c-5.77-1.14-11.88,.72-16.65,4.16-3.34,2.41-6.16,5.65-7.61,9.5-1.45,3.85-1.4,8.35,.57,11.96,2.04,3.73,5.86,6.18,9.82,7.73,3.32,1.3,6.92,2.1,10.45,1.63,3.53-.47,6.99-2.34,8.8-5.42l6.82-14.39c0-9.24-6.43-14.04-12.2-15.17Z"/><path class="cls-17" d="M190.83,130.31h0c-11.87-15.04-33.08-19.43-49.61-9.76-1.7,.99-3.31,2.07-4.83,3.19-10.65,7.85-16.62,21.42-15.85,34.63,.78,13.21,8.06,25.75,18.78,33.51l51.82-12.63c3.24-8.78,4.66-17.2,5.68-27.84,.11-1.1,.16-2.52,.13-4.08-.11-6.19-2.29-12.17-6.12-17.03Z"/><g><path class="cls-10" d="M133.04,151.38c.61-8.56,6.15-15.59,14.47-17.71l25.93-6.62c11.21-1.21,18.69,12.58,19.42,23.82,.81,12.5,1.32,25.68-.14,35.01-2.94,18.76-17.3,21.18-17.3,21.18,0-.03,0,8.92-.01,14.4l.27,23.84-36.91-26.55-5.79-67.15c0-.32,.04,.2,.07-.23Z"/><path class="cls-17" d="M189.4,165.96c.05,1.27-.99,2.36-2.31,2.43-1.32,.07-2.44-.89-2.48-2.16-.05-1.27,.99-2.36,2.31-2.43,1.33-.07,2.44,.89,2.49,2.16Z"/><path class="cls-17" d="M189.66,158.6c-.3,.31-2.12-1.03-4.71-1.02-2.59-.02-4.48,1.31-4.76,.99-.14-.14,.16-.71,.99-1.31,.81-.6,2.2-1.19,3.81-1.18,1.61,0,2.97,.6,3.75,1.2,.8,.61,1.07,1.18,.92,1.32Z"/><path class="cls-17" d="M167.07,165.96c.05,1.27-.99,2.36-2.31,2.43-1.32,.07-2.44-.89-2.48-2.16-.05-1.27,.99-2.36,2.31-2.43,1.32-.07,2.44,.89,2.49,2.16Z"/><path class="cls-17" d="M165.59,159.08c-.3,.31-2.13-1.03-4.71-1.02-2.58-.02-4.48,1.31-4.76,.99-.14-.14,.16-.71,.99-1.31,.81-.6,2.2-1.19,3.81-1.19,1.61,0,2.97,.6,3.75,1.2,.79,.61,1.07,1.18,.92,1.32Z"/><path class="cls-17" d="M173.56,178.55c-.01-.15,1.6-.43,4.2-.77,.66-.07,1.29-.2,1.4-.65,.15-.48-.12-1.19-.45-1.96-.62-1.6-1.28-3.27-1.97-5.03-2.73-7.16-4.71-13.05-4.42-13.15,.29-.11,2.74,5.61,5.47,12.77,.66,1.76,1.29,3.45,1.88,5.06,.25,.75,.68,1.6,.35,2.59-.18,.49-.66,.85-1.08,.97-.42,.13-.8,.14-1.12,.16-2.62,.15-4.25,.16-4.26,.01Z"/><path class="cls-11" d="M150.54,200.4s6.1,12.88,24.87,11.08v-4.41s-12.35,.81-24.87-6.67Z"/><path class="cls-17" d="M164.66,148.87c-.25,.7-2.84,.38-5.87,.75-3.04,.31-5.49,1.21-5.89,.58-.18-.3,.24-.96,1.23-1.65,.98-.68,2.54-1.33,4.37-1.54,1.82-.2,3.49,.08,4.6,.53,1.12,.45,1.68,1,1.57,1.33Z"/><path class="cls-17" d="M186.93,149.24c-.45,.59-2.24-.02-4.38-.04-2.14-.1-3.96,.4-4.38-.21-.18-.3,.1-.89,.89-1.45,.78-.56,2.09-1.01,3.56-.97,1.47,.04,2.75,.57,3.5,1.17,.76,.6,1.01,1.21,.81,1.49Z"/><g><path class="cls-10" d="M135.61,164.97c-.2-.54-9.98-4.07-10.11,6.33-.13,10.1,10.07,8.11,10.09,7.82,.02-.29,.02-14.15,.02-14.15Z"/><path class="cls-11" d="M132.5,175.26s-.18,.12-.48,.25c-.29,.13-.79,.22-1.32,.02-1.06-.4-1.95-2.1-1.98-3.93-.02-.92,.18-1.79,.52-2.51,.32-.74,.8-1.25,1.34-1.34,.54-.12,.91,.21,1.03,.49,.13,.28,.07,.48,.12,.5,.03,.03,.22-.17,.14-.58-.04-.2-.16-.44-.39-.64-.24-.2-.6-.3-.97-.27-.78,.05-1.49,.76-1.85,1.55-.41,.8-.66,1.78-.64,2.81,.05,2.04,1.07,3.95,2.53,4.39,.71,.19,1.3-.02,1.61-.25,.32-.25,.37-.47,.34-.49Z"/></g><g><path class="cls-1" d="M131.35,177.05c-.98-.18-2.05,.5-2.29,1.47-.24,.97,.37,2.08,1.33,2.38,.95,.3,2.1-.24,2.46-1.17,.36-.93-.11-2.11-1.02-2.53"/><path class="cls-17" d="M131.83,177.2c-.06,.06,.66,.35,.91,1.36,.12,.48,.05,1.12-.39,1.59-.42,.47-1.19,.76-1.88,.54-.69-.22-1.15-.9-1.22-1.53-.1-.64,.22-1.2,.59-1.52,.79-.68,1.54-.5,1.53-.58,0-.03-.15-.1-.47-.11-.31,0-.79,.09-1.26,.44-.46,.33-.9,1.01-.81,1.82,.07,.78,.6,1.62,1.51,1.92,.91,.28,1.83-.11,2.34-.7,.54-.61,.57-1.42,.39-1.95-.18-.56-.51-.91-.77-1.09-.26-.18-.44-.21-.45-.18Z"/></g></g><g><path class="cls-11" d="M163.74,182.99c.62-1.1,1.8-1.72,3.03-1.81,1.77-.13,3.28,.42,4.49,2.01,.41,.46,.43,1.79,.28,2.16-.15,.37-.03,.19-.3,.45-1,.96-2.06,1.91-3.38,2.28-1.32,.37-2.97,0-3.89-1.26-.82-1.12-.85-2.74-.23-3.84Z"/><path class="cls-17" d="M164.12,179.47c.42-.04,.55,2.74,3.02,4.61,2.47,1.88,5.42,1.43,5.46,1.82,.05,.17-.64,.57-1.89,.66-1.23,.1-3.04-.22-4.55-1.36-1.51-1.15-2.21-2.73-2.35-3.87-.16-1.16,.12-1.86,.31-1.85Z"/></g><path class="cls-17" d="M178.31,125.63c-.63-1.13-2.1-1.44-3.38-1.58-17.94-1.94-36.64,6.12-47.54,20.49l2.88,17.46c-1.22,2.17,4.51,6.54,7,6.38,2.49-.16,4.43-2.33,5.31-4.66,1.73-4.56,.74-10.39,4.3-13.72,2.01-1.88,4.9-2.34,7.59-2.93,5.12-1.12,10.11-3.03,14.37-6.08s7.75-7.3,9.4-12.27c.34-1.01,.58-2.17,.06-3.1Z"/><path class="cls-12" d="M124.35,173.41s-.42-.62-.98-1.83c-.56-1.21-1.27-3.02-1.91-5.34-1.29-4.59-2.06-11.38-.5-18.59,1.56-7.21,5.06-13.08,8.13-16.73,1.53-1.84,2.93-3.2,3.94-4.07,1.01-.87,1.62-1.3,1.65-1.26,.11,.12-2.22,1.97-5.13,5.7-2.91,3.69-6.26,9.48-7.78,16.54-1.52,7.05-.87,13.71,.26,18.27,1.12,4.6,2.48,7.25,2.32,7.31Z"/></g><g><g><polygon class="cls-17" points="136.98 635.18 142.92 686.45 165.39 683.03 166.91 632.5 136.98 635.18"/><g><path class="cls-17" d="M165.47,672.87s-15.08,12.79-23.48,3.39l-.42-1.54-7.85,41.75c-.43,2.28,.77,4.66,2.93,5.34,1.67,.52,3.42,.02,4.56-1.27,6.09-6.88,28.42-33.4,28.42-33.4l-.89-6.69c-.14-1.76-1.84-5.46-3.27-7.59h0Z"/><path class="cls-6" d="M168.92,682.14l-31.47,39.85c1.45,.22,2.91-.33,3.89-1.45,16.85-19.2,28.29-33.4,28.29-33.4l-.71-5.01Z"/><path class="cls-12" d="M145.94,702.18c-.23,.14-1.35-2.08-3.97-3.12-2.59-1.12-4.91-.33-4.98-.6-.04-.1,.47-.48,1.46-.7,.98-.22,2.43-.19,3.87,.41,1.44,.6,2.5,1.61,3.05,2.47,.56,.86,.67,1.5,.56,1.55Z"/><path class="cls-12" d="M143.28,708.25c-.19,.2-1.66-1.12-3.91-1.6-2.24-.54-4.12,.02-4.21-.24-.14-.21,1.85-1.29,4.41-.7,2.56,.57,3.91,2.41,3.7,2.54Z"/><path class="cls-12" d="M151.1,694.26c-.19,.22-2.43-1.82-5.86-2.89-3.42-1.12-6.4-.75-6.43-1.04-.08-.23,3.05-1.07,6.72,.12,3.68,1.16,5.78,3.67,5.58,3.8Z"/><path class="cls-17" d="M151.11,683.69c-.1,.27-2.52-.56-5.6-.45-3.08,.07-5.46,1.05-5.57,.78-.13-.21,2.24-1.66,5.54-1.75,3.31-.11,5.74,1.2,5.62,1.41Z"/></g></g><g><path class="cls-17" d="M226,675.58c-.52-.79-5.23-17.95-5.23-17.95l29.08-7.92,4.12,24.73-27.98,1.14Z"/><g><path class="cls-17" d="M252.77,667.19l.99,4.36s32.01,13.04,32.42,19.39l-63.26,.46,.78-23.3c9.43,4.51,18.26,3.74,29.07-.91Z"/><path class="cls-6" d="M222.92,691.4l.17-5.32,60.57,1.51s2.82,1.27,2.52,3.35l-63.26,.46Z"/><path class="cls-12" d="M253.98,671.73c0,.32-1.55,.48-3.06,1.54-1.54,1.01-2.31,2.43-2.6,2.3-.29-.06,.16-2.01,2.02-3.25,1.84-1.26,3.71-.89,3.65-.59Z"/><path class="cls-12" d="M260.63,674.57c.07,.31-1.26,.88-2.3,2.26-1.08,1.35-1.33,2.83-1.64,2.82-.29,.05-.52-1.85,.81-3.54,1.31-1.7,3.13-1.85,3.13-1.54Z"/><path class="cls-12" d="M264.46,682.89c-.28,.07-.72-1.55,.06-3.33,.77-1.79,2.22-2.5,2.35-2.23,.18,.27-.76,1.23-1.38,2.7-.65,1.46-.73,2.83-1.04,2.86Z"/></g></g><g><path class="cls-17" d="M206.29,365.54s16.06,71.97,29.63,154.96c11.16,68.25,16.1,142.15,16.1,142.15l-32.87,1.93s-20.03-84.64-35.62-145.5c-14.38-56.12-26.08-85.56-26.08-85.56l-6.58-74.06,55.42,6.08Z"/><path class="cls-17" d="M115.61,351.22s-28.83,38.97-26.4,79.65c1.45,24.33,50.73,240.58,50.73,240.58l29.19-.99-9.33-229.71,9.88-75.2-54.07-14.32Z"/></g></g><path class="cls-17" d="M204.09,246.34s.08,.41,.15,1.21c.07,.89,.15,2.04,.26,3.47,.23,3.02,.39,7.4,.49,12.8,.2,10.82-.3,25.78-1.39,42.24-1.08,16.47-2.01,31.37-2.22,42.17-.12,5.4-.16,9.77-.12,12.79,0,1.43,0,2.59,0,3.48-.01,.8-.03,1.22-.07,1.22-.03,0-.07-.42-.12-1.21-.04-.89-.1-2.05-.17-3.48-.15-3.02-.21-7.4-.18-12.81,.04-10.82,.87-25.76,1.94-42.22,1.08-16.46,1.69-31.37,1.66-42.18-.02-5.4-.08-9.77-.19-12.79-.03-1.43-.06-2.59-.08-3.48,0-.8,0-1.22,.04-1.22Z"/><g><g><g><path class="cls-10" d="M300.67,248.46l-17.58,6.46-19.2,25.99,5.24,9.09,5.18-4.87s19.77-3.68,21.18-6.5c1.41-2.82-.2-5.22-.2-5.22,0,0,.84-3.09,.16-5.48-.68-2.4-2.48-2.73-2.48-2.73,0,0,2.17-.89,1.24-3.66-.93-2.77-2.85-3.29-2.85-3.29,0,0,11.79-5.61,12.84-7.2,.37-.56,.22-1.1-.12-1.58-.78-1.09-2.19-1.45-3.42-1Z"/><path class="cls-10" d="M260.87,275.49l3.55-4.98,7.67-13.9,17.08-4.6s2.88,1.35-1.1,6.44c-3.97,5.1-9.54,4.06-9.54,4.06,0,0,1.21,11.09-1.8,16.04-3.02,4.95-11.16,5.38-11.16,5.38l-4.7-8.44Z"/><path class="cls-11" d="M276.93,279.33s.32-.35,.75-1.1c.43-.75,.96-1.89,1.41-3.39,.91-2.95,1.29-7.55-.48-12.11l-.27,.5c.19-.03,.4-.07,.61-.1,2.32-.38,4.58-.88,6.45-1.88,1.89-.96,3.24-2.54,3.89-4.04,.69-1.51,.73-2.93,.54-3.83-.19-.91-.49-1.33-.51-1.31-.06,.03,.15,.49,.25,1.36,.1,.86-.02,2.17-.72,3.55-.68,1.39-1.94,2.79-3.74,3.67-1.78,.92-3.96,1.39-6.27,1.76-.21,.03-.42,.07-.61,.1l-.44,.07,.17,.43c1.69,4.36,1.42,8.79,.66,11.69-.75,2.96-1.81,4.56-1.69,4.62Z"/><path class="cls-11" d="M292.51,265.75s-.63,.22-1.75,.63c-1.12,.42-2.76,.95-4.76,1.73-1,.4-2.1,.86-3.19,1.58-.53,.36-1.13,.84-1.42,1.61-.3,.77-.1,1.68,.33,2.34,.43,.67,1.05,1.21,1.79,1.54,.76,.36,1.66,.29,2.4,.14,.38-.07,.75-.14,1.13-.2,.42-.06,.81-.16,1.2-.28,.78-.23,1.54-.51,2.3-.81,.7-.27,1.39-.54,2.04-.8l-.22-.69c-1.5,.54-2.72,1.42-3.9,2.22-.58,.4-1.16,.79-1.72,1.18-.55,.38-1.15,.66-1.69,1.13-.54,.45-.97,1.15-.96,1.91,0,.38,.12,.77,.36,1.06,.23,.29,.53,.47,.81,.59,1.14,.44,2.23,.5,3.21,.44,1.96-.18,3.43-.79,4.42-1.18,.99-.42,1.52-.69,1.5-.73-.02-.05-.58,.14-1.59,.48-1.01,.31-2.49,.84-4.36,.94-.93,.03-1.98-.07-2.97-.48-.48-.21-.82-.59-.8-1.11,0-.53,.3-1.03,.76-1.41,.45-.38,1.06-.67,1.64-1.05,.57-.38,1.15-.77,1.74-1.17,1.17-.78,2.39-1.63,3.74-2.11l-.22-.69c-.65,.25-1.35,.53-2.05,.8-.76,.29-1.51,.57-2.25,.79-.37,.11-.74,.21-1.1,.26-.4,.06-.78,.14-1.16,.21-.74,.15-1.42,.2-2.03-.08-.61-.26-1.16-.72-1.51-1.27-.36-.54-.49-1.19-.29-1.74,.19-.55,.67-.98,1.16-1.32,1.01-.7,2.08-1.18,3.05-1.61,1.96-.83,3.59-1.44,4.68-1.94,1.1-.49,1.67-.85,1.65-.89Z"/><path class="cls-11" d="M291.19,258.39c-.02-.08-1.46,.26-3.63,1.27-1.08,.51-2.34,1.2-3.66,2.09-.66,.45-1.33,.95-2.01,1.49-.64,.55-1.5,1.19-1.64,2.4-.05,.59,.24,1.17,.62,1.52,.38,.37,.87,.57,1.32,.65,.92,.16,1.75,.06,2.53-.04,1.57-.22,2.94-.56,4.08-.89,2.29-.64,3.62-1.34,3.57-1.43-.04-.09-1.4,.42-3.69,.93-1.14,.26-2.51,.54-4.03,.72-.75,.07-1.57,.15-2.33,0-.73-.12-1.43-.71-1.37-1.42,.06-.73,.73-1.37,1.37-1.89,.65-.54,1.31-1.04,1.94-1.5,1.27-.9,2.48-1.62,3.51-2.18,2.08-1.11,3.45-1.63,3.41-1.74Z"/></g><path class="cls-12" d="M228.36,289.92l-17.63-56.53c-1.61-5.18-5.56-9.2-10.55-10.76l-10.77-2.44,11.91,91.77,2.67,6.89c6.3,14.04,20.09,11.67,32.24,5.46,.44-.22,.86-.45,1.27-.69l35.57-28.66-11.77-21.2-32.95,16.16Z"/><path class="cls-17" d="M224.43,306.05c.22,0,.29-3.76,1.49-8.18,1.17-4.43,2.98-7.69,2.79-7.8-.13-.11-2.26,3.06-3.46,7.61-1.23,4.54-.99,8.4-.82,8.38Z"/></g><g><path class="cls-1" d="M117.73,249.5l11.92,111.19,65.99,4.85,5.26-4.49-1.83-83.96-23.7-59.8h0c-2.82,5.35-8.22,7.16-14.73,6.66-4.44-.34-8.66-2.06-12.27-4.66l-10.91-7.85-19.72,38.06Z"/><g><path class="cls-12" d="M137.46,211.44l-8.04,8.75-37.77,9.04,22.1,106.87-16.83,41.36c-1.77,4.35-3.24,8.82-4.41,13.38l-10.37,40.57s35.71,9.72,44.89,4.42c9.19-5.3,20.42-56.9,23.82-69.15,3.4-12.25,8.51-48.66,6.12-68.05-2.38-19.4-8.43-41.14-10.47-51.01-2.04-9.87-9.05-36.16-9.05-36.16Z"/><path class="cls-12" d="M98.47,323.14l8.49-33.03-15.31-60.88s-7.16,5.11-11.91,23.79c-4.98,19.57-21.62,73.45-20.6,86.04,1.02,12.59,67.55,35.43,67.55,35.43l2.72-35.05-30.95-16.31Z"/><path class="cls-12" d="M175.42,209.59l5.2,8.06,21.68,5.48s5.7,28.56,5.7,36.39-3.23,94.58-3.23,98.66,15.65,59.55,14.29,62.95c-1.36,3.4-17.69,5.78-17.69,5.78,0,0-6.12-47.98-6.12-64.31s-.68-56.48-4.08-76.22c-3.4-19.74-15.65-68.73-15.65-68.73l-.09-8.06Z"/><path class="cls-17" d="M195.61,371.72s-.03-.14-.03-.41c0-.32,0-.71,0-1.19,.02-1.12,.04-2.65,.07-4.58,.09-4.05,.22-9.79,.38-16.85,.33-14.22,.91-33.88,1.26-55.58,.03-2.71,.06-5.39,.04-8.03,.01-2.61-.28-5.2-.47-7.76-.41-5.1-.82-10.02-1.29-14.7-.47-4.67-1.01-9.11-1.71-13.22-.69-4.11-1.89-7.8-3.17-11.1-2.6-6.6-5.27-11.71-7.13-15.22-.92-1.7-1.65-3.04-2.19-4.02-.23-.42-.42-.76-.57-1.05-.13-.24-.19-.36-.17-.37,.01,0,.1,.1,.25,.32,.17,.27,.39,.6,.65,1,.55,.89,1.36,2.21,2.34,3.95,1.95,3.47,4.72,8.54,7.41,15.16,1.33,3.31,2.58,7.06,3.31,11.2,.74,4.13,1.3,8.58,1.8,13.26,.5,4.68,.92,9.61,1.34,14.71,.2,2.54,.5,5.14,.49,7.82,.03,2.65,0,5.33-.04,8.05-.35,21.72-1.03,41.36-1.52,55.58-.28,7.05-.5,12.79-.66,16.84-.1,1.93-.17,3.46-.23,4.58-.03,.48-.06,.87-.08,1.19-.02,.27-.04,.4-.06,.4Z"/><path class="cls-17" d="M155.28,339.06s-.1-.42-.19-1.22c-.09-.8-.2-1.99-.3-3.53-.2-3.07-.39-7.52-.3-13.02,.04-2.75,.16-5.76,.38-8.99,.14-3.17-.48-6.57-1.28-10.09-1.78-7.02-4.6-14.54-7.83-22.31-3.27-7.76-6.67-15.04-9.81-21.65-1.53-3.31-3.19-6.4-4.19-9.53-1.01-3.11-1.66-6.06-2.22-8.76-1.09-5.4-1.68-9.82-2.07-12.87-.19-1.53-.31-2.71-.38-3.52-.07-.81-.09-1.23-.06-1.23,.03,0,.11,.42,.23,1.21,.14,.88,.32,2.04,.55,3.5,.49,3.03,1.17,7.43,2.34,12.79,.59,2.68,1.28,5.61,2.3,8.66,1,3.04,2.68,6.11,4.23,9.42,3.18,6.59,6.61,13.88,9.89,21.66,3.24,7.79,6.05,15.34,7.8,22.44,.79,3.57,1.39,7.02,1.21,10.32-.25,3.21-.4,6.21-.49,8.95-.17,5.48-.07,9.92,.02,12.99,.06,1.47,.1,2.64,.14,3.53,.03,.81,.05,1.23,.02,1.24Z"/><path class="cls-17" d="M252.88,336.38l-18.58,25.11c-.77,1.04-2.08,1.56-3.35,1.31l-80.36-15.19c-2.01-.38-3.22-2.43-2.59-4.38l8.67-26.69c.53-1.62,2.17-2.59,3.84-2.28l90.26,16.77c2.46,.46,3.59,3.33,2.1,5.35Z"/><path class="cls-17" d="M79.74,325.33c-.07-.07,.83-1.08,2.7-2.18,1.84-1.1,4.74-2.19,8.08-2.24,3.34-.05,6.27,.97,8.14,2.02,1.9,1.05,2.82,2.04,2.76,2.11-.09,.11-1.14-.69-3.03-1.56-1.88-.88-4.69-1.74-7.86-1.7-3.17,.04-5.95,.98-7.8,1.91-1.87,.92-2.9,1.75-2.99,1.64Z"/><g class="cls-8"><polygon points="98.75 372.96 130.5 384.63 133.8 371.46 148.84 374.5 150.87 366.88 127.27 363.57 127.03 374.5 102.37 365.19 98.75 372.96"/></g><g><path class="cls-10" d="M129.2,342.25s6.35-5.36,8.32-6.57c1.97-1.21,8.62-5.6,11.64-5.14l3.02,.45-2.72,8.01s24.35-3.63,27.67,.3c3.33,3.93-3.63,4.69-7.26,5.14-3.63,.45-15.29,2.42-15.29,2.42,0,0,30.41-3.33,32.53,0,2.12,3.33-2.95,4.08-2.95,4.08l-20.14,8.01-2.31,.91-2.31,3.02s-8.27,5.75-10.84,4.99c-2.57-.76-21.29-4.31-21.29-4.31l1.93-21.32Z"/><path class="cls-11" d="M150.35,356c-.03-.11,1.76-.7,4.72-1.44,2.95-.74,7.08-1.59,11.68-2.24,4.61-.64,8.81-.95,11.85-1.06,3.04-.1,4.93-.03,4.93,.09,0,.13-1.87,.27-4.89,.53-3.02,.26-7.19,.66-11.77,1.3-4.58,.64-8.7,1.4-11.67,1.98-2.98,.58-4.82,.96-4.85,.84Z"/><path class="cls-11" d="M153.11,361.85c-.06-.23,1.89-.94,4.36-1.58,2.47-.64,4.52-.97,4.58-.74,.06,.23-1.89,.94-4.36,1.58-2.47,.64-4.52,.97-4.58,.74Z"/></g><path class="cls-17" d="M207.45,247.61s.08,.38,.14,1.12c.06,.82,.14,1.89,.24,3.21,.21,2.79,.36,6.83,.46,11.83,.19,10-.28,23.82-1.28,39.03-1,15.22-1.86,28.98-2.05,38.97-.11,4.99-.15,9.03-.11,11.82,0,1.32,0,2.39,0,3.22-.01,.74-.03,1.12-.06,1.12-.03,0-.07-.38-.12-1.12-.04-.82-.09-1.89-.16-3.21-.14-2.79-.2-6.84-.16-11.84,.03-10,.8-23.8,1.8-39.01,1-15.21,1.56-28.99,1.53-38.97-.02-4.99-.07-9.03-.18-11.82-.03-1.32-.06-2.39-.07-3.22,0-.74,0-1.12,.03-1.13Z"/><path class="cls-17" d="M109.39,286.63c-.06,0-.11-.8-.14-2.24-.02-1.44-.11-3.52-.29-6.08-.35-5.12-1.27-12.18-3.28-19.75-2.03-7.57-4.76-14.14-7.01-18.76-1.12-2.31-2.08-4.16-2.78-5.41-.69-1.26-1.04-1.98-.99-2.01,.05-.03,.51,.62,1.29,1.84,.79,1.21,1.84,3.02,3.04,5.31,2.41,4.57,5.25,11.17,7.3,18.81,2.03,7.64,2.87,14.78,3.06,19.94,.1,2.58,.1,4.67,.01,6.12-.07,1.44-.14,2.24-.2,2.24Z"/></g></g></g></g></g></svg>