<?xml version="1.0" encoding="utf-8"?>
<!-- Generator: Adobe Illustrator 25.0.0, SVG Export Plug-In . SVG Version: 6.00 Build 0)  -->
<svg version="1.1" id="Capa_1" xmlns="http://www.w3.org/2000/svg" xmlns:xlink="http://www.w3.org/1999/xlink" x="0px" y="0px"
	 viewBox="0 0 1920 1080" style="enable-background:new 0 0 1920 1080;" xml:space="preserve">
<style type="text/css">
	.st0{opacity:0.2;fill:#6C63FE;}
	.st1{opacity:0.65;}
	.st2{fill:#6C63FE;}
	.st3{opacity:0.4;}
	.st4{opacity:0.25;fill:#6C63FE;}
	.st5{fill:#91B3FA;}
	.st6{opacity:0.3;fill:#6C63FE;}
	.st7{fill:#7D97F4;}
	.st8{fill:url(#SVGID_1_);}
	.st9{fill:url(#SVGID_2_);}
	.st10{fill:url(#SVGID_3_);}
	.st11{fill:url(#SVGID_4_);}
	.st12{fill:#EC6B1A;}
	.st13{fill:url(#SVGID_5_);}
	.st14{fill:url(#SVGID_6_);}
	.st15{fill:url(#SVGID_7_);}
	.st16{fill:url(#SVGID_8_);}
	.st17{fill:#BDD0FB;}
	.st18{fill:url(#SVGID_9_);}
	.st19{fill:url(#SVGID_10_);}
	.st20{fill:url(#SVGID_11_);}
	.st21{fill:url(#SVGID_12_);}
	.st22{fill:url(#SVGID_13_);}
	.st23{fill:url(#SVGID_14_);}
	.st24{fill:url(#SVGID_15_);}
	.st25{fill:url(#SVGID_16_);}
	.st26{fill:url(#SVGID_17_);}
	.st27{fill:url(#SVGID_18_);}
	.st28{fill:url(#SVGID_19_);}
	.st29{fill:url(#SVGID_20_);}
	.st30{fill:url(#SVGID_21_);}
	.st31{fill:url(#SVGID_22_);}
	.st32{fill:url(#SVGID_23_);}
	.st33{fill:url(#SVGID_24_);}
	.st34{opacity:0.26;}
	.st35{fill:url(#SVGID_25_);}
	.st36{fill:url(#SVGID_26_);}
	.st37{fill:url(#SVGID_27_);}
	.st38{fill:url(#SVGID_28_);}
	.st39{fill:url(#SVGID_29_);}
	.st40{fill:url(#SVGID_30_);}
	.st41{fill:url(#SVGID_31_);}
	.st42{fill:url(#SVGID_32_);}
	.st43{fill:url(#SVGID_33_);}
	.st44{fill:url(#SVGID_34_);}
	.st45{fill:url(#SVGID_35_);}
	.st46{fill:url(#SVGID_36_);}
	.st47{fill:url(#SVGID_37_);}
	.st48{fill:url(#SVGID_38_);}
	.st49{fill:url(#SVGID_39_);}
	.st50{fill:url(#SVGID_40_);}
	.st51{opacity:0.87;fill:url(#SVGID_41_);}
</style>
<g>
	<path class="st0" d="M649.5,946.7c179.5,18.2,193.4-46.7,385.1-23c119.5,14.8,149.4,44.4,275.9,44.1c84.5-0.2,167.4-1.6,241.4-57.5
		c59.7-45,122.2-116.9,91.8-195.8c-18.2-47.1-62.3-81.4-73.2-131.6c-9.5-43.6,6.9-88.6,19.4-129.9c22.4-74.2,61-182.1,0.7-249.7
		c-77.2-86.4-174.6,16.4-241.9,60.6c-156.8,103-282-34.4-417-99.6c-94.2-45.5-211.8-75.9-316.8-60.8
		c-117.2,16.8-117.8,89.5-95.1,185.8c8.4,35.9,23.3,82.2,10.7,118.9c-20.9,60.9-82.3,47.7-132.3,62.8c-28.4,8.6-56,20.2-78.8,39.7
		c-47.7,40.7-64.3,104-59,164.8C277.5,873.3,484.2,930,649.5,946.7z"/>
	<g class="st1">
		<path class="st2" d="M576.4,854.8c260.3,0,520.6,0,781,0c1.5,0,2.8-1.3,3.2-2.8c0.4-1.4-0.2-3.1-1.5-3.9
			c-18.5-11.6-37.1-23-55.6-34.5c-0.5-0.3-1.2-0.3-1.8-0.3c-223.3,0-446.5,0-669.8,0c-0.6,0-1.2-0.1-1.8,0.3
			c-18.5,11.6-37.1,23-55.6,34.6c-1.3,0.8-1.9,2.6-1.5,4C573.6,853.5,574.9,854.8,576.4,854.8z"/>
		<path class="st2" d="M451.5,933.6c343.6,0,687.1,0,1030.7,0c1.5,0,2.8-1.7,3.2-3.2c0.4-1.4-0.2-3.4-1.5-4.2
			c-18.5-11.6-37.1-22.6-55.6-34.2c-0.5-0.3-1.2,0-1.8,0c-306.5,0-613,0-919.5,0c-0.6,0-1.2-0.5-1.8-0.2
			c-18.5,11.6-37.1,22.8-55.6,34.4c-1.3,0.8-1.9,2.9-1.5,4.4S450,933.6,451.5,933.6z"/>
		<path class="st2" d="M1608.9,1003.9c-18.5-11.6-37.1-22.7-55.6-34.3c-0.5-0.3-1.2-0.1-1.8-0.1c-389.8,0-779.5,0-1169.3,0
			c-0.6,0-1.2-0.2-1.8,0.1c-18.5,11.6-37.1,22.9-55.6,34.5c-1.3,0.8-1.9,2.7-1.5,4.1c0.4,1.4,1.7,2.8,3.2,2.8
			c426.8,0,853.6,0,1280.4,0c1.5,0,2.8-1.5,3.2-2.9C1610.8,1006.7,1610.2,1004.7,1608.9,1003.9z"/>
	</g>
	<g class="st3">
		<path class="st2" d="M523.3,647.6H287.5c-5,0-9.1-4.1-9.1-9.1l0,0c0-5,4.1-9.1,9.1-9.1h235.8c5,0,9.1,4.1,9.1,9.1l0,0
			C532.4,643.5,528.3,647.6,523.3,647.6z"/>
		<path class="st2" d="M551.6,683.3H315.8c-5,0-9.1-4.1-9.1-9.1l0,0c0-5,4.1-9.1,9.1-9.1h235.8c5,0,9.1,4.1,9.1,9.1l0,0
			C560.7,679.2,556.6,683.3,551.6,683.3z"/>
		<path class="st2" d="M484.5,754.8H315.8c-5,0-9.1-4.1-9.1-9.1l0,0c0-5,4.1-9.1,9.1-9.1h168.7c5,0,9.1,4.1,9.1,9.1l0,0
			C493.7,750.7,489.6,754.8,484.5,754.8z"/>
		<path class="st2" d="M578,719.1H342.2c-5,0-9.1-4.1-9.1-9.1l0,0c0-5,4.1-9.1,9.1-9.1H578c5,0,9.1,4.1,9.1,9.1l0,0
			C587.2,715,583.1,719.1,578,719.1z"/>
	</g>
	<g class="st3">
		<path class="st2" d="M1592.1,274.9h-235.8c-5,0-9.1-4.1-9.1-9.1l0,0c0-5,4.1-9.1,9.1-9.1h235.8c5,0,9.1,4.1,9.1,9.1l0,0
			C1601.2,270.8,1597.1,274.9,1592.1,274.9z"/>
		<path class="st2" d="M1620.4,310.6h-235.8c-5,0-9.1-4.1-9.1-9.1l0,0c0-5,4.1-9.1,9.1-9.1h235.8c5,0,9.1,4.1,9.1,9.1l0,0
			C1629.5,306.5,1625.4,310.6,1620.4,310.6z"/>
		<path class="st2" d="M1553.3,382.1h-168.7c-5,0-9.1-4.1-9.1-9.1l0,0c0-5,4.1-9.1,9.1-9.1h168.7c5,0,9.1,4.1,9.1,9.1l0,0
			C1562.5,378,1558.4,382.1,1553.3,382.1z"/>
		<path class="st2" d="M1646.8,346.3h-235.8c-5,0-9.1-4.1-9.1-9.1l0,0c0-5,4.1-9.1,9.1-9.1h235.8c5,0,9.1,4.1,9.1,9.1l0,0
			C1656,342.2,1651.9,346.3,1646.8,346.3z"/>
	</g>
	<path class="st4" d="M800.2,737.3c4-9.5,6.3-19.6,10.9-28.9c9.7-19.7,24.2-34.7,38.2-51.1c9.6-11.3,26.1-31.3,12.6-45.7
		c-6.6-7.1-17.4-8-26.3-6.9c-27,3.2-36.8,9.8-30.8-22.3c3.3-17.8,12.8-33.8,16.5-51.3c3.8-17.7,5.6-69.2-13.3-81.3
		c-33.5-21.6-54.5,59.9-59.7,78.6c-0.2,0.7-0.3,1.4-0.4,2.2c-0.2,2.2-1.9,3.9-4,4.3c-2.2,0.4-4.3-0.8-5.2-2.7
		c-1.3-2.8-2.3-5.4-2.4-7.6c-0.5-10.8,2.8-22.8,5.6-33.1c3.8-14,9.1-27.7,14.7-41.1c6.3-15.2,10-31.2,4.6-47.2
		c-5.4-15.8-16.5-28.8-26.4-42c-13.1-17.3-22.3-40.9-42.8-51.1c-24.2-12-48.6,6.1-61.6,26.3c-21,32.6-9.3,68.4,6.6,100.2
		c11.3,22.5,40,56.7,39.3,84.4c0,1.7-0.9,3.2-2.4,4c-1.4,0.9-3.2,0.9-4.7,0.2c-5-2.6-9-7-13.1-11.7c-14.8-16.5-27.7-35-41-52.7
		c-9.1-12.2-22-33.7-38.9-35.3c-19.9-1.8-19.6,36-18,47.8c8,60.2,63.9,90.2,93.4,138.4c6.1,9.9,19.3,28,17.9,40.1
		c-2.6,23.3-31.2-2.5-43.6-6.3c-17.2-5.3-47.4-5.4-47.7,18.2c-0.3,27.5,23.5,51.2,48.2,59.4c19.8,6.6,42.5,8.9,61.3,18.1
		c17.2,8.4,6.9,27.5-10.4,22.2c-7.1-2.2-14.2-5-21.2-7.7c-6.7-2.6-26.5-13.5-31.4-3.4c-3.8,7.7,4,21.2,7.1,27.8
		c34.8,73.7,63.4,60.1,103.6,74.6c11.5,4.1,19.3,13.5,23.5,24.8c1.8,4.9,1.6,23.1,7.2,24.8c7.7,2.2,18.3-13.6,21.6-18.2
		c6.1-8.4,13.5-15.8,19.5-24.2c10.5-14.5,27.6-36,25.7-55.3c-1-9.5-9.2-13.4-18-14.1c-15-1.2-38.7-4-29.2-24.6
		C790.5,757.7,795.9,747.7,800.2,737.3z"/>
	<path class="st5" d="M769.8,903.6c-1.1,0-2.1-0.9-2.1-2.1c0-1-2.1-100.9-24.2-167.9c-22-66.7-37.3-197-33.3-232
		c3.5-30.5-8.7-158.5-35.1-187.6c-3.5-3.8-7-5.7-10.6-5.7c-1.2,0-2.1-0.9-2.1-2.1c0-1.2,0.9-2.1,2.1-2.1c4.8,0,9.4,2.3,13.7,7.1
		c28.9,31.9,39.2,163.7,36.2,190.9c-3.5,31,9.9,159.9,33.1,230.3c22.3,67.6,24.4,168.1,24.4,169.1
		C771.9,902.7,771,903.6,769.8,903.6C769.8,903.6,769.8,903.6,769.8,903.6z"/>
	<path class="st6" d="M700.9,779.1c-9.4,2.6-39.7,27.7-38.3,6.3c1.8-27.5,31.8-49.4,34-77.6c1.3-16.4-14-26.2-28.8-29.1
		c-26-5.1-35.2,46.3-48.2,63.6c-2.7,3.6-5.7-67.7-6.3-70.6c-1.8-8.5-6.2-24.1-15.1-28c-21.5-9.4-29.9,18.6-32.3,34.7
		c-0.1,0.9-0.8,1.7-1.7,2c-0.9,0.3-1.9,0-2.5-0.8c-13.8-16.4-3.2-33.8-11-52.9c-10.7-26.2-33,0.6-42,13.1
		c-15.5,21.4-18.3,50.3,5.9,67c22.3,15.4,33.3,25.3,18.7,29.3c-19.2,5.3-34.5,25.8-24.9,45.2c10.1,20.3,41.1,31.1,61.1,38.3
		c7.9,2.9,28.4,2.6,30,13.6c1.3,9.1-12.5,13.3-18.7,16.5c-23.5,12.2-28.8,24.7-2.8,40.5c52.3,32.1,110,23,109.4-1.2
		c-0.3-11.4,7.4-25.3,11.1-35.7c3.9-11.2,7.7-22.4,10.7-33.8C712.2,808.1,723,773.1,700.9,779.1z"/>
	<path class="st2" d="M681.9,903.3c-0.8,0-1.6-0.5-2-1.4c-0.4-1.1-42.4-113.4-85.4-146.5c-33.7-26-59.3-66.3-62.3-98
		c-1.5-16.1,2.5-29.5,11.9-39.9c0.8-0.9,2.1-0.9,3-0.2c0.9,0.8,0.9,2.1,0.2,3c-8.6,9.6-12.2,21.9-10.9,36.8
		c2.8,30.6,27.8,69.7,60.6,95c18.5,14.2,38.7,43.6,60.1,87.1c15.9,32.3,26.5,60.9,26.6,61.2c0.4,1.1-0.2,2.3-1.2,2.7
		C682.4,903.2,682.1,903.3,681.9,903.3z"/>
	<path class="st4" d="M1155.1,833c-27.6-15.5-54.3-40.3-75.9-64c-8.9-9.7-23.9-25.2-24.8-39.9c-1.1-19,34.7-17,46.3-14.6
		c9,1.9,19.5,9.5,28.8,7.7c22-4.2-3.3-32.1-9.5-38.2c-11.7-11.4-27.6-22.9-34.6-38.5c-3.2-7.2-3.5-14.4,1.8-20.6
		c16.4-19.2,36.5-5.3,50.9,7.2c9.6,8.3,26.9,10.3,15.4-6.9c-10.6-15.9-26.7-27.8-38.3-43c-5.4-7.2-15.1-15.8-16-25.5
		c-1.2-12.4,10.3-16.4,20-14c12.4,3.1,21.2,12.5,29.6,22.1c9.1,10.4,26.7,19,23.7-3.1c-1.8-13.4-7.4-25.4-11.6-38
		c-3.5-10.5-25.7-68,5.9-54.3c7.5,3.2,12.5,11.6,19,16.4c13.4,10,12.2-5.5,9.5-15.4c-4.2-15.7-21.9-35.1-12.3-52.7
		c9.2-16.7,35.4-9.5,49.1-5c17.9,6,36.9,14.6,35.3,38.5c-1.4,21.2-16.8,39.5-24,58.7c-4.3,11.6-14.3,47.2,3.2,51.1
		c15.5,3.5,26.1-16.2,36.9-23.9c18.8-13.4,32.4,8.9,34.7,26.1c2.7,20.5-5.5,37.1-17.6,52.2c-7.8,9.7-17.7,17.1-26.4,25.9
		c-5.2,5.2-26.8,30.7-7.8,31.3c15,0.4,21.4-20.5,35-23.1c20-3.8,19.4,24.7,11.9,36c-8.7,13.1-23.4,20.6-35.4,29.7
		c-14.8,11.3-31.9,23.3-41.2,40.6c-11.7,21.7,19.1,4.8,25.2,0.7c10.1-6.7,28-20.9,40.1-11.3c15,11.9-5.7,43.4-13.3,53.5
		c-19.6,26.2-49.2,44.2-80.6,47C1188.4,847.2,1171,841.9,1155.1,833z"/>
	<path class="st4" d="M1196.7,851c-0.9,0-1.8-0.6-2.2-1.5c-0.3-0.7-25-67.8-10.5-150.8c1.4-7.8,2.9-16.6,4.6-26.2
		c8.2-46.4,19.5-110,27-163.3c4.1-29.1,6.5-52.1,7.3-68.3c1.3-26-1.9-29.1-2.6-29.5c-1.1-0.6-1.5-2-0.9-3.2c0.6-1.1,2-1.5,3.2-0.9
		c5.5,3,9.5,17.6-2.3,102.5c-7.4,53.3-18.7,117-27,163.5c-1.7,9.6-3.3,18.4-4.6,26.2c-14.3,81.7,10,147.7,10.3,148.3
		c0.5,1.2-0.2,2.5-1.4,3C1197.3,851,1197,851,1196.7,851z"/>
	<g>
		<path class="st6" d="M1257.4,887.8c-1.9-10.3-11.5-21.3-16.7-30c-5.6-9.3-11.2-18.7-16-28.4c-4.9-9.9-21.2-39.2-0.3-38
			c8.9,0.5,40.9,17.4,35.6-1.6c-6.8-24.4-37.9-38.4-45.2-63.3c-4.3-14.5,7.6-26.2,20.4-31.6c22.4-9.5,40.4,35,55.3,48.1
			c3.1,2.8-7.7-61.9-7.7-64.6c0-8,1-22.8,8.3-28c19.6-14,33.2,16.9,37.1,29.4c13.9-19.4-1.2-33.7,2.4-53.7
			c4.7-25.6,29.8-5.7,40.2,3.8c18,16.3,26,41.7,7.3,61.4c-17.1,18-25.2,29-11.2,29.9c18.2,1.1,35.9,16.6,30.9,35.9
			c-5.2,20.2-31.1,35.7-47.6,46c-6.5,4.1-25,7.7-24.4,17.9c0.5,8.5,13.7,9.6,19.9,11.3c23.4,6.5,30.5,16.7,10.2,35.9
			C1315,906.9,1261.5,909.7,1257.4,887.8z"/>
		<path class="st7" d="M1264.6,899.8c-0.1,0-0.2,0-0.3,0c-1.3-0.2-2.1-1.4-2-2.6c0.7-4.5,16.8-111.1,50-149.9
			c24.7-28.9,39.7-68.6,36.4-96.6c-1.6-13.5-7.1-23.8-16.5-30.7c-1-0.8-1.3-2.2-0.5-3.2c0.8-1,2.2-1.3,3.2-0.5
			c10.5,7.7,16.7,19.1,18.4,33.9c3.4,29.1-12,70.3-37.5,100.1c-32.3,37.8-48.8,146.5-48.9,147.6
			C1266.8,899,1265.8,899.8,1264.6,899.8z"/>
	</g>
	<g>
		<g>
			<g>
				<linearGradient id="SVGID_1_" gradientUnits="userSpaceOnUse" x1="721.0693" y1="699.495" x2="725.912" y2="878.6697">
					<stop  offset="0" style="stop-color:#09005D"/>
					<stop  offset="1" style="stop-color:#1A0F91"/>
				</linearGradient>
				<path class="st8" d="M767.7,867.1c0-18.7-15.1-33.8-33.8-33.8h-14.1c-18.7,0-33.8,15.1-33.8,33.8v90.1
					c0,18.7,15.1,33.8,33.8,33.8h14.1c18.7,0,33.8-15.1,33.8-33.8V867.1z"/>
				<linearGradient id="SVGID_2_" gradientUnits="userSpaceOnUse" x1="1185.116" y1="686.9533" x2="1189.9586" y2="866.1281">
					<stop  offset="0" style="stop-color:#09005D"/>
					<stop  offset="1" style="stop-color:#1A0F91"/>
				</linearGradient>
				<path class="st9" d="M1232.1,867.1c0-18.7-15.1-33.8-33.8-33.8h-14.1c-18.7,0-33.8,15.1-33.8,33.8v90.1
					c0,18.7,15.1,33.8,33.8,33.8h14.1c18.7,0,33.8-15.1,33.8-33.8V867.1z"/>
			</g>
			<g>
				<linearGradient id="SVGID_3_" gradientUnits="userSpaceOnUse" x1="776.0732" y1="263.2369" x2="735.3898" y2="532.5229">
					<stop  offset="0" style="stop-color:#E1473D"/>
					<stop  offset="1" style="stop-color:#E9605A"/>
				</linearGradient>
				<path class="st10" d="M729.7,698.3c-1-0.2-2.1-1.1-2.1-2.2v-6.9c0-6.7-3.4-12.8-9.3-15.8c-7.7-3.9-16.6-4-24.4-0.4l-14.1,6.7
					c-6.9,3.2-11,10.1-11,17.6v5.3c0,9.7,7,18,16.7,19.3l59.1,8.1l7.1-26.9L729.7,698.3z"/>
				
					<linearGradient id="SVGID_4_" gradientUnits="userSpaceOnUse" x1="-2325.1743" y1="334.9775" x2="-2365.8577" y2="604.2633" gradientTransform="matrix(-1 0 0 1 -1169.625 0)">
					<stop  offset="0" style="stop-color:#E1473D"/>
					<stop  offset="1" style="stop-color:#E9605A"/>
				</linearGradient>
				<path class="st11" d="M1190.6,698.3c1-0.2,1.3-1.1,1.3-2.2v-6.9c0-6.7,4.2-12.8,10.2-15.8c7.7-3.9,17-4,24.8-0.4l14.2,6.7
					c6.9,3.2,11,10.1,11,17.6v5.3c0,9.7-6.9,18-16.5,19.3l-59,8.1l-7.5-26.9L1190.6,698.3z"/>
			</g>
			<path class="st12" d="M1234.3,757.9c-8.6-28.9-52.8-55.7-52.8-55.7s-37.1-113.9-77.1-113.9c-32.1,0-109.2,0-138.3,0
				c0,0-4.3,0-11.4,0c-29.2,0-106.4,0-138.5,0c-40,0-77.1,113.9-77.1,113.9s-44.2,26.8-52.8,55.7c-6.3,21.1,7.3,102.2,15.1,144.2
				c2.7,14.8,16.7,25.9,33,25.9h220.3h11.4h220.1c16.3,0,30.2-11.1,33-25.9C1227,860.1,1240.5,779,1234.3,757.9z"/>
			<linearGradient id="SVGID_5_" gradientUnits="userSpaceOnUse" x1="958.113" y1="618.4401" x2="962.4113" y2="1144.9987">
				<stop  offset="0" style="stop-color:#E1473D"/>
				<stop  offset="1" style="stop-color:#E9605A"/>
			</linearGradient>
			<path class="st13" d="M1228.7,879.5c-2.5-2.8-6.3-4.6-10.3-4.6H702.2c-4,0-7.8,1.8-10.3,4.6c-2.5,2.8-3.4,6.6-2.5,10.1l8.4,33.5
				c1.4,5.4,6.7,9.2,12.8,9.2h498.9c6.1,0,11.4-3.7,12.8-9l8.9-33.6C1232.1,886.1,1231.2,882.3,1228.7,879.5z"/>
			<g>
				<linearGradient id="SVGID_6_" gradientUnits="userSpaceOnUse" x1="777.854" y1="428.6421" x2="772.0421" y2="570.0656">
					<stop  offset="0" style="stop-color:#FF928E"/>
					<stop  offset="1" style="stop-color:#FEB3B1"/>
				</linearGradient>
				<path class="st14" d="M820.9,827.2c0,0-12.8-38.5-29-41.9c-16.2-3.3-84.7-17.6-86.1-5.7c-1.4,11.9-15.2,52.8,25.7,56.6
					C772.4,840.1,827.5,843.2,820.9,827.2z"/>
				
					<linearGradient id="SVGID_7_" gradientUnits="userSpaceOnUse" x1="-2238.3074" y1="450.5615" x2="-2244.1194" y2="591.9849" gradientTransform="matrix(-1 0 0 1 -1094.6525 0)">
					<stop  offset="0" style="stop-color:#FF928E"/>
					<stop  offset="1" style="stop-color:#FEB3B1"/>
				</linearGradient>
				<path class="st15" d="M1099.7,827.2c0,0,12.8-38.5,29-41.9c16.2-3.3,84.7-17.6,86.1-5.7c1.4,11.9,15.2,52.8-25.7,56.6
					C1148.2,840.1,1093.1,843.2,1099.7,827.2z"/>
			</g>
			<linearGradient id="SVGID_8_" gradientUnits="userSpaceOnUse" x1="961.6738" y1="848.7325" x2="970.2738" y2="1166.9236">
				<stop  offset="0" style="stop-color:#E1473D"/>
				<stop  offset="1" style="stop-color:#E9605A"/>
			</linearGradient>
			<path class="st16" d="M1090.5,794c-1.3-2-3.6-3.7-6-3.7H836.2c-2.5,0-4.9,1.7-6.2,3.9s-1.4,5-0.2,7.3l14,26.9
				c5.2,9.8,15.3,16.4,26.4,16.4h182.4c11.8,0,22.5-7.4,27.3-18.2l11.1-25.4C1092,799,1091.8,796,1090.5,794z"/>
			<g>
				<path class="st7" d="M1158.1,711.6c-1.6,2.5-4.4,4.1-7.3,4.1h-381c-3,0-5.8-1.7-7.4-4.2c-1.6-2.5-1.8-5.8-0.5-8.5
					c8.6-18.2,24.9-52,34-70.9c0.4-0.9,0.9-1.7,1.4-2.5c4.4-7,12.1-11.3,20.5-11.3h288.1c8.5,0,16.2,4.4,20.6,11.5
					c0.6,1,1.2,2.1,1.6,3.1l30.7,70.4C1160,706,1159.7,709.2,1158.1,711.6z"/>
				<path class="st17" d="M1126.5,629.8c-20.2,4-79.5,13.9-168.9,13.9c-90.2,0-143.1-10.1-160.3-14.1c4.4-7,12.1-11.3,20.5-11.3
					h288.1C1114.4,618.3,1122.1,622.7,1126.5,629.8z"/>
			</g>
			<g>
				<g>
					<linearGradient id="SVGID_9_" gradientUnits="userSpaceOnUse" x1="763.9401" y1="749.9957" x2="816.1772" y2="749.9957">
						<stop  offset="0" style="stop-color:#FF928E"/>
						<stop  offset="1" style="stop-color:#FEB3B1"/>
					</linearGradient>
					<path class="st18" d="M814.7,774.8c-0.4,0-0.7-0.1-1-0.4l-49.4-46.7c-0.6-0.5-0.6-1.4-0.1-2c0.5-0.6,1.4-0.6,2-0.1l49.4,46.7
						c0.6,0.5,0.6,1.4,0.1,2C815.5,774.6,815.1,774.8,814.7,774.8z"/>
				</g>
				<g>
					<linearGradient id="SVGID_10_" gradientUnits="userSpaceOnUse" x1="1100.795" y1="749.9957" x2="1153.0321" y2="749.9957">
						<stop  offset="0" style="stop-color:#FF928E"/>
						<stop  offset="1" style="stop-color:#FEB3B1"/>
					</linearGradient>
					<path class="st19" d="M1102.2,774.8c-0.4,0-0.8-0.1-1-0.4c-0.5-0.6-0.5-1.5,0.1-2l49.4-46.7c0.6-0.5,1.5-0.5,2,0.1
						c0.5,0.6,0.5,1.5-0.1,2l-49.4,46.7C1102.9,774.7,1102.6,774.8,1102.2,774.8z"/>
				</g>
			</g>
		</g>
	</g>
	<g class="st3">
		<g>
			<g>
				<path class="st2" d="M1057.9,510.9c-0.2,0-0.4-0.1-0.6-0.2c-0.5-0.3-0.6-0.9-0.3-1.4c0.9-1.4,1.8-2.7,2.7-4.1
					c0.3-0.5,0.9-0.6,1.4-0.3c0.5,0.3,0.6,0.9,0.3,1.4c-0.9,1.4-1.8,2.8-2.7,4.2C1058.5,510.7,1058.2,510.9,1057.9,510.9z"/>
			</g>
			<g>
				<path class="st2" d="M966.7,559.1c-3.1,0-6.2-0.1-9.2-0.4c-0.5,0-1-0.5-0.9-1.1c0-0.5,0.5-0.9,1.1-0.9c3,0.2,6,0.4,9.1,0.4
					l0.6,0c0.5,0,1,0.4,1,1c0,0.5-0.4,1-1,1L966.7,559.1z M977,558.6c-0.5,0-0.9-0.4-1-0.9c-0.1-0.5,0.4-1,0.9-1.1
					c3.2-0.3,6.4-0.7,9.5-1.3c0.5-0.1,1.1,0.3,1.2,0.8c0.1,0.5-0.3,1.1-0.8,1.2C983.5,557.8,980.3,558.3,977,558.6
					C977,558.6,977,558.6,977,558.6z M948,557.5c-0.1,0-0.1,0-0.2,0c-3.2-0.6-6.4-1.2-9.6-2.1c-0.5-0.1-0.8-0.7-0.7-1.2
					c0.1-0.5,0.7-0.9,1.2-0.7c3.1,0.8,6.2,1.5,9.4,2c0.5,0.1,0.9,0.6,0.8,1.1C948.9,557.1,948.4,557.5,948,557.5z M996,555.1
					c-0.4,0-0.8-0.3-1-0.7c-0.1-0.5,0.2-1.1,0.7-1.2c3.1-0.8,6.1-1.8,9.1-3c0.5-0.2,1.1,0.1,1.3,0.6c0.2,0.5-0.1,1.1-0.6,1.3
					c-3,1.1-6.2,2.2-9.3,3C996.2,555.1,996.1,555.1,996,555.1z M929.2,552.5c-0.1,0-0.2,0-0.3-0.1c-3.1-1.1-6.1-2.3-9.1-3.7
					c-0.5-0.2-0.7-0.8-0.5-1.3c0.2-0.5,0.8-0.7,1.3-0.5c2.9,1.3,5.9,2.6,8.9,3.6c0.5,0.2,0.8,0.8,0.6,1.3
					C930,552.3,929.6,552.5,929.2,552.5z M1014.2,548.3c-0.4,0-0.7-0.2-0.9-0.6c-0.2-0.5,0-1.1,0.5-1.3c2.9-1.4,5.7-2.9,8.5-4.5
					c0.5-0.3,1.1-0.1,1.4,0.3c0.3,0.5,0.1,1.1-0.3,1.4c-2.8,1.7-5.7,3.2-8.6,4.6C1014.5,548.3,1014.3,548.3,1014.2,548.3z
					 M911.6,544.4c-0.2,0-0.3,0-0.5-0.1c-2.8-1.6-5.6-3.4-8.3-5.2c-0.4-0.3-0.6-0.9-0.2-1.4c0.3-0.4,0.9-0.6,1.4-0.2
					c2.6,1.8,5.3,3.6,8.1,5.1c0.5,0.3,0.6,0.9,0.4,1.4C912.3,544.2,912,544.4,911.6,544.4z M1030.9,538.4c-0.3,0-0.6-0.1-0.8-0.4
					c-0.3-0.4-0.2-1.1,0.2-1.4c1.2-0.9,2.5-1.8,3.7-2.7c1.3-1,2.6-2.1,3.9-3.2c0.4-0.4,1-0.3,1.4,0.1c0.4,0.4,0.3,1-0.1,1.4
					c-1.3,1.1-2.6,2.2-4,3.2c-1.2,1-2.5,1.9-3.7,2.8C1031.3,538.4,1031.1,538.4,1030.9,538.4z M895.8,533.3c-0.2,0-0.5-0.1-0.6-0.2
					c-2.5-2.1-4.9-4.3-7.2-6.6c-0.4-0.4-0.4-1,0-1.4c0.4-0.4,1-0.4,1.4,0c2.3,2.3,4.6,4.4,7.1,6.5c0.4,0.4,0.5,1,0.1,1.4
					C896.3,533.2,896,533.3,895.8,533.3z M1045.6,525.8c-0.3,0-0.5-0.1-0.7-0.3c-0.4-0.4-0.4-1,0-1.4c2.2-2.3,4.4-4.7,6.4-7.2
					c0.3-0.4,1-0.5,1.4-0.1c0.4,0.3,0.5,1,0.1,1.4c-2.1,2.5-4.3,5-6.5,7.3C1046.1,525.7,1045.8,525.8,1045.6,525.8z M882.1,519.6
					c-0.3,0-0.6-0.1-0.8-0.4c-0.8-1-1.7-2-2.5-3.1c-1.2-1.5-2.4-3.1-3.5-4.7c-0.3-0.4-0.2-1.1,0.2-1.4c0.5-0.3,1.1-0.2,1.4,0.2
					c1.1,1.6,2.2,3.1,3.4,4.6c0.8,1,1.6,2,2.4,3c0.4,0.4,0.3,1-0.1,1.4C882.5,519.5,882.3,519.6,882.1,519.6z M870.9,503.7
					c-0.3,0-0.7-0.2-0.9-0.5c-1.6-2.8-3.1-5.7-4.5-8.7c-0.2-0.5,0-1.1,0.5-1.3c0.5-0.2,1.1,0,1.3,0.5c1.3,2.9,2.8,5.8,4.4,8.5
					c0.3,0.5,0.1,1.1-0.4,1.4C871.3,503.7,871.1,503.7,870.9,503.7z M862.8,486.2c-0.4,0-0.8-0.3-0.9-0.7c-1.1-3.1-2.1-6.2-2.9-9.3
					c-0.1-0.5,0.2-1.1,0.7-1.2c0.5-0.1,1.1,0.2,1.2,0.7c0.8,3.1,1.8,6.2,2.9,9.2c0.2,0.5-0.1,1.1-0.6,1.3
					C863,486.1,862.9,486.2,862.8,486.2z"/>
			</g>
			<g>
				<path class="st2" d="M857.8,467.3c-0.5,0-0.9-0.3-1-0.8c-0.3-1.6-0.5-3.3-0.7-5c-0.1-0.5,0.3-1,0.9-1.1c0.5-0.1,1,0.3,1.1,0.9
					c0.2,1.6,0.4,3.2,0.7,4.9c0.1,0.5-0.3,1.1-0.8,1.1C857.9,467.3,857.8,467.3,857.8,467.3z"/>
			</g>
		</g>
		<g>
			<g>
				<path class="st2" d="M877.9,382.8c-0.2,0-0.4-0.1-0.6-0.2c-0.4-0.3-0.5-0.9-0.2-1.4c1-1.3,2-2.7,3.1-4c0.3-0.4,1-0.5,1.4-0.1
					c0.4,0.3,0.5,1,0.1,1.4c-1,1.3-2,2.6-3,3.9C878.5,382.7,878.2,382.8,877.9,382.8z"/>
			</g>
			<g>
				<path class="st2" d="M1074.5,424.8c-0.5,0-0.9-0.3-1-0.8c-0.7-3.3-1.6-6.6-2.7-9.9c-0.2-0.5,0.1-1.1,0.6-1.2
					c0.5-0.2,1.1,0.1,1.2,0.6c1.1,3.3,2,6.7,2.7,10c0.1,0.5-0.2,1.1-0.8,1.2C1074.6,424.8,1074.5,424.8,1074.5,424.8z M1068.2,405.2
					c-0.4,0-0.8-0.2-0.9-0.6c-1.3-3.1-2.8-6.2-4.5-9.2c-0.3-0.5-0.1-1.1,0.4-1.3c0.5-0.3,1.1-0.1,1.3,0.4c1.7,3,3.2,6.2,4.5,9.4
					c0.2,0.5,0,1.1-0.5,1.3C1068.4,405.1,1068.3,405.2,1068.2,405.2z M1058.3,387.1c-0.3,0-0.6-0.2-0.8-0.4c-1.4-2.1-3-4.3-4.6-6.3
					c-0.5-0.6-1-1.3-1.5-1.9c-0.3-0.4-0.3-1.1,0.1-1.4c0.4-0.3,1-0.3,1.4,0.1c0.5,0.6,1,1.3,1.5,1.9c1.6,2.1,3.2,4.3,4.7,6.4
					c0.3,0.5,0.2,1.1-0.3,1.4C1058.7,387,1058.5,387.1,1058.3,387.1z M887.9,371.3c-0.3,0-0.5-0.1-0.7-0.3c-0.4-0.4-0.4-1,0-1.4
					c2.4-2.5,5-4.8,7.6-7.1c0.4-0.4,1-0.3,1.4,0.1c0.4,0.4,0.3,1-0.1,1.4c-2.6,2.2-5.1,4.5-7.5,6.9
					C888.4,371.2,888.1,371.3,887.9,371.3z M1045.3,371.1c-0.3,0-0.5-0.1-0.7-0.3c-2.4-2.4-4.9-4.8-7.5-6.9c-0.4-0.4-0.5-1-0.1-1.4
					c0.4-0.4,1-0.5,1.4-0.1c2.6,2.2,5.2,4.6,7.6,7.1c0.4,0.4,0.4,1,0,1.4C1045.8,371,1045.5,371.1,1045.3,371.1z M903.6,358
					c-0.3,0-0.6-0.1-0.8-0.4c-0.3-0.4-0.2-1.1,0.2-1.4c2.8-2,5.8-3.8,8.8-5.5c0.5-0.3,1.1-0.1,1.4,0.4c0.3,0.5,0.1,1.1-0.4,1.4
					c-3,1.7-5.9,3.5-8.6,5.4C904,357.9,903.8,358,903.6,358z M1029.5,357.9c-0.2,0-0.4-0.1-0.6-0.2c-2.8-1.9-5.7-3.8-8.7-5.4
					c-0.5-0.3-0.6-0.9-0.4-1.4c0.3-0.5,0.9-0.7,1.4-0.4c3,1.7,6,3.5,8.8,5.5c0.5,0.3,0.6,0.9,0.3,1.4
					C1030.2,357.7,1029.9,357.9,1029.5,357.9z M921.5,347.8c-0.4,0-0.7-0.2-0.9-0.6c-0.2-0.5,0-1.1,0.5-1.3c3.1-1.4,6.4-2.7,9.7-3.8
					c0.5-0.2,1.1,0.1,1.3,0.6c0.2,0.5-0.1,1.1-0.6,1.3c-3.2,1.1-6.4,2.3-9.5,3.7C921.8,347.8,921.7,347.8,921.5,347.8z
					 M1011.6,347.8c-0.1,0-0.3,0-0.4-0.1c-3.1-1.4-6.3-2.6-9.5-3.7c-0.5-0.2-0.8-0.7-0.6-1.3c0.2-0.5,0.7-0.8,1.3-0.6
					c3.3,1.1,6.5,2.4,9.7,3.8c0.5,0.2,0.7,0.8,0.5,1.3C1012.4,347.6,1012,347.8,1011.6,347.8z M941,341.2c-0.4,0-0.9-0.3-1-0.8
					c-0.1-0.5,0.2-1.1,0.7-1.2c3.3-0.8,6.8-1.4,10.2-1.9c0.5-0.1,1,0.3,1.1,0.8c0.1,0.5-0.3,1-0.8,1.1c-3.4,0.5-6.7,1.1-10,1.9
					C941.2,341.2,941.1,341.2,941,341.2z M992.1,341.2c-0.1,0-0.2,0-0.2,0c-3.3-0.8-6.7-1.4-10-1.9c-0.5-0.1-0.9-0.6-0.8-1.1
					c0.1-0.5,0.6-0.9,1.1-0.8c3.4,0.5,6.8,1.1,10.2,1.9c0.5,0.1,0.9,0.7,0.7,1.2C993,340.9,992.6,341.2,992.1,341.2z M971.7,338.3
					C971.7,338.3,971.7,338.3,971.7,338.3c-3.4-0.2-6.9-0.2-10.3,0c-0.5,0-1-0.4-1-0.9c0-0.5,0.4-1,0.9-1c3.5-0.2,6.9-0.2,10.4,0
					c0.5,0,1,0.5,0.9,1C972.7,337.9,972.3,338.3,971.7,338.3z"/>
			</g>
			<g>
				<path class="st2" d="M1076.7,440c-0.5,0-0.9-0.4-1-0.9c-0.1-1.6-0.3-3.3-0.5-4.9c-0.1-0.5,0.3-1,0.9-1.1c0.5-0.1,1,0.3,1.1,0.9
					c0.2,1.7,0.4,3.3,0.5,5C1077.7,439.4,1077.3,439.9,1076.7,440C1076.8,440,1076.7,440,1076.7,440z"/>
			</g>
		</g>
		<g>
			<g>
				<g>
					<path class="st2" d="M944.4,484.9c4.1-3.5,19.8-29.8,45,0c2.7,1.4,9.7-2.6,8.9-5.3c-29.4-42.9-66-2.6-62.4,1.8
						C939.3,485.7,939.6,488.9,944.4,484.9z"/>
				</g>
				<g>
					<path class="st2" d="M1015.9,467c5.5-0.6,10.6-4.4,9.1-9.2c-1.5-4.7-53.9-65.9-112.2,3.1c-0.7,0.8-1.1,1.9-1,3
						c0.1,1.1,0.6,2.1,1.5,2.8c2.7,2.2,4.9,3.7,7.8,3.3C974.6,409.6,1010.4,467.6,1015.9,467z"/>
				</g>
				<g>
					<path class="st2" d="M1043.2,448.7c3.9,0.8,11.9-2.1,9.8-8.5c-92.1-100.2-174.2,4.8-171.2,9.1c3,4.2,9.1,4.4,11.6,3
						C966.7,358.1,1039.3,447.9,1043.2,448.7z"/>
				</g>
			</g>
			<path class="st2" d="M978.7,500.2c0,6.7-5.5,12.2-12.2,12.2c-6.7,0-12.2-5.5-12.2-12.2c0-6.7,5.5-12.2,12.2-12.2
				C973.2,488,978.7,493.4,978.7,500.2z"/>
		</g>
	</g>
	<g>
		
			<linearGradient id="SVGID_11_" gradientUnits="userSpaceOnUse" x1="-3431.0308" y1="497.9413" x2="-3401.1653" y2="572.858" gradientTransform="matrix(-1 0 0 1 -2955.4333 0)">
			<stop  offset="0" style="stop-color:#09005D"/>
			<stop  offset="1" style="stop-color:#1A0F91"/>
		</linearGradient>
		<path class="st20" d="M457.9,538.2c0,0-10.1,4.9-11.9,10.5c-1.5,4.5-12.6,5.1-13.7,14c-0.6,4.6-4,8.3-8.5,9
			c-11.4,1.7-28.9,7.6-31.7,27.4c-2.1,15.1,5.5,20.8,13.6,22.8c5.9,1.5,9.9,7.2,8.7,13.2c-1.1,5.7,0.6,12.4,10.5,17.6
			c22.3,11.7,44.5-27.8,44.5-27.8l4.6-69.1L457.9,538.2z"/>
		
			<linearGradient id="SVGID_12_" gradientUnits="userSpaceOnUse" x1="-3416.667" y1="34.598" x2="-3482.5254" y2="74.3068" gradientTransform="matrix(-0.9776 -0.2106 -0.2106 0.9776 -2961.9043 -331.4677)">
			<stop  offset="0" style="stop-color:#FF928E"/>
			<stop  offset="1" style="stop-color:#FEB3B1"/>
		</linearGradient>
		<path class="st21" d="M579,521.9c0,0-44.4,70.3-97.3,83.9c0,0,10.3,29.3,18.2,32.7c0,0,65-54.3,81.7-106.6L579,521.9z"/>
		
			<linearGradient id="SVGID_13_" gradientUnits="userSpaceOnUse" x1="-3300.6167" y1="952.0934" x2="-3336.4519" y2="1057.6613" gradientTransform="matrix(-1 0 0 1 -2955.4333 0)">
			<stop  offset="0" style="stop-color:#09005D"/>
			<stop  offset="1" style="stop-color:#1A0F91"/>
		</linearGradient>
		<path class="st22" d="M366.4,971.5l-1.4,11.8c-0.3,2.2-2,4-4.3,4.3c-3.8,0.4-9.9,0.9-15.8,0.2c-2.6-0.3-4.3-2.9-3.5-5.4
			c1.5-4.6,4.1-11.4,7.9-15.5h13.1C364.8,967,366.7,969.1,366.4,971.5z"/>
		
			<linearGradient id="SVGID_14_" gradientUnits="userSpaceOnUse" x1="-3428.8657" y1="1077.4327" x2="-3392.4214" y2="651.492" gradientTransform="matrix(-1 0 0 1 -2955.4333 0)">
			<stop  offset="0" style="stop-color:#FF928E"/>
			<stop  offset="1" style="stop-color:#FEB3B1"/>
		</linearGradient>
		<path class="st23" d="M469.3,832.8l2.2,13c0,0-7.4,75.2-8.7,105.3c-0.2,4.7,1,9.4,3.5,13.4l12.9,21l-32.8-19.4l-0.7-4l5.4-7.4
			l-7-84.3c-0.4-4.9,0.6-9.9,2.9-14.3l6.8-12.8L469.3,832.8z"/>
		
			<linearGradient id="SVGID_15_" gradientUnits="userSpaceOnUse" x1="-3397.6577" y1="919.153" x2="-3433.4927" y2="1024.7203" gradientTransform="matrix(-1 0 0 1 -2955.4333 0)">
			<stop  offset="0" style="stop-color:#09005D"/>
			<stop  offset="1" style="stop-color:#1A0F91"/>
		</linearGradient>
		<path class="st24" d="M481.3,988.5h-10.5c-2,0-3.8-0.9-5-2.5c-3.3-4.2-10-12.5-13.3-12.7c-4.4-0.3-3.8,15.2-3.8,15.2h-2.4
			l-3.1-19.2c-0.8-4.8,1.6-9.6,6-11.9c0,0,1,7.4,6.4,10.6c5.4,3.3,22,14.9,22,14.9s2-0.3,4.3,0.1
			C485.1,983.6,484.7,988.5,481.3,988.5z"/>
		
			<linearGradient id="SVGID_16_" gradientUnits="userSpaceOnUse" x1="-3355.5559" y1="1083.7704" x2="-3319.1023" y2="657.7181" gradientTransform="matrix(-1 0 0 1 -2955.4333 0)">
			<stop  offset="0" style="stop-color:#FF928E"/>
			<stop  offset="1" style="stop-color:#FEB3B1"/>
		</linearGradient>
		<path class="st25" d="M424.3,839c0,0-43.5,82.5-50.4,101.3c-6.9,18.8-9.3,34.6-9.4,36c-0.1,2.3-3,4.6-11,4.6
			c-4.1,0-6.1-1.6-7.1-3.2c-0.8-1.4-0.9-3.1-0.2-4.5c2.5-5.1,10.5-21.4,13.5-28.7c3.5-8.8,11.1-48.7,15.3-62.6
			c4.2-13.9,8.9-28.9,27-42.8C402,839,414.4,826.8,424.3,839z"/>
		<path class="st12" d="M451.8,703.8c11.2-47.5-17.2-74.4-17.2-74.4c17.9-17.2,50.6-25,50.6-25s31.2,22.8,27.5,40.6
			c-2.2,10.5-21.9,62.6-21.9,62.6S472.5,716.2,451.8,703.8z"/>
		<linearGradient id="SVGID_17_" gradientUnits="userSpaceOnUse" x1="656.9442" y1="594.2084" x2="504.5579" y2="733.6805">
			<stop  offset="0" style="stop-color:#09005D"/>
			<stop  offset="1" style="stop-color:#1A0F91"/>
		</linearGradient>
		<path class="st26" d="M426.9,727.3c4.6-13.8,24.9-23.5,24.9-23.5c20.7,12.4,39,3.8,39,3.8s4.1,15.7,1.3,30.2
			c-2.8,14.5-20.6,108-20.6,108c-27.9,5.7-70.9-5.7-70.9-5.7C418.4,808.5,422.4,741.1,426.9,727.3z"/>
		<linearGradient id="SVGID_18_" gradientUnits="userSpaceOnUse" x1="486.9996" y1="551.679" x2="437.6055" y2="674.6797">
			<stop  offset="0" style="stop-color:#FF928E"/>
			<stop  offset="1" style="stop-color:#FEB3B1"/>
		</linearGradient>
		<path class="st27" d="M464.8,572.9l-9.1,41c-0.9,3.6,2.4,3,6.1,2.3c6-1.1,13.7-3.4,16.3-8.1c0.3-0.5,0.4-1,0.5-1.5l3.9-28.4
			c0.3-2.3-0.9-4.4-3-5.4l-7.6-3.4C469,568.1,465.6,569.8,464.8,572.9z"/>
		<linearGradient id="SVGID_19_" gradientUnits="userSpaceOnUse" x1="569.6145" y1="607.574" x2="505.6929" y2="644.3773">
			<stop  offset="0" style="stop-color:#FF928E"/>
			<stop  offset="1" style="stop-color:#FEB3B1"/>
		</linearGradient>
		<path class="st28" d="M434.6,629.3c0,0-63.7,45.6-8.1,93.4c0,0,2.1,2.4,6.3,3.6c2.1,0.6,8.3,5.3,11.5,7.8c1,0.8,2.5,0.5,3.2-0.6
			c0.5-0.9,0.6-1.9,0.2-2.8l-7.9-16.7c-2.2-2-5.5-2.2-7.9-0.3c-1.5,1.2-3.7,0.7-4.5-1c-4.3-8.7-12.4-34.5,20.8-63.5
			c1.2-1.1,1.6-2.9,0.8-4.4C446.5,640.4,441.1,631.5,434.6,629.3z"/>
		<g>
			
				<linearGradient id="SVGID_20_" gradientUnits="userSpaceOnUse" x1="-3554.783" y1="52.4573" x2="-3548.0034" y2="135.749" gradientTransform="matrix(-0.9809 -0.1943 -0.1943 0.9809 -2964.7532 -298.2556)">
				<stop  offset="0" style="stop-color:#FF928E"/>
				<stop  offset="1" style="stop-color:#FEB3B1"/>
			</linearGradient>
			<path class="st29" d="M482.3,535.5c0,0,9.7,6.6,13.9,23.3c4.2,16.7-2.6,22.7-9.6,22.4c-7-0.4-17-2.5-25.8-14.5
				C452.1,554.7,469.6,527.5,482.3,535.5z"/>
			
				<linearGradient id="SVGID_21_" gradientUnits="userSpaceOnUse" x1="-3549.8423" y1="114.6771" x2="-3519.9756" y2="189.5968" gradientTransform="matrix(-0.9809 -0.1943 -0.1943 0.9809 -2964.7532 -298.2556)">
				<stop  offset="0" style="stop-color:#09005D"/>
				<stop  offset="1" style="stop-color:#1A0F91"/>
			</linearGradient>
			<path class="st30" d="M469.7,559.9c0,0-3.6-24,16.4-20.3l4,4.2c0,0,9.7-11-1-19.3c-10.8-8.3-25.8-6.2-34,8.9
				c-8.3,15.1-11.3,25.7-4.3,35.1c6.9,9.4,12.2,1.3,12.2,1.3s-3.2-8.1-0.5-11.6c2.6-3.5,6.1,2,6.1,2L469.7,559.9z"/>
			
				<linearGradient id="SVGID_22_" gradientUnits="userSpaceOnUse" x1="-3538.0645" y1="51.0962" x2="-3531.2849" y2="134.3882" gradientTransform="matrix(-0.9809 -0.1943 -0.1943 0.9809 -2964.7532 -298.2556)">
				<stop  offset="0" style="stop-color:#FF928E"/>
				<stop  offset="1" style="stop-color:#FEB3B1"/>
			</linearGradient>
			<path class="st31" d="M467,562c0,0-1.8-12.3-8.1-8.8c-6.3,3.5,2.3,11.5,5.7,14.3L467,562z"/>
		</g>
		<g>
			
				<linearGradient id="SVGID_23_" gradientUnits="userSpaceOnUse" x1="-3458.6821" y1="-35.0836" x2="-3524.5405" y2="4.6252" gradientTransform="matrix(-0.9776 -0.2106 -0.2106 0.9776 -2961.9043 -331.4677)">
				<stop  offset="0" style="stop-color:#FF928E"/>
				<stop  offset="1" style="stop-color:#FEB3B1"/>
			</linearGradient>
			<path class="st32" d="M578.7,536.3c0.1,1.5-5.3,2.5-7-3.7c0.5-2.7,1.3-14.4,3.4-16.3c11-9.7,30.5-20.7,30.5-20.7
				c2.2,3.3-0.7,5.5-0.7,5.5l-9.8,6.6c1,3.4,2.5,6.4,2.7,10.2c0.1,2.9-0.9,5.8-2.9,8c-1.9,2.2-4.6,5.1-6.9,7.3
				C583.6,537.3,578.7,536.3,578.7,536.3z"/>
			<linearGradient id="SVGID_24_" gradientUnits="userSpaceOnUse" x1="592.8785" y1="442.7957" x2="566.7286" y2="696.5452">
				<stop  offset="0" style="stop-color:#FF928E"/>
				<stop  offset="1" style="stop-color:#FEB3B1"/>
			</linearGradient>
			<path class="st33" d="M584,531.5l-1.5-0.6c0.2-0.5,4.9-11.9,7.1-14.2c0.9-0.9,1.3-1.7,1.2-2.3c0-0.3-0.2-0.7-0.5-1l-7.9,4.2
				l-3.5,5.5l-1.4-0.9l3.7-5.8l9.2-4.9l0.4,0.3c0.9,0.8,1.4,1.6,1.5,2.5c0.1,1.1-0.5,2.2-1.7,3.5C589.1,519.6,585.3,528.3,584,531.5
				z"/>
		</g>
	</g>
	<g class="st34">
		<g>
			<path class="st2" d="M435.1,697.2l-2.7-3.4c-0.7-0.9-0.6-2.3,0.4-3.1c0.9-0.7,2.3-0.6,3.1,0.4l0,0l0,0l2.6,3.4l0,0
				c0.7,0.9,0.6,2.3-0.4,3C437.1,698.3,435.8,698.1,435.1,697.2z"/>
			<path class="st2" d="M426.4,685.5l-2.4-3.6c-0.7-1-0.4-2.4,0.6-3.1c1-0.7,2.4-0.4,3.1,0.6l0,0l0,0l2.3,3.6l0,0
				c0.7,1,0.4,2.4-0.7,3.1C428.5,686.9,427.1,686.6,426.4,685.5z"/>
			<path class="st2" d="M418.8,673.2l-2.1-3.8c-0.6-1.1-0.2-2.5,0.9-3.2c1.1-0.6,2.5-0.2,3.2,0.9l0,0l0,0l2,3.7l0,0
				c0.6,1.1,0.2,2.5-0.9,3.1C420.8,674.7,419.4,674.3,418.8,673.2z"/>
			<path class="st2" d="M412.2,660.3l-1.8-4c-0.5-1.2,0-2.6,1.2-3.2s2.6,0,3.2,1.2l0,0l0,0.1l1.7,3.9l0,0.1c0.5,1.2,0,2.6-1.2,3.1
				C414.1,662,412.7,661.5,412.2,660.3z"/>
			<path class="st2" d="M406.6,646.9l-1.5-4.1c-0.5-1.3,0.2-2.7,1.5-3.2c1.3-0.5,2.7,0.2,3.2,1.5l0,0l0,0.1l1.4,4l0,0.1
				c0.4,1.3-0.2,2.7-1.5,3.1C408.4,648.8,407,648.2,406.6,646.9z"/>
			<path class="st2" d="M402,633.1l-1.2-4.2c-0.4-1.4,0.4-2.8,1.8-3.1c1.4-0.4,2.8,0.4,3.1,1.8l0,0l0,0.1l1.1,4.1l0,0.1
				c0.4,1.4-0.4,2.7-1.8,3.1C403.8,635.2,402.4,634.4,402,633.1z"/>
			<path class="st2" d="M398.5,619l-0.9-4.3c-0.3-1.4,0.6-2.8,2.1-3.1s2.8,0.6,3.1,2.1l0,0l0,0.1l0.8,4.2l0,0.1
				c0.3,1.4-0.7,2.8-2.1,3C400.1,621.3,398.8,620.4,398.5,619z"/>
			<path class="st2" d="M396,604.7l-0.6-4.3c-0.2-1.5,0.9-2.8,2.3-3c1.5-0.2,2.8,0.9,3,2.3l0,0l0,0.1l0.5,4.2l0,0.1
				c0.2,1.5-0.9,2.8-2.3,3C397.5,607.2,396.2,606.2,396,604.7z"/>
			<path class="st2" d="M394.5,590.3l-0.3-4.3c-0.1-1.5,1.1-2.9,2.6-2.9c1.5-0.1,2.9,1.1,2.9,2.6l0,0l0,0.1l0.2,4.2l0,0.1
				c0.1,1.5-1.1,2.8-2.6,2.9C395.8,593,394.5,591.8,394.5,590.3z"/>
			<path class="st2" d="M393.9,575.8l0-4.4c0-1.6,1.3-2.9,2.9-2.8c1.6,0,2.9,1.3,2.8,2.9l0,0l0,0.1l-0.1,4.2l0,0.1
				c0,1.6-1.3,2.8-2.9,2.8C395.1,578.6,393.9,577.3,393.9,575.8z"/>
			<path class="st2" d="M394.3,561.3l0.3-4.3c0.1-1.6,1.5-2.8,3.1-2.7c1.6,0.1,2.8,1.5,2.7,3.1l0,0l0,0.1l-0.3,4.2l0,0.1
				c-0.1,1.6-1.5,2.8-3.1,2.7C395.4,564.3,394.2,562.9,394.3,561.3z"/>
			<path class="st2" d="M395.6,546.8l0.6-4.3c0.2-1.6,1.7-2.8,3.4-2.6c1.6,0.2,2.8,1.7,2.6,3.4l0,0l0,0.1l-0.6,4.2l0,0.1
				c-0.2,1.6-1.7,2.8-3.4,2.5C396.5,549.9,395.4,548.4,395.6,546.8z"/>
			<path class="st2" d="M397.8,532.5l0.9-4.3c0.3-1.7,2-2.7,3.6-2.4c1.7,0.3,2.7,2,2.4,3.6l0,0l0,0.1l-0.9,4.2l0,0.1
				c-0.3,1.7-2,2.7-3.6,2.4C398.5,535.7,397.5,534.1,397.8,532.5z"/>
			<path class="st2" d="M401,518.3l1.1-4.2c0.4-1.7,2.1-2.6,3.8-2.2c1.7,0.4,2.6,2.1,2.2,3.8l0,0l0,0.1l-1.1,4.1l0,0.1
				c-0.4,1.7-2.2,2.6-3.8,2.2C401.5,521.6,400.5,519.9,401,518.3z"/>
			<path class="st2" d="M405,504.3l1.4-4.1c0.6-1.7,2.3-2.5,4-2c1.7,0.6,2.5,2.3,2,4l0,0l0,0.1l-1.4,4l0,0.1c-0.6,1.6-2.3,2.5-4,2
				C405.3,507.7,404.5,506,405,504.3z"/>
			<path class="st2" d="M409.9,490.7l1.6-4c0.7-1.6,2.5-2.4,4.2-1.8c1.6,0.7,2.4,2.5,1.8,4.2l0,0l0,0.1l-1.6,3.9l0,0.1
				c-0.7,1.6-2.5,2.4-4.2,1.7C410,494.1,409.3,492.3,409.9,490.7z"/>
			<path class="st2" d="M415.7,477.3l1.9-3.9c0.8-1.6,2.7-2.3,4.3-1.5c1.6,0.8,2.3,2.7,1.5,4.3l0,0l0,0.1l-1.9,3.8l0,0.1
				c-0.8,1.6-2.7,2.3-4.3,1.5C415.6,480.8,415,478.9,415.7,477.3z"/>
			<path class="st2" d="M422.4,464.4l2.2-3.8c0.9-1.6,2.9-2.1,4.5-1.2c1.6,0.9,2.1,2.9,1.2,4.5l0,0l0,0.1l-2.1,3.7l0,0.1
				c-0.9,1.6-2.9,2.1-4.5,1.2C422,467.9,421.5,465.9,422.4,464.4z"/>
			<path class="st2" d="M429.9,451.9l2.4-3.6c1-1.5,3.1-1.9,4.6-0.9c1.5,1,1.9,3.1,0.9,4.6l0,0l0,0.1l-2.4,3.5l0,0.1
				c-1,1.5-3.1,1.9-4.6,0.9C429.3,455.5,428.9,453.4,429.9,451.9z"/>
			<path class="st2" d="M438.3,440l2.6-3.5c1.1-1.5,3.2-1.7,4.7-0.6c1.5,1.1,1.7,3.2,0.6,4.7l0,0l0,0l-2.6,3.3l0,0
				c-1.1,1.5-3.2,1.7-4.7,0.6C437.4,443.5,437.1,441.5,438.3,440z"/>
			<path class="st2" d="M447.3,428.6l2.9-3.3c1.2-1.4,3.4-1.6,4.8-0.3c1.4,1.2,1.6,3.4,0.3,4.8l0,0l0,0l-2.8,3.2l0,0
				c-1.2,1.4-3.4,1.5-4.8,0.3C446.3,432.2,446.1,430.1,447.3,428.6z"/>
			<path class="st2" d="M457.1,417.9l3-3.1c1.3-1.4,3.5-1.4,4.9-0.1c1.4,1.3,1.4,3.5,0.1,4.9l0,0l0,0l-3,3l0,0
				c-1.3,1.3-3.5,1.4-4.8,0C455.8,421.4,455.8,419.2,457.1,417.9z"/>
			<path class="st2" d="M467.5,407.7l3.2-2.9c1.4-1.3,3.6-1.2,4.9,0.2c1.3,1.4,1.2,3.6-0.2,4.9l0,0l0,0l-3.2,2.8l0,0
				c-1.4,1.3-3.6,1.2-4.9-0.3C465.9,411.1,466.1,409,467.5,407.7z"/>
			<path class="st2" d="M478.4,398.1l3.4-2.7c1.5-1.2,3.7-1,4.9,0.5c1.2,1.5,1,3.7-0.5,4.9l0,0l0,0l-3.3,2.7l0,0
				c-1.5,1.2-3.7,1-4.9-0.5C476.7,401.5,476.9,399.3,478.4,398.1z"/>
			<path class="st2" d="M489.9,389.2l3.5-2.6c1.6-1.1,3.8-0.8,5,0.8c1.1,1.6,0.8,3.8-0.8,5l0,0l0,0l-3.5,2.5l0,0
				c-1.6,1.1-3.8,0.8-4.9-0.8C487.9,392.5,488.3,390.3,489.9,389.2z"/>
			<path class="st2" d="M501.8,380.9l3.7-2.4c1.7-1.1,3.9-0.6,5,1.1c1.1,1.7,0.6,3.9-1.1,5l0,0l0,0l-3.6,2.3l0,0
				c-1.7,1.1-3.9,0.6-4.9-1.1C499.6,384.2,500.1,382,501.8,380.9z"/>
			<path class="st2" d="M514.1,373.3l3.8-2.2c1.7-1,4-0.4,5,1.3c1,1.7,0.4,4-1.3,5l0,0l0,0l-3.7,2.1l0,0c-1.7,1-3.9,0.4-4.9-1.4
				C511.8,376.5,512.4,374.3,514.1,373.3z"/>
			<path class="st2" d="M526.8,366.3l3.9-2c1.8-0.9,4-0.2,4.9,1.6c0.9,1.8,0.2,4-1.6,4.9l0,0l0,0l-3.8,1.9l0,0
				c-1.8,0.9-4,0.2-4.9-1.6C524.3,369.4,525,367.2,526.8,366.3z"/>
			<path class="st2" d="M539.9,360l4-1.8c1.8-0.8,4,0,4.8,1.9c0.8,1.8,0,4-1.9,4.8l0,0l0,0l-3.9,1.7l0,0c-1.8,0.8-4,0-4.8-1.9
				C537.2,362.9,538.1,360.8,539.9,360z"/>
			<path class="st2" d="M553.3,354.3l4.1-1.6c1.9-0.7,4,0.2,4.7,2.1c0.7,1.9-0.2,4-2.1,4.7l0,0l0,0l-4,1.5l0,0
				c-1.9,0.7-4-0.2-4.7-2.1C550.4,357.1,551.4,355,553.3,354.3z"/>
			<path class="st2" d="M566.9,349.2l4.1-1.4c1.9-0.6,4,0.4,4.6,2.3c0.6,1.9-0.4,4-2.3,4.6l0,0l0,0l-4,1.3l0,0
				c-1.9,0.6-4-0.4-4.6-2.3C563.9,352,564.9,349.9,566.9,349.2z"/>
			<path class="st2" d="M580.7,344.9l4.2-1.2c2-0.6,4,0.6,4.5,2.5c0.6,2-0.6,4-2.5,4.5l0,0l0,0l-4.1,1.2l0,0c-2,0.6-4-0.6-4.5-2.5
				C577.6,347.4,578.7,345.4,580.7,344.9z"/>
			<path class="st2" d="M594.7,341.1l4.2-1c2-0.5,4,0.8,4.4,2.7c0.5,2-0.8,4-2.7,4.4l0,0l0,0l-4.1,1l0,0c-2,0.5-4-0.8-4.4-2.7
				C591.5,343.6,592.7,341.6,594.7,341.1z"/>
			<path class="st2" d="M608.9,338l4.3-0.8c2-0.4,3.9,0.9,4.3,2.9c0.4,2-0.9,3.9-2.9,4.3l0,0l0,0l-4.2,0.8l0,0c-2,0.4-3.9-0.9-4.3-3
				S606.9,338.4,608.9,338z"/>
			<path class="st2" d="M623.1,335.5l4.3-0.6c2-0.3,3.9,1.1,4.2,3.1c0.3,2-1.1,3.9-3.1,4.2l0,0l0,0l-4.2,0.6l0,0
				c-2,0.3-3.9-1.1-4.2-3.1C619.7,337.7,621.1,335.8,623.1,335.5z"/>
			<path class="st2" d="M637.5,333.7l4.3-0.4c2-0.2,3.9,1.3,4.1,3.3c0.2,2-1.3,3.9-3.3,4.1l0,0l-0.1,0l-4.2,0.4l-0.1,0
				c-2,0.2-3.9-1.3-4-3.3C634,335.7,635.5,333.9,637.5,333.7z"/>
			<path class="st2" d="M652,332.6l4.4-0.2c2.1-0.1,3.8,1.5,3.9,3.5c0.1,2.1-1.5,3.8-3.5,3.9l0,0l-0.1,0l-4.2,0.2l-0.1,0
				c-2.1,0.1-3.8-1.5-3.9-3.5C648.4,334.4,649.9,332.7,652,332.6z"/>
			<path class="st2" d="M666.5,332.1l4.4,0c2.1,0,3.7,1.7,3.7,3.7c0,2.1-1.7,3.7-3.7,3.7h0l-0.1,0l-4.2,0l-0.1,0
				c-2.1,0-3.7-1.7-3.7-3.7C662.8,333.7,664.4,332.1,666.5,332.1z"/>
			<path class="st2" d="M681,332.2l4.3,0.2c2.1,0.1,3.7,1.8,3.6,3.9c-0.1,2.1-1.8,3.7-3.9,3.6h0l0,0l-4.3-0.2l0,0
				c-2.1-0.1-3.7-1.8-3.6-3.9C677.2,333.7,678.9,332.1,681,332.2z"/>
			<path class="st2" d="M695.4,333l4.3,0.3c2.1,0.2,3.6,2,3.4,4c-0.2,2.1-2,3.6-4,3.4l0,0l0,0l-4.2-0.3l0,0c-2.1-0.2-3.6-2-3.4-4
				C691.6,334.3,693.4,332.8,695.4,333z"/>
			<path class="st2" d="M709.9,334.3l4.3,0.5c2.1,0.2,3.5,2.1,3.3,4.2c-0.2,2.1-2.1,3.5-4.2,3.3l0,0l0,0l-4.2-0.5l0,0
				c-2.1-0.2-3.5-2.1-3.3-4.2C705.9,335.5,707.8,334,709.9,334.3z"/>
			<path class="st2" d="M724.2,336.2l4.3,0.7c2.1,0.3,3.5,2.2,3.1,4.3c-0.3,2.1-2.2,3.5-4.3,3.1l0,0l0,0l-4.2-0.7l0,0
				c-2.1-0.3-3.5-2.3-3.1-4.3S722.2,335.9,724.2,336.2z"/>
			<path class="st2" d="M738.5,338.6l4.3,0.8c2,0.4,3.4,2.4,3,4.4c-0.4,2-2.4,3.4-4.4,3l0,0l0,0l-4.2-0.8l0,0c-2-0.4-3.4-2.4-3-4.4
				S736.4,338.2,738.5,338.6z"/>
			<path class="st2" d="M752.6,341.6l4.2,1c2,0.5,3.3,2.5,2.8,4.5c-0.5,2-2.5,3.3-4.5,2.8l0,0l0,0l-4.1-1l0,0
				c-2-0.5-3.3-2.5-2.8-4.5C748.6,342.4,750.6,341.1,752.6,341.6z"/>
			<path class="st2" d="M766.7,345l4.2,1.1c2,0.5,3.2,2.6,2.7,4.6c-0.5,2-2.6,3.2-4.6,2.7l0,0l0,0l-4.1-1.1l0,0
				c-2-0.5-3.2-2.6-2.7-4.6C762.6,345.7,764.7,344.5,766.7,345z"/>
			<path class="st2" d="M780.6,349l4.1,1.3c2,0.6,3.1,2.7,2.5,4.7c-0.6,2-2.7,3.1-4.7,2.5l0,0l0,0l-4.1-1.3l0,0
				c-2-0.6-3.1-2.7-2.5-4.7C776.5,349.5,778.6,348.4,780.6,349z"/>
			<path class="st2" d="M794.4,353.4l4.1,1.4c2,0.7,3,2.8,2.4,4.8c-0.7,2-2.8,3-4.8,2.4l0,0l0,0l-4-1.4l0,0c-2-0.7-3-2.9-2.4-4.8
				C790.2,353.8,792.4,352.7,794.4,353.4z"/>
			<path class="st2" d="M808,358.3l4,1.5c2,0.7,2.9,2.9,2.2,4.9c-0.7,2-2.9,2.9-4.9,2.2l0,0l-4-1.5l0,0c-2-0.7-3-2.9-2.2-4.9
				C803.8,358.5,806,357.5,808,358.3L808,358.3z"/>
			<path class="st2" d="M821.4,363.6l4,1.7c1.9,0.8,2.8,3,2,4.9c-0.8,1.9-3,2.8-4.9,2l0,0l-3.9-1.6l0,0c-1.9-0.8-2.8-3-2-4.9
				C817.3,363.7,819.5,362.8,821.4,363.6L821.4,363.6z"/>
			<path class="st2" d="M834.7,369.3l3.9,1.8c1.9,0.9,2.7,3.1,1.9,5s-3.1,2.7-5,1.9l0,0l-3.9-1.7l0,0c-1.9-0.9-2.7-3.1-1.9-5
				C830.6,369.3,832.8,368.4,834.7,369.3L834.7,369.3z"/>
			<path class="st2" d="M847.8,375.4l3.9,1.9c1.9,0.9,2.6,3.1,1.7,5c-0.9,1.9-3.1,2.6-5,1.7l0,0l-3.8-1.9l0,0
				c-1.9-0.9-2.6-3.1-1.7-5C843.7,375.2,845.9,374.4,847.8,375.4L847.8,375.4z"/>
			<path class="st2" d="M860.7,381.8l3.8,2c1.8,1,2.5,3.2,1.6,5c-1,1.8-3.2,2.5-5,1.6l0,0l-3.8-2l0,0c-1.8-0.9-2.5-3.2-1.6-5
				C856.6,381.6,858.9,380.9,860.7,381.8L860.7,381.8z"/>
			<path class="st2" d="M873.4,388.6l3.8,2.1c1.8,1,2.4,3.2,1.4,5c-1,1.8-3.2,2.4-5,1.4l0,0l-3.7-2.1l0,0c-1.8-1-2.4-3.2-1.4-5
				C869.4,388.3,871.6,387.6,873.4,388.6L873.4,388.6z"/>
			<path class="st2" d="M886,395.8l3.7,2.2c1.7,1,2.3,3.3,1.3,5c-1,1.7-3.3,2.3-5,1.3l0,0l-3.7-2.2l0,0c-1.8-1-2.3-3.3-1.3-5
				C882,395.3,884.2,394.7,886,395.8L886,395.8z"/>
			<path class="st2" d="M898.3,403.2l3.7,2.3c1.7,1.1,2.2,3.3,1.2,5c-1.1,1.7-3.3,2.2-5,1.2l0,0l-3.6-2.3l0,0
				c-1.7-1.1-2.2-3.3-1.2-5C894.3,402.7,896.6,402.1,898.3,403.2L898.3,403.2z"/>
			<path class="st2" d="M910.5,411l3.6,2.4c1.7,1.1,2.1,3.4,1,5c-1.1,1.7-3.4,2.1-5,1l0,0l-3.6-2.4l0,0c-1.7-1.1-2.1-3.4-1-5
				C906.5,410.3,908.8,409.9,910.5,411L910.5,411z"/>
			<path class="st2" d="M922.4,419.1l3.5,2.5c1.6,1.1,2,3.4,0.9,5c-1.1,1.6-3.4,2-5,0.9l0,0l-3.5-2.4l0,0c-1.6-1.1-2.1-3.4-0.9-5
				C918.5,418.3,920.8,417.9,922.4,419.1L922.4,419.1z"/>
			<path class="st2" d="M934.2,427.4l3.5,2.5c1.6,1.2,2,3.4,0.8,5c-1.2,1.6-3.4,2-5,0.8l0,0l-3.5-2.5l0,0c-1.6-1.2-2-3.4-0.8-5
				C930.3,426.6,932.6,426.2,934.2,427.4L934.2,427.4z"/>
			<path class="st2" d="M945.8,436l3.4,2.6c1.6,1.2,1.9,3.4,0.7,5c-1.2,1.6-3.4,1.9-5,0.7l0,0l-3.4-2.6l0,0c-1.6-1.2-1.9-3.4-0.7-5
				C941.9,435.1,944.2,434.8,945.8,436L945.8,436z"/>
			<path class="st2" d="M957.2,444.7l3.4,2.7c1.6,1.2,1.8,3.4,0.6,5c-1.2,1.6-3.4,1.8-5,0.6l0,0l-3.4-2.6l0,0
				c-1.6-1.2-1.8-3.4-0.6-5C953.4,443.8,955.6,443.5,957.2,444.7L957.2,444.7z"/>
			<path class="st2" d="M968.5,453.6l3.4,2.7c1.5,1.2,1.8,3.4,0.6,5c-1.2,1.5-3.4,1.8-5,0.6l0,0l-3.4-2.7l0,0
				c-1.5-1.2-1.8-3.4-0.6-5C964.7,452.6,966.9,452.3,968.5,453.6L968.5,453.6z"/>
			<path class="st2" d="M979.7,462.6l3.3,2.7c1.5,1.2,1.7,3.4,0.5,5c-1.2,1.5-3.4,1.7-4.9,0.5l-3.3-2.7c-1.5-1.2-1.8-3.4-0.5-5
				C975.9,461.6,978.1,461.3,979.7,462.6L979.7,462.6z"/>
			<path class="st2" d="M990.8,471.6l3.3,2.7c1.5,1.2,1.7,3.4,0.5,4.9c-1.2,1.5-3.4,1.7-4.9,0.5l-3.3-2.7c-1.5-1.2-1.7-3.4-0.5-4.9
				C987.1,470.6,989.3,470.4,990.8,471.6L990.8,471.6z"/>
			<path class="st2" d="M1001.9,480.7l3.3,2.7c1.5,1.2,1.7,3.4,0.5,4.9c-1.2,1.5-3.4,1.7-4.9,0.5l-3.3-2.7c-1.5-1.2-1.7-3.4-0.5-4.9
				C998.2,479.7,1000.4,479.5,1001.9,480.7L1001.9,480.7z"/>
			<path class="st2" d="M1013,489.8l3.3,2.7c1.5,1.2,1.7,3.4,0.5,4.9s-3.4,1.7-4.9,0.5l-3.3-2.7c-1.5-1.2-1.7-3.4-0.5-4.9
				C1009.3,488.8,1011.5,488.6,1013,489.8L1013,489.8z"/>
			<path class="st2" d="M1024.1,498.9l3.3,2.7c1.5,1.2,1.7,3.4,0.5,4.8c-1.2,1.5-3.4,1.7-4.8,0.5l-3.4-2.7c-1.5-1.2-1.7-3.4-0.5-4.8
				C1020.4,497.9,1022.6,497.7,1024.1,498.9L1024.1,498.9z"/>
			<path class="st2" d="M1035.2,507.9l3.4,2.7l0,0c1.5,1.2,1.7,3.3,0.5,4.8c-1.2,1.5-3.3,1.7-4.8,0.5l-3.4-2.7
				c-1.5-1.2-1.7-3.3-0.6-4.8S1033.7,506.7,1035.2,507.9L1035.2,507.9L1035.2,507.9z"/>
			<path class="st2" d="M1046.4,516.8l3.4,2.6l0,0c1.5,1.2,1.7,3.3,0.6,4.8c-1.2,1.5-3.3,1.8-4.8,0.6l-3.4-2.6
				c-1.5-1.2-1.8-3.3-0.6-4.8C1042.7,515.9,1044.9,515.6,1046.4,516.8L1046.4,516.8L1046.4,516.8z"/>
			<path class="st2" d="M1057.7,525.5l3.4,2.6l0,0c1.5,1.1,1.8,3.2,0.7,4.7s-3.2,1.8-4.7,0.7l-3.5-2.6c-1.5-1.1-1.8-3.3-0.7-4.7
				C1054.1,524.6,1056.2,524.3,1057.7,525.5L1057.7,525.5L1057.7,525.5z"/>
			<path class="st2" d="M1069.1,534l3.5,2.5l0,0c1.5,1.1,1.8,3.2,0.7,4.7c-1.1,1.5-3.2,1.8-4.7,0.7l-3.5-2.5
				c-1.5-1.1-1.8-3.2-0.7-4.7C1065.5,533.3,1067.6,532.9,1069.1,534L1069.1,534L1069.1,534z"/>
			<path class="st2" d="M1080.7,542.4l3.5,2.4l0,0c1.5,1.1,1.9,3.1,0.8,4.7c-1.1,1.5-3.1,1.9-4.6,0.8l-3.6-2.5
				c-1.5-1.1-1.9-3.1-0.8-4.7C1077.1,541.7,1079.2,541.3,1080.7,542.4L1080.7,542.4L1080.7,542.4z"/>
			<path class="st2" d="M1092.5,550.4l3.6,2.4l0,0c1.5,1,1.9,3.1,0.9,4.6c-1,1.5-3.1,2-4.6,0.9l-3.6-2.4c-1.5-1-2-3.1-0.9-4.6
				C1088.8,549.8,1090.9,549.4,1092.5,550.4L1092.5,550.4L1092.5,550.4z"/>
			<path class="st2" d="M1104.4,558.2l3.6,2.3l0,0c1.5,1,2,3,1,4.5c-1,1.5-3,2-4.5,1l-3.7-2.3c-1.5-1-2-3-1.1-4.5
				C1100.8,557.7,1102.8,557.2,1104.4,558.2L1104.4,558.2L1104.4,558.2z"/>
			<path class="st2" d="M1116.5,565.6l3.7,2.2l0,0c1.5,0.9,2.1,2.9,1.2,4.4c-0.9,1.5-2.9,2.1-4.4,1.2l-3.7-2.2
				c-1.6-0.9-2.1-2.9-1.2-4.4C1113,565.2,1114.9,564.7,1116.5,565.6L1116.5,565.6L1116.5,565.6z"/>
			<path class="st2" d="M1128.9,572.7l3.7,2l0,0c1.5,0.8,2.1,2.8,1.3,4.3c-0.8,1.5-2.8,2.1-4.3,1.3l-3.8-2c-1.6-0.8-2.1-2.8-1.3-4.3
				C1125.3,572.4,1127.3,571.8,1128.9,572.7L1128.9,572.7L1128.9,572.7z"/>
			<path class="st2" d="M1141.5,579.3l3.8,1.9l0,0c1.6,0.8,2.2,2.7,1.4,4.2c-0.8,1.5-2.6,2.2-4.2,1.4l-3.9-1.9
				c-1.6-0.8-2.2-2.7-1.4-4.2C1138,579.2,1139.9,578.5,1141.5,579.3L1141.5,579.3L1141.5,579.3z"/>
			<path class="st2" d="M1154.3,585.5l3.9,1.7l0,0c1.6,0.7,2.3,2.5,1.6,4.1c-0.7,1.6-2.5,2.3-4.1,1.6l-4-1.7
				c-1.6-0.7-2.3-2.5-1.6-4.1C1150.8,585.5,1152.7,584.8,1154.3,585.5L1154.3,585.5L1154.3,585.5z"/>
			<path class="st2" d="M1167.3,591.1l4,1.6l0,0c1.6,0.6,2.3,2.4,1.7,4c-0.6,1.6-2.4,2.3-3.9,1.7l-4-1.6c-1.6-0.6-2.4-2.4-1.7-4
				C1163.9,591.2,1165.7,590.4,1167.3,591.1L1167.3,591.1L1167.3,591.1z"/>
			<path class="st2" d="M1180.6,596.1l4,1.4l0,0c1.6,0.5,2.4,2.3,1.9,3.8c-0.5,1.6-2.2,2.4-3.8,1.9l-4.1-1.4
				c-1.6-0.5-2.4-2.2-1.9-3.8C1177.2,596.4,1179,595.5,1180.6,596.1L1180.6,596.1L1180.6,596.1z"/>
			<path class="st2" d="M1194.1,600.5l4.1,1.2l0,0c1.6,0.5,2.5,2.1,2,3.7c-0.5,1.6-2.1,2.5-3.7,2l-4.2-1.2c-1.6-0.4-2.5-2.1-2.1-3.7
				C1190.8,600.9,1192.4,600,1194.1,600.5L1194.1,600.5L1194.1,600.5z"/>
			<path class="st2" d="M1207.8,604.2l4.1,1l0.1,0c1.6,0.4,2.5,1.9,2.2,3.5c-0.4,1.6-1.9,2.5-3.5,2.2l-4.2-1
				c-1.6-0.4-2.6-1.9-2.2-3.5C1204.6,604.8,1206.1,603.8,1207.8,604.2L1207.8,604.2L1207.8,604.2z"/>
			<path class="st2" d="M1221.6,607.1l4.2,0.7l0.1,0c1.6,0.3,2.6,1.7,2.4,3.3c-0.3,1.6-1.7,2.6-3.3,2.4l-4.3-0.7
				c-1.6-0.3-2.6-1.7-2.4-3.3C1218.5,607.9,1220,606.8,1221.6,607.1L1221.6,607.1L1221.6,607.1z"/>
			<path class="st2" d="M1235.6,609.1l4.2,0.5l0.1,0c1.6,0.2,2.7,1.6,2.5,3.1c-0.2,1.5-1.6,2.7-3.1,2.5l-4.3-0.4
				c-1.6-0.2-2.7-1.6-2.5-3.1C1232.6,610.1,1234,609,1235.6,609.1L1235.6,609.1L1235.6,609.1z"/>
			<path class="st2" d="M1249.7,610.4l4.2,0.2l0.1,0c1.5,0.1,2.7,1.4,2.7,2.9c-0.1,1.5-1.4,2.7-2.9,2.7l-4.3-0.2
				c-1.5-0.1-2.7-1.4-2.7-2.9C1246.8,611.5,1248.1,610.3,1249.7,610.4L1249.7,610.4L1249.7,610.4z"/>
			<path class="st2" d="M1263.9,610.7l4.2-0.1l0.1,0c1.5,0,2.8,1.2,2.8,2.7c0,1.5-1.2,2.7-2.7,2.8l-4.4,0.1c-1.5,0-2.8-1.2-2.8-2.7
				C1261.1,612,1262.3,610.7,1263.9,610.7L1263.9,610.7L1263.9,610.7z"/>
			<path class="st2" d="M1278,610.1l4.2-0.4l0.1,0c1.5-0.1,2.8,1,2.9,2.5c0.1,1.5-1,2.8-2.4,2.9l-4.3,0.4c-1.5,0.1-2.8-1-2.9-2.4
				C1275.4,611.6,1276.5,610.2,1278,610.1L1278,610.1L1278,610.1z"/>
			<path class="st2" d="M1292.1,608.6l4.2-0.6l0.1,0c1.4-0.2,2.8,0.8,3,2.2c0.2,1.4-0.8,2.8-2.2,3l-4.3,0.7c-1.5,0.2-2.8-0.8-3-2.2
				C1289.6,610.2,1290.6,608.8,1292.1,608.6L1292.1,608.6L1292.1,608.6z"/>
			<path class="st2" d="M1306,606.1l4.1-1l0.1,0c1.4-0.3,2.8,0.6,3.1,2c0.3,1.4-0.5,2.8-1.9,3.1l-4.2,1c-1.4,0.3-2.8-0.5-3.1-1.9
				S1304.5,606.4,1306,606.1L1306,606.1L1306,606.1z"/>
			<path class="st2" d="M1319.7,602.5l4-1.3l0.1,0c1.3-0.4,2.8,0.3,3.2,1.7c0.4,1.3-0.3,2.8-1.7,3.2l-4.2,1.3
				c-1.4,0.4-2.8-0.3-3.2-1.7C1317.5,604.4,1318.3,603,1319.7,602.5L1319.7,602.5L1319.7,602.5z"/>
			<path class="st2" d="M1333,597.9l3.9-1.6l0.1,0c1.3-0.5,2.7,0.1,3.3,1.4c0.5,1.3-0.1,2.7-1.4,3.3l-4,1.7
				c-1.3,0.5-2.8-0.1-3.3-1.4C1331.1,600,1331.7,598.5,1333,597.9L1333,597.9L1333,597.9z"/>
			<path class="st2" d="M1346,592.2l3.8-1.9l0.1,0c1.2-0.6,2.7-0.1,3.3,1.1c0.6,1.2,0.1,2.6-1,3.3l-3.9,2c-1.2,0.6-2.7,0.2-3.3-1
				C1344.2,594.4,1344.7,592.9,1346,592.2L1346,592.2L1346,592.2z"/>
			<path class="st2" d="M1358.4,585.5l3.6-2.2l0.1,0c1.1-0.7,2.6-0.4,3.3,0.7c0.7,1.1,0.4,2.5-0.7,3.2l-3.7,2.4
				c-1.1,0.7-2.6,0.4-3.3-0.7C1356.8,587.7,1357.2,586.2,1358.4,585.5L1358.4,585.5L1358.4,585.5z"/>
			<path class="st2" d="M1370.1,577.6l3.3-2.6l0.1,0c1-0.8,2.4-0.6,3.2,0.4c0.8,1,0.6,2.4-0.4,3.2l-3.4,2.7c-1,0.8-2.5,0.6-3.2-0.4
				S1369,578.4,1370.1,577.6L1370.1,577.6L1370.1,577.6z"/>
			<path class="st2" d="M1380.9,568.6l3.1-2.9l0.1,0c0.9-0.8,2.3-0.8,3.1,0.1c0.8,0.9,0.8,2.3-0.1,3.1l-3.1,3.1
				c-0.9,0.9-2.3,0.8-3.2,0S1379.9,569.5,1380.9,568.6L1380.9,568.6L1380.9,568.6z"/>
			<path class="st2" d="M1390.7,558.5l2.7-3.2l0,0c0.8-0.9,2.1-1,3-0.2c0.9,0.8,1,2.1,0.3,3l-2.8,3.4c-0.8,0.9-2.1,1-3,0.3
				S1389.9,559.5,1390.7,558.5L1390.7,558.5L1390.7,558.5z"/>
			<path class="st2" d="M1399.5,547.4l2.4-3.5l0-0.1c0.6-0.9,1.9-1.2,2.9-0.5c0.9,0.6,1.2,1.9,0.5,2.8l-2.4,3.6
				c-0.6,1-1.9,1.2-2.9,0.6C1399.1,549.8,1398.8,548.5,1399.5,547.4L1399.5,547.4L1399.5,547.4z"/>
			<path class="st2" d="M1407.2,535.6l2.1-3.7l0-0.1c0.5-1,1.7-1.3,2.7-0.8c1,0.5,1.3,1.7,0.8,2.7l-2.1,3.8c-0.5,1-1.7,1.3-2.7,0.8
				C1407,537.8,1406.6,536.6,1407.2,535.6L1407.2,535.6L1407.2,535.6z"/>
			<path class="st2" d="M1413.6,523l1.7-3.9l0-0.1c0.4-1,1.5-1.4,2.5-1c1,0.4,1.4,1.5,1,2.5l-1.7,4c-0.4,1-1.5,1.4-2.5,1
				C1413.6,525.2,1413.2,524,1413.6,523L1413.6,523L1413.6,523z"/>
			<path class="st2" d="M1418.7,509.8l1.3-4l0-0.1c0.3-1,1.3-1.5,2.3-1.2c1,0.3,1.5,1.3,1.2,2.3l-1.3,4.2c-0.3,1-1.3,1.5-2.3,1.2
				S1418.4,510.9,1418.7,509.8L1418.7,509.8L1418.7,509.8z"/>
			<path class="st2" d="M1422.5,496.2l0.8-4.2l0-0.1c0.2-1,1.1-1.6,2.1-1.4c0.9,0.2,1.6,1.1,1.4,2.1l-0.8,4.3
				c-0.2,1-1.1,1.6-2.1,1.4C1422.9,498.2,1422.3,497.2,1422.5,496.2L1422.5,496.2L1422.5,496.2z"/>
			<path class="st2" d="M1424.8,482.2l0.4-4.2l0-0.1c0.1-0.9,0.9-1.6,1.8-1.5c0.9,0.1,1.6,0.9,1.5,1.8l-0.3,4.3
				c-0.1,0.9-0.9,1.6-1.8,1.6C1425.4,484.1,1424.7,483.2,1424.8,482.2L1424.8,482.2L1424.8,482.2z"/>
			<path class="st2" d="M1425.4,468.1l-0.1-4.2l0-0.1c0-0.9,0.7-1.6,1.6-1.7c0.9,0,1.6,0.7,1.7,1.5l0.2,4.4c0,0.9-0.7,1.7-1.6,1.7
				C1426.2,469.8,1425.4,469.1,1425.4,468.1L1425.4,468.1L1425.4,468.1z"/>
			<path class="st2" d="M1424.3,454l-0.7-4.2l0-0.1c-0.1-0.8,0.4-1.6,1.3-1.8c0.8-0.1,1.6,0.4,1.8,1.3l0.7,4.3
				c0.1,0.8-0.4,1.7-1.3,1.8C1425.3,455.5,1424.5,455,1424.3,454L1424.3,454L1424.3,454z"/>
			<path class="st2" d="M1421.4,440.2l-1.2-4.1l0-0.1c-0.2-0.8,0.2-1.6,1-1.8c0.8-0.2,1.6,0.2,1.8,1l1.3,4.2c0.2,0.8-0.2,1.6-1,1.9
				C1422.5,441.5,1421.7,441.1,1421.4,440.2L1421.4,440.2L1421.4,440.2z"/>
		</g>
		<g>
			<polygon class="st2" points="1417.8,393.4 1408.8,410.8 1400.9,397.2 			"/>
			<path class="st2" d="M1344.9,342.9l25.5,65.4c0.5,1.3,1.5,2.3,2.7,2.8c1.2,0.5,2.6,0.5,3.9,0l64.7-28.1c0.7-0.3,1.2-1.1,1.2-1.9
				c0-0.8-0.5-1.5-1.3-1.8L1344.9,342.9z"/>
			<polygon class="st2" points="1417.8,393.4 1344.9,342.9 1407.3,398 1405,402.9 			"/>
			<polygon class="st2" points="1401.1,400.6 1408.8,410.8 1407.3,398 			"/>
		</g>
	</g>
	<g>
		<g>
			
				<linearGradient id="SVGID_25_" gradientUnits="userSpaceOnUse" x1="11805.6787" y1="974.2684" x2="11836.8262" y2="974.2684" gradientTransform="matrix(-1 0 0 1 13373.4775 0)">
				<stop  offset="0" style="stop-color:#09005D"/>
				<stop  offset="1" style="stop-color:#1A0F91"/>
			</linearGradient>
			<path class="st35" d="M1563.5,963.3c0,0,3.5,5.5,4.3,20.7c0.1,1.4-1,2.6-2.5,2.6h-27.1c-1.1,0-1.9-1.1-1.5-2.1
				c1.6-4.7,6.4-16.1,17.1-22.7L1563.5,963.3z"/>
			
				<linearGradient id="SVGID_26_" gradientUnits="userSpaceOnUse" x1="11808.8379" y1="959.7946" x2="11821.4707" y2="959.7946" gradientTransform="matrix(-1 0 0 1 13373.4775 0)">
				<stop  offset="0" style="stop-color:#FF928E"/>
				<stop  offset="1" style="stop-color:#FEB3B1"/>
			</linearGradient>
			<path class="st36" d="M1564.6,952.9l-1.5,12.8c-0.1,1.1-1,2-2.1,2.1c-1.5,0.2-3.6,0.3-5.7-0.1c-1.9-0.3-3.3-2-3.3-3.9v-12.4
				L1564.6,952.9z"/>
			
				<linearGradient id="SVGID_27_" gradientUnits="userSpaceOnUse" x1="11871.917" y1="973.7703" x2="11920.7881" y2="973.7703" gradientTransform="matrix(-1 0 0 1 13373.4775 0)">
				<stop  offset="0" style="stop-color:#09005D"/>
				<stop  offset="1" style="stop-color:#1A0F91"/>
			</linearGradient>
			<path class="st37" d="M1496.5,961.9c0,0,5.2,8.1,5.1,19.1c0,2.6-2.2,4.7-4.8,4.7h-42c-2,0-2.8-2.5-1.2-3.7
				c8-5.6,23.6-16,34.9-20.1H1496.5z"/>
			
				<linearGradient id="SVGID_28_" gradientUnits="userSpaceOnUse" x1="11872.6592" y1="954.1854" x2="11885.2217" y2="954.1854" gradientTransform="matrix(-1 0 0 1 13373.4775 0)">
				<stop  offset="0" style="stop-color:#FF928E"/>
				<stop  offset="1" style="stop-color:#FEB3B1"/>
			</linearGradient>
			<path class="st38" d="M1500.8,948l-3.3,15.9c-0.4,1.8-2.1,3-3.9,2.6c-1.1-0.2-2.3-0.7-3.7-1.5c-1.3-0.8-1.9-2.3-1.7-3.8l3.4-19.2
				L1500.8,948z"/>
			<linearGradient id="SVGID_29_" gradientUnits="userSpaceOnUse" x1="1705.8965" y1="546.9896" x2="1628.412" y2="686.4619">
				<stop  offset="0" style="stop-color:#09005D"/>
				<stop  offset="1" style="stop-color:#1A0F91"/>
			</linearGradient>
			<path class="st39" d="M1558.6,727.6c0,0,11.4,10,13.5,22.1c2.1,12-6.1,207.8-6.1,207.8s-11.4,1.9-17.2-1.7
				c0,0-6.9-127-12.2-156.4c0,0-27.7,131.6-35.3,155.4c0,0-10.9,1.3-14.5-0.8c0,0,7.2-170.6,16.4-200.9L1558.6,727.6z"/>
			<linearGradient id="SVGID_30_" gradientUnits="userSpaceOnUse" x1="1710.1953" y1="695.2512" x2="1591.0687" y2="757.2358">
				<stop  offset="0" style="stop-color:#09005D"/>
				<stop  offset="1" style="stop-color:#1A0F91"/>
			</linearGradient>
			<path class="st40" d="M1537,795.1c-0.1,0-0.2,0-0.3,0c-0.6-0.1-0.9-0.7-0.8-1.3l4.8-18.5c0.1-0.3,0.2-0.5,0.5-0.6l10.4-6.7
				c0.5-0.3,1.2-0.2,1.5,0.3c0.3,0.5,0.2,1.2-0.3,1.5l-10.1,6.5l-4.7,18.1C1537.9,794.8,1537.5,795.1,1537,795.1z"/>
			<path class="st12" d="M1446.6,614.5c47.8-4,60.3,5.9,60.3,5.9l-23,36.3c0,0-47-0.9-80.6-26.9c6.3-6.8,10.7-14.3,13.5-20.1
				C1425.4,613.3,1435.4,615.4,1446.6,614.5z"/>
			
				<linearGradient id="SVGID_31_" gradientUnits="userSpaceOnUse" x1="11956.7119" y1="586.3347" x2="12003.4014" y2="586.3347" gradientTransform="matrix(-1 0 0 1 13373.4775 0)">
				<stop  offset="0" style="stop-color:#FF928E"/>
				<stop  offset="1" style="stop-color:#FEB3B1"/>
			</linearGradient>
			<path class="st41" d="M1371.7,544.3c0.1-1.5,2.1-1.9,2.8-0.6l6.1,13c1.2,2.5,1.6,5.3,1.1,8.1l-2.1,7.6c-0.6,3.7,0.3,7.5,2.7,10.4
				c5.6,7,17.5,19.8,34.5,26.9c-2.8,5.8-7.2,13.3-13.5,20.1c-12.3-9.5-22.9-22.4-28.7-39.8c-2.8-0.9-4.6-3.5-4.5-6.4L1371.7,544.3z"
				/>
			<path class="st12" d="M1430.9,635.5c16.8-18.1,48.9-26.3,67.4-29.7c8.1-1.5,16.1,3,19,10.8c8.4,22.4,31.1,80.9,35.5,90.9
				c3.6,8.2,7.4,16.3,9.8,21.3c1.4,3,0.2,6.6-2.8,8c-15.6,7.5-43.7,16-55.1,19.4c-2.5,0.7-5-1.2-5-3.8c0-2.2-0.6-4.4-1.7-6.3
				l-43.1-71.9c-26.9,29.8-50.4,32.5-68.5,26c3-9.4,5-18.8,6-28.3C1419,667.5,1430.9,635.5,1430.9,635.5z"/>
			
				<linearGradient id="SVGID_32_" gradientUnits="userSpaceOnUse" x1="12062.4316" y1="596.5139" x2="11961.5498" y2="722.0208" gradientTransform="matrix(-1 0 0 1 13373.4775 0)">
				<stop  offset="0" style="stop-color:#FF928E"/>
				<stop  offset="1" style="stop-color:#FEB3B1"/>
			</linearGradient>
			<path class="st42" d="M1348.1,667l4.8-6.4c15.6,10.7,28.7,13.3,39.3,11.4c-1,9.4-2.9,18.9-6,28.3
				C1362.4,691.7,1348.1,667,1348.1,667z"/>
			
				<linearGradient id="SVGID_33_" gradientUnits="userSpaceOnUse" x1="12081.5586" y1="611.8878" x2="11980.6758" y2="737.3948" gradientTransform="matrix(-1 0 0 1 13373.4775 0)">
				<stop  offset="0" style="stop-color:#FF928E"/>
				<stop  offset="1" style="stop-color:#FEB3B1"/>
			</linearGradient>
			<path class="st43" d="M1351.5,667.1l-27.2,1.1l-25-14c3.6-2.3,23.9,2.3,23.9,2.3s21.2-3.2,27-3.2c4.8,0,4.1,6.9,3.7,9.2
				c-0.1,0.5-0.1,0.8-0.1,0.8L1351.5,667.1z"/>
			
				<linearGradient id="SVGID_34_" gradientUnits="userSpaceOnUse" x1="11948.9385" y1="520.6636" x2="11851.2334" y2="700.1869" gradientTransform="matrix(-1 0 0 1 13373.4775 0)">
				<stop  offset="0" style="stop-color:#FF928E"/>
				<stop  offset="1" style="stop-color:#FEB3B1"/>
			</linearGradient>
			<path class="st44" d="M1472.8,572.5l14.3,35c0,0-16.5,11.4-29.7,10.3l-7.2-31.5L1472.8,572.5z"/>
			<g>
				
					<linearGradient id="SVGID_35_" gradientUnits="userSpaceOnUse" x1="9324.2314" y1="9934.2842" x2="9281.0508" y2="9991.4072" gradientTransform="matrix(-0.817 -0.5767 -0.5767 0.817 14802.3301 -2185.2871)">
					<stop  offset="0" style="stop-color:#FF928E"/>
					<stop  offset="1" style="stop-color:#FEB3B1"/>
				</linearGradient>
				<path class="st45" d="M1448.6,548.6c-0.3,0.5-10.4,36.7-10.4,36.7l20.8,5.3l14.6-33C1473.6,557.7,1454,540.9,1448.6,548.6z"/>
				
					<linearGradient id="SVGID_36_" gradientUnits="userSpaceOnUse" x1="-4916.0063" y1="549.4357" x2="-4863.5181" y2="646.9136" gradientTransform="matrix(1 0 0 1 6362.0801 0)">
					<stop  offset="0" style="stop-color:#09005D"/>
					<stop  offset="1" style="stop-color:#1A0F91"/>
				</linearGradient>
				<path class="st46" d="M1465.8,562.7l-6.3,18c-0.1,0.2-0.2,0.4-0.3,0.6c-0.9,1.2-4.1,5.2-8,1.6c-3.5-3.3-6.8-6.2-9.8-6.7
					c-1.4-0.2-2.7,0.6-3,1.9c-0.9,3.3-2.8,10.8-3.5,17.5c-0.1,1.4,0.8,2.6,2.2,2.9c4.1,0.8,12.7,2.2,19.9,1.7c1-0.1,1.8-0.7,2.2-1.5
					c2-4.3,8.1-17.5,10.3-20.9c2.1-3.2,7.3-3.1,9.5-2.9c0.7,0.1,1.4-0.2,2-0.6c1.9-1.7,5.5-5.9,0.4-11.1c-1.1-1.1-1-2.8,0.1-3.8
					c2.2-2.1,4.5-5.7,0.9-10.3c-3.7-4.6-8.6-3.9-11.6-2.8c-1.2,0.4-2.5-0.1-3.2-1.2c-0.4-0.6-1-1.1-2.2-1c-1.5,0.1-2.8-1.1-2.8-2.7
					c0.1-3-1-6.7-6.1-8.3c-9.1-2.8-14.8,6-15.3,12.5c-0.6,6.6,9.5,9.1,15.4,8.6c4.5-0.3,7.8,4.1,9.2,6.3
					C1466,561.1,1466.1,562,1465.8,562.7z"/>
				
					<linearGradient id="SVGID_37_" gradientUnits="userSpaceOnUse" x1="9260.9893" y1="9979.5205" x2="9295.623" y2="9943.9873" gradientTransform="matrix(-0.817 -0.5767 -0.5767 0.817 14802.3301 -2185.2871)">
					<stop  offset="0" style="stop-color:#FF928E"/>
					<stop  offset="1" style="stop-color:#FEB3B1"/>
				</linearGradient>
				<path class="st47" d="M1467.1,584.2c0,0,1.5-11.4,6.2-11.9c4.7-0.6,9.4,3.3,4.6,9.7C1472,590,1467.1,584.2,1467.1,584.2z"/>
			</g>
		</g>
	</g>
	<g>
		<linearGradient id="SVGID_38_" gradientUnits="userSpaceOnUse" x1="1181.6594" y1="542.4427" x2="1420.6748" y2="542.4427">
			<stop  offset="0" style="stop-color:#E1473D"/>
			<stop  offset="1" style="stop-color:#E9605A"/>
		</linearGradient>
		<circle class="st48" cx="1301.2" cy="542.4" r="119.5"/>
		
			<ellipse transform="matrix(0.7071 -0.7071 0.7071 0.7071 -2.4619 1078.942)" class="st12" cx="1301.2" cy="542.4" rx="115.5" ry="115.5"/>
		<linearGradient id="SVGID_39_" gradientUnits="userSpaceOnUse" x1="1132.1229" y1="252.1983" x2="1149.556" y2="328.7106">
			<stop  offset="0" style="stop-color:#FF928E"/>
			<stop  offset="1" style="stop-color:#FEB3B1"/>
		</linearGradient>
		<path class="st49" d="M1194.7,538C1194.6,538,1194.6,538,1194.7,538c-0.7,0-1.3-0.6-1.2-1.3c0.2-4.5,0.8-9.1,1.6-13.5
			c0.1-0.7,0.7-1.1,1.4-1c0.7,0.1,1.1,0.8,1,1.4c-0.8,4.4-1.3,8.8-1.5,13.2C1195.8,537.5,1195.3,538,1194.7,538z"/>
		<linearGradient id="SVGID_40_" gradientUnits="userSpaceOnUse" x1="1210.3798" y1="234.3677" x2="1227.8129" y2="310.8798">
			<stop  offset="0" style="stop-color:#FF928E"/>
			<stop  offset="1" style="stop-color:#FEB3B1"/>
		</linearGradient>
		<path class="st50" d="M1205.9,495.7c-0.2,0-0.4,0-0.5-0.1c-0.6-0.3-0.8-1-0.5-1.6c18.5-36.6,55.4-59.3,96.4-59.3
			c6.5,0,13.1,0.6,19.5,1.8c0.7,0.1,1.1,0.8,1,1.4c-0.1,0.7-0.8,1.1-1.4,1c-6.2-1.1-12.6-1.7-19-1.7c-40,0-76.1,22.2-94.2,58
			C1206.8,495.4,1206.3,495.7,1205.9,495.7z"/>
		<linearGradient id="SVGID_41_" gradientUnits="userSpaceOnUse" x1="1205.8992" y1="544.96" x2="1401.4697" y2="544.96">
			<stop  offset="0" style="stop-color:#DAE3FE"/>
			<stop  offset="1" style="stop-color:#E9EFFD"/>
		</linearGradient>
		<circle class="st51" cx="1303.7" cy="545" r="97.8"/>
		<g>
			<g>
				<path class="st12" d="M1270.2,597.8c-0.5,0-1.1,0-1.6-0.1c-4.1-0.5-7.8-2.6-10.1-6L1234,557c-4.6-6.5-3-15.4,3.4-20
					c6.5-4.6,15.4-3,20,3.4l15.2,21.6l74.5-67.4c5.9-5.3,14.9-4.9,20.2,1c5.3,5.9,4.9,14.9-1,20.2l-86.5,78.3
					C1277.2,596.5,1273.8,597.8,1270.2,597.8z"/>
			</g>
		</g>
	</g>
</g>
</svg>
