<?xml version="1.0" encoding="UTF-8"?><svg id="Capa_2" xmlns="http://www.w3.org/2000/svg" viewBox="0 0 790.14 459.07"><defs><style>.cls-1{opacity:.7;}.cls-2{fill:#fff;}.cls-3{fill:#f6fbff;}.cls-4{fill:#f5f5f5;}.cls-5{fill:#ffdb53;}.cls-6{fill:#245189;}.cls-7{fill:#a8ccff;}.cls-8{fill:#e8f2fa;}.cls-9{fill:#fcbd11;}.cls-10{fill:#7c4235;}.cls-11{fill:#ffcc01;}.cls-12{fill:#97c0f8;}.cls-13{fill:#2d3554;}.cls-14{fill:#e1e1e1;}.cls-15{fill:#f7931e;}.cls-16{fill:#cce2fd;}.cls-17{opacity:.4;}.cls-18{opacity:.3;}.cls-19{fill:#00a0e4;}.cls-20{fill:#ffc19d;}.cls-21{fill:#ff9c6a;}.cls-22{fill:#375a64;}.cls-23{fill:#dceafb;}.cls-24{fill:#ebf5ff;}.cls-25{fill:#6ca3ea;}.cls-26{fill:#ececec;}.cls-27{fill:#1a2e35;}</style></defs><g id="Capa_1-2"><path class="cls-8" d="M779.21,396.66c0,.24,0,.49,0,.73-.01,.52-.02,1.03-.04,1.54-.23,6.31-1.26,12.51-3.36,18.62-.09,.27-.19,.54-.28,.8-3.89,10.85-11.15,21.44-23.17,31.94-2.43,2.13-5.06,4.24-7.9,6.36-.66,.5-1.34,.99-2.02,1.48h-20.39l-417.81-.14h-30.06l-236.51-.09s-.17-.43-.48-1.26c-1.76-4.76-8.17-22.66-14.28-47.6-6.29-25.71-11.92-66.61-12.1-109.38,0-1.48,0-2.97,0-4.45,.25-50.67,8.33-103.31,32.14-135.99,.28-.39,.56-.77,.85-1.15,.41-.55,.83-1.1,1.24-1.64,.19-.24,.37-.48,.56-.72,65.75-85.03,170.78-84.9,221.61-79.5,4.98,.53,9.44,1.11,13.29,1.66,2.32,.33,4.42,.66,6.27,.96,72.63,11.71,105.42-24.8,105.42-24.8C443.4,6.89,491.83-4.62,558.84,1.52c8.41,.76,16.76,1.91,25.01,3.42,32.62,5.94,63.64,17.52,90.27,34,2.89,1.78,5.72,3.62,8.5,5.53,1,.68,1.99,1.37,2.98,2.07,3.53,2.5,6.97,5.1,10.3,7.78,18.93,15.24,34.6,33.44,45.61,54.22,8.55,16.15,14.29,33.86,16.54,52.97,.46,3.86,.77,7.77,.94,11.74h0c.22,5.2,.19,10.5-.11,15.88-.6,10.8-2.26,21.96-5.08,33.47h0c-.22,.91-.43,1.81-.63,2.7-3.45,15.23-4.21,29.63-3.3,43.34,3.39,50.36,29.58,91.14,29.36,128.04Z"/><g><path class="cls-23" d="M683.08,194.47h-16.76v-37.07c-.26-.15-.52-.29-.78-.44h-5v-.02h-29.06v.02h-.02v5.56h.02v3.82h-.02v5.56h.02v3.84h-.02v5.56h.02v.02l-3.08-.02v-29.07h-32.61v3.68h-.02v5.56h.02v4.88h-.02v5.56h.02v3.84h-.02v5.56h.02v3.55h-.02v5.56h.02v3.55h-.02v5.56h.02v3.34h-.02v3.53h.02v.38h-36.76v31.8h-13.73v8.01h-14.81v-13.8h-26.64v-37.48h-4.17v-3.73h-.6v3.73h-20.73v-3.73h-.6v3.73h-4.5v18.85l-22.37-.1v11.63h-18.97v-71.92h-56.2v77.05h-17.16v-41.66h-56.2V458.67l384.06-1.45-3.33-262.75Z"/><polygon class="cls-23" points="302.4 238.2 302.4 263.47 302.4 301.05 302.4 456.83 274.17 456.83 274.17 301.05 274.17 263.47 274.17 238.2 302.4 238.2"/><rect class="cls-23" x="565.88" y="191.92" width="1.04" height="15.11"/><rect class="cls-23" x="583.33" y="178.94" width="1.61" height="29.25"/><rect class="cls-23" x="379.45" y="148.35" width=".67" height="5.39"/><rect class="cls-23" x="393.68" y="148.35" width=".67" height="5.39"/><rect class="cls-23" x="426.29" y="148.35" width=".67" height="5.39"/><rect class="cls-23" x="599.03" y="148.05" width=".52" height="4.16"/><rect class="cls-23" x="623.52" y="148.05" width=".52" height="4.16"/><rect class="cls-23" x="413.54" y="148.35" width=".67" height="5.39"/><rect class="cls-24" x="310.52" y="201.41" width="6.62" height="11.22"/><rect class="cls-24" x="490.69" y="204.15" width="6.62" height="11.22"/><rect class="cls-24" x="384.88" y="162.74" width="6.62" height="11.22"/><rect class="cls-24" x="398.02" y="162.74" width="6.62" height="11.22"/><rect class="cls-24" x="650.11" y="249.64" width="6.62" height="11.22"/><rect class="cls-24" x="313.83" y="255.69" width="6.62" height="11.22"/></g><g><path class="cls-23" d="M749.86,268.62c-.92-13.7-.15-28.1,3.29-43.34,.2-.89,.41-1.79,.63-2.69h0c2.83-11.51,4.49-22.68,5.08-33.48h-36.83V458.14h20.39c.68-.49,1.36-.98,2.02-1.48,2.83-2.12,5.46-4.23,7.9-6.36,12.03-10.5,19.29-21.09,23.17-31.94,.1-.27,.19-.53,.28-.8,2.1-6.12,3.13-12.32,3.36-18.62,.02-.51,.03-1.02,.04-1.54,0-.24,0-.49,0-.73,.23-36.9-25.97-77.68-29.36-128.04Z"/><polygon class="cls-23" points="722.09 238.2 722.09 263.47 722.09 301.05 722.09 456.83 695.97 456.83 695.97 301.05 695.97 263.47 695.97 238.2 722.09 238.2"/><rect class="cls-24" x="729.6" y="201.41" width="6.13" height="11.22"/><path class="cls-24" d="M753.79,222.59h0c-.22,.91-.43,1.81-.63,2.7v-2.7h.64Z"/><rect class="cls-24" x="732.67" y="255.69" width="6.13" height="11.22"/></g><g><path class="cls-23" d="M271.43,199.98h-14.08v-37.07c-.21-.15-.43-.3-.64-.44h-4.2v-.02h-24.41v.02h-.02v5.56h.02v3.82h-.02v5.56h.02v3.83h-.02v5.56h.02v.02l-2.59-.02v-29.07h-27.39v3.68h-.01v5.56h.01v4.88h-.01v5.56h.01v3.83h-.01v5.56h.01v3.54h-.01v5.56h.01v3.54h-.01v5.56h.01v3.35h-.01v3.53h.01v.39h-30.87v31.8h-11.53v8.01h-12.43v-13.8h-22.38v-37.49h-3.5v-3.73h-.5v3.73h-17.41v-3.73h-.5v3.73h-3.78v18.85l-18.79-.1v11.63h-15.93v-71.92h-17.52c-23.81,32.67-31.89,85.32-32.14,135.99,0,1.48,0,2.97,0,4.45,.18,42.77,5.8,83.67,12.1,109.38,6.1,24.94,12.51,42.84,14.28,47.6,.31,.83,.48,1.26,.48,1.26l236.51,.09h0l-2.74-258.03Z"/><rect class="cls-23" x="173" y="197.43" width=".87" height="15.11"/><rect class="cls-23" x="187.65" y="184.46" width="1.35" height="29.25"/><rect class="cls-23" x="55.76" y="153.86" width=".56" height="5.39"/><rect class="cls-23" x="200.84" y="153.57" width=".44" height="4.16"/><rect class="cls-23" x="221.4" y="153.57" width=".43" height="4.16"/><path class="cls-23" d="M45.61,155.74v3.51h-.56v-2.79c.19-.24,.37-.48,.56-.72Z"/><rect class="cls-24" x="45.05" y="166.04" width="5.56" height="11.22"/><rect class="cls-24" x="62.79" y="257.18" width="5.56" height="11.22"/><rect class="cls-24" x="93.77" y="290.02" width="5.56" height="11.22"/><rect class="cls-24" x="26.15" y="235.7" width="5.56" height="11.22"/><rect class="cls-24" x="203.66" y="163.24" width="5.56" height="11.22"/><rect class="cls-24" x="181.29" y="257.18" width="5.56" height="11.22"/><rect class="cls-24" x="226.68" y="278.81" width="5.56" height="11.22"/></g><path class="cls-16" d="M280.51,77.91V457.63h-13.29V76.24c4.98,.53,9.44,1.11,13.29,1.66Z"/><path class="cls-16" d="M695.9,54.31V457.63h-13.28V44.46c1,.68,1.99,1.37,2.98,2.07,3.53,2.5,6.97,5.1,10.3,7.78Z"/><path class="cls-3" d="M442.12,55.28s6.23-10.47,21.12-9.31c0,0,21.62-17.45,44.68-2.33,0,0,24.51-3.75,42.66,3.24,12.1,4.66,16.1,9.55,16.1,9.55l-124.55-1.16Z"/><path class="cls-3" d="M534.76,84.01s3.62-6.38,12.27-5.67c0,0,12.56-10.64,25.95-1.42,0,0,14.23-2.28,24.78,1.98,7.03,2.84,9.35,5.82,9.35,5.82l-72.34-.71Z"/><path class="cls-3" d="M303.92,130.27s4.89-8.62,16.57-7.66c0,0,16.96-14.37,35.05-1.92,0,0,19.23-3.09,33.47,2.67,9.49,3.84,12.63,7.87,12.63,7.87l-97.72-.96Z"/><g class="cls-1"><g><path class="cls-25" d="M505.97,400.95s-9.92-11.57-.61-18.92c0,0,6.8-4.12,12.34-3.78,0,0-7.85,13.17-5.31,14.48,2.54,1.31,7.69-15.31,7.69-15.31,0,0,15.47-1.5,20.45,.89,0,0-13.22,10.82-10.44,11.47,2.79,.64,17.07-9.98,17.07-9.98,0,0,14.4,2.45,13.63,11.23-.77,8.78-5.73,11.49-7.91,11.26-2.18-.23-14.93-5.1-15.21-3.32-.28,1.79,7.4,7.63,12.78,7.9,0,0-10.15,11.19-16.9,7.96-6.75-3.23-7.32-8.35-11.53-10.27-4.21-1.92-7.8-1.92-6.06,.04,1.74,1.96,9.35,3.86,11.75,8.12,2.4,4.25,4.56,7.12-2.42,6.07-6.98-1.05-18.32-6.16-18.82-12.01l-.5-5.85Z"/><g><path class="cls-25" d="M553.71,391.28s-39.1-1.51-47.74,9.68c0,0-1.91,5.72-7.79,10.93l-.92,2.5s6.78-7.14,9.2-7.58c0,0-3.79-13.86,47.24-15.52Z"/><path class="cls-25" d="M498.19,411.88s-8.39,6.21-8.98,17.3l1.52,.14s2.68-11.47,7.53-15.95c4.85-4.48-.07-1.48-.07-1.48Z"/></g></g><g><path class="cls-25" d="M475.39,391.48s13.91-7.79,7.42-18.36c0,0-5.19-6.49-10.76-8.16,0,0,2.97,15.76,0,16.13-2.97,.37-2.04-17.8-2.04-17.8,0,0-14.65-7.05-20.4-6.49,0,0,9.09,15.39,6.12,15.02-2.97-.37-13.17-15.95-13.17-15.95,0,0-15.02-2.78-17.43,6.12-2.41,8.9,1.48,13.35,3.71,13.91,2.23,.56,16.5,.37,16.13,2.23-.37,1.85-10.01,4.82-15.39,3.15,0,0,5.93,14.65,13.72,13.91,7.79-.74,10.2-5.56,15.02-5.93,4.82-.37,8.34,.93,5.93,2.23-2.41,1.3-10.57,.43-14.46,3.74-3.89,3.31-7.05,5.35,.19,6.83,7.23,1.48,20.21,.56,22.81-5.01l2.6-5.56Z"/><g><path class="cls-25" d="M432,364.78s38.94,12.61,43.39,26.7c0,0-.19,6.3,3.71,13.54v2.78s-4.08-9.46-6.3-10.76c0,0,8.72-12.24-40.8-32.27Z"/><path class="cls-25" d="M479.1,405.02s6.01,9.12,2.58,20.22l-1.54-.42s1.5-12.23-1.64-18.38c-3.14-6.15,.61-1.43,.61-1.43Z"/></g></g><g><path class="cls-12" d="M496.4,374.22s-20.8-11.65-11.09-27.45c0,0,7.76-9.7,16.08-12.2,0,0-4.44,23.57,0,24.12,4.44,.55,3.05-26.62,3.05-26.62,0,0,21.91-10.54,30.5-9.71,0,0-13.59,23.01-9.15,22.46,4.44-.55,19.69-23.85,19.69-23.85,0,0,22.46-4.16,26.06,9.15,3.6,13.31-2.22,19.96-5.55,20.8-3.33,.83-24.68,.55-24.12,3.33,.55,2.77,14.97,7.21,23.01,4.71,0,0-8.87,21.91-20.52,20.8-11.65-1.11-15.25-8.32-22.46-8.87-7.21-.55-12.48,1.39-8.87,3.33,3.6,1.94,15.81,.64,21.63,5.59,5.82,4.95,10.54,8-.28,10.22-10.81,2.22-30.22,.83-34.11-7.49l-3.88-8.32Z"/><g><path class="cls-12" d="M561.28,334.29s-58.23,18.86-64.89,39.93c0,0,.28,9.43-5.55,20.24v4.16s6.1-14.14,9.43-16.08c0,0-13.03-18.3,61-48.25Z"/><path class="cls-12" d="M490.85,394.46s-8.98,13.64-3.86,30.24l2.31-.62s-2.24-18.28,2.46-27.48c4.7-9.2-.91-2.14-.91-2.14Z"/></g></g><path class="cls-12" d="M496.9,456.97c19.83,0,35.91-16.08,35.91-35.91h-71.82c0,19.83,16.08,35.91,35.91,35.91Z"/><path class="cls-7" d="M505.74,456.7c-1.46,.18-2.95,.27-4.46,.27-19.83,0-35.91-16.08-35.91-35.91h8.92c0,18.32,13.72,33.44,31.45,35.64Z"/><rect class="cls-25" x="459.81" y="421.06" width="73.82" height="1.1"/><path class="cls-25" d="M481.56,456.97h33.62c0-1.59-1.29-2.88-2.88-2.88h-27.86c-1.59,0-2.88,1.29-2.88,2.88h0Z"/></g><rect class="cls-13" x="0" y="456.66" width="790.14" height="2.41" rx=".94" ry=".94"/><path class="cls-27" d="M718.45,454.26c0,.22-152.79,.4-341.22,.4s-341.25-.18-341.25-.4,152.75-.4,341.25-.4,341.22,.18,341.22,.4Z"/><g><path class="cls-26" d="M22.6,360.54s-5.46,2.21,.84,13.81c6.3,11.6,10.61,17.31,10.61,17.31,0,0,1.13,2.7-1.15,3.18-2.29,.48-7.37-.19-8.32,2.65-.99,2.94,1.2,5.64,5.56,7.94,4.36,2.3,13.72,7.69,14.56,8.18,.83,.48,1.68,1.73,.18,2.31-1.5,.58-12.85,2.06-11.83,7.4,1.03,5.34,14.21,9.76,15.65,10.27,1.43,.51,1.79,1.1,1.69,1.88-.1,.78-3.96,.92-7.17,1.47-3.21,.55-6.84,1.76-5.98,4.79,.85,3.03,8.76,9.25,27.6,10.6l8.77,.06,4.58-7.53c8.81-16.71,7.72-26.7,5.6-29.03-2.12-2.33-5.06,.11-7.23,2.55-2.17,2.43-4.33,5.63-5.04,5.3-.71-.33-1.03-.95-.7-2.43,.32-1.49,3.55-15.02-.44-18.71-3.99-3.7-11.25,5.15-12.54,6.12-1.29,.97-1.9-.41-1.87-1.37,.03-.98,.4-11.77,.75-16.69,.35-4.91-.78-8.2-3.8-8.92-2.91-.69-5.02,3.97-6.64,5.66-1.62,1.68-3.31-.71-3.31-.71,0,0-2.57-6.68-9.08-18.16-6.51-11.48-11.38-7.91-11.38-7.91"/><path class="cls-14" d="M74.11,454.46c-4.75-8.45-12.94-23.62-20.04-36.6-7.1-12.98-13.53-24.72-18.24-33.2-2.35-4.23-4.26-7.65-5.58-10.03-.65-1.18-1.16-2.09-1.52-2.73-.17-.31-.3-.54-.39-.71-.09-.16-.12-.25-.12-.25,0,0,.05,.08,.15,.23,.1,.17,.24,.4,.41,.7,.36,.63,.89,1.54,1.56,2.7,1.35,2.35,3.29,5.76,5.66,9.99,4.75,8.45,11.21,20.18,18.31,33.16,7.1,12.98,15.26,28.16,19.96,36.64"/><path class="cls-14" d="M31.64,398.72s.22,.04,.62,.15c.39,.11,.95,.3,1.64,.53,1.38,.47,3.27,1.16,5.34,1.96,2.04,.8,3.89,1.52,5.3,2.07,.64,.24,1.18,.45,1.61,.62,.38,.14,.59,.23,.58,.25,0,.02-.22-.04-.62-.15-.39-.12-.95-.3-1.64-.54-1.38-.48-3.26-1.2-5.33-2-2.05-.78-3.9-1.49-5.31-2.03-.64-.24-1.18-.45-1.61-.61-.38-.15-.59-.24-.58-.25Z"/><path class="cls-14" d="M47.32,403.73c-.07-.02,1.19-3.99,2.81-8.85,1.62-4.86,2.99-8.78,3.06-8.76,.07,.02-1.18,3.98-2.81,8.85-1.62,4.86-2.99,8.78-3.06,8.76Z"/><path class="cls-14" d="M57.32,424.16s.11-.21,.34-.55c.27-.39,.6-.87,1-1.45,.84-1.22,2-2.92,3.21-4.83,1.21-1.91,2.25-3.68,2.99-4.97,.35-.61,.64-1.12,.88-1.52,.21-.36,.33-.55,.35-.54,.02,0-.08,.22-.26,.59-.18,.37-.45,.91-.8,1.57-.7,1.31-1.71,3.1-2.93,5.02-1.21,1.92-2.4,3.6-3.28,4.8-.45,.6-.81,1.08-1.07,1.4-.26,.32-.41,.5-.43,.49Z"/><path class="cls-14" d="M42.14,422.75s.21-.02,.6,0c.44,.02,.98,.05,1.63,.09,1.37,.09,3.26,.22,5.35,.39,2.09,.17,3.98,.33,5.35,.47,.64,.07,1.18,.13,1.62,.17,.38,.05,.59,.08,.59,.1,0,.02-.21,.02-.6,0-.44-.02-.98-.05-1.63-.09-1.37-.09-3.26-.22-5.35-.39-2.09-.17-3.98-.33-5.35-.47-.64-.07-1.18-.13-1.62-.17-.38-.05-.59-.08-.59-.1Z"/><path class="cls-14" d="M48.68,441.9s.27-.02,.77,0c.54,.03,1.24,.06,2.08,.1,1.76,.1,4.19,.25,6.87,.44,2.68,.19,5.11,.37,6.86,.52,.84,.08,1.54,.14,2.08,.19,.49,.05,.76,.09,.76,.11,0,.02-.27,.02-.77,0-.54-.03-1.24-.06-2.08-.1-1.76-.1-4.19-.25-6.87-.44-2.68-.19-5.11-.37-6.86-.52-.84-.08-1.54-.14-2.08-.19-.49-.05-.76-.09-.76-.11Z"/><path class="cls-14" d="M67.64,443.11s.13-.26,.42-.71c.31-.49,.72-1.12,1.2-1.88,1.01-1.59,2.41-3.79,3.88-6.26,1.47-2.47,2.75-4.74,3.66-6.39,.44-.79,.8-1.45,1.08-1.95,.26-.46,.41-.71,.42-.7,.02,0-.1,.28-.33,.75-.23,.48-.57,1.16-1,2-.87,1.68-2.12,3.97-3.59,6.44-1.47,2.48-2.89,4.66-3.95,6.23-.53,.78-.97,1.41-1.28,1.83-.31,.43-.49,.66-.5,.65Z"/></g><g><g><g><rect class="cls-2" x="680.36" y="230.52" width="58.95" height="53.66" rx="6.19" ry="6.19"/><path class="cls-14" d="M686.43,230.52h47.29c3.09,0,5.59,2.51,5.59,5.59v3.54h-58.95v-3.06c0-3.35,2.72-6.07,6.07-6.07Z"/></g><g><path class="cls-2" d="M688.85,235.98c0,.75-.65,1.36-1.44,1.36s-1.44-.61-1.44-1.36,.65-1.36,1.44-1.36,1.44,.61,1.44,1.36Z"/><path class="cls-2" d="M692.79,235.98c0,.75-.65,1.36-1.44,1.36s-1.44-.61-1.44-1.36,.65-1.36,1.44-1.36,1.44,.61,1.44,1.36Z"/><path class="cls-2" d="M696.73,235.98c0,.75-.65,1.36-1.44,1.36s-1.44-.61-1.44-1.36,.65-1.36,1.44-1.36,1.44,.61,1.44,1.36Z"/></g><path class="cls-14" d="M733.12,284.19c-.01-.06,.78,.06,2.11-.44,.66-.25,1.44-.68,2.18-1.41,.72-.73,1.39-1.77,1.66-3.08,.14-.66,.13-1.36,.12-2.12,0-.75,0-1.54-.01-2.37,0-1.65-.01-3.45-.02-5.37-.01-3.86-.03-8.25-.04-13.1-.01-4.86-.02-10.17-.03-15.88-.02-1.42,.03-2.9-.04-4.33-.15-1.41-.83-2.78-1.92-3.76-2.21-2.22-5.66-1.4-8.81-1.55-12.84,0-26.95,.01-41.76,.02-1.78,0-3.51,.83-4.61,2.2-.55,.68-.94,1.48-1.15,2.32-.22,.84-.16,1.72-.17,2.64,0,3.61,0,7.16,0,10.65,0,6.98-.01,13.72-.02,20.14,0,3.21,0,6.33,0,9.37,.01,1.47,.62,2.88,1.58,3.92,.96,1.04,2.28,1.72,3.65,1.87,5.65,.1,11.01,.05,15.85,.08,9.69,.04,17.54,.07,22.99,.09,2.7,.02,4.8,.04,6.25,.05,.7,.01,1.24,.02,1.63,.03,.37,0,.55,.03,.55,.03,0,0-.19,.02-.55,.03-.39,0-.93,.02-1.63,.03-1.45,.01-3.55,.03-6.25,.05-5.45,.02-13.3,.05-22.99,.09-4.86,0-10.15,.07-15.9-.02-1.47-.16-2.9-.88-3.94-2-1.04-1.11-1.7-2.64-1.72-4.22,0-3.04-.01-6.17-.02-9.38,0-6.42-.01-13.16-.02-20.14,0-3.49,0-7.05,0-10.65,0-.88-.05-1.83,.19-2.76,.22-.92,.65-1.79,1.25-2.54,1.2-1.49,3.09-2.41,5.03-2.4,14.81,0,28.92,.01,41.76,.02,1.6,0,3.19,0,4.75,0,1.62,0,3.22,.62,4.38,1.69,1.17,1.06,1.9,2.55,2.06,4.07,.07,1.52,.02,2.94,.03,4.38-.01,5.71-.02,11.02-.03,15.88-.01,4.85-.03,9.24-.04,13.1,0,1.93-.02,3.72-.02,5.37,0,.83,0,1.62-.01,2.37,0,.75,0,1.48-.15,2.16-.3,1.35-1,2.42-1.75,3.16-.77,.73-1.58,1.16-2.25,1.4-.68,.25-1.23,.3-1.6,.33-.37,0-.56,0-.56,0Z"/></g><g><rect class="cls-4" x="684.66" y="243.77" width="50.21" height="35.71" rx="4.46" ry="4.46"/><path class="cls-26" d="M688.88,277.25l12.26-17.44c.53-.76,1.64-.79,2.22-.07l8.42,10.44c.51,.63,1.45,.69,2.04,.13l4.93-4.74c.58-.56,1.51-.51,2.02,.11l9.67,11.48c.76,.9,.12,2.28-1.06,2.28h-39.36c-1.12,0-1.78-1.27-1.14-2.19Z"/><path class="cls-26" d="M716.83,254.65c.44,2.88-2.01,5.33-4.89,4.89-1.8-.27-3.26-1.74-3.54-3.54-.44-2.88,2.01-5.33,4.89-4.89,1.8,.28,3.26,1.74,3.54,3.54Z"/></g></g><g><path class="cls-2" d="M686.84,198.85l-1.38-9.56c-4.75-4.3-8.28-10.06-9.81-16.88-3.49-15.65,5.36-31.75,20.45-37.19,18.28-6.58,38.1,4.3,42.35,23.26,3.55,15.83-5.53,32.08-20.86,37.37-7.61,2.63-15.46,2.24-22.32-.47h.01l-8.44,3.48Z"/><polygon class="cls-6" points="689.94 164.68 694.79 159.83 704.14 168.14 719.75 152.47 724.25 157.32 703.44 177.49 689.94 164.68"/><path class="cls-27" d="M686.84,198.85s.2-.1,.56-.26c.39-.17,.93-.4,1.62-.7,1.44-.61,3.52-1.49,6.21-2.63l-.03,.22h-.01c-.06-.05-.07-.13-.03-.19,.03-.05,.1-.06,.15-.04,3.73,1.43,9.05,2.69,15.37,1.96,1.57-.19,3.2-.5,4.84-.96,.83-.22,1.63-.55,2.48-.83,.85-.26,1.67-.64,2.49-1.04,3.31-1.54,6.59-3.76,9.43-6.71,2.84-2.94,5.25-6.6,6.85-10.79,1.6-4.17,2.38-8.86,2.05-13.65-.31-4.79-1.83-9.64-4.4-13.99-1.23-2.22-2.9-4.19-4.65-6.09-1.87-1.78-3.86-3.51-6.15-4.83-2.21-1.41-4.63-2.4-7.05-3.23-2.47-.69-4.96-1.28-7.47-1.37-5.01-.32-9.98,.51-14.36,2.38-4.39,1.84-8.21,4.62-11.2,7.89-3,3.28-5.18,7.04-6.54,10.88-2.74,7.71-2.14,15.46-.02,21.38,2.13,6.01,5.62,10.26,8.6,12.98,.41,3.09,.73,5.48,.95,7.13,.1,.79,.18,1.41,.24,1.85,.05,.42,.07,.65,.07,.65,0,0-.04-.19-.11-.59-.07-.43-.17-1.03-.29-1.81-.26-1.65-.63-4.05-1.11-7.14l.04,.08c-3.03-2.7-6.59-6.95-8.78-13-2.19-5.98-2.84-13.85-.09-21.7,1.37-3.9,3.57-7.74,6.62-11.09,3.04-3.34,6.92-6.18,11.39-8.07,4.46-1.92,9.52-2.77,14.63-2.45,2.56,.09,5.11,.68,7.62,1.39,2.47,.85,4.94,1.85,7.19,3.29,2.34,1.35,4.36,3.11,6.27,4.93,1.79,1.94,3.48,3.95,4.74,6.21,2.62,4.45,4.16,9.39,4.47,14.27,.32,4.88-.48,9.66-2.12,13.9-1.64,4.25-4.1,7.97-7.01,10.95-2.9,2.99-6.24,5.23-9.61,6.77-.84,.4-1.67,.78-2.53,1.04-.85,.28-1.67,.61-2.51,.83-1.67,.46-3.32,.76-4.91,.95-6.41,.7-11.78-.63-15.51-2.12l.12-.22h.01c.06,.05,.07,.13,.03,.19-.01,.02-.04,.04-.06,.04-2.74,1.09-4.87,1.94-6.34,2.52l-1.61,.63c-.36,.14-.54,.21-.53,.2Z"/></g><g><g><path class="cls-2" d="M76.67,212.22l.23-9.55c8.3-9.53,11.16-24.25,2.75-40.1-29.36-31.09-73.57,.57-53.6,38.38,13.41,14.25,29.85,15.37,41.93,8.85h-.01l8.7,2.42Z"/><path class="cls-27" d="M76.67,212.22s-.2-.07-.58-.18c-.4-.12-.96-.28-1.68-.49-1.49-.43-3.63-1.05-6.41-1.85l.05,.21h.01c.05-.06,.05-.14,0-.19-.04-.04-.1-.05-.15-.02-3.49,1.85-8.57,3.71-14.87,3.73-1.57,0-3.2-.12-4.87-.38-.84-.12-1.67-.35-2.53-.53-.86-.16-1.71-.43-2.57-.73-3.44-1.12-6.91-2.92-10.06-5.48-3.14-2.55-5.94-5.87-8-9.79-2.06-3.91-3.38-8.43-3.62-13.17-.26-4.74,.67-9.69,2.68-14.27,.95-2.32,2.35-4.46,3.85-6.53,1.63-1.97,3.38-3.91,5.47-5.47,2-1.65,4.26-2.9,6.54-4,2.34-.97,4.72-1.84,7.18-2.22,4.88-.91,9.86-.67,14.38,.65,4.53,1.29,8.61,3.57,11.93,6.44,3.33,2.87,5.92,6.31,7.71,9.92,3.6,7.26,3.92,14.94,2.54,21.01-1.38,6.16-4.32,10.74-6.92,13.77-.04,3.09-.07,5.47-.09,7.11,0,.79-.01,1.4-.01,1.85,0,.42,0,.65,0,.65,0,0,.02-.19,.04-.59,.02-.43,.04-1.04,.07-1.81,.06-1.65,.14-4.05,.25-7.15l-.03,.08c2.66-3.01,5.65-7.61,7.09-13.81,1.44-6.13,1.16-13.94-2.47-21.33-1.8-3.67-4.42-7.18-7.81-10.11-3.38-2.93-7.52-5.26-12.14-6.58-4.61-1.36-9.68-1.6-14.66-.68-2.51,.39-4.94,1.27-7.32,2.26-2.33,1.12-4.63,2.4-6.67,4.08-2.14,1.6-3.92,3.57-5.58,5.58-1.53,2.11-2.95,4.29-3.92,6.66-2.05,4.68-2.98,9.71-2.71,14.55,.26,4.83,1.61,9.43,3.72,13.41,2.11,3.98,4.97,7.35,8.17,9.93,3.2,2.59,6.75,4.4,10.24,5.52,.87,.29,1.73,.57,2.61,.72,.87,.17,1.72,.4,2.57,.52,1.7,.25,3.35,.36,4.94,.35,6.38-.07,11.5-2,14.99-3.91l-.15-.2h-.01c-.05,.06-.05,.14,0,.19,.02,.02,.04,.03,.06,.04,2.82,.75,5.01,1.33,6.53,1.73,.71,.18,1.26,.33,1.66,.43,.37,.09,.55,.14,.55,.13Z"/></g><g><path class="cls-27" d="M63.49,179.44c-3.16,4.15,1.53,8.83,5.68,5.68,3.16-4.15-1.53-8.84-5.68-5.68Z"/><path class="cls-27" d="M50.01,179.44c-3.16,4.15,1.53,8.83,5.68,5.68,3.16-4.15-1.53-8.84-5.68-5.68Z"/><path class="cls-27" d="M36.52,179.44c-3.16,4.15,1.53,8.83,5.68,5.68,3.16-4.15-1.53-8.83-5.68-5.68Z"/></g></g><g><path class="cls-15" d="M221.18,295.99l-20.51-5.53-4.08,18.56-10.24-28c-4.77-13.38-11.31-17.99-15.81-19.24l-1.63,2.12,4.32,74.05,13.67,17.01c6.39,7.95,19.3,6.39,22.99-3.12,7.68-19.76,10.29-49.83,11.29-55.85Z"/><path class="cls-27" d="M76.7,454.17h102.62l-10.76-73.67-65.4-4.68s-11.28,11.06-15.02,24.04c-3.74,12.98-11.44,54.31-11.44,54.31Z"/><g><g><g><path class="cls-27" d="M93.96,209.77c2.42-21.86,7.19-45.92,38.34-44.72,0,0,23.47,.82,30.93,17.5,4.04,9.03,2.91,43.33,4.76,71.61l4.55,36.29-94.22-14.56s14.12-52.54,15.63-66.13Z"/><path class="cls-20" d="M136.73,173.71l-2.01-1.79-20.74,9.16c-3.03,.27-5.36,2.81-5.35,5.86l4.74,69.54c.13,4.64-1.12,7.55,1.81,11.16l20.09,24.04c7.02,8.66,5.76-10.88,10.76-20.84,.35-.7-1.35-3.19-1.25-3.68,.09-.61,.25-1.02,.26-1.54,.44-5.53,.32-10.31,.32-10.31,.18-6.06,.22-8.55,.22-8.49,0,0,12.82-1.9,15.76-18.54,1.46-8.27,.76-19.57-.09-30.67-1.18-15.37-12.16-24.32-24.54-23.9Z"/><path class="cls-27" d="M136.88,210.28c.02,1.13-.92,2.08-2.1,2.12-1.18,.04-2.15-.84-2.17-1.97-.02-1.13,.92-2.08,2.1-2.12,1.18-.04,2.15,.84,2.17,1.97Z"/><path class="cls-27" d="M157.49,210.07c.02,1.13-.92,2.08-2.1,2.12-1.18,.04-2.15-.84-2.17-1.97-.02-1.13,.92-2.08,2.1-2.12,1.18-.04,2.15,.84,2.17,1.97Z"/><path class="cls-27" d="M159.21,202.08c-.27,.27-1.87-.95-4.17-.99-2.3-.07-4.01,1.09-4.25,.8-.12-.13,.16-.63,.9-1.15,.73-.52,1.98-1.02,3.41-.99,1.43,.03,2.63,.58,3.31,1.13,.7,.56,.93,1.06,.8,1.19Z"/><path class="cls-27" d="M135.9,203.09c-.3,.24-1.77-1.14-4.05-1.41-2.28-.3-4.1,.67-4.31,.36-.11-.14,.22-.61,1.02-1.05,.78-.44,2.07-.81,3.49-.63,1.42,.18,2.56,.85,3.18,1.47,.64,.62,.81,1.15,.67,1.26Z"/><path class="cls-27" d="M144.47,219.55c0-.13,1.43-.35,3.75-.61,.59-.05,1.15-.16,1.25-.56,.15-.42-.09-1.06-.36-1.75-.53-1.43-1.08-2.93-1.66-4.51-2.3-6.41-3.96-11.69-3.7-11.78,.26-.09,2.34,5.04,4.64,11.45,.55,1.58,1.08,3.09,1.59,4.53,.21,.67,.58,1.44,.27,2.31-.17,.44-.6,.75-.98,.84-.38,.11-.71,.11-1,.12-2.34,.09-3.78,.07-3.79-.06Z"/><path class="cls-21" d="M145.59,246.82s-11.23,.53-22.24-6.34c0,0,5.42,11.64,22.14,10.37l.1-4.03Z"/><path class="cls-27" d="M137.8,194.05c-.3,.59-2.55,.03-5.27,.03-2.72-.05-4.98,.47-5.27-.13-.13-.29,.32-.83,1.27-1.32,.94-.5,2.39-.9,4.02-.89,1.63,.02,3.07,.45,4,.96,.94,.51,1.37,1.06,1.24,1.35Z"/><path class="cls-27" d="M158.56,192.22c-.41,.52-1.99-.05-3.9-.11-1.9-.13-3.53,.29-3.89-.26-.16-.27,.11-.79,.82-1.27,.7-.48,1.87-.86,3.18-.8,1.31,.06,2.44,.56,3.09,1.1,.66,.55,.88,1.09,.69,1.34Z"/><path class="cls-27" d="M110.01,216.14s11.89,3.28,17.6-25.99c1.95-10.01,10.9-18.36,10.9-18.36l-3.77-1s-23,7.3-23.38,7.61c-.38,.31-5.46,12.2-5.46,12.2l4.12,25.55Z"/><path class="cls-20" d="M112.88,214.97c.02-1.24-1.37-4.2-2.59-4.41-3.27-.57-9.18-.41-9.38,7.91-.27,11.37,11.2,9.3,11.23,8.97,.02-.25,.67-8.19,.74-12.48Z"/><path class="cls-21" d="M108.77,223.05s-.2,.13-.54,.28c-.33,.14-.89,.23-1.48,0-1.19-.47-2.16-2.4-2.16-4.45,0-1.04,.24-2.02,.62-2.82,.37-.82,.92-1.39,1.53-1.48,.6-.13,1.02,.25,1.16,.57,.15,.32,.07,.55,.13,.57,.03,.03,.25-.18,.17-.66-.04-.23-.17-.5-.43-.72-.27-.23-.67-.35-1.09-.32-.88,.04-1.69,.83-2.11,1.71-.47,.89-.77,1.99-.76,3.15,.02,2.29,1.14,4.47,2.77,4.98,.79,.23,1.47,0,1.82-.26,.36-.27,.42-.53,.39-.55Z"/><path class="cls-27" d="M117.81,210.32s.62-.06,1.69-.4c1.06-.33,2.54-1.08,3.96-2.48,.71-.7,1.4-1.55,2.03-2.54,.61-1,1.15-2.13,1.61-3.37,.92-2.48,1.48-5.35,2.17-8.33,.7-2.99,1.47-5.81,2.34-8.33,.85-2.52,1.82-4.72,2.75-6.51,.93-1.79,1.81-3.16,2.47-4.07,.32-.46,.6-.8,.78-1.03,.18-.23,.28-.35,.29-.34,0,0-.08,.14-.24,.38-.16,.25-.43,.59-.73,1.06-.62,.93-1.48,2.31-2.38,4.1-.9,1.79-1.84,3.99-2.67,6.5-.85,2.51-1.61,5.33-2.31,8.31-.7,2.98-1.26,5.86-2.21,8.36-.47,1.25-1.02,2.4-1.65,3.41-.64,1-1.36,1.86-2.09,2.56-1.47,1.4-2.99,2.13-4.08,2.44-1.09,.31-1.72,.29-1.72,.29Z"/><path class="cls-22" d="M103.89,259.27s-.06-.18-.14-.54c-.08-.4-.2-.93-.34-1.6-.29-1.45-.7-3.51-1.22-6.13l.27-.05c.07,.41,.15,.86,.23,1.33v-.04c.06,.15,.15,.32,.24,.5l-.28,.11c-1.5-4.6-3.18-10.8-4.24-18.15-.55-3.67-.92-7.63-1.08-11.8-.1-4.15-.27-8.56,.7-12.99,.4-1.83,1.04-3.6,1.9-5.22,.86-1.62,1.89-3.1,3-4.47,2.22-2.74,4.63-5.12,6.83-7.47,4.43-4.66,8.43-8.85,11.79-12.39,3.35-3.49,6.07-6.33,7.98-8.32,.93-.95,1.66-1.7,2.19-2.24,.24-.24,.43-.42,.58-.57,.13-.13,.2-.19,.21-.18,0,0-.05,.08-.17,.22-.14,.16-.32,.36-.54,.61-.51,.56-1.22,1.33-2.12,2.31-1.88,2.02-4.56,4.9-7.86,8.44-3.34,3.56-7.31,7.78-11.71,12.47-2.19,2.36-4.59,4.75-6.78,7.46-2.19,2.7-4.04,5.87-4.78,9.49-.95,4.34-.79,8.73-.7,12.86,.16,4.14,.51,8.09,1.03,11.75,1.02,7.33,2.64,13.52,4.07,18.13l-.28,.11c-.09-.18-.17-.35-.25-.51v-.04c-.09-.47-.16-.93-.22-1.34l.27-.05c.47,2.63,.84,4.7,1.1,6.15,.11,.68,.2,1.22,.27,1.62,.06,.37,.08,.56,.07,.56Z"/></g><path class="cls-22" d="M104.02,230.26c.08,2.58,2.25,4.61,4.83,4.52,2.58-.08,4.61-2.25,4.52-4.83-.08-2.58-2.25-4.61-4.83-4.52-2.58,.08-4.61,2.25-4.52,4.83Z"/></g><g><path class="cls-27" d="M172.67,279.8s.09,.37,.17,1.07c.09,.79,.19,1.82,.33,3.09,.29,2.69,.57,6.59,.82,11.42,.5,9.66,.48,23.02,0,37.76-.48,14.74-.88,28.07-.74,37.72,.05,4.82,.14,8.73,.27,11.43,.04,1.28,.07,2.31,.1,3.11,.01,.71,0,1.09-.02,1.09-.03,0-.08-.37-.15-1.08-.07-.8-.15-1.82-.26-3.1-.22-2.69-.41-6.6-.53-11.43-.28-9.67,.02-23.02,.5-37.75,.48-14.73,.59-28.06,.25-37.71-.18-4.82-.35-8.72-.55-11.42-.07-1.28-.13-2.31-.17-3.11-.03-.71-.03-1.09,0-1.09Z"/><g><path class="cls-2" d="M95.66,285.15l11.47,90.66,62.04,4.45,4.02,2.05-4.1-74.91-21.54-51.21-2.16-1.32s-1.81,15.14-7.64,14.88c-3.97-.17-18.99-7.3-22.29-9.52l-3.31-9.64-16.49,34.56Z"/><g><path class="cls-15" d="M82.47,393.17l13.19-30.26-12.78-96.85,22.25-9.32,7.29-7.86s6.76,24.98,8.87,33.73c2.11,8.75,8.15,27.99,10.85,45.24,2.7,17.25-.79,49.9-3.47,60.94-2.68,11.04-13.52,65.66-13.52,65.66h-49.8s8.05-42.13,17.12-61.28Z"/><path class="cls-15" d="M145.59,249.49l5.28,5.38,19.66,6.91s5.79,22.68,6.02,29.66c.23,6.99-.11,84.54,.01,88.19,.12,3.65,13.94,71.46,12.82,74.54h-13.48s-7.24-55.72-7.72-70.31c-.48-14.58-2.26-50.41-5.88-67.93-3.62-17.52-16.93-60.62-16.93-60.62l.22-5.82Z"/><path class="cls-27" d="M168.78,391.99s-.03-.12-.04-.36c-.01-.29-.02-.64-.04-1.06-.02-1-.04-2.37-.08-4.09-.04-3.62-.09-8.75-.15-15.05-.12-12.71-.18-30.27-.5-49.66-.06-2.42-.1-4.82-.2-7.17-.06-2.33-.4-4.64-.65-6.92-.52-4.54-1.02-8.92-1.59-13.08-.56-4.16-1.17-8.1-1.92-11.75-.74-3.65-1.92-6.91-3.16-9.82-2.51-5.82-5.05-10.3-6.81-13.38-.87-1.49-1.57-2.66-2.07-3.53-.22-.37-.4-.67-.54-.92-.12-.21-.18-.32-.16-.33,.01,0,.09,.09,.23,.28,.16,.24,.36,.52,.61,.88,.52,.78,1.28,1.94,2.2,3.46,1.84,3.04,4.46,7.49,7.06,13.32,1.28,2.91,2.51,6.22,3.28,9.91,.78,3.67,1.41,7.62,1.99,11.79,.58,4.17,1.11,8.55,1.63,13.09,.25,2.27,.6,4.58,.66,6.97,.1,2.37,.15,4.76,.2,7.19,.32,19.4,.3,36.96,.28,49.67-.04,6.31-.07,11.43-.09,15.06-.03,1.73-.05,3.09-.07,4.09-.02,.43-.03,.78-.04,1.06-.01,.24-.03,.36-.04,.36Z"/></g></g><path class="cls-27" d="M131.81,364.01s-.1-.37-.21-1.09c-.1-.72-.23-1.77-.37-3.14-.27-2.73-.57-6.7-.65-11.61-.04-2.46-.02-5.15,.08-8.04,.03-2.84-.62-5.86-1.44-8.98-1.79-6.22-4.53-12.85-7.64-19.69-3.15-6.83-6.39-13.24-9.39-19.04-1.46-2.91-3.04-5.62-4.02-8.39-.99-2.74-1.66-5.36-2.24-7.75-1.13-4.79-1.79-8.71-2.23-11.43-.21-1.36-.36-2.41-.45-3.13-.09-.72-.12-1.1-.09-1.1,.03,0,.11,.37,.24,1.08,.15,.78,.34,1.81,.59,3.1,.53,2.69,1.27,6.6,2.46,11.35,.61,2.37,1.31,4.97,2.31,7.67,.98,2.69,2.57,5.38,4.05,8.29,3.04,5.79,6.3,12.2,9.46,19.05,3.12,6.86,5.85,13.52,7.62,19.81,.81,3.16,1.45,6.23,1.39,9.18-.13,2.88-.18,5.56-.17,8.01,0,4.9,.23,8.86,.4,11.59,.09,1.31,.17,2.36,.23,3.15,.05,.72,.08,1.1,.05,1.1Z"/><path class="cls-27" d="M173.8,275.54s.21,.31,.54,.92c.35,.61,.79,1.55,1.34,2.76,1.08,2.44,2.37,6.11,3.36,10.78,.99,4.67,1.61,10.36,1.62,16.67-.02,6.31-.52,13.23-1.15,20.46-1.34,14.47-2.18,27.58-2.47,37.09-.17,4.75-.26,8.6-.32,11.26-.04,1.27-.07,2.28-.09,3.06-.03,.7-.06,1.07-.09,1.07-.03,0-.05-.37-.07-1.07-.01-.78-.03-1.8-.05-3.07-.04-2.66-.03-6.52,.07-11.28,.14-9.52,.9-22.67,2.24-37.14,.63-7.23,1.14-14.12,1.2-20.4,.03-6.27-.53-11.91-1.44-16.56-.91-4.65-2.12-8.31-3.1-10.78-.5-1.23-.9-2.18-1.2-2.81-.29-.64-.43-.98-.4-.99Z"/></g></g><g><path class="cls-21" d="M136.67,223.62c-.7,1.07-.77,2.6-.71,3.88,.04,.76,.24,1.56,.78,2.1,.51,.52,1.26,.75,1.99,.73s1.43-.25,2.09-.54c1.25-.7,2.11-2.03,2.83-3.62-1.83-.63-5.05-1.95-6.98-2.56Z"/><path class="cls-27" d="M141.17,229.6c.07,.01-.75,.96-2.55,.91-.44-.04-.91-.15-1.38-.39-.48-.23-.9-.68-1.17-1.2-.28-.53-.4-1.17-.38-1.79,0-.62,.08-1.25,.21-1.89,.13-.6,.27-1.18,.53-1.74l.1-.22,.22,.08c1.99,.74,3.72,1.41,4.95,1.91,1.23,.5,1.96,.83,1.94,.9-.02,.06-.79-.15-2.05-.57-1.26-.41-3.01-1.02-5-1.73l.32-.14c-.21,.47-.36,1.04-.48,1.61-.22,1.21-.37,2.44,.09,3.34,.42,.95,1.37,1.32,2.14,1.43,.77,.1,1.44-.1,1.85-.25,.42-.16,.63-.32,.66-.28Z"/></g></g><g><rect class="cls-2" x="193.62" y="183.21" width="356.6" height="270.2" rx="15.3" ry="15.3"/><path class="cls-14" d="M208.69,183.21h325.9c8.7,0,15.76,7.06,15.76,15.76v20.71H193.62v-21.4c0-8.32,6.75-15.07,15.07-15.07Z"/><path class="cls-27" d="M534.18,453.41s.27-.02,.8-.05c.26-.02,.59-.02,.99-.07,.39-.06,.84-.13,1.36-.21,.51-.12,1.08-.27,1.7-.44,.6-.24,1.29-.43,1.98-.8,1.4-.65,2.94-1.62,4.38-3.06,1.45-1.42,2.81-3.31,3.69-5.67l.33-.89c.1-.31,.16-.62,.25-.94,.19-.63,.26-1.3,.37-1.98,.15-1.36,.12-2.8,.12-4.29,0-5.97-.02-12.86-.03-20.61-.02-31.03-.05-75.91-.09-131.38,0-13.87-.01-28.39-.02-43.53,0-7.57,0-15.29,0-23.16,0-3.93,0-7.9,0-11.91-.02-2,.04-4.03-.05-6.02-.11-1.99-.59-3.96-1.44-5.78-1.68-3.65-4.84-6.64-8.66-8.09-1.91-.74-3.96-1.07-6.03-1.06-2.09,0-4.19,0-6.29,0-8.43,0-16.98,0-25.67,0-17.37,0-35.25,0-53.58,.01-73.34,0-153.96,.01-238.59,.02-2.6,.01-5.19,.67-7.48,1.87-2.27,1.24-4.24,3.03-5.68,5.18-1.41,2.16-2.32,4.66-2.55,7.22-.09,1.28-.08,2.59-.08,3.9v3.92c0,10.45,0,20.83,0,31.14,0,20.61,0,40.92,0,60.88,0,39.91-.01,78.41-.02,115.08,0,4.58,0,9.14,0,13.67,0,2.26,0,4.52,0,6.77,.04,2.24-.12,4.51,.2,6.67,.65,4.35,3.22,8.34,6.84,10.73,1.81,1.2,3.86,2.02,5.98,2.39,2.11,.38,4.31,.22,6.48,.26,17.37,0,34.24,0,50.55,.01,32.61,.01,62.99,.02,90.73,.03,55.46,.04,100.35,.07,131.37,.09,15.51,.02,27.55,.04,35.72,.05,4.08,.01,7.19,.02,9.29,.03,2.09,0,3.16,.03,3.16,.03,0,0-1.07,.02-3.16,.03-2.1,0-5.21,.02-9.29,.03-8.17,.01-20.21,.03-35.72,.05-31.02,.02-75.91,.05-131.37,.09-27.73,.01-58.11,.02-90.73,.03-16.31,0-33.17,0-50.55,.01-2.16-.04-4.36,.13-6.56-.26-2.19-.38-4.3-1.22-6.16-2.46-3.74-2.46-6.39-6.57-7.06-11.06-.33-2.26-.17-4.5-.21-6.75,0-2.25,0-4.5,0-6.77,0-4.53,0-9.08,0-13.67,0-36.67-.01-75.17-.02-115.08,0-19.96,0-40.26,0-60.88,0-10.31,0-20.69,0-31.14v-3.92c0-1.31-.02-2.61,.08-3.95,.25-2.66,1.19-5.24,2.64-7.48,1.49-2.22,3.53-4.07,5.88-5.36,2.37-1.25,5.05-1.93,7.74-1.94,84.63,0,165.25,.01,238.59,.02,18.33,0,36.21,0,53.58,.01,8.69,0,17.24,0,25.67,0,2.11,0,4.2,0,6.29,0,2.11,0,4.23,.33,6.19,1.1,3.93,1.5,7.18,4.57,8.91,8.33,.87,1.87,1.37,3.91,1.48,5.95,.09,2.04,.02,4.04,.04,6.05,0,4.01,0,7.98,0,11.91,0,7.87,0,15.59,0,23.16,0,15.14-.01,29.67-.02,43.53-.04,55.46-.07,100.35-.09,131.38,0,7.75-.02,14.64-.03,20.61,0,1.49,.02,2.93-.13,4.31-.11,.68-.18,1.36-.38,1.99-.09,.32-.16,.64-.25,.95-.11,.3-.22,.6-.33,.9-.9,2.37-2.28,4.27-3.74,5.7-1.46,1.44-3.02,2.41-4.43,3.06-.69,.37-1.38,.55-1.99,.79-.63,.17-1.2,.32-1.71,.43-.52,.08-.97,.14-1.36,.2-.39,.05-.72,.04-.99,.06-.53,.02-.8,.03-.8,.03Z"/><g><path class="cls-2" d="M217,203.64c0,2.31-1.87,4.18-4.18,4.18s-4.18-1.87-4.18-4.18,1.87-4.18,4.18-4.18,4.18,1.87,4.18,4.18Z"/><path class="cls-2" d="M229.53,203.64c0,2.31-1.87,4.18-4.18,4.18s-4.18-1.87-4.18-4.18,1.87-4.18,4.18-4.18,4.18,1.87,4.18,4.18Z"/><path class="cls-2" d="M242.07,203.64c0,2.31-1.87,4.18-4.18,4.18s-4.18-1.87-4.18-4.18,1.87-4.18,4.18-4.18,4.18,1.87,4.18,4.18Z"/></g></g><g><path class="cls-20" d="M199.7,342.98s3.13-3.44-1.94-4.42c-5.07-.98-30.77-.53-39.91,2.43l-12.4,2.11,2.18,20.38,7.74-1.78s16.35,2.48,18.48,2.8c2.12,.32,8.62-2.39,3.48-5.77,0,0,6.1-2.99,1.49-6.94,0,0,4.49-2.36,.85-7.04l20.04-1.75Z"/><polygon class="cls-26" points="143.34 342.36 148.15 341.97 147.61 363.83 142.93 364.79 143.34 342.36"/><g><path class="cls-15" d="M83.24,265.57s-11.73,4.04-14.17,20.13c-2.65,17.53,4.26,48.1,4.55,59.19,.21,8.19,5.59,27.06,23.07,26.41,24.46-.91,46.93-6.26,46.93-6.26l-.08-22.95-41.56,.03-4.13-38.95"/><path class="cls-27" d="M97.85,303.17s.04,.23,.1,.68c.06,.47,.14,1.13,.24,2,.2,1.78,.49,4.37,.87,7.71,.73,6.73,1.79,16.46,3.11,28.55l-.19-.17c11.67-.02,25.82-.05,41.56-.09h.25v.25c.03,7.29,.06,14.98,.1,22.95v.22l-.21,.05c-10.5,2.36-21.84,4.19-33.61,5.36-4.74,.45-9.43,.78-14.07,.91-2.34,.02-4.68-.31-6.87-1.08-2.18-.78-4.21-1.93-5.94-3.41-3.49-2.94-5.84-6.89-7.42-10.91-1.57-4.05-2.41-8.29-2.48-12.43-.25-4.09-.84-8.07-1.36-11.94-.53-3.87-1.05-7.62-1.56-11.25-.95-7.27-1.72-14.06-1.98-20.3-.26-6.23-.1-11.92,.94-16.79,.1-.61,.28-1.2,.45-1.77,.17-.57,.32-1.15,.51-1.69,.44-1.07,.77-2.13,1.29-3.07,.89-1.94,2.03-3.54,3.09-4.92,2.23-2.7,4.45-4.34,6.04-5.26,.79-.47,1.43-.77,1.86-.96,.43-.19,.67-.25,.67-.25,0,0-.22,.1-.64,.3-.42,.2-1.05,.52-1.82,1-1.56,.94-3.74,2.6-5.93,5.3-1.04,1.38-2.16,2.97-3.02,4.9-.5,.93-.83,1.99-1.25,3.05-.18,.54-.32,1.11-.49,1.68-.16,.57-.34,1.15-.43,1.76-1,4.83-1.13,10.5-.85,16.7,.29,6.22,1.08,13,2.05,20.25,.51,3.63,1.04,7.38,1.58,11.24,.53,3.87,1.13,7.84,1.39,11.98,.08,4.11,.92,8.26,2.46,12.26,1.56,3.96,3.87,7.83,7.27,10.69,1.68,1.44,3.65,2.55,5.76,3.3,2.12,.74,4.4,1.06,6.68,1.04,4.61-.14,9.3-.47,14.02-.91,11.74-1.16,23.07-2.99,33.54-5.33l-.21,.26c-.02-7.97-.04-15.67-.06-22.95l.25,.25c-15.74-.01-29.89-.02-41.56-.03h-.18l-.02-.17c-1.24-12.1-2.25-21.83-2.94-28.57-.33-3.34-.59-5.94-.77-7.72-.08-.87-.14-1.53-.19-2-.04-.45-.04-.68-.04-.68Z"/></g><path class="cls-27" d="M97.65,353.12c-.13,.04-.43-2.81,.85-6.01,1.25-3.21,3.41-5.09,3.48-4.98,.14,.11-1.77,2.09-2.96,5.18-1.23,3.07-1.19,5.82-1.37,5.81Z"/><path class="cls-27" d="M93.37,291.21c-.09,.01-.3-1.06-.75-2.77-.45-1.7-1.17-4.03-2.24-6.5-1.07-2.46-2.28-4.58-3.22-6.07-.94-1.49-1.58-2.38-1.51-2.43,.05-.04,.81,.76,1.84,2.22,1.04,1.45,2.32,3.57,3.4,6.07,1.08,2.5,1.76,4.88,2.11,6.63,.36,1.75,.43,2.85,.36,2.86Z"/></g><g><g><path class="cls-20" d="M406.84,153.18l-17.14-62.79c-3.76-15.76-16.06-26.71-31.71-22.52l-1.42,.47c-14.33,4.75-22.61,19.7-19.03,34.36,3.33,13.64,7.19,28.67,9.64,35.77,5.07,14.7,20.59,12.1,20.59,12.1,.03,0,2.69,9.06,3.94,13.45l-.58,11.25,11.43-6.51,24.28-15.58Z"/><path class="cls-21" d="M367.76,150.57s9.48-2.54,17.33-12.05c0,0-.95,12.63-16.11,16.18l-1.22-4.13Z"/><path class="cls-27" d="M347.43,115.46c.33,1.13,1.55,1.78,2.74,1.45,1.18-.32,1.87-1.49,1.54-2.62-.33-1.13-1.55-1.78-2.73-1.46-1.18,.32-1.87,1.5-1.54,2.62Z"/><path class="cls-27" d="M342.83,108.17c.35,.19,1.56-1.52,3.83-2.27,2.26-.78,4.31-.16,4.46-.52,.08-.16-.35-.57-1.25-.86-.89-.29-2.27-.4-3.68,.08-1.41,.48-2.43,1.39-2.93,2.15-.52,.77-.59,1.34-.42,1.42Z"/><path class="cls-27" d="M366.45,109.32c.33,1.13,1.55,1.78,2.74,1.45,1.18-.32,1.87-1.49,1.54-2.62-.33-1.13-1.55-1.78-2.73-1.45-1.18,.32-1.87,1.5-1.54,2.62Z"/><path class="cls-27" d="M365.23,101.33c.35,.19,1.56-1.52,3.83-2.27,2.26-.78,4.31-.16,4.46-.52,.08-.16-.35-.57-1.25-.86-.89-.29-2.27-.4-3.68,.08-1.41,.48-2.43,1.39-2.93,2.15-.52,.77-.59,1.34-.42,1.42Z"/><path class="cls-27" d="M362.87,121.45c-.03-.13-1.52,.09-3.9,.56-.6,.13-1.19,.2-1.41-.16-.27-.37-.24-1.08-.18-1.84,.08-1.58,.16-3.24,.25-4.98,.3-7.07,.31-12.8,.02-12.81-.29,0-.76,5.71-1.05,12.78-.06,1.74-.12,3.39-.17,4.98,0,.73-.13,1.6,.45,2.37,.3,.38,.83,.55,1.23,.53,.41,0,.74-.11,1.03-.19,2.34-.64,3.77-1.1,3.73-1.23Z"/><path class="cls-27" d="M362.15,94.48c.5,.48,2.5-.86,5.16-1.81,2.64-1,5.03-1.27,5.1-1.96,.02-.32-.6-.7-1.7-.85-1.09-.16-2.65-.05-4.24,.53-1.59,.58-2.85,1.51-3.58,2.34-.74,.83-.97,1.52-.74,1.75Z"/><path class="cls-27" d="M340.52,101.54c.64,.37,2.32-.75,4.55-1.48,2.2-.79,4.23-.95,4.49-1.63,.11-.32-.35-.75-1.33-.98-.97-.23-2.45-.2-3.97,.32-1.52,.52-2.7,1.41-3.31,2.19-.62,.78-.71,1.39-.42,1.58Z"/><path class="cls-20" d="M392.11,101.71c.22-.19,9.15-6.36,12.17,3.84,3.02,10.2-7.84,11.13-7.94,10.84-.1-.29-4.22-14.67-4.22-14.67Z"/><path class="cls-10" d="M398.31,111.6s.21,.07,.56,.12c.33,.05,.86,0,1.34-.37,.96-.71,1.36-2.69,.87-4.55-.25-.94-.71-1.76-1.25-2.4-.53-.65-1.17-1.03-1.74-.97-.58,.04-.86,.47-.9,.8-.05,.33,.07,.51,.02,.54-.02,.03-.27-.11-.31-.55-.02-.22,.03-.49,.21-.76,.19-.27,.52-.48,.9-.55,.8-.18,1.72,.33,2.32,1.03,.64,.69,1.18,1.61,1.46,2.66,.54,2.07,.06,4.31-1.29,5.17-.66,.4-1.32,.36-1.7,.21-.39-.16-.51-.37-.48-.4Z"/><path class="cls-27" d="M370.49,120.81c-.36,.08,.3,2.43-1.24,4.66-1.54,2.24-4.12,2.68-4.04,3.01,0,.16,.69,.3,1.75,.03,1.05-.26,2.47-1.02,3.41-2.38,.94-1.37,1.08-2.88,.89-3.87-.19-1.01-.61-1.52-.77-1.46Z"/></g><g><path class="cls-27" d="M313.05,95.15c-.02-.65,.27-1.27,.71-1.75,.96-1.04,2.33-1.35,3.63-1.76,3.22-1.02,6.18-2.8,8.62-5.12-1.16-.21-2.28-.55-3.32-1.11-2.14-1.15-3.84-3.38-3.74-5.81,.02-.46,.13-.96,.51-1.21,.6-.4,1.37,.08,1.99,.45,2.02,1.24,3.64,1.55,5.84,.65,1.36-.56,2.63-1.28,3.53-2.3,.03-.06,.05-.12,.09-.18,.37-.7,.73-1.38,1.09-2.04h0c2.7-4.95,5.21-8.57,8.19-10.95,4.38-3.49,12.45-6.78,18.05-6.97,5.59-.19,11.51,2.63,13.81,7.73,2.17-3.33,6.55-4.61,10.52-4.24l.08-.07c4.37,.23,7.85,3.73,10.22,7.4,.13,.2,.25,.41,.38,.61,1.97,1.72,4.32,2.99,6.86,3.6,.45,.11,.97,.25,1.14,.67,.18,.42-.08,.89-.36,1.25-.74,.96-1.71,1.73-2.8,2.28,.65,.85,1.35,1.65,2.14,2.38,.67,.62,1.47,1.37,1.31,2.27-.12,.7-.82,1.18-1.52,1.28-.7,.1-1.4-.09-2.08-.28,.75,.92,1.51,1.84,2.26,2.77-1.35,.67-2.87,1-4.38,.99,.28,4.01,1.73,11.17,1.53,14.01-2.69,.85-3.44,.76-4.66,1.62-1.59,1.11,.02,4.03-2.54,3.83-1.3-.1-4.42-4-5.17-5.07-4.95-7.13-8.34-15.33-9.87-23.88-2.15-1.25-4.55-2.09-7.02-2.44l.22,.11c-4.6-.2-9.74-.22-13.1,2.92-2.61,2.43-3.47,6.15-5,9.38-2.91,6.11-7.06,10.14-13.45,12.36,.76,4.67,2.78,12.08,3.81,16.34l-6.09-7.33v.04c-.43-.41-.82-.83-1.2-1.26l-.12-.13v-.02c-.61-.69-1.2-1.38-1.9-2.04l-.03,.05c-1.68,2.68-5.94,.62-4.88-2.36,.21-.59,.51-1.15,.89-1.65-.75,1.29-2.16,2.22-3.65,2.2-1.49-.01-2.96-1.08-3.26-2.53-.21-.99,.23-2.07,.99-2.71-1.79,.69-3.79,.85-5.67,.42-1.23-.29-2.55-.96-2.59-2.39Z"/><path class="cls-22" d="M367.88,67.9s.74,.21,1.9,.92c1.15,.71,2.62,2.11,3.77,4.27,.58,1.07,1.1,2.3,1.51,3.68,.42,1.37,.74,2.87,1.1,4.46,.36,1.58,.74,3.25,1.35,4.92,.3,.84,.66,1.67,1.11,2.48,.44,.79,.94,1.65,1.8,2.19,.69,.44,1.62,.45,2.32,.08,.71-.35,1.25-.95,1.57-1.64,.63-1.41,.44-2.9,.31-4.22l-.3,.13c.85,.97,1.7,1.93,2.75,2.58,1.03,.66,2.27,.94,3.37,.71,.55-.11,1.07-.36,1.46-.73,.4-.37,.63-.86,.74-1.34,.1-.49,.08-.98-.08-1.42-.16-.44-.46-.8-.82-1.02l-.12,.19c1.54,.97,2.97,1.31,3.92,1.45,.48,.07,.86,.08,1.11,.09,.25,0,.38,0,.38-.02,0-.01-.13-.02-.38-.04-.25-.02-.62-.06-1.09-.15-.94-.17-2.33-.54-3.82-1.52l-.12,.19c.66,.38,.97,1.31,.76,2.19-.11,.44-.32,.88-.67,1.19-.35,.32-.82,.55-1.33,.64-1.02,.2-2.17-.06-3.14-.7-.99-.63-1.82-1.56-2.66-2.54l-.36-.41,.06,.55c.14,1.32,.29,2.76-.29,4.03-.29,.61-.79,1.15-1.41,1.46-.62,.32-1.37,.31-1.97-.07-.75-.46-1.24-1.27-1.67-2.05-.43-.79-.79-1.61-1.09-2.43-.6-1.64-.99-3.3-1.36-4.88-.37-1.58-.71-3.08-1.14-4.47-.43-1.39-.98-2.63-1.58-3.71-1.19-2.18-2.72-3.58-3.92-4.26-1.21-.69-1.98-.8-1.98-.8Z"/><path class="cls-22" d="M326.08,96.18s.05,.03,.15,.07c.12,.04,.27,.1,.45,.16,.2,.07,.45,.15,.75,.22,.3,.07,.65,.16,1.05,.21,1.58,.24,4,.24,6.73-.76,2.7-.98,5.71-2.94,8.01-6.01,2.34-3.03,4.01-6.97,5.07-11.22,.55-2.13,.88-4.24,1.34-6.24,.46-2,1.05-3.9,1.98-5.53,.9-1.64,2.11-3.01,3.52-3.89,.7-.46,1.45-.74,2.19-.94,.75-.18,1.49-.24,2.19-.22,1.41,.05,2.66,.45,3.67,.94,1.01,.5,1.77,1.12,2.33,1.68,1.09,1.17,1.39,2.04,1.44,2.01,0,0-.01-.05-.06-.15-.06-.12-.12-.26-.21-.44-.19-.38-.54-.9-1.07-1.52-.56-.58-1.32-1.23-2.35-1.76-1.02-.52-2.29-.95-3.75-1.02-.73-.03-1.49,.03-2.27,.21-.77,.2-1.56,.49-2.28,.95-1.46,.9-2.72,2.31-3.65,3.98-.95,1.67-1.57,3.6-2.03,5.62-.47,2.02-.81,4.13-1.35,6.24-1.05,4.22-2.7,8.11-4.98,11.1-2.24,3.04-5.18,4.98-7.83,5.97-2.67,1.01-5.05,1.06-6.62,.86-1.58-.21-2.41-.56-2.43-.51Z"/><path class="cls-22" d="M322.76,90.03s.22,.1,.65,.21c.42,.12,1.05,.24,1.82,.33,.78,.1,1.72,.13,2.75,.07,1.04-.07,2.17-.23,3.33-.53,1.16-.31,2.23-.73,3.16-1.18,.93-.47,1.73-.95,2.36-1.42,.63-.46,1.12-.88,1.42-1.19,.31-.31,.47-.49,.46-.5-.05-.05-.74,.62-2.03,1.48-.64,.44-1.44,.89-2.36,1.33-.93,.42-1.97,.83-3.11,1.13-1.14,.29-2.25,.46-3.26,.55-1.02,.07-1.94,.07-2.71,0-1.54-.12-2.48-.35-2.49-.29Z"/></g></g><path class="cls-19" d="M328.3,184.31s-1.52-4.29,3.63-10.06c5.15-5.77,37.53-17.96,37.53-17.96,0,0,12.01,11.7,25.6,4.3,10.58-5.76,9.76-14.78,9.76-14.78l41.15,6.89,1.4,31.09-14.74,.09-104.33,.44Z"/><path class="cls-20" d="M399.93,237.09l50.75-15.92-16.58-40.16,32,.61s23.09,45.06,14.36,58.21c-7.96,11.98-73.46,14.39-73.46,14.39l-7.08-17.14Z"/><path class="cls-10" d="M468.05,229.05c-.09,.04-.6-1.15-1.88-2.76-1.26-1.6-3.41-3.57-6.31-4.75-2.89-1.21-5.84-1.01-7.83-.6-2.02,.41-3.21,.93-3.24,.84-.01-.03,.27-.19,.8-.43,.54-.23,1.33-.53,2.35-.79,2-.52,5.09-.79,8.12,.47,3.01,1.22,5.2,3.32,6.41,5.02,.62,.85,1.03,1.6,1.27,2.13,.24,.53,.34,.84,.31,.86Z"/><path class="cls-19" d="M426.91,170.56c-.5-16.96,21.6-24.5,31.51-10.73,.06,.08,.11,.16,.17,.24,9.34,13.3,20.63,44.76,20.63,44.76l-39.99,6.21-9.98-27.3c-1.35-4.4-2.21-8.92-2.34-13.18Z"/><g><g><path class="cls-20" d="M302.26,181.45c.06,.14,.12,.29,.18,.43,.24,.67,.37,1.38,.42,2.09,.02,.33-.03,.69,.05,1,.05,.22,.19,.39,.28,.59,.53,1.28,.41,2.8,.37,4.15-.05,1.53-.03,3.14,.77,4.45,.8,1.3,2.65,2.07,3.91,1.21-.19,.95,.55,1.94,1.49,2.18,.94,.25,1.97-.15,2.66-.83,.69-.68,1.09-1.61,1.33-2.55-.07,1.14,1.06,2.12,2.2,2.13,1.14,.02,2.19-.74,2.79-1.71,.6-.97,.83-2.12,.96-3.26,.13-1.13,.39-3.26,.69-4.36,0,0,1.43,.23,2.09,.29l.19,.02s.84-1.29,1.37-2.38c.91-1.88,1.61-3.07,2.31-4.78,.52-1.28,.86-2.55,.07-3.39-1.9-2-5.62,2.07-5.62,2.07-.53-1.42-4.85-1.65-5.69,.24-.34-1.04-.21-1.64-1.05-2.34-.84-.7-2.01-1.06-3.06-.77-1.06,.29-1.92,1.31-1.86,2.4-.89-1.43-2.73-2.2-4.38-1.83-.99,.23-1.86,.86-2.44,1.68-.29,.42-.5,.88-.62,1.37-.05,.18-.12,.38-.1,.56,0,.09,.05,.17,.09,.25,.19,.36,.45,.68,.62,1.06Z"/><path class="cls-20" d="M297.7,178.69c-.94-.03-1.97,.16-2.59,.86-.74,.83-.9,2.48-.81,3.6,1.3,.25,1.98,.3,3.28,.54,.27,.05,.5-.02,.73,.14,.6,.43,.5,1.87,.75,2.56,.42,1.21,1.97,1.8,3.17,1.36,1.2-.44,1.97-1.72,2.03-3,.06-1.28-.5-2.53-1.33-3.51-1.29-1.53-3.24-2.48-5.24-2.55Z"/><path class="cls-21" d="M309.12,177.97c.24,.01,.24,3.92,0,8.72-.25,4.8-.64,8.69-.89,8.68-.24-.01-.24-3.92,0-8.72,.25-4.8,.64-8.69,.89-8.67Z"/><path class="cls-21" d="M315.11,178.8c.23-.01,.55,3.54,.17,7.91-.37,4.37-1.29,7.82-1.52,7.77-.25-.05,.27-3.53,.64-7.85,.38-4.31,.46-7.83,.71-7.84Z"/></g><path class="cls-21" d="M320.97,178.6c.25,0,.35,2.96-.11,6.54-.46,3.58-1.01,6.43-1.24,6.41-.26-.02-.09-2.96,.36-6.51,.46-3.55,.74-6.43,.99-6.43Z"/><path class="cls-21" d="M299.58,180.3c0-.11,.63-.25,1.53,.17,.89,.39,1.91,1.43,2.4,2.81,.48,1.39,.63,2.58,.6,3.59-.11,1.08-.89,1.4-.91,1.26-.07-.1,.36-.47,.28-1.27-.11-.78-.37-2.06-.8-3.26-.44-1.22-1.19-2.11-1.88-2.58-.68-.48-1.23-.58-1.22-.71Z"/></g><path class="cls-27" d="M446.34,153.87c.03,.11-1.74,.47-4.3,1.8-2.54,1.3-5.82,3.73-8.21,7.4-2.39,3.67-3.28,7.66-3.44,10.51-.18,2.87,.21,4.64,.1,4.66-.03,0-.15-.43-.28-1.23-.13-.8-.24-1.98-.2-3.44,.06-2.9,.91-7.01,3.37-10.79,2.46-3.77,5.87-6.22,8.5-7.44,1.32-.63,2.44-1.01,3.23-1.21,.79-.21,1.23-.27,1.24-.24Z"/><g><g><path class="cls-20" d="M193.1,275.93c-.96-.34-1.52-.23-2.15-1.03-.63-.8-.94-1.89-.66-2.86,.29-.98,1.25-1.76,2.27-1.68-1.31-.85-1.99-2.58-1.61-4.1,.23-.91,.83-1.71,1.61-2.23,.39-.26,.83-.44,1.29-.55,.16-.04,.36-.11,.53-.08,.08,.01,.16,.05,.23,.09,.33,.19,.63,.43,.97,.59,.13,.06,.26,.12,.4,.17,.62,.24,1.27,.37,1.93,.44,.3,.03,.64,0,.93,.06,.2,.05,.36,.19,.54,.27,1.18,.52,2.59,.44,3.85,.42,1.42-.01,2.92,.04,4.12,.8,1.19,.77,1.88,2.51,1.04,3.66,.89-.16,1.79,.55,2,1.43,.21,.88-.18,1.83-.82,2.46-.65,.63-1.52,.99-2.4,1.19,1.06-.04,1.95,1.02,1.94,2.08,0,1.06-.73,2.02-1.65,2.56-.91,.54-1.99,.73-3.05,.83-1.06,.1-4.4,.58-5.43,.83l-3.9,.05c-2.26,.03-3.96-2.3-3-4.35,.23-.48,.56-.86,1-1.05Z"/><path class="cls-20" d="M193.1,259.77c-.01-.88,.19-1.82,.85-2.39,.79-.68,1.31-.81,2.35-.71,.3,1.17,.63,1.95,1.15,3.16,.1,.24,.28,.4,.42,.61,.39,.57,1.72,.51,2.37,.74,1.12,.41,1.63,1.87,1.2,2.97-.44,1.11-1.08,1.49-2.27,1.52-1.19,.03-3.15-.58-4.04-1.37-1.4-1.23-1.99-2.69-2.02-4.54Z"/><path class="cls-21" d="M192.21,270.37c0,.1,3.63,.07,8.1-.06,4.47-.13,8.09-.32,8.09-.42,0-.1-3.63-.07-8.1,.06-4.47,.13-8.09,.32-8.09,.42Z"/><path class="cls-21" d="M192.85,275.95s.82,.13,2.14,.18c1.33,.05,3.17,.04,5.19-.09,2.03-.13,3.85-.36,5.16-.58,1.31-.22,2.11-.41,2.1-.45,0-.05-.82,.05-2.14,.2-1.32,.15-3.13,.34-5.15,.47-2.01,.13-3.84,.18-5.17,.2-1.32,.02-2.14,.03-2.15,.08Z"/></g><path class="cls-21" d="M194.75,281.51s.6,.02,1.58-.04c.98-.05,2.33-.17,3.83-.33,1.49-.16,2.84-.32,3.81-.44,.97-.12,1.58-.2,1.57-.23,0-.03-.61,0-1.59,.1-.98,.09-2.33,.23-3.82,.39-1.49,.16-2.83,.29-3.81,.38-.98,.09-1.58,.14-1.58,.17Z"/><path class="cls-21" d="M193.63,261.53s-.12,.56,.27,1.35c.36,.78,1.27,1.68,2.5,2.15,.61,.24,1.21,.39,1.75,.5,.55,.1,1.04,.2,1.48,.18,.44-.01,.79-.18,.97-.34,.19-.17,.23-.3,.21-.31-.03-.04-.37,.44-1.19,.4-.39-.01-.88-.13-1.41-.25-.53-.12-1.11-.28-1.69-.51-1.17-.44-2.01-1.23-2.41-1.93-.41-.7-.43-1.23-.49-1.22Z"/></g><g><g><polygon class="cls-27" points="588.45 454.21 586.64 410.7 691 411.12 703.4 454.21 588.45 454.21"/><path class="cls-22" d="M614.46,454.54s-.17-.35-.39-1.01c-.21-.66-.48-1.62-.79-2.82-.62-2.4-1.34-5.73-2.1-9.42-.75-3.62-1.42-6.89-1.95-9.44-.24-1.11-.45-2.06-.62-2.85-.15-.67-.22-1.05-.18-1.06,.04-.01,.17,.35,.39,1.01,.21,.66,.48,1.62,.79,2.82,.61,2.4,1.34,5.73,2.1,9.42,.75,3.62,1.42,6.89,1.95,9.44,.24,1.11,.45,2.06,.62,2.85,.15,.67,.22,1.05,.18,1.06Z"/><path class="cls-22" d="M690.27,430.6s-.11,.08-.33,.2c-.23,.11-.56,.29-1.01,.46-.89,.37-2.23,.79-3.93,1.09-3.4,.63-8.29,.45-13.33-1.07-5.05-1.52-9.29-3.71-12.34-5.25-1.45-.75-2.66-1.38-3.6-1.88-.85-.45-1.31-.71-1.29-.75,.02-.03,.51,.16,1.38,.56,.88,.39,2.13,.98,3.68,1.72,3.1,1.45,7.34,3.57,12.33,5.07,4.98,1.49,9.76,1.74,13.12,1.21,3.37-.49,5.29-1.48,5.33-1.36Z"/><circle class="cls-22" cx="617.87" cy="429.05" r="3.4"/></g><g><g><path class="cls-27" d="M655.71,212.51c2.54-6.28,5.06-12.62,6.48-19.25,1.42-6.63,1.7-13.62-.21-20.12-.29-.99-2.88-7.64-3.91-7.62-.73,.02,.72,6.17,.31,6.77-3.94,5.8-5.4,13-5.33,20.01,.07,7.01,1.09,13.38,2.66,20.21"/><path class="cls-20" d="M615.16,247.33c.28-4.78,.49-8.55,.46-8.56,0,0-16.27-2.8-16.21-19.11,.03-7.88,1.41-24.09,2.83-38.76,1.53-15.77,14.91-27.72,30.75-27.46l1.57,.03c16.95,1.27,25.35,16.37,23.61,33.28l-4.18,59.35-12.47,12.91c-9.94,10.29-27.31,2.59-26.36-11.68h0Z"/><path class="cls-21" d="M615.62,238.78s10.27,.77,21.34-5.93c0,0-5.37,11.78-21.62,10.05l.28-4.11Z"/><path class="cls-27" d="M606.1,195.29c-.06,1.23,.93,2.3,2.21,2.39,1.28,.09,2.37-.83,2.43-2.06,.06-1.23-.92-2.3-2.21-2.39-1.28-.09-2.37,.83-2.44,2.06Z"/><path class="cls-27" d="M605.62,187.72c.28,.31,2.07-.97,4.58-.92,2.5,.01,4.32,1.33,4.6,1.03,.14-.13-.15-.69-.94-1.28-.78-.59-2.11-1.18-3.68-1.2-1.56-.02-2.88,.54-3.65,1.11-.78,.58-1.05,1.12-.91,1.26Z"/><path class="cls-27" d="M628.44,196.68c-.06,1.23,.93,2.3,2.21,2.39,1.28,.09,2.37-.83,2.43-2.06,.06-1.23-.93-2.3-2.21-2.39-1.28-.09-2.37,.83-2.44,2.06Z"/><path class="cls-27" d="M628.94,188.98c.28,.31,2.07-.97,4.58-.92,2.5,.01,4.32,1.33,4.6,1.03,.14-.13-.15-.69-.94-1.28-.78-.59-2.11-1.18-3.68-1.2-1.56-.02-2.88,.54-3.65,1.11-.78,.58-1.05,1.12-.91,1.26Z"/><path class="cls-27" d="M620.85,208.25c.01-.14-1.54-.44-4.06-.8-.64-.08-1.24-.21-1.34-.65-.14-.46,.14-1.15,.46-1.89,.63-1.54,1.28-3.15,1.97-4.84,2.74-6.9,4.74-12.57,4.46-12.68-.28-.11-2.73,5.39-5.47,12.29-.66,1.7-1.29,3.32-1.89,4.87-.25,.72-.68,1.54-.37,2.51,.16,.48,.63,.84,1.04,.95,.41,.13,.77,.14,1.08,.17,2.54,.18,4.11,.21,4.13,.07Z"/><path class="cls-27" d="M629.29,180.54c.35,.64,2.77-.06,5.73-.16,2.96-.16,5.43,.33,5.73-.33,.13-.32-.38-.89-1.43-1.39-1.04-.51-2.63-.9-4.41-.82-1.77,.08-3.33,.6-4.32,1.19-1,.59-1.46,1.21-1.3,1.51Z"/><path class="cls-27" d="M606.51,178.96c.43,.58,2.17,.01,4.24,.02,2.08-.07,3.83,.44,4.24-.14,.18-.29-.09-.86-.84-1.41-.75-.55-2.01-1.01-3.43-.99-1.43,.02-2.67,.52-3.4,1.09-.74,.57-.99,1.16-.8,1.44Z"/><path class="cls-20" d="M656.65,198.81c.28-.12,11.26-3.13,10.72,8.01-.54,11.14-11.62,8.31-11.62,7.99,0-.32,.9-16,.9-16Z"/><path class="cls-21" d="M659.36,210.75c.05-.03,.19,.15,.51,.31,.31,.16,.86,.29,1.45,.1,1.2-.38,2.28-2.2,2.43-4.2,.08-1.01-.09-1.99-.41-2.81-.3-.83-.8-1.43-1.39-1.56-.58-.16-1.02,.17-1.17,.48-.16,.3-.1,.53-.16,.55-.03,.03-.23-.2-.12-.65,.06-.22,.2-.48,.47-.68,.28-.2,.68-.3,1.09-.23,.86,.1,1.59,.93,1.94,1.83,.4,.9,.61,2,.52,3.14-.18,2.24-1.43,4.29-3.06,4.68-.79,.17-1.44-.1-1.76-.38-.33-.29-.38-.54-.34-.56Z"/><path class="cls-27" d="M610.5,162.85c-1.75-1.1,4-6.63,8.54-8.39,6.87-2.66,17.2-3.94,23.27-1.84,7.31,2.53,13.28,6.58,16.62,13.56,3.35,6.98,4.3,14.94,3.64,22.65-.2,2.35-.58,4.79-1.96,6.72-1.7,2.37-4.77,3.76-4.83,7.16-.02,1.24-.45,2.48-1.35,3.33-2.16,2.05-4.54-.13-5.57-2.23-2.2-4.5-2.18-9.73-2.11-14.74,.05-3.56,.11-7.2,1.31-10.55,.65-1.83,1.63-3.53,2.17-5.39,.55-1.86,.61-4-.47-5.61-.18-.26-.47-.59-.85-.97-3-2.94-7.37-4.02-11.4-2.85-6.4,1.86-17.3,4.57-19.98,2.28-3.85-3.29-4.7-5.34-4.7-5.34l-2.35,2.21Z"/></g><path class="cls-27" d="M621.3,216.91c-.01,.2,.55,.45,1.52,.42,.96-.02,2.3-.4,3.49-1.29,1.19-.89,1.95-2.05,2.25-2.96,.31-.92,.24-1.53,.04-1.57-.43-.11-1.21,1.87-3.21,3.3-1.96,1.5-4.07,1.67-4.1,2.1Z"/></g><g><g><path class="cls-20" d="M518.68,299.46c-2.28-3.75-4.99-7.84-4.99-7.84l-2.21-3.76c-.19,.22-.35,.47-.5,.72-.28,.47-.58,.98-1.06,1.25-.91,.52-2.09,.01-2.87-.7-1.64-1.48-2.4-3.86-1.92-6,.46-2.06,2.06-3.8,4.05-4.48,.27-.49,.63-.96,1.15-1.38,3.18-2.59,8.87-.83,8.87-.83l-.59-1.42s-3.4-3.36-10.89-.73c-1.12,.39-2.37,.41-3.47-.05-.67-.28-1.29-.73-1.53-1.47-.59-1.84,.56-2.73,5.21-4.43,4.66-1.7,9.72-1.81,12.51,.02,2.79,1.83,3.77,2.72,3.77,2.72,0,0-4.58-13.16-4.84-14.01-.74-2.44-.27-4.81,1.31-5.46,1.02-.41,2.6-.18,3.55,2.64,.82,2.44,12.44,26.37,12.44,26.37l4.52,10.89,2.27,9.58-16.31,4.6-1.18-.4c-3.04-1.03-5.63-3.09-7.3-5.83Z"/><g><path class="cls-20" d="M538.72,291.32c-1.26,.84-3.02,.29-4.18-.69-1.16-.98-1.96-2.32-3.05-3.37-3.26-3.16-8.63-3.42-11.73-6.73-.43-.46-.82-1.17-.46-1.68,.33-.48,1.05-.42,1.62-.31,4.92,.92,9.85,1.85,14.77,2.77"/><path class="cls-21" d="M535.69,281.31c.01-.06-.55-.22-1.57-.46-1.02-.24-2.5-.57-4.33-.95-1.91-.39-4.08-.82-6.44-1.3-.61-.12-1.23-.24-1.86-.36-.6-.07-1.35-.43-2.25,.09-.43,.28-.59,.9-.46,1.34,.11,.44,.34,.78,.59,1.08,.52,.54,1.06,1.03,1.68,1.45,2.48,1.67,5.18,2.34,7.34,3.44,1.09,.53,2.06,1.15,2.83,1.87,.77,.72,1.38,1.55,2.02,2.26,1.22,1.48,2.84,2.2,3.94,2.15,1.13-.03,1.58-.57,1.54-.57-.04-.08-.53,.32-1.54,.24-1.01-.06-2.37-.74-3.49-2.21-.59-.7-1.17-1.56-1.99-2.37-.81-.81-1.84-1.49-2.97-2.07-2.23-1.18-4.92-1.89-7.21-3.44-.57-.38-1.08-.84-1.53-1.3-.42-.46-.57-1.02-.28-1.18,.29-.22,.97-.1,1.6,.03,.64,.11,1.26,.23,1.87,.34,2.38,.41,4.56,.79,6.48,1.12,1.85,.31,3.34,.54,4.38,.68,1.04,.14,1.62,.19,1.63,.14Z"/></g><path class="cls-21" d="M519.4,276.45c-.1,.06-.31-1.17-1.73-2.25-.69-.53-1.7-.9-2.86-.91-1.16-.03-2.43,.26-3.74,.66-1.32,.4-2.6,.8-3.84,.9-1.23,.1-2.37-.04-3.24-.47-.89-.42-1.32-1.19-1.41-1.7-.09-.52-.02-.81,0-.81,.05,0,.05,.29,.2,.75,.15,.46,.56,1.08,1.36,1.41,.79,.34,1.87,.44,3.03,.32,1.16-.12,2.4-.53,3.73-.93,1.33-.41,2.67-.7,3.92-.64,1.25,.04,2.37,.49,3.09,1.11,.73,.61,1.12,1.3,1.31,1.78,.19,.49,.21,.78,.18,.78Z"/><path class="cls-21" d="M519.11,256.13c.08-.02,.4,.99,.93,2.61,.59,1.81,1.29,3.96,2.07,6.34,.81,2.37,1.55,4.51,2.17,6.31,.56,1.61,.91,2.61,.83,2.64-.07,.03-.54-.92-1.2-2.51-.66-1.58-1.49-3.8-2.33-6.27-.83-2.48-1.5-4.75-1.92-6.4-.43-1.66-.62-2.7-.55-2.72Z"/><path class="cls-21" d="M517.43,280.41s-.32,0-.87-.04c-.52-.03-1.41-.07-2.06,.57-.32,.31-.43,.79-.31,1.32,.11,.53,.41,1.06,.7,1.66,.29,.59,.6,1.35,.39,2.17-.22,.79-.87,1.43-1.66,1.71-.81,.29-1.69,.14-2.37-.21-.69-.36-1.25-.87-1.6-1.51-.63-1.23-.91-2.4-1.09-3.39-.17-1-.17-1.83-.07-2.39,.11-.56,.3-.83,.32-.82,.05,.02-.07,.31-.11,.85-.04,.54,.02,1.34,.24,2.29,.22,.95,.55,2.1,1.15,3.22,.59,1.02,2.03,1.91,3.33,1.45,.64-.22,1.16-.74,1.33-1.33,.17-.6-.05-1.23-.32-1.81-.27-.58-.59-1.17-.69-1.8-.14-.62,.05-1.32,.49-1.68,.86-.75,1.84-.59,2.36-.51,.56,.11,.85,.22,.84,.26Z"/><path class="cls-21" d="M511.33,287.12s.19,.24,.18,.77c-.01,.51-.27,1.31-1.07,1.86-.79,.53-2.07,.64-3.19,.06-1.13-.57-2.01-1.72-2.47-3.05-.45-1.34-.43-2.74-.07-3.89,.36-1.17,1.05-2.06,1.72-2.67,.68-.61,1.34-.94,1.81-1.12,.47-.17,.75-.2,.76-.17,.05,.1-1.08,.35-2.3,1.57-.6,.6-1.2,1.46-1.5,2.53-.31,1.07-.31,2.35,.1,3.57,.41,1.22,1.21,2.25,2.18,2.77,.96,.53,2.06,.47,2.75,.06,.7-.42,1-1.1,1.07-1.55,.07-.46-.01-.74,.03-.75Z"/><path class="cls-21" d="M523.41,292.94s.42-.3,1.27-.4c.83-.1,2.1,0,3.31,.76l-.4,.28c-.13-.57-.24-1.2-.3-1.85-.39-3.65,.74-6.48,.86-6.4,.17,.04-.68,2.84-.31,6.35,.06,.63,.16,1.24,.27,1.8l.12,.62-.52-.34c-1.07-.7-2.22-.87-3.01-.87-.8,0-1.27,.14-1.29,.07Z"/><path class="cls-21" d="M515.55,270.56c.15,.02-.04,1.13-1.04,2.01-.98,.89-2.12,.96-2.12,.81-.04-.16,.9-.44,1.75-1.22,.87-.76,1.25-1.65,1.41-1.6Z"/></g><path class="cls-14" d="M611.01,250.74s-8.3,1-9.2,1.06c-7,.43-18.42,4.57-23.79,14.59-3.91,7.31-11.37,37.06-13.36,45.1l-2.89,9.47-17.49-27.75-24.86,14.18s25.83,62.49,42.55,62.49c16.73,0,24.47-16.69,24.47-16.69l-.26-37.58,24.84-64.86Z"/><path class="cls-27" d="M579.65,276.86s-.05,.29-.07,.84c-.01,.64-.03,1.44-.05,2.41-.03,2.1,0,5.13,.06,8.88,.14,7.5,.59,17.84,1.23,29.25,.64,11.42,1.19,21.75,1.47,29.23,.13,3.65,.24,6.65,.32,8.86,.04,.97,.08,1.77,.11,2.41,.03,.55,.06,.84,.09,.84,.03,0,.05-.29,.07-.84,.01-.64,.03-1.44,.05-2.41,.03-2.1,0-5.13-.06-8.88-.14-7.5-.59-17.84-1.23-29.26-.64-11.41-1.18-21.74-1.47-29.23-.13-3.65-.24-6.65-.32-8.86l-.11-2.41c-.03-.55-.06-.84-.09-.84Z"/></g><g><path class="cls-14" d="M709.14,281.6c-4.25-18.99-25.24-24.26-25.24-24.26l-7.13,68.55,4.42,11.13,37.56-8.11s-4.29-23.49-9.61-47.3Z"/><path class="cls-14" d="M674.63,320.29l14.03,13.53-4.53-25.87,28.49-9.01s7.57,35.5,8.88,43.9c2.36,15.07-.54,36.48-14.58,37.99-15.19,1.63-26.66-13.35-33.96-23.18-5.61-7.56-14.67-20.77-14.67-20.77l16.34-16.58"/><path class="cls-14" d="M688.67,366.11l-1.11-32.2,1.68-74.62-29.92-13.61-3.96-11.71-33.45,14.91-6.71-7.03-3.87,7.52-11.92,2.69-9.73,27.53-8.25,21.68s2.38,75.17,4.44,102.75c.27,3.62-4.44,5.19,.78,9.22,0,0,7.83,4.6,24.81,5.04,48.3,1.26,77.98-6.45,79.55-7.16h0c2.21-2.17,3.33-5.24,2.94-8.32-.14-1.14-.38-2.37-.6-3.92l-4.67-32.76"/><path class="cls-27" d="M609.84,420.53s-.04-.14-.06-.41c-.02-.33-.05-.73-.09-1.22-.06-1.15-.15-2.71-.26-4.68-.18-4.15-.44-10.02-.76-17.22-.54-14.55-1.23-34.66-1-56.9,.14-11.12,.51-21.73,1.57-31.33,1.11-9.59,2.76-18.12,4.24-25.25,1.51-7.13,2.89-12.85,3.85-16.8,.48-1.91,.86-3.43,1.14-4.54,.13-.47,.23-.86,.32-1.18,.08-.26,.12-.4,.14-.39,.02,0,0,.14-.05,.42-.06,.33-.14,.72-.23,1.2-.24,1.13-.57,2.66-.98,4.58-.86,3.98-2.14,9.72-3.57,16.86-1.4,7.13-2.98,15.66-4.04,25.21-1.01,9.55-1.36,20.14-1.5,31.24-.23,22.21,.36,42.31,.74,56.86,.2,7.21,.36,13.08,.47,17.23,.04,1.97,.07,3.53,.09,4.69,0,.49,0,.89,0,1.22,0,.28-.01,.42-.03,.42Z"/><path class="cls-27" d="M631.85,295.43s.66-.01,1.98,.06c1.43,.09,3.37,.2,5.78,.35,5.16,.35,12.38,.85,21.07,1.44l.4,.03-.03,.4c-.73,9.65-1.6,21.21-2.54,33.68l-.02,.22-.18,.13c-.99,.71-2.05,1.44-3.15,2.15-1.94,1.26-3.9,2.42-5.92,3.43-2.03,.97-4.11,1.93-6.42,2.07-2.28,.14-4.46-.54-6.37-1.48-1.9-.96-3.61-2.16-5.15-3.44-.77-.64-1.52-1.29-2.23-1.96-.33-.3-.78-.74-1-1.21-.27-.46-.41-.94-.56-1.42-.48-1.91-.53-3.77-.52-5.56,.07-3.57,.47-6.85,.89-9.84,.87-5.97,1.9-10.73,2.65-14.01,.38-1.64,.69-2.91,.92-3.76,.23-.85,.37-1.3,.4-1.29,.03,.01-.04,.47-.21,1.34-.19,.96-.43,2.22-.74,3.8-.63,3.3-1.56,8.08-2.33,14.03-.38,2.97-.73,6.25-.76,9.75,0,1.74,.08,3.57,.53,5.32,.27,.89,.59,1.6,1.33,2.21,.71,.65,1.44,1.29,2.21,1.91,1.52,1.24,3.18,2.4,4.99,3.31,1.82,.88,3.84,1.49,5.9,1.36,2.05-.11,4.07-1.03,6.05-1.98,1.97-.99,3.91-2.14,5.83-3.38,1.08-.7,2.14-1.42,3.1-2.12l-.2,.35c1-12.47,1.93-24.02,2.71-33.67l.37,.43c-8.59-.75-15.71-1.38-20.81-1.82-2.44-.23-4.4-.42-5.85-.56-.62-.07-1.13-.12-1.56-.17-.36-.04-.55-.07-.56-.09Z"/><path class="cls-27" d="M660.43,306.41c-.02,.27-6.86-.05-15.27-.7-8.41-.66-15.22-1.4-15.19-1.67,.02-.27,6.86,.05,15.27,.7,8.41,.66,15.21,1.41,15.19,1.67Z"/><g class="cls-18"><path d="M628.51,331.22c1.65,2.71,3.18,6.43,5.42,8.67,2.25,2.24,5.16,3.96,8.33,4.14,2.79,.16,5.53-.87,7.9-2.35,3.82-2.39,6.17-6.16,7.87-10.33,.24-.3-5.47,3.5-8.57,5.15-3.1,1.65-5.27,2.17-8.77,1.88-4.59-.37-8.7-4.16-12.19-7.17"/></g><g class="cls-18"><polygon points="622.47 251.05 623.7 266.73 656.99 246.79 624.87 263.74 622.47 251.05"/></g><path class="cls-6" d="M615.47,269.93s-8.87,35.75-12.19,79.56c-1.41,18.59-2.45,43.22-2.45,43.22l10.79,13.36,12.89-12.8s-2.62-53.47-2.57-71.39c.05-14.43-.54-51.66-.54-51.66l-5.94-.3Z"/><path class="cls-27" d="M679.89,293.21s.15,.53,.34,1.49c.19,1.06,.44,2.43,.74,4.09,.61,3.55,1.42,8.28,2.32,13.51,.92,5.28,1.7,10.07,2.22,13.54,.26,1.74,.46,3.14,.58,4.12,.13,.97,.18,1.52,.14,1.52-.03,0-.15-.53-.34-1.49-.19-1.05-.44-2.43-.74-4.09-.62-3.54-1.45-8.28-2.36-13.51-.91-5.28-1.66-10.07-2.18-13.54-.24-1.67-.43-3.06-.58-4.12-.13-.97-.18-1.52-.14-1.52Z"/><path class="cls-27" d="M690.73,261.45c.06,.07-.99,.88-2.46,2.4-1.48,1.51-3.33,3.8-4.86,6.65-1.52,2.85-2.41,5.66-2.86,7.72-.45,2.07-.56,3.39-.65,3.38-.04,0-.04-.33,0-.93,.02-.6,.12-1.46,.3-2.52,.36-2.11,1.21-4.99,2.77-7.89,1.56-2.89,3.5-5.19,5.06-6.66,.78-.74,1.44-1.3,1.93-1.64,.48-.35,.76-.54,.78-.51Z"/><polygon class="cls-6" points="622.2 256.13 618.86 255.39 615.61 261.24 615.47 269.93 621.41 270.23 625.09 263.34 622.2 256.13"/><path class="cls-27" d="M619.39,271.71c-.07,.12-.9-.27-1.85-.87-.94-.6-1.65-1.18-1.58-1.29,.07-.12,.9,.27,1.85,.87,.94,.6,1.65,1.18,1.58,1.29Z"/><path class="cls-27" d="M620.16,269.07c-.13,.06-1.12-1.91-2.21-4.4-1.09-2.49-1.87-4.55-1.75-4.6s1.12,1.91,2.21,4.4c1.09,2.49,1.87,4.55,1.75,4.6Z"/><g class="cls-18"><path d="M661.41,347.38s8.18,7.75,11.63,13.76c2.43,4.24,9.3,9.89,17.05,14.85l1.21,8.48c-4.3-.85-11.84-6.44-14.74-9.71-2.91-3.28-5.97-6.7-8.11-10.52-3.92-7-9.29-13.73-10.67-21.63l3.65,4.78Z"/></g><path class="cls-27" d="M688.99,375.13s-.24-.21-.72-.55c-.48-.36-1.23-.81-2.13-1.5-1.8-1.38-4.36-3.48-7.31-6.37-5.91-5.78-13.54-14.55-21.39-25.21l.05,.38c1.53-3.7,3.12-7.55,4.75-11.5,1.98-4.82,3.9-9.49,5.69-13.86l-.62,.15c18.67,15.79,30.72,25.99,33.5,28.33,.02,0-.15-.25-.56-.65-.4-.39-.99-.96-1.78-1.68-1.58-1.45-3.9-3.52-6.84-6.09-5.87-5.15-14.18-12.31-23.81-20.51l-.41-.35-.21,.5c-1.8,4.36-3.73,9.03-5.72,13.85-1.63,3.96-3.21,7.81-4.73,11.51l-.09,.21,.13,.18c7.92,10.68,15.64,19.4,21.68,25.11,3.01,2.86,5.64,4.91,7.51,6.23,.93,.66,1.71,1.08,2.22,1.4,.51,.3,.79,.45,.8,.43Z"/><g><path class="cls-27" d="M575.54,292.04l11.71,44.25c.65,2.45,2.89,4.14,5.43,4.09l60.66-1.19c3.45-.07,5.99-3.26,5.28-6.64l-8.93-42.38c-.54-2.55-2.78-4.37-5.39-4.37h-63.96c-3.26,0-5.63,3.08-4.8,6.23Z"/><path class="cls-22" d="M655.39,336.46s-.04-.1-.09-.29c-.05-.22-.12-.5-.21-.86-.18-.79-.44-1.9-.76-3.3-.64-2.91-1.56-7.06-2.69-12.16-1.12-5.15-2.45-11.26-3.92-18.05-.73-3.4-1.5-6.97-2.3-10.66-.14-.87-.74-1.61-1.56-1.92-.41-.16-.83-.16-1.33-.15-.48,0-.97,0-1.46,0-1.95,0-3.94,0-5.94,0-16.03-.03-30.54-.06-41.09-.08-5.23-.04-9.47-.07-12.45-.09-1.44-.02-2.57-.04-3.39-.05-.36-.01-.65-.02-.88-.03-.2,0-.3-.02-.3-.03s.1-.02,.3-.03l.88-.03c.81-.01,1.95-.03,3.39-.05,2.98-.02,7.23-.05,12.45-.09,10.55-.02,25.06-.05,41.09-.08,2.01,0,3.99,0,5.94,0,.49,0,.97,0,1.46,0,.46,0,1.03-.01,1.52,.19,1,.36,1.74,1.31,1.9,2.31,.79,3.7,1.54,7.27,2.26,10.67,1.43,6.79,2.72,12.92,3.8,18.07,1.06,5.12,1.92,9.28,2.52,12.2,.28,1.41,.5,2.52,.66,3.32,.06,.36,.12,.64,.16,.87,.03,.2,.04,.3,.04,.3Z"/></g><path class="cls-14" d="M616.98,300.82c.65,1.76-.15,3.68-1.78,4.28-1.63,.6-3.48-.35-4.12-2.11-.65-1.76,.15-3.68,1.78-4.28,1.63-.6,3.48,.35,4.12,2.11Z"/><g><g><path class="cls-20" d="M669.61,319.67l-2.88-2.69s-1.91-6.35-3.12-7.56c-1.2-1.2-4.43-2.1-4.43-2.1l-7.24-6.65,1.32,5.93-10.51-.08c-1.23,0-2.43,.68-2.86,1.84-.08,.21-.12,.41-.09,.58,.3,1.96,2.1,2.75,2.1,2.75l1.51,.71s-2.2,.64-2.48,2.58c-.38,2.68,2.19,3.54,2.19,3.54,0,0-2.58,1.16-1.1,4.25,0,0-2.4,2.85-1.01,4.78,1.39,1.93,9.36,5.16,9.36,5.16l4.42,2.01c1.08,.31,2.21,.37,3.31,.19l1.73,.24,1.84,1.53s10.54-5.76,7.94-17.01Z"/><path class="cls-21" d="M658.29,315.11c0,.08-.92,.12-2.39,.02-1.47-.09-3.5-.33-5.7-.77-2.21-.45-4.17-1.01-5.56-1.5-1.39-.48-2.22-.87-2.19-.95,.06-.18,3.5,.95,7.87,1.83,4.36,.89,7.97,1.18,7.96,1.37Z"/><path class="cls-21" d="M661.17,323.39c-.05,.17-4.12-.79-9.11-2.13-4.99-1.35-8.99-2.57-8.94-2.74,.05-.17,4.12,.79,9.11,2.13,4.98,1.35,8.99,2.57,8.94,2.74Z"/><path class="cls-21" d="M660.33,329.58c-.01,.08-1.13-.02-2.91-.38-1.78-.35-4.21-.99-6.81-1.95-2.6-.97-4.86-2.07-6.44-2.96-1.58-.89-2.5-1.54-2.45-1.61,.05-.08,1.04,.43,2.66,1.22,1.62,.78,3.88,1.81,6.45,2.76,2.57,.95,4.95,1.65,6.69,2.11,1.74,.46,2.83,.72,2.81,.81Z"/><path class="cls-21" d="M662.29,321.58c-.17-.06,.17-1.23-.09-2.66-.22-1.43-.92-2.43-.78-2.54,.11-.13,1.14,.81,1.4,2.44,.28,1.62-.39,2.85-.54,2.76Z"/><path class="cls-21" d="M662.4,313.95c-.12-.13,.43-.78,.51-1.76,.12-.97-.28-1.72-.14-1.83,.06-.05,.28,.08,.48,.42,.2,.33,.35,.87,.29,1.47-.06,.6-.32,1.1-.59,1.38-.26,.29-.5,.37-.55,.31Z"/><path class="cls-21" d="M661.69,329.22c-.13-.12,.28-.77,.53-1.65,.27-.87,.27-1.64,.45-1.67,.16-.04,.46,.82,.16,1.85-.3,1.03-1.02,1.6-1.13,1.47Z"/></g><path class="cls-21" d="M645.46,306.58c.01,.23,2.77,.26,6.15,.5,3.38,.23,6.11,.59,6.16,.36,.04-.21-2.66-.93-6.1-1.17-3.43-.25-6.22,.09-6.2,.3Z"/></g><path class="cls-27" d="M611.93,250.82s.12,.25,.3,.73c.19,.54,.44,1.25,.75,2.13,.65,1.92,1.56,4.6,2.68,7.89l-.36-.03c1.75-3.31,3.88-7.32,6.24-11.77l.32-.61,.15,.67c.91,4.02,1.91,8.43,2.95,13.03,.05,.24,.11,.49,.16,.71l-.39-.18c9.14-4.79,17.39-9.11,23.42-12.26,2.96-1.52,5.37-2.76,7.1-3.65,.81-.4,1.45-.72,1.94-.97,.45-.22,.68-.32,.69-.3,0,.02-.21,.15-.64,.4-.48,.27-1.11,.62-1.89,1.06-1.71,.93-4.09,2.22-7.02,3.8-6,3.19-14.22,7.56-23.34,12.41l-.32,.17-.08-.35-.16-.71c-1.03-4.6-2.02-9.01-2.92-13.04l.47,.06c-2.4,4.43-4.57,8.42-6.35,11.71l-.22,.4-.14-.43c-1.05-3.32-1.9-6.01-2.52-7.94-.27-.9-.49-1.62-.66-2.16-.14-.5-.21-.76-.19-.76Z"/></g></g><rect class="cls-6" x="214.21" y="302.69" width="313.45" height="56.22" rx="24.19" ry="24.19"/><g><path class="cls-11" d="M268.97,309.36l6.06,12.28c.1,.2,.29,.34,.52,.37l13.55,1.97c.56,.08,.79,.77,.38,1.17l-9.8,9.55c-.16,.16-.23,.38-.2,.61l2.31,13.49c.1,.56-.49,.99-.99,.72l-12.12-6.37c-.2-.1-.44-.1-.64,0l-12.12,6.37c-.5,.26-1.09-.16-.99-.72l2.31-13.49c.04-.22-.04-.45-.2-.61l-9.8-9.55c-.41-.4-.18-1.09,.38-1.17l13.55-1.97c.22-.03,.42-.17,.52-.37l6.06-12.28c.25-.51,.98-.51,1.23,0Z"/><path class="cls-5" d="M268.36,312.19l-5.4,10.46c-.28,.55-.83,.91-1.44,.97l-11.72,1.07,12.38,.58c.79,.04,1.51-.44,1.78-1.18l4.4-11.9Z"/><path class="cls-9" d="M255.2,347.24l-.27,1.55c-.1,.56,.49,.99,.99,.72l12.12-6.37c.2-.1,.44-.1,.64,0l12.12,6.37c.5,.26,1.09-.16,.99-.72l-2.31-13.49c-.04-.22,.04-.45,.2-.61l9.8-9.55c.41-.4,.18-1.09-.38-1.17l-4.54-.66c-7.34,13.17-18.58,20.1-29.36,23.93Z"/></g><g><path class="cls-11" d="M320.02,309.36l6.06,12.28c.1,.2,.29,.34,.52,.37l13.55,1.97c.56,.08,.79,.77,.38,1.17l-9.8,9.55c-.16,.16-.23,.38-.2,.61l2.31,13.49c.1,.56-.49,.99-.99,.72l-12.12-6.37c-.2-.1-.44-.1-.64,0l-12.12,6.37c-.5,.26-1.09-.16-.99-.72l2.31-13.49c.04-.22-.04-.45-.2-.61l-9.8-9.55c-.41-.4-.18-1.09,.38-1.17l13.55-1.97c.22-.03,.42-.17,.52-.37l6.06-12.28c.25-.51,.98-.51,1.23,0Z"/><path class="cls-5" d="M319.4,312.19l-5.4,10.46c-.28,.55-.83,.91-1.44,.97l-11.72,1.07,12.38,.58c.79,.04,1.51-.44,1.78-1.18l4.4-11.9Z"/><path class="cls-9" d="M306.24,347.24l-.27,1.55c-.1,.56,.49,.99,.99,.72l12.12-6.37c.2-.1,.44-.1,.64,0l12.12,6.37c.5,.26,1.09-.16,.99-.72l-2.31-13.49c-.04-.22,.04-.45,.2-.61l9.8-9.55c.41-.4,.18-1.09-.38-1.17l-4.54-.66c-7.34,13.17-18.58,20.1-29.36,23.93Z"/></g><g class="cls-17"><path class="cls-14" d="M370.42,309.36l6.06,12.28c.1,.2,.29,.34,.52,.37l13.55,1.97c.56,.08,.79,.77,.38,1.17l-9.8,9.55c-.16,.16-.23,.38-.2,.61l2.31,13.49c.1,.56-.49,.99-.99,.72l-12.12-6.37c-.2-.1-.44-.1-.64,0l-12.12,6.37c-.5,.26-1.09-.16-.99-.72l2.31-13.49c.04-.22-.04-.45-.2-.61l-9.8-9.55c-.41-.4-.18-1.09,.38-1.17l13.55-1.97c.22-.03,.42-.17,.52-.37l6.06-12.28c.25-.51,.98-.51,1.23,0Z"/><path class="cls-14" d="M369.8,312.19l-5.4,10.46c-.28,.55-.83,.91-1.44,.97l-11.72,1.07,12.38,.58c.79,.04,1.51-.44,1.78-1.18l4.4-11.9Z"/><path class="cls-14" d="M356.64,347.24l-.27,1.55c-.1,.56,.49,.99,.99,.72l12.12-6.37c.2-.1,.44-.1,.64,0l12.12,6.37c.5,.26,1.09-.16,.99-.72l-2.31-13.49c-.04-.22,.04-.45,.2-.61l9.8-9.55c.41-.4,.18-1.09-.38-1.17l-4.54-.66c-7.34,13.17-18.58,20.1-29.36,23.93Z"/></g><g><path class="cls-11" d="M355.74,245.41l6.06,12.28c.1,.2,.29,.34,.52,.37l13.55,1.97c.56,.08,.79,.77,.38,1.17l-9.8,9.55c-.16,.16-.23,.38-.2,.61l2.31,13.49c.1,.56-.49,.99-.99,.72l-12.12-6.37c-.2-.1-.44-.1-.64,0l-12.12,6.37c-.5,.26-1.09-.16-.99-.72l2.31-13.49c.04-.22-.04-.45-.2-.61l-9.8-9.55c-.41-.4-.18-1.09,.38-1.17l13.55-1.97c.22-.03,.42-.17,.52-.37l6.06-12.28c.25-.51,.98-.51,1.23,0Z"/><path class="cls-5" d="M355.13,248.24l-5.4,10.46c-.28,.55-.83,.91-1.44,.97l-11.72,1.07,12.38,.58c.79,.04,1.51-.44,1.78-1.18l4.4-11.9Z"/><path class="cls-9" d="M341.97,283.29l-.27,1.55c-.1,.56,.49,.99,.99,.72l12.12-6.37c.2-.1,.44-.1,.64,0l12.12,6.37c.5,.26,1.09-.16,.99-.72l-2.31-13.49c-.04-.22,.04-.45,.2-.61l9.8-9.55c.41-.4,.18-1.09-.38-1.17l-4.54-.66c-7.34,13.17-18.58,20.1-29.36,23.93Z"/></g><g><path class="cls-11" d="M422.11,309.36l6.06,12.28c.1,.2,.29,.34,.52,.37l13.55,1.97c.56,.08,.79,.77,.38,1.17l-9.8,9.55c-.16,.16-.23,.38-.2,.61l2.31,13.49c.1,.56-.49,.99-.99,.72l-12.12-6.37c-.2-.1-.44-.1-.64,0l-12.12,6.37c-.5,.26-1.09-.16-.99-.72l2.31-13.49c.04-.22-.04-.45-.2-.61l-9.8-9.55c-.41-.4-.18-1.09,.38-1.17l13.55-1.97c.22-.03,.42-.17,.52-.37l6.06-12.28c.25-.51,.98-.51,1.23,0Z"/><path class="cls-5" d="M421.5,312.19l-5.4,10.46c-.28,.55-.83,.91-1.44,.97l-11.72,1.07,12.38,.58c.79,.04,1.51-.44,1.78-1.18l4.4-11.9Z"/><path class="cls-9" d="M408.34,347.24l-.27,1.55c-.1,.56,.49,.99,.99,.72l12.12-6.37c.2-.1,.44-.1,.64,0l12.12,6.37c.5,.26,1.09-.16,.99-.72l-2.31-13.49c-.04-.22,.04-.45,.2-.61l9.8-9.55c.41-.4,.18-1.09-.38-1.17l-4.54-.66c-7.34,13.17-18.58,20.1-29.36,23.93Z"/></g><g><path class="cls-11" d="M471.87,307.74l6.06,12.28c.1,.2,.29,.34,.52,.37l13.55,1.97c.56,.08,.79,.77,.38,1.17l-9.8,9.55c-.16,.16-.23,.38-.2,.61l2.31,13.49c.1,.56-.49,.99-.99,.72l-12.12-6.37c-.2-.1-.44-.1-.64,0l-12.12,6.37c-.5,.26-1.09-.16-.99-.72l2.31-13.49c.04-.22-.04-.45-.2-.61l-9.8-9.55c-.41-.4-.18-1.09,.38-1.17l13.55-1.97c.22-.03,.42-.17,.52-.37l6.06-12.28c.25-.51,.98-.51,1.23,0Z"/><path class="cls-5" d="M471.25,310.58l-5.4,10.46c-.28,.55-.83,.91-1.44,.97l-11.72,1.07,12.38,.58c.79,.04,1.51-.44,1.78-1.18l4.4-11.9Z"/><path class="cls-9" d="M458.09,345.63l-.27,1.55c-.1,.56,.49,.99,.99,.72l12.12-6.37c.2-.1,.44-.1,.64,0l12.12,6.37c.5,.26,1.09-.16,.99-.72l-2.31-13.49c-.04-.22,.04-.45,.2-.61l9.8-9.55c.41-.4,.18-1.09-.38-1.17l-4.54-.66c-7.34,13.17-18.58,20.1-29.36,23.93Z"/></g><g><path class="cls-20" d="M399.93,237.09s-29.11,8.45-29.94,8.93-12.29,8.64-12.51,11.59c-.22,2.95,3.65,16.14,3.65,16.14,0,0,3.93,.56,4.22-6.49l.29-7.05,4.83-4.33s-1.78,8.15-1.33,10.46c.45,2.3,4.28,8.13,6.42,7.67,2.14-.46,3.32-1.92,3.32-1.92,0,0,1.88,5.19,7.34,2.14,0,0,3.58,1.5,6.4,.08,2.81-1.43,5.36-5.97,5.36-5.97,0,0,.21-2.78-2.74-2.67-2.95,.11-5.62,2.2-5.62,2.2l-.28-2.96s3.52-4.29,7.17-6.48c2.3-1.38,11.83-1.6,14.79-4.61,2.51-2.55-2.23-8.18-5.38-9.88h0c-.47-.26-.98-.44-1.51-.55l-4.48-6.28Z"/><path class="cls-10" d="M383.41,260.58s-.14,.17-.32,.52c-.18,.35-.41,.87-.62,1.54-.42,1.33-.69,3.32-.23,5.43,.46,2.11,1.54,3.81,2.48,4.83,.47,.52,.9,.9,1.21,1.13,.31,.24,.49,.35,.51,.34,.04-.04-.67-.55-1.55-1.61-.88-1.05-1.9-2.71-2.35-4.76-.45-2.05-.23-3.99,.14-5.31,.36-1.33,.78-2.09,.73-2.11Z"/><path class="cls-10" d="M377.94,256.41s-.14,.19-.33,.56c-.1,.18-.22,.41-.33,.69-.11,.27-.26,.58-.37,.94-.26,.7-.48,1.57-.65,2.55-.15,.98-.23,2.07-.19,3.22,.06,1.15,.24,2.23,.48,3.19,.26,.96,.56,1.8,.88,2.48,.14,.35,.32,.64,.46,.9,.14,.26,.27,.48,.39,.65,.23,.35,.37,.54,.38,.52,.05-.03-.46-.8-1.04-2.16-.29-.68-.57-1.52-.81-2.46-.22-.95-.39-2.01-.45-3.14-.04-1.12-.08-2.41,.05-3.37,.15-.96,.46-1.61,.69-2.31,.45-1.41,.89-2.22,.83-2.25Z"/><path class="cls-10" d="M372.13,250.94s-.31,.16-.65,.59c-.34,.42-.72,1.11-.89,1.93-.23,1.12-.09,1.67,.03,2.13,.14,.53,.32,.82,.35,.8,.09-.02-.44-1.29-.09-2.87,.32-1.58,1.32-2.53,1.25-2.58Z"/></g></g></svg>