<?xml version="1.0" encoding="utf-8"?>
<!-- Generator: Adobe Illustrator 25.0.0, SVG Export Plug-In . SVG Version: 6.00 Build 0)  -->
<svg version="1.1" id="Capa_1" xmlns="http://www.w3.org/2000/svg" xmlns:xlink="http://www.w3.org/1999/xlink" x="0px" y="0px"
	 viewBox="0 0 892 607" style="enable-background:new 0 0 892 607;" xml:space="preserve">
<style type="text/css">
	.st0{fill:url(#SVGID_1_);}
	.st1{fill:#7D97F4;}
	.st2{fill:#91B3FA;}
	.st3{fill:url(#SVGID_2_);}
	.st4{fill:url(#SVGID_3_);}
	.st5{fill:url(#SVGID_4_);}
	.st6{fill:url(#SVGID_5_);}
	.st7{fill:#BDD0FB;}
	.st8{fill:url(#SVGID_6_);}
	.st9{fill:url(#SVGID_7_);}
	.st10{fill:url(#SVGID_8_);}
	.st11{fill:#025B93;}
	.st12{fill:#10A0DC;}
	.st13{opacity:0.16;fill:#FFFFFF;}
	.st14{opacity:0.52;fill:#91B3FA;}
	.st15{fill:url(#SVGID_9_);}
	.st16{fill:url(#SVGID_10_);}
	.st17{fill:url(#SVGID_11_);}
	.st18{fill:url(#SVGID_12_);}
	.st19{fill:#EE7900;}
	.st20{opacity:0.7;fill:#FFFFFF;}
	.st21{fill:url(#SVGID_13_);}
	.st22{fill:url(#SVGID_14_);}
	.st23{fill:#FFFFFF;}
	.st24{fill:url(#SVGID_15_);}
	.st25{fill:url(#SVGID_16_);}
	.st26{fill:url(#SVGID_17_);}
	.st27{fill:url(#SVGID_18_);}
	.st28{fill:url(#SVGID_19_);}
	.st29{fill:url(#SVGID_20_);}
	.st30{fill:url(#SVGID_21_);}
	.st31{fill:url(#SVGID_22_);}
	.st32{fill:url(#SVGID_23_);}
	.st33{fill:url(#SVGID_24_);}
	.st34{fill:url(#SVGID_25_);}
	.st35{fill:url(#SVGID_26_);}
	.st36{fill:url(#SVGID_27_);}
	.st37{fill:#89D0F0;}
	.st38{fill:url(#SVGID_28_);}
	.st39{fill:url(#SVGID_29_);}
	.st40{fill:url(#SVGID_30_);}
	.st41{fill:url(#SVGID_31_);}
	.st42{fill:url(#SVGID_32_);}
	.st43{fill:url(#SVGID_33_);}
	.st44{fill:url(#SVGID_34_);}
	.st45{fill:url(#SVGID_35_);}
	.st46{fill:url(#SVGID_36_);}
	.st47{fill:url(#SVGID_37_);}
	.st48{fill:url(#SVGID_38_);}
	.st49{fill:url(#SVGID_39_);}
	.st50{fill:url(#SVGID_40_);}
	.st51{font-family:'Roboto-Medium';}
	.st52{font-size:54.4232px;}
</style>
<g>
	<linearGradient id="SVGID_1_" gradientUnits="userSpaceOnUse" x1="85.3095" y1="319.0831" x2="841.899" y2="319.0831">
		<stop  offset="0" style="stop-color:#DAE3FE"/>
		<stop  offset="1" style="stop-color:#E9EFFD"/>
	</linearGradient>
	<path class="st0" d="M279,555.5c0,0-67.2-8.9-99.1-2c-31.9,7-110.9-30.9-84.7-90.3c26.2-59.4,55.8-96.2,21.6-128.7
		c-34.3-32.5-45-94.4-9.7-129.2c35.3-34.8,45.9,1,74.1-11.8c28.1-12.8-7.6-79.6,71.9-98.5c79.5-18.9,138.8,28.4,175,22
		c36.1-6.4,94.1-36.2,133.1-34.5c39,1.7,34.2,59.8,85.9,56.4c51.7-3.4,92.4-9.2,125.9,40.3c33.5,49.5,25.5,112.3-6.5,137.1
		c-32,24.8-25.7,58.2,33.2,60.1c58.9,1.9,52.3,71.1,4.2,122.2c-48.1,51.1-89.3,51.7-137.4,55C618.5,556.9,279,555.5,279,555.5z"/>
	<g>
		<path class="st1" d="M285.1,556H117.5c-5.3,0-9.7-4.3-9.7-9.7v-251c0-5.3,4.3-9.7,9.7-9.7l169-0.5c5.4,0,9.7,4.4,9.7,9.7
			l-1.3,251.5C294.8,551.7,290.4,556,285.1,556z"/>
		<path class="st2" d="M276.9,297.5L127,298.5c-5.4,0-9.8,4.4-9.8,9.9l1,225.3c0,5.3,4.3,9.7,9.6,9.8l145.6,2.7
			c5.4,0.1,9.9-4.2,10-9.7l3.2-228.9C286.9,302,282.4,297.5,276.9,297.5z"/>
		<linearGradient id="SVGID_2_" gradientUnits="userSpaceOnUse" x1="149.453" y1="310.6696" x2="270.8031" y2="310.6696">
			<stop  offset="0" style="stop-color:#DAE3FE"/>
			<stop  offset="1" style="stop-color:#E9EFFD"/>
		</linearGradient>
		<path class="st3" d="M270.8,310.2v1c0,1.6-1.3,2.9-2.9,2.9H152.4c-1.6,0-2.9-1.3-2.9-2.9v-1c0-1.6,1.3-2.9,2.9-2.9h115.5
			C269.5,307.2,270.8,308.5,270.8,310.2z"/>
		<linearGradient id="SVGID_3_" gradientUnits="userSpaceOnUse" x1="151.0594" y1="323.9104" x2="257.9234" y2="323.9104">
			<stop  offset="0" style="stop-color:#DAE3FE"/>
			<stop  offset="1" style="stop-color:#E9EFFD"/>
		</linearGradient>
		<path class="st4" d="M257.9,323.1L257.9,323.1c-0.1,1.5-1.3,2.8-2.9,2.8l-101,1.8c-1.6,0-3-1.3-3-2.9v-0.2c0-1.6,1.3-2.9,2.9-2.9
			l101-1.6C256.6,320,258,321.4,257.9,323.1z"/>
		<linearGradient id="SVGID_4_" gradientUnits="userSpaceOnUse" x1="123.2646" y1="436.5297" x2="279.8735" y2="436.5297">
			<stop  offset="0" style="stop-color:#DAE3FE"/>
			<stop  offset="1" style="stop-color:#E9EFFD"/>
		</linearGradient>
		<path class="st5" d="M268.1,538.4l-136.6-1.6c-2.2,0-4.3-0.9-5.9-2.5c-1.6-1.6-2.4-3.7-2.4-6l3.5-185.3c0-2.2,1-4.3,2.6-5.9
			c1.6-1.6,3.7-2.4,6-2.3l136.4,2.7c4.6,0.1,8.3,3.9,8.2,8.5v0l-3.3,184.3c-0.1,4.6-3.8,8.2-8.4,8.2
			C268.2,538.4,268.2,538.4,268.1,538.4z M131.3,339c-1.1,1-1.7,2.4-1.7,3.9l-3.5,185.3c0,1.5,0.5,2.9,1.6,4c1,1.1,2.4,1.7,3.9,1.7
			l136.6,1.6c3.1,0.1,5.6-2.4,5.7-5.5l3.3-184.3v0c0.1-3.1-2.4-5.6-5.5-5.7l-136.4-2.7c0,0-0.1,0-0.1,0
			C133.7,337.5,132.3,338,131.3,339z"/>
		<linearGradient id="SVGID_5_" gradientUnits="userSpaceOnUse" x1="126.5583" y1="354.6247" x2="278.103" y2="354.6247">
			<stop  offset="0" style="stop-color:#DAE3FE"/>
			<stop  offset="1" style="stop-color:#E9EFFD"/>
		</linearGradient>
		<path class="st6" d="M128,356h148.8c0.8,0,1.4-0.6,1.4-1.4c0-0.8-0.6-1.4-1.4-1.4H128c-0.8,0-1.4,0.6-1.4,1.4
			C126.6,355.4,127.2,356,128,356z"/>
	</g>
	<g>
		<path class="st7" d="M165.7,122.5c-10.3,30.7-62.7,211.9,98.5,291.7c0,0,65.2-110.4-93.9-292.6
			C168.9,119.9,166.3,120.5,165.7,122.5z"/>
		<linearGradient id="SVGID_6_" gradientUnits="userSpaceOnUse" x1="175.6739" y1="274.5453" x2="229.5128" y2="274.5453">
			<stop  offset="0" style="stop-color:#DAE3FE"/>
			<stop  offset="1" style="stop-color:#E9EFFD"/>
		</linearGradient>
		<path class="st8" d="M175.7,153.4c0.8,10.3,1.8,20.6,2.9,30.9c1.1,10.3,2.3,20.6,3.7,30.8c2.7,20.5,5.9,41,9.6,61.3
			c3.8,20.4,8.2,40.6,13.7,60.6c2.7,10,5.8,19.9,9.3,29.7c3.5,9.8,7.3,19.4,12,28.8c0.3,0.7,1.2,1,1.9,0.6c0.7-0.3,1-1.2,0.6-1.9
			l0,0l0,0c-4.6-9.2-8.5-18.7-12-28.4c-3.5-9.7-6.6-19.5-9.4-29.5c-5.6-19.9-10.1-40-14-60.3c-3.9-20.3-7.2-40.7-10-61.2
			c-1.4-10.2-2.7-20.5-3.9-30.8c-1.2-10.3-2.3-20.6-3.1-30.8l0,0c0-0.3-0.3-0.6-0.6-0.5C175.9,152.8,175.7,153.1,175.7,153.4z"/>
	</g>
	<g>
		<path class="st7" d="M811.1,130.6c-0.8-2.6-4.6-2.5-5.1,0.2c-5.1,26-20.7,93.7-50,131.3c-47.6,61.2-75,156.7-37.8,202.1
			C718.1,464.2,896.7,416.7,811.1,130.6z"/>
		<linearGradient id="SVGID_7_" gradientUnits="userSpaceOnUse" x1="727.5356" y1="300.5588" x2="808.7324" y2="300.5588">
			<stop  offset="0" style="stop-color:#DAE3FE"/>
			<stop  offset="1" style="stop-color:#E9EFFD"/>
		</linearGradient>
		<path class="st9" d="M808.7,167.3c0,0.8-0.1,1.5-0.1,2.2l-0.2,2.2l-0.4,4.4c-0.3,2.9-0.6,5.8-0.9,8.7c-0.7,5.8-1.4,11.6-2.2,17.4
			c-1.6,11.6-3.5,23.2-5.6,34.7c-2.1,11.5-4.4,23-7,34.4l-1,4.3l-1,4.3c-0.7,2.8-1.3,5.7-2.1,8.5l-2.2,8.5l-2.3,8.5
			c-6.2,22.6-13.7,44.9-22.6,66.5c-0.5,1.4-1.1,2.7-1.7,4l-1.8,4l-1.8,4c-0.6,1.3-1.2,2.7-1.9,4c-1.3,2.6-2.5,5.3-3.8,7.9l-4,7.8
			c-5.5,10.3-11.5,20.4-18.2,30.1c-0.1,0.1-0.3,0.2-0.4,0.1c-0.1-0.1-0.2-0.3-0.1-0.4l0,0c6.4-9.8,12.2-19.9,17.6-30.3l3.9-7.8
			c1.3-2.6,2.5-5.3,3.7-7.9c0.6-1.3,1.2-2.6,1.8-4l1.7-4l1.7-4c0.6-1.3,1.1-2.7,1.7-4l3.3-8.1c1.1-2.7,2.1-5.5,3.1-8.2
			c0.5-1.4,1-2.7,1.5-4.1l1.4-4.1l1.4-4.1c0.5-1.4,1-2.8,1.4-4.1c3.7-11.1,7-22.3,10.2-33.5c6.3-22.5,11.4-45.4,15.8-68.3
			c2.2-11.5,4.1-23,5.9-34.6c0.9-5.8,1.7-11.6,2.5-17.4c0.4-2.9,0.7-5.8,1.1-8.7l0.5-4.4l0.2-2.2c0.1-0.7,0.1-1.5,0.2-2.1l0-0.1
			c0-0.2,0.1-0.3,0.3-0.3C808.6,167,808.7,167.2,808.7,167.3z"/>
	</g>
	<g>
		<path class="st7" d="M331,546.3c0,0-1.8-39.1-42.3-77.6c-37.5-35.8-129.5-118.3-151.4-164.8c-1-2.1-4-1.4-4,0.9
			c0.4,24.4,6.2,85.5,50,145.2C239.7,527,331,546.3,331,546.3z"/>
		<linearGradient id="SVGID_8_" gradientUnits="userSpaceOnUse" x1="152.6579" y1="443.2907" x2="320.14" y2="443.2907">
			<stop  offset="0" style="stop-color:#DAE3FE"/>
			<stop  offset="1" style="stop-color:#E9EFFD"/>
		</linearGradient>
		<path class="st10" d="M152.7,347.2c0.8,5.3,2.3,10.6,4.1,15.7c0.2,0.6,0.4,1.3,0.7,1.9l0.7,1.9l1.5,3.8l1.6,3.7
			c0.5,1.2,1,2.5,1.7,3.7c4.7,9.8,10.1,19.2,16.4,28c1.5,2.3,3.2,4.4,4.8,6.6c1.7,2.1,3.2,4.4,5,6.4l5.2,6.2c0.8,1.1,1.8,2,2.7,3
			l2.8,3l2.8,3l1.4,1.5l1.5,1.4l5.8,5.7c1,0.9,1.9,1.9,2.9,2.8l3,2.7l6,5.4l6.1,5.4c2,1.8,4,3.6,6.1,5.4c4.1,3.5,8.2,7.1,12.3,10.5
			c4.1,3.5,8.3,6.9,12.4,10.4l12.5,10.2c8.4,6.8,16.7,13.6,24.9,20.6c2.1,1.7,4,3.6,6,5.4c1,0.9,2,1.8,2.9,2.8
			c1,0.9,1.9,1.9,2.9,2.8c1.8,2,3.7,3.9,5.4,5.9l1.3,1.5c0.2,0.3,0.4,0.5,0.6,0.8l0.6,0.8l2.4,3.2l0,0c0.1,0.1,0.3,0.2,0.4,0.1
			c0.1-0.1,0.2-0.3,0.1-0.4c-3-4.5-6.4-8.7-10.1-12.7c-0.9-1-1.9-1.9-2.8-2.9c-1-1-1.9-1.9-2.9-2.9c-2-1.9-3.9-3.7-5.9-5.5
			c-8-7.3-16.3-14.1-24.6-21c-8.3-6.9-16.5-13.8-24.7-20.8c-8.2-7-16.3-14.1-24.3-21.3l-6-5.4l-3-2.7c-1-0.9-1.9-1.9-2.9-2.8
			l-5.8-5.6l-1.5-1.4l-1.4-1.5l-2.8-2.9c-7.5-7.7-14.3-16.1-20.6-24.7c-6.4-8.6-12-17.8-16.8-27.4c-0.6-1.2-1.2-2.4-1.8-3.6
			l-1.7-3.6l-1.6-3.7l-0.8-1.9c-0.2-0.6-0.5-1.3-0.7-1.9c-0.5-1.3-1-2.5-1.4-3.8l-1.3-3.8C154,352.4,153.2,349.8,152.7,347.2
			C152.7,347.1,152.7,347.1,152.7,347.2C152.7,347.1,152.7,347.1,152.7,347.2z"/>
	</g>
	<g>
		<polygon class="st11" points="459,454.8 448.9,545.6 566.4,545.6 551.1,454.8 		"/>
		<path class="st11" d="M212.5,185.9v249.9c0,20.6,16.4,37.4,36.9,37.9c91.3,2.4,410.6,8.1,497.5,6.8c14.9-0.2,27-12.2,27.5-27.1
			c1.7-58.1,4.4-197.7-5.7-262.5c-2.1-13.7-13.6-23.9-27.5-24.3c-76.5-2.4-415-10.2-501.8-8.3C224.5,158.7,212.5,170.9,212.5,185.9z
			"/>
		<path class="st12" d="M228.2,184.7v237.5c0,12,9.6,21.8,21.6,22l484.6,6c11.9,0.2,21.7-9.4,21.7-21.3l0.8-235.3
			c0-8.5-6.7-15.5-15.3-15.7l-496.1-10C236,167.5,228.2,175.1,228.2,184.7z"/>
		<path class="st13" d="M241.9,192.2v222.9c0,11.3,9.2,20.4,20.6,20.6l461.4,5.6c11.3,0.2,20.6-8.8,20.7-20l0.8-220.9
			c0-8-6.4-14.5-14.5-14.7l-472.4-9.4C249.4,176.1,241.9,183.3,241.9,192.2z"/>
		<path class="st1" d="M759.8,459.9L759.8,459.9l-531.6-9.1c-0.4,0-0.7-0.3-0.7-0.8c0-0.4,0.4-0.8,0.8-0.7l531.6,9.1
			c0.4,0,0.7,0.3,0.7,0.8C760.5,459.6,760.2,459.9,759.8,459.9z"/>
		<g>
			<path class="st1" d="M499.2,470.9c-3.5,0-6.3-2.8-6.3-6.3c0-3.5,2.8-6.3,6.3-6.3s6.3,2.8,6.3,6.3
				C505.5,468.1,502.7,470.9,499.2,470.9z M499.2,459.9c-2.6,0-4.8,2.1-4.8,4.8c0,2.6,2.1,4.8,4.8,4.8c2.6,0,4.8-2.1,4.8-4.8
				C504,462,501.9,459.9,499.2,459.9z"/>
		</g>
		<path class="st11" d="M591.8,564.2h-172c-4.7,0-8.2-3.3-7.3-6.9l2.2-8.7c0.7-2.6,3.6-4.6,7-4.7l165.8-5.2c3.6-0.1,6.8,1.8,7.5,4.5
			l4,13.9C600,560.8,596.5,564.2,591.8,564.2z"/>
		<path class="st1" d="M512.3,546.5c-0.4,0-0.7-0.3-0.7-0.7c0-0.4,0.3-0.7,0.7-0.8l7.1-0.1c0.4,0,0.7,0.3,0.8,0.7
			c0,0.4-0.3,0.7-0.7,0.8L512.3,546.5L512.3,546.5z"/>
		<path class="st1" d="M418.8,559.6c0,0-0.1,0-0.1,0c-0.4-0.1-0.7-0.4-0.6-0.9l1-6.3c0.6-3.5,3.5-6.1,7.1-6.1l75.4-1.1
			c0.4,0,0.7,0.3,0.8,0.7c0,0.4-0.3,0.7-0.7,0.8l-75.4,1.1c-2.8,0-5.2,2.1-5.6,4.9l-1,6.3C419.5,559.3,419.2,559.6,418.8,559.6z"/>
	</g>
	<g>
		<path class="st14" d="M436.1,362.8L259,364.9c-6.8,0.1-12.2,4.5-11.9,9.7l2.9,46.4c0.3,4.9,5.6,8.8,12.1,8.8h174.2
			c6.7,0,12.1-4.2,12.1-9.3v-48.5C448.4,366.9,442.9,362.7,436.1,362.8z"/>
		<path class="st14" d="M654.8,349.9l-177.1,2.6c-6.8,0.1-12.2,5.5-11.9,11.9l2.9,56.8c0.3,6.1,5.6,10.8,12.1,10.8H655
			c6.7,0,12.1-5.1,12.1-11.4v-59.3C667.1,354.9,661.6,349.8,654.8,349.9z"/>
		<path class="st14" d="M531.8,227.8H258.2c-4.2,0-7.7,3.2-7.7,7.2v70.3c0,4,3.4,7.2,7.7,7.2h273.5c4.2,0,7.7-3.2,7.7-7.2v-70.3
			C539.5,231.1,536,227.8,531.8,227.8z"/>
		<path class="st14" d="M735.8,231.8l-109.4,0c-0.3,0-0.6,0-1,0.1c-9.1,2.4-12.2-5.3-15.8,6.4c-0.1,0.5,0.2,1,0.2,1.4v69.6
			c0,4,7.2,7.2,16.1,7.2h109.9c8.9,0,16.1-3.2,16.1-7.2V239C751.8,235,744.6,231.8,735.8,231.8z"/>
	</g>
	<g>
		<path class="st1" d="M177.6,554.8h167.6c5.3,0,9.7-3.2,9.7-7.1V428.1c0-3.9-4.3-7.1-9.7-7.1l-169-0.3c-5.4,0-9.7,3.2-9.7,7.2
			l1.3,119.9C167.9,551.6,172.2,554.8,177.6,554.8z"/>
		<path class="st2" d="M185.8,429.7l149.9,0.7c5.4,0,9.8,3.3,9.8,7.3l-1,100.6c0,3.9-4.3,7.1-9.6,7.2l-145.6,2
			c-5.4,0.1-9.9-3.1-10-7.2l-3.2-103.2C175.8,433,180.3,429.7,185.8,429.7z"/>
		<linearGradient id="SVGID_9_" gradientUnits="userSpaceOnUse" x1="191.8793" y1="439.4261" x2="313.2293" y2="439.4261">
			<stop  offset="0" style="stop-color:#DAE3FE"/>
			<stop  offset="1" style="stop-color:#E9EFFD"/>
		</linearGradient>
		<path class="st15" d="M191.9,439v0.8c0,1.2,1.3,2.2,2.9,2.2h115.5c1.6,0,2.9-1,2.9-2.2V439c0-1.2-1.3-2.2-2.9-2.2H194.8
			C193.2,436.9,191.9,437.8,191.9,439z"/>
		<linearGradient id="SVGID_10_" gradientUnits="userSpaceOnUse" x1="204.759" y1="449.2081" x2="311.6229" y2="449.2081">
			<stop  offset="0" style="stop-color:#DAE3FE"/>
			<stop  offset="1" style="stop-color:#E9EFFD"/>
		</linearGradient>
		<path class="st16" d="M204.8,448.6L204.8,448.6c0.1,1.1,1.3,2,2.9,2.1l101,1.4c1.6,0,3-1,3-2.2v-0.2c0-1.2-1.3-2.2-2.9-2.2
			l-101-1.2C206,446.3,204.7,447.4,204.8,448.6z"/>
		<linearGradient id="SVGID_11_" gradientUnits="userSpaceOnUse" x1="182.8093" y1="499.4569" x2="339.4179" y2="499.4569">
			<stop  offset="0" style="stop-color:#DAE3FE"/>
			<stop  offset="1" style="stop-color:#E9EFFD"/>
		</linearGradient>
		<path class="st17" d="M186.1,535.7l-3.3-70.2c0,0,0,0,0,0c0-1.5,0.6-2.9,1.7-4.1c1.6-1.6,3.9-2.6,6.5-2.6l136.4-2
			c0.1,0,0.1,0,0.2,0c4.5,0,8.3,2.9,8.4,6.4l3.5,71c0,1.5-0.6,2.9-1.7,4.1c-1.6,1.6-4,2.6-6.6,2.6l-136.6,1.2c0,0-0.1,0-0.1,0
			C189.8,542.1,186.2,539.3,186.1,535.7z M327.4,459.6l-136.4,2c-1.8,0-3.5,0.7-4.6,1.7c-0.4,0.4-0.9,1.1-0.9,2.1l3.3,70.3
			c0,2,2.6,3.7,5.6,3.7c0,0,0,0,0.1,0l136.6-1.2c1.9,0,3.6-0.7,4.6-1.7c0.4-0.4,0.9-1.2,0.9-2.1l-3.5-71c-0.1-2-2.6-3.7-5.6-3.7
			C327.5,459.6,327.5,459.6,327.4,459.6z M184.2,465.4L184.2,465.4L184.2,465.4z"/>
		<linearGradient id="SVGID_12_" gradientUnits="userSpaceOnUse" x1="184.58" y1="471.8994" x2="336.124" y2="471.8994">
			<stop  offset="0" style="stop-color:#DAE3FE"/>
			<stop  offset="1" style="stop-color:#E9EFFD"/>
		</linearGradient>
		<path class="st18" d="M186,473.3h148.8c0.8,0,1.4-0.6,1.4-1.4c0-0.8-0.6-1.4-1.4-1.4H186c-0.8,0-1.4,0.6-1.4,1.4
			C184.6,472.7,185.2,473.3,186,473.3z"/>
	</g>
	<path class="st19" d="M607.1,298.6l162.8,1.3c9,0.1,16.3,7.2,16.7,16.1l10.1,236.1c0.3,7-5.3,12.9-12.3,13L597.8,567
		c-6.6,0.1-12-5.3-11.9-11.9l2-237.5C587.9,307,596.6,298.5,607.1,298.6z"/>
	<path class="st20" d="M625.1,563.3L625.1,563.3l-20.9-0.4c-7-0.1-12.7-6-12.6-13l0.3-31.5c0-0.3,0.2-0.5,0.5-0.5
		c0.3,0,0.5,0.2,0.5,0.5l-0.3,31.5c-0.1,6.4,5.1,11.8,11.6,11.9l20.9,0.4c0.3,0,0.5,0.2,0.5,0.5C625.6,563,625.4,563.3,625.1,563.3z
		"/>
	<path class="st20" d="M592.4,509.1c-0.3,0-0.5-0.2-0.5-0.5l0-5.1c0-0.3,0.2-0.5,0.5-0.5c0,0,0,0,0,0c0.3,0,0.5,0.2,0.5,0.5l0,5.1
		C593,508.8,592.7,509.1,592.4,509.1C592.4,509.1,592.4,509.1,592.4,509.1z"/>
	<path class="st1" d="M607.7,296.7c22.2,3.2,98.6,13.2,161.8,8.8c2.9-0.2,5.4,2,5.5,4.9l10.6,237.1c0.1,3.3-2.4,6-5.6,6.2
		c-26.6,1.4-136.1,6.5-175.1,2.1c-2.4-0.3-4.2-2.3-4.2-4.7l0.6-249C601.3,298.8,604.3,296.2,607.7,296.7z"/>
	<path class="st7" d="M610,302.8c21.4,3.1,94.8,12.7,155.7,8.5c2.8-0.2,5.2,1.9,5.3,4.7l10.2,228.2c0.1,3.1-2.3,5.8-5.4,5.9
		c-25.6,1.3-131,6.3-168.5,2c-2.3-0.3-4-2.2-4-4.5l0.6-239.6C603.9,304.9,606.8,302.4,610,302.8z"/>
	<linearGradient id="SVGID_13_" gradientUnits="userSpaceOnUse" x1="624.4709" y1="328.601" x2="765.2797" y2="328.601">
		<stop  offset="0" style="stop-color:#DAE3FE"/>
		<stop  offset="1" style="stop-color:#E9EFFD"/>
	</linearGradient>
	<path class="st21" d="M763.9,331.4c0.8,0,1.4-0.6,1.3-1.4l0-0.5c0-0.8-0.7-1.4-1.5-1.4l-138.5-2.2c-0.8,0-1,0.5-0.5,1.1l1.7,2.2
		c0.5,0.6,1.5,1.1,2.3,1.1L763.9,331.4z"/>
	<linearGradient id="SVGID_14_" gradientUnits="userSpaceOnUse" x1="624.3956" y1="337.7173" x2="765.2045" y2="337.7173">
		<stop  offset="0" style="stop-color:#DAE3FE"/>
		<stop  offset="1" style="stop-color:#E9EFFD"/>
	</linearGradient>
	<path class="st22" d="M625.2,335c-0.8,0-1,0.5-0.5,1.1l1.7,2.2c0.5,0.6,1.5,1.1,2.3,1.1l135.2,1.1c0.8,0,1.4-0.6,1.3-1.4l0-0.5
		c0-0.8-0.7-1.4-1.5-1.4L625.2,335z"/>
	<path class="st23" d="M648.5,418C648.5,418,648.5,418,648.5,418l-18.4,0.3c-2.6,0-4.9-1.7-5.2-4.1l-2-15.3
		c-0.1-0.9,0.1-1.8,0.7-2.6c0.7-0.8,1.7-1.4,2.8-1.5l0,0c1.5-0.1,3.7-0.4,6-0.6c5.1-0.6,10.9-1.2,14.2-1.3c0,0,0,0,0.1,0
		c2.4-0.1,4.6,1.4,5.2,3.5c1,3.5,1.1,10.2,1.1,17.3C653.1,416,651.1,417.9,648.5,418z M626.7,396.3c-0.7,0.1-1.4,0.4-1.8,0.9
		c-0.3,0.4-0.5,0.9-0.4,1.4l2,15.3c0.2,1.6,1.8,2.8,3.7,2.8l18.3-0.3c0,0,0,0,0,0c1.8,0,3.2-1.3,3.2-2.8c0-7-0.1-13.6-1-16.9
		c-0.4-1.5-2.1-2.5-3.8-2.4c-3.3,0.1-9.3,0.8-14.1,1.3C630.3,395.9,628.2,396.2,626.7,396.3L626.7,396.3z"/>
	<linearGradient id="SVGID_15_" gradientUnits="userSpaceOnUse" x1="626.3535" y1="405.7923" x2="649.2739" y2="405.7923">
		<stop  offset="0" style="stop-color:#DAE3FE"/>
		<stop  offset="1" style="stop-color:#E9EFFD"/>
	</linearGradient>
	<path class="st24" d="M628.7,397.8c3.8-0.4,12.2-1.4,16.1-1.6c1.7-0.1,3.2,0.9,3.6,2.4c0.8,2.8,0.9,8.5,0.9,13.7
		c0,1.6-1.4,2.8-3.2,2.9l-14.6,0.2c-1.8,0-3.3-1.2-3.5-2.8l-1.6-12.2C626.2,399.1,627.2,397.9,628.7,397.8z"/>
	<linearGradient id="SVGID_16_" gradientUnits="userSpaceOnUse" x1="663.0228" y1="406.1839" x2="760.466" y2="406.1839">
		<stop  offset="0" style="stop-color:#DAE3FE"/>
		<stop  offset="1" style="stop-color:#E9EFFD"/>
	</linearGradient>
	<path class="st25" d="M664.1,401.7c-0.8,0-1.2,0.6-1,1.4l1.8,6.4c0.2,0.7,1,1.3,1.8,1.3l92.4-2.2c0.8,0,1.4-0.7,1.3-1.4l-0.2-4
		c0-0.8-0.7-1.4-1.5-1.4L664.1,401.7z"/>
	<path class="st19" d="M629.5,400.2L629.5,400.2c1.3-0.8,3.1-0.4,3.9,1l3.8,6.4c0.4,0.6,1.3,0.6,1.6-0.1l8.5-20.2
		c0.4-1,1.9-0.7,1.9,0.4c0.1,6.1-1.3,17.7-10.8,27.7c0,0-5.4-2-10-11.4C627.7,402.6,628.2,401,629.5,400.2z"/>
	<path class="st23" d="M649.2,376.9C649.2,376.9,649.2,376.9,649.2,376.9l-18.4,0.3c-2.6,0-4.9-1.7-5.2-4.1l-2-15.3
		c-0.1-0.9,0.1-1.8,0.7-2.6c0.7-0.8,1.7-1.4,2.8-1.5l0,0c1.5-0.1,3.7-0.4,6-0.6c5.1-0.6,10.9-1.2,14.2-1.3c0,0,0,0,0.1,0
		c2.4-0.1,4.6,1.4,5.2,3.5c1,3.5,1.1,10.2,1.1,17.3C653.8,374.9,651.8,376.8,649.2,376.9z M627.4,355.2c-0.7,0.1-1.4,0.4-1.8,0.9
		c-0.3,0.4-0.5,0.9-0.4,1.4l2,15.3c0.2,1.6,1.8,2.8,3.7,2.8l18.3-0.3c0,0,0,0,0,0c1.8,0,3.2-1.3,3.2-2.8c0-7-0.1-13.6-1-16.9
		c-0.4-1.5-2.1-2.5-3.8-2.4c-3.3,0.1-9.3,0.8-14.1,1.3C631,354.8,628.9,355,627.4,355.2L627.4,355.2z"/>
	<linearGradient id="SVGID_17_" gradientUnits="userSpaceOnUse" x1="627.0639" y1="364.658" x2="649.9843" y2="364.658">
		<stop  offset="0" style="stop-color:#DAE3FE"/>
		<stop  offset="1" style="stop-color:#E9EFFD"/>
	</linearGradient>
	<path class="st26" d="M629.4,356.7c3.8-0.4,12.2-1.4,16.1-1.6c1.7-0.1,3.2,0.9,3.6,2.4c0.8,2.8,0.9,8.5,0.9,13.7
		c0,1.6-1.4,2.8-3.2,2.9l-14.6,0.2c-1.8,0-3.3-1.2-3.5-2.8l-1.6-12.2C626.9,357.9,627.9,356.8,629.4,356.7z"/>
	<linearGradient id="SVGID_18_" gradientUnits="userSpaceOnUse" x1="663.7332" y1="365.0496" x2="761.1765" y2="365.0496">
		<stop  offset="0" style="stop-color:#DAE3FE"/>
		<stop  offset="1" style="stop-color:#E9EFFD"/>
	</linearGradient>
	<path class="st27" d="M664.8,360.5c-0.8,0-1.2,0.6-1,1.4l1.8,6.4c0.2,0.7,1,1.3,1.8,1.3l92.4-2.2c0.8,0,1.4-0.7,1.3-1.4l-0.2-4
		c0-0.8-0.7-1.4-1.5-1.4L664.8,360.5z"/>
	<path class="st19" d="M630.2,359L630.2,359c1.3-0.8,3.1-0.4,3.9,1l3.8,6.4c0.4,0.6,1.3,0.6,1.6-0.1l8.5-20.2c0.4-1,1.9-0.7,1.9,0.4
		c0.1,6.1-1.3,17.7-10.8,27.7c0,0-5.4-2-10-11.4C628.5,361.5,628.9,359.8,630.2,359z"/>
	<path class="st23" d="M649.4,457.2C649.4,457.2,649.4,457.2,649.4,457.2l-18.4,0.3c-2.6,0-4.9-1.7-5.2-4.1l-2-15.3
		c-0.1-0.9,0.1-1.8,0.7-2.6c0.7-0.8,1.7-1.4,2.8-1.5l0,0c1.5-0.1,3.7-0.4,6-0.6c5.1-0.6,10.9-1.2,14.2-1.3c0,0,0,0,0.1,0
		c2.4-0.1,4.6,1.4,5.2,3.5c1,3.5,1.1,10.2,1.1,17.3C654.1,455.3,652,457.2,649.4,457.2z M627.6,435.5c-0.7,0.1-1.4,0.4-1.8,0.9
		c-0.3,0.4-0.5,0.9-0.4,1.4l2,15.3c0.2,1.6,1.8,2.8,3.7,2.8l18.3-0.3c0,0,0,0,0,0c1.8,0,3.2-1.3,3.2-2.8c0-7-0.1-13.6-1-16.9
		c-0.4-1.5-2.1-2.5-3.8-2.4c-3.3,0.1-9.3,0.8-14.1,1.3C631.3,435.2,629.2,435.4,627.6,435.5L627.6,435.5z"/>
	<linearGradient id="SVGID_19_" gradientUnits="userSpaceOnUse" x1="627.3" y1="445.0398" x2="650.2204" y2="445.0398">
		<stop  offset="0" style="stop-color:#DAE3FE"/>
		<stop  offset="1" style="stop-color:#E9EFFD"/>
	</linearGradient>
	<path class="st28" d="M629.6,437c3.8-0.4,12.2-1.4,16.1-1.6c1.7-0.1,3.2,0.9,3.6,2.4c0.8,2.8,0.9,8.5,0.9,13.7
		c0,1.6-1.4,2.8-3.2,2.9l-14.6,0.2c-1.8,0-3.3-1.2-3.5-2.8l-1.6-12.2C627.2,438.3,628.2,437.2,629.6,437z"/>
	<linearGradient id="SVGID_20_" gradientUnits="userSpaceOnUse" x1="663.9694" y1="445.4315" x2="761.4127" y2="445.4315">
		<stop  offset="0" style="stop-color:#DAE3FE"/>
		<stop  offset="1" style="stop-color:#E9EFFD"/>
	</linearGradient>
	<path class="st29" d="M665,440.9c-0.8,0-1.2,0.6-1,1.4l1.8,6.4c0.2,0.7,1,1.3,1.8,1.3l92.4-2.2c0.8,0,1.4-0.7,1.3-1.4l-0.2-4
		c0-0.8-0.7-1.4-1.5-1.4L665,440.9z"/>
	<path class="st19" d="M630.4,439.4L630.4,439.4c1.3-0.8,3.1-0.4,3.9,1l3.8,6.4c0.4,0.6,1.3,0.6,1.6-0.1l8.5-20.2
		c0.4-1,1.9-0.7,1.9,0.4c0.1,6.1-1.3,17.7-10.8,27.7c0,0-5.4-2-10-11.4C628.7,441.9,629.2,440.2,630.4,439.4z"/>
	<path class="st23" d="M648.6,495C648.6,495,648.6,495,648.6,495l-18.4,0.3c-2.6,0-4.9-1.7-5.2-4.1l-2-15.3
		c-0.1-0.9,0.1-1.8,0.7-2.6c0.7-0.8,1.7-1.4,2.8-1.5l0,0c1.5-0.1,3.7-0.4,6-0.6c4.8-0.5,10.9-1.2,14.3-1.3c2.4-0.1,4.6,1.3,5.3,3.5
		c1,3.5,1.1,10.2,1.1,17.3C653.3,493,651.2,494.9,648.6,495z M626.8,473.3c-0.7,0.1-1.4,0.4-1.8,0.9c-0.3,0.4-0.5,0.9-0.4,1.4
		l2,15.3c0.2,1.6,1.8,2.8,3.7,2.8l18.3-0.3c1.7-0.1,3.2-1.3,3.2-2.8c0-7-0.1-13.6-1-16.9c-0.4-1.5-2.1-2.5-3.8-2.4
		c-3.3,0.1-9.3,0.8-14.1,1.3C630.5,472.9,628.3,473.1,626.8,473.3L626.8,473.3z"/>
	<linearGradient id="SVGID_21_" gradientUnits="userSpaceOnUse" x1="626.4956" y1="482.7682" x2="649.4161" y2="482.7682">
		<stop  offset="0" style="stop-color:#DAE3FE"/>
		<stop  offset="1" style="stop-color:#E9EFFD"/>
	</linearGradient>
	<path class="st30" d="M628.8,474.8c3.8-0.4,12.2-1.4,16.1-1.6c1.7-0.1,3.2,0.9,3.6,2.4c0.8,2.8,0.9,8.5,0.9,13.7
		c0,1.6-1.4,2.8-3.2,2.9l-14.6,0.2c-1.8,0-3.3-1.2-3.5-2.8l-1.6-12.2C626.3,476,627.4,474.9,628.8,474.8z"/>
	<linearGradient id="SVGID_22_" gradientUnits="userSpaceOnUse" x1="663.165" y1="483.1596" x2="760.6082" y2="483.1596">
		<stop  offset="0" style="stop-color:#DAE3FE"/>
		<stop  offset="1" style="stop-color:#E9EFFD"/>
	</linearGradient>
	<path class="st31" d="M664.2,478.6c-0.8,0-1.2,0.6-1,1.4l1.8,6.4c0.2,0.7,1,1.3,1.8,1.3l92.4-2.2c0.8,0,1.4-0.7,1.3-1.4l-0.2-4
		c0-0.8-0.7-1.4-1.5-1.4L664.2,478.6z"/>
	<path class="st19" d="M629.6,477.2L629.6,477.2c1.3-0.8,3.1-0.4,3.9,1l3.8,6.4c0.4,0.6,1.3,0.6,1.6-0.1l8.5-20.2
		c0.4-1,1.9-0.7,1.9,0.4c0.1,6.1-1.3,17.7-10.8,27.7c0,0-5.4-2-10-11.4C627.9,479.6,628.4,478,629.6,477.2z"/>
	<path class="st23" d="M647.5,533.9C647.5,533.9,647.5,533.9,647.5,533.9l-18.4,0.3c-2.6,0-4.9-1.7-5.2-4.1l-2-15.3
		c-0.1-0.9,0.1-1.8,0.7-2.6c0.7-0.8,1.7-1.4,2.8-1.5l0,0c1.5-0.1,3.7-0.4,6-0.6c5.1-0.6,10.9-1.2,14.2-1.3c2.5,0,4.6,1.3,5.3,3.5
		c1,3.5,1.1,10.2,1.1,17.3C652.1,531.9,650.1,533.8,647.5,533.9z M625.7,512.2c-0.7,0.1-1.4,0.4-1.8,0.9c-0.3,0.4-0.5,0.9-0.4,1.4
		l2,15.3c0.2,1.6,1.8,2.8,3.7,2.8l18.3-0.3c0,0,0,0,0,0c1.8,0,3.2-1.3,3.2-2.8c0-7-0.1-13.6-1-16.9c-0.4-1.5-2.1-2.5-3.8-2.4
		c-3.3,0.1-9.3,0.8-14.1,1.3C629.3,511.8,627.2,512,625.7,512.2L625.7,512.2z"/>
	<linearGradient id="SVGID_23_" gradientUnits="userSpaceOnUse" x1="625.3528" y1="521.6832" x2="648.2734" y2="521.6832">
		<stop  offset="0" style="stop-color:#DAE3FE"/>
		<stop  offset="1" style="stop-color:#E9EFFD"/>
	</linearGradient>
	<path class="st32" d="M627.7,513.7c3.8-0.4,12.2-1.4,16.1-1.6c1.7-0.1,3.2,0.9,3.6,2.4c0.8,2.8,0.9,8.5,0.9,13.7
		c0,1.6-1.4,2.8-3.2,2.9l-14.6,0.2c-1.8,0-3.3-1.2-3.5-2.8l-1.6-12.2C625.2,515,626.2,513.8,627.7,513.7z"/>
	<linearGradient id="SVGID_24_" gradientUnits="userSpaceOnUse" x1="662.0222" y1="522.0748" x2="759.4655" y2="522.0748">
		<stop  offset="0" style="stop-color:#DAE3FE"/>
		<stop  offset="1" style="stop-color:#E9EFFD"/>
	</linearGradient>
	<path class="st33" d="M663.1,517.6c-0.8,0-1.2,0.6-1,1.4l1.8,6.4c0.2,0.7,1,1.3,1.8,1.3l92.4-2.2c0.8,0,1.4-0.7,1.3-1.4l-0.2-4
		c0-0.8-0.7-1.4-1.5-1.4L663.1,517.6z"/>
	<path class="st19" d="M628.5,516.1L628.5,516.1c1.3-0.8,3.1-0.4,3.9,1l3.8,6.4c0.4,0.6,1.3,0.6,1.6-0.1l8.5-20.2
		c0.4-1,1.9-0.7,1.9,0.4c0.1,6.1-1.3,17.7-10.8,27.7c0,0-5.4-2-10-11.4C626.7,518.5,627.2,516.9,628.5,516.1z"/>
	
		<linearGradient id="SVGID_25_" gradientUnits="userSpaceOnUse" x1="1515.9333" y1="2368.644" x2="1443.412" y2="2464.0442" gradientTransform="matrix(0.8781 0.4785 -0.4785 0.8781 532.0874 -2545.2246)">
		<stop  offset="0" style="stop-color:#09005D"/>
		<stop  offset="1" style="stop-color:#1A0F91"/>
	</linearGradient>
	<path class="st34" d="M698.9,267.2c-5.8-4.1-11-4.1-14.6-3.1c-3.3,0.9-5.4,4.1-5.2,7.5l1.4,17l18.5,1.8
		C699,290.4,710.3,275.3,698.9,267.2z M690.6,280.8c-2.5,0-4.6-2.1-4.6-4.6c0-2.5,2.1-4.6,4.6-4.6c2.5,0,4.6,2.1,4.6,4.6
		C695.3,278.7,693.2,280.8,690.6,280.8z"/>
	<g>
		<path class="st7" d="M682.1,281.9c-0.3-0.1-0.6-0.4-0.6-0.8l-0.2-2.7c0-0.5,0.3-0.9,0.8-1c0.5,0,0.9,0.3,1,0.8l0.2,2.7
			c0,0.5-0.3,0.9-0.8,1C682.4,281.9,682.3,281.9,682.1,281.9z M681.7,276.6c-0.3-0.1-0.6-0.4-0.6-0.8l-0.2-2
			c-0.3-3.5,1.9-6.7,5.3-7.6c2.3-0.7,4.6-0.7,7-0.2c0.5,0.1,0.8,0.6,0.7,1.1c-0.1,0.5-0.6,0.8-1.1,0.7c-2.1-0.4-4.1-0.4-6.1,0.2
			c-2.5,0.7-4.2,3.1-3.9,5.7l0.2,2c0,0.5-0.3,0.9-0.8,1C682,276.6,681.8,276.6,681.7,276.6z"/>
	</g>
	
		<linearGradient id="SVGID_26_" gradientUnits="userSpaceOnUse" x1="-405.9144" y1="5790.6914" x2="-480.7796" y2="5889.1748" gradientTransform="matrix(1 8.300000e-03 -8.300000e-03 1 1179.3734 -5537.9849)">
		<stop  offset="0" style="stop-color:#09005D"/>
		<stop  offset="1" style="stop-color:#1A0F91"/>
	</linearGradient>
	<path class="st35" d="M655.3,299.3l0.1-8.5c0-2.9,2.5-5.3,5.4-5.1l58.7,2.5c2.6,0.1,4.7,2.2,4.8,4.8l0.4,8.2L655.3,299.3z"/>
	<path class="st7" d="M674.7,289c-0.3,0-0.5-0.2-0.5-0.5c0-0.3,0.2-0.5,0.5-0.5l2.5,0c0.3,0,0.5,0.2,0.5,0.5c0,0.3-0.2,0.5-0.5,0.5
		L674.7,289C674.7,289,674.7,289,674.7,289z"/>
	<path class="st7" d="M658.1,297.1c-0.3-0.1-0.6-0.5-0.6-0.9l0-3.4c0-1.4,0.6-2.7,1.6-3.7c1-1,2.3-1.5,3.8-1.5l9.3,0.1
		c0.5,0,0.9,0.4,0.9,0.9c0,0.5-0.4,0.9-0.9,0.9l-9.3-0.1c-1.9,0-3.5,1.5-3.5,3.4l0,3.4c0,0.5-0.4,0.9-0.9,0.9
		C658.4,297.1,658.2,297.1,658.1,297.1z"/>
	
		<linearGradient id="SVGID_27_" gradientUnits="userSpaceOnUse" x1="-415.3477" y1="5796.7144" x2="-467.0415" y2="5891.6348" gradientTransform="matrix(1 8.300000e-03 -8.300000e-03 1 1179.3734 -5537.9849)">
		<stop  offset="0" style="stop-color:#09005D"/>
		<stop  offset="1" style="stop-color:#1A0F91"/>
	</linearGradient>
	<path class="st36" d="M636.9,296l102.7,0.8c3.7,0,6.8,2.7,7.4,6.4l0.1,0.5c0.7,4-2.4,7.6-6.5,7.6l-105.3-0.9
		c-2.4,0-4.3-2.1-4.2-4.5l0.3-4.7C631.5,298.3,633.9,296,636.9,296z"/>
	<path class="st19" d="M482,313.1c13.1,12.9,24.4,26.2,34.3,40c14.7-33.6,30.4-64.7,47.4-92.7l41.6-13.9
		c-28.7,37.4-59.3,93.1-85.4,149c-18.9-26.6-37.8-53.2-51.4-62.7L482,313.1z"/>
	<path class="st37" d="M737.5,192.3c-26.9-0.7-159.8-5-187.1-5.8c-2.7-0.1-4.9,3.9-4.9,8.8v22.7c0,4.8,2.2,8.8,4.8,8.8h187.1
		c2.7,0,4.8-3.9,4.8-8.8V201C742.2,196.2,740.1,192.3,737.5,192.3z"/>
	<g>
		<path class="st19" d="M559.6,221.1l6.9-3.6c0.5-0.3,1.2-0.3,1.7,0l6.9,3.7c1.4,0.7,2.9-0.4,2.7-1.9l-1.3-7.7
			c-0.1-0.6,0.1-1.2,0.5-1.6l5.6-5.5c1.1-1.1,0.5-2.9-1-3.2l-7.8-1.1c-0.6-0.1-1.1-0.5-1.4-1l-3.5-7c-0.7-1.4-2.6-1.4-3.3,0l-3.5,7
			c-0.3,0.5-0.8,0.9-1.4,1l-7.8,1.1c-1.5,0.2-2.1,2.1-1,3.2l5.6,5.5c0.4,0.4,0.6,1,0.5,1.6l-1.3,7.7
			C556.6,220.7,558.2,221.9,559.6,221.1z"/>
	</g>
	<g>
		<path class="st19" d="M595.4,222.2l6.9-3.6c0.5-0.3,1.2-0.3,1.7,0l6.9,3.7c1.4,0.7,2.9-0.4,2.7-1.9l-1.3-7.7
			c-0.1-0.6,0.1-1.2,0.5-1.6l5.6-5.5c1.1-1.1,0.5-2.9-1-3.2l-7.8-1.1c-0.6-0.1-1.1-0.5-1.4-1l-3.5-7c-0.7-1.4-2.6-1.4-3.3,0l-3.5,7
			c-0.3,0.5-0.8,0.9-1.4,1l-7.8,1.1c-1.5,0.2-2.1,2.1-1,3.2l5.6,5.5c0.4,0.4,0.6,1,0.5,1.6l-1.3,7.7
			C592.4,221.7,594,222.9,595.4,222.2z"/>
	</g>
	<g>
		<path class="st19" d="M631.5,222.4l6.9-3.6c0.5-0.3,1.2-0.3,1.7,0l6.9,3.7c1.4,0.7,2.9-0.4,2.7-1.9l-1.3-7.7
			c-0.1-0.6,0.1-1.2,0.5-1.6l5.6-5.5c1.1-1.1,0.5-2.9-1-3.2l-7.8-1.1c-0.6-0.1-1.1-0.5-1.4-1l-3.5-7c-0.7-1.4-2.6-1.4-3.3,0l-3.5,7
			c-0.3,0.5-0.8,0.9-1.4,1l-7.8,1.1c-1.5,0.2-2.1,2.1-1,3.2l5.6,5.5c0.4,0.4,0.6,1,0.5,1.6l-1.3,7.7
			C628.6,221.9,630.2,223.1,631.5,222.4z"/>
	</g>
	<g>
		<path class="st19" d="M666.6,222.8l6.9-3.6c0.5-0.3,1.2-0.3,1.7,0l6.9,3.7c1.4,0.7,2.9-0.4,2.7-1.9l-1.3-7.7
			c-0.1-0.6,0.1-1.2,0.5-1.6l5.6-5.5c1.1-1.1,0.5-2.9-1-3.2l-7.8-1.1c-0.6-0.1-1.1-0.5-1.4-1l-3.5-7c-0.7-1.4-2.6-1.4-3.3,0l-3.5,7
			c-0.3,0.5-0.8,0.9-1.4,1l-7.8,1.1c-1.5,0.2-2.1,2.1-1,3.2l5.6,5.5c0.4,0.4,0.6,1,0.5,1.6l-1.3,7.7
			C663.7,222.3,665.3,223.5,666.6,222.8z"/>
	</g>
	<g>
		<path class="st11" d="M704.9,582.4c1.1,0,2-0.7,2.2-1.7l34.5-182.4c0.2-1.1-0.6-2.1-1.8-2.3c-1.2-0.2-2.3,0.5-2.6,1.6l-34.5,182.4
			c-0.2,1.1,0.6,2.1,1.8,2.3C704.7,582.4,704.8,582.4,704.9,582.4z"/>
		<path class="st11" d="M821.2,582.4c0.1,0,0.3,0,0.4,0c1.2-0.2,2-1.3,1.7-2.3L782.7,400c-0.2-1.1-1.4-1.8-2.6-1.5
			c-1.2,0.2-2,1.3-1.7,2.3L819,580.8C819.2,581.8,820.1,582.4,821.2,582.4z"/>
		<linearGradient id="SVGID_28_" gradientUnits="userSpaceOnUse" x1="728.9858" y1="441.4387" x2="792.3138" y2="441.4387">
			<stop  offset="0" style="stop-color:#4042E2"/>
			<stop  offset="1" style="stop-color:#4F52FF"/>
		</linearGradient>
		<path class="st38" d="M731.2,443.4h58.9c1.2,0,2.2-0.9,2.2-2s-1-2-2.2-2h-58.9c-1.2,0-2.2,0.9-2.2,2S730,443.4,731.2,443.4z"/>
		<path class="st11" d="M732.3,443.4H789c1.2,0,2.1-0.9,2.1-2s-1-2-2.1-2h-56.8c-1.2,0-2.1,0.9-2.1,2S731.1,443.4,732.3,443.4z"/>
		<linearGradient id="SVGID_29_" gradientUnits="userSpaceOnUse" x1="728.9858" y1="474.4268" x2="792.3138" y2="474.4268">
			<stop  offset="0" style="stop-color:#4042E2"/>
			<stop  offset="1" style="stop-color:#4F52FF"/>
		</linearGradient>
		<path class="st39" d="M731.2,476.4h58.9c1.2,0,2.2-0.9,2.2-2c0-1.1-1-2-2.2-2h-58.9c-1.2,0-2.2,0.9-2.2,2
			C729,475.5,730,476.4,731.2,476.4z"/>
		<path class="st11" d="M725.9,476.4h71.4c1.2,0,2.2-0.9,2.2-2c0-1.1-1-2-2.2-2h-71.4c-1.2,0-2.2,0.9-2.2,2
			C723.6,475.5,724.6,476.4,725.9,476.4z"/>
		<linearGradient id="SVGID_30_" gradientUnits="userSpaceOnUse" x1="728.9858" y1="507.4148" x2="792.3138" y2="507.4148">
			<stop  offset="0" style="stop-color:#4042E2"/>
			<stop  offset="1" style="stop-color:#4F52FF"/>
		</linearGradient>
		<path class="st40" d="M731.2,509.4h58.9c1.2,0,2.2-0.9,2.2-2c0-1.1-1-2-2.2-2h-58.9c-1.2,0-2.2,0.9-2.2,2
			C729,508.5,730,509.4,731.2,509.4z"/>
		<path class="st11" d="M719,509.4h85.5c1.2,0,2.2-0.9,2.2-2c0-1.1-1-2-2.2-2H719c-1.2,0-2.2,0.9-2.2,2
			C716.8,508.5,717.8,509.4,719,509.4z"/>
		<linearGradient id="SVGID_31_" gradientUnits="userSpaceOnUse" x1="728.9858" y1="540.4029" x2="813.5905" y2="540.4029">
			<stop  offset="0" style="stop-color:#4042E2"/>
			<stop  offset="1" style="stop-color:#4F52FF"/>
		</linearGradient>
		<path class="st41" d="M731.2,542.4h80.2c1.2,0,2.2-0.9,2.2-2c0-1.1-1-2-2.2-2h-80.2c-1.2,0-2.2,0.9-2.2,2
			C729,541.5,730,542.4,731.2,542.4z"/>
		<path class="st11" d="M713.5,542.4h97.9c1.2,0,2.2-0.9,2.2-2c0-1.1-1-2-2.2-2h-97.9c-1.2,0-2.2,0.9-2.2,2
			C711.3,541.5,712.3,542.4,713.5,542.4z"/>
	</g>
	<g>
		<g>
			<path class="st7" d="M421.8,381.1c-0.8,0.1-1.5-0.3-1.9-0.9l-2.4-3.7c-2.1-0.1-4.1-0.4-6.1-1l-3.4,2.8c-0.7,0.5-1.6,0.6-2.3,0.2
				l-5.4-3.3c-0.7-0.4-1.1-1.3-0.9-2.1l0.9-4.3c-1.4-1.5-2.7-3.2-3.7-5l-4.4-0.4c-0.9-0.1-1.6-0.7-1.8-1.5l-1.5-6.1
				c-0.2-0.8,0.1-1.7,0.9-2.2l3.7-2.4c0.1-2.1,0.4-4.1,1-6.1l-2.8-3.4c-0.5-0.7-0.6-1.6-0.2-2.3l3.3-5.4c0.4-0.7,1.3-1.1,2.1-0.9
				l4.3,0.9c1.5-1.4,3.2-2.7,5-3.7l0.4-4.4c0.1-0.9,0.7-1.6,1.5-1.8l6.1-1.5c0.8-0.2,1.7,0.1,2.2,0.9l2.4,3.7c2.1,0.1,4.1,0.4,6.1,1
				l3.4-2.8c0.7-0.5,1.6-0.6,2.3-0.2l5.4,3.3c0.7,0.4,1.1,1.3,0.9,2.1l-0.9,4.3c1.4,1.5,2.7,3.2,3.7,5l4.4,0.4
				c0.9,0.1,1.6,0.7,1.8,1.5l1.5,6.1c0.2,0.8-0.1,1.7-0.9,2.2l-3.7,2.4c-0.1,2.1-0.4,4.1-1,6.1l2.8,3.4c0.5,0.7,0.6,1.6,0.2,2.3
				l-3.3,5.4c-0.4,0.7-1.3,1.1-2.1,0.9l-4.3-0.9c-1.5,1.4-3.2,2.7-5,3.7l-0.4,4.4c-0.1,0.9-0.7,1.6-1.5,1.8l-6.1,1.5
				C422,381.1,421.9,381.1,421.8,381.1z M410.7,372l0.8,0.3c2.2,0.7,4.5,1.1,6.8,1.1l0.9,0l2.9,4.5l4.6-1.1l0.5-5.3l0.8-0.4
				c2.1-1,4-2.4,5.6-4.1l0.6-0.6l5.2,1.1l2.4-4l-3.4-4.1l0.3-0.8c0.7-2.2,1.1-4.5,1.1-6.8l0-0.9l4.5-2.9l-1.1-4.6l-5.3-0.5l-0.4-0.8
				c-1-2.1-2.4-4-4.1-5.6l-0.6-0.6l1.1-5.2l-4-2.4l-4.1,3.4l-0.8-0.3c-2.2-0.7-4.5-1.1-6.8-1.1l-0.9,0l-2.9-4.5l-4.6,1.1l-0.5,5.3
				l-0.8,0.4c-2.1,1-4,2.4-5.6,4.1l-0.6,0.6l-5.2-1.1l-2.4,4l3.4,4.1l-0.3,0.8c-0.7,2.2-1.1,4.5-1.1,6.8l0,0.9l-4.5,2.9l1.1,4.6
				l5.3,0.5l0.4,0.8c1,2.1,2.4,4,4.1,5.6l0.6,0.6l-1.1,5.2l4,2.4L410.7,372z M406,375.9C406,375.9,406,375.9,406,375.9L406,375.9z
				 M402.4,373.7L402.4,373.7C402.4,373.7,402.4,373.7,402.4,373.7z M401.9,372.5L401.9,372.5C401.9,372.5,401.9,372.5,401.9,372.5z
				 M397.5,335.5L397.5,335.5C397.5,335.5,397.5,335.5,397.5,335.5z M420,368.5c-3.7,0.4-7.4-0.4-10.7-2.4c-3.8-2.3-6.5-6-7.6-10.4
				c-2.2-9,3.4-18.1,12.4-20.3c4.4-1.1,8.9-0.4,12.7,2c3.8,2.3,6.5,6,7.6,10.4c0.3,1.2,0.4,2.4,0.5,3.5c0,0.9-0.7,1.6-1.5,1.6
				c-0.9,0-1.6-0.7-1.6-1.5c0-1-0.2-1.9-0.4-2.9c-0.9-3.6-3.1-6.6-6.2-8.5c-3.1-1.9-6.8-2.5-10.3-1.6c-7.3,1.8-11.8,9.2-10.1,16.5
				c0.9,3.5,3.1,6.6,6.2,8.5c3.1,1.9,6.8,2.5,10.3,1.6c2.4-0.6,4.6-1.8,6.4-3.5c0.6-0.6,1.6-0.6,2.2,0c0.6,0.6,0.6,1.6,0,2.2
				c-2.2,2.1-4.9,3.6-7.8,4.4C421.4,368.3,420.7,368.4,420,368.5z"/>
			<path class="st7" d="M419.1,358.9c-1,0.1-2,0-3-0.3c-1.8-0.6-3.3-1.8-4.2-3.5c-0.9-1.7-1.1-3.6-0.5-5.5c0.6-1.8,1.8-3.3,3.5-4.2
				c1.7-0.9,3.6-1.1,5.5-0.5c1.8,0.6,3.3,1.8,4.2,3.5l0,0c1.8,3.5,0.5,7.9-3,9.7C420.8,358.6,419.9,358.8,419.1,358.9z M417.8,347.8
				c-0.5,0.1-1,0.2-1.4,0.4c-1,0.5-1.7,1.3-2,2.4c-0.3,1-0.2,2.1,0.3,3.1c0.5,1,1.3,1.7,2.4,2c1,0.3,2.1,0.2,3.1-0.3
				c2-1,2.7-3.5,1.7-5.5l0,0c-0.5-1-1.3-1.7-2.4-2C418.9,347.8,418.3,347.7,417.8,347.8z"/>
		</g>
		<g>
			<path class="st7" d="M372.3,345.8c-0.2,0-0.3,0-0.5,0l-2.9-0.8c-0.6-0.1-1-0.6-1-1.2l-0.2-1.9c-0.8-0.5-1.5-1-2.1-1.6l-1.9,0.4
				c-0.6,0.1-1.2-0.1-1.5-0.7l-1.5-2.6c-0.3-0.5-0.2-1.2,0.1-1.6l1.2-1.4c-0.2-0.9-0.3-1.7-0.4-2.6l-1.6-1.1
				c-0.5-0.3-0.7-0.9-0.6-1.5l0.8-2.9c0.2-0.6,0.7-1,1.2-1l1.9-0.2c0.5-0.8,1-1.5,1.6-2.1l-0.4-1.9c-0.1-0.6,0.1-1.2,0.7-1.5
				l2.6-1.5c0.5-0.3,1.2-0.2,1.6,0.1l1.4,1.2c0.9-0.2,1.7-0.3,2.6-0.4l1.1-1.6c0.3-0.5,0.9-0.7,1.5-0.6l2.9,0.8c0.6,0.1,1,0.6,1,1.2
				l0.2,1.9c0.8,0.5,1.5,1,2.1,1.6l1.9-0.4c0.6-0.1,1.2,0.1,1.5,0.7l1.5,2.6c0.3,0.5,0.2,1.2-0.1,1.6l-1.2,1.5
				c0.2,0.9,0.3,1.7,0.4,2.6l1.6,1.1c0.5,0.3,0.7,0.9,0.6,1.5l-0.8,2.9c-0.1,0.6-0.6,1-1.2,1l-1.9,0.2c-0.5,0.8-1,1.5-1.6,2.1
				l0.4,1.9c0.1,0.6-0.1,1.2-0.7,1.5l-2.6,1.5c-0.5,0.3-1.2,0.2-1.6-0.1l-1.4-1.2c-0.9,0.2-1.7,0.3-2.6,0.4l-1.1,1.6
				C373,345.5,372.7,345.7,372.3,345.8z M371.3,343.9C371.3,343.9,371.3,343.9,371.3,343.9L371.3,343.9z M379.9,342.6L379.9,342.6
				C379.9,342.6,379.9,342.6,379.9,342.6z M378.8,342.6C378.8,342.6,378.8,342.6,378.8,342.6L378.8,342.6z M370.1,342.9l1.6,0.4
				l1.4-2.1l0.7,0c1.1,0,2.1-0.1,3.2-0.4l0.6-0.2l1.9,1.6l1.4-0.8l-0.5-2.4l0.5-0.5c0.8-0.7,1.4-1.6,1.9-2.6l0.3-0.6l2.5-0.2
				l0.4-1.6l-2.1-1.4l0-0.7c0-1.1-0.1-2.1-0.4-3.2l-0.2-0.6l1.6-1.9l-0.8-1.4l-2.4,0.5l-0.5-0.5c-0.7-0.8-1.6-1.4-2.6-1.9l-0.6-0.3
				l-0.2-2.5l-1.6-0.4l-1.4,2.1l-0.7,0c-1.1,0-2.1,0.1-3.2,0.4l-0.6,0.2l-1.9-1.6l-1.4,0.8l0.5,2.4l-0.5,0.4
				c-0.8,0.7-1.4,1.6-1.9,2.6l-0.3,0.6l-2.5,0.2l-0.4,1.6l2.1,1.4l0,0.7c0,1.1,0.1,2.1,0.4,3.2l0.2,0.6l-1.6,1.9l0.8,1.4l2.4-0.5
				l0.5,0.5c0.7,0.8,1.6,1.4,2.6,1.9l0.6,0.3L370.1,342.9z M380.9,342C380.9,342,380.9,342,380.9,342L380.9,342z M362.6,337.3
				L362.6,337.3C362.6,337.3,362.6,337.3,362.6,337.3z M362.7,336.2L362.7,336.2C362.7,336.2,362.7,336.2,362.7,336.2z M386.1,332.9
				C386.1,332.9,386.1,332.9,386.1,332.9L386.1,332.9z M385.2,326.4C385.2,326.4,385.2,326.4,385.2,326.4L385.2,326.4z M384.7,324.3
				L384.7,324.3C384.7,324.3,384.7,324.3,384.7,324.3z M383.6,323.8C383.6,323.8,383.6,323.8,383.6,323.8L383.6,323.8z M384.4,323.1
				L384.4,323.1L384.4,323.1z M366.4,321.6L366.4,321.6C366.4,321.6,366.4,321.6,366.4,321.6z M378.4,319.9
				C378.4,319.9,378.4,319.9,378.4,319.9L378.4,319.9z M375.5,319.1C375.5,319.1,375.5,319.1,375.5,319.1L375.5,319.1z M367.9,319.9
				C367.9,320,367.9,320,367.9,319.9L367.9,319.9z M374.9,339.7c-1,0.1-2.1,0.1-3.1-0.2c-2.2-0.6-4.1-2-5.2-3.9
				c-1.2-2-1.5-4.3-0.9-6.5c0.6-2.2,2-4.1,3.9-5.2c4-2.4,9.3-1,11.7,3c0.3,0.5,0.6,1.1,0.8,1.6c0.2,0.6-0.1,1.3-0.8,1.5
				c-0.6,0.2-1.3-0.1-1.5-0.7c-0.1-0.4-0.3-0.8-0.5-1.2c-1.7-2.9-5.5-3.9-8.4-2.2c-1.4,0.8-2.4,2.2-2.8,3.8
				c-0.4,1.6-0.2,3.2,0.7,4.7c0.8,1.4,2.2,2.4,3.8,2.8c1.6,0.4,3.2,0.2,4.7-0.7c1-0.6,1.7-1.4,2.3-2.4c0.3-0.6,1-0.8,1.6-0.5
				c0.6,0.3,0.8,1,0.5,1.6c-0.7,1.3-1.8,2.5-3.2,3.3C377.1,339.2,376,339.6,374.9,339.7z"/>
		</g>
	</g>
	<g>
		<path class="st19" d="M711.8,243l13.4-8.3c1-0.6,2.3-0.7,3.5-0.3l14.4,6.3c2.8,1.2,5.8-1.3,5.1-4.3l-3.8-15.3
			c-0.3-1.2,0-2.4,0.8-3.4l10.4-11.8c2-2.3,0.5-6-2.5-6.2l-15.7-1.1c-1.2-0.1-2.3-0.8-2.9-1.8l-8-13.6c-1.6-2.7-5.5-2.4-6.7,0.5
			l-5.9,14.6c-0.5,1.1-1.4,2-2.6,2.2l-15.4,3.4c-3,0.7-3.9,4.5-1.6,6.5l12.1,10.1c0.9,0.8,1.4,2,1.3,3.2l-1.5,15.7
			C705.8,242.6,709.2,244.6,711.8,243z"/>
	</g>
	<g>
		<linearGradient id="SVGID_32_" gradientUnits="userSpaceOnUse" x1="731.6807" y1="209.3431" x2="759.0594" y2="287.3728">
			<stop  offset="0" style="stop-color:#FF928E"/>
			<stop  offset="1" style="stop-color:#FEB3B1"/>
		</linearGradient>
		<path class="st42" d="M744.5,232.8c0,0-21.9,28,3.1,56.5c0,0,9.4-0.9,9.4-0.9c-0.5,0.1-2.8-5-3-5.5c-2.3-4.6-4.3-9.3-5.8-14.2
			c-1.9-6.1-3.2-12.4-3.3-18.8c0-3.3,0.2-6.6,0.9-9.8c0.4-1.8,1.1-3.2,2.9-4c2-0.8,3.8-2.2,4.8-4.1c1-1.9,1.1-4.2,0.3-6.1
			c-0.7-1.7-2-3-3.7-3.8c-0.6-0.3-5.1-1.3-5.1-0.6c0,1.8,1.1,3.4,1.8,5C748.2,229.8,747,231.3,744.5,232.8z"/>
		
			<linearGradient id="SVGID_33_" gradientUnits="userSpaceOnUse" x1="5372.3042" y1="788.9177" x2="5397.6299" y2="685.5624" gradientTransform="matrix(1 0 0 1 -4693.6875 0)">
			<stop  offset="0" style="stop-color:#FF928E"/>
			<stop  offset="1" style="stop-color:#FEB3B1"/>
		</linearGradient>
		<path class="st43" d="M756.5,370c0,0,17.7,38.7,27,54.7c0,0,1.8,10.1,0,13.2l-1.6,0.7l7.4-0.2c0,0,0.7-13.6,0.1-14.3
			c-0.5-0.8-1.5-0.7-1.5-0.7s-3.2-25-12.3-30.3l-8.8-30.5L756.5,370z"/>
		
			<linearGradient id="SVGID_34_" gradientUnits="userSpaceOnUse" x1="5495.7329" y1="326.4932" x2="5479.3096" y2="433.2461" gradientTransform="matrix(1 0 0 1 -4693.6875 0)">
			<stop  offset="0" style="stop-color:#09005D"/>
			<stop  offset="1" style="stop-color:#1A0F91"/>
		</linearGradient>
		<path class="st44" d="M778.8,440.6c0,0.2,5.7,0.1,8.9,0c1.2,0,2.1-0.8,2.4-2l2.4-12.4c0.2-1.2-0.5-2.3-1.7-2.6l-1.3-0.3
			c0,0-1.9,2.6-1.3,5c0.6,2.4,1.1,8.7-0.4,9.4s-5.8,0.9-5.8,0.9S778.9,439,778.8,440.6z"/>
		
			<linearGradient id="SVGID_35_" gradientUnits="userSpaceOnUse" x1="5460.9824" y1="321.1467" x2="5444.5586" y2="427.9002" gradientTransform="matrix(1 0 0 1 -4693.6875 0)">
			<stop  offset="0" style="stop-color:#09005D"/>
			<stop  offset="1" style="stop-color:#1A0F91"/>
		</linearGradient>
		<path class="st45" d="M739.6,440.8c-0.6,0.3-0.3,1.2,0.3,1.2c5.2-0.1,16.9-0.2,18-0.7c1.3-0.6-0.5-5.4-2.4-7l-10.7,3.5
			L739.6,440.8z"/>
		
			<linearGradient id="SVGID_36_" gradientUnits="userSpaceOnUse" x1="5346.1348" y1="782.5049" x2="5371.46" y2="679.1496" gradientTransform="matrix(1 0 0 1 -4693.6875 0)">
			<stop  offset="0" style="stop-color:#FF928E"/>
			<stop  offset="1" style="stop-color:#FEB3B1"/>
		</linearGradient>
		<path class="st46" d="M736.3,367.6c0,0,11.5,55.5,14.7,66.3l-7.7,4.8c0,0,3.8-0.7,6.7-0.9c2.9-0.2,5.5-3.5,5.5-3.5l-0.9-1.5
			c0,0-2.9-55.2-2.2-61.4L736.3,367.6z"/>
		<path class="st12" d="M731.6,279.6c4.4,1.2,19.3,5.1,28.6,5l-5.7,32.2l0.5,5.3l-18.6-0.1c0,0-5.2-12.2-9.4-18.2
			c-1.2-1.8-0.3-3.8,0.4-5.8l-0.9-0.6c-0.9-0.6-1.4-1.8-1-2.9l4.5-13.9C730.2,279.8,730.9,279.4,731.6,279.6z"/>
		<path class="st12" d="M734.9,319.2l0.4,3.2c0,0-5.3,15.7,2.6,52.5c0,0,17.1,4.8,31.1-6.7c0,0-4-34.7-5-36.3c-5.4-8.1-9-9.8-9-9.8
			l-0.2-3.5C754.8,318.6,739.8,321.3,734.9,319.2z"/>
		
			<linearGradient id="SVGID_37_" gradientUnits="userSpaceOnUse" x1="5435.8472" y1="277.4977" x2="5447.5991" y2="277.4977" gradientTransform="matrix(1 0 0 1 -4693.6875 0)">
			<stop  offset="0" style="stop-color:#F9B776"/>
			<stop  offset="1" style="stop-color:#F47960"/>
		</linearGradient>
		<path class="st47" d="M742.2,282.2c-0.1-0.1,3.9-11.9,3.9-11.9l5.7,0.5l2.2,13.4C753.9,284.3,745,286,742.2,282.2z"/>
		
			<linearGradient id="SVGID_38_" gradientUnits="userSpaceOnUse" x1="5438.3579" y1="261.2114" x2="5523.897" y2="267.0281" gradientTransform="matrix(1 0 0 1 -4693.6875 0)">
			<stop  offset="0" style="stop-color:#FF928E"/>
			<stop  offset="1" style="stop-color:#FEB3B1"/>
		</linearGradient>
		<path class="st48" d="M750.3,251.6c-0.4,0.2-12.1,5.1-9.6,17.2c0.1,0.7,0.6,1.3,1.3,1.6c1.7,0.8,5.4,2.1,9.8,1.6
			c6.1-0.6,10.2-11.3,10-14.4C761.7,254.6,754.1,249.3,750.3,251.6z"/>
		
			<linearGradient id="SVGID_39_" gradientUnits="userSpaceOnUse" x1="5460.0972" y1="274.1295" x2="5429.9873" y2="334.3488" gradientTransform="matrix(1 0 0 1 -4693.6875 0)">
			<stop  offset="0" style="stop-color:#09005D"/>
			<stop  offset="1" style="stop-color:#1A0F91"/>
		</linearGradient>
		<path class="st49" d="M753.9,246.9c-0.3,0-6.8,2.3-3.6,7c3.2,4.7,4.4,7.4,2.9,9.5c-1.4,1.9-4.4,0.8-4.2,4.7c0.1,0.8-0.3,1.5-0.9,2
			c-2.9,2-9.9,8-2.9,16.5c0.6,0.7,0.7,1.7,0.2,2.4c-2,3.7-6.3,14.4,9.2,20.3c15.3,5.9,20.9-4.1,22.4-8.2c0.3-0.9,1.2-1.4,2.1-1.4
			c1.7,0.1,4.1-0.2,4-2.5c-0.1-1.4-0.9-2.6-1.9-3.6c-1-1-0.8-2.7,0.4-3.4c0.9-0.5,1.7-1.3,2.1-2.6c0.9-3.4-0.9-13.7-10.8-15.5
			c-0.8-0.1-1.7-0.9-1.8-1.7c0,0,0,0,0,0c-0.1-0.8,0.1-1.6,0.8-2.1c1.6-1.2,3.6-3.5,2-7.2c-1.5-3.3-4.2-4.4-6.3-4.8
			c-1.2-0.2-2-1.4-1.8-2.6C766.4,250.6,765.8,245.4,753.9,246.9z"/>
		
			<linearGradient id="SVGID_40_" gradientUnits="userSpaceOnUse" x1="5218.0508" y1="-281.5443" x2="5245.4297" y2="-203.5145" gradientTransform="matrix(1 0 0 1 -4693.6875 0)">
			<stop  offset="0" style="stop-color:#FF928E"/>
			<stop  offset="1" style="stop-color:#FEB3B1"/>
		</linearGradient>
		<path class="st50" d="M707.9,238.2c0,0-1.6,28.9,24.7,43.6l-6.3,14.4c0,0-23.8-14.4-22.9-53.6c0-1.1-0.4-2.2-1.1-3.1l-5.1-5.9
			c-1.9-2.2-2.6-5.3-1.9-8.1l0.7-2.7c0.2-0.9,1.2-1.3,2-0.9l0.5,0.3c1.7,1,3,2.5,3.8,4.2l2.5,4c0.9,2.1,1.1,2.9,3.4,2.7l4.2,0
			L707.9,238.2z"/>
	</g>
	<g>
		<text transform="matrix(1 0 0 1 270.6021 290.41)" class="st23 st51 st52">Revisión</text>
	</g>
</g>
</svg>
