<?xml version="1.0" encoding="utf-8"?>
<!-- Generator: Adobe Illustrator 26.3.1, SVG Export Plug-In . SVG Version: 6.00 Build 0)  -->
<svg version="1.1" id="Capa_1" xmlns="http://www.w3.org/2000/svg" xmlns:xlink="http://www.w3.org/1999/xlink" x="0px" y="0px"
	 viewBox="0 0 1730 1080" style="enable-background:new 0 0 1730 1080;" xml:space="preserve">
<style type="text/css">
	.st0{fill:#E0813B;}
	.st1{fill:#FAFAFA;}
	.st2{fill:#6C63FE;}
	.st3{opacity:0.3;}
	.st4{fill:#FFFFFF;}
	.st5{fill:#1A2E35;}
	.st6{fill:#FFBF9D;}
	.st7{fill:#375A64;}
	.st8{fill:#FF9A6C;}
	.st9{fill:none;stroke:#44555B;stroke-miterlimit:10;}
	.st10{fill:#E1E1E1;}
	.st11{fill:#FF4F5B;}
	.st12{fill:#ECECEC;}
	.st13{fill:#10A0DC;}
	.st14{fill:#C78976;}
	.st15{fill:#BF654E;}
</style>
<g>
	<g>
		<g>
			<g>
				<path class="st0" d="M1182.52,248.8c-2.25-18.15-17.61-35.08-35.9-35.09c-10.8-0.01-21.07,5.64-28.46,13.53
					c-3.23,3.45-5.44,5.97-7.21,8.56c-1.23-2.89-2.9-5.79-5.39-9.81c-5.69-9.19-14.64-16.74-25.24-18.86
					c-17.93-3.59-36.32,9.98-42.1,27.33c-5.78,17.35-0.97,36.83,8.54,52.46c9.51,15.63,25.88,36.05,56.03,46.19
					c20.79-2.66,48.63-21.11,61.03-34.55C1176.22,285.1,1184.77,266.95,1182.52,248.8z"/>
			</g>
		</g>
	</g>
	<g>
		<g>
			<g>
				<g>
					<path class="st1" d="M1175.93,281.4c0,0.02-0.21,0.02-0.61,0c-0.47-0.03-1.05-0.07-1.76-0.11c-1.65-0.14-3.91-0.32-6.77-0.56
						c-5.98-0.55-14.45-1.32-24.88-2.28l0.45-0.28c-3,7.82-6.51,16.98-10.36,27.02l-0.62,1.63l-0.41-1.7
						c-3.16-13.11-6.7-27.8-10.42-43.28c-1.15-4.79-2.27-9.51-3.38-14.11l1.05,0.21c-6.76,9.3-13.16,18.09-18.99,26.11l-0.18,0.25
						l-0.31-0.03c-17.88-1.87-32.97-3.44-43.71-4.56c-5.23-0.58-9.4-1.05-12.37-1.38c-1.36-0.17-2.44-0.31-3.27-0.41
						c-0.74-0.1-1.12-0.17-1.12-0.2c0-0.03,0.39-0.02,1.14,0.03c0.83,0.06,1.92,0.14,3.29,0.24c2.98,0.26,7.15,0.62,12.4,1.08
						c10.75,1.01,25.85,2.44,43.75,4.13l-0.49,0.22c5.8-8.03,12.17-16.85,18.9-26.17l0.75-1.04l0.3,1.25
						c1.1,4.6,2.24,9.32,3.39,14.11c3.69,15.49,7.19,30.19,10.32,43.31l-1.03-0.07c3.93-10.01,7.51-19.14,10.57-26.94l0.12-0.31
						l0.33,0.04c10.41,1.12,18.87,2.02,24.84,2.66c2.85,0.33,5.11,0.6,6.75,0.79c0.71,0.1,1.28,0.17,1.75,0.24
						C1175.73,281.34,1175.93,281.38,1175.93,281.4z"/>
				</g>
			</g>
		</g>
	</g>
</g>
<g>
	<g>
		<g>
			<rect x="718.79" y="362.13" class="st0" width="13.69" height="61.33"/>
		</g>
		<g>
			
				<rect x="718.79" y="362.13" transform="matrix(6.123234e-17 -1 1 6.123234e-17 332.8332 1118.4299)" class="st0" width="13.69" height="61.33"/>
		</g>
	</g>
	<g>
		<g>
			<path class="st0" d="M776.57,392.95c-0.02,0-0.05-0.28-0.1-0.83c-0.04-0.6-0.1-1.4-0.18-2.42c-0.04-0.54-0.07-1.13-0.12-1.78
				c-0.07-0.65-0.22-1.36-0.33-2.13c-0.25-1.54-0.49-3.32-1.08-5.26c-0.91-3.94-2.77-8.59-5.68-13.52
				c-2.94-4.91-7.18-10.03-12.94-14.38c-5.74-4.31-12.99-7.97-21.35-9.44c-8.3-1.42-17.67-1.16-26.6,2.23
				c-2.27,0.73-4.41,1.85-6.6,2.9c-2.08,1.26-4.27,2.42-6.2,3.99c-2.06,1.41-3.85,3.18-5.74,4.88c-1.7,1.88-3.49,3.73-4.96,5.87
				c-3.01,4.18-5.64,8.83-7.23,13.94c-1.65,5.08-2.54,10.47-2.61,15.96c0.07,5.49,0.96,10.89,2.61,15.97
				c1.59,5.11,4.22,9.76,7.23,13.94c1.47,2.14,3.26,3.98,4.96,5.87c1.88,1.7,3.68,3.47,5.74,4.88c1.94,1.57,4.13,2.73,6.2,3.99
				c2.19,1.05,4.33,2.18,6.6,2.91c8.92,3.39,18.3,3.65,26.6,2.23c8.36-1.48,15.6-5.14,21.35-9.45c5.76-4.35,10-9.47,12.94-14.38
				c2.92-4.93,4.77-9.58,5.68-13.52c0.59-1.94,0.83-3.72,1.08-5.26c0.12-0.77,0.26-1.48,0.33-2.13c0.04-0.65,0.08-1.25,0.12-1.78
				c0.07-1.02,0.13-1.83,0.18-2.42C776.52,393.23,776.55,392.95,776.57,392.95s0.02,0.28,0.01,0.83c-0.02,0.6-0.04,1.41-0.07,2.44
				c-0.02,0.54-0.04,1.14-0.06,1.8c-0.06,0.66-0.18,1.37-0.28,2.15c-0.22,1.55-0.42,3.36-0.99,5.32c-0.86,3.99-2.67,8.71-5.57,13.73
				c-2.93,5-7.17,10.23-12.99,14.68c-5.8,4.41-13.14,8.18-21.65,9.72c-8.44,1.49-17.99,1.26-27.1-2.17
				c-2.32-0.74-4.5-1.88-6.74-2.95c-2.12-1.28-4.36-2.46-6.34-4.06c-2.1-1.44-3.94-3.24-5.87-4.97c-1.74-1.92-3.57-3.8-5.07-5.98
				c-3.08-4.27-5.77-9.01-7.4-14.23c-1.69-5.19-2.59-10.7-2.67-16.3c0.07-5.6,0.98-11.11,2.67-16.3c1.63-5.22,4.32-9.96,7.4-14.23
				c1.5-2.18,3.33-4.06,5.07-5.98c1.92-1.73,3.76-3.53,5.86-4.97c1.98-1.6,4.21-2.78,6.34-4.06c2.24-1.07,4.42-2.21,6.74-2.95
				c9.11-3.43,18.66-3.66,27.1-2.17c8.5,1.54,15.85,5.31,21.65,9.72c5.82,4.45,10.07,9.68,12.99,14.68
				c2.9,5.02,4.72,9.74,5.57,13.73c0.57,1.96,0.77,3.77,0.99,5.32c0.1,0.78,0.23,1.49,0.28,2.15c0.02,0.66,0.05,1.26,0.06,1.8
				c0.03,1.03,0.05,1.84,0.07,2.44C776.59,392.67,776.59,392.95,776.57,392.95z"/>
		</g>
	</g>
</g>
<g>
	<g>
		<g>
			<path class="st2" d="M1407.8,815.35c0,0,60.66-14.46,62.66-17.01l-49.89-128.48c-6.97-17.95-18.73-33.87-34.57-44.81
				c-7.24-5-15.16-9.03-23.61-11.9c-32.42-11.02-58.92-9.1-58.92-9.1l-84.22-4.47c-26.15,1.53-48.52,9.21-66.44,18.39
				c-28.39,14.55-50.28,39.24-62.38,68.75l-37.75,94.34l95.26,19.92l3.62,101.35l-14.36,139.85h263.05l-1.83-221.67l0,0
				L1407.8,815.35z"/>
		</g>
		<g class="st3">
			<g>
				<path class="st4" d="M1460.09,781.55c0.09,0.28-15.65,5.42-35.15,11.46c-19.5,6.05-35.38,10.72-35.47,10.43
					c-0.09-0.28,15.65-5.42,35.15-11.46C1444.12,785.94,1460,781.27,1460.09,781.55z"/>
			</g>
		</g>
		<g>
			<g>
				<path class="st5" d="M1184.89,691.22c-0.06,0.04-0.64-0.75-1.62-2.21c-0.96-1.47-2.44-3.54-4.34-6.02
					c-1.89-2.5-4.31-5.34-7.14-8.36c-2.87-2.98-6.18-6.1-9.88-9.12c-3.73-2.98-7.48-5.56-11-7.74c-3.54-2.13-6.83-3.9-9.67-5.22
					c-2.83-1.34-5.17-2.34-6.8-2.97c-1.63-0.65-2.52-1.05-2.5-1.12s0.96,0.19,2.64,0.72c1.69,0.51,4.08,1.41,6.98,2.67
					c2.9,1.24,6.26,2.95,9.87,5.06c3.58,2.15,7.4,4.73,11.16,7.75c3.74,3.05,7.07,6.23,9.93,9.28c2.82,3.08,5.2,6,7.03,8.58
					c1.84,2.56,3.23,4.71,4.08,6.26C1184.5,690.32,1184.95,691.18,1184.89,691.22z"/>
			</g>
		</g>
		<g>
			<g>
				<path class="st5" d="M1172.46,721.89c0.3,0.03-2.64,30.98-6.56,69.11c-3.92,38.15-7.34,69.04-7.63,69.01
					c-0.3-0.03,2.64-30.97,6.56-69.12C1168.75,752.76,1172.17,721.86,1172.46,721.89z"/>
			</g>
		</g>
		<g>
			<g>
				<path class="st5" d="M1379.55,664.54c-0.17,0.02-0.54-2.41-1.36-6.28c-0.81-3.87-2.15-9.17-4.18-14.84
					c-2.04-5.67-4.37-10.62-6.21-14.12c-1.83-3.51-3.09-5.62-2.94-5.71c0.06-0.04,0.45,0.44,1.09,1.35
					c0.65,0.91,1.52,2.27,2.52,3.99c2.02,3.44,4.49,8.39,6.56,14.13c2.05,5.74,3.29,11.13,3.92,15.07c0.32,1.97,0.51,3.57,0.59,4.68
					C1379.62,663.91,1379.63,664.53,1379.55,664.54z"/>
			</g>
		</g>
		<g>
			<g>
				<path class="st5" d="M1384.82,772.74c-0.07,0.01-0.25-1.08-0.51-3.04c-0.26-1.97-0.58-4.82-0.92-8.34
					c-0.69-7.05-1.41-16.83-1.79-27.64c-0.38-10.81-0.35-20.61-0.16-27.7c0.09-3.54,0.21-6.41,0.33-8.39
					c0.12-1.98,0.22-3.07,0.29-3.07c0.07,0,0.12,1.1,0.13,3.08c0,2.18,0.01,5,0.01,8.38c0.01,7.08,0.1,16.86,0.47,27.65
					c0.38,10.79,0.98,20.55,1.47,27.61c0.23,3.38,0.43,6.19,0.58,8.37C1384.86,771.64,1384.9,772.74,1384.82,772.74z"/>
			</g>
		</g>
		<g>
			<path class="st4" d="M1257.48,754.65c-22.1,1.29-44.31,0.87-66.34-1.24v8.62h66.34V754.65z"/>
		</g>
		<g class="st3">
			<g>
				<path class="st4" d="M1323.45,611.33c0.03,0,0.11,0.44,0.26,1.31c0.14,0.94,0.33,2.21,0.58,3.82c0.42,3.35,1,8.26,1.48,14.49
					c0.99,12.46,1.86,30.16,2.16,51.06l0.01,0.8l-0.72-0.35c-13.23-6.43-28.06-13.44-43.49-21.15
					c-29.41-14.72-56.03-28.04-75.38-37.73c-9.57-4.85-17.34-8.78-22.79-11.54c-2.63-1.36-4.69-2.42-6.17-3.19
					c-0.66-0.35-1.18-0.63-1.59-0.85c-0.36-0.2-0.53-0.31-0.52-0.32c0.01-0.02,0.2,0.06,0.58,0.23c0.42,0.2,0.97,0.45,1.64,0.76
					c1.5,0.72,3.6,1.73,6.26,3.01c5.49,2.69,13.31,6.52,22.94,11.24c19.38,9.61,46.05,22.83,75.52,37.44
					c15.43,7.71,30.23,14.74,43.42,21.22l-0.7,0.45c-0.22-20.88-0.95-38.58-1.77-51.03c-0.39-6.23-0.88-11.14-1.2-14.5
					c-0.18-1.62-0.32-2.9-0.42-3.84C1323.46,611.78,1323.43,611.33,1323.45,611.33z"/>
			</g>
		</g>
		<g class="st3">
			<g>
				<path class="st4" d="M1165.09,790.39c-0.01,0.04-0.39-0.03-1.1-0.19c-0.83-0.2-1.85-0.44-3.09-0.74
					c-2.83-0.72-6.67-1.69-11.34-2.88c-9.57-2.45-22.79-5.8-37.44-9.35c-14.65-3.54-27.95-6.6-37.58-8.79
					c-4.7-1.08-8.56-1.96-11.4-2.62c-1.24-0.3-2.27-0.55-3.09-0.75c-0.7-0.18-1.07-0.3-1.06-0.33c0.01-0.04,0.39,0.01,1.11,0.12
					c0.84,0.15,1.87,0.33,3.13,0.55c2.72,0.5,6.64,1.28,11.48,2.28c9.68,2,23.01,4.95,37.67,8.49c14.65,3.55,27.86,7.02,37.38,9.66
					c4.76,1.32,8.61,2.42,11.25,3.21c1.22,0.38,2.23,0.69,3.04,0.94C1164.74,790.22,1165.1,790.35,1165.09,790.39z"/>
			</g>
		</g>
		<g>
			<g>
				<g>
					<path class="st5" d="M1311.88,595.64c0.1-0.31,5.7,2.69,11.2,10.82c5.41,8.11,10.48,20.7,13.33,35.18
						c1.41,7.25,2.11,14.25,2.42,20.63c0.04,3.19,0.14,6.23,0.04,9.06c-0.15,2.83-0.19,5.48-0.44,7.87
						c-0.26,2.37-0.49,4.54-0.7,6.46c-0.26,1.89-0.58,3.51-0.82,4.84c-0.49,2.65-0.83,4.09-0.98,4.07
						c-0.15-0.02-0.09-1.52,0.15-4.18c0.13-1.38,0.28-3,0.45-4.85c0.11-1.92,0.24-4.07,0.37-6.44c0.15-2.38,0.09-5,0.17-7.8
						c0.02-2.8-0.14-5.8-0.24-8.94c-0.41-6.28-1.16-13.17-2.55-20.3c-2.8-14.24-7.58-26.7-12.49-34.76
						c-2.47-4.02-5.05-6.92-6.91-8.79C1313.01,596.62,1311.78,595.78,1311.88,595.64z"/>
				</g>
			</g>
			<g>
				<g>
					<path class="st5" d="M1217.64,596.23c0.2,0.18-1.53,2.31-4.38,6.3c-2.85,3.99-6.52,10.11-9.76,18.22
						c-3.29,8.1-5.71,18.3-7.25,29.79c-1.51,11.5-2.16,24.35-3,37.79c-0.7,13.42-0.73,26.26-0.75,37.95
						c-0.01,11.68-0.01,22.2-0.01,31.07c-0.07,8.85-0.23,16.02-0.49,20.97c-0.25,4.95-0.55,7.68-0.76,7.67
						c-0.23-0.01-0.36-2.74-0.5-7.69c-0.13-5.04-0.31-12.16-0.54-20.93c-0.22-8.84-0.52-19.37-0.68-31.07
						c-0.15-11.71-0.2-24.59,0.5-38.14c0.85-13.49,1.58-26.34,3.28-38.02c1.72-11.65,4.43-22.06,8.09-30.25
						c3.6-8.21,7.66-14.29,10.87-18.11C1215.46,597.95,1217.51,596.11,1217.64,596.23z"/>
				</g>
			</g>
			<g>
				<g>
					<path class="st5" d="M1356.99,769.51c-0.15,0-0.29-2.44-0.41-6.85c-0.12-4.41-0.23-10.79-0.31-18.67
						c-0.03-3.95-0.07-8.27-0.11-12.89c-0.08-4.62,0.08-9.62-0.28-14.71c-0.39-5.05-1.7-10.42-5.29-14.48
						c-3.51-4.08-8.9-6.84-14.61-6.91c-5.72-0.1-11.22,2.34-15.27,5.92c-4.13,3.58-6.43,8.55-7.72,13.45
						c-1.28,4.93-1.82,9.89-2.59,14.45c-0.72,4.57-1.4,8.83-2.02,12.73c-1.25,7.78-2.3,14.07-3.07,18.42
						c-0.77,4.34-1.27,6.73-1.42,6.71c-0.15-0.02,0.07-2.45,0.59-6.83c0.52-4.38,1.34-10.71,2.39-18.52
						c0.54-3.91,1.13-8.19,1.76-12.77c0.69-4.58,1.16-9.51,2.44-14.69c1.28-5.12,3.73-10.58,8.24-14.53
						c4.38-3.92,10.34-6.61,16.72-6.5c6.37,0.08,12.33,3.16,16.18,7.68c3.99,4.57,5.33,10.48,5.67,15.71
						c0.32,5.31,0.08,10.23,0.09,14.87c-0.05,4.63-0.11,8.94-0.15,12.89c-0.11,7.88-0.24,14.26-0.37,18.67
						C1357.29,767.07,1357.14,769.51,1356.99,769.51z"/>
				</g>
			</g>
			<g>
				<path class="st5" d="M1336.99,674.73c-0.67,7.26-3,15.4-8.04,20.67c4.4-0.96,9.02-0.87,13.38,0.26
					c-3.14-6.3-3.65-13.89-3.56-20.93"/>
			</g>
			<g>
				<g>
					<path class="st5" d="M1357.07,721.89c-0.39,0.07-0.63-3.48-3.29-8.22c-1.32-2.35-3.28-4.96-6.02-7.21
						c-2.7-2.27-6.23-4.13-10.2-4.86c-3.98-0.67-7.93-0.11-11.23,1.12c-3.32,1.22-6.03,3.03-8.02,4.85
						c-4.03,3.65-5.34,6.96-5.7,6.77c-0.19-0.02,0.62-3.67,4.64-7.87c1.98-2.08,4.8-4.17,8.37-5.61c3.54-1.45,7.89-2.15,12.32-1.39
						c4.42,0.81,8.27,2.93,11.12,5.47c2.89,2.52,4.86,5.42,6.09,8.01C1357.6,718.21,1357.26,721.92,1357.07,721.89z"/>
				</g>
			</g>
		</g>
	</g>
	<g>
		<g>
			<path class="st6" d="M1412.54,956.7c12.34-0.04,23.37-8.89,29.19-19.78c5.82-10.89,7.28-23.54,7.86-35.87
				c1.52-32.63-2.51-65.51-11.87-96.81l-54.1,9.45l14.73,145.69L1412.54,956.7z"/>
		</g>
		<g>
			<g>
				<polygon class="st5" points="1193.73,974.84 1369.86,968.43 1412.59,762.03 1227.07,772.33 				"/>
			</g>
			<g>
				<path class="st7" d="M1284.4,768.79l2.65-5.26l14.06-1.03c0,0,3.57-9.22,23.66-10.16c18.01-0.84,18.74,8.21,18.74,8.21h9.71
					v4.42L1284.4,768.79z"/>
			</g>
		</g>
		<g>
			<g>
				<path class="st6" d="M1382.6,908.33l13.35-3.89c2.51-0.73,5.17-0.85,7.73-0.34l0,0c3.13,0.62,6,2.14,8.28,4.38
					c4.42,4.35,11.54,11.55,12.56,13.69c1.49,3.14,1.49,8.56,0,10.56c-1.49,2,3.28,12.27,2.68,15.7c-0.6,3.43-1.49,6.85-2.68,8.28
					c-1.19,1.43,0,6.31-2.98,10.01c-2.98,3.7-5.66,5.98-5.66,5.98s-36.67,1.71-40.25,0c-3.58-1.71-9.84-8.28-9.84-8.28
					s-3.28-5.99,1.79-6.57l-20.88-7.99c-2.5-0.96-3.99-3.76-3.03-6.26c0.33-0.86,0.9-1.61,1.84-2.02c0,0-9.37-2.96-11.54-3.92
					c-4.33-1.91-5.97-11.99,2.99-10.7c4.74,0.68,11.13,2.06,11.13,2.06s-3.42-5.57,1.36-8.88c2.9-2.01,15.97,0.44,15.97,0.44
					L1382.6,908.33L1382.6,908.33z"/>
			</g>
			<g>
				<g>
					<path class="st8" d="M1387.25,963.37c-0.02,0.28-4.99,0.07-10.84-1.62c-5.89-1.62-10.16-4.26-9.99-4.51
						c0.14-0.26,4.51,1.89,10.29,3.47C1382.45,962.37,1387.28,963.06,1387.25,963.37z"/>
				</g>
			</g>
			<g>
				<g>
					<path class="st8" d="M1379.27,950.34c-0.07,0.29-7.7-1.41-17.02-3.79c-9.33-2.38-16.83-4.55-16.76-4.83
						c0.07-0.29,7.69,1.41,17.02,3.79C1371.85,947.89,1379.35,950.05,1379.27,950.34z"/>
				</g>
			</g>
			<g>
				<g>
					<path class="st8" d="M1383.61,937.36c-0.07,0.29-8.27-1.38-18.32-3.73c-10.05-2.35-18.15-4.49-18.08-4.78
						c0.07-0.29,8.27,1.38,18.33,3.73C1375.59,934.93,1383.68,937.07,1383.61,937.36z"/>
				</g>
			</g>
			<g>
				<g>
					<path class="st8" d="M1397.19,920.66c0.03,0.15-1.77,0.71-4.71,1.5c-1.6,0.41-3.33,0.86-5.17,1.33c-1,0.25-2.02,0.5-3.07,0.76
						c-1.11,0.29-2.32,0.41-3.52,0.34c-1.21-0.07-2.36-0.3-3.44-0.56c-1.06-0.24-2.08-0.47-3.08-0.7c-1.85-0.45-3.59-0.86-5.2-1.25
						c-2.95-0.74-4.77-1.27-4.74-1.42c0.03-0.15,1.9,0.12,4.9,0.67c1.63,0.32,3.38,0.66,5.26,1.02c1.99,0.35,4.14,1,6.35,1.15
						c2.21,0.18,4.26-0.61,6.28-0.98c1.87-0.4,3.62-0.77,5.25-1.12C1395.29,920.81,1397.16,920.51,1397.19,920.66z"/>
				</g>
			</g>
			<g>
				<g>
					<path class="st8" d="M1399.54,927.68c0.11-0.08,0.61,0.37,1.01,1.36c0.4,0.97,0.64,2.51,0.14,4.1
						c-0.5,1.59-1.57,2.72-2.45,3.28c-0.89,0.58-1.56,0.66-1.61,0.54c-0.16-0.26,2.17-1.41,3.03-4.14
						C1400.53,930.08,1399.27,927.8,1399.54,927.68z"/>
				</g>
			</g>
			<g>
				<g>
					<path class="st8" d="M1398.78,941.85c0.26-0.12,1.09,1.35,0.97,3.37c-0.11,2.01-1.09,3.39-1.34,3.24
						c-0.28-0.14,0.18-1.54,0.26-3.3C1398.79,943.4,1398.49,941.96,1398.78,941.85z"/>
				</g>
			</g>
			<g>
				<g>
					<path class="st8" d="M1399,957.24c0.27-0.1,0.83,0.9,0.56,2.2c-0.26,1.3-1.15,2.01-1.36,1.81c-0.24-0.19,0.11-1.01,0.31-2.02
						C1398.71,958.22,1398.7,957.33,1399,957.24z"/>
				</g>
			</g>
			<g>
				<g>
					<path class="st8" d="M1402.99,919.81c-0.03,0.15-1.37,0.07-3.53-0.18c-1.23-0.16-2.48-0.32-3.77-0.49
						c-1.44-0.23-2.91-0.45-4.49-0.22c-1.44,0.21-2.85,1.08-3.99,1.79c-1.15,0.78-2.15,1.63-3.12,2.2
						c-1.94,1.16-3.36,1.26-3.38,1.16c-0.06-0.18,1.26-0.55,2.96-1.79c1.68-1.19,3.78-3.68,7.39-4.43c0.87-0.11,1.7-0.12,2.52-0.06
						c0.84,0.08,1.53,0.25,2.26,0.36c1.28,0.25,2.53,0.48,3.75,0.72C1401.72,919.32,1403.02,919.66,1402.99,919.81z"/>
				</g>
			</g>
		</g>
		<g>
			<g>
				<path class="st8" d="M1424.18,957.39c-0.08-0.04,0.31-0.96,0.94-2.64c0.59-1.68,1.51-4.15,1.47-7.31
					c-0.01-1.57-0.31-3.28-0.78-5.09c-0.43-1.82-1.26-3.64-1.73-5.82c-0.53-2.23,0.16-4.59,0.45-6.77c0.3-2.2-0.18-4.51-1.2-6.67
					c-1.01-2.16-2.41-4.09-3.82-5.91c-1.43-1.81-2.82-3.56-4.21-5.14c-2.77-3.17-5.75-5.6-8.67-6.79c-2.91-1.23-5.55-1.35-7.29-1.1
					c-1.76,0.23-2.66,0.71-2.7,0.61c-0.02-0.03,0.2-0.16,0.63-0.38c0.44-0.2,1.1-0.46,2-0.64c1.78-0.39,4.56-0.39,7.64,0.81
					c3.11,1.15,6.27,3.64,9.13,6.83c1.44,1.6,2.85,3.33,4.3,5.15c1.44,1.83,2.89,3.81,3.96,6.1c1.08,2.27,1.62,4.85,1.27,7.25
					c-0.34,2.37-0.98,4.45-0.52,6.46c0.39,1.99,1.22,3.91,1.62,5.79c0.45,1.86,0.72,3.66,0.68,5.31c-0.06,3.33-1.14,5.83-1.85,7.47
					C1424.75,956.56,1424.24,957.42,1424.18,957.39z"/>
			</g>
		</g>
		<g>
			<g>
				<path class="st6" d="M1300.88,855.29l-144.62,22.97l6.42-75.48l-80.42-15.54L1072.48,899l-1.69,25.61
					c-1.15,17.35,6.8,34.06,21,44.11h0c12.9,9.13,29.36,11.63,44.39,6.73l31.08-10.13l151.56-53.92"/>
			</g>
			<g>
				<g>
					<path class="st6" d="M1388.39,839.73c0.58-2.5-1.56-4.82-4.12-4.83c-8.15-0.03-30.16,0.09-37.94,2.3
						c-9.62,2.73-45.44,18.1-45.44,18.1l15.19,56.08l54.99,0.58c0,0,20.09-9.23,20.34-13.23c0.13-2.04-0.5-7.49-0.5-7.49l6.06-3.25
						c9.04-5.73,3.24-16.73,3.24-16.73s6.22-3.49,6.55-9.79c0.35-6.65-4.85-9.27-4.85-9.27s2.49-8.87-2.14-11.26
						c-4.63-2.39-12.47,0.68-12.47,0.68C1387.84,841.2,1388.2,840.52,1388.39,839.73z"/>
				</g>
				<g>
					<g>
						<path class="st8" d="M1391.55,840.65c0.02,0.07-0.58,0.28-1.69,0.59c-1.11,0.31-2.73,0.67-4.75,1.02
							c-4.04,0.72-9.67,1.33-15.86,1.99c-6.19,0.67-11.77,1.42-15.71,2.39c-3.96,0.93-6.17,2.15-6.26,1.99
							c-0.04-0.06,0.49-0.41,1.51-0.98c1.03-0.53,2.58-1.16,4.56-1.75c3.96-1.18,9.58-2.06,15.79-2.73
							c6.21-0.67,11.82-1.15,15.86-1.68C1389.04,841.01,1391.5,840.49,1391.55,840.65z"/>
					</g>
				</g>
				<g>
					<g>
						<path class="st8" d="M1401.89,851.88c0.06,0.12-1.37,0.98-3.86,1.98c-2.48,1.01-6.04,2.08-10.03,2.92
							c-3.99,0.84-7.63,1.37-10.27,1.71c-2.64,0.34-4.28,0.48-4.31,0.34c-0.06-0.35,6.43-1.5,14.35-3.11
							c3.95-0.83,7.48-1.77,9.99-2.58C1400.29,852.34,1401.82,851.73,1401.89,851.88z"/>
					</g>
				</g>
				<g>
					<g>
						<path class="st8" d="M1400.32,871.36c0.11,0.26-5.05,2.49-11.78,4c-6.73,1.54-12.34,1.74-12.36,1.46
							c-0.03-0.32,5.47-1,12.12-2.52C1394.95,872.82,1400.21,871.06,1400.32,871.36z"/>
					</g>
				</g>
				<g>
					<g>
						<path class="st8" d="M1396.96,887.99c0.11,0.26-3.84,2.08-9.04,3.33c-5.19,1.26-9.54,1.45-9.56,1.16
							c-0.03-0.31,4.2-0.97,9.31-2.21C1392.78,889.05,1396.85,887.7,1396.96,887.99z"/>
					</g>
				</g>
				<g>
					<g>
						<path class="st8" d="M1368.28,878.05c0.04,0.13-0.56,0.49-1.68,0.6c-1.1,0.11-2.73-0.14-4.16-1.15
							c-1.43-1.02-2.2-2.48-2.46-3.55c-0.27-1.09-0.12-1.78,0.01-1.78c0.29-0.07,0.6,2.69,3.07,4.45
							C1365.55,878.37,1368.26,877.75,1368.28,878.05z"/>
					</g>
				</g>
				<g>
					<g>
						<path class="st8" d="M1367.13,895.43c0.05,0.29-2.15,0.43-4.03-1.27c-1.9-1.67-2.01-3.87-1.72-3.86
							c0.3-0.07,0.84,1.66,2.44,3.05C1365.38,894.78,1367.16,895.12,1367.13,895.43z"/>
					</g>
				</g>
				<g>
					<g>
						<path class="st8" d="M1360.76,860.13c0.12,0.29-1.41,0.77-2.81-0.3c-1.41-1.06-1.37-2.65-1.06-2.62
							c0.3-0.03,0.67,1.01,1.71,1.76C1359.61,859.76,1360.71,859.83,1360.76,860.13z"/>
					</g>
				</g>
				<g>
					<g>
						<path class="st8" d="M1300.88,855.29c-0.01-0.01,0.14-0.09,0.43-0.24c0.34-0.16,0.77-0.36,1.31-0.61
							c1.22-0.54,2.93-1.29,5.1-2.26c4.46-1.94,10.97-4.73,19.18-8.1c4.11-1.68,8.64-3.51,13.6-5.35c2.49-0.87,5.04-1.93,7.89-2.45
							c2.81-0.53,5.73-0.83,8.74-1.08c6.01-0.47,12.38-0.67,19.03-0.77c1.66-0.01,3.34-0.03,5.04-0.04c0.85,0,1.7,0,2.56,0
							c0.84-0.03,1.91,0.09,2.74,0.57c1.7,0.87,2.92,2.9,2.35,5c-0.21,0.46-0.43,0.55-0.64,0.72c-0.21,0.15-0.41,0.27-0.62,0.38
							c-0.41,0.22-0.83,0.41-1.25,0.59c-0.85,0.35-1.68,0.66-2.61,0.9c-0.28,0.07-0.57-0.09-0.64-0.37
							c-0.07-0.28,0.1-0.56,0.37-0.64c2.24-0.64,4.51-1.16,6.86-1.53c2.34-0.35,4.76-0.6,7.25-0.25c1.22,0.2,2.55,0.58,3.55,1.54
							c1,0.94,1.51,2.24,1.76,3.49c0.46,2.55,0.14,5.08-0.47,7.57l-0.28-0.63c1.18,0.66,2.19,1.58,3.04,2.68
							c2.15,2.79,2.64,6.57,1.58,9.81c-1.1,3.26-3.51,5.78-6.3,7.51l0.21-0.71c1.43,3.02,2.17,6.3,1.74,9.57
							c-0.37,3.3-2.53,6.17-5.18,7.84l-0.03,0.02c-2.05,1.1-4.07,2.18-6.06,3.24l0.26-0.5c0.16,1.45,0.3,2.89,0.4,4.32
							c0.05,0.72,0.09,1.43,0.11,2.15c0.01,0.36,0,0.72-0.01,1.1c-0.06,0.47-0.23,0.88-0.45,1.2c-0.88,1.29-2.02,2.13-3.13,2.98
							c-1.12,0.82-2.27,1.56-3.42,2.27c-4.62,2.79-9.23,5.08-13.65,7.15c-0.06,0.03-0.13,0.04-0.19,0.04
							c-16.65-0.25-30.38-0.46-40.02-0.61c-4.73-0.1-8.46-0.18-11.07-0.24c-1.22-0.04-2.18-0.07-2.9-0.09
							c-0.66-0.03-0.99-0.05-0.99-0.08c0-0.02,0.34-0.04,0.99-0.06c0.72-0.01,1.68-0.02,2.9-0.03c2.62,0,6.34,0,11.08,0
							c9.64,0.06,23.37,0.14,40.03,0.24l-0.19,0.04c4.38-2.08,8.96-4.39,13.52-7.17c1.13-0.7,2.26-1.44,3.35-2.24
							c1.06-0.8,2.18-1.68,2.86-2.72c0.18-0.26,0.26-0.52,0.3-0.74c0.01-0.33,0.02-0.67,0.01-1.02c-0.02-0.69-0.06-1.39-0.11-2.1
							c-0.11-1.41-0.25-2.84-0.41-4.28c-0.02-0.21,0.09-0.41,0.26-0.51c1.99-1.07,4.01-2.15,6.06-3.26l-0.03,0.02
							c2.45-1.57,4.35-4.11,4.7-7.12c0.39-2.97-0.33-6.15-1.65-8.93c-0.12-0.26-0.03-0.57,0.21-0.71c2.55-1.58,4.84-4,5.8-6.92
							c0.95-2.9,0.5-6.35-1.42-8.82c-0.74-0.98-1.73-1.85-2.67-2.37c-0.23-0.12-0.33-0.39-0.28-0.63c0.57-2.31,0.87-4.8,0.45-7.07
							c-0.22-1.12-0.67-2.19-1.44-2.92c-0.76-0.74-1.86-1.08-2.98-1.26c-2.28-0.33-4.64-0.1-6.93,0.25
							c-2.29,0.35-4.55,0.87-6.72,1.48l-0.27-1.01c0.8-0.21,1.65-0.52,2.45-0.84c0.4-0.17,0.79-0.34,1.16-0.54
							c0.36-0.14,0.71-0.54,0.86-0.51c0-0.69,0.04-1.51-0.35-2.18c-0.34-0.68-0.91-1.25-1.59-1.6c-0.7-0.38-1.39-0.47-2.26-0.45
							c-0.86,0-1.71,0-2.56-0.01c-1.69,0.01-3.37,0.02-5.03,0.03c-6.64,0.07-12.99,0.25-18.97,0.69c-2.99,0.23-5.89,0.51-8.65,1.02
							c-2.74,0.48-5.3,1.51-7.78,2.36c-4.95,1.8-9.5,3.59-13.62,5.22c-8.17,3.31-14.72,5.96-19.29,7.81
							c-2.2,0.89-3.93,1.59-5.17,2.1c-0.55,0.21-0.99,0.39-1.34,0.52C1301.04,855.26,1300.89,855.31,1300.88,855.29z"/>
					</g>
				</g>
			</g>
			<g>
				<g>
					<path class="st8" d="M1156.85,878.13c0.19,0.3-5.71,3.14-10.69,9.22c-5.07,6.01-6.79,12.33-7.12,12.19
						c-0.12-0.03,0.14-1.64,1.08-4.09c0.93-2.45,2.65-5.7,5.21-8.79c2.58-3.09,5.46-5.36,7.7-6.72
						C1155.26,878.56,1156.79,878.02,1156.85,878.13z"/>
				</g>
			</g>
		</g>
	</g>
	<g>
		<g>
			<g>
				<g>
					<g>
						<g>
							<g>
								<g>
									<g>
										<g>
											<path class="st6" d="M1345.69,430.95c-2.98-37.96-34.61-67.25-72.68-67.33l-3.78-0.01c-40.8,2.3-61.63,38.23-58.21,78.95
												l7.04,163.23c0.12,2.74,1.75,5.19,4.23,6.35l91.56,42.97l-2.83-85.67c0,0,39.23-6.02,39.79-45.22
												C1351.07,505.29,1348.46,466.25,1345.69,430.95z"/>
										</g>
										<g>
											<g>
												<g>
													<g>
														<g>
															<g>
																<g>
																	<g>
																		<g>
																			<g>
																				<path class="st8" d="M1311.33,569.39c0,0-25.04,1.46-51.34-15.14c0,0,12.02,28.24,51.15,24.79L1311.33,569.39z"
																					/>
																			</g>
																		</g>
																	</g>
																</g>
															</g>
														</g>
													</g>
												</g>
											</g>
										</g>
									</g>
								</g>
							</g>
							<g>
								<g>
									<g>
										<g>
											<g>
												<g>
													<g>
														<g>
															<g>
																<g>
																	<g>
																		<g>
																			<g>
																				<g>
																					<g>
																						<g>
																							<path class="st5" d="M1331.79,455.3c0.1,2.96-2.32,5.48-5.41,5.64c-3.08,0.16-5.66-2.1-5.76-5.06
																								c-0.1-2.96,2.32-5.48,5.4-5.64C1329.11,450.07,1331.69,452.34,1331.79,455.3z"/>
																						</g>
																					</g>
																				</g>
																			</g>
																		</g>
																	</g>
																</g>
															</g>
														</g>
													</g>
													<g>
														<g>
															<g>
																<g>
																	<g>
																		<g>
																			<g>
																				<g>
																					<g>
																						<g>
																							<g>
																								<path class="st5" d="M1337.22,450.12c-0.7,0.73-4.93-2.42-10.96-2.42c-6.02-0.08-10.45,3.01-11.1,2.27
																									c-0.32-0.33,0.39-1.64,2.32-3.04c1.9-1.39,5.13-2.74,8.89-2.72c3.75,0.03,6.91,1.42,8.72,2.83
																									C1336.94,448.47,1337.56,449.79,1337.22,450.12z"/>
																							</g>
																						</g>
																					</g>
																				</g>
																			</g>
																		</g>
																	</g>
																</g>
															</g>
														</g>
													</g>
												</g>
												<g>
													<g>
														<g>
															<g>
																<g>
																	<g>
																		<g>
																			<g>
																				<g>
																					<g>
																						<g>
																							<path class="st5" d="M1272.56,457.13c0.1,2.96-2.32,5.48-5.41,5.64c-3.08,0.16-5.66-2.1-5.76-5.06
																								c-0.1-2.96,2.32-5.48,5.41-5.64C1269.88,451.9,1272.46,454.17,1272.56,457.13z"/>
																						</g>
																					</g>
																				</g>
																			</g>
																		</g>
																	</g>
																</g>
															</g>
														</g>
													</g>
													<g>
														<g>
															<g>
																<g>
																	<g>
																		<g>
																			<g>
																				<g>
																					<g>
																						<g>
																							<g>
																								<path class="st5" d="M1278,451.12c-0.7,0.73-4.94-2.42-10.96-2.41c-6.02-0.08-10.45,3.01-11.1,2.27
																									c-0.32-0.33,0.38-1.64,2.32-3.04c1.9-1.39,5.13-2.74,8.89-2.72c3.75,0.03,6.91,1.42,8.72,2.83
																									C1277.71,449.47,1278.34,450.79,1278,451.12z"/>
																							</g>
																						</g>
																					</g>
																				</g>
																			</g>
																		</g>
																	</g>
																</g>
															</g>
														</g>
													</g>
												</g>
												<g>
													<g>
														<g>
															<g>
																<g>
																	<g>
																		<g>
																			<g>
																				<g>
																					<g>
																						<g>
																							<path class="st5" d="M1299.77,495.85c-0.03-0.34,3.72-0.98,9.79-1.75c1.54-0.16,3-0.46,3.26-1.51
																								c0.36-1.11-0.28-2.77-1.02-4.56c-1.44-3.73-2.94-7.63-4.53-11.72c-6.28-16.69-10.83-30.42-10.16-30.66
																								c0.68-0.25,6.32,13.08,12.6,29.78c1.51,4.12,2.96,8.04,4.33,11.79c0.58,1.75,1.58,3.73,0.79,6.04
																								c-0.42,1.15-1.55,1.98-2.53,2.24c-0.99,0.3-1.85,0.31-2.61,0.36
																								C1303.58,496.17,1299.79,496.19,1299.77,495.85z"/>
																						</g>
																					</g>
																				</g>
																			</g>
																		</g>
																	</g>
																</g>
															</g>
														</g>
													</g>
												</g>
												<g>
													<g>
														<g>
															<g>
																<g>
																	<g>
																		<g>
																			<g>
																				<g>
																					<g>
																						<g>
																							<path class="st5" d="M1282.03,499.98c0.98-0.05,0.98,6.49,6.57,11.14c5.58,4.67,12.55,3.95,12.6,4.86
																								c0.09,0.41-1.56,1.27-4.5,1.34c-2.89,0.09-7.1-0.84-10.52-3.69c-3.41-2.85-4.87-6.65-5.09-9.34
																								C1280.85,501.56,1281.58,499.94,1282.03,499.98z"/>
																						</g>
																					</g>
																				</g>
																			</g>
																		</g>
																	</g>
																</g>
															</g>
														</g>
													</g>
												</g>
											</g>
										</g>
									</g>
									<g>
										<g>
											<g>
												<g>
													<g>
														<g>
															<g>
																<g>
																	<g>
																		<g>
																			<path class="st5" d="M1279.6,427.51c-0.6,1.64-6.61,0.85-13.68,1.69c-7.09,0.7-12.79,2.75-13.73,1.28
																				c-0.42-0.7,0.58-2.24,2.89-3.82c2.29-1.58,5.94-3.08,10.18-3.54c4.24-0.45,8.13,0.23,10.7,1.28
																				C1278.55,425.44,1279.86,426.73,1279.6,427.51z"/>
																		</g>
																	</g>
																</g>
															</g>
														</g>
													</g>
												</g>
											</g>
										</g>
									</g>
									<g>
										<g>
											<g>
												<g>
													<g>
														<g>
															<g>
																<g>
																	<g>
																		<g>
																			<path class="st5" d="M1335.04,432.67c-1.06,1.37-5.21-0.06-10.2-0.14c-4.99-0.25-9.22,0.9-10.19-0.53
																				c-0.42-0.7,0.24-2.06,2.09-3.36c1.82-1.29,4.87-2.34,8.3-2.23c3.43,0.12,6.4,1.36,8.13,2.77
																				C1334.93,430.6,1335.51,432.01,1335.04,432.67z"/>
																		</g>
																	</g>
																</g>
															</g>
														</g>
													</g>
												</g>
											</g>
										</g>
									</g>
								</g>
							</g>
						</g>
					</g>
				</g>
				<g>
					<g>
						<g>
							<g>
								<g>
									<g>
										<g>
											<g>
												<g>
													<g>
														<g>
															<path class="st6" d="M1216.88,471.6c-0.67-0.29-26.92-8.02-26.12,18.78c0.8,26.81,27.55,20.47,27.57,19.7
																C1218.35,509.31,1216.88,471.6,1216.88,471.6z"/>
														</g>
													</g>
												</g>
											</g>
										</g>
									</g>
								</g>
							</g>
						</g>
					</g>
					<g>
						<g>
							<g>
								<g>
									<g>
										<g>
											<g>
												<g>
													<g>
														<g>
															<g>
																<path class="st8" d="M1212.2,500.17c-0.12-0.08-0.46,0.34-1.24,0.73c-0.76,0.37-2.07,0.66-3.49,0.18
																	c-2.86-0.95-5.38-5.38-5.66-10.21c-0.14-2.44,0.3-4.78,1.11-6.72c0.76-1.99,1.99-3.39,3.41-3.69
																	c1.41-0.37,2.44,0.45,2.79,1.2c0.38,0.74,0.23,1.28,0.37,1.32c0.08,0.06,0.56-0.47,0.31-1.57
																	c-0.13-0.53-0.46-1.15-1.1-1.65c-0.66-0.5-1.61-0.74-2.6-0.61c-2.06,0.2-3.87,2.16-4.75,4.3
																	c-1,2.15-1.55,4.78-1.4,7.52c0.33,5.4,3.25,10.37,7.16,11.37c1.9,0.44,3.46-0.18,4.25-0.84
																	C1212.17,500.82,1212.29,500.22,1212.2,500.17z"/>
															</g>
														</g>
													</g>
												</g>
											</g>
										</g>
									</g>
								</g>
							</g>
						</g>
					</g>
				</g>
				<g>
					<path class="st5" d="M1234.45,391.92l111.78,2.46c-3.47-7.71-9.68-13.89-16.42-19c-14.53-11.02-32.39-17.9-50.61-18.22
						c-18.23-0.32-55.34,21.89-68.55,34.46c-10.57,10.06-10.5,18.76-10.5,18.76c-1.68,14.49,6.43,30.97,9.66,45.2
						c1.66,7.34,4.87,29.54,4.87,29.54s0,0,0,0c6.16-0.02,8.45-4.92,7.51-11.01l-1.15-23.89c0,0,20.95-14.89,11.02-42.13
						C1230.47,405.93,1227.07,395.97,1234.45,391.92z"/>
				</g>
			</g>
			<g>
				<g>
					<g>
						<path class="st8" d="M1257.92,476.69c-0.36,0.07-0.72-0.19-0.79-0.58c-0.08-0.39,0.15-0.77,0.51-0.84
							c0.36-0.07,0.71,0.19,0.79,0.58C1258.51,476.24,1258.28,476.62,1257.92,476.69z"/>
					</g>
				</g>
			</g>
			<g>
				<g>
					<g>
						<path class="st8" d="M1269.44,474.1c-0.36,0.07-0.72-0.24-0.81-0.69c-0.09-0.45,0.13-0.88,0.49-0.95
							c0.36-0.07,0.72,0.24,0.81,0.69C1270.02,473.61,1269.8,474.03,1269.44,474.1z"/>
					</g>
				</g>
			</g>
			<g>
				<g>
					<g>
						<path class="st8" d="M1277.19,473.93c-0.36,0.04-0.72-0.4-0.79-1c-0.07-0.6,0.16-1.11,0.53-1.16c0.36-0.05,0.72,0.4,0.79,1
							C1277.79,473.37,1277.56,473.88,1277.19,473.93z"/>
					</g>
				</g>
			</g>
			<g>
				<g>
					<g>
						<path class="st8" d="M1263.57,483.93c-0.37,0-0.66-0.19-0.66-0.43c0-0.23,0.3-0.42,0.67-0.42c0.37,0,0.66,0.19,0.66,0.43
							C1264.23,483.74,1263.93,483.93,1263.57,483.93z"/>
					</g>
				</g>
			</g>
			<g>
				<g>
					<g>
						<path class="st8" d="M1274.13,481.5c-0.37,0.03-0.69-0.28-0.73-0.7c-0.04-0.42,0.23-0.78,0.6-0.81
							c0.37-0.03,0.69,0.28,0.73,0.7C1274.76,481.11,1274.5,481.47,1274.13,481.5z"/>
					</g>
				</g>
			</g>
			<g>
				<g>
					<g>
						<path class="st8" d="M1329.09,475.06c-0.36,0.07-0.72-0.2-0.8-0.61c-0.08-0.41,0.15-0.79,0.51-0.86
							c0.36-0.07,0.72,0.2,0.8,0.61C1329.67,474.6,1329.45,474.98,1329.09,475.06z"/>
					</g>
				</g>
			</g>
			<g>
				<g>
					<g>
						<path class="st8" d="M1336.93,474.35c-0.37,0.03-0.7-0.31-0.74-0.77c-0.04-0.46,0.22-0.86,0.58-0.9
							c0.37-0.04,0.7,0.31,0.74,0.77C1337.56,473.92,1337.3,474.32,1336.93,474.35z"/>
					</g>
				</g>
			</g>
			<g>
				<g>
					<g>
						<path class="st8" d="M1322.16,475.24c-0.36,0.07-0.7-0.13-0.76-0.44c-0.06-0.32,0.18-0.63,0.54-0.7
							c0.36-0.07,0.7,0.13,0.76,0.44C1322.76,474.85,1322.52,475.16,1322.16,475.24z"/>
					</g>
				</g>
			</g>
			<g>
				<g>
					<g>
						<path class="st8" d="M1327.96,483.09c-0.34,0.15-0.75-0.05-0.92-0.44c-0.17-0.39-0.04-0.82,0.3-0.97
							c0.34-0.15,0.75,0.05,0.92,0.44C1328.43,482.51,1328.29,482.95,1327.96,483.09z"/>
					</g>
				</g>
			</g>
			<g>
				<g>
					<g>
						<path class="st8" d="M1334.66,481.77c-0.35-0.1-0.57-0.42-0.49-0.72c0.08-0.3,0.44-0.46,0.79-0.36
							c0.35,0.1,0.57,0.42,0.49,0.72C1335.37,481.7,1335.01,481.87,1334.66,481.77z"/>
					</g>
				</g>
			</g>
		</g>
		<g>
			<path class="st5" d="M1209.91,393.15c-2.85-9.79-0.01-20.69,6.27-28.73c6.29-8.03,16.55-12.78,26.74-12.36
				c5.22,0.21,10.41,1.69,15.6,1.13c9.67-1.06,17.13-8.81,26.1-12.58c13.98-5.87,31.75-0.53,40.19,12.06
				c3.4,5.08,5.63,11.35,10.84,14.55c4.5,2.76,10.18,2.53,15.24,4.06c10.23,3.08,17.24,13.95,16.71,24.62
				c-0.53,10.67-8.01,20.45-17.85,24.63c-9.84,4.18-21.55,3.02-30.89-2.18c-8.43-4.69-15.99-12.7-25.63-12.42
				c-9.99,0.29-18.73,9.72-28.53,7.76c-5.14-1.02-9.1-4.98-12.86-8.63c-3.76-3.65-8.09-7.36-13.33-7.67
				c-5.23-0.31-7.96,6.88-6.08,11.78L1209.91,393.15"/>
		</g>
		<g>
			<g>
				<path class="st7" d="M1344.06,380.19c0.02,0.01-0.04,0.14-0.18,0.39c-0.14,0.25-0.33,0.63-0.65,1.08
					c-0.61,0.92-1.61,2.24-3.2,3.64c-1.58,1.39-3.79,2.86-6.65,3.85c-2.84,0.99-6.4,1.41-10.14,0.6c-3.72-0.78-7.65-2.73-10.7-6.08
					c-3.06-3.35-4.87-7.84-7.71-11.78c-1.42-1.97-3.19-3.74-5.41-4.9c-2.23-1.13-4.8-1.68-7.41-1.63c-2.61,0.06-5.25,0.77-7.61,2.05
					c-2.35,1.32-4.3,3.3-5.61,5.77c-1.35,2.45-2.32,5.15-3.94,7.54c-1.55,2.42-4.27,4.24-7.16,4.36c-2.88,0.16-5.54-0.91-7.8-2.25
					c-2.3-1.34-4.2-3.16-5.94-4.91c-3.45-3.48-6.85-6.95-11.08-7.89c-4.19-1-8.29,0.54-11.23,2.64c-3,2.15-4.93,4.99-6.17,7.64
					c-1.24,2.67-1.89,5.15-2.31,7.19c-0.41,2.04-0.61,3.65-0.74,4.75c-0.13,1.09-0.19,1.67-0.24,1.67c-0.02,0-0.03-0.15-0.03-0.43
					c0-0.28,0.01-0.7,0.04-1.26c0.06-1.1,0.19-2.73,0.54-4.81c0.36-2.07,0.95-4.6,2.17-7.36c1.21-2.73,3.17-5.72,6.27-8
					c3.03-2.22,7.33-3.92,11.88-2.89c4.58,0.99,8.14,4.63,11.58,8.06c1.75,1.75,3.56,3.46,5.76,4.73c2.16,1.27,4.66,2.24,7.21,2.08
					c2.56-0.12,4.88-1.66,6.34-3.91c1.52-2.23,2.48-4.9,3.88-7.45c1.37-2.59,3.52-4.8,6.03-6.18c2.53-1.37,5.33-2.11,8.11-2.17
					c2.77-0.04,5.52,0.55,7.91,1.77c2.39,1.25,4.29,3.18,5.74,5.23c2.92,4.11,4.67,8.54,7.57,11.77c2.87,3.22,6.62,5.14,10.19,5.93
					c3.59,0.82,7.02,0.47,9.79-0.43c2.79-0.9,4.97-2.28,6.56-3.6C1342.94,382.3,1343.94,380.09,1344.06,380.19z"/>
			</g>
		</g>
		<g>
			<g>
				<path class="st7" d="M1364.32,380.59c0.05-0.01,0.31,0.74,0.46,2.15c0.14,1.41,0.09,3.51-0.57,5.99
					c-0.67,2.46-1.99,5.29-4.19,7.89c-2.19,2.61-5.27,4.86-8.84,6.43c-7.23,3.17-14.56,2.88-19.5,2.2c-2.5-0.36-4.49-0.81-5.86-1.17
					c-1.36-0.36-2.1-0.63-2.08-0.69c0.04-0.18,3.07,0.57,8.03,1.1c4.9,0.48,12.02,0.62,18.97-2.43c3.43-1.51,6.4-3.65,8.52-6.1
					c2.14-2.44,3.47-5.11,4.21-7.45C1364.94,383.76,1364.08,380.59,1364.32,380.59z"/>
			</g>
		</g>
	</g>
	<g>
		<g>
			<g>
				<path class="st9" d="M1190.18,739.68"/>
			</g>
		</g>
		<g>
			<g>
				<path class="st9" d="M1190.18,783.49"/>
			</g>
		</g>
		<g>
			<g>
				<g>
					<path class="st10" d="M1173.56,812.46c0.38,4.47,2.3,8.5,4.7,11.62c2.4,3.12,7.27,6.16,11.2,5.94c0,0,9.79,0.84,15.06-7.56
						c4.77-7.6,5.95-23.41,2.12-32.76c-2.63-6.43-8.55-12.41-15.49-12.57c-9.12-0.22-14.84,6.37-16.78,13.04"/>
				</g>
				<g>
					<g>
						<path class="st5" d="M1174.36,790.16c0,0,0.2-1.74,1.69-4.47c0.74-1.36,1.82-2.95,3.42-4.48c1.58-1.54,3.76-2.97,6.45-3.79
							c1.34-0.39,2.8-0.67,4.34-0.69c1.52-0.08,3.17,0.1,4.74,0.62c3.18,1.02,6.12,3.22,8.47,6.07c2.37,2.84,4.12,6.45,4.98,10.37
							c0.89,3.91,1.16,8.06,0.93,12.28c-0.42,6.49-1.7,12.95-5.29,17.89c-1.82,2.42-4.3,4.17-6.88,5.19
							c-2.6,1.03-5.24,1.43-7.79,1.31l0.06,0c-2.09,0.08-3.96-0.6-5.58-1.38c-1.62-0.82-3.02-1.83-4.2-2.93
							c-2.35-2.25-3.64-4.75-4.57-6.81c-0.9-2.09-1.27-3.84-1.45-5.03c-0.08-0.6-0.12-1.06-0.13-1.37
							c-0.01-0.31-0.01-0.47,0.02-0.47c0.16-0.04,0.15,2.6,2.02,6.67c0.96,1.97,2.33,4.42,4.59,6.49c1.15,1.03,2.52,1.97,4.07,2.73
							c1.55,0.73,3.33,1.32,5.18,1.22l0.01,0l0.05,0c4.67,0.16,10.35-1.64,13.78-6.24c3.35-4.62,4.63-10.97,5.03-17.32
							c0.45-8.2-0.93-16.46-5.6-21.96c-2.22-2.75-5.01-4.85-7.97-5.85c-1.48-0.51-2.98-0.69-4.45-0.64c-1.46,0-2.85,0.24-4.14,0.59
							c-2.58,0.73-4.69,2.05-6.26,3.5c-1.59,1.44-2.69,2.96-3.47,4.25C1174.84,788.51,1174.48,790.21,1174.36,790.16z"/>
					</g>
				</g>
			</g>
			<g>
				<g>
					<path class="st10" d="M1168.71,812.87c0.38,4.47,2.3,8.5,4.7,11.62c2.4,3.12,7.27,6.16,11.2,5.94c0,0,9.79,0.84,15.06-7.56
						c4.77-7.6,5.95-23.41,2.12-32.76c-2.63-6.43-8.55-12.41-15.49-12.57c-9.12-0.22-14.84,6.37-16.78,13.04"/>
				</g>
				<g>
					<g>
						<path class="st5" d="M1169.5,790.57c0,0,0.2-1.74,1.69-4.47c0.74-1.35,1.82-2.95,3.42-4.48c1.58-1.54,3.76-2.97,6.45-3.79
							c1.34-0.39,2.8-0.67,4.34-0.69c1.52-0.08,3.17,0.1,4.74,0.62c3.18,1.02,6.12,3.22,8.47,6.07c2.37,2.84,4.12,6.45,4.98,10.37
							c0.89,3.91,1.16,8.06,0.93,12.28c-0.42,6.49-1.7,12.95-5.29,17.89c-1.82,2.42-4.3,4.17-6.88,5.19
							c-2.6,1.03-5.24,1.43-7.79,1.31l0.06,0c-2.09,0.08-3.96-0.6-5.58-1.38c-1.62-0.82-3.02-1.83-4.2-2.93
							c-2.35-2.25-3.64-4.75-4.57-6.81c-0.9-2.09-1.27-3.84-1.45-5.03c-0.08-0.6-0.12-1.06-0.13-1.37
							c-0.01-0.31-0.01-0.47,0.02-0.47c0.16-0.04,0.15,2.6,2.02,6.67c0.96,1.97,2.33,4.42,4.59,6.49c1.15,1.03,2.52,1.97,4.07,2.73
							c1.55,0.73,3.33,1.32,5.18,1.22l0.02,0l0.05,0c4.67,0.16,10.35-1.64,13.78-6.24c3.35-4.62,4.63-10.98,5.03-17.32
							c0.45-8.2-0.93-16.46-5.6-21.96c-2.22-2.75-5.01-4.85-7.97-5.85c-1.48-0.51-2.98-0.69-4.44-0.64c-1.46,0-2.86,0.24-4.14,0.59
							c-2.58,0.73-4.69,2.05-6.26,3.5c-1.59,1.44-2.69,2.96-3.47,4.25C1169.99,788.92,1169.62,790.62,1169.5,790.57z"/>
					</g>
				</g>
			</g>
			<g>
				<g>
					<path class="st10" d="M1177.5,788.24c-4.53-0.9-9.21,2.21-11.13,6.41c-1.92,4.2-1.49,9.16,0.02,13.53
						c0.77,2.22,1.84,4.38,3.45,6.09c1.61,1.71,3.83,2.94,6.18,3.01c3.45,0.1,6.55-2.25,8.56-5.06c3.24-4.53,4.34-10.52,2.92-15.9
						c-0.95-3.59-3.59-7.28-7.31-7.38"/>
				</g>
				<g>
					<g>
						<path class="st5" d="M1180.21,788.95c0-0.03,0.28-0.06,0.82-0.02c0.54,0.05,1.34,0.24,2.25,0.76c1.82,1.01,3.9,3.5,4.74,7.13
							c0.88,3.56,0.78,8.21-1.28,12.69c-1.03,2.21-2.51,4.42-4.65,6.1c-2.07,1.68-5.1,2.76-8,1.91c-2.86-0.8-5.04-2.93-6.39-5.22
							c-1.37-2.32-2.16-4.77-2.66-7.16c-1-4.77-0.19-9.49,2.07-12.52c2.22-3.05,5.21-4.33,7.23-4.6c1.02-0.17,1.83-0.07,2.36-0.01
							c0.53,0.11,0.8,0.19,0.79,0.22c-0.01,0.12-1.14-0.21-3.08,0.2c-1.91,0.38-4.68,1.71-6.68,4.62
							c-2.02,2.87-2.72,7.32-1.72,11.88c0.5,2.27,1.3,4.66,2.59,6.81c1.28,2.14,3.26,4.03,5.77,4.73c2.5,0.73,5.13-0.17,7.06-1.71
							c1.98-1.53,3.39-3.6,4.4-5.69c2-4.23,2.19-8.66,1.44-12.1c-0.71-3.47-2.58-5.9-4.22-6.95
							C1181.39,788.97,1180.18,789.08,1180.21,788.95z"/>
					</g>
				</g>
			</g>
			<g>
				<g>
					<path class="st5" d="M1187.96,822.32c-0.16,0.04-0.39-0.65-1.1-1.48c-0.69-0.84-1.94-1.77-3.54-2.27
						c-1.61-0.5-3.2-0.58-4.35-0.68c-1.16-0.08-1.89-0.18-1.89-0.33c0-0.15,0.71-0.32,1.89-0.43c1.17-0.1,2.87-0.15,4.68,0.41
						c1.83,0.57,3.21,1.77,3.84,2.86C1188.12,821.48,1188.08,822.3,1187.96,822.32z"/>
				</g>
			</g>
			<g>
				<g>
					<path class="st5" d="M1189.59,785.42c0.09,0.09-0.32,0.74-1.28,1.5c-0.96,0.76-2.51,1.57-4.37,1.91
						c-1.86,0.33-3.6,0.12-4.76-0.26c-1.17-0.38-1.79-0.84-1.73-0.96c0.11-0.3,2.87,0.82,6.3,0.16
						C1187.18,787.19,1189.38,785.18,1189.59,785.42z"/>
				</g>
			</g>
		</g>
	</g>
</g>
<g>
	<g>
		<g>
			<g>
				<g>
					<g>
						<path class="st5" d="M618.48,422.87c0.26-9.03-8.09-16.01-16.5-19.31c-8.41-3.31-17.75-4.55-25.24-9.6
							c-6.63-4.47-11.09-11.43-16.71-17.12c-13.78-13.97-35.29-19.76-54.22-14.59c-18.93,5.16-34.52,21.08-39.3,40.11
							c-3.23,12.86-1.02,28.06,9.11,36.61c11.76,9.92,29.21,7.71,44.28,4.63c15.08-3.08,32.14-6.13,44.72,2.72
							c7.59,5.34,11.94,14.02,16.58,22.06c4.64,8.04,10.46,16.24,19.24,19.26c8.77,3.02,20.69-2.2,21.03-11.47"/>
					</g>
				</g>
			</g>
			<g>
				<g>
					<path class="st5" d="M617.87,427.83c-0.99,7.57,4.48,14.34,9.93,19.69c5.45,5.34,11.61,11.01,12.57,18.58
						c1.12,8.84-5.33,17.56-3.46,26.27c1.19,5.53,5.49,9.8,8.1,14.82c3.66,7.05,3.85,15.58,1.61,23.2
						c-2.25,7.62-5.83,24.64-11.13,30.57c-14.65,16.38-37.98,30.52-59.4,35.44c-21.42,4.92-43.66,4.95-65.6,3.6
						c-17.96-1.1-38.61-0.28-53.57-24.98c-7.75-12.79-11.59-29.81-15.71-44.19c-3.55-12.38-6.61-25.64-2.93-37.98
						c2.15-7.19,6.47-13.58,8.59-20.78c2.65-8.99,1.68-18.61,2.75-27.93c2.31-20.16,14.82-38.89,32.57-48.74
						c17.75-9.85,40.26-10.56,58.59-1.85"/>
				</g>
			</g>
		</g>
		<g>
			<g>
				<g>
					<path class="st6" d="M458.23,458.86c1.68-25.77,18.83-57.35,44.5-54.58l80.14,20.44c7.8,0.84,13.66,7.51,13.49,15.36
						l-9.01,193.34c0.19,0.04,0.36,0.08,0.55,0.12c0,0-18.27,54.53-71.26,37.87c-10.51-3.3-15.31-14.8-17.39-26.62l-0.54,0.07
						c-0.02-1.4-0.04-2.71-0.06-4.05c-1.75-13.64-0.32-26.55-0.32-26.55l0,0c-0.15-15.61-0.13-22.01-0.14-21.87
						c0,0-32.91-5.54-39.64-48.51C455.21,522.52,456.36,487.49,458.23,458.86z"/>
				</g>
			</g>
			<g>
				<g>
					<g>
						<g>
							<g>
								<g>
									<g>
										<g>
											<g>
												<g>
													<g>
														<g>
															<g>
																<g>
																	<g>
																		<g>
																			<g>
																				<g>
																					<path class="st5" d="M471.14,484.75c-0.11,2.91,2.26,5.4,5.3,5.57c3.03,0.17,5.58-2.04,5.69-4.95
																						c0.11-2.91-2.26-5.4-5.29-5.57C473.8,479.62,471.24,481.84,471.14,484.75z"/>
																				</g>
																			</g>
																		</g>
																	</g>
																</g>
															</g>
														</g>
													</g>
												</g>
												<g>
													<g>
														<g>
															<g>
																<g>
																	<g>
																		<g>
																			<g>
																				<g>
																					<g>
																						<path class="st5" d="M465.79,477.1c0.68,0.72,4.86-2.36,10.79-2.33c5.92-0.06,10.27,3,10.91,2.28
																							c0.32-0.32-0.38-1.62-2.27-3c-1.86-1.38-5.04-2.72-8.73-2.71c-3.69,0.01-6.8,1.37-8.59,2.75
																							C466.07,475.48,465.45,476.78,465.79,477.1z"/>
																					</g>
																				</g>
																			</g>
																		</g>
																	</g>
																</g>
															</g>
														</g>
													</g>
												</g>
											</g>
											<g>
												<g>
													<g>
														<g>
															<g>
																<g>
																	<g>
																		<g>
																			<g>
																				<g>
																					<path class="st5" d="M529.41,484.75c-0.11,2.91,2.26,5.4,5.3,5.57c3.03,0.17,5.58-2.04,5.69-4.95
																						c0.11-2.91-2.26-5.4-5.29-5.57C532.07,479.62,529.52,481.84,529.41,484.75z"/>
																				</g>
																			</g>
																		</g>
																	</g>
																</g>
															</g>
														</g>
													</g>
												</g>
												<g>
													<g>
														<g>
															<g>
																<g>
																	<g>
																		<g>
																			<g>
																				<g>
																					<g>
																						<path class="st5" d="M524.06,478.34c0.68,0.72,4.87-2.36,10.79-2.33c5.92-0.06,10.27,3,10.91,2.28
																							c0.32-0.32-0.37-1.62-2.27-3c-1.86-1.38-5.04-2.72-8.73-2.71c-3.69,0.01-6.8,1.37-8.59,2.75
																							C524.35,476.72,523.72,478.01,524.06,478.34z"/>
																					</g>
																				</g>
																			</g>
																		</g>
																	</g>
																</g>
															</g>
														</g>
													</g>
												</g>
											</g>
											<g>
												<g>
													<g>
														<g>
															<g>
																<g>
																	<g>
																		<g>
																			<g>
																				<g>
																					<path class="st5" d="M502.45,522.26c0.03-0.34-3.66-0.98-9.63-1.76c-1.51-0.16-2.95-0.46-3.2-1.5
																						c-0.35-1.1,0.28-2.72,1.02-4.49c1.43-3.66,2.93-7.5,4.5-11.52c6.25-16.4,10.78-29.88,10.12-30.13
																						c-0.66-0.25-6.27,12.85-12.52,29.25c-1.5,4.04-2.95,7.9-4.31,11.59c-0.58,1.72-1.57,3.67-0.8,5.94
																						c0.41,1.13,1.51,1.96,2.48,2.22c0.97,0.3,1.82,0.32,2.57,0.36C498.69,522.56,502.42,522.59,502.45,522.26z"/>
																				</g>
																			</g>
																		</g>
																	</g>
																</g>
															</g>
														</g>
													</g>
												</g>
											</g>
											<g>
												<g>
													<g>
														<g>
															<g>
																<g>
																	<g>
																		<g>
																			<g>
																				<path class="st8" d="M498.2,592.4c0,0,28.9,1.93,57.57-15.22c0,0-14.53,29.71-57.52,25.59L498.2,592.4z"/>
																			</g>
																		</g>
																	</g>
																</g>
															</g>
														</g>
													</g>
												</g>
											</g>
											<g>
												<g>
													<g>
														<g>
															<g>
																<g>
																	<g>
																		<g>
																			<g>
																				<path class="st8" d="M504.92,536.55c2.14-2.81,5.88-4.35,9.59-3.95c2.57,0.28,5.17,1.53,6.73,3.63
																					c1.56,2.1,1.88,5.07,0.45,7.07c-1.6,2.25-4.95,2.76-7.78,1.95c-2.83-0.81-5.26-2.68-7.57-4.54
																					c-0.64-0.51-1.29-1.05-1.69-1.76c-0.4-0.7-0.48-1.62,0.01-2.21"/>
																			</g>
																		</g>
																	</g>
																</g>
															</g>
														</g>
													</g>
												</g>
											</g>
											<g>
												<g>
													<g>
														<g>
															<g>
																<g>
																	<g>
																		<g>
																			<g>
																				<g>
																					<path class="st5" d="M519.88,526.39c-0.96-0.06-0.99,6.38-6.51,10.93c-5.51,4.57-12.37,3.83-12.42,4.73
																						c-0.09,0.4,1.52,1.25,4.42,1.34c2.84,0.1,6.99-0.8,10.37-3.59c3.37-2.79,4.82-6.53,5.04-9.17
																						C521.04,527.95,520.32,526.36,519.88,526.39z"/>
																				</g>
																			</g>
																		</g>
																	</g>
																</g>
															</g>
														</g>
													</g>
												</g>
											</g>
										</g>
									</g>
								</g>
								<g>
									<g>
										<g>
											<g>
												<g>
													<g>
														<g>
															<g>
																<g>
																	<path class="st5" d="M521.42,467.95c0.58,1.61,6.5,0.86,13.45,1.72c6.97,0.71,12.58,2.76,13.5,1.32
																		c0.41-0.69-0.56-2.21-2.83-3.77c-2.24-1.56-5.83-3.05-10-3.53c-4.17-0.47-8,0.19-10.53,1.21
																		C522.45,465.92,521.17,467.18,521.42,467.95z"/>
																</g>
															</g>
														</g>
													</g>
												</g>
											</g>
										</g>
									</g>
								</g>
								<g>
									<g>
										<g>
											<g>
												<g>
													<g>
														<g>
															<g>
																<g>
																	<path class="st5" d="M468,459.95c1.04,1.35,5.13-0.04,10.04-0.1c4.91-0.23,9.07,0.92,10.03-0.48
																		c0.42-0.68-0.23-2.03-2.05-3.31c-1.79-1.27-4.78-2.32-8.16-2.22c-3.37,0.1-6.3,1.31-8.01,2.69
																		C468.12,457.9,467.55,459.29,468,459.95z"/>
																</g>
															</g>
														</g>
													</g>
												</g>
											</g>
										</g>
									</g>
								</g>
							</g>
						</g>
					</g>
				</g>
				<g>
					<g>
						<g>
							<path class="st5" d="M612.86,566.06c-11.81,2.38-24.68-1.25-33.51-9.45s-13.39-20.77-11.87-32.73
								c1.34-10.55,7.02-21.29,3.37-31.27c-4.84-13.2-23.34-17.26-28.25-30.44c-2.85-7.66-0.29-16.62-3.53-24.12
								c-3.04-7.06-10.47-11.12-17.69-13.73s-14.97-4.42-21.04-9.13c-6.07-4.72-9.85-13.62-5.94-20.23
								c32.05,3.84,63.63,11.52,93.87,22.81c7.01,2.62,14.38,5.77,18.52,12c4.39,6.59,4.18,15.11,3.81,23.02
								c-1.8,38.57-3.6,77.15-5.4,115.72"/>
						</g>
					</g>
				</g>
			</g>
			<g>
				<g>
					<g>
						<path class="st7" d="M610.17,580.83c0.02,0.03,0.25-0.13,0.69-0.44c0.52-0.4,1.15-0.87,1.91-1.46c1.66-1.3,4.1-3.24,7.12-5.89
							c2.99-2.67,6.6-6.06,10.1-10.63c3.46-4.53,6.86-10.43,8.03-17.68c1.28-7.05,0.34-15.94-5.54-22.6
							c-2.9-3.27-6.61-5.71-10.01-8.53c-3.45-2.76-6.32-6.27-7.81-10.65c-3.18-8.76-1.76-18.9-2.99-29.26
							c-1.36-10.31-5.04-20.96-12.18-29.6c-3.56-4.28-7.84-7.97-12.74-10.41c-4.87-2.57-10.16-3.63-15.03-5.07
							c-4.93-1.36-9.44-3.4-13.19-6.5c-3.78-3.04-6.87-6.74-9.58-10.56c-5.4-7.66-9.39-15.83-14.53-22.64
							c-2.56-3.4-5.34-6.5-8.47-8.99c-3.13-2.49-6.56-4.33-10.04-5.47c-6.93-2.37-14.25-1.58-19.08,1.9
							c-4.77,3.62-6.51,8.85-6.78,12.86c-0.2,4.13,1.2,7.23,2.58,8.85c0.68,0.84,1.29,1.38,1.75,1.68c0.44,0.33,0.67,0.48,0.69,0.45
							c0.02-0.03-0.17-0.23-0.56-0.6c-0.42-0.34-0.96-0.91-1.57-1.76c-1.25-1.64-2.45-4.63-2.15-8.57
							c0.35-3.83,2.17-8.78,6.66-12.05c4.53-3.15,11.45-3.84,18.04-1.49c3.31,1.13,6.58,2.92,9.55,5.33
							c2.97,2.41,5.65,5.44,8.12,8.79c4.98,6.7,8.89,14.85,14.36,22.71c2.75,3.91,5.91,7.75,9.87,10.96c3.9,3.27,8.8,5.49,13.8,6.87
							c4.98,1.48,10.11,2.53,14.7,4.97c4.65,2.32,8.72,5.84,12.14,9.94c6.85,8.28,10.46,18.62,11.8,28.63
							c1.25,10.02-0.2,20.31,3.19,29.63c1.59,4.65,4.81,8.54,8.38,11.33c3.52,2.88,7.17,5.25,9.9,8.3
							c5.51,6.14,6.55,14.52,5.39,21.35c-1.04,7-4.24,12.75-7.56,17.27c-3.35,4.54-6.85,7.98-9.75,10.72
							c-2.92,2.73-5.28,4.75-6.86,6.15C610.95,580.03,610.13,580.78,610.17,580.83z"/>
					</g>
				</g>
			</g>
		</g>
	</g>
	<g>
		<g>
			<g>
				<path class="st5" d="M618.01,586.16c8.83-8.54,23.92-1.11,31.33,8.68c7.41,9.79,12.66,22.42,23.91,27.34
					c11.25,4.92,25.88,0.69,35.33,8.53c13.02,10.82,5.71,35.88,19.78,45.28c5.59,3.73,12.96,3.6,18.93,6.68
					c14.08,7.26,13.91,27.11,11.73,42.8c-3.05,22.01-6.4,44.83-18.54,63.44c-12.15,18.61-35.8,31.7-56.83,24.52
					c-20.21-6.9-30.59-28.71-38.81-48.42c-11.37-27.27-22.75-54.54-34.12-81.82c-6.58-15.78-13.23-31.79-15.37-48.75
					c-2.14-16.96,0.74-35.27,11.52-48.54"/>
			</g>
		</g>
		<g>
			<g>
				<g>
					<path class="st11" d="M623.68,567.35c6.42-0.77,11.31,7.09,9.63,13.33c-1.69,6.24-7.68,10.4-13.78,12.54
						c-3.41,1.19-7.1,1.93-10.65,1.23c-3.55-0.7-6.92-3.05-8.06-6.49c-1.2-3.61-0.27-6.04,2.95-8.06c4.22-2.64,6.7-4.71,10.03-6.55
						C618.88,570.54,618.58,570.16,623.68,567.35"/>
				</g>
			</g>
		</g>
	</g>
	<g>
		<g>
			<g>
				<polygon class="st2" points="476.03,636.48 500.95,617.59 594.86,611.59 598.64,624.18 568.09,814.8 592.19,1042.22 
					461.18,1042.22 				"/>
			</g>
			<g class="st3">
				<g>
					<path d="M576.58,961.54c-2.99-3.2-7.91-7.6-12.29-7.7c-31.37-0.69-63.41-3.83-94.78-4.52l-2.51,92.94
						c7.51-13.23,14.6-27,16.58-42.08c0.86-6.59,1.97-14.46,7.98-17.28c3.4-1.6,7.39-0.97,11.07-0.24
						c11.33,2.24,22.59,5.17,34.11,5.88s23.59-0.96,33.27-7.26c3.32-2.16,6.4-4.95,7.96-8.6
						C579.55,969.04,579.29,964.43,576.58,961.54z"/>
				</g>
			</g>
			<g>
				<g>
					<path class="st2" d="M496.34,640.32l-2.9-27.26c-0.51-4.8,3.01-9.09,7.82-9.52l86.45-7.81c2.34-0.21,4.38,1.59,4.45,3.94
						l0.97,32.43l-25.03,42.48l-25.73,8.19H510.9l-18.1-19.33L496.34,640.32z"/>
				</g>
				<g>
					<g>
						<path class="st5" d="M580.36,621.7c-0.02,0.09-1.24-0.13-3.46-0.35c-2.22-0.21-5.45-0.39-9.42-0.16
							c-3.98,0.23-8.68,0.89-13.84,1.99c-5.16,1.08-10.78,2.6-16.72,4.05c-5.94,1.44-11.69,2.62-17.02,3.03
							c-5.32,0.43-10.19,0.05-14.11-0.95c-3.94-0.96-6.9-2.46-8.81-3.66c-0.95-0.61-1.65-1.14-2.1-1.52
							c-0.45-0.39-0.68-0.6-0.65-0.63c0.06-0.07,1.03,0.69,2.97,1.79c1.94,1.07,4.89,2.43,8.77,3.28c3.86,0.88,8.62,1.18,13.85,0.7
							c5.24-0.46,10.92-1.65,16.85-3.09c5.93-1.44,11.56-2.94,16.77-3.98c5.21-1.06,9.98-1.65,14.01-1.78
							c4.03-0.14,7.29,0.16,9.51,0.51c1.11,0.18,1.97,0.35,2.54,0.5C580.07,621.58,580.37,621.67,580.36,621.7z"/>
					</g>
				</g>
				<g class="st3">
					<g>
						<path d="M498.4,625.99c-2.31,6.36-2.38,14.25,2.32,19.12c3.83,3.98,9.97,4.97,15.39,3.89c5.41-1.08,10.28-3.93,15.03-6.75
							c11.9-7.08,23.99-14.42,37.51-17.42c0.87-0.19,1.79-0.39,2.43-1.01c0.64-0.62,0.8-1.82,0.08-2.34
							c-0.32-0.23-0.73-0.28-1.12-0.32c-11.96-1.2-23.83,2.18-35.55,4.81c-11.73,2.63-24.24,4.49-35.55,0.42"/>
					</g>
				</g>
				<g>
					<g>
						<path class="st5" d="M514.92,602.67c0.09,0.16-1.68,0.57-2.96,2.83c-1.36,2.19-1.29,5.91-1.18,9.93
							c0.22,8.07,1.55,14.52,1.24,14.58c-0.14,0.03-0.65-1.55-1.17-4.17c-0.52-2.62-1.02-6.29-1.15-10.38
							c-0.04-2.04-0.07-3.98,0.12-5.78c0.19-1.79,0.7-3.43,1.49-4.59c0.78-1.17,1.73-1.86,2.44-2.17
							C514.46,602.61,514.9,602.61,514.92,602.67z"/>
					</g>
				</g>
				<g>
					<g>
						<path class="st5" d="M537.76,626.37c-0.34-0.03,0.44-5.98-0.62-13.2c-0.99-7.23-3.39-12.72-3.07-12.85
							c0.12-0.06,0.88,1.25,1.77,3.51c0.89,2.26,1.85,5.5,2.37,9.19c0.52,3.68,0.5,7.07,0.27,9.48
							C538.26,624.92,537.89,626.39,537.76,626.37z"/>
					</g>
				</g>
				<g>
					<g>
						<path class="st5" d="M565.59,598.04c0.11-0.06,0.9,1.09,1.65,3.21c0.76,2.1,1.35,5.21,1.13,8.65
							c-0.23,3.44-1.24,6.44-2.27,8.42c-1.02,2-1.96,3.03-2.06,2.96c-0.31-0.15,2.86-4.8,3.25-11.45
							C567.79,603.17,565.26,598.14,565.59,598.04z"/>
					</g>
				</g>
			</g>
		</g>
		<g>
			<g>
				<path class="st12" d="M444.38,648.74c0,0-29.47,19.74-37.22,55.39c-6.09,28.03-22.76,176.05-22.76,176.05l-29.2,56.85
					l19.07,45.35l0,0c16.33,1.16,32.55-3.48,45.8-13.1l12.83-9.31l23.53-34.9L444.38,648.74z"/>
			</g>
			<g>
				<polygon class="st12" points="494.35,622.6 444.38,648.74 432.59,687.49 422.08,799.81 441.86,931.49 407.16,1041.82 
					467,1042.27 468.42,977.59 474.4,768.24 480.27,634.89 				"/>
			</g>
			<g>
				<g>
					<path class="st5" d="M470.15,797.11c-0.03,0.02-0.35-0.52-0.93-1.56c-0.61-1.13-1.44-2.66-2.48-4.58
						c-1.03-2.01-2.04-4.6-3.33-7.55c-0.62-1.49-1.12-3.13-1.74-4.85c-0.6-1.72-1.27-3.54-1.77-5.5
						c-4.7-15.51-7.82-37.92-7.16-62.63c0.07-1.91,0.14-3.81,0.27-5.69l0.02-0.33l0.31-0.13c2.97-1.25,5.89-2.48,8.75-3.67
						l-0.13,0.91c-3-2.41-5.92-4.76-8.73-7.02l-0.18-0.15l-0.01-0.21c-0.41-9.31,1.85-17.69,3.98-24.99
						c2.2-7.31,4.61-13.61,6.71-18.79c2.12-5.17,3.95-9.22,5.27-11.97c0.66-1.38,1.18-2.43,1.54-3.13c0.36-0.71,0.57-1.06,0.6-1.05
						c0.03,0.01-0.13,0.4-0.44,1.13c-0.35,0.81-0.81,1.87-1.39,3.2c-1.21,2.79-2.95,6.87-4.98,12.07c-2.02,5.2-4.34,11.5-6.47,18.79
						c-2.06,7.26-4.23,15.63-3.8,24.65l-0.19-0.36c2.82,2.25,5.74,4.59,8.75,6.99l0.7,0.56l-0.82,0.35
						c-2.85,1.2-5.77,2.43-8.74,3.69l0.33-0.45c-0.13,1.85-0.2,3.74-0.26,5.64c-0.65,24.6,2.33,46.91,6.82,62.38
						c0.47,1.96,1.11,3.77,1.68,5.49c0.59,1.72,1.06,3.36,1.65,4.85c1.24,2.95,2.18,5.55,3.15,7.58c0.96,1.96,1.73,3.51,2.3,4.66
						C469.92,796.52,470.18,797.09,470.15,797.11z"/>
				</g>
			</g>
			<g>
				<g>
					<path class="st5" d="M430.94,875.76c-0.04,0.01-0.2-0.55-0.48-1.62c-0.29-1.17-0.69-2.74-1.18-4.71
						c-0.52-2.05-1.11-4.56-1.69-7.5c-0.59-2.94-1.34-6.27-1.93-10c-0.65-3.72-1.35-7.79-1.91-12.19
						c-0.67-4.39-1.12-9.11-1.65-14.07c-0.9-9.94-1.5-20.91-1.51-32.43c0.05-11.53,0.7-22.49,1.63-32.43
						c0.55-4.96,1.02-9.68,1.71-14.07c0.58-4.4,1.29-8.47,1.96-12.19c0.61-3.73,1.37-7.05,1.97-9.99c0.59-2.94,1.19-5.45,1.71-7.49
						c0.5-1.97,0.9-3.53,1.2-4.71c0.29-1.07,0.45-1.63,0.49-1.62c0.04,0.01-0.06,0.59-0.28,1.67c-0.25,1.18-0.58,2.76-1,4.75
						c-0.46,2.06-1,4.57-1.53,7.52c-0.54,2.94-1.25,6.27-1.81,10c-0.62,3.71-1.28,7.78-1.82,12.18c-0.64,4.38-1.08,9.09-1.6,14.04
						c-0.88,9.91-1.49,20.85-1.54,32.34c0.01,11.49,0.58,22.42,1.42,32.33c0.5,4.95,0.92,9.66,1.55,14.04
						c0.52,4.4,1.17,8.47,1.78,12.19c0.54,3.73,1.24,7.06,1.77,10.01c0.52,2.95,1.05,5.47,1.51,7.53c0.41,1.99,0.74,3.57,0.98,4.75
						C430.88,875.17,430.98,875.75,430.94,875.76z"/>
				</g>
			</g>
			<g>
				<g>
					<path class="st5" d="M444.46,976.87c0.12,0.06-0.72,2.03-2.43,5.03c-1.7,3-4.32,7.01-7.65,11.09
						c-3.35,4.08-6.76,7.43-9.37,9.69c-2.61,2.26-4.37,3.47-4.45,3.37c-0.1-0.13,1.48-1.55,3.93-3.93c2.46-2.38,5.74-5.78,9.05-9.81
						c3.3-4.04,5.99-7.92,7.84-10.8C443.23,978.63,444.31,976.8,444.46,976.87z"/>
				</g>
			</g>
		</g>
		<g>
			<g>
				<path class="st12" d="M674.07,645.54c21.35,8.27,37.18,26.59,42.25,48.92c16.34,72.06,44.31,167.91,44.75,198.83
					c0.56,39.39-16.66,66.35-39.14,71.32c-17.78,3.93-178.93-4.89-178.93-4.89l-7.54-60.04l130.49-19.21l-17.87-99.85l17.69-138.29
					L674.07,645.54z"/>
			</g>
			<g>
				<path class="st12" d="M665.78,642.32l-36.08-14.74l-38.04-22.29l-0.24,6.52l0,0c4.66,7.98,6.26,17.37,4.52,26.44l-31.65,165.13
					l7.18,120.65l14.73,118.23h114.44l-52.55-123.65L666.64,752L665.78,642.32z"/>
			</g>
			<g>
				<g>
					<path class="st5" d="M699.2,965.61c0,0.02-0.26,0.05-0.78,0.11c-0.57,0.05-1.33,0.13-2.3,0.22c-2.03,0.22-5.04,0.2-8.92,0.3
						c-7.77,0.04-19.04-0.17-33.06-0.63c-28.04-0.94-67.09-2.81-111.17-5.37l-0.44-0.03l-0.06-0.44c-0.9-7.15-1.85-14.7-2.81-22.36
						c-1.62-12.96-3.2-25.59-4.72-37.69l-0.06-0.51l0.51-0.07c39.86-5.79,74.71-10.86,99.65-14.49c12.41-1.76,22.36-3.17,29.26-4.15
						c3.39-0.46,6.02-0.82,7.86-1.07c0.86-0.11,1.53-0.19,2.04-0.25c0.46-0.05,0.69-0.07,0.7-0.05c0,0.02-0.23,0.07-0.68,0.15
						c-0.5,0.09-1.17,0.2-2.02,0.35c-1.84,0.29-4.46,0.71-7.84,1.24c-6.89,1.05-16.82,2.57-29.21,4.46
						c-24.93,3.72-59.76,8.91-99.59,14.86l0.45-0.59c1.52,12.1,3.11,24.73,4.74,37.68c0.96,7.66,1.91,15.2,2.8,22.36l-0.5-0.47
						c44.06,2.59,83.1,4.6,111.13,5.72c14.01,0.55,25.28,0.87,33.03,0.95c3.87-0.04,6.89,0.04,8.91-0.11
						c0.98-0.05,1.74-0.09,2.31-0.12C698.93,965.59,699.2,965.59,699.2,965.61z"/>
				</g>
			</g>
			<g>
				<g>
					<path class="st5" d="M647.05,770.52c0.04,0,0.13,0.39,0.28,1.11c0.17,0.85,0.37,1.91,0.63,3.2c0.54,2.94,1.27,6.93,2.16,11.79
						c1.76,10.11,4.15,23.82,6.79,38.97c2.53,15.17,4.82,28.9,6.5,39.03c0.76,4.89,1.39,8.9,1.85,11.85
						c0.18,1.3,0.33,2.37,0.45,3.23c0.09,0.74,0.12,1.13,0.08,1.14c-0.04,0.01-0.14-0.37-0.3-1.1c-0.17-0.85-0.39-1.91-0.65-3.2
						c-0.55-2.94-1.29-6.93-2.19-11.79c-1.8-9.96-4.22-23.74-6.82-38.97c-2.6-15.23-4.88-29.03-6.48-39.03
						c-0.75-4.89-1.37-8.9-1.82-11.85c-0.17-1.31-0.32-2.38-0.43-3.24C647.03,770.91,647.01,770.52,647.05,770.52z"/>
				</g>
			</g>
			<g>
				<g>
					<path class="st5" d="M608.25,616.92c0.02,0,0.07,0.13,0.15,0.4c0.09,0.33,0.2,0.72,0.33,1.21c0.26,1.07,0.73,2.63,1.16,4.7
						c0.93,4.11,2.01,10.15,2.75,17.77c0.75,7.62,1.08,16.81,0.69,27.11c-0.35,10.31-1.44,21.71-3,33.78l-0.05,0.38l-0.38,0.07
						c-3.76,0.7-7.75,1.44-11.8,2.19l0.4-0.73c0.67,1.81,1.37,3.76,1.91,5.78c3.84,14.01,2.15,28.18-1.35,40.03
						c-3.56,11.96-8.99,21.86-13.86,29.85c-4.92,7.99-9.38,14.13-12.43,18.38c-1.51,2.05-2.71,3.68-3.58,4.85
						c-0.39,0.5-0.7,0.91-0.96,1.24c-0.22,0.28-0.34,0.41-0.36,0.4c-0.02-0.01,0.08-0.17,0.27-0.47c0.23-0.35,0.52-0.78,0.87-1.31
						c0.83-1.21,1.97-2.87,3.41-4.97c2.95-4.32,7.3-10.53,12.12-18.53c4.77-8.01,10.09-17.9,13.56-29.74
						c3.41-11.75,5.03-25.72,1.26-39.46c-0.53-1.98-1.21-3.89-1.87-5.67l-0.23-0.61l0.63-0.12c4.05-0.75,8.04-1.48,11.8-2.17
						l-0.43,0.45c1.57-12.05,2.71-23.42,3.12-33.68c0.45-10.26,0.21-19.42-0.45-27.01c-0.65-7.6-1.62-13.64-2.43-17.76
						c-0.37-2.07-0.77-3.64-0.98-4.73c-0.1-0.49-0.18-0.89-0.24-1.23C608.25,617.07,608.24,616.93,608.25,616.92z"/>
				</g>
			</g>
			<g>
				<path class="st13" d="M608.25,786.3v-26.34c0,0,0.34-6.5-5.13-5.13c-5.47,1.37-4.45,11.63-4.45,11.63s-1.03,40.03,1.37,39.69
					c2.39-0.34,3.31-3.42,3.31-3.42v-15.4L608.25,786.3z"/>
			</g>
			<g>
				<g>
					<path class="st5" d="M631.02,787.94c0,0.3-6.32,0.54-14.11,0.54c-7.8,0-14.11-0.24-14.11-0.54c0-0.3,6.32-0.54,14.11-0.54
						C624.7,787.4,631.02,787.65,631.02,787.94z"/>
				</g>
			</g>
			<g>
				<g>
					<path class="st5" d="M683.15,661.16c0.02,0.08-1.04,0.44-2.95,1.09c-1.89,0.7-4.62,1.74-7.83,3.39
						c-6.38,3.25-14.71,9.14-21.17,18.04c-1.64,2.2-3.02,4.5-4.16,6.78c-1.05,2.34-1.92,4.68-2.5,6.98
						c-1.25,4.58-1.79,8.86-2.1,12.45c-0.31,3.59-0.37,6.52-0.39,8.54c-0.02,2.02,0,3.14-0.08,3.15c-0.07,0.01-0.24-1.11-0.35-3.14
						c-0.11-2.03-0.16-4.97,0.05-8.61c0.22-3.63,0.68-7.96,1.9-12.65c0.57-2.35,1.43-4.76,2.51-7.17c1.17-2.39,2.58-4.73,4.25-6.97
						c6.59-9.08,15.16-14.98,21.71-18.09c3.29-1.58,6.09-2.52,8.04-3.1C682.03,661.32,683.13,661.1,683.15,661.16z"/>
				</g>
			</g>
		</g>
	</g>
	<g>
		<g>
			<g>
				<polygon class="st5" points="218.63,880.19 407.16,950.01 566.09,974.31 377.13,882.19 				"/>
			</g>
			<g>
				<g>
					<path class="st6" d="M299.32,955.48c-1.5-10.04-4.92-19.79-10.04-28.56c-1-1.72-2.08-3.43-2.57-5.36
						c-0.49-1.93-0.28-4.16,1.07-5.63c2.42-2.63,6.84-1.46,9.82,0.53c6.16,4.12,10.28,10.77,12.7,17.77
						c2.42,7.01,3.29,14.43,4.15,21.79"/>
				</g>
				<g>
					<g>
						<path class="st6" d="M372.8,937.53h-9.38c-1.86-1.96-4.7-3.72-8.22-4.72c-2.16-0.62-4.29,0.53-6.2,2.41
							c4.19-6.9,8.71-14.5,9.58-16.59c1.69-4.05-2.02-7.09-8.1-7.09s-32.73,37.79-32.73,37.79s16.57-30.4,18.17-35.04
							c4.01-11.61-8.68-12.47-13.29-6.87c-5.72,6.95-28.84,41.91-28.84,41.91s-4.39,7.09-1.35,13.83
							c3.04,6.75,11.81,4.05,11.81,4.05s-0.07,5.9,6.19,9.38c6.77,3.76,15.68-0.6,15.68-0.6l34.48,7.75c0,0,5.47-0.55,12.48-1.25
							c17.47-1.74,31.52-15.13,34.08-32.49v0L372.8,937.53z"/>
					</g>
					<g>
						<g>
							<path class="st8" d="M349.56,934.7c0.38,0.23-4.2,7.46-10.16,16.11c-2.98,4.33-5.74,8.21-7.78,10.99
								c-2.04,2.78-3.37,4.45-3.49,4.36c-0.12-0.09,0.98-1.91,2.86-4.8c1.88-2.89,4.54-6.84,7.52-11.17
								c2.98-4.33,5.71-8.22,7.71-11.02c0.88-1.22,1.67-2.31,2.39-3.3C349.2,935.08,349.47,934.72,349.56,934.7z"/>
						</g>
					</g>
					<g>
						<g>
							<path class="st8" d="M347.49,973.17c-0.14-0.08,1.01-2.26,3.06-5.65c2.04-3.4,4.94-8.03,8.13-13.16
								c1.59-2.56,3.12-5.01,4.37-7.27c1.31-2.17,1.22-4.56,0.76-6.4c-1.01-3.76-3.13-5.36-2.94-5.49c0.04-0.05,0.57,0.29,1.34,1.12
								c0.75,0.83,1.73,2.2,2.34,4.17c0.6,1.91,0.78,4.64-0.61,7.07c-1.24,2.35-2.74,4.8-4.33,7.37c-3.2,5.13-6.2,9.7-8.41,12.99
								C348.98,971.21,347.61,973.23,347.49,973.17z"/>
						</g>
					</g>
					<g>
						<g>
							<path class="st8" d="M365.62,976.6c-0.14-0.04,0.44-2.16,1.83-5.38c0.75-1.71,1.58-3.59,2.47-5.62
								c0.9-2.11,1.92-4.45,2.53-6.96c0.61-2.44,0.2-5.07-1.09-6.74c-0.62-0.83-1.56-1.32-2.46-1.76c-0.89-0.41-1.78-0.69-2.57-0.72
								c-1.55,0.08-2.86,0.93-3.71,1.3c-0.87,0.44-1.38,0.64-1.42,0.58c-0.03-0.06,0.4-0.39,1.21-0.94c0.41-0.27,0.92-0.6,1.55-0.93
								c0.64-0.31,1.36-0.72,2.37-0.77c0.97-0.02,1.95,0.25,2.94,0.66c0.95,0.42,2.06,0.94,2.87,1.95c1.59,1.99,2.03,4.89,1.37,7.6
								c-0.65,2.68-1.72,5.01-2.67,7.13c-0.97,2.11-1.91,3.97-2.68,5.53C366.59,974.66,365.77,976.65,365.62,976.6z"/>
						</g>
					</g>
					<g>
						<g>
							<path class="st8" d="M371.98,943.97c0.02-0.06,0.56,0.07,1.47,0.44c0.91,0.37,2.18,1.05,3.6,2.12
								c2.83,2.08,6.2,6.08,7.42,11.47c1.19,5.4-0.16,10.45-1.84,13.53c-0.83,1.57-1.7,2.72-2.36,3.45
								c-0.66,0.73-1.09,1.07-1.14,1.03c-0.16-0.13,1.38-1.7,2.82-4.81c1.44-3.06,2.59-7.88,1.47-12.96
								c-1.14-5.08-4.24-8.95-6.84-11.11C373.95,944.91,371.89,944.15,371.98,943.97z"/>
						</g>
					</g>
				</g>
				<g>
					<g>
						<path class="st8" d="M311.25,924.14c0.25,0.17-3.25,5.76-7.81,12.5c-4.56,6.74-8.45,12.06-8.7,11.89
							c-0.25-0.17,3.25-5.76,7.81-12.5C307.11,929.3,311.01,923.97,311.25,924.14z"/>
					</g>
				</g>
			</g>
		</g>
		<g>
			<g>
				<path class="st6" d="M534.9,901.93l-21.55-4.89l-20.7-19.5c-2.51-2.37-5.78-3.78-9.23-3.97l-37.67-2.17
					c-3.76-0.22-7.45,1.02-10.33,3.45l-26.93,22.75l117.47,57.26l16.12,1.42L534.9,901.93z"/>
			</g>
			<g>
				<g>
					<path class="st8" d="M471.05,891.86c-0.03,0.17-2.79-0.34-7.26-0.91c-4.4-0.48-10.86-1.1-17.06,1.77
						c-3.09,1.38-5.74,3.32-8.13,5.08c-2.38,1.79-4.52,3.45-6.41,4.72c-1.88,1.28-3.5,2.17-4.66,2.71
						c-1.17,0.52-1.84,0.74-1.86,0.68c-0.07-0.16,2.48-1.3,6.08-4.01c1.81-1.33,3.88-3.04,6.25-4.89c2.38-1.82,5.06-3.83,8.29-5.27
						c3.2-1.51,6.6-2.05,9.62-2.15c3.04-0.09,5.75,0.25,7.99,0.61c2.24,0.37,4.03,0.78,5.26,1.08
						C470.39,891.58,471.06,891.79,471.05,891.86z"/>
				</g>
			</g>
			<g>
				<g>
					<path class="st8" d="M478.77,912.83c-0.07,0.17-1.54-0.5-4.06-0.77c-2.5-0.29-6.06,0.01-9.69,1.35
						c-3.64,1.34-6.67,3.22-8.87,4.55c-2.2,1.35-3.58,2.17-3.66,2.05c-0.08-0.12,1.14-1.16,3.24-2.68c2.11-1.5,5.14-3.53,8.92-4.93
						c3.79-1.4,7.57-1.6,10.17-1.09C477.44,911.79,478.83,912.74,478.77,912.83z"/>
				</g>
			</g>
			<g>
				<g>
					<path class="st8" d="M527.25,916.32c-0.26,0.16-3.3-4.34-7.3-9.69c-3.99-5.36-7.43-9.56-7.2-9.77
						c0.21-0.19,4.04,3.71,8.07,9.12C524.85,911.38,527.5,916.17,527.25,916.32z"/>
				</g>
			</g>
		</g>
		<g>
			<path class="st11" d="M467.94,873.63l47.75-44.48c2.06-1.92,1.91-5.24-0.33-6.96l0,0c-1.74-1.34-4.19-1.24-5.82,0.22
				l-55.99,50.22"/>
		</g>
		<g class="st3">
			<path d="M467.94,873.63l47.75-44.48c2.06-1.92,1.91-5.24-0.33-6.96l0,0c-1.74-1.34-4.19-1.24-5.82,0.22l-55.99,50.22"/>
		</g>
	</g>
</g>
<g>
	<g>
		<g>
			<g>
				<g>
					<g>
						<g>
							<g>
								<g>
									<g>
										<g>
											<g>
												<path class="st14" d="M858.08,445.11c-0.74-0.3-29.65-7.88-27.9,21.36c1.75,29.24,30.74,21.45,30.74,20.61
													C860.92,486.24,858.08,445.11,858.08,445.11z"/>
											</g>
										</g>
									</g>
								</g>
							</g>
						</g>
					</g>
				</g>
			</g>
			<g>
				<g>
					<g>
						<g>
							<g>
								<g>
									<g>
										<g>
											<g>
												<g>
													<path class="st15" d="M851.32,476.53c-0.13-0.09-0.49,0.39-1.32,0.83c-0.82,0.43-2.25,0.79-3.8,0.31
														c-3.16-0.95-6.05-5.7-6.51-10.96c-0.23-2.66,0.17-5.22,0.99-7.38c0.77-2.19,2.06-3.77,3.6-4.14
														c1.53-0.45,2.68,0.41,3.09,1.22c0.44,0.8,0.29,1.39,0.45,1.43c0.09,0.07,0.6-0.53,0.29-1.72
														c-0.16-0.57-0.54-1.24-1.26-1.76c-0.74-0.53-1.78-0.76-2.86-0.58c-2.25,0.29-4.15,2.49-5.05,4.85
														c-1.02,2.38-1.54,5.27-1.28,8.25c0.54,5.88,3.89,11.21,8.19,12.18c2.09,0.41,3.77-0.31,4.61-1.05
														C851.31,477.24,851.43,476.58,851.32,476.53z"/>
												</g>
											</g>
										</g>
									</g>
								</g>
							</g>
						</g>
					</g>
				</g>
			</g>
		</g>
		<g>
			<g>
				<g>
					<path class="st5" d="M931.09,340.65c14.86,0,29.98,0,48.58,9.71c11.73,6.12,19.04,15.83,25.15,27.57
						c4.68,8.98,7.45,20.74,6.91,30.86c-0.54,10.11-0.57,17.18-4.61,26.47"/>
				</g>
				<g>
					<g>
						<g>
							<g>
								<g>
									<g>
										<g>
											<g>
												<g>
													<g>
														<g>
															<g>
																<g>
																	<g>
																		<g>
																			<g>
																				<g>
																					<path class="st14" d="M925.15,342.95c43.97-3.07,81.94,30.48,84.24,74.49c1.91,36.63,3.6,76.25,3.19,96.2
																						c-0.87,42.82-43.75,49.13-43.75,49.13s0.95,12.7,2,28.45c2.13,31.72-22.36,58.95-54.13,60.16l0,0
																						c-31.15,1.18-57.34-23.13-58.49-54.28l-6.37-172.57C850.27,382.01,882.71,345.91,925.15,342.95L925.15,342.95z
																						"/>
																				</g>
																			</g>
																		</g>
																	</g>
																</g>
															</g>
														</g>
													</g>
												</g>
												<g>
													<g>
														<g>
															<g>
																<g>
																	<g>
																		<g>
																			<g>
																				<g>
																					<path class="st15" d="M968.84,562.77c0,0-26.31,1.37-54.93-16.93c0,0,12.95,31.15,55.71,27.64L968.84,562.77z"
																						/>
																				</g>
																			</g>
																		</g>
																	</g>
																</g>
															</g>
														</g>
													</g>
												</g>
											</g>
										</g>
									</g>
									<g>
										<g>
											<g>
												<g>
													<g>
														<g>
															<g>
																<g>
																	<g>
																		<g>
																			<g>
																				<g>
																					<g>
																						<g>
																							<g>
																								<path class="st5" d="M992.99,441.26c0.09,3.23-2.57,5.97-5.95,6.12c-3.36,0.15-6.17-2.33-6.26-5.56
																									c-0.09-3.23,2.57-5.97,5.94-6.13C990.1,435.54,992.91,438.03,992.99,441.26z"/>
																							</g>
																						</g>
																					</g>
																				</g>
																			</g>
																		</g>
																	</g>
																</g>
															</g>
															<g>
																<g>
																	<g>
																		<g>
																			<g>
																				<g>
																					<g>
																						<g>
																							<g>
																								<g>
																									<path class="st5" d="M998.92,432.61c-0.76,0.79-5.37-2.68-11.95-2.71c-6.57-0.13-11.43,3.22-12.14,2.41
																										c-0.35-0.36,0.44-1.79,2.55-3.31c2.08-1.51,5.63-2.96,9.72-2.91c4.1,0.06,7.53,1.59,9.5,3.15
																										C998.63,430.8,999.3,432.25,998.92,432.61z"/>
																								</g>
																							</g>
																						</g>
																					</g>
																				</g>
																			</g>
																		</g>
																	</g>
																</g>
															</g>
														</g>
														<g>
															<g>
																<g>
																	<g>
																		<g>
																			<g>
																				<g>
																					<g>
																						<g>
																							<g>
																								<path class="st5" d="M928.46,441.26c0.09,3.23-2.57,5.97-5.95,6.12c-3.36,0.15-6.17-2.33-6.26-5.56
																									c-0.09-3.23,2.57-5.97,5.94-6.13C925.57,435.54,928.37,438.03,928.46,441.26z"/>
																							</g>
																						</g>
																					</g>
																				</g>
																			</g>
																		</g>
																	</g>
																</g>
															</g>
															<g>
																<g>
																	<g>
																		<g>
																			<g>
																				<g>
																					<g>
																						<g>
																							<g>
																								<g>
																									<path class="st5" d="M934.23,433.32c-0.76,0.79-5.38-2.67-11.95-2.71c-6.57-0.13-11.43,3.22-12.14,2.41
																										c-0.35-0.36,0.43-1.79,2.55-3.31c2.08-1.51,5.62-2.96,9.72-2.91c4.1,0.05,7.53,1.59,9.5,3.15
																										C933.93,431.52,934.61,432.96,934.23,433.32z"/>
																								</g>
																							</g>
																						</g>
																					</g>
																				</g>
																			</g>
																		</g>
																	</g>
																</g>
															</g>
														</g>
														<g>
															<g>
																<g>
																	<g>
																		<g>
																			<g>
																				<g>
																					<g>
																						<g>
																							<g>
																								<path class="st5" d="M957.72,482.31c-0.03-0.37,4.07-1.05,10.7-1.84c1.68-0.16,3.27-0.48,3.57-1.63
																									c0.41-1.21-0.28-3.03-1.08-4.99c-1.55-4.08-3.17-8.35-4.87-12.83c-6.76-18.27-11.63-33.29-10.89-33.56
																									c0.74-0.27,6.81,14.33,13.57,32.6c1.62,4.51,3.18,8.8,4.66,12.91c0.62,1.91,1.7,4.09,0.82,6.6
																									c-0.46,1.25-1.7,2.15-2.78,2.44c-1.08,0.32-2.02,0.33-2.86,0.37C961.88,482.69,957.75,482.68,957.72,482.31
																									z"/>
																							</g>
																						</g>
																					</g>
																				</g>
																			</g>
																		</g>
																	</g>
																</g>
															</g>
														</g>
														<g>
															<g>
																<g>
																	<g>
																		<g>
																			<g>
																				<g>
																					<g>
																						<g>
																							<g>
																								<path class="st5" d="M938.32,486.71c1.07-0.05,1.03,7.09,7.1,12.21c6.06,5.13,13.68,4.39,13.73,5.39
																									c0.1,0.45-1.71,1.37-4.92,1.44c-3.15,0.08-7.75-0.97-11.46-4.1c-3.7-3.14-5.28-7.3-5.5-10.23
																									C937.02,488.42,937.83,486.66,938.32,486.71z"/>
																							</g>
																						</g>
																					</g>
																				</g>
																			</g>
																		</g>
																	</g>
																</g>
															</g>
														</g>
													</g>
												</g>
											</g>
											<g>
												<g>
													<g>
														<g>
															<g>
																<g>
																	<g>
																		<g>
																			<g>
																				<path class="st5" d="M936.14,407.54c-0.66,1.78-7.23,0.88-14.95,1.75c-7.75,0.71-13.99,2.92-15,1.31
																					c-0.45-0.77,0.65-2.45,3.18-4.16c2.51-1.71,6.5-3.32,11.14-3.8c4.64-0.47,8.88,0.3,11.68,1.47
																					C935.01,405.28,936.42,406.7,936.14,407.54z"/>
																			</g>
																		</g>
																	</g>
																</g>
															</g>
														</g>
													</g>
												</g>
											</g>
											<g>
												<g>
													<g>
														<g>
															<g>
																<g>
																	<g>
																		<g>
																			<g>
																				<path class="st5" d="M998,409.18c-1.17,1.48-5.69-0.1-11.14-0.22c-5.45-0.31-10.07,0.92-11.12-0.65
																					c-0.46-0.76,0.28-2.25,2.31-3.65c2-1.39,5.33-2.52,9.08-2.38c3.74,0.15,6.98,1.53,8.86,3.07
																					C997.9,406.91,998.52,408.45,998,409.18z"/>
																			</g>
																		</g>
																	</g>
																</g>
															</g>
														</g>
													</g>
												</g>
											</g>
										</g>
									</g>
								</g>
							</g>
						</g>
					</g>
				</g>
				<g>
					<g>
						<g>
							<path class="st5" d="M852.34,437.88c0,0,1.86,9.9,2.36,14.37c0.18,1.63-0.03,19.78,4.38,20.68
								c3.79,0.78,11.32-2.67,14.68-10.17c3.35-7.5,9.74-25.51,9.05-33.7c-0.94-11.17-1.46-22.51,0.77-33.5
								c2.23-10.98,7.48-21.7,16.31-28.6c8.83-6.9,21.55-9.32,31.57-4.3c6.18,3.1,10.81,8.6,16.57,12.42
								c5.18,3.44,11.51,5.51,17.66,4.59c6.15-0.91,11.97-5.2,13.65-11.19c1.83-6.54-1.53-13.69-6.76-18.02
								c-5.23-4.33-11.99-6.31-18.65-7.64c-18.47-3.67-38.04-2.94-55.59,3.88c-17.55,6.82-33.12,19.92-40.62,37.19
								C849.04,403.87,850.05,416.12,852.34,437.88"/>
						</g>
					</g>
				</g>
			</g>
			<g>
				<g>
					<g>
						<path class="st5" d="M950.23,441.54c-0.17,0.01,0.02-2.6-1.11-7.05c-1.12-4.37-4.04-10.8-10.61-15.77
							c-3.26-2.43-7.36-4.49-12.09-5.32c-4.7-0.8-9.99-0.64-15.03,1.28c-2.54,0.88-4.98,2.22-7.23,3.9
							c-2.27,1.65-4.34,3.7-6.04,6.07c-3.51,4.68-5.49,10.69-5.55,16.88c0.06,6.2,2.04,12.21,5.55,16.89
							c1.7,2.37,3.76,4.42,6.04,6.08c2.25,1.68,4.69,3.02,7.23,3.9c5.04,1.92,10.34,2.08,15.03,1.28c4.73-0.83,8.83-2.89,12.09-5.32
							c6.57-4.97,9.49-11.4,10.61-15.77C950.25,444.13,950.06,441.53,950.23,441.54c0.02,0,0.03,0.16,0.03,0.47
							c0,0.38-0.01,0.83-0.02,1.39c0,0.61-0.03,1.37-0.18,2.25c-0.12,0.89-0.23,1.92-0.54,3.04c-1.01,4.46-3.87,11.09-10.55,16.28
							c-3.31,2.53-7.52,4.7-12.38,5.59c-4.84,0.86-10.31,0.74-15.54-1.23c-2.63-0.9-5.17-2.27-7.5-4.01
							c-2.36-1.7-4.51-3.82-6.28-6.28c-3.65-4.84-5.72-11.09-5.78-17.51c0.06-6.43,2.12-12.67,5.78-17.51
							c1.77-2.46,3.91-4.57,6.27-6.28c2.33-1.74,4.87-3.1,7.5-4.01c5.23-1.96,10.7-2.09,15.53-1.23c4.87,0.89,9.07,3.06,12.38,5.59
							c6.69,5.19,9.54,11.81,10.55,16.28c0.32,1.12,0.43,2.15,0.54,3.04c0.15,0.88,0.18,1.64,0.18,2.25
							c0.01,0.56,0.01,1.01,0.02,1.39C950.26,441.38,950.25,441.54,950.23,441.54z"/>
					</g>
				</g>
				<g>
					<g>
						<path class="st5" d="M1025.6,441.54c-0.17,0.01,0.02-2.6-1.11-7.05c-1.12-4.37-4.04-10.8-10.61-15.77
							c-3.26-2.43-7.36-4.49-12.09-5.32c-4.7-0.8-9.99-0.64-15.03,1.28c-2.54,0.88-4.98,2.22-7.23,3.9
							c-2.27,1.65-4.34,3.7-6.04,6.07c-3.51,4.68-5.49,10.69-5.55,16.88c0.06,6.2,2.04,12.21,5.55,16.89
							c1.7,2.37,3.76,4.42,6.04,6.08c2.25,1.68,4.69,3.02,7.23,3.9c5.04,1.92,10.34,2.08,15.03,1.28c4.73-0.83,8.83-2.89,12.09-5.32
							c6.57-4.97,9.49-11.4,10.61-15.77C1025.62,444.13,1025.43,441.53,1025.6,441.54c0.02,0,0.03,0.16,0.03,0.47
							c0,0.38-0.01,0.83-0.02,1.39c0,0.61-0.03,1.37-0.18,2.25c-0.12,0.89-0.23,1.92-0.54,3.04c-1.01,4.46-3.87,11.09-10.55,16.28
							c-3.31,2.53-7.52,4.7-12.38,5.59c-4.84,0.86-10.31,0.74-15.54-1.23c-2.63-0.9-5.17-2.27-7.5-4.01
							c-2.36-1.7-4.51-3.82-6.28-6.28c-3.65-4.84-5.72-11.09-5.78-17.51c0.06-6.43,2.12-12.67,5.78-17.51
							c1.77-2.46,3.91-4.57,6.27-6.28c2.33-1.74,4.87-3.1,7.5-4.01c5.23-1.96,10.7-2.09,15.53-1.23c4.87,0.89,9.07,3.06,12.38,5.59
							c6.69,5.19,9.54,11.81,10.55,16.28c0.32,1.12,0.43,2.15,0.54,3.04c0.15,0.88,0.18,1.64,0.18,2.25
							c0.01,0.56,0.01,1.01,0.02,1.39C1025.63,441.38,1025.62,441.54,1025.6,441.54z"/>
					</g>
				</g>
				<g>
					<g>
						<path class="st5" d="M968.09,438.44c-0.09,0.15-1.05-0.39-2.69-0.93c-1.63-0.55-3.99-1.01-6.6-0.84
							c-2.61,0.18-4.88,0.95-6.43,1.71c-1.55,0.75-2.43,1.41-2.54,1.28c-0.08-0.09,0.63-0.97,2.17-1.94
							c1.52-0.98,3.93-1.92,6.72-2.12c2.79-0.18,5.3,0.44,6.94,1.21C967.34,437.56,968.16,438.34,968.09,438.44z"/>
					</g>
				</g>
			</g>
			<g>
				<path class="st5" d="M979.77,366.2c0.42-2.22-0.31-3.47,0.94-4.38c1.43-1.04,4.13,1.69,5.11,2.77c0.31,0.35,1.32-1.01,1.71-1.27
					c0.31-0.21,0.8-2.47,0.75-2.84c-0.19-1.55-2.62-1.96-3.76-3.02c-1.15-1.06-2.57-1.77-4.03-2.29c-1.28-0.45-2.87-0.7-3.87,0.23
					c-0.76,0.71-0.89,1.86-0.86,2.9c0.03,1.03,0.17,2.07,0.58,3.02c0.41,0.94,1.12,1.79,2.06,2.21"/>
			</g>
			<g>
				<path class="st12" d="M850.75,415.13c0,0,20.99,7.7,31.92,12.33l-0.62-10.74l-30.54-12.08
					C851.51,404.64,850.74,412.61,850.75,415.13z"/>
			</g>
			<g>
				<g>
					<path class="st12" d="M852.71,398.45c0.12-0.27,6.77,2.28,14.86,5.7c8.09,3.42,14.56,6.42,14.44,6.69
						c-0.12,0.27-6.77-2.28-14.86-5.7C859.06,401.72,852.6,398.72,852.71,398.45z"/>
				</g>
			</g>
		</g>
	</g>
	<g>
		<g>
			<path class="st2" d="M859.04,624.63l-1.62-50.81c0,0,10.09,46.5,62.97,45.9c50.53-0.58,49.61-40.97,49.61-40.97l1.8,20.48v82.73
				l-32.96,134.96l-42.09,5.34l-46.52-184.49L859.04,624.63z"/>
		</g>
		<g>
			<g>
				<path class="st5" d="M965.29,608.37c0.03,0.02-0.18,0.39-0.61,1.08c-0.46,0.67-1.01,1.76-2,2.95c-1.82,2.5-4.92,5.83-9.41,9.11
					c-4.47,3.3-10.49,6.3-17.58,8.26c-7.09,1.93-15.28,2.69-23.72,1.64c-8.42-1.13-16.17-3.71-22.78-6.86
					c-6.64-3.14-12.2-6.73-16.64-10.03c-4.45-3.3-7.83-6.24-10.08-8.35c-1.15-1.04-1.97-1.9-2.55-2.47
					c-0.57-0.58-0.86-0.9-0.83-0.92c0.03-0.03,0.36,0.24,0.98,0.76c0.7,0.61,1.59,1.37,2.69,2.32c2.33,2.01,5.77,4.85,10.25,8.04
					c4.47,3.19,10.03,6.69,16.61,9.75c6.56,3.07,14.22,5.57,22.5,6.69c8.28,1.03,16.34,0.31,23.32-1.53
					c6.99-1.87,12.94-4.75,17.4-7.92c4.48-3.15,7.62-6.35,9.52-8.75C964.28,609.75,965.2,608.3,965.29,608.37z"/>
			</g>
		</g>
	</g>
	<g>
		<g>
			<path class="st12" d="M928.6,1042.12l-0.76-239.83l-68.11-175.04l-2.29-52.68l-41.5,31.39c0,0-60.43,207.95-61.36,200.74
				c-0.93-7.21-0.02,235.42-0.02,235.42H928.6z"/>
			<g>
				<g>
					<path class="st5" d="M926.97,1041.46c-0.3,0-0.54-54.04-0.54-120.69c0-66.67,0.24-120.7,0.54-120.7
						c0.3,0,0.54,54.03,0.54,120.7C927.51,987.42,927.26,1041.46,926.97,1041.46z"/>
				</g>
			</g>
		</g>
		<g>
			<polygon class="st10" points="816.55,640.22 824.97,646.59 819.05,685.39 918.47,789.53 828.17,670.96 835.87,640.22 			"/>
		</g>
		<g>
			<path class="st12" d="M932.33,919.26l-152.57-44.73l-5.05-115.89l41.85-152.68c0,0-99.75,49.76-106.53,81.43
				c-6.79,31.67-23.15,108.65-24.89,164.29c-1.56,49.75-1.78,83.01,9.57,98.89c32.53,45.48,246.94,53.6,332.6-0.06"/>
		</g>
		<g>
			<g>
				<path class="st5" d="M920.39,792.05c-0.01,0.01-0.18-0.18-0.5-0.56c-0.34-0.43-0.8-0.99-1.37-1.71
					c-1.22-1.57-2.96-3.8-5.18-6.64c-4.5-5.85-10.95-14.21-18.9-24.53c-15.91-20.82-37.82-49.51-62.03-81.19
					c-1.57-2.06-3.12-4.1-4.67-6.13l-0.16-0.21l0.06-0.25c2.67-10.62,5.25-20.91,7.71-30.73l0.5,0.65
					c-6.67-0.01-13.12-0.02-19.32-0.03l-0.49,0l0-0.49c0.03-12.55,0.06-24.06,0.08-34.26l0-0.2l0.16-0.12
					c12.58-9.56,22.83-17.35,29.99-22.79c3.53-2.65,6.29-4.72,8.23-6.18c0.91-0.67,1.63-1.19,2.16-1.59
					c0.49-0.35,0.75-0.53,0.76-0.51c0.01,0.02-0.22,0.22-0.69,0.61c-0.52,0.41-1.21,0.97-2.09,1.68c-1.91,1.5-4.62,3.63-8.1,6.35
					c-7.1,5.51-17.28,13.39-29.77,23.08l0.16-0.33c0.02,10.2,0.05,21.71,0.08,34.26l-0.49-0.49c6.2-0.01,12.65-0.02,19.32-0.03
					l0.67,0l-0.16,0.65c-2.45,9.82-5.02,20.12-7.68,30.74l-0.09-0.46c1.54,2.03,3.1,4.07,4.67,6.13
					c24.11,31.76,45.93,60.51,61.78,81.38c7.84,10.41,14.19,18.85,18.63,24.74c2.15,2.9,3.83,5.16,5.02,6.76
					c0.54,0.74,0.96,1.33,1.28,1.77C920.26,791.82,920.4,792.03,920.39,792.05z"/>
			</g>
		</g>
		<g>
			<path class="st12" d="M988.4,596.94c-12.17-21.28-18.48-19.07-18.48-19.07l0.63,7.59l0.01,15.94l-5.77,68.39l-36.97,148.6
				l0.76,223.74h139.73L1085.72,769l-1.58-117.66L988.4,596.94z"/>
		</g>
		<g>
			<path class="st12" d="M1084.14,651.35c0,0,36.17,26.7,39.3,69.65c2.54,34.89,8.38,130.42,9.44,151.21
				c1.64,32.39-23.57,108.23-89.23,86.74c-39.37-12.88-184.85-62.33-184.85-62.33l9.68-61.78l172.67,10.29l3.43-144.02
				L1084.14,651.35z"/>
		</g>
		<g>
			<path class="st14" d="M866.5,841.96c0,0-48.87-5.28-60.19-2.55c-10.88,2.63-26.37,15.93-26.37,15.93l0.22,19.31l78.63,21.98
				L866.5,841.96z"/>
		</g>
		<g>
			<g>
				<path class="st5" d="M927.84,796.04c-0.02-0.01,0.06-0.23,0.22-0.66c0.19-0.48,0.43-1.11,0.74-1.91
					c0.69-1.73,1.67-4.18,2.92-7.3c2.61-6.39,6.34-15.52,10.94-26.78c4.66-11.31,10.2-24.75,16.35-39.67
					c1.55-3.71,3.08-7.59,5-11.38c1.84-3.83,4.02-7.57,6.26-11.37c4.6-7.52,9.81-15.01,15.52-22.4c2.82-3.64,5.66-7.18,8.6-10.57
					l-0.1,0.55c-2.07-5.27-4.1-10.44-6.09-15.48l-0.2-0.51l0.52-0.18c8.92-3.03,17.45-5.93,25.47-8.66l-0.26,0.71
					c-11.82-19.73-21.8-36.4-28.88-48.21c-3.5-5.85-6.48-10.52-9.65-12.44c-1.55-0.96-2.94-1.34-3.86-1.56
					c-0.93-0.22-1.42-0.31-1.41-0.34c0,0,0.5,0.01,1.45,0.19c0.94,0.18,2.36,0.51,3.99,1.45c1.64,0.94,3.29,2.61,4.9,4.75
					c1.61,2.15,3.33,4.7,5.08,7.64c7.16,11.77,17.27,28.38,29.23,48.03l0.31,0.52l-0.58,0.2c-8.01,2.75-16.54,5.67-25.45,8.73
					l0.32-0.69c1.99,5.04,4.03,10.21,6.11,15.47l0.12,0.3l-0.22,0.25c-2.91,3.36-5.75,6.9-8.55,10.52
					c-5.69,7.36-10.88,14.82-15.47,22.28c-2.23,3.77-4.4,7.49-6.24,11.27c-1.91,3.75-3.44,7.57-5.01,11.3
					c-6.23,14.88-11.84,28.29-16.56,39.58c-4.73,11.2-8.57,20.29-11.25,26.65c-1.33,3.09-2.37,5.51-3.11,7.23
					c-0.35,0.78-0.62,1.4-0.83,1.87C927.96,795.84,927.86,796.05,927.84,796.04z"/>
			</g>
		</g>
		<g>
			<g>
				<path class="st5" d="M1103.98,946.94c0.01,0.01-0.19,0.23-0.61,0.64c-0.45,0.44-1.07,1.04-1.86,1.81
					c-1.66,1.56-4.28,3.69-7.93,6.02c-3.7,2.25-8.55,4.55-14.53,6.09c-5.97,1.55-13.08,2.14-20.81,1.32
					c-3.86-0.43-7.86-1.29-11.91-2.52c-4.05-1.29-8.11-2.88-12.4-4.39c-8.53-3.1-17.68-6.32-27.31-9.7
					c-19.27-6.75-40.52-13.97-62.9-21.31c-44.78-14.71-85.61-27.11-115.2-35.94c-14.77-4.37-26.74-7.91-35.07-10.38
					c-4.1-1.22-7.3-2.17-9.53-2.83c-1.05-0.32-1.87-0.58-2.47-0.76c-0.56-0.18-0.84-0.28-0.83-0.3c0.01-0.02,0.3,0.05,0.86,0.19
					c0.61,0.16,1.44,0.38,2.5,0.66c2.25,0.62,5.47,1.5,9.59,2.64c8.32,2.32,20.34,5.73,35.17,10.05
					c29.65,8.65,70.53,20.93,115.32,35.65c22.39,7.35,43.64,14.6,62.89,21.4c9.63,3.41,18.77,6.66,27.29,9.8
					c4.27,1.52,8.38,3.15,12.35,4.43c4,1.24,7.94,2.11,11.75,2.56c7.62,0.86,14.66,0.33,20.57-1.15c5.93-1.46,10.75-3.69,14.46-5.86
					c3.66-2.26,6.31-4.32,8.01-5.82c0.82-0.73,1.45-1.3,1.93-1.72C1103.74,947.11,1103.97,946.92,1103.98,946.94z"/>
			</g>
		</g>
		<g>
			<g>
				<path class="st5" d="M780.16,874.99c-0.03,0.23-2.74-0.36-7.12-0.19c-2.19,0.1-4.78,0.45-7.55,1.25
					c-2.76,0.84-5.69,2.09-8.5,3.87c-5.63,3.61-9.49,8.45-11.82,12.15c-2.32,3.73-3.32,6.3-3.51,6.22
					c-0.07-0.03,0.14-0.68,0.58-1.85c0.41-1.18,1.19-2.81,2.28-4.76c2.2-3.86,6.08-8.93,11.89-12.66c2.9-1.84,5.95-3.11,8.81-3.92
					c2.88-0.77,5.56-1.05,7.8-1.05c2.24,0.02,4.05,0.19,5.27,0.47C779.51,874.75,780.18,874.92,780.16,874.99z"/>
			</g>
		</g>
		<g>
			<g>
				<path class="st5" d="M732.1,859.85c-0.03-0.02,0.03-0.2,0.2-0.55c0.16-0.34,0.46-0.83,0.96-1.36c0.96-1.1,2.88-2.21,5.42-2.69
					c2.54-0.54,5.63-0.41,8.96,0.02c3.34,0.44,6.97,1.27,10.63,2.58c7.36,2.6,13.25,6.74,16.86,10.32c1.8,1.81,3.09,3.41,3.91,4.57
					c0.79,1.18,1.19,1.85,1.13,1.89c-0.17,0.13-1.88-2.52-5.57-5.91c-3.68-3.37-9.49-7.31-16.7-9.86c-3.59-1.29-7.14-2.13-10.4-2.61
					c-3.27-0.48-6.25-0.68-8.69-0.25c-2.44,0.37-4.27,1.3-5.26,2.24C732.54,859.18,732.19,859.91,732.1,859.85z"/>
			</g>
		</g>
		<g>
			<g>
				<path class="st5" d="M789.06,726.76c-0.07,0-0.32-1.13-0.7-3.15c-0.31-0.98-0.76-2.17-1.23-3.55c-0.66-1.31-1.31-2.85-2.26-4.43
					c-1.86-3.19-4.49-6.73-7.78-10.35c-3.38-3.52-7.31-7.22-11.92-10.48c-9.17-6.6-18.83-10.47-26.05-11.97
					c-3.63-0.65-6.6-1.12-8.67-1.1c-2.07-0.1-3.22-0.19-3.23-0.26c0-0.07,1.14-0.13,3.24-0.16c2.1-0.14,5.11,0.21,8.81,0.78
					c7.36,1.33,17.24,5.15,26.53,11.84c4.67,3.31,8.64,7.08,12.02,10.69c3.3,3.7,5.91,7.35,7.71,10.64
					c0.92,1.63,1.54,3.23,2.16,4.58c0.43,1.43,0.83,2.66,1.08,3.67C789.03,725.61,789.14,726.75,789.06,726.76z"/>
			</g>
		</g>
		<g>
			<g>
				<path class="st5" d="M1078.72,903.96c-0.02,0-0.04-0.25-0.05-0.74c-0.01-0.54-0.03-1.26-0.05-2.17
					c-0.06-1.9-0.13-4.71-0.41-8.32c-0.59-7.18-1.82-17.68-6.13-29.87c-1.07-3.04-2.29-6.21-4.18-9.13
					c-1.86-2.93-4.64-5.39-8.09-6.86c-6.94-2.99-15.3-2.6-23.8-3.08c-17.11-0.72-35.91-1.51-55.64-2.34
					c-45.98-2-86.87-3.73-112.57-5.1l0.34-0.28c-1.55,9.44-2.78,16.92-3.64,22.12c-0.43,2.51-0.77,4.47-1.01,5.86
					c-0.12,0.62-0.21,1.12-0.28,1.51c-0.07,0.34-0.11,0.51-0.13,0.51c-0.02,0,0-0.18,0.03-0.52c0.05-0.39,0.11-0.89,0.19-1.52
					c0.2-1.4,0.48-3.36,0.84-5.89c0.78-5.21,1.91-12.71,3.34-22.18l0.04-0.29l0.3,0.01c25.8,1.07,66.65,2.77,112.58,4.68
					c19.73,0.86,38.53,1.68,55.64,2.42c4.28,0.21,8.44,0.31,12.51,0.65c4.05,0.35,8.04,1.03,11.6,2.6c3.57,1.54,6.52,4.17,8.42,7.22
					c1.94,3.04,3.15,6.27,4.21,9.33c4.25,12.31,5.37,22.88,5.83,30.09c0.21,3.62,0.22,6.44,0.21,8.34
					c-0.03,0.91-0.05,1.63-0.06,2.17C1078.76,903.71,1078.74,903.96,1078.72,903.96z"/>
			</g>
		</g>
		<g>
			<g>
				<path class="st5" d="M1045.8,768.78c0.3,0,0.54,16.72,0.54,37.35c0,20.63-0.24,37.35-0.54,37.35c-0.3,0-0.54-16.72-0.54-37.35
					C1045.26,785.5,1045.5,768.78,1045.8,768.78z"/>
			</g>
		</g>
		<g>
			<g>
				<path class="st5" d="M711.22,683.65c0,0-0.13,0.47-0.43,1.38c-0.28,0.91-0.81,2.23-1.25,4.04c-1.01,3.59-2.28,8.95-3.71,15.94
					c-2.89,13.97-6.44,34.4-10.43,59.98c-1.98,12.79-4.09,26.87-6.16,42.09c-1.06,7.6-1.71,15.52-2.26,23.72
					c-0.54,8.2-0.98,16.67-1.3,25.38c-0.63,17.43-1,35.83-0.5,55.01c0.15,4.79,0.32,9.64,0.72,14.5c0.12,2.45,0.52,4.85,0.82,7.29
					c0.51,2.39,0.95,4.82,1.77,7.16c1.49,4.7,3.74,9.21,6.87,13.13c3.1,3.87,7.16,7.23,11.79,9.08l0.07,0.03l0.02,0.01
					c9.56,4.94,20.04,8.52,30.73,11.74c10.71,3.21,21.78,5.8,33.03,8.11c25.16,5.14,50.11,8.16,74.2,9.04
					c12.06,0.37,23.88-0.09,35.42-0.92c11.54-0.8,22.79-2,33.68-3.62c21.78-3.15,42.1-7.99,60.44-14.05
					c18.36-6.05,34.69-13.4,48.87-20.97l0.05,0.67c-28.45-10.07-51.29-18.16-67.05-23.74c-7.84-2.8-13.91-4.97-18.05-6.45
					c-2.04-0.74-3.59-1.3-4.67-1.69c-1.05-0.39-1.58-0.61-1.58-0.61s0.55,0.16,1.61,0.51c1.08,0.37,2.65,0.9,4.7,1.6
					c4.16,1.44,10.25,3.54,18.12,6.26c15.78,5.5,38.66,13.48,67.16,23.42l0.79,0.28l-0.74,0.4c-14.19,7.64-30.55,15.05-48.95,21.16
					c-18.38,6.12-38.75,11.01-60.58,14.19c-10.91,1.63-22.18,2.86-33.75,3.67c-11.56,0.85-23.43,1.31-35.53,0.95
					c-24.17-0.87-49.17-3.88-74.39-9.03c-11.27-2.32-22.37-4.92-33.12-8.14c-10.73-3.23-21.24-6.82-30.93-11.83l0.09,0.04
					c-4.97-1.99-9.05-5.42-12.28-9.43c-3.21-4.03-5.52-8.67-7.04-13.47c-0.83-2.39-1.28-4.86-1.79-7.3
					c-0.31-2.47-0.71-4.93-0.83-7.38c-0.4-4.9-0.57-9.75-0.71-14.55c-0.48-19.22-0.08-37.64,0.58-55.08
					c0.33-8.72,0.79-17.2,1.35-25.41c0.57-8.21,1.24-16.16,2.32-23.78c2.12-15.22,4.27-29.3,6.29-42.09
					c4.08-25.58,7.74-46,10.75-59.95c1.49-6.98,2.82-12.34,3.89-15.91c0.47-1.81,1.03-3.12,1.34-4.02
					C711.03,684.1,711.22,683.65,711.22,683.65z"/>
			</g>
		</g>
		<g>
			<path class="st10" d="M779.94,860.67c25.51-28.25,24.39-78.48,9.75-114.12c-1.35,38.61-5.91,72.85-9.4,110.37"/>
		</g>
		<g>
			<g>
				<path class="st5" d="M789.75,753.79c0.04,0,0.03,0.43-0.01,1.24c-0.06,0.92-0.14,2.09-0.23,3.53c-0.25,3.2-0.6,7.59-1.02,12.95
					c-0.91,11.06-2.15,26.1-3.52,42.72c-1.3,16.63-2.48,31.67-3.35,42.73c-0.4,5.36-0.73,9.75-0.98,12.95
					c-0.12,1.43-0.23,2.6-0.31,3.52c-0.08,0.8-0.14,1.23-0.18,1.22c-0.04,0-0.05-0.43-0.04-1.24c0.03-0.92,0.06-2.09,0.1-3.53
					c0.1-3.07,0.33-7.5,0.63-12.98c0.63-10.96,1.67-26.08,3.03-42.77c1.36-16.69,2.75-31.78,3.83-42.7
					c0.56-5.35,1.02-9.73,1.36-12.92c0.18-1.43,0.32-2.59,0.43-3.51C789.63,754.2,789.71,753.78,789.75,753.79z"/>
			</g>
		</g>
		<g>
			<g>
				<g>
					<path class="st5" d="M852.64,702.75c0.3,0,0.54,9.81,0.54,21.9c0,12.1-0.24,21.9-0.54,21.9c-0.3,0-0.54-9.8-0.54-21.9
						C852.1,712.55,852.35,702.75,852.64,702.75z"/>
				</g>
			</g>
			<g>
				<g>
					<g>
						<path class="st10" d="M836.02,775.52c0.38,4.47,2.3,8.5,4.7,11.62c2.4,3.12,7.27,6.16,11.2,5.94c0,0,9.79,0.84,15.06-7.56
							c4.77-7.6,5.95-23.41,2.12-32.76c-2.63-6.43-8.55-12.41-15.49-12.57c-9.12-0.22-14.84,6.37-16.78,13.04"/>
					</g>
					<g>
						<g>
							<path class="st5" d="M836.82,753.23c0,0,0.2-1.74,1.69-4.47c0.74-1.36,1.82-2.95,3.42-4.48c1.58-1.54,3.76-2.97,6.45-3.79
								c1.34-0.39,2.8-0.67,4.34-0.69c1.52-0.08,3.17,0.1,4.74,0.62c3.18,1.02,6.12,3.22,8.47,6.07c2.37,2.84,4.12,6.45,4.98,10.37
								c0.89,3.91,1.16,8.06,0.93,12.28c-0.42,6.49-1.7,12.95-5.29,17.89c-1.82,2.42-4.3,4.17-6.88,5.19
								c-2.6,1.03-5.24,1.43-7.79,1.31l0.06,0c-2.09,0.08-3.96-0.6-5.58-1.38c-1.62-0.82-3.02-1.83-4.2-2.93
								c-2.35-2.25-3.64-4.75-4.57-6.81c-0.9-2.09-1.27-3.84-1.45-5.03c-0.08-0.6-0.12-1.06-0.13-1.37
								c-0.01-0.31-0.01-0.47,0.02-0.47c0.16-0.04,0.15,2.6,2.02,6.67c0.96,1.97,2.33,4.42,4.59,6.49c1.15,1.03,2.52,1.97,4.07,2.73
								c1.55,0.73,3.33,1.32,5.18,1.22l0.01,0l0.05,0c4.67,0.16,10.35-1.64,13.78-6.24c3.35-4.62,4.63-10.97,5.03-17.32
								c0.45-8.2-0.93-16.46-5.6-21.96c-2.22-2.75-5.01-4.85-7.97-5.85c-1.48-0.51-2.98-0.69-4.45-0.64c-1.46,0-2.86,0.24-4.14,0.59
								c-2.58,0.73-4.69,2.05-6.26,3.5c-1.59,1.44-2.69,2.96-3.47,4.25C837.31,751.58,836.94,753.27,836.82,753.23z"/>
						</g>
					</g>
				</g>
				<g>
					<g>
						<path class="st10" d="M831.17,775.93c0.38,4.47,2.3,8.5,4.7,11.62c2.4,3.12,7.27,6.16,11.2,5.94c0,0,9.79,0.84,15.06-7.56
							c4.77-7.6,5.95-23.41,2.12-32.76c-2.63-6.43-8.55-12.41-15.49-12.57c-9.12-0.22-14.84,6.37-16.78,13.04"/>
					</g>
					<g>
						<g>
							<path class="st5" d="M831.97,753.64c0,0,0.2-1.74,1.69-4.47c0.74-1.35,1.82-2.95,3.42-4.48c1.58-1.54,3.76-2.97,6.45-3.79
								c1.34-0.39,2.8-0.67,4.34-0.69c1.52-0.08,3.17,0.1,4.74,0.62c3.18,1.02,6.12,3.22,8.47,6.07c2.37,2.84,4.12,6.45,4.98,10.37
								c0.89,3.91,1.16,8.06,0.93,12.28c-0.42,6.49-1.7,12.95-5.29,17.89c-1.82,2.42-4.3,4.17-6.88,5.19
								c-2.6,1.03-5.24,1.43-7.79,1.31l0.06,0c-2.09,0.08-3.96-0.6-5.58-1.38c-1.62-0.82-3.02-1.83-4.2-2.93
								c-2.35-2.25-3.64-4.75-4.57-6.81c-0.9-2.09-1.27-3.84-1.45-5.03c-0.08-0.6-0.12-1.06-0.13-1.37
								c-0.01-0.31-0.01-0.47,0.02-0.47c0.16-0.04,0.15,2.6,2.02,6.67c0.96,1.97,2.33,4.42,4.59,6.49c1.15,1.03,2.52,1.97,4.07,2.73
								c1.55,0.73,3.33,1.32,5.18,1.22l0.01,0l0.05,0c4.67,0.16,10.35-1.64,13.78-6.24c3.35-4.62,4.63-10.98,5.03-17.32
								c0.45-8.2-0.93-16.46-5.6-21.96c-2.22-2.75-5.01-4.85-7.97-5.85c-1.48-0.51-2.98-0.69-4.44-0.64c-1.46,0-2.86,0.24-4.14,0.59
								c-2.58,0.73-4.69,2.05-6.26,3.5c-1.59,1.44-2.69,2.96-3.47,4.25C832.46,751.99,832.09,753.68,831.97,753.64z"/>
						</g>
					</g>
				</g>
				<g>
					<g>
						<path class="st10" d="M839.97,751.3c-4.53-0.9-9.21,2.21-11.13,6.41s-1.49,9.16,0.02,13.53c0.77,2.22,1.84,4.38,3.45,6.09
							c1.61,1.71,3.83,2.94,6.18,3.01c3.45,0.1,6.55-2.25,8.56-5.06c3.24-4.53,4.34-10.52,2.92-15.9c-0.95-3.59-3.59-7.28-7.31-7.38
							"/>
					</g>
					<g>
						<g>
							<path class="st5" d="M842.67,752.01c0-0.03,0.28-0.06,0.82-0.02c0.54,0.05,1.34,0.24,2.25,0.76c1.82,1.01,3.9,3.5,4.74,7.13
								c0.88,3.56,0.78,8.21-1.28,12.69c-1.03,2.21-2.51,4.42-4.65,6.1c-2.07,1.68-5.1,2.76-8,1.91c-2.86-0.8-5.04-2.93-6.39-5.22
								c-1.37-2.32-2.16-4.77-2.66-7.16c-1-4.77-0.19-9.49,2.07-12.52c2.22-3.05,5.21-4.33,7.23-4.6c1.02-0.16,1.83-0.07,2.36-0.01
								c0.53,0.11,0.8,0.19,0.79,0.22c-0.01,0.12-1.14-0.21-3.08,0.2c-1.91,0.38-4.68,1.71-6.68,4.62
								c-2.02,2.87-2.72,7.32-1.72,11.88c0.5,2.27,1.3,4.66,2.59,6.81c1.28,2.14,3.26,4.03,5.77,4.73c2.5,0.73,5.13-0.17,7.06-1.71
								c1.98-1.53,3.39-3.6,4.4-5.69c2-4.23,2.19-8.66,1.44-12.1c-0.71-3.47-2.58-5.9-4.22-6.95
								C843.86,752.03,842.64,752.14,842.67,752.01z"/>
						</g>
					</g>
				</g>
				<g>
					<g>
						<path class="st5" d="M850.42,785.38c-0.16,0.04-0.39-0.65-1.1-1.48c-0.69-0.84-1.94-1.77-3.54-2.27
							c-1.61-0.5-3.2-0.58-4.35-0.68c-1.16-0.08-1.89-0.18-1.89-0.33c0-0.15,0.71-0.32,1.89-0.43c1.17-0.1,2.87-0.15,4.68,0.41
							c1.83,0.57,3.21,1.77,3.84,2.86C850.59,784.55,850.55,785.36,850.42,785.38z"/>
					</g>
				</g>
				<g>
					<g>
						<path class="st5" d="M852.05,748.48c0.09,0.09-0.32,0.74-1.28,1.5c-0.96,0.76-2.51,1.57-4.37,1.91
							c-1.86,0.33-3.6,0.12-4.76-0.26c-1.17-0.38-1.79-0.84-1.73-0.96c0.11-0.3,2.87,0.82,6.3,0.16
							C849.65,750.25,851.84,748.24,852.05,748.48z"/>
					</g>
				</g>
			</g>
		</g>
		<g>
			<g>
				<g>
					<path class="st5" d="M994.48,600.01c0.02-0.03,0.25,0.05,0.68,0.25c0.43,0.2,1.07,0.49,1.84,0.95
						c1.57,0.89,3.78,2.31,6.21,4.44c4.89,4.17,10.61,11.54,13.34,21.11c2.86,9.39,4.41,18.19,5.08,24.57
						c0.36,3.19,0.55,5.78,0.67,7.57c0.11,1.79,0.13,2.78,0.05,2.79c-0.07,0.01-0.24-0.97-0.47-2.75c-0.27-1.99-0.61-4.51-1.01-7.52
						c-0.86-6.34-2.51-15.02-5.36-24.37c-2.68-9.36-8.14-16.6-12.82-20.85C998.01,601.9,994.35,600.2,994.48,600.01z"/>
				</g>
			</g>
			<g>
				<g>
					<path class="st5" d="M968.66,828.17c6.01-0.23,10.81-6.22,16.81-5.9c4.45,0.24,8.25,4.6,7.88,9.05
						c-0.38,4.44-4.86,8.11-9.29,7.59c-6.31-0.73-10-8.12-16.19-9.54"/>
				</g>
				<g>
					<path class="st5" d="M1019.6,833.29c-1.8,0-3.68-0.16-5.63-0.47l0.33-2.05c7.43,1.19,13.66-0.03,18.54-3.62
						c6.14-4.51,10.09-12.57,11.75-23.97l0.06-0.44c0.68-4.52,1.62-93.17,1.62-110c0-26.29-23.08-29.88-24.06-30.02
						c-0.93-0.17-21.91-3.68-33.04,25.04c-11.65,30.07-30.28,88.02-31.52,94.81c-0.15,0.83-0.38,1.86-0.65,3.06
						c-1.94,8.7-5.97,26.79,6.1,37.21c13.45,11.62,24.06,7.12,24.51,6.93l0.85,1.89c-0.5,0.22-12.2,5.28-26.71-7.25
						c-13.01-11.23-8.79-30.14-6.77-39.23c0.26-1.16,0.48-2.17,0.63-2.98c1.24-6.85,19.94-65.04,31.63-95.19
						c11.77-30.39,35.08-26.38,35.31-26.33c0.21,0.03,25.8,3.95,25.8,32.06c0,13.87-0.92,105.51-1.64,110.31l-0.06,0.43
						c-1.74,11.97-5.98,20.49-12.58,25.34C1030.03,831.8,1025.18,833.29,1019.6,833.29z"/>
				</g>
			</g>
			<g>
				<g>
					<path class="st5" d="M1047.31,709.71c-0.27,0.09-0.61-4.42-4.32-10.33c-1.85-2.92-4.57-6.08-8.19-8.87
						c-3.63-2.76-8.18-5.11-13.31-6.29c-10.36-2.38-20.2,0.2-26.24,3.42c-6.19,3.22-8.95,6.74-9.12,6.54
						c-0.03-0.03,0.13-0.24,0.47-0.64c0.35-0.38,0.81-1,1.55-1.65c1.39-1.39,3.65-3.19,6.74-4.92c3.08-1.73,7.06-3.29,11.68-4.12
						c4.6-0.84,9.87-0.92,15.16,0.32c5.3,1.22,9.98,3.68,13.67,6.55c3.69,2.91,6.43,6.22,8.24,9.26c1.8,3.06,2.77,5.79,3.2,7.71
						c0.28,0.95,0.33,1.72,0.42,2.23C1047.33,709.43,1047.35,709.7,1047.31,709.71z"/>
				</g>
			</g>
		</g>
		<g>
			<g>
				<path class="st5" d="M1100.1,875.41c-0.22,0.05-0.58-3.57-2.84-8.84c-2.23-5.2-6.73-12.12-14.06-16.87
					c-3.63-2.36-7.7-3.46-11.41-4.12c-3.73-0.62-7.16-0.85-10.04-1.04c-2.71-0.19-4.99-0.35-6.83-0.47c-1.61-0.15-2.5-0.27-2.5-0.34
					c0-0.08,0.9-0.1,2.52-0.08c1.84,0.03,4.13,0.08,6.84,0.13c2.89,0.1,6.35,0.24,10.16,0.82c3.79,0.62,8.03,1.72,11.83,4.19
					c7.59,4.92,12.09,12.1,14.18,17.49c1.06,2.72,1.64,5.02,1.89,6.62C1100.12,874.5,1100.16,875.4,1100.1,875.41z"/>
			</g>
		</g>
		<g>
			<g>
				<path class="st14" d="M995.54,840.82c0,0,20.38-30.87,25.59-34.92c5.21-4.04,49.7-24.13,54.91-20.9c5.21,3.23,2,10.24,2,10.24
					s18.84-6.6,20.84-4c2,2.6,2.4,7.01,0,10.62c0,0,10.42-1.6,10.42,1.6c0,3.21-1.2,7.21-6.01,10.82
					c-4.81,3.61-36.08,24.43-38.59,30.18l-10.13-0.61L995.54,840.82z"/>
			</g>
			<g>
				<g>
					<path class="st15" d="M1054.2,831.99c-0.06-0.03,0.25-0.74,0.93-1.94c0.68-1.21,1.79-2.89,3.35-4.83
						c3.09-3.89,8.27-8.57,14.78-12.45c6.51-3.89,12.88-6.45,17.49-8.22c2.31-0.88,4.19-1.54,5.5-1.98
						c1.31-0.44,2.05-0.65,2.07-0.58c0.03,0.07-0.66,0.41-1.92,0.97c-1.49,0.64-3.28,1.4-5.36,2.3c-4.52,1.94-10.79,4.6-17.22,8.43
						c-6.42,3.83-11.56,8.31-14.76,12.01C1055.83,829.39,1054.37,832.09,1054.2,831.99z"/>
				</g>
			</g>
			<g>
				<g>
					<path class="st15" d="M1028.34,831.49c-0.07-0.04,0.29-0.84,0.99-2.27c0.7-1.43,1.74-3.48,3.14-5.96
						c1.42-2.47,3.18-5.39,5.62-8.32c1.25-1.45,2.52-2.93,4.27-4.23c1.72-1.16,3.53-2.25,5.4-3.36c7.5-4.38,14.58-7.86,19.9-9.93
						c2.65-1.06,4.86-1.73,6.4-2.14c1.56-0.35,2.43-0.51,2.44-0.44c0.04,0.18-3.38,0.98-8.55,3.29c-5.2,2.23-12.18,5.79-19.64,10.15
						c-1.85,1.1-3.67,2.19-5.35,3.3c-1.54,1.11-2.9,2.63-4.11,4c-2.42,2.82-4.23,5.66-5.72,8.06c-1.36,2.29-2.5,4.22-3.42,5.78
						C1028.89,830.78,1028.41,831.52,1028.34,831.49z"/>
				</g>
			</g>
		</g>
	</g>
</g>
<g>
	<g>
		<path class="st5" d="M1665.74,1053.85c0,0.34-354.95,0.61-792.7,0.61c-437.9,0-792.78-0.27-792.78-0.61
			c0-0.34,354.87-0.61,792.78-0.61C1310.79,1053.24,1665.74,1053.51,1665.74,1053.85z"/>
	</g>
</g>
</svg>
