<?xml version="1.0" encoding="utf-8"?>
<!-- Generator: Adobe Illustrator 25.0.0, SVG Export Plug-In . SVG Version: 6.00 Build 0)  -->
<svg version="1.1" id="Capa_1" xmlns="http://www.w3.org/2000/svg" xmlns:xlink="http://www.w3.org/1999/xlink" x="0px" y="0px"
	 viewBox="0 0 57.1 51.8" style="enable-background:new 0 0 57.1 51.8;" xml:space="preserve">
<style type="text/css">
	.st0{fill:#025B93;}
</style>
<g>
	<path class="st0" d="M29.5,15c0.2,0,0.3,0,0.5,0c1.7,0.1,3.2,0.6,4.7,1.4c0.6,0.3,1.2,0.7,1.7,1.2c0,0,0.1,0.1,0.1,0.1
		c0-0.7,0-1.4,0-2.1c0.6,0,1.3,0,1.9,0c0,1.9,0.1,3.8,0.1,5.8c-2,0-4,0.1-6,0.1c0-0.6,0-1.3,0-1.9c1,0,2,0,3.1,0
		c0,0-0.1-0.1-0.1-0.1c-0.8-0.8-1.8-1.4-2.8-1.8c-0.6-0.2-1.2-0.4-1.8-0.5C30,16.9,29,16.9,28.1,17c-0.6,0.1-1.1,0.2-1.7,0.3
		c-2.1,0.6-3.8,1.8-5.1,3.6c-0.7,1-1.2,2.2-1.4,3.5c-0.1,0.8-0.2,1.6-0.1,2.4c0.1,1.1,0.4,2.1,1,3.1c1,1.8,2.4,3.1,4.2,3.9
		c0.5,0.3,1.1,0.5,1.7,0.6c1,0.3,2.1,0.4,3.2,0.3c0.5-0.1,1-0.1,1.5-0.2c2.2-0.5,3.9-1.7,5.3-3.5c0.6-0.8,1-1.6,1.3-2.5
		c0,0,0-0.1,0-0.1c0.6,0.2,1.2,0.4,1.8,0.6c0,0,0,0,0,0c0,0,0,0.1,0,0.1c-0.1,0.3-0.2,0.6-0.3,0.9c-1,2.3-2.7,4.1-4.9,5.3
		c-1.4,0.8-2.9,1.2-4.6,1.3c-0.1,0-0.3,0-0.4,0c-0.3,0-0.6,0-0.9,0c0,0-0.1,0-0.1,0c-0.4,0-0.9-0.1-1.3-0.1
		c-1.3-0.2-2.6-0.6-3.7-1.3c-1.7-0.9-3-2.2-4-3.8c-0.9-1.4-1.4-3-1.6-4.7c0-0.1,0-0.3,0-0.4c0-0.3,0-0.6,0-0.9c0-0.2,0-0.3,0-0.5
		c0.1-0.9,0.3-1.8,0.6-2.6c0.7-1.8,1.7-3.4,3.2-4.6c1.9-1.6,4-2.4,6.5-2.6c0.2,0,0.3,0,0.5,0C28.9,15,29.2,15,29.5,15z"/>
	<path class="st0" d="M32.3,27.6c0.7,0,1.4,0,2.1,0c0,0.3,0,0.5,0,0.8c-1,0-2,0-2.9,0c0-1.3,0-2.7,0-4c1,0,1.9,0,2.9,0
		c0,0.3,0,0.5,0,0.8c-0.7,0-1.3,0-2,0c0,0.3,0,0.6,0,0.8c0.6,0,1.2,0,1.8,0c0,0.3,0,0.5,0,0.8c-0.3,0-0.7,0-1,0c-0.2,0-0.5,0-0.7,0
		c0,0-0.1,0-0.1,0.1C32.3,27,32.3,27.3,32.3,27.6z"/>
	<path class="st0" d="M26.6,28.4c-0.3,0-0.6,0-0.9,0c0,0-0.1,0-0.1-0.1c-0.1-0.2-0.2-0.5-0.3-0.7c0-0.1-0.1-0.1-0.1-0.1
		c-0.5,0-1,0-1.5,0c-0.1,0-0.1,0-0.1,0.1c-0.1,0.3-0.2,0.5-0.3,0.8c-0.3,0-0.6,0-1,0c0.1-0.2,0.2-0.4,0.2-0.6
		c0.3-0.7,0.6-1.4,0.9-2.1c0.2-0.4,0.4-0.8,0.5-1.2c0-0.1,0.1-0.1,0.1-0.1c0.2,0,0.5,0,0.7,0c0.1,0,0.1,0,0.1,0.1
		c0.2,0.6,0.5,1.1,0.7,1.7c0.3,0.7,0.6,1.4,0.9,2.1C26.6,28.3,26.6,28.3,26.6,28.4z M23.9,26.7c0.3,0,0.7,0,1,0
		c-0.2-0.4-0.3-0.8-0.5-1.1c0,0,0,0,0,0C24.3,25.9,24.1,26.3,23.9,26.7z"/>
	<path class="st0" d="M30.4,24.8c-0.2,0.2-0.3,0.4-0.5,0.7c-0.1-0.1-0.2-0.1-0.3-0.2c-0.6-0.4-1.5-0.3-1.8,0.5
		c-0.2,0.5-0.2,1.3,0.5,1.7c0.4,0.2,0.8,0.2,1.2,0c0,0,0-0.1,0-0.1c0-0.3,0-0.6,0-0.9c0,0,0-0.1,0-0.1c0.3,0,0.6,0,0.9,0
		c0,0,0,0.1,0,0.1c0,0.4,0,0.8,0,1.2c0,0.1,0,0.1-0.1,0.2c-0.5,0.5-1.1,0.6-1.7,0.6c-0.9,0-1.5-0.5-1.8-1.3
		c-0.6-1.5,0.5-2.9,1.9-2.9C29.5,24.3,29.9,24.4,30.4,24.8C30.4,24.8,30.4,24.8,30.4,24.8z"/>
</g>
</svg>
