<?xml version="1.0" encoding="utf-8"?>
<!-- Generator: Adobe Illustrator 25.0.0, SVG Export Plug-In . SVG Version: 6.00 Build 0)  -->
<svg version="1.1" id="Capa_1" xmlns="http://www.w3.org/2000/svg" xmlns:xlink="http://www.w3.org/1999/xlink" x="0px" y="0px"
	 viewBox="0 0 57.1 51.8" style="enable-background:new 0 0 57.1 51.8;" xml:space="preserve">
<style type="text/css">
	.st0{fill:#025B93;}
</style>
<g>
	<path class="st0" d="M27.3,37.5c-0.7,0-1.2,0-1.8,0c-0.5,0-0.8-0.3-0.8-0.8c0-1.2,0-2.4,0-3.7c0-0.2,0-0.4,0-0.7
		c-0.9,0-1.7,0-2.6,0c0,0.2,0,0.5,0,0.7c0,1.2,0,2.4,0,3.6c0,0.6-0.2,0.8-0.8,0.8c-1.2,0-2.4,0-3.5,0c-0.6,0-0.8-0.3-0.8-0.9
		c0-0.7,0-1.4,0-2.2c0-3.9,0-7.9,0-11.8c0-0.4,0.2-0.9,0.4-1.2c1.7-2.2,3.5-4.4,5.2-6.6c0.7-0.8,1-0.8,1.6,0
		c1.8,2.2,3.5,4.5,5.3,6.7c0.3,0.4,0.3,0.6,0,1c-0.6,0.7-1.1,1.4-1.7,2.1c-0.4,0.5-0.6,1-0.6,1.6c0,3.5,0,7,0,10.5
		C27.3,37,27.3,37.2,27.3,37.5z M19.6,22c0,0.9,0,1.7,0,2.5c0.9,0,1.7,0,2.5,0c0-0.9,0-1.7,0-2.5C21.2,22,20.4,22,19.6,22z
		 M22.1,29.7c0-0.9,0-1.7,0-2.5c-0.9,0-1.7,0-2.5,0c0,0.9,0,1.7,0,2.5C20.4,29.7,21.2,29.7,22.1,29.7z"/>
	<path class="st0" d="M27.6,30.5c0-1.5,0-3,0-4.4c0-0.3,0.1-0.7,0.3-0.9c1.4-1.8,2.8-3.5,4.2-5.3c0.5-0.6,0.8-0.6,1.3,0
		c1.4,1.8,2.8,3.5,4.2,5.3c0.2,0.2,0.3,0.6,0.3,0.9c0,3,0,5.9,0,8.9c0,0.8-0.1,0.9-0.9,0.9c-2.8,0-5.7,0-8.5,0
		c-0.8,0-0.9-0.2-0.9-0.9C27.6,33.4,27.6,32,27.6,30.5z M30.2,25.6c0,0.9,0,1.7,0,2.5c0.9,0,1.7,0,2.5,0c0-0.9,0-1.7,0-2.5
		C31.9,25.6,31.1,25.6,30.2,25.6z M32.8,33.3c0.9,0,1.7,0,2.5,0c0-0.9,0-1.7,0-2.5c-0.9,0-1.7,0-2.5,0
		C32.8,31.6,32.8,32.4,32.8,33.3z"/>
</g>
</svg>
