<?xml version="1.0" encoding="utf-8"?>
<!-- Generator: Adobe Illustrator 25.0.0, SVG Export Plug-In . SVG Version: 6.00 Build 0)  -->
<svg version="1.1" id="Capa_1" xmlns="http://www.w3.org/2000/svg" xmlns:xlink="http://www.w3.org/1999/xlink" x="0px" y="0px"
	 viewBox="0 0 57.1 51.8" style="enable-background:new 0 0 57.1 51.8;" xml:space="preserve">
<style type="text/css">
	.st0{fill:#025B93;}
</style>
<g>
	<path class="st0" d="M30,35.4c0,0.6,0,1.2,0,1.9c-0.5,0-1.1,0-1.6,0c0,0.6,0,1.1,0,1.7c-1.2,0-2.4,0-3.6,0c0-0.5,0-1.1,0-1.6
		c-0.6,0-1.1,0-1.6,0c0-0.6,0-1.2,0-1.9c0.5,0,1,0,1.6,0c0-0.3,0-0.5,0-0.8c0-0.5,0-1,0-1.4c0-0.2-0.1-0.3-0.3-0.4
		c-2.4-0.9-4-2.5-4.5-5.1c-0.8-3.8,1.9-7.5,5.8-7.9c0.6-0.1,1.1,0,1.7,0c0.2,0,0.2,0,0.3-0.2c1.7-3.3,5.5-4.6,8.8-3.1
		c0.2,0.1,0.4,0.1,0.5-0.1c0.6-0.6,1.2-1.2,1.8-1.8c-0.4-0.4-0.8-0.8-1.3-1.3c2.1-0.3,4.1-0.6,6.1-0.9c-0.3,2-0.6,4-0.9,6.1
		c-0.4-0.4-0.8-0.9-1.2-1.3c-0.6,0.6-1.1,1.1-1.7,1.7c-0.4,0.4-0.4,0.4-0.2,0.9c1.8,4.1-1,8.9-5.4,9.3c-0.6,0.1-1.2,0-1.7,0
		c-0.2,0-0.2,0-0.3,0.1c-0.9,1.7-2.2,2.8-4,3.4c-0.1,0-0.2,0.1-0.2,0.2c0,0.8,0,1.5,0,2.3C29,35.4,29.5,35.4,30,35.4z M27.2,22.3
		c-1.8-0.3-4.2,0.8-4.8,3.2c-0.6,2.3,0.7,4.6,3,5.3c2.4,0.7,4.4-0.7,5.1-2.2C28.2,27.1,27.2,25,27.2,22.3z M33.3,27.1
		c1.9,0.3,4.2-0.8,4.8-3.1c0.6-2.3-0.6-4.6-2.9-5.3c-2.4-0.8-4.5,0.7-5.1,2.2C32.3,22.3,33.4,24.4,33.3,27.1z M30.9,25.9
		c-0.1-0.9-0.5-1.7-1.2-2.3C29.8,24.5,30.2,25.2,30.9,25.9z"/>
</g>
</svg>
