<?xml version="1.0" encoding="utf-8"?>
<!-- Generator: Adobe Illustrator 25.0.0, SVG Export Plug-In . SVG Version: 6.00 Build 0)  -->
<svg version="1.1" id="Capa_1" xmlns="http://www.w3.org/2000/svg" xmlns:xlink="http://www.w3.org/1999/xlink" x="0px" y="0px"
	 viewBox="0 0 57.1 51.8" style="enable-background:new 0 0 57.1 51.8;" xml:space="preserve">
<style type="text/css">
	.st0{fill:#025B93;}
</style>
<g>
	<path class="st0" d="M23.1,17.3c0-0.2,0-0.3,0-0.5c0-0.3,0-0.5,0-0.8c0-0.3,0.2-0.5,0.5-0.5c0.1,0,0.1,0,0.2,0
		c0.3,0,0.4,0.2,0.5,0.5c0,0.4,0,0.7,0,1.1c0,0.1,0,0.1,0,0.2c2.9,0,5.8,0,8.7,0c0-0.1,0-0.1,0-0.2c0-0.3,0-0.7,0-1
		c0-0.4,0.2-0.6,0.6-0.6c0,0,0,0,0.1,0c0.3,0,0.4,0.2,0.5,0.5c0,0.4,0,0.7,0,1.1c0,0.1,0,0.1,0,0.2c0.1,0,0.1,0,0.2,0
		c1,0,2.1,0,3.1,0c0.6,0,1,0.4,1,1c0,5.6,0,11.2,0,16.8c0,0.1,0,0.3,0,0.4c-0.1,0.4-0.4,0.7-0.9,0.7c-0.1,0-0.2,0-0.3,0
		c-5.8,0-11.5,0-17.3,0c-0.2,0-0.3,0-0.5-0.1c-0.4-0.1-0.6-0.4-0.6-0.8c0-0.1,0-0.2,0-0.3c0-5.5,0-11,0-16.6c0-0.7,0.4-1,1-1
		c1,0,2,0,3,0C22.9,17.3,23,17.3,23.1,17.3z M19.5,21.9c0,0.1,0,0.1,0,0.2c0,4.4,0,8.7,0,13.1c0,0.3,0.1,0.4,0.4,0.4
		c5.8,0,11.6,0,17.5,0c0.3,0,0.4-0.1,0.4-0.4c0-4.4,0-8.7,0-13.1c0-0.1,0-0.1,0-0.2C31.6,21.9,25.5,21.9,19.5,21.9z M23.1,18.3
		c-0.4,0.3-0.6,0.8-0.5,1.2c0.2,0.5,0.6,0.8,1.1,0.7c0.5-0.1,0.9-0.4,1-1c0-0.4-0.2-0.9-0.5-1c0,0.3,0,0.5,0,0.8
		c0,0.3-0.2,0.5-0.5,0.5c0,0-0.1,0-0.1,0c-0.4,0-0.5-0.2-0.5-0.5C23.1,18.9,23.1,18.6,23.1,18.3z M34,18.4C34,18.4,34,18.4,34,18.4
		c0,0.3,0,0.6,0,0.8c0,0.3-0.2,0.5-0.5,0.5c-0.1,0-0.1,0-0.2,0c-0.3,0-0.5-0.2-0.5-0.5c0-0.2,0-0.4,0-0.7c0-0.1,0-0.1,0-0.2
		c-0.4,0.2-0.6,0.7-0.5,1.2c0.1,0.5,0.6,0.8,1,0.8c0.5,0,0.9-0.3,1-0.8C34.6,19.1,34.4,18.6,34,18.4z"/>
	<path class="st0" d="M30.7,31.5c0.3,0,0.6,0,0.9,0c0.3,0,0.5,0.2,0.5,0.5c0,0.6,0,1.2,0,1.9c0,0.3-0.2,0.5-0.5,0.5
		c-0.6,0-1.2,0-1.8,0c-0.4,0-0.6-0.2-0.6-0.6c0-0.6,0-1.2,0-1.8c0-0.4,0.2-0.6,0.6-0.6C30.1,31.5,30.4,31.5,30.7,31.5z"/>
	<path class="st0" d="M20.7,32.9c0-0.3,0-0.6,0-0.9c0-0.3,0.2-0.5,0.5-0.5c0.6,0,1.3,0,1.9,0c0.3,0,0.5,0.2,0.5,0.5
		c0,0.6,0,1.3,0,1.9c0,0.3-0.2,0.5-0.5,0.5c-0.6,0-1.3,0-1.9,0c-0.3,0-0.5-0.2-0.5-0.5C20.7,33.6,20.7,33.3,20.7,32.9z"/>
	<path class="st0" d="M30.7,23.2c0.3,0,0.6,0,0.9,0c0.3,0,0.5,0.2,0.5,0.5c0,0.6,0,1.3,0,1.9c0,0.3-0.2,0.5-0.5,0.5
		c-0.6,0-1.3,0-1.9,0c-0.3,0-0.5-0.2-0.5-0.5c0-0.6,0-1.3,0-1.9c0-0.3,0.2-0.5,0.5-0.5C30,23.2,30.4,23.2,30.7,23.2z"/>
	<path class="st0" d="M34.9,26.1c-0.3,0-0.6,0-0.9,0c-0.3,0-0.5-0.2-0.5-0.5c0-0.6,0-1.3,0-1.9c0-0.3,0.2-0.5,0.5-0.5
		c0.6,0,1.3,0,1.9,0c0.3,0,0.5,0.2,0.5,0.5c0,0.6,0,1.3,0,1.9c0,0.3-0.2,0.5-0.5,0.5C35.5,26.1,35.2,26.1,34.9,26.1z"/>
	<path class="st0" d="M30.7,27.3c0.3,0,0.6,0,0.9,0c0.3,0,0.5,0.2,0.5,0.5c0,0.6,0,1.3,0,1.9c0,0.3-0.2,0.5-0.5,0.5
		c-0.6,0-1.3,0-1.9,0c-0.3,0-0.5-0.2-0.5-0.5c0-0.6,0-1.3,0-1.9c0-0.3,0.2-0.5,0.5-0.5C30,27.3,30.4,27.3,30.7,27.3z"/>
	<path class="st0" d="M33.4,28.8c0-0.3,0-0.6,0-0.9c0-0.3,0.2-0.5,0.5-0.5c0.6,0,1.3,0,1.9,0c0.3,0,0.5,0.2,0.5,0.5
		c0,0.6,0,1.3,0,1.9c0,0.3-0.2,0.5-0.5,0.5c-0.7,0-1.3,0-2,0c-0.3,0-0.5-0.2-0.5-0.5C33.4,29.4,33.4,29.1,33.4,28.8z"/>
	<path class="st0" d="M27.9,32.9c0,0.3,0,0.6,0,1c0,0.3-0.2,0.5-0.5,0.5c-0.6,0-1.3,0-1.9,0c-0.3,0-0.5-0.2-0.5-0.5
		c0-0.6,0-1.3,0-1.9c0-0.3,0.2-0.5,0.5-0.5c0.6,0,1.3,0,2,0c0.3,0,0.5,0.2,0.5,0.5C27.9,32.3,27.9,32.6,27.9,32.9z"/>
	<path class="st0" d="M26.4,23.2c0.3,0,0.6,0,0.9,0c0.3,0,0.5,0.2,0.5,0.5c0,0.6,0,1.3,0,1.9c0,0.3-0.2,0.5-0.5,0.5
		c-0.6,0-1.3,0-1.9,0c-0.3,0-0.5-0.2-0.5-0.5c0-0.7,0-1.3,0-2c0-0.3,0.2-0.5,0.5-0.5C25.8,23.2,26.1,23.2,26.4,23.2z"/>
	<path class="st0" d="M23.6,28.8c0,0.3,0,0.6,0,0.9c0,0.3-0.2,0.5-0.5,0.5c-0.6,0-1.3,0-1.9,0c-0.3,0-0.5-0.2-0.5-0.5
		c0-0.6,0-1.2,0-1.9c0-0.4,0.2-0.5,0.5-0.5c0.6,0,1.2,0,1.8,0c0.4,0,0.5,0.2,0.5,0.5c0,0.2,0,0.3,0,0.5
		C23.6,28.5,23.6,28.7,23.6,28.8z"/>
	<path class="st0" d="M27.9,28.8c0,0.3,0,0.6,0,0.9c0,0.3-0.2,0.5-0.5,0.5c-0.6,0-1.3,0-1.9,0c-0.3,0-0.5-0.2-0.5-0.5
		c0-0.6,0-1.3,0-1.9c0-0.3,0.2-0.5,0.5-0.5c0.6,0,1.3,0,1.9,0c0.3,0,0.5,0.2,0.5,0.5C27.9,28.2,27.9,28.5,27.9,28.8z"/>
	<path class="st0" d="M23.6,24.7c0,0.3,0,0.6,0,0.9c0,0.3-0.2,0.5-0.5,0.5c-0.6,0-1.3,0-1.9,0c-0.3,0-0.5-0.2-0.5-0.5
		c0-0.6,0-1.3,0-1.9c0-0.3,0.2-0.5,0.5-0.5c0.7,0,1.3,0,2,0c0.3,0,0.5,0.2,0.5,0.5C23.6,24,23.6,24.3,23.6,24.7z"/>
</g>
</svg>
