<?xml version="1.0" encoding="utf-8"?>
<!-- Generator: Adobe Illustrator 25.0.0, SVG Export Plug-In . SVG Version: 6.00 Build 0)  -->
<svg version="1.1" id="Capa_1" xmlns="http://www.w3.org/2000/svg" xmlns:xlink="http://www.w3.org/1999/xlink" x="0px" y="0px"
	 viewBox="0 0 57.1 51.8" style="enable-background:new 0 0 57.1 51.8;" xml:space="preserve">
<style type="text/css">
	.st0{fill:#025B93;}
</style>
<g>
	<path class="st0" d="M25.5,27.1c0-3.4,2.1-6.1,5.1-7c3.6-1,7.4,1,8.6,4.5c0.5,1.5,0.5,3,0,4.5c-1.1,3-4,4.9-7.1,4.7
		c-2.4-0.2-4.2-1.3-5.5-3.2C25.9,29.4,25.5,28.2,25.5,27.1z M38.1,26.8c0-3.1-2.5-5.5-5.6-5.5c-3.1,0-5.6,2.5-5.6,5.6
		c0,3.1,2.5,5.5,5.6,5.5C35.7,32.4,38.1,29.8,38.1,26.8z"/>
	<path class="st0" d="M28.1,32.8c-2.7,1.6-6.5,1.3-9-1.5c-2.3-2.7-2.2-6.7,0.3-9.4c2.5-2.6,6.2-2.6,8.6-1.2
		c-0.1,0.1-0.3,0.2-0.4,0.3c-0.2,0.2-0.4,0.4-0.6,0.6c-0.1,0.1-0.1,0.1-0.3,0.1c-2-0.8-3.8-0.7-5.6,0.6c-2.1,1.5-2.9,4.3-1.9,6.6
		c1.2,2.9,4.6,4.2,7.4,2.9c0.1-0.1,0.2,0,0.3,0.1c0.3,0.3,0.6,0.5,0.9,0.8C28.1,32.8,28.1,32.8,28.1,32.8z"/>
	<path class="st0" d="M21.1,17.6c0.6-0.2,1.2-0.3,1.9-0.5c0,0.2,0,0.3,0,0.5c0,0.6,0,1.2,0.1,1.8c0,0.1,0,0.2-0.1,0.2
		c-0.2,0-0.4,0.1-0.6,0.2c0,0-0.1,0-0.1,0C21.8,19,21.4,18.4,21.1,17.6C21.1,17.7,21.1,17.7,21.1,17.6z"/>
	<path class="st0" d="M23.5,19.4c0,0,0-0.1,0-0.1c0-0.7-0.1-1.4-0.1-2.2c0-0.1,0-0.2,0.1-0.2c0.4-0.1,0.9-0.2,1.4-0.4
		c0,0.1,0,0.1-0.1,0.2c-0.3,0.8-0.7,1.6-1,2.4C23.7,19.3,23.7,19.4,23.5,19.4z"/>
	<path class="st0" d="M19.1,18.1c0.5-0.1,1-0.3,1.5-0.4c0.4,0.7,0.7,1.4,1.1,2.1c-0.1,0.1-0.2,0.1-0.3,0c-0.7-0.5-1.4-1.1-2.1-1.6
		C19.2,18.2,19.2,18.2,19.1,18.1z"/>
	<path class="st0" d="M22.7,16.7c-0.6,0.2-1.2,0.3-1.7,0.5c0.1-0.3,0.1-0.6,0.2-0.8c0,0,0.1-0.1,0.1-0.1c0.3-0.1,0.5-0.1,0.8-0.2
		c0,0,0.1,0,0.1,0C22.4,16.3,22.5,16.5,22.7,16.7z"/>
	<path class="st0" d="M19.1,17.7c0.3-0.4,0.5-0.7,0.7-1c0,0,0.1,0,0.1-0.1c0.2-0.1,0.5-0.1,0.7-0.2c0,0.1,0,0.2,0,0.3
		c0,0.2-0.1,0.4-0.1,0.6c0,0,0,0.1-0.1,0.1c-0.4,0.1-0.8,0.2-1.2,0.3C19.2,17.6,19.2,17.6,19.1,17.7z"/>
	<path class="st0" d="M24.6,16.2c-0.3,0.1-0.6,0.1-0.9,0.3c-0.3,0.1-0.5,0-0.7-0.2c-0.1-0.1-0.2-0.2-0.3-0.4
		c0.3-0.1,0.5-0.1,0.8-0.2c0,0,0.1,0,0.1,0C23.8,15.9,24.2,16,24.6,16.2C24.6,16.2,24.6,16.2,24.6,16.2z"/>
	<path class="st0" d="M30,31.3c-0.4-0.2-0.8-0.5-1.1-0.8c0,0,0-0.1,0-0.1c0.2-0.3,0.5-0.6,0.6-1c1-2.1,0.8-4.1-0.6-5.9
		c-0.1-0.1-0.1-0.2,0-0.3c0.3-0.2,0.6-0.5,0.9-0.7c0.1-0.1,0.1-0.1,0.2,0c1.5,2,1.9,4.1,1.2,6.5c-0.2,0.8-0.6,1.5-1.1,2.1
		C30.1,31.2,30,31.2,30,31.3z"/>
</g>
</svg>
