<?xml version="1.0" encoding="utf-8"?>
<!-- Generator: Adobe Illustrator 25.0.0, SVG Export Plug-In . SVG Version: 6.00 Build 0)  -->
<svg version="1.1" id="Capa_1" xmlns="http://www.w3.org/2000/svg" xmlns:xlink="http://www.w3.org/1999/xlink" x="0px" y="0px"
	 viewBox="0 0 57.1 51.8" style="enable-background:new 0 0 57.1 51.8;" xml:space="preserve">
<style type="text/css">
	.st0{fill:#025B93;}
</style>
<g>
	<path class="st0" d="M30.5,36.2c0-2.1,0-4.1,0-6.1c-1.3,0-2.6,0-3.9,0c0,2,0,4,0,6.1c-2.2,0-4.3,0-6.4,0c-0.6,0-1-0.5-1-1.1
		c0-2.5,0-4.9,0-7.4c0-0.2,0.1-0.5,0.3-0.6c3-2.5,5.9-4.9,8.9-7.4c0.2,0.1,0.3,0.2,0.5,0.3c2.8,2.3,5.6,4.6,8.4,6.9
		c0.2,0.2,0.4,0.6,0.4,1c0,2.3,0,4.6,0,6.9c0,1-0.4,1.4-1.3,1.4C34.5,36.2,32.6,36.2,30.5,36.2z"/>
	<path class="st0" d="M28.5,18.5c-3.5,2.9-7,5.8-10.4,8.7c-0.3,0.3-1,0.6-1.1,0.5c-0.5-0.4-0.9-1.1-1.3-1.7
		c-0.1-0.1,0.2-0.4,0.3-0.6c3.8-3.2,7.5-6.3,11.3-9.4c0.8-0.7,1.8-0.6,2.7,0.1c1.2,1,2.3,1.9,3.7,3c0-1,0-1.8,0-2.6c0-0.8,0.1-1,1-1
		c0.8,0,1.6,0,2.5,0c0.6,0,0.8,0.3,0.8,0.8c0,1.9,0,3.7,0,5.6c0,0.5,0.1,0.8,0.5,1.1c0.9,0.7,1.8,1.5,2.7,2.3
		c0.5,0.4,0.5,0.7,0.1,1.2c-1.2,1.5-1.2,1.5-2.6,0.3c-3.2-2.6-6.4-5.3-9.5-7.9C28.9,18.8,28.8,18.7,28.5,18.5z"/>
</g>
</svg>
