<?xml version="1.0" encoding="utf-8"?>
<!-- Generator: Adobe Illustrator 25.0.0, SVG Export Plug-In . SVG Version: 6.00 Build 0)  -->
<svg version="1.1" id="Capa_1" xmlns="http://www.w3.org/2000/svg" xmlns:xlink="http://www.w3.org/1999/xlink" x="0px" y="0px"
	 viewBox="0 0 57.1 51.8" style="enable-background:new 0 0 57.1 51.8;" xml:space="preserve">
<style type="text/css">
	.st0{fill:#025B93;}
</style>
<g>
	<g>
		<path class="st0" d="M28.5,35.7c-2.3,0-4.7-0.2-6.9-1c-0.8-0.3-1.5-0.6-2.2-1.1c-0.6-0.5-0.9-1.1-0.9-1.9c0.2-3.2,2.6-6,5.8-6.6
			c0.1,0,0.2,0,0.3,0.1c2.1,1.6,5.7,1.6,7.8,0c0.1-0.1,0.2-0.1,0.3-0.1c3.3,0.6,5.6,3.4,5.8,6.8c0,0.5-0.2,1-0.5,1.4
			c-0.7,0.7-1.5,1-2.4,1.3c-1.7,0.6-3.4,0.9-5.2,1C29.8,35.7,29.2,35.6,28.5,35.7C28.5,35.7,28.5,35.7,28.5,35.7z"/>
		<path class="st0" d="M28.6,13.7c3.5,0,6.1,3.4,5.1,6.8c-0.4,1.6-1.3,2.9-2.6,3.8c-1.6,1.1-3.5,1.1-5.1,0c-1.8-1.3-2.8-3.1-2.8-5.3
			c0-2.6,2-4.9,4.7-5.2C28.1,13.7,28.3,13.7,28.6,13.7z"/>
	</g>
</g>
</svg>
