<?xml version="1.0" encoding="utf-8"?>
<!-- Generator: Adobe Illustrator 25.0.0, SVG Export Plug-In . SVG Version: 6.00 Build 0)  -->
<svg version="1.1" id="Capa_1" xmlns="http://www.w3.org/2000/svg" xmlns:xlink="http://www.w3.org/1999/xlink" x="0px" y="0px"
	 viewBox="0 0 1116 1080" style="enable-background:new 0 0 1116 1080;" xml:space="preserve">
<style type="text/css">
	.st0{fill:#10A0DC;}
	.st1{fill:none;stroke:#F2CDBF;stroke-linecap:round;stroke-miterlimit:10;}
	.st2{fill:#3AD1F0;}
	.st3{fill:#025B93;}
	.st4{fill:#FFFFFF;}
	.st5{fill:#F0D3D8;}
	.st6{fill:#A7C2D9;}
	.st7{opacity:0.6;fill:#10A0DC;}
	.st8{fill:#00A0E4;}
	.st9{fill:#FADED2;}
	.st10{fill:#326894;}
	.st11{fill:#4D8AB3;}
	.st12{fill:#994403;}
	.st13{fill:#852E03;}
	.st14{fill:#732D02;}
	.st15{fill:#EBF5FF;}
	.st16{fill:#FBBD9A;}
	.st17{fill:#F0997F;}
	.st18{fill:#D43226;}
	.st19{fill:#002A42;}
	.st20{fill:#EB4A2A;}
	.st21{fill:#06384F;}
	.st22{fill:none;stroke:#27788F;stroke-linecap:round;stroke-miterlimit:10;}
	.st23{fill:#8C4206;}
	.st24{fill:#A66317;}
	.st25{fill:#2F344D;}
	.st26{fill:none;stroke:#8C4206;stroke-width:2;stroke-linecap:round;stroke-miterlimit:10;}
	.st27{fill:none;stroke:#D45E4E;stroke-width:2;stroke-linecap:round;stroke-miterlimit:10;}
	.st28{fill:#DE3B26;}
	.st29{fill:#163649;}
	.st30{fill:#B82621;}
	.st31{fill:#FBBD9A;stroke:#D45E4E;stroke-linecap:round;stroke-miterlimit:10;}
	.st32{fill:none;stroke:#B82621;stroke-linecap:round;stroke-miterlimit:10;}
	.st33{fill:#FDBD9B;}
	.st34{fill:none;stroke:#B0514A;stroke-width:0.5;stroke-linecap:round;stroke-miterlimit:10;}
	.st35{fill:#316382;}
	.st36{fill:#407C91;}
	.st37{fill:#502202;}
	.st38{fill:#855321;}
	.st39{fill:#112C45;}
	.st40{fill:#163A4A;}
	.st41{fill:#4B8394;}
	.st42{fill:#6B4019;}
	.st43{fill:none;stroke:#502202;stroke-width:2;stroke-linecap:round;stroke-miterlimit:10;}
	.st44{fill:none;stroke:#B0514A;stroke-width:2;stroke-linecap:round;stroke-miterlimit:10;}
	.st45{fill:#2D3A5E;}
	.st46{fill:#69C5C9;}
	.st47{fill:none;stroke:#3E7C8A;stroke-width:0.5;stroke-linecap:round;stroke-miterlimit:10;}
	.st48{fill:#9BEBE7;}
	.st49{fill:#DAE8F7;}
	.st50{fill:none;stroke:#B8C8E3;stroke-linecap:round;stroke-miterlimit:10;}
	.st51{fill:none;stroke:#163649;stroke-miterlimit:10;}
	.st52{fill:none;stroke:#163649;stroke-linecap:round;stroke-miterlimit:10;}
	.st53{fill:#381B07;}
	.st54{fill:#DB8E62;}
	.st55{fill:#1D9FB3;}
	.st56{fill:#B23F37;}
	.st57{fill:#678CA8;}
	.st58{fill:#136D94;}
	.st59{fill:#CF6E4A;}
	.st60{fill:#25B2C2;}
	.st61{fill:#27B8C1;}
	.st62{fill:none;stroke:#51DBDB;stroke-linecap:round;stroke-miterlimit:10;}
	.st63{fill:#D68A5A;}
	.st64{fill:#24151A;}
	.st65{fill:none;stroke:#A8473E;stroke-width:0.5;stroke-linecap:round;stroke-miterlimit:10;}
	.st66{fill:#32C9CF;}
	.st67{fill:#412408;}
	.st68{fill:#664216;}
	.st69{fill:#411F00;}
	.st70{fill:none;stroke:#412408;stroke-width:2;stroke-linecap:round;stroke-miterlimit:10;}
	.st71{fill:none;stroke:#A8473E;stroke-width:2;stroke-linecap:round;stroke-miterlimit:10;}
	.st72{fill:none;stroke:#FFFFFF;stroke-linecap:round;stroke-miterlimit:10;}
	.st73{fill:#F2E4E5;}
</style>
<g>
	<g>
		<g>
			<path class="st0" d="M843.8,911.5c18.2-315.2,155.3-354,176.8-327.5C1065.7,639.6,909.1,813.5,843.8,911.5z"/>
			<g>
				<path class="st1" d="M1005.7,596.6C928.9,686,874.2,794.2,847.5,909"/>
				<path class="st1" d="M965.2,599.3c4.5,13.2,6.9,27.1,7.2,41c14.7-3.2,29.6-4.9,44.6-5.1"/>
				<path class="st1" d="M912.4,653.9c8.6,15,15,31.2,18.8,48.1c17.4-3.7,35.3-5.5,53.1-5.4"/>
				<path class="st1" d="M876.1,733.1c7.2,11.3,13.4,23.2,18.5,35.5c16.9-6.8,35.1-10.1,53.3-9.6"/>
				<path class="st1" d="M910.4,809.1c-11.1-0.8-22.2,0-33.1,2.5c-2.8-8.9-6.8-17.5-11.9-25.4"/>
			</g>
		</g>
		<g>
			<path class="st0" d="M843.8,911.5c100.8-160.4,229.4-213.3,235.2-155.3C1087.1,836.5,913.4,888.9,843.8,911.5z"/>
			<g>
				<path class="st1" d="M1063,761.9c-79.3,37.9-152.7,88.1-216.7,148.4"/>
				<path class="st1" d="M1034.5,745.1c0.3,11.2-0.7,22.4-3.2,33.3c11,1.1,21.7,5.4,30.3,12.4"/>
				<path class="st1" d="M980.8,770c2.1,11.8,2.9,23.8,2.4,35.7c14.9,1.4,29.4,6.5,41.9,14.8"/>
				<path class="st1" d="M930,806.9c4.1,9.2,6,19.4,5.6,29.5c13.8,1.1,27.3,5.5,39.1,12.6"/>
			</g>
		</g>
	</g>
	<rect x="667.1" y="659.8" class="st2" width="223.4" height="23.4"/>
	<g>
		<polygon class="st0" points="883.9,683.2 883.9,911.5 864.1,911.5 864.1,899 693.4,899 693.4,911.5 673.6,911.5 673.6,683.2 		"/>
		<rect x="673.6" y="683.2" class="st3" width="210.2" height="4.7"/>
	</g>
	<g>
		<g>
			<rect x="694.7" y="703.7" class="st3" width="167.5" height="50.8"/>
			<rect x="692.9" y="699" class="st2" width="171" height="50.8"/>
		</g>
	</g>
	<g>
		<g>
			<rect x="694.7" y="767.7" class="st3" width="167.5" height="50.8"/>
			<rect x="692.9" y="763" class="st2" width="171" height="50.8"/>
		</g>
	</g>
	<g>
		<rect x="694.7" y="831.7" class="st3" width="167.5" height="50.8"/>
		<rect x="692.9" y="827.1" class="st2" width="171" height="50.8"/>
	</g>
	<g>
		<g>
			<g>
				<g>
					<path class="st4" d="M721.9,648.4v-35.5h9.8v35.5c0,2.4-1.9,4.3-4.3,4.3h-1.2C723.8,652.7,721.9,650.7,721.9,648.4z"/>
					<path class="st4" d="M720.1,611.7L720.1,611.7c0-0.6,0.5-1.1,1.1-1.1h11c0.6,0,1.1,0.5,1.1,1.1l0,0c0,0.6-0.5,1.1-1.1,1.1h-11
						C720.6,612.8,720.1,612.3,720.1,611.7z"/>
				</g>
				<path class="st5" d="M723.4,647.8v-23.2h6.6v23.2c0,1.8-1.5,3.3-3.3,3.3l0,0C724.9,651.1,723.4,649.6,723.4,647.8z"/>
			</g>
			<g>
				<g>
					<path class="st4" d="M741.4,648.4v-35.5h9.8v35.5c0,2.4-1.9,4.3-4.3,4.3h-1.2C743.3,652.7,741.4,650.7,741.4,648.4z"/>
					<path class="st4" d="M739.6,611.7L739.6,611.7c0-0.6,0.5-1.1,1.1-1.1h11c0.6,0,1.1,0.5,1.1,1.1l0,0c0,0.6-0.5,1.1-1.1,1.1h-11
						C740.1,612.8,739.6,612.3,739.6,611.7z"/>
				</g>
				<path class="st5" d="M742.9,647.8v-23.2h6.6v23.2c0,1.8-1.5,3.3-3.3,3.3l0,0C744.4,651.1,742.9,649.6,742.9,647.8z"/>
			</g>
			<g>
				<g>
					<path class="st4" d="M762.1,648.4v-35.5h9.8v35.5c0,2.4-1.9,4.3-4.3,4.3h-1.2C764,652.7,762.1,650.7,762.1,648.4z"/>
					<path class="st4" d="M760.3,611.7L760.3,611.7c0-0.6,0.5-1.1,1.1-1.1h11c0.6,0,1.1,0.5,1.1,1.1l0,0c0,0.6-0.5,1.1-1.1,1.1h-11
						C760.8,612.8,760.3,612.3,760.3,611.7z"/>
				</g>
				<path class="st5" d="M763.6,647.8v-23.2h6.6v23.2c0,1.8-1.5,3.3-3.3,3.3l0,0C765.1,651.1,763.6,649.6,763.6,647.8z"/>
			</g>
			<g>
				<g>
					<path class="st4" d="M783.2,648.4v-35.5h9.8v35.5c0,2.4-1.9,4.3-4.3,4.3h-1.2C785.1,652.7,783.2,650.7,783.2,648.4z"/>
					<path class="st4" d="M781.4,611.7L781.4,611.7c0-0.6,0.5-1.1,1.1-1.1h11c0.6,0,1.1,0.5,1.1,1.1l0,0c0,0.6-0.5,1.1-1.1,1.1h-11
						C781.9,612.8,781.4,612.3,781.4,611.7z"/>
				</g>
				<path class="st5" d="M784.7,647.8v-23.2h6.6v23.2c0,1.8-1.5,3.3-3.3,3.3l0,0C786.2,651.1,784.7,649.6,784.7,647.8z"/>
			</g>
			<g>
				<g>
					<path class="st4" d="M805.8,648.4v-35.5h9.8v35.5c0,2.4-1.9,4.3-4.3,4.3h-1.2C807.7,652.7,805.8,650.7,805.8,648.4z"/>
					<path class="st4" d="M804.1,611.7L804.1,611.7c0-0.6,0.5-1.1,1.1-1.1h11c0.6,0,1.1,0.5,1.1,1.1l0,0c0,0.6-0.5,1.1-1.1,1.1h-11
						C804.6,612.8,804.1,612.3,804.1,611.7z"/>
				</g>
				<path class="st5" d="M807.4,647.8v-23.2h6.6v23.2c0,1.8-1.5,3.3-3.3,3.3l0,0C808.9,651.1,807.4,649.6,807.4,647.8z"/>
			</g>
		</g>
		<g>
			<rect x="712.2" y="614.9" class="st6" width="120.3" height="3.1"/>
			<rect x="705.9" y="651.9" class="st3" width="134.3" height="7.8"/>
			<g>
				<rect x="711.2" y="610.6" class="st3" width="3.4" height="45.3"/>
				<rect x="830.4" y="610.6" class="st3" width="3.4" height="45.3"/>
			</g>
		</g>
	</g>
	<g>
		<g>
			<g>
				<path class="st0" d="M220.6,771.5c28.3-35.5,42.1-82.1,37.7-127.2c-4.4-45.1-26.9-88.2-62.9-118.1c0.5,33.4-0.9,66.8-4.1,100.1
					c-3.1,31.6-7.9,64-0.3,94.8C195.5,739.5,204.4,756.8,220.6,771.5z"/>
				<g>
					<path class="st1" d="M218,812c0-111.7,29.6-147.8-13.8-265.7"/>
					<path class="st1" d="M224.9,565.7c-3,6.5-6.1,13-9.1,19.4c-5.4-2.7-11.3-4.3-17.3-4.7"/>
					<path class="st1" d="M194.6,632.9c11.4,0.5,22.7,3.5,32.7,8.9c6.7-8.2,14.6-15.4,23.4-21.3"/>
					<path class="st1" d="M193.3,687.1c11.4-0.9,23.2,2.1,32.7,8.4c9.3-9.8,20-18.4,31.7-25.3"/>
					<path class="st1" d="M198.5,731.7c8.6,0.9,16.8,5,22.6,11.3c6.2-8.5,13.8-15.9,22.4-22"/>
				</g>
			</g>
			<g>
				<path class="st7" d="M241,768.1c0,0-24.1-52.6,6.8-110.2c17-31.8,53.8-70.5,99.7-102.9c0,0-21.8,118.9-49,168.6
					C277.6,761.8,241,768.1,241,768.1z"/>
				<g>
					<path class="st1" d="M330.9,577.9c-47.4,76.1-81.1,159.2-107.9,244.7"/>
					<path class="st1" d="M300.7,596.8c2.8,6.6,5.1,13.5,6.8,20.5c8-1.5,16.2-2.5,24.4-3.1"/>
					<path class="st1" d="M263.1,644.5c6.7,9.4,12,19.7,15.9,30.6c12.5-6,26-10.1,39.9-12.1"/>
					<path class="st1" d="M240.9,684.9c8.1,10.5,14.3,22.4,18.1,35.1c14.1-6,28.9-10.4,44-13.3"/>
					<path class="st1" d="M234.9,733.6c4.7,5.2,9.1,10.7,13.2,16.4c10.4-4.3,21.3-7.3,32.4-9"/>
				</g>
			</g>
			<g>
				<path class="st7" d="M195.7,778.7c0,0,20.9-29.6,5.4-80.9C180,627.6,92,577.8,92,577.8s23.6,96.1,42,144
					C152.6,770.2,195.7,778.7,195.7,778.7z"/>
				<g>
					<path class="st1" d="M201.1,804.5c0,0-12-96.7-97.4-213.3"/>
					<path class="st1" d="M134.6,611.6c-2.5,5.8-4.2,12-5,18.2c-6-1.7-12.2-2.5-18.4-2.5"/>
					<path class="st1" d="M123.3,676.7c11.7-1.8,23.7-1,35,2.5c2.2-10.5,7.1-20.3,14.1-28.4"/>
					<path class="st1" d="M197.9,696.9c-8,8.7-14.2,19-18.2,30.1c-11-4.8-23.8-5.6-35.4-2.2"/>
					<path class="st1" d="M169.2,763.2c7.6-1.4,15.4-1.5,23.1-0.3c2.7-6.1,6.5-11.7,11.2-16.4"/>
				</g>
			</g>
		</g>
		<g>
			<polygon class="st8" points="273.2,786.9 269.9,805.4 266.3,825.9 264.3,836.6 260.7,857.1 251.1,911.5 180.8,911.5 171,857.1 
				167.4,836.6 165.4,825.9 161.7,805.4 158.4,786.9 			"/>
			<polygon class="st9" points="269.9,805.4 266.3,825.9 165.4,825.9 161.7,805.4 			"/>
			<polygon class="st9" points="264.3,836.6 260.7,857.1 171,857.1 167.4,836.6 			"/>
		</g>
	</g>
	<g>
		<g>
			<g>
				<g>
					<g>
						<rect x="288.7" y="883" class="st10" width="115.1" height="10.7"/>
						<g>
							<path class="st11" d="M308.4,784c0,0.3,0,0.5-0.1,0.8l-1.8,14.7l-15.9,131.4c-0.4,3.5-3.5,6-7,5.6c-3.2-0.4-5.5-3.2-5.5-6.4
								c0-0.3,0-0.5,0.1-0.8l15.7-129.8l2-16.3c0.4-3.5,3.5-6,7-5.6C306.1,778,308.4,780.8,308.4,784z"/>
							<path class="st10" d="M308.4,784c0,0.3,0,0.5-0.1,0.8l-1.8,14.7h-12.6l2-16.3c0.4-3.5,3.5-6,7-5.6
								C306.1,778,308.4,780.8,308.4,784z"/>
						</g>
						<g>
							<path class="st11" d="M354,782.9v147.2c0,3.6-2.8,6.4-6.2,6.4c-1.7,0-3.3-0.7-4.4-1.9c-1.1-1.2-1.8-2.7-1.8-4.5V782.8
								c0-3.6,2.8-6.4,6.2-6.4c1.7,0,3.3,0.7,4.4,1.9C353.3,779.5,354,781.1,354,782.9z"/>
							<path class="st10" d="M352.2,778.3c1.1,1.2,1.8,2.8,1.8,4.5v16.7h-12.5v-16.7c0-3.6,2.8-6.4,6.2-6.4
								C349.5,776.4,351.1,777.2,352.2,778.3z"/>
						</g>
						<g>
							<path class="st11" d="M416.9,930.1c0,3.2-2.3,6-5.5,6.4c-3.4,0.4-6.6-2.1-7-5.6l-15.9-131.4l-1.8-14.7c0-0.3-0.1-0.5-0.1-0.8
								c0-3.2,2.3-5.9,5.5-6.4c3.4-0.4,6.5,2.1,7,5.6l2,16.3l15.7,129.8C416.9,929.6,416.9,929.8,416.9,930.1z"/>
							<path class="st10" d="M401.2,799.5h-12.6l-1.8-14.7c0-0.3-0.1-0.5-0.1-0.8c0-3.2,2.3-5.9,5.5-6.4c3.4-0.4,6.5,2.1,7,5.6
								L401.2,799.5z"/>
						</g>
					</g>
					<g>
						<path class="st12" d="M428.3,766.2v4.2c0,7.3-5.9,13.2-13.2,13.2H297c-7.3,0-13.2-5.9-13.2-13.2v-4.2
							c0-7.3,5.9-13.2,13.2-13.2h118.2C422.4,753,428.3,759,428.3,766.2z"/>
						<path class="st13" d="M428.3,766.2v4.2c0,7.3-5.9,13.2-13.2,13.2H307.9c-7.3,0-13.2-5.9-13.2-13.2v-4.2
							c0-7.3,5.9-13.2,13.2-13.2h107.3C422.4,753,428.3,759,428.3,766.2z"/>
					</g>
				</g>
				<g>
					<path class="st14" d="M304.9,503.2c-1.5,3-3,6.1-4.3,9c-0.9,5.2-0.4,10.6,0,15.9s0.6,10.7-0.9,15.8c-1.5,5.1-4.9,9.9-10,11.9
						c-3.3,1.3-7.3,1.4-9.8,3.8c-2.9,2.7-2.7,7.3-1.6,11.1c0.9,3.2,2.3,6.3,4.8,8.5c2.5,2.2,6.6,3.6,9.3,2c2.7-1.6,6.3-0.4,8.3,2
						s2.9,5.5,4.8,8c2.7,3.5,7.4,5.3,11.9,5.4c4.5,0.1,9.3-0.5,12.3-2.4c6.5-4,14.5-6.7,21.1-2.9c3.5,2,6.2,5.2,10,6.6
						c3.2,1.2,6.9,1,10-0.6c3-1.6,4.2-5,6.1-7.6c3.5-4.8,11.9-0.9,17.7-2.5c6.2-1.7,10.4-8.5,9-14.6s-8.2-8.3-14.2-9.2
						c-4.1-0.6-5.8-5.9-6.8-9.8c-1-4-0.8-8.1-0.6-12.1c0.4-8.3,4.1-27.5,1.7-30.1c-1.2-1.4-5.9-4.8-7.6-5.6
						c-7.8-3.6-15.7-7.2-23.5-10.7c-7.1-3.3-14.6-6.6-22.5-6.4C322,488.6,310.6,491.6,304.9,503.2z"/>
					<g>
						<path class="st15" d="M332.1,577.6c0,0-34.8,5.5-38.5,17.8c-3.7,12.3,17.4,98.6,17.4,98.6l78.2-4.8c0,0,5.7-99.4-6.7-105.6
							S332.1,577.6,332.1,577.6z"/>
						<g>
							<path class="st16" d="M362.5,581c0,0-5.1,17.3-14.3,21.1c-9.2,3.8-29.4-19.3-29.4-19.3c4.1-2.6,5.6-8.8,6.1-14.4
								c0.5-5.7-0.1-10.9-0.1-10.9l28,5.4c-0.7,8.7,1.8,13.2,4.5,15.6C359.8,580.7,362.5,581,362.5,581z"/>
							<path class="st17" d="M357.3,578.4c-13.3,1.7-25.3-4.9-32.4-10.1c0.5-5.7-0.1-10.9-0.1-10.9l28,5.4
								C352.1,571.5,354.6,576,357.3,578.4z"/>
						</g>
					</g>
					<g>
						<g>
							<g>
								<path class="st18" d="M438.2,905.2c-3,5-55.3-27.2-55.3-32.8c0-3.6,6.8-8.9,11.6-12.1c2.5-1.7,4.5-2.9,4.5-2.9l12.2-5.6
									l5.5,3c8,13.8,15.7,28.2,19.5,38.2C438.4,899,439.3,903.4,438.2,905.2z"/>
								<path class="st17" d="M436.1,893c-15,0.6-34.8-23.6-41.7-32.7c2.5-1.7,4.5-2.9,4.5-2.9l12.2-5.6l5.5,3
									C424.7,868.6,432.3,883,436.1,893z"/>
							</g>
							<path class="st19" d="M384.3,696.5c0,0,95.3,12.1,98.5,36.4c3.2,24.4-59.8,132-59.8,132l-22.7-5.9l29.6-96.2l-75.8-32.2
								l15.1-34.1H384.3L384.3,696.5z"/>
						</g>
						<g>
							<g>
								<path class="st20" d="M415,908c-3,5-55.3-27.2-55.3-32.8c0-3.6,6.8-8.9,11.6-12.1c2.5-1.7,4.5-2.9,4.5-2.9l12.2-5.6l5.5,3
									c8,13.8,15.7,28.2,19.5,38.2C415.2,901.7,416.2,906.2,415,908z"/>
								<path class="st16" d="M413,895.8c-15,0.6-34.8-23.6-41.7-32.7c2.5-1.7,4.5-2.9,4.5-2.9l12.2-5.6l5.5,3
									C401.5,871.4,409.2,885.8,413,895.8z"/>
							</g>
							<g>
								<path class="st21" d="M304,688.4c0,0-33,65.3,25.1,72.3c42.2,5.1,70.2,4.1,71,6.4c1.4,3.8-27.4,94.9-27.4,94.9l28.4,9
									c0,0,58.9-126.5,55.7-137.5c-2.6-9.1-83.9-22.9-83.9-22.9c6.8-3.2,11.9-15.1,11.1-30.3L304,688.4z"/>
								<g>
									<path class="st22" d="M313.2,682.7c0,0-18.9,41.7-3.8,58.6c17.9,19.9,95.9,13.5,101.4,20.5c4.4,5.6-30.2,97.8-30.2,97.8"/>
									<line class="st22" x1="375" y1="858.2" x2="402.5" y2="866.6"/>
								</g>
							</g>
						</g>
					</g>
					<g>
						<path class="st17" d="M375.8,527.4c6.7-0.8,12.6,2.6,13.2,7.5c0.6,4.9-4.4,9.5-11.1,10.3c-6.7,0.8-12.6-2.6-13.2-7.5
							C364.1,532.8,369.1,528.2,375.8,527.4z"/>
						<g>
							<path class="st16" d="M309.4,527c0-23.2,14.7-41.9,34.5-41.9s35.8,18.8,35.8,41.9c0,23.2-10.1,43.1-28.7,43.8
								C332.2,571.6,309.4,550.2,309.4,527z"/>
							<path class="st17" d="M311.3,532.4c9.9-4.6,18.1-12.9,21.8-22.9c5.1,5.8,12.6,9.1,20.2,10.5c7.6,1.4,15.4,1.2,22.7,1
								c2.4,2,4,4.9,4.6,7.9c0.8-6.9,0.1-13.9-2.1-20.5c-19.7-6-39.2-12.4-58.7-19.1C316.9,503.1,314,516.9,311.3,532.4z"/>
						</g>
						<g>
							<path class="st23" d="M329.8,498.9c4.2,8,12.4,13.3,21,16c8.6,2.7,17.8,3.2,26.9,3.5c1.4,5,1.7,10.9,1.7,16.1
								c3.2-7.3,4.8-13.5,5.1-19.6c0.1-1.7,0.1-3.5,0-5.4c-0.5-12.7-5.7-20-12.8-25.4c-7.1-5.4-15.8-7.7-24.7-7.7
								c-8.8,0-14.4,2-17.8,5.5c-1.2,1.2-2.1,2.6-2.7,4.2C325.1,489.3,326.7,493,329.8,498.9z"/>
							<path class="st23" d="M300.4,535.2c-0.3-11.3-1-30.7,3.5-40c3-6.1,8.6-11.1,15.3-12c6.7-0.9,14.1,3.2,15.7,9.8
								c-3,15.2-10.6,29.2-21.4,40.1C309.8,535,304.2,536.2,300.4,535.2z"/>
							<path class="st24" d="M329.3,481.7c13-3.5,27.4-0.4,38.1,7.7c8.3,6.3,14.2,15.4,17.2,25.4c0.1-1.7,0.1-3.5,0-5.4
								c-0.5-12.7-5.7-20-12.8-25.4c-7.1-5.4-15.8-7.7-24.7-7.7C338.2,476.3,332.6,478.3,329.3,481.7z"/>
						</g>
						
							<ellipse transform="matrix(0.248 -0.9688 0.9688 0.248 -290.0744 703.4792)" class="st16" cx="308.1" cy="538.6" rx="8.9" ry="12.2"/>
						<g>
							<ellipse class="st25" cx="345.2" cy="538.6" rx="1.9" ry="3"/>
							<ellipse class="st25" cx="371" cy="538.6" rx="1.9" ry="3"/>
							<path class="st26" d="M365.6,524.8c3.2-1.1,7.7-0.8,10.9,1.3"/>
							<path class="st26" d="M346.8,524.4c-3.5-1.5-9.9-1.2-12.9,2.2"/>
							<path class="st27" d="M358.4,536.8c0.8,3.2,0.2,7.1-0.8,9.5"/>
							<path class="st27" d="M356.2,555.5c-4.1,0.8-11.6-1.5-13.6-5"/>
						</g>
					</g>
					<g>
						<g>
							<path class="st16" d="M371,591.5l13.9-8.4c0,0,11.8,1,19.7,15.6c7.9,14.6,22.8,61.6,27.5,63.7s62,2.8,62,2.8l0.8,16.8
								c0,0-70.2,11.1-78.6,6.5c-8.4-4.6-35.5-58.9-35.5-58.9L371,591.5z"/>
							<path class="st28" d="M370.2,589.6l2.7-9.4c0,0,15.4,0.7,23.3,6.8c7.9,6.2,14.3,22.9,14.3,22.9l-20,32.3L370.2,589.6z"/>
							<path class="st29" d="M393.9,654.5c0,0,21.5-18.6,24.8-23.2c1.6-2.3,13.3,24.7,11.3,28.1c-3.1,5.3-22.7,18-23.8,17.2
								S393.9,654.5,393.9,654.5z"/>
							<path class="st30" d="M388.3,637.5c6.5-10.3,13-20.6,19.4-30.9c0.4-0.6,0.7-1.2,1.3-1.5c1.6-1.1,4,0.2,4.6,2.1
								c0.7,1.8,0.2,3.8-0.3,5.7c2.1-0.3,4,1.7,4.2,3.8c0.3,2.1-0.6,4.1-1.6,6c-6,11.4-16.1,20.5-27.9,25.4
								C387.4,644.6,386.3,640.6,388.3,637.5z"/>
							<g>
								<path class="st16" d="M485.4,667.9c8-5.6,23.6-16.8,24.7-17.4c1.4-0.6,10.8-0.7,15.9,0.9c5.1,1.5,9.9,5.1,11.8,10.2
									c0.5,1.4,0.7,3.3-0.6,4.1c-0.8,0.5-1.9,0.4-2.8-0.1c-0.8-0.5-1.5-1.3-2.1-2c-3.4-3.7-6.5-5.2-12.2-5.5
									c6.7,1,10.9,5.1,12.9,11.6c0.4,1.3,0.5,2.9-0.5,3.8c-0.8,0.7-2.1,0.5-3-0.1c-0.9-0.6-1.5-1.5-2.2-2.3
									c-2.5-3.1-5.7-5.6-9.4-7c5.1,2.2,8.9,7.2,9.7,12.7c0.1,0.8,0.2,1.7-0.1,2.4c-0.3,0.7-1.1,1.4-1.9,1.2
									c-0.6-0.1-1.1-0.6-1.5-1.1c-2.8-3.1-5-6.5-8.7-8.7c3.4,4.5,6.2,11.8,5.5,13.7c-0.2,0.6-1.7,1.6-3.3,0c-1.8-1.8-3.1-5-6-8.4
									c-4.9,5.4-12.7,7.9-19.8,6.3C489.8,677.3,487.6,672.5,485.4,667.9z"/>
								<path class="st31" d="M500,660.7c5.7-2,11.5-3.8,17.4-5.2c0.8-0.2,1.6-0.4,2.4-0.3c0.8,0.1,1.6,0.5,2,1.2
									c0.4,0.7,0.1,1.7-0.4,2.3c-0.5,0.7-1.2,1.2-1.9,1.6c-2.5,1.5-5.1,2.9-7.9,4.2c-0.5,4.2-3.6,7.9-7.6,9.2"/>
							</g>
						</g>
						<path class="st20" d="M357.8,578.7c3.3,2.9,5.5,19.3,7.2,29.7c2.6,15.6,15.7,83.4,16.5,88.2c1.4,8.5,28.2,7.9,29.3,3.5
							c0.2-0.8-7.8-4.5-9.1-10c-1.1-4.8-10-99.2-14.3-104.2C381.6,579.3,356.7,577.8,357.8,578.7z"/>
					</g>
					<g>
						<path class="st20" d="M321,578.7c2.8,1,11.6,19.7,15.7,36.7c8.7,35.7,3.5,88.6,0,95.6c-3.5,7-37.7,10.1-43.6,8.2
							c-3.4-1.1-7-107.8-4.7-121.2C290,589.1,320.1,578.4,321,578.7z"/>
						<path class="st16" d="M372.2,698c7.2-2.6,28.1-8.1,31-7.8c2.9,0.3,5.9,1.3,7.7,3.8c1.2,1.6,1.7,3.5,2.3,5.5
							c0.9,3.1,1.8,6.2,2.7,9.4c0.3,1.1,0.6,2.2,0.5,3.4c-0.2,1.1-0.9,2.2-2,2.3c-1.5,0.1-2.4-1.7-3-3.2c-1.4-3.9-2.8-7.8-4.2-11.6
							c0.9,4.8,1.8,9.6,2.7,14.4c0.2,1.1,0.4,2.3,0.2,3.4c-0.3,1.1-1.1,2.2-2.2,2.2c-1.6,0-2.4-2.1-2.7-3.8
							c-0.8-3.7-1.6-7.5-2.8-11.2c1.7,5.3,1.9,11.1,0.7,16.5c-0.2,0.8-0.4,1.7-1,2.3c-0.6,0.6-1.6,0.8-2.2,0.2
							c-0.5-0.4-0.5-1.1-0.6-1.8c-0.5-4.8-1-9.7-1.5-14.5c0.5,5.1,0.9,10.4-0.5,15.3c-0.2,0.9-0.6,1.7-1.2,2.3
							c-0.6,0.6-1.7,0.8-2.3,0.2c-0.6-0.5-0.7-1.5-0.7-2.4c-0.1-3-0.2-6.1-0.2-9.7c-2.7,3.1-6.4,5.2-10.3,5.8
							c-3.9,0.6-8-0.3-11.9-1.5C370.9,711.7,371.2,706.1,372.2,698z"/>
						<path class="st20" d="M318.8,610.6c-2.2-10.1-11.2-26.5-18.6-23.1c-4.2,2-16.4,6-16.4,32.8c0,36.1,4.7,83.6,16.4,91.6
							c5.9,4,70.9,8,70.9,8l4.7-23.3c0,0-47.8-8.9-50.1-15.4C322.6,671.8,324.6,637.5,318.8,610.6z"/>
						<g>
							<path class="st32" d="M313.2,605c8,27.1,9.7,73.3,10.9,76.1c1.1,2.5,7.2,3.6,12,5.2"/>
							<path class="st32" d="M322.3,715.9c-8.9-0.9-20-2.6-22.4-4.5c-2.9-2.2-6.5-12.8-9-20"/>
							<path class="st32" d="M321,649.9c3.2-4,4.5-10.7,4.8-18.8"/>
						</g>
					</g>
				</g>
			</g>
			<g>
				<g>
					<g>
						<g>
							<rect x="558.1" y="880.3" class="st10" width="115.1" height="10.4"/>
							<g>
								<path class="st11" d="M577.8,783.8c0,0.3,0,0.5-0.1,0.8l-1.8,14.4l-15.9,128c-0.4,3.4-3.5,5.9-7,5.4
									c-3.2-0.4-5.5-3.1-5.5-6.2c0-0.3,0-0.5,0.1-0.8l15.7-126.4l2-15.9c0.4-3.4,3.5-5.9,7-5.4C575.5,778,577.8,780.7,577.8,783.8
									z"/>
								<path class="st10" d="M577.8,783.8c0,0.3,0,0.5-0.1,0.8l-1.8,14.4h-12.6l2-15.9c0.4-3.4,3.5-5.9,7-5.4
									C575.5,778,577.8,780.7,577.8,783.8z"/>
							</g>
							<g>
								<path class="st11" d="M623.5,782.7v143.4c0,3.5-2.8,6.2-6.2,6.2c-1.7,0-3.3-0.7-4.4-1.8c-1.1-1.1-1.8-2.7-1.8-4.4V782.7
									c0-3.5,2.8-6.2,6.2-6.2c1.7,0,3.3,0.7,4.4,1.8C622.8,779.4,623.5,781,623.5,782.7z"/>
								<path class="st10" d="M621.6,778.3c1.1,1.1,1.8,2.7,1.8,4.4v16.2H611v-16.2c0-3.5,2.8-6.2,6.2-6.2
									C619,776.4,620.5,777.1,621.6,778.3z"/>
							</g>
							<g>
								<path class="st11" d="M686.4,926.1c0,3.1-2.3,5.8-5.5,6.2c-3.4,0.4-6.6-2-7-5.4l-15.9-128l-1.8-14.4c0-0.3-0.1-0.5-0.1-0.8
									c0-3.1,2.3-5.8,5.5-6.2c3.4-0.4,6.5,2,7,5.4l2,15.9l15.7,126.4C686.4,925.6,686.4,925.9,686.4,926.1z"/>
								<path class="st10" d="M670.6,798.9H658l-1.8-14.4c0-0.3-0.1-0.5-0.1-0.8c0-3.1,2.3-5.8,5.5-6.2c3.4-0.4,6.5,2,7,5.4
									L670.6,798.9z"/>
							</g>
						</g>
						<g>
							<path class="st12" d="M697.8,766.2v4.2c0,7.3-5.9,13.2-13.2,13.2H566.4c-7.3,0-13.2-5.9-13.2-13.2v-4.2
								c0-7.3,5.9-13.2,13.2-13.2h118.2C691.9,753,697.8,759,697.8,766.2z"/>
							<path class="st13" d="M697.8,766.2v4.2c0,7.3-5.9,13.2-13.2,13.2H577.3c-7.3,0-13.2-5.9-13.2-13.2v-4.2
								c0-7.3,5.9-13.2,13.2-13.2h107.2C691.9,753,697.8,759,697.8,766.2z"/>
						</g>
					</g>
					<g>
						<g>
							<g>
								<g>
									<path class="st33" d="M543,577.6c2.4-3.9,0.1-9,0.8-13.5c0.2-1.2,0.7-2.5,1.7-3.3s2.6-0.9,3.5,0c1.1,1.1,0.7,2.9,0.7,4.4
										c0,2.8,1.3,5.4,1.9,8.1c1.4,6.6-2.1,12-5.4,17.7c-4.2,2.9-9.9,5-13.4,5.3c-2.2,0.2-13.6-6-18-19.5c-2.2-6.7-2-9.5-1.2-10.5
										c0.7-0.9,2.2-1.4,3.2-0.6c0.6,0.4,0.8,1.1,1.1,1.8c1.4,4,2.8,8.1,4.2,12.3c-5.5-5.1-8.5-12.7-8.1-20.2
										c0.1-1.4,0.5-3.2,1.9-3.6c0.9-0.3,1.9,0.1,2.5,0.8c0.7,0.7,1.1,1.5,1.5,2.3c2,4.3,4,8.5,6.7,13.6c-5-4.7-7.2-12.3-5.4-19
										c0.3-1.1,1-2.4,2.1-2.5c1.2,0,1.9,1.3,2.3,2.4c2,5.4,4,10.7,6,16.1c-2.9-4.5-4.1-9.9-3.4-15.2c0.2-1.9,1.2-4.2,3.2-4.3
										c1.1,0,2.1,0.7,2.7,1.6c0.6,0.9,0.8,2,1.1,3.1C536.6,561.1,539.3,567,543,577.6z"/>
									<path class="st34" d="M514.8,565.8c1.8-0.5,3,0.1,3.7,2.7c1,3.6,3.5,12.1,6.2,13.9"/>
								</g>
								<polygon class="st33" points="546.7,587.7 553.3,602.9 536,613.4 528.3,593 								"/>
							</g>
							<g>
								<g>
									<path class="st35" d="M546,569.7c-1.2-7-6.5-12.1-12.5-12.7l-0.1-0.5c0,0-3.1,0.6-4.2,0.8c-6.8,1.5-11.1,9.2-9.7,17.1
										c1.4,7.9,8,13.7,15,12.7c1.1-0.1,4.2-0.7,4.2-0.7l-0.1-0.5C544.1,583.3,547.3,576.7,546,569.7z"/>
								</g>
								<path class="st36" d="M533.1,556.5c7.3-1.3,14.4,4.4,15.9,12.6s-3.2,16.1-10.6,17.4c-7.3,1.3-14.4-4.4-15.9-12.6
									C521.1,565.6,525.8,557.8,533.1,556.5z"/>
								<g>
									<path class="st15" d="M546,569.7c-1.1-6.4-6.6-10.7-12.2-9.7c-0.1,0-0.2,0-0.3,0.1c-5.5,1.1-9,7-7.8,13.3
										c1.1,6.3,6.4,10.6,12,9.8c0.1,0,0.2,0,0.3,0C543.5,582.1,547.1,576.1,546,569.7z"/>
								</g>
							</g>
						</g>
						<path class="st4" d="M599.8,583.6l-10.7-8.1c0,0-7,3.9-10.7,12.2c-3.7,8.2-8.6,35.7-8.6,35.7L550,590.3l-25.4,18
							c0,0,28.1,71.2,45.1,72s28.9-14.8,28.9-14.8L599.8,583.6z"/>
					</g>
					<g>
						<g>
							<polygon class="st16" points="515.9,891.1 519.1,911.5 532.4,916.9 547.8,909.6 545,889.5 							"/>
							<g>
								<path class="st37" d="M556.4,936.5l-69.2-1c0,0-0.5-1.4-0.7-3.5c-0.3-3.3,0.2-8.1,4.3-11.3c5.8-4.5,15-5.1,21-7.5
									c3.6-1.4,5.8-4.9,5.8-4.9l9.8,0.6c0,0,0.8,5.5,4.5,5.2c3.7-0.3,15.7-6.2,15.7-6.2c6.2,10.7,8.1,19.3,8.6,24.2
									C556.6,934.9,556.4,936.5,556.4,936.5z"/>
								<path class="st38" d="M556.4,936.5l-69.2-1c0,0-0.5-1.4-0.7-3.5h69.7C556.6,934.9,556.4,936.5,556.4,936.5z"/>
							</g>
						</g>
						<g>
							<g>
								<polygon class="st16" points="598.6,891.1 601.8,911.5 615.1,916.9 630.5,909.6 627.7,889.5 								"/>
								<g>
									<path class="st37" d="M639.1,936.5l-69.2-1c0,0-0.5-1.4-0.7-3.5c-0.3-3.3,0.2-8.1,4.3-11.3c5.8-4.5,15-5.1,21-7.5
										c3.6-1.4,5.8-4.9,5.8-4.9l9.8,0.6c0,0,0.8,5.5,4.5,5.2c3.7-0.3,15.7-6.2,15.7-6.2c6.2,10.7,8.1,19.3,8.6,24.2
										C639.3,934.9,639.1,936.5,639.1,936.5z"/>
									<path class="st38" d="M639.1,936.5l-69.2-1c0,0-0.5-1.4-0.7-3.5H639C639.3,934.9,639.1,936.5,639.1,936.5z"/>
								</g>
							</g>
							<g>
								<path class="st39" d="M594.5,689.6L583.2,708c0,0-64.8,9.9-75.3,25.8c-9.7,14.7,3.4,163.2,3.4,163.2h44.5
									c0,0-3.4-109.7,0-119.9c3.4-10.2,105.5-9.6,111.4-23.4c5.9-13.8,7.8-62.1,7.8-62.1"/>
								<path class="st40" d="M676.8,710.8c0,0,2.5,39.8-10.5,49.3c-11.3,8.3-40.2,10.4-40.2,10.4l5.6,123.7l-42.6,2.8
									c0,0-21.2-144.3-20.2-158.2s42-23.9,39.2-25.8c0,0-31.6-10.7-19.9-22.5c0.3-0.3,0.6-0.5,0.9-0.8c2.7-2.4,36,0.1,36,0.1
									l30.7-2.8l12.1,13.8L676.8,710.8z"/>
							</g>
						</g>
					</g>
					<path class="st39" d="M675.2,723.4c-0.3,2-0.6,4-0.9,6.2c-5.2-6.7-13.7-16.4-21.2-20.5c-15.5-8.5-65.1-14.4-65.1-14.4l0.2-4.2
						c0.3-0.3,0.6-0.5,0.9-0.8c2.7-2.4,36,0.1,36,0.1l30.7-2.8l12.1,13.8L675.2,723.4z"/>
					<g>
						<g>
							<path class="st33" d="M654.7,563.7c0,0-18.3,23.6-29.6,22.4c-11.4-1.2-20.3-13.8-20.3-13.8s4.6-1.7,6.5-9.1
								c1.2-4.3,1.4-10.5-0.5-19.4l33.8-5c0,0-0.2,5.6,1.3,11.7C647.1,555.6,649.7,561.1,654.7,563.7z"/>
							<path class="st17" d="M611.3,563.1c1.2-4.3,1.4-10.5-0.5-19.4l33.8-5c0,0-0.2,5.6,1.3,11.7
								C636.7,558.1,624.2,562.7,611.3,563.1z"/>
						</g>
						<g>
							<g>
								<path class="st17" d="M579.7,523.7c0.5-4.6,6-7.7,12.3-7c6.3,0.7,10.9,5,10.4,9.6c-0.5,4.6-6,7.7-12.3,7
									C583.9,532.5,579.2,528.2,579.7,523.7z"/>
								<g>
									<path class="st41" d="M592.6,524.9v-0.1c0-1.5-1.2-2.7-2.7-2.7h-1.5c-1.5,0-2.7,1.2-2.7,2.7v0.1c0,1.5,1.2,2.7,2.7,2.7h1.5
										C591.3,527.6,592.6,526.4,592.6,524.9z"/>
									<rect x="585.6" y="524.8" class="st41" width="2.3" height="6.2"/>
								</g>
							</g>
							<g>
								<path class="st33" d="M656,511.9c0-21.6-14.9-39.1-33.4-39.1s-33.4,11.5-33.4,39.1c0,21.6,8.4,40.3,28.2,41.6
									C635.9,554.7,656,533.5,656,511.9z"/>
								<path class="st17" d="M652.1,522.1c-6.1-5.9-10.6-13.4-12.9-21.7c-3.1,1-6.7,0.4-9-1.4c-6.8,2.7-14.8,2.2-21-1.2
									c-4.8,2.2-10.7,2.1-15.5-0.5c-2.3,3.2-4.1,6.8-5.2,10.6c0.5-7.4,1-14.9,1.4-22.3c17.6-2.5,35.3-4.2,53.1-5.2
									c1-0.1,2.1-0.1,3,0.4c1.3,0.7,1.9,2.2,2.3,3.7C652.2,496.8,654.1,509.7,652.1,522.1z"/>
							</g>
							<g>
								<path class="st37" d="M660.6,483.2c-0.7,11.1-1.5,25.4-2.2,36.4c-1,3.8-4.3,3.6-8.7,5c-4.1-9.1-6.6-18.9-8.1-29.6
									c-4.3,1.1-8.9,0.8-13.2-0.9c-6.5,2.5-13.9,2.6-20.6,0c-5.1,1.7-10.6,2-15.3,0.3c-1.8,5.5-2.7,13.7-3.1,19.5
									c-0.6-5.3-2.7-21.8-3.2-33.1c-0.2-4.8-0.2-8.7,0.4-10.4c2.1-6.1,8.9-4.2,10.7-2c1.2-2.8,3.9-5,6.9-5.7
									c3-0.7,6.4,0.1,9.1,2.2c1.9-3.5,5.8-5.9,9.8-6c4-0.1,8,2.2,9.4,6c1.9-1,3.8-2,5.9-2.4c2.1-0.4,4.4-0.2,6.2,1
									c0.9,0.5,1.6,1.3,2.2,2.3c0.6,1,1,2.2,1.2,3.5c1.7-2.4,5.2-2.8,7.8-1.5c2.6,1.3,4.1,4.1,4.8,6.9
									C661,477.4,660.8,480.3,660.6,483.2z"/>
								<path class="st42" d="M646.6,465.6c-2.2-1-4.7-1.2-7.1-0.7c-3,0.7-5.6,2.6-7.1,5.5c-1.4-3.7-5.3-6.3-9.3-6.2
									c-4,0.2-7.7,3.2-9.5,7.8c-2.1-2.5-5.6-3.9-8.9-3.5c-3.3,0.4-6.4,2.5-7.8,5.8c-1.1-1.3-3.2-1.6-4.9-1c-1.6,0.6-2.9,2-3.9,3.4
									c-0.8,1.2-1.5,2.6-2,3.9c-0.2-4.8-0.2-8.7,0.4-10.4c2.1-6.1,8.9-4.2,10.7-2c1.2-2.8,3.9-5,6.9-5.7c3-0.7,6.4,0.1,9.1,2.2
									c1.9-3.5,5.8-5.9,9.8-6c4-0.1,8,2.2,9.4,6c1.9-1,3.8-2,5.9-2.4c2.1-0.4,4.4-0.2,6.2,1C645.3,463.8,646,464.6,646.6,465.6z"
									/>
							</g>
							<g>
								<path class="st43" d="M602.8,510.2c-2.9-0.7-6-0.1-8.5,1.5"/>
								<path class="st43" d="M624.9,510.8c3.1-1.4,6.9-1,9.7,1"/>
								<path class="st44" d="M611.5,522.7c0.1,3.1,0.4,6.2,0.9,9.2"/>
								<path class="st44" d="M615.9,540.5c3.7,0.1,7.5-1.3,10.3-3.8"/>
								<path class="st45" d="M626.1,522c0.9-0.2,1.9,0.7,2.1,1.9c0.2,1.2-0.4,2.4-1.3,2.5c-0.9,0.2-1.9-0.7-2.1-1.9
									C624.5,523.3,625.1,522.2,626.1,522z"/>
								<path class="st45" d="M599.9,522.4c0.9-0.2,1.9,0.7,2.1,1.9c0.2,1.2-0.4,2.4-1.3,2.5c-0.9,0.2-1.9-0.7-2.1-1.9
									C598.4,523.7,599,522.5,599.9,522.4z"/>
							</g>
							<g>
								<path class="st33" d="M653.2,516.7c6.2-0.9,11.8,2.1,12.4,6.7c0.6,4.6-3.9,8.9-10.2,9.8c-6.2,0.9-11.8-2.1-12.4-6.7
									C642.4,521.9,646.9,517.5,653.2,516.7z"/>
								<g>
									<path class="st41" d="M652.8,524.9v-0.1c0-1.5,1.2-2.7,2.7-2.7h1.5c1.5,0,2.7,1.2,2.7,2.7v0.1c0,1.5-1.2,2.7-2.7,2.7h-1.5
										C654,527.6,652.8,526.4,652.8,524.9z"/>
									<rect x="657.5" y="524.8" class="st41" width="2.3" height="6.2"/>
								</g>
							</g>
						</g>
					</g>
					<g>
						<path class="st46" d="M650.5,558.5c0,0-18.5,11.2-21.7,15.2c-3.2,4-4.2,9.5-4.2,9.5s-4.4-9.4-5.4-10.1c-1-0.8-8.8-8.1-8.8-8.1
							l-9.1,6.9l-12.2,6.3l0.5,117.2l82.5,5.6l2.1-127.2L650.5,558.5z"/>
						<path class="st47" d="M624.5,583.9c-3.9,32.9,2.9,90.3-8.1,112.6"/>
						<path class="st48" d="M626.1,578.3c0,0,1.4-5.2,4.6-7.7c3.2-2.6,19.7-12.3,20.2-12.4c0.4-0.1,8.5,5.5,8.5,5.5l-12.2,17.4
							c0,0-12.6-8.8-15.5-8.1C628.8,573.8,626.1,578.3,626.1,578.3z"/>
						<path class="st48" d="M622.3,578.4c0,0-1-3.7-2.6-5.7c-1.9-2.4-8.3-9.3-9-9.2c-0.7,0-7.2,3.9-8.3,6.3
							c-1.2,2.4-0.5,13.5-0.5,13.5s11-10.4,15.2-9.2C619.9,574.7,622.3,578.4,622.3,578.4z"/>
					</g>
					<g>
						<path class="st4" d="M657.6,561.7c0,0-14.3,13.5-16.5,27.1c-2.2,13.7-1.3,85.6,11.9,109.5c11.5,20.8,12.6,86.9,12.6,117.6
							l40.2-13.9c0,0-0.2-55.1-13.2-106.1c-10.1-39.5-0.4-111.7-6.2-118.8C682.6,572.3,657.6,561.7,657.6,561.7z"/>
						<path class="st49" d="M640.6,638.5c0,0-3.3-38-0.1-50.2c3.2-12.2,12.5-27.8,15-28.3c4.2-0.9,13.5,6.3,13.5,6.3
							s-7.5,13-9.7,32.8c-0.2,1.8-15,7.2-15,7.2s11.5,8.4,11.4,9.3C655.5,616.4,640.6,638.5,640.6,638.5z"/>
					</g>
					<g>
						<g>
							<ellipse class="st36" cx="614.2" cy="703.2" rx="15.6" ry="9.7"/>
							<path class="st16" d="M635.7,690.5c-5.3-0.7-10.6-1.4-15.9-2.1c-1.4-0.2-3-0.4-4.2,0.2c-1.8,0.8-2.6,2.9-2.8,5
								c2.7,0.2,5.3,0.5,8,0.9c-3.2,4.5-7.2,8.4-11.7,11.6c-1,0.7-2,1.4-2.8,2.4c-0.8,1-1.2,2.3-0.8,3.5c0.4,1.2,1.6,1.9,2.8,2.2
								c1.2,0.2,2.4,0,3.9,0.1c-0.4,1.8,0.5,3.7,2,4.6c1.6,0.9,3.7,0.5,5.3-0.7c0.8,1.5,2.4,2.6,4.1,2.9c1.7,0.2,3.5-0.4,5-0.8
								c1.2,1.5,3.2,2.3,5.1,2.3c1.9,0,3.8-1,5.3-2.3c4.6-4.1,8.3-9.2,10.6-14.9C644.6,700.8,639.9,695.9,635.7,690.5z"/>
						</g>
						<g>
							<path class="st4" d="M661.4,591.7c-0.4-7.5,3.4-21.7,8.9-23.2c8.5-2.3,22.9,10.4,26.6,20.5c3.8,10.1,15.2,72.2,12,80.6
								c-4.4,11.5-62.4,42.5-62.4,42.5l-18-26.3c0,0,40.2-21.8,42.6-28.7C672.7,652.8,662.3,609.4,661.4,591.7z"/>
							<path class="st50" d="M680.9,578.7c0,0-6.5,8.5-6.5,23.8s3.7,51.5,2.9,52.8C676.4,656.6,648,675,648,675"/>
							<path class="st50" d="M674.8,625.5c-4.3-5.1-7.2-11-8.6-17.2"/>
							<path class="st50" d="M659.5,705.9c9.2-5,22.5-12.8,30.5-19.2"/>
						</g>
					</g>
					<g>
						<path class="st4" d="M608.1,564.4c0,0-2.4,9.4-2.4,25.7c0,27.3-3.6,103.4-17.9,114.6c-11.3,8.8-25.5,8.3-31.9,8.3
							c0,0,13.4-7.1,18.4-15.4c5.6-9.2,6.5-38.4,7.2-53.6c0.8-16.1,2.2-60.5,4.1-64.4C589.5,571.1,608.1,564.4,608.1,564.4z"/>
						<path class="st49" d="M603.4,640.8c0,0,3.3-25.7,3.3-43.6c0-20,3.3-33.8,3.3-33.8s-11.4,3.6-12.6,5.5
							c-1.2,1.8-7.1,12.4-10.2,32.5c-0.5,3.3,12.9,6,12.9,6s-10.4,8-10.4,10.1C589.8,621.3,603.4,640.8,603.4,640.8z"/>
						<g>
							<path class="st50" d="M584.9,587.4c0,43.6-4,78.5-5.9,90.6"/>
							<path class="st50" d="M578.7,603.1c1.1,6.2,3.8,12.4,5.5,14.3"/>
						</g>
					</g>
				</g>
				<g>
					<path class="st51" d="M586.7,531c0,0,2.1,50.3,32.3,52.2c25.4,1.6,39.6-29.6,39.6-52.3"/>
					<g>
						<path class="st52" d="M620.9,583.8c0,0-18.5,67.8-70,80c-63,15-124.6-1.9-124.6-1.9"/>
						<path class="st52" d="M537.8,585.7c0,0,7.1,41.1-24.7,62.4c-28.2,18.9-86.7,13-86.7,13"/>
						<path class="st52" d="M599.7,703c0,0-115.4,0.2-174.2-41"/>
					</g>
				</g>
			</g>
		</g>
		<g>
			<path class="st53" d="M841.2,413.7c-0.7-12.3,8.2-24.5,20.2-27.5s25.6,3.5,30.8,14.6c4.5,9.6,2.9,20.8,0.8,31.1
				c-2.1,10.3-4.8,21-2.4,31.3c2.1,8.6,7.7,16.3,8.8,25.1c1.5,12.1-7,24.7-18.8,27.8c-6.7,1.7-15.3-0.4-17.4-7
				c-2-6.1,2.5-12.6,1.6-18.9c-0.8-5.3-5.1-9.2-8.7-13.2C843,462.2,842.8,440.9,841.2,413.7z"/>
			<g>
				<path class="st54" d="M726.5,569.3c-6-6.8-10.4-19.1-10.4-23.3c0-4.9-0.8-9.9,0.9-14.5c0.9-2.4,2.2-4.5,3.6-6.6
					c1.5-2.4,3.1-4.8,4.6-7.3c0.6-1,1.4-2.1,2.5-2.4c1.9-0.5,3.7,1.7,3.6,3.7c-0.1,2-1.4,3.7-3.7,5.4c0.9-3.6,2.7-7,5.3-9.8
					c0.7-0.7,1.6-1.4,2.5-1.2c1.6,0.4,1.5,2.6,1.1,4.2c-1.1,3.9-2.1,7.8-3,11.2c3.3,6.4,3,13.9,3.1,21.1c0.1,7.2,0.8,15,5.5,20.4
					C737.8,572.3,732.4,564.3,726.5,569.3z"/>
				<path class="st54" d="M725.8,568.5c0,0,15.9,54.2,27.8,55.3c14.5,1.4,26.3-12,26.3-12l9.5-48.5l-21.5-12.9l-11.8,38.9
					l-16.9-19.1L725.8,568.5z"/>
				<path class="st55" d="M797.2,571.3c-11.8-4.5-23.7-8.8-35.5-13.4c3.2-15.4,7.7-33.9,11.6-39.8c7.3-11,19.1-11.6,19.1-11.6
					l5.4,15.9l-0.6,48.5C797.2,570.9,797.2,571.1,797.2,571.3z"/>
				<g>
					<polygon class="st56" points="786.3,602.6 751.8,513.4 709.5,524.4 748.7,623.8 					"/>
					<polygon class="st15" points="780.6,597.7 749.5,518.3 715,527.7 749,614.6 					"/>
					<polygon class="st57" points="738.4,516.2 740.5,521.9 727,525.7 724.6,519.8 					"/>
				</g>
			</g>
			<g>
				<g>
					<g>
						<g>
							<path class="st58" d="M765.9,925.2c0.1,5.9,61.6,3.9,64.3-1c1.8-3.2-1.5-11.1-4-16.2c-1.3-2.8-2.5-4.7-2.5-4.7l-7.8-10.9
								l-6.2-0.2c-13.8,8-27.6,16.7-35.9,23.5C768.9,919.7,765.9,923.1,765.9,925.2z"/>
							<path class="st54" d="M773.8,915.7c12.7,8,42-3.2,52.4-7.6c-1.3-2.8-2.5-4.7-2.5-4.7l-7.8-10.9l-6.2-0.2
								C795.9,900.2,782.1,908.9,773.8,915.7z"/>
						</g>
						<polygon class="st54" points="792.6,868.1 794.8,892.1 795.6,900.7 796.1,906.6 821,904 821.2,899.8 821.2,899.8 821.4,895.4 
							822.8,867.1 822.9,864.3 807.8,866.2 						"/>
					</g>
					<polygon class="st59" points="792.6,868.1 794.8,892.1 807.2,893.6 807.3,893.6 817.7,895 821.4,895.4 822.8,867.1 
						807.8,866.2 					"/>
				</g>
				<path class="st55" d="M775.1,628.5c0,0-10.7,29.6-8.6,71.6c2.1,42,19.8,188.6,19.8,188.6l44.1-2.1l-7.6-189.2l-10.7-58.6"/>
			</g>
			<g>
				<g>
					<g>
						<g>
							<path class="st58" d="M876.4,924.6c3.9,4.4,49.4-37,48.3-42.4c-0.7-3.6-8.3-7.5-13.6-9.7c-2.8-1.2-4.9-2-4.9-2l-13-3.2
								l-4.9,3.9c-5.3,15-10.2,30.6-12.1,41.1C875,918.5,875,923,876.4,924.6z"/>
							<path class="st54" d="M876.2,912.3c14.9-2.2,29.9-29.6,34.9-39.8c-2.8-1.2-4.9-2-4.9-2l-13-3.2l-4.9,3.9
								C882.9,886.2,878.1,901.7,876.2,912.3z"/>
						</g>
						<polygon class="st54" points="859.7,863.9 870,874 883,886.7 887.3,890.8 904.5,872.7 901.9,869.4 894.5,859.8 880.2,841.3 
													"/>
					</g>
					<polygon class="st59" points="859.7,863.9 870,874 894.5,859.8 880.2,841.3 					"/>
				</g>
				<g>
					<path class="st60" d="M769.2,656.3c4.3,11.9,36.6,33,36.6,33s-0.3,83.3,0.9,104.3c1.2,21,44.7,89.5,44.7,89.5l40.8-36.2
						c0,0-31.6-52.8-33.8-65.3c-2.2-12.4,11.5-77.7,11.5-104.3c0-4.9-0.5-10-1.2-15c-1.6-11.1-4.6-21.9-7.3-30
						c-2.6-8-4.8-13.3-4.8-13.3s-22.2,3.2-44.3,9.4c-20.2,5.7-40.4,13.8-43.5,24.2C768.6,653.7,768.7,655,769.2,656.3z"/>
					<path class="st55" d="M769.2,656.3c10.8,6.4,22,12,33.6,16.7c0.7-1.9,1.4-3.8,2.4-5.8c1,2.2,2,4.4,3.3,7.4
						c19.9-5,40.1-9.2,60.3-12.3c-1.6-11.1-4.6-21.9-7.3-30c-16.3-1.5-32.7-2.8-49.1-3.9c-20.2,5.7-40.4,13.8-43.5,24.2
						C768.6,653.7,768.7,655,769.2,656.3z"/>
				</g>
			</g>
			<path class="st61" d="M882.4,519.4c-1.5-9.4-37-21.4-49.1-20.3c-25.9,2.4-44.7,7.1-50.6,10.8c-5.9,3.7-11.3,38.3-11.3,47.9
				c0,11.4,3.9,33.8,2.9,42.8c-2,17.5-12.7,54.6-12.7,54.6l39,13.7l4.8-8.5l4.4,10.8l64.5-14.8c0,0-4.9-51.4-4.9-60.4
				C869.6,587.3,884.4,531.5,882.4,519.4z"/>
			<g>
				<path class="st62" d="M822.2,525.5c-13,67.5-13.7,86.9-16.6,134.3"/>
				<g>
					<circle class="st58" cx="823.9" cy="538.9" r="2.2"/>
					<circle class="st58" cx="818.4" cy="568.5" r="2.2"/>
					<circle class="st58" cx="814.3" cy="599.6" r="2.2"/>
					<circle class="st58" cx="812.1" cy="635.3" r="2.2"/>
				</g>
			</g>
			<g>
				<g>
					<g>
						<g>
							<g>
								<path class="st58" d="M746.9,567.3l6.5,0.5l0.5,0l43.4-11.4c3-1.6,3.5-4,2.8-6c-0.9-2.5-3.8-3.6-6.3-2.7l-41.4,14.6
									l-0.4,0.4L746.9,567.3z"/>
								<g>
									<path class="st63" d="M746.9,567.3l1.8,0.1l4.7,0.4c-0.1-0.1-0.3-0.2-0.4-0.4c-0.5-0.5-0.9-1.4-0.6-2.1
										c0.1-0.3,0.3-0.6,0.2-0.9c-0.1-0.1-0.2-0.2-0.3-0.3c-0.3-0.4-0.4-0.9-0.2-1.4l-3.7,3.4L746.9,567.3z"/>
									<path class="st64" d="M746.9,567.3l1.8,0.1c-0.2-0.2-0.3-0.4-0.4-0.7c-0.1-0.2-0.1-0.4-0.1-0.6L746.9,567.3z"/>
								</g>
							</g>
							<g>
								<path class="st54" d="M798.1,577c-4.3-7.9-8.5-15.8-13.1-23.7c-3.4-2.6-7.2-4.6-11-6.1c-4.6,1.5-9,4.3-12.5,8
									c-0.9,0.9-1.8,2.2-1.4,3.5c0.3,0.9,1.2,1.3,2.1,1.3c0.9-0.1,1.7-0.5,2.5-1c2.4-1.4,4.7-2.8,7.5-4.1c0.8,0.7,1.5,1.3,2.1,2
									c-1.6,0-3.2,0-5.1,0.6c-3,1.4-6,3.1-8.9,4.9c-0.8,0.5-1.7,1.2-1.8,2.2c-0.1,0.8,0.4,1.6,1.1,2c0.7,0.4,1.4,0.4,2.2,0.3
									c2.7-0.2,5.4-1.2,7.7-2.9c0.9,0.3,1.8,0.5,2.5,1c-1.2,0.2-2.3,0.4-3.4,1c-1.1,0.5-2.1,1.5-2.6,2.7c-0.5,1.2-0.3,2.8,0.3,4.1
									c-0.6,0.2-1,1-0.9,1.8s0.3,1.4,0.7,2c0.7,1.3,1.4,2.6,2.2,3.8c0.8,1.1,1.6,2.3,2.8,2.8c1.2,0.5,2.8,0.1,3.6-1.4
									c3.2,5.6,9.2,8.8,15.1,8.2C793.1,586.1,796,581.7,798.1,577z"/>
								<g>
									<path class="st65" d="M779.5,557.7c-1.5-0.6-3.2-0.9-4.9-1"/>
									<path class="st65" d="M776.4,564.5c-1.6-0.1-3.1-0.1-4.3,0.1"/>
									<path class="st65" d="M766.4,572.2c2.2-1.2,5.8-1.9,8.2-1.6"/>
									<path class="st65" d="M773.8,581.3c-0.8-1.2-1.4-3.3-1.7-4.7"/>
									<path class="st65" d="M772.6,579.2c-1,0.1-2,0.3-2.8,0.2"/>
								</g>
							</g>
						</g>
					</g>
					<g>
						<path class="st54" d="M787,587.9c0,0,54,45.8,68.6,40.6c5.8-2.1,11.5-18.9,15.7-34.5c3.8-14.4,6.3-27.8,6.3-27.8L847,553.3
							c0,0-2,13.9-4.1,25.2c-1.4,7.6-2.7,14-3.5,14.2c-3.1,0.9-42.8-16.8-42.8-16.8L787,587.9z"/>
						<path class="st59" d="M842.9,578.5c7.3,4.8,18.8,11.8,28.3,15.5c3.8-14.4,6.3-27.8,6.3-27.8L847,553.3
							C847,553.3,844.9,567.2,842.9,578.5z"/>
					</g>
				</g>
				<path class="st66" d="M877.6,582.5c-13.4-2.5-24-4.7-36.8-9.3c1.8-15,6-42.2,9.5-50.6c2.4-5.9,12-16.4,22.8-11.9
					c10.8,4.5,14.9,11.6,13.8,30.4C886.4,547.9,880.1,568.9,877.6,582.5z"/>
			</g>
			<g>
				<g>
					<g>
						<path class="st54" d="M812.3,505.9c0,0,3.1,14.2,9.2,18.4s29-21.4,29-21.4c-4-3.7-4.9-10.9-4.9-17.3c0-6.5,1.1-12.2,1.1-12.2
							l-28,8.1c0.3,6.9-0.3,11.9-1.2,15.5C815.8,504.7,812.3,505.9,812.3,505.9z"/>
						<path class="st59" d="M817.7,497c12.9,2.7,22.7-5.5,28-11.4c0-6.5,1.1-12.2,1.1-12.2l-28,8.1
							C819.1,488.4,818.6,493.4,817.7,497z"/>
					</g>
					<g>
						<path class="st58" d="M822.5,524.8c-0.4-0.1,1.4-9.7,2.3-10.5c0.9-0.8,22.9-20.1,24.3-19.4c1.9,1,5.1,7.2,5.1,7.2
							s-4.5,6.1-13.1,13.1C835.3,519.9,825.9,525.4,822.5,524.8z"/>
						<path class="st58" d="M822.5,524.8c0.5-0.5-0.5-10-1.1-10.9c-1.8-2.9-4.9-10.4-4.9-15.5c0,0-5.6,2.1-6.2,3.3
							c-0.7,1.2,2.3,10.2,4.7,14.5C818.9,523.4,822.1,525.1,822.5,524.8z"/>
					</g>
				</g>
				<g>
					<g>
						
							<ellipse transform="matrix(0.1126 -0.9936 0.9936 0.1126 249.6042 1198.7397)" class="st59" cx="795.9" cy="459.6" rx="8.5" ry="11.6"/>
						<g>
							<path class="st54" d="M862.2,446.2c0-22-15.2-39.9-34-39.9s-34,17.9-34,39.9s9.4,43.9,28.4,43.1
								C841.3,488.6,862.2,468.3,862.2,446.2z"/>
							<path class="st59" d="M854.6,455.7c-4-4.3-6.5-12.4-7.1-15.9c-3.8-1.1-8.4-4.7-10.7-9.6c-5.8,5.8-27.7,9-35,7.1
								c-5.2,6.4-5.4,9.6-7.2,17.8c-1.2-10-0.7-20.2,1.5-30.1c13.7-4.4,27.1-9.7,40.1-16c2.2-1.1,4.9-2.1,7-0.9
								c1.4,0.8,2.1,2.3,2.8,3.8c2.9,6,7.2,11.3,12.3,15.6c1.3,1.1,2.8,2.4,2.9,4.1c0,1.1-0.5,2.2-1.1,3.1
								C857.8,439.3,858.2,450.2,854.6,455.7z"/>
						</g>
						<g>
							<path class="st67" d="M788.3,432.7c-0.1,8.3,6.7,25.7,6.7,25.7s0-14.3,6.5-23.5c13.5,0,28.4-0.6,36.6-8.3
								c2.4,6.1,6.5,9.6,11.5,11.2c-0.2,7.6,3.3,14.6,5.5,21c4.2-2.6,7.4-1.5,10.9-5.6c2-7.4,4.1-18.9,3.5-26.1
								c-0.5-5.7-2.1-11.6-5.2-16.4c-0.7-1.2-1.6-2.3-2.5-3.3c-4.8-5.3-12.4-8.4-19.4-6.7c-3.8-4.6-9.8-7.4-15.7-7.7
								c-5.9-0.3-11.8,1.5-17,4.5c-10.1,5.7-17.9,14.6-20.5,26.9C788.7,427.2,788.4,430,788.3,432.7z"/>
							<path class="st68" d="M788.3,432.7c0.3-1.1,0.6-2.1,1-3.2c1.9-5.1,5-9.6,8.6-13.7c5.4-6.2,12.2-11.6,20.1-13.8
								c8-2.2,17.2-0.8,23.1,4.9c7.5-3.2,16.7-1.5,23.1,3.8c-0.7-1.2-1.6-2.3-2.5-3.3c-4.8-5.3-12.4-8.4-19.4-6.7
								c-3.8-4.6-9.8-7.4-15.7-7.7c-5.9-0.3-11.8,1.5-17,4.5c-10.1,5.7-17.9,14.6-20.5,26.9C788.7,427.2,788.4,430,788.3,432.7z"/>
						</g>
						<path class="st54" d="M860.1,451.5c6.2-1.6,12.2,0.8,13.4,5.3c1.2,4.5-2.9,9.5-9.2,11.1c-6.2,1.6-12.2-0.8-13.4-5.3
							C849.8,458.1,853.9,453.1,860.1,451.5z"/>
					</g>
					<g>
						<g>
							<ellipse class="st69" cx="830.5" cy="461" rx="1.5" ry="2.4"/>
							<ellipse class="st69" cx="803.2" cy="461" rx="1.5" ry="2.4"/>
							<path class="st70" d="M807.6,446.6c-2.8-1-6.1-0.7-8.8,0.7"/>
							<path class="st70" d="M828.1,447.8c3.2-1.4,7.1-1,9.9,1"/>
							<path class="st71" d="M813.4,462.8c-0.2,1.5-0.2,5.2,0,6.7"/>
						</g>
						<path class="st71" d="M815.1,476.1c4.1,1.6,8.5,0.7,10.7-2.6"/>
					</g>
				</g>
			</g>
		</g>
	</g>
	<g>
		<circle class="st2" cx="334.8" cy="369.4" r="57.3"/>
		<g>
			<path class="st30" d="M297.4,350.1c12.5-23.4,37.4,8,37.4,8s24.9-26.8,37.4-9.4c13,18.1-37.4,60.2-37.4,60.2
				S286.7,370,297.4,350.1z"/>
			<polyline class="st72" points="293.3,376.4 310.6,376.5 316,355.4 327.2,395.6 336,346.9 345.6,390.8 351.3,359 357.4,375.6 
				376.4,376.2 			"/>
		</g>
	</g>
	<g>
		<circle class="st2" cx="493.5" cy="458.7" r="58.6"/>
		<g>
			<path class="st4" d="M524.8,461.3L479.9,487c-8.5,4.9-19.4,1.9-24.3-6.6c-2.4-4.3-2.9-9.1-1.7-13.5c1.2-4.4,4-8.3,8.3-10.8
				l44.8-25.7c8.5-4.9,19.4-1.9,24.3,6.6c2.4,4.3,2.9,9.1,1.7,13.5C531.9,455,529,458.9,524.8,461.3z"/>
			<path class="st30" d="M524.8,461.3l-22.4,12.8l-17.7-30.9l22.4-12.8c8.5-4.9,19.4-1.9,24.3,6.6c2.4,4.3,2.9,9.1,1.7,13.5
				C531.9,455,529,458.9,524.8,461.3z"/>
		</g>
	</g>
	<g>
		<circle class="st2" cx="642.5" cy="350.7" r="57.3"/>
		<g>
			<g>
				<path class="st4" d="M671.7,321.9v39.3c0,9.6-4.9,18.5-13,23.8l-16.2,9.5l-14.9-9.7c-8.9-5.1-14.3-14.5-14.3-24.7v-38.3l29-8.3
					l0.2,0.1L671.7,321.9z"/>
				<path class="st73" d="M671.7,321.9v39.3c0,9.6-4.9,18.5-13,23.8l-16.2,9.5v-80.8L671.7,321.9z"/>
			</g>
			<g>
				<rect x="635.7" y="331.8" class="st30" width="13.5" height="44.4"/>
				<rect x="620.3" y="347.3" class="st30" width="44.4" height="13.5"/>
			</g>
		</g>
	</g>
</g>
</svg>
