<?xml version="1.0" encoding="utf-8"?>
<!-- Generator: Adobe Illustrator 25.0.0, SVG Export Plug-In . SVG Version: 6.00 Build 0)  -->
<svg version="1.1" id="Capa_1" xmlns="http://www.w3.org/2000/svg" xmlns:xlink="http://www.w3.org/1999/xlink" x="0px" y="0px"
	 viewBox="0 0 836 675" style="enable-background:new 0 0 836 675;" xml:space="preserve">
<style type="text/css">
	.st0{fill:#9CD499;}
	.st1{fill:#74B570;}
	.st2{opacity:0.6;fill:#6C63FE;}
	.st3{fill:#FFFFFF;}
	.st4{opacity:0.7;fill:#89D0F0;}
	.st5{opacity:0.8;}
	.st6{fill:#89D0F0;}
	.st7{fill:#EE7900;}
	.st8{opacity:0.42;fill:#6C63FE;}
	.st9{fill:#D6E7F0;}
	.st10{fill:#F2F2F2;}
	.st11{opacity:0.5;fill:#BDCCD4;}
	.st12{fill:#D54A41;}
	.st13{fill:#303C60;}
	.st14{fill:#58556E;}
	.st15{fill:#7EC1D6;}
	.st16{fill:#F09959;}
	.st17{fill:#9BD6E8;}
	.st18{fill:#E38540;}
	.st19{fill:#3E6BAB;}
	.st20{fill:#7A4E34;}
	.st21{fill:#63ACC2;}
	.st22{fill:#2E5B9A;}
	.st23{fill:#EDC055;}
	.st24{fill:#F5CE5C;}
	.st25{fill:#FCA96A;}
	.st26{fill:#F37168;}
	.st27{fill:#F2E5DE;}
	.st28{fill:#3A384D;}
	.st29{fill:#BDCCD4;}
	.st30{font-family:'Roboto-Bold';}
	.st31{font-size:26.5728px;}
</style>
<g>
	<g>
		<path class="st0" d="M573.4,412.7c54-63.8,65.8-90.9,64.5-169.1c-1.3-78.2,57.6-188.3,26.3-164.1s-75.5,104.9-56.7,167.3
			c18.8,62.3,14.4,82.8,7.8,100c-6.6,17.2-42.8,60.8-42.8,60.8L573.4,412.7z"/>
		<path class="st1" d="M606.3,370.5c0.2-0.3,0.4-0.5,0.5-0.8c2.6-6.3,15.8-38.7,16.9-53.9c1.2-16.8-13.4-55.7-4.6-89
			c8.8-33.3,9.2-62.7,11.6-85.5c3.1-30.2,27.3-58.7,42.1-64c-0.1-0.3-0.3-0.5-0.5-0.7l-4,0.1c-1.2,0.6-2.6,1.5-4.2,2.7
			c-31.4,24.2-75.5,104.9-56.7,167.3c18.8,62.3,14.4,82.8,7.8,100c-1.8,4.6-5.7,11.2-10.5,18.3L606.3,370.5z"/>
		<path class="st0" d="M563.4,502.2c37.6-89.7,43.3-122.9,44.1-203.1c0.8-80.2,184.7-210.4,171.9-182.3
			c-12.8,28-48.1,96.7-98.5,131.6c-50.3,34.9-63.9,71.2-68.2,112.6c-4.2,41.3-39.2,130.2-39.2,130.2l-9,15.2L563.4,502.2z"/>
		<g>
			<path class="st1" d="M579.7,465.5c-0.1,0-0.3,0-0.4-0.1c-0.7-0.2-1-1-0.8-1.6c0.1-0.3,9.4-28.6,15.7-52.2
				c6.3-23.6,11.5-65.7,11.7-80.6c0.1-13.7,7.9-57.3,42.2-94.8c17-18.6,29.6-29.9,46.9-45.5c17.2-15.4,38.5-34.6,73.5-69.1
				c0.5-0.5,1.3-0.5,1.8,0c0.5,0.5,0.5,1.3,0,1.8c-35.1,34.5-56.5,53.7-73.6,69.2c-17.3,15.5-29.8,26.8-46.8,45.3
				c-33.7,36.9-41.4,79.7-41.5,93.1c-0.1,15.1-5.5,57.5-11.8,81.3c-6.3,23.7-15.6,52.1-15.7,52.3
				C580.8,465.1,580.3,465.5,579.7,465.5z"/>
		</g>
		<path class="st0" d="M611.8,542c12.4-63.8,10.7-31.9-9.1-121.9C580,317.1,701,238.3,716.2,276.2c15.2,37.9,26.5,153.8,18.7,149.4
			c-7.8-4.4-52.3-115.1-54.2-110.8c-1.9,4.3-77,34.9-77.4,72.9c-0.4,38,21.6,100.4,21.6,100.4l-5.7,55.2L611.8,542z"/>
		<g>
			<path class="st1" d="M619.3,543c-0.1,0-0.2,0-0.2,0l-7.3-1.4c-0.3-0.1-0.6-0.3-0.8-0.5c-0.2-0.3-0.3-0.6-0.2-1
				c1.4-7.4,2.7-13.6,3.7-18.6c5.5-27,5.5-27-0.8-51.1c-2.9-10.9-6.8-25.9-12.2-50.1c-4-18.1-3.8-36.5,0.6-54.7
				c3.9-16,10.9-31.5,20.8-46c17-24.9,42.2-45.4,64.1-52.2c15.4-4.7,26.5-1.7,30.5,8.3c6.5,16.1,13.1,48.5,17.6,86.7
				c1.9,16,3.2,31.2,3.6,42.7c0.7,19.1-1.2,20.8-2,21.4c-0.7,0.6-1.6,0.7-2.4,0.2c-4.4-2.5-16.8-29.8-33.8-68.1
				c-8.3-18.7-16.9-37.9-19.6-42.1c-1.4,1.2-4.5,2.9-10.4,6.2c-21.3,11.8-65.5,36.4-65.9,65c-0.4,37.3,21.3,99.4,21.5,100
				c0.1,0.2,0.1,0.4,0.1,0.6l-5.6,53.5c0,0.4-0.2,0.7-0.5,0.9C619.8,542.9,619.6,543,619.3,543z M613.5,539.2l4.7,0.9l5.4-51.9
				c-1.6-4.6-22-64.1-21.6-100.6c0.3-30.1,45.5-55.2,67.2-67.2c5-2.8,9.7-5.4,10.4-6.2c0.3-0.5,0.7-0.8,1.3-0.8c0,0,0,0,0.1,0
				c1.1,0,1.9,0.2,8.2,13.8c3.7,8,8.6,18.9,13.7,30.4c6.5,14.7,13.9,31.3,20,44.1c7.9,16.6,11.1,21.3,12.3,22.5
				c0.5-1.1,1.4-5.2,0.8-19.5c-0.4-11.5-1.7-26.6-3.6-42.4c-4.5-37.7-11-69.7-17.4-85.6c-3.5-8.6-13.4-11.1-27.3-6.8
				c-38.1,11.8-100.5,73.6-83.7,149.9c5.3,24.1,9.3,39.1,12.1,50c6.5,24.7,6.5,24.7,0.9,52.3C615.9,526.9,614.8,532.5,613.5,539.2z"
				/>
		</g>
		<g>
			<path class="st1" d="M574.6,417.2l0.9-0.8c0.1-8.2,0.5-16.2,1.4-23.6C574.2,406.4,574.6,417.2,574.6,417.2z"/>
			<path class="st1" d="M611.3,360.4c-2.7,5.3-4.5,10.8-5.8,16.4c12.9-31.7,70.7-56.1,74.7-60.7l0.7-1.2
				C660.8,307.2,625,333.4,611.3,360.4z"/>
		</g>
		<g>
			<path class="st1" d="M735.2,424c-0.6,0-1.2-0.5-1.3-1.1l-5.3-34.9c-0.3-2.2-0.7-4.5-1-6.8c-5-32.7-11.1-73.3-20.5-92
				c-1.5-3-8.9-7.5-20-7.8c-15.1-0.3-45,7.5-75.3,62.9c-0.3,0.6-1.1,0.9-1.8,0.5c-0.6-0.3-0.9-1.1-0.5-1.8
				c31-56.6,62-64.5,77.6-64.2c12.3,0.2,20.4,5.5,22.3,9.2c9.5,19,15.5,58.2,20.7,92.7c0.3,2.3,0.7,4.5,1,6.8l5.3,34.9
				c0.1,0.7-0.4,1.4-1.1,1.5C735.3,424,735.3,424,735.2,424z"/>
		</g>
		<g>
			<path class="st1" d="M710.6,368.1c-0.1,0-0.2,0-0.3,0c-0.7-0.1-1.2-0.8-1-1.5c0.1-0.3,6.8-33.5,1.2-69.5
				c-0.1-0.7,0.4-1.4,1.1-1.5c0.7-0.1,1.4,0.4,1.5,1.1c5.7,36.5-1.1,70.1-1.2,70.4C711.7,367.7,711.2,368.1,710.6,368.1z"/>
		</g>
		<g>
			<path class="st1" d="M702.1,346.4c-0.1,0-0.2,0-0.3,0c-0.7-0.1-1.1-0.8-1-1.5c0.1-0.3,6.4-30.7,6.2-56.2c0-0.7,0.6-1.3,1.3-1.3
				c0.7,0,1.3,0.6,1.3,1.3c0.2,25.8-6.2,56.5-6.2,56.8C703.2,346,702.7,346.4,702.1,346.4z"/>
		</g>
		<g>
			<path class="st1" d="M695.4,193.2c-0.6,0-1.2-0.4-1.3-1.1c-0.1-0.7,0.4-1.4,1.1-1.5c0.3,0,29.4-5.1,52.1-28.3
				c0.5-0.5,1.3-0.5,1.8,0c0.5,0.5,0.5,1.3,0,1.8c-23.3,23.8-53.2,29-53.5,29C695.6,193.1,695.5,193.2,695.4,193.2z"/>
		</g>
		<g>
			<path class="st1" d="M670.2,220.2c-1.9,0-3-0.1-3.2-0.1c-0.7-0.1-1.2-0.7-1.2-1.4c0.1-0.7,0.7-1.2,1.4-1.2
				c0.2,0,22.4,1.6,53.1-11.3c0.7-0.3,1.4,0,1.7,0.7c0.3,0.7,0,1.4-0.7,1.7C696.5,219,677.5,220.2,670.2,220.2z"/>
		</g>
		<g>
			<path class="st1" d="M652.3,248.1c-7,0-10.6-1.3-10.9-1.4c-0.7-0.2-1-1-0.8-1.7c0.2-0.7,1-1,1.7-0.8c0.1,0,14.3,5,42.3-5.6
				c0.7-0.3,1.4,0.1,1.7,0.8c0.3,0.7-0.1,1.4-0.8,1.7C670.7,246.7,659.6,248.1,652.3,248.1z"/>
		</g>
	</g>
	<g>
		<path class="st0" d="M254.8,587.6c-0.9-2.9-66.7-86.7-63.6-155.7c2.2-48.3-12.2-100.6-12.2-100.6s46.7,35,48.2,111.6
			c0.9,47.1-0.6,60.8,2.4,73.7c3,13,30,73.8,30,73.8L254.8,587.6z"/>
		<g>
			<path class="st1" d="M259.6,591.8c-0.2,0-0.5-0.1-0.7-0.2l-4.8-2.9c-0.2-0.2-0.4-0.4-0.5-0.7c-0.2-0.4-1.5-2.3-3-4.4
				c-6.7-9.6-22.5-32.2-36.3-60.1c-17.4-35-25.6-65.8-24.4-91.6c2.1-47.5-12-99.7-12.2-100.2c-0.1-0.5,0.1-1.1,0.5-1.4
				c0.5-0.3,1.1-0.3,1.5,0c0.5,0.4,12,9.1,23.9,27.4c10.9,16.9,24.1,45.3,24.8,85.2c0.3,15.9,0.3,28,0.3,37.6
				c0,18.8,0.1,27.4,2,35.9c2.9,12.7,29.7,73,29.9,73.6c0.2,0.5,0.1,1.1-0.3,1.5C260.2,591.7,259.9,591.8,259.6,591.8z M253.6,588
				C253.6,588,253.6,588,253.6,588C253.6,588,253.6,588,253.6,588z M255.8,586.7l0.9,0.6c-6-13.6-25.8-59.1-28.4-70.3
				c-2-8.7-2-17.4-2.1-36.4c0-9.6-0.1-21.6-0.3-37.6c-0.7-39.2-13.6-67.2-24.3-83.7c-8-12.4-16-20.5-20.3-24.3
				c3.2,13.1,13.1,56.7,11.2,97.1c-1.8,39.7,18.5,90.2,60.3,150.2C254.7,584.9,255.5,586.1,255.8,586.7z"/>
		</g>
		<path class="st0" d="M233.6,574.6c2.5,4.5,4.7,12.3,6.5,21.1h4.4c-15.1-74.1-46.7-117.5-95.1-150.5c-60-40.8-64-53-64-53
			s20.5,92.1,55.7,120.3C176.4,540.7,224.9,558.7,233.6,574.6z"/>
		<path class="st0" d="M207.9,587c5.9,0.2,11.4,3.7,16.4,8.7h10.1c-11.2-19.1-25.7-34.9-43.3-35c-44.4-0.3-53.2,11.2-83.7,10.3
			c-21.8-0.6-39-5.3-39-5.3s15.1,27.3,55.5,34.1C152.4,604.6,186.5,586.2,207.9,587z"/>
		<g>
			<path class="st1" d="M245.8,604.8c-0.6,0-1.1-0.4-1.3-1c-7-31-18.7-58.2-33.6-78.5c-19.1-25.9-38.1-39.9-56.6-53.5
				c-17.5-12.9-34-25-48.1-46c-0.4-0.6-0.2-1.4,0.4-1.8c0.6-0.4,1.4-0.2,1.8,0.4c13.9,20.6,30.2,32.6,47.5,45.3
				c18.6,13.7,37.8,27.8,57.1,54c15.4,20.9,26.9,47.7,34.1,79.5c0.2,0.7-0.3,1.4-1,1.6C246,604.8,245.9,604.8,245.8,604.8z"/>
		</g>
		<g>
			<path class="st1" d="M241.7,610.1c-0.5,0-0.9-0.2-1.1-0.7c-13.9-25.4-27.5-39.3-42.9-43.6c-13.5-3.8-26.7,0.3-40.6,4.7
				c-3.9,1.2-8,2.5-12.1,3.6c-35.8,9.5-54.3,3-55.1,2.8c-0.7-0.2-1-1-0.8-1.7c0.2-0.7,1-1,1.7-0.8c0.2,0.1,18.6,6.4,53.5-2.8
				c4-1.1,8.1-2.3,12-3.6c14.3-4.5,27.8-8.7,42-4.7c16.1,4.5,30.2,18.8,44.4,44.9c0.3,0.6,0.1,1.4-0.5,1.8
				C242.1,610,241.9,610.1,241.7,610.1z"/>
		</g>
		<g>
			<path class="st1" d="M176.4,488.3c-0.2,0-0.4-0.1-0.7-0.2c-0.2-0.1-23.1-13.3-52.7-15.1c-0.7,0-1.3-0.7-1.2-1.4
				c0-0.7,0.7-1.3,1.4-1.2c30.3,1.8,53.7,15.3,53.9,15.4c0.6,0.4,0.8,1.2,0.5,1.8C177.2,488,176.8,488.3,176.4,488.3z"/>
		</g>
		<g>
			<path class="st1" d="M216.4,532c-0.4,0-0.8-0.2-1-0.5c-18.4-23.5-37.2-27.7-77.9-34.9c-0.7-0.1-1.2-0.8-1.1-1.5s0.8-1.2,1.5-1.1
				c41.4,7.3,60.5,11.6,79.5,35.8c0.4,0.6,0.3,1.4-0.2,1.8C216.9,531.9,216.6,532,216.4,532z"/>
		</g>
	</g>
	<g>
		<path class="st0" d="M557.1,609.6c50.3-99.6,103.4-139.4,174.4-154.5c70.9-15.1,79.3-24.9,79.3-24.9s-53.8,77.5-97.1,90.4
			c-43.3,12.8-95,11.1-109.1,22.5s-40,61.8-40,61.8l-8.7,6.8L557.1,609.6z"/>
		<path class="st0" d="M580.5,644.7C580,642.8,601.6,542,646,540.1c44.3-1.9,53.6,9.3,84,7.3c21.7-1.4,38.7-6.6,38.7-6.6
			s-14.1,27.8-54.2,36c-28.4,5.8-63.1-11.4-84.4-9.7c-21.3,1.6-36.4,45.6-36.4,45.6l-5.8,23.1L580.5,644.7z"/>
		<g>
			<path class="st1" d="M559.8,604.8c-0.2,0-0.4,0-0.5-0.1c-0.7-0.3-0.9-1.1-0.6-1.7c0.1-0.2,7.6-16.7,21.7-37.1
				c13-18.8,34.4-44.9,62.5-62.1c27.8-17,50.9-22.8,73.3-28.4c20.8-5.2,40.5-10.2,61.1-24c0.6-0.4,1.4-0.2,1.8,0.4
				c0.4,0.6,0.2,1.4-0.4,1.8c-21,14.1-40.9,19.1-61.9,24.4c-22.2,5.6-45.1,11.4-72.6,28.1c-27.7,16.9-48.9,42.7-61.7,61.3
				c-14,20.2-21.4,36.6-21.5,36.8C560.8,604.5,560.3,604.8,559.8,604.8z"/>
		</g>
		<g>
			<path class="st1" d="M586.4,615.7c-0.2,0-0.3,0-0.5-0.1c-0.7-0.3-1-1-0.7-1.7c15.2-38.5,30.6-60.4,48.4-68.9
				c15.9-7.6,31.2-3.3,47.4,1.1c4,1.1,8,2.2,12.1,3.1c35.3,8.1,53.4,1,53.6,0.9c0.7-0.3,1.4,0.1,1.7,0.7c0.3,0.7-0.1,1.4-0.7,1.7
				c-0.8,0.3-19,7.4-55.1-0.8c-4.1-0.9-8.2-2.1-12.2-3.2c-15.7-4.3-30.6-8.4-45.6-1.3c-17.2,8.1-32.1,29.6-47.1,67.5
				C587.4,615.4,586.9,615.7,586.4,615.7z"/>
		</g>
		<g>
			<path class="st1" d="M745.8,490.9c-0.1,0-0.3,0-0.4-0.1c-28.1-9.5-54.3-6-54.5-6c-0.7,0.1-1.4-0.4-1.5-1.1
				c-0.1-0.7,0.4-1.4,1.1-1.5c0.3,0,27-3.7,55.7,6.1c0.7,0.2,1,1,0.8,1.6C746.8,490.5,746.3,490.9,745.8,490.9z"/>
		</g>
		<g>
			<path class="st1" d="M637.1,510.2c-0.5,0-0.9-0.2-1.1-0.7c-0.4-0.6-0.1-1.4,0.5-1.8c26.8-15.3,46.1-12,87.1-3.1
				c0.7,0.2,1.1,0.8,1,1.5c-0.2,0.7-0.8,1.1-1.5,1c-40.4-8.7-59.4-12-85.3,2.8C637.6,510.1,637.3,510.2,637.1,510.2z"/>
		</g>
	</g>
	<path class="st2" d="M293,110.2h236.3c0-16.1-13-29.1-29.1-29.1h-178C306,81.1,293,94.1,293,110.2L293,110.2z"/>
	<rect x="216.2" y="96.2" class="st2" width="385.2" height="518.2"/>
	<rect x="232.7" y="118.3" class="st3" width="352.4" height="474"/>
	<g>
		<g>
			<path class="st4" d="M558.9,224.3H264.3c-1.8,0-3.2-1.4-3.2-3.2v-2.2c0-1.8,1.4-3.2,3.2-3.2h294.7c1.8,0,3.2,1.4,3.2,3.2v2.2
				C562.2,222.8,560.7,224.3,558.9,224.3z"/>
			<path class="st4" d="M558.9,241H264.3c-1.8,0-3.2-1.4-3.2-3.2v-2.2c0-1.8,1.4-3.2,3.2-3.2h294.7c1.8,0,3.2,1.4,3.2,3.2v2.2
				C562.2,239.5,560.7,241,558.9,241z"/>
			<path class="st4" d="M495.9,280H265.3c-2.3,0-4.2-1.9-4.2-4.2c0-2.3,1.9-4.2,4.2-4.2h230.7c2.3,0,4.2,1.9,4.2,4.2
				C500.1,278.1,498.2,280,495.9,280z"/>
			<path class="st4" d="M495.9,295H265.3c-2.3,0-4.2-1.9-4.2-4.2c0-2.3,1.9-4.2,4.2-4.2h230.7c2.3,0,4.2,1.9,4.2,4.2
				C500.1,293.1,498.2,295,495.9,295z"/>
			<path class="st4" d="M495.9,338.4H265.3c-2.3,0-4.2-1.9-4.2-4.2c0-2.3,1.9-4.2,4.2-4.2h230.7c2.3,0,4.2,1.9,4.2,4.2
				C500.1,336.6,498.2,338.4,495.9,338.4z"/>
			<path class="st4" d="M495.9,353.5H265.3c-2.3,0-4.2-1.9-4.2-4.2c0-2.3,1.9-4.2,4.2-4.2h230.7c2.3,0,4.2,1.9,4.2,4.2
				C500.1,351.6,498.2,353.5,495.9,353.5z"/>
			<path class="st4" d="M495.9,407.3H265.3c-2.3,0-4.2-1.9-4.2-4.2c0-2.3,1.9-4.2,4.2-4.2h230.7c2.3,0,4.2,1.9,4.2,4.2
				C500.1,405.4,498.2,407.3,495.9,407.3z"/>
			<path class="st4" d="M495.9,422.3H265.3c-2.3,0-4.2-1.9-4.2-4.2c0-2.3,1.9-4.2,4.2-4.2h230.7c2.3,0,4.2,1.9,4.2,4.2
				C500.1,420.4,498.2,422.3,495.9,422.3z"/>
			<path class="st4" d="M495.9,461H265.3c-2.3,0-4.2-1.9-4.2-4.2c0-2.3,1.9-4.2,4.2-4.2h230.7c2.3,0,4.2,1.9,4.2,4.2
				C500.1,459.1,498.2,461,495.9,461z"/>
			<path class="st4" d="M495.9,476.1H265.3c-2.3,0-4.2-1.9-4.2-4.2c0-2.3,1.9-4.2,4.2-4.2h230.7c2.3,0,4.2,1.9,4.2,4.2
				C500.1,474.2,498.2,476.1,495.9,476.1z"/>
			<path class="st4" d="M567.4,551.4H336.7c-2.3,0-4.2-1.9-4.2-4.2c0-2.3,1.9-4.2,4.2-4.2h230.7c2.3,0,4.2,1.9,4.2,4.2
				C571.6,549.5,569.7,551.4,567.4,551.4z"/>
			<path class="st4" d="M567.4,572.4H336.7c-2.3,0-4.2-1.9-4.2-4.2c0-2.3,1.9-4.2,4.2-4.2h230.7c2.3,0,4.2,1.9,4.2,4.2
				C571.6,570.5,569.7,572.4,567.4,572.4z"/>
		</g>
	</g>
	<g>
		<g>
			<g class="st5">
				<path class="st6" d="M535.3,300.5h-13.4c-5.8,0-10.6-4.7-10.6-10.6v-13.4c0-5.8,4.7-10.6,10.6-10.6h13.4
					c5.8,0,10.6,4.7,10.6,10.6V290C545.9,295.8,541.2,300.5,535.3,300.5z M521.9,272.1c-2.5,0-4.5,2-4.5,4.5V290
					c0,2.5,2,4.5,4.5,4.5h13.4c2.5,0,4.5-2,4.5-4.5v-13.4c0-2.5-2-4.5-4.5-4.5H521.9z"/>
			</g>
			<g class="st5">
				<path class="st6" d="M535.3,357.5h-13.4c-5.8,0-10.6-4.7-10.6-10.6v-13.4c0-5.8,4.7-10.6,10.6-10.6h13.4
					c5.8,0,10.6,4.7,10.6,10.6v13.4C545.9,352.8,541.2,357.5,535.3,357.5z M521.9,329c-2.5,0-4.5,2-4.5,4.5v13.4
					c0,2.5,2,4.5,4.5,4.5h13.4c2.5,0,4.5-2,4.5-4.5v-13.4c0-2.5-2-4.5-4.5-4.5H521.9z"/>
			</g>
			<g>
				<path class="st7" d="M529.5,292.6c0,0-0.1,0-0.1,0c-0.8,0-1.5-0.4-1.9-1l-9.6-12.6c-0.9-1.1-0.7-2.8,0.5-3.6
					c1.1-0.9,2.8-0.7,3.6,0.5l7.8,10.1l21.4-22.9c1-1,2.6-1.1,3.7-0.1c1,1,1.1,2.6,0.1,3.7l-23.5,25.1
					C530.9,292.3,530.2,292.6,529.5,292.6z"/>
			</g>
			<g>
				<path class="st7" d="M529.5,349.5c0,0-0.1,0-0.1,0c-0.8,0-1.5-0.4-1.9-1l-9.6-12.6c-0.9-1.1-0.7-2.8,0.5-3.6
					c1.1-0.9,2.8-0.7,3.6,0.5l7.8,10.1L551,320c1-1,2.6-1.1,3.7-0.1c1,1,1.1,2.6,0.1,3.7l-23.5,25.1
					C530.9,349.2,530.2,349.5,529.5,349.5z"/>
			</g>
			<g>
				<path class="st6" d="M535.3,424.6h-13.4c-5.6,0-10.1-4.5-10.1-10.1v-13.4c0-5.6,4.5-10.1,10.1-10.1h13.4
					c5.6,0,10.1,4.5,10.1,10.1v13.4C545.5,420,540.9,424.6,535.3,424.6z M521.9,396.1c-2.7,0-4.9,2.2-4.9,4.9v13.4
					c0,2.7,2.2,4.9,4.9,4.9h13.4c2.7,0,4.9-2.2,4.9-4.9v-13.4c0-2.7-2.2-4.9-4.9-4.9H521.9z"/>
			</g>
			<g class="st5">
				<path class="st6" d="M535.3,482h-13.4c-5.8,0-10.6-4.7-10.6-10.6V458c0-5.8,4.7-10.6,10.6-10.6h13.4c5.8,0,10.6,4.7,10.6,10.6
					v13.4C545.9,477.2,541.2,482,535.3,482z M521.9,453.5c-2.5,0-4.5,2-4.5,4.5v13.4c0,2.5,2,4.5,4.5,4.5h13.4c2.5,0,4.5-2,4.5-4.5
					V458c0-2.5-2-4.5-4.5-4.5H521.9z"/>
			</g>
			<g>
				<path class="st7" d="M529.5,417c0,0-0.1,0-0.1,0c-0.8,0-1.5-0.4-1.9-1l-9.6-12.6c-0.9-1.1-0.7-2.8,0.5-3.6
					c1.1-0.9,2.8-0.7,3.6,0.5l7.8,10.1l21.4-22.9c1-1,2.6-1.1,3.7-0.1c1,1,1.1,2.6,0.1,3.7l-23.5,25.1
					C530.9,416.8,530.2,417,529.5,417z"/>
			</g>
			<g>
				<path class="st7" d="M529.5,474c0,0-0.1,0-0.1,0c-0.8,0-1.5-0.4-1.9-1l-9.6-12.6c-0.9-1.1-0.7-2.8,0.5-3.6
					c1.1-0.9,2.8-0.7,3.6,0.5l7.8,10.1l21.4-22.9c1-1,2.6-1.1,3.7-0.1c1,1,1.1,2.6,0.1,3.7l-23.5,25.1
					C530.9,473.7,530.2,474,529.5,474z"/>
			</g>
		</g>
	</g>
	<path class="st8" d="M458.9,131H358.8c-22.7,0-41.2-18.4-41.2-41.2c0-4.8,3.9-8.8,8.8-8.8h164.9c4.8,0,8.8,3.9,8.8,8.8
		C500.1,112.6,481.7,131,458.9,131z"/>
	<path class="st9" d="M475.1,118.3H347.6c-11.6,0-21-9.4-21-21v-8.6c0-2.5,2-4.5,4.5-4.5h160.5c2.5,0,4.5,2,4.5,4.5v8.6
		C496.1,108.9,486.7,118.3,475.1,118.3z"/>
	<rect x="249.1" y="139.4" class="st6" width="319.4" height="57.2"/>
	<path class="st10" d="M486.5,98.3h-78.8c-1.9,0-3.5-1.6-3.5-3.5v-2.4c0-1.9,1.6-3.5,3.5-3.5h78.8c1.9,0,3.5,1.6,3.5,3.5v2.4
		C490,96.7,488.4,98.3,486.5,98.3z"/>
	<path class="st11" d="M734,551.2c-118.3-24.3-216.5-13.3-250.5-15.4c-34-2.1-231-4.2-272.7,10.1c-41.6,14.2,29.2,33.7,111.4,24.6
		c82.2-9,132.7-7.2,263.6,2.3C716.7,582.3,750.2,554.5,734,551.2z"/>
	<g>
		<g>
			<path class="st12" d="M324.1,291.5c17.8,12.8,55.9,18.4,68.1,19.1c12.2,0.7-6.8,34.2-6.8,34.2s-32.7,3.9-48.1,0
				C321.8,340.8,324.1,291.5,324.1,291.5z"/>
			<path class="st13" d="M293.6,624c0.2,8.8,5.2,14,13.4,20.1c8.5,6.4,9,7.1-2.8,8.6c-11.8,1.6-15.1-3.8-23-6.1
				c-7.9-2.3-2.8-7.9-3.3-13.2c-0.4-5.3-1.2-13.8-1.2-13.8L293.6,624z"/>
			<path class="st13" d="M362.7,619.6c0,0,5.3,6.1,12.3,12.1c7,6.1,24.8,8.1,16.2,10.4c-8.5,2.3-18.1,1-26.9,2.3
				c-8.8,1.3-16.5,0-17.1-2.3s0-19,0-19L362.7,619.6z"/>
			<path class="st14" d="M386.9,236c11-10.4,31.2,2.9,33.1,11.7c4.9,22.8,7.1,46.3,1.1,55.6c-6,9.3-59.1,15.1-58.5,11.8
				c0.6-3.3,0.8-23.7,9.6-33.7c8.8-10,4.8-19.7,6.4-28.9C380.6,241.4,385.1,237.7,386.9,236z"/>
			<path class="st15" d="M364.2,302.6c-3.7,26.5-7.4,76.5-18.2,88.7c-10.8,12.2-16.9,41.2-16.9,41.2s35.1-19.1,49.4-66.2
				c4.5-14.8-6.5-49.2-9.1-52.5C366.7,310.4,364.2,302.6,364.2,302.6z"/>
			<g>
				<path class="st16" d="M440.1,375.5c-2.2,2.6-8,15.4-10.9,15.4c-10,0-10.8,3.9-16.2,6.8c-7,3.7-5.5,9.4-5,9.7
					c0.5,0.3,15.4-2.3,20.3-5.5c4.1-2.7,7.1-4.2,9.1-7.1c2-3,13.5-11.5,13.5-11.5L440.1,375.5z"/>
				<path class="st17" d="M430,296.8c10.1,6.1,12,11.8,22,29.1c10,17.3,11.7,23.6,15.7,29.8c3.9,6.2,5.3,13.5-3.1,21.4
					c-8,7.5-11.7,10.6-16,9.4c-2.9-0.8-5.3-9.4-9.4-7.8c-4.1,1.6,3.1-10.5,6.9-13.9c2-1.9,2.8-1.7,2.2-2.6
					c-0.7-0.8-13.2-10.2-23.6-23.6C414.3,325.1,430,296.8,430,296.8z"/>
				<g>
					<path class="st15" d="M461.8,361.5c-4.9-2.2-11.1-1.9-15.6-1c1.2,1,1.9,1.6,2,1.8c0.7,0.8-0.2,0.7-2.2,2.6
						c-0.7,0.7-1.6,1.6-2.4,2.8c3.5-1.8,7.2-3.5,10.3-3.9c7.9-1.2,8.4,1,12.5,3.6C470.6,369.9,469.9,365.1,461.8,361.5z"/>
					<path class="st15" d="M440.2,305.9c-2.7-3.7-5.6-6.4-10.2-9.2c0,0-15.7,28.4-5.3,41.9c3.3,4.3,6.8,8.1,10.1,11.4
						C435,341,436,320.7,440.2,305.9z"/>
				</g>
				<path class="st17" d="M391.4,287.4c-13.6,3.1-24.6,7.1-27.4,15c-1.4,3.8,6.5,67,14.4,74c15.2,13.5,40.3,0.9,40.3,0.9
					s11.4-28.4,15.9-76c1.2-4.3-26-12.7-30.4-13.6C399.9,286.7,391.4,287.4,391.4,287.4z"/>
				<path class="st16" d="M396,622.3c0,0-18.6,25.8-7.4,24.9c11.2-0.9,18.5-12.4,18.5-12.4s3.9,13,15.1,12.4
					c11.2-0.6,4.9-7.4,0-15.4c-4.6-7.5-4.8-15.4-4.8-15.4L396,622.3z"/>
				<path class="st16" d="M397.6,299.7c-4.6,0-8.4-3.8-8.4-8.4v-31.2c0-4.6,3.8-8.4,8.4-8.4c4.6,0,8.4,3.8,8.4,8.4v31.2
					C406,295.9,402.2,299.7,397.6,299.7z"/>
				<path class="st18" d="M397.6,251.7c-4.6,0-8.4,3.8-8.4,8.4v14.1c5.4,7.8,11.8,12.6,16.8,15.5v-29.6
					C406,255.5,402.2,251.7,397.6,251.7z"/>
				<path class="st16" d="M418.9,255.9c2.6,11.2-1.8,21.8-10,23.7c-8.1,1.9-16.8-5.6-19.5-16.8c-2.6-11.2,1.8-21.8,10-23.7
					C407.6,237.2,416.3,244.7,418.9,255.9z"/>
				<path class="st16" d="M380.3,372.6c0,0-26.1,19.7-17.8,84.3c8.4,64.6,17.3,62.6,17.8,93.7c0.5,31.1,13.8,74,21.7,82.3
					c7.9,8.4,27.3-36.6,27.3-76.4c0-23.3,0-34.5,5.4-71s4.3-89.7-17.4-112.9C395.6,349.4,380.3,372.6,380.3,372.6z"/>
				<path class="st18" d="M401.5,517c0-15.3-5.1-47.8-3.9-92.7l-33.3,44.4c7.9,52.6,15.6,52.8,16.1,81.8
					c0.4,23.5,8.1,53.9,15.3,70.8c4.7,1.7,7.8,3.6,8.6,6.1c1.1,3.3,1.8,5.1,2.3,5.7c0.2-0.1,0.3-0.2,0.5-0.3
					c0.4-2.8-1.6-16.8-3.8-37.2C399.5,561.1,401.5,532.3,401.5,517z"/>
				<path class="st17" d="M368.6,349.5c4.3,25.5,1.7,29-4.4,50.2c-6.1,21.2-6.2,77.4-6.2,77.4s16.5,6.9,48.5,3.9
					c32-3,36.4-6.4,36.4-6.4s-3.6-54.7-8.2-71c-4.6-16.3-11.8-27.4-12.1-37.9C422.3,355.3,368.6,349.5,368.6,349.5z"/>
				<path class="st19" d="M388.5,647.1c11.2-0.9,18.5-12.4,18.5-12.4s3.9,13,15.1,12.4c9.6-0.5,6.3-5.6,2.1-12.1
					c-0.4,1.5-1.6,2.8-4.7,2.7c-6.6-0.3-12.8-8.3-12.8-8.3s-11.5,8.9-15.8,8.2c-4.3-0.6,2.1-10.9,2.1-10.9
					C388.2,634.1,380.3,647.8,388.5,647.1z"/>
			</g>
			<g>
				<path class="st16" d="M453.9,496.6c-1.3,14.8,0.1,26-2.6,38.1c-2.7,12.2-8.3,16.1-8.3,16.1l-4.9-56.9L453.9,496.6z"/>
				<path class="st20" d="M417,434.2c-10.6-22.5-11.7-29.9-5.6-35.2c6.1-5.3,7.1-12.5,17.1-9.9c10,2.6,13.3,8.4,18.2,10.5
					c4.9,2.1,3.9,15.5-2.3,19.1C438.2,422.3,417,434.2,417,434.2z"/>
				<path class="st21" d="M409,630.5c0,0-0.4,6.8,1.5,9.9c1.9,3.1,3.3,4.5-3.8,4.6c-7.1,0.1-9.1-1.7-9.6-6c-0.6-4.3-0.5-5.6,0.5-8.3
					C398.5,628.1,409,630.5,409,630.5z"/>
				<path class="st21" d="M446,631.6c0,0,8.1,7.2,12.8,8.9c4.8,1.6-1.9,5.3-10.3,3.5c-8.4-1.8-7.7,0.7-12-1.3
					c-4.3-2-0.4-12.5-0.4-12.5L446,631.6z"/>
				<path class="st19" d="M447,518.3c0,0,0,54.9,0.7,76.3c0.7,21.4,1.1,35.8,0.7,38.2c-0.2,1-9.2-0.3-13.2,0
					c-3.9,0.3-12.3-49.1-15.8-75.7c-3.5-26.6-4.9-46-4.9-46L447,518.3z"/>
				<path class="st22" d="M419.3,557.1c1.6,12.5,4.3,30.1,7.2,45.2c3.9-17.2,11.6-47.7,20.5-65.3c0-10.9,0-18.7,0-18.7l-20.4-4.5
					c-4,0.7-7.9,1.5-11.7,2.2C415.5,523.3,416.9,538.4,419.3,557.1z"/>
				<path class="st19" d="M400.3,506.5c-1.6,27-4.2,89.1-3.3,102.9c0.9,15-0.9,20.7-0.9,20.7s3.6,1.3,9.5,2c3.8,0.4,3.8,0.4,3.8,0.4
					s15-39.5,17.9-66.8c3-27.3,10.8-48.7,10.8-48.7L400.3,506.5z"/>
				<path class="st23" d="M443.1,449.3c12.7,17.1,14,50.6,14,50.6s-5.2,3.9-10.2,2C442,499.9,443.1,449.3,443.1,449.3z"/>
				<g>
					<path class="st24" d="M429.5,440.2c15.1,3.5,21.4,20.9,21.7,34.7c0.3,13.8-2.3,51-2.3,52.3c0,1.3-29.6,3.9-40.4,1.6
						c-10.8-2.3-10.8-2.3-10.8-2.3s-3-54.9,0-68.4c3-13.5,22.4-19.7,22.4-19.7L429.5,440.2z"/>
				</g>
				<g>
					<path class="st23" d="M424.3,477.6c-0.8-5,5.9-5.8,8.9-5.4c3,0.4,3.7,3.7,4.9,4.1c1.2,0.4,3-1.5,4.5-0.4
						c1.6,1.1-0.2,4.3-2.2,4.5c-2,0.2-3.1-1.8-4.5-0.9c-1.4,0.9-0.8,1.5-1.1,1.5s-5.2,0.6-5.2,0.6s-2.1-1.4-3.6-1.2
						c-1.5,0.2-0.9,1.7-0.9,1.7s-2.4-0.2-1.9-1.9C423.8,478.4,424.3,477.6,424.3,477.6z"/>
					<path class="st23" d="M435.5,480.9c1.5-1.7,3-0.1,3.7,0.5c0.7,0.6-1.2,1.7-2.6,1.7C435.1,483.2,435.5,480.9,435.5,480.9z"/>
					<path class="st23" d="M425.8,482c-0.2-1.2,2.3-1,3,0c0.7,1-1.6,2-2.4,1.7C425.7,483.5,425.8,482,425.8,482z"/>
					<path class="st23" d="M421.7,483.2c-0.2-0.5-6.5-3.1-5.8-5.5c0.7-2.4,4.9,2.8,4.9,2.8s-2.9-6.3-1.4-6.8
						c1.5-0.5,2.1,3.9,2.2,5.3C421.8,480.2,421.7,483.2,421.7,483.2z"/>
					<path class="st23" d="M439.3,472.5c0,0,0.4-5.3,2.2-4.3c1.8,1.1-1.1,4.3-1.1,4.3s3.8-3,4.7-1.3c0.9,1.6-5.8,2.3-5.8,2.3V472.5z
						"/>
				</g>
				<path class="st23" d="M410.5,506.5c1.3-16.8,4.9-40.1-5.3-56.9l-2.7-0.3c-2.3,2.5-4.1,5.5-4.8,8.9c-3,13.5,0,68.4,0,68.4
					s0,0,10.8,2.3c0.5,0.1,1,0.2,1.6,0.3C409.8,524.3,409.7,516.3,410.5,506.5z"/>
				<path class="st16" d="M425.1,449.6c-4.4,0-8.1-3.6-8.1-8.1v-14.8c0-4.4,3.6-8.1,8.1-8.1c4.4,0,8.1,3.6,8.1,8.1v14.8
					C434.3,449.3,430.3,450.3,425.1,449.6z"/>
				<path class="st18" d="M433.1,442.2v-19.6c0-2.2-1.8-3.9-3.9-3.9H421c-2.2,0-3.9,1.8-3.9,3.9v12.5
					C423.4,441,429.3,442.2,433.1,442.2z"/>
				<path class="st25" d="M446,416.7c1.5,10.6-3.9,20.1-12,21.2c-8.1,1.1-15.8-6.5-17.3-17.1c-1.5-10.6,3.9-20.1,12-21.2
					C436.8,398.4,444.5,406.1,446,416.7z"/>
				<path class="st25" d="M402.2,449.6c-14.7,6.6-16.1,54.2-16.7,61.5c-0.7,7.2,3,31.9,4.9,38.5c2,6.6,7.6,11.8,7.8,3.6
					c0.3-8.2-1.9-12.5-1.9-12.5s3,6.2,3.9,3c1-3.3-4.3-8.2-4.3-11.2c0-3,4.3-20.4,4.3-26c0-5.6,8.2-23.7,8.2-38.5
					C408.5,453.2,402.2,449.6,402.2,449.6z"/>
				<path class="st24" d="M407.2,445.1c-13.5,5.5-17.6,21.3-21.8,36.4c-4.2,15.1-4.2,15.1-4.2,15.1s22,7.8,23.3,6.9
					c1.3-0.9,6.2-28.2,5.9-39.4C410.1,452.9,407.2,445.1,407.2,445.1z"/>
				<path class="st25" d="M419.7,421c1,2.6,0.4,5.3-1.4,5.9c-1.8,0.7-4-0.9-5-3.5c-1-2.6-0.4-5.3,1.4-5.9
					C416.5,416.8,418.7,418.4,419.7,421z"/>
				<path class="st20" d="M415.2,415.3c0,0,4.1,12.7,4.9,8.1c0.8-4.6-0.5-6.8,2.6-8.1c3.1-1.3-1-10.2,3.5-9.4
					c4.4,0.8,8.1,6.2,14.8,4.9c6.7-1.3,9.5-2.8,6.7-6.5c-2.8-3.8-25.8-7.4-25.8-7.4l-9.8,11.2L415.2,415.3z"/>
				<path class="st22" d="M436.4,643.9c4.3,2,3.6-0.5,12,1.3c8.4,1.8,16.1-2.6,11.4-4.3c-0.1,0-0.2-0.1-0.3-0.1
					c-1.6,0.8-3.1,1.9-3.7,2.4c-1.1,0.9-3.9,0.2-7.9-0.4c-3.9-0.7-3.2,0.5-4.2-0.5c-0.9-1-4.8-3.7-9.2-3.7
					C434.3,640.9,434.7,643.1,436.4,643.9z"/>
				<path class="st22" d="M396.6,633.2c3.5,7.1,1.8,8.4,4.8,8.9s4-1.8,7.1-0.7c3.2,1.1,2.7,1.1,3.4,2c0.7,0.9,0.4,1.9-0.9,2.3
					c-1.3,0.3-8.1,0.4-10.7,0c-2.6-0.4-4.4-5.3-4.3-7.1C396.1,636.8,396.6,633.2,396.6,633.2z"/>
			</g>
			<path class="st14" d="M310.8,270.5c-5.2-7.3-10.4-27.1-5.8-29.2c4.6-2,3.5-5.2,8.1-11.2c4.6-5.9,23.3-8.3,28.8,1.7
				c5.5,10,7.9,11,8.1,16.4c0.2,5.4-13,18.7-13,18.7L310.8,270.5z"/>
			<path class="st16" d="M433.3,386.9c-1.5,2.3-3,4-4,4c-10,0-10.8,3.9-16.2,6.8c-7,3.7-5.5,9.4-5,9.7c0.5,0.3,15.4-2.3,20.3-5.5
				c4.1-2.7,7.1-4.2,9.1-7.1c0.4-0.6,1.1-1.3,2-2.2C437.3,390.8,435.2,389,433.3,386.9z"/>
			<path class="st16" d="M314.2,244.8c0,0-3.3,40.5-10.5,44.9c-7.2,4.4-21,20.9-19.1,56.4c2,35.5,4.6,50.8,7.2,64.5
				c2.6,13.7,51.9,5.4,57.2,0s11.2-54.3,0-79.2c-11.2-24.8-23.7-38.8-25-45c-1.3-6.1,7.2-30.8,7.2-30.8L314.2,244.8z"/>
			<path class="st18" d="M324,285.1c-0.2-7.7,7.4-29.5,7.4-29.5l-17.1-10.8c0,0-0.7,8.8-2.2,18.7C314.2,277.2,318.7,282.5,324,285.1
				z"/>
			<path class="st16" d="M345.5,256.2c1.6,11.9-2.4,21.2-11,22.4c-8.6,1.2-18.3-6.2-20-18.1c-1.6-11.9,4-22.5,12.5-23.7
				C335.5,235.6,343.8,244.3,345.5,256.2z"/>
			<path class="st16" d="M439.3,301.7c5,3.1,8.9,11,6.7,17.3c-2.2,6.4-5.3-1.8-8.6-6.5C434,307.9,435.5,299.3,439.3,301.7z"/>
			<path class="st19" d="M349.8,386.8c-3.5,41.5,8.2,135.2,8.3,156.4s8.5,79.2,8.5,79.2s-13.8,4-19.2,4.4
				c-5.4,0.5-21.1-52.5-23.4-80.6c-2.3-28.1-17-78-17-78l5-85.6L349.8,386.8z"/>
			<path class="st22" d="M349.8,386.8l-37.7-4.2l-5,85.6c0,0,14.7,49.9,17,78c0,0.4,0.1,0.7,0.1,1.1c0.3-43.3,12.9-62.1,26.2-108
				C349.1,419.1,348.7,400.2,349.8,386.8z"/>
			<path class="st19" d="M348.3,400.7c-17.8,60.2-34,116.9-44.9,154.3c-10.8,37.5-7.6,76-7.6,76l-18.2,1.5c0,0-20.5-61.8-6.7-95.2
				c13.8-33.4,7.2-53.6,9.9-84.8c3-35.2,7.9-61,7.9-61L348.3,400.7z"/>
			<path class="st26" d="M349.1,331.4c-6-13.3-12.4-23.5-17.2-31.1c-2.1-0.3-4.8-0.6-7.9-0.6c-5.1-0.1-13.9-6.6-19.2-10.9
				c-0.3,0.4-0.7,0.7-1,0.9c-7.2,4.4-21,20.9-19.1,56.4c2,35.5-5.5,47.6-2.8,61.3c2.6,13.7,62,8.5,67.3,3.2S360.3,356.3,349.1,331.4
				z"/>
			<path class="st26" d="M302.8,281.2l-5.3,14.1l33.8,13.8l3.9-3.4c0,0-5.2-7.6-3.9-12.2c1.3-4.6,2.8-5.9,0-7
				c-2.8-1.1-13-2.8-19.3-5.3C305.7,278.8,303.9,278.3,302.8,281.2z"/>
			<path class="st12" d="M355.1,360.2c-0.7-10.6-2.5-20.9-6-28.7c-1.3-2.9-2.6-5.6-4-8.3l-4.3-1.9c0,0-23.7-18.9-39.1-15.4
				c-15.5,3.5-16.1,61.1-7.2,67.4c8.9,6.3,35.5-9.7,43.7-11.1C343.6,361.3,350.8,360.6,355.1,360.2z"/>
			<path class="st26" d="M415.1,336.5c-9.7,0-19.5-0.8-27.7-3.3c-24.7-7.6-70.8-26.5-79.9-25.2c-7.1,1-15.5,8.8-14.5,33.1
				s13.5,19.4,29.1,15.4c15.6-4,36.7-1.5,65.3,0c9.7,0.5,20.3-1,30.1-3.3C417,347.6,416.2,342.1,415.1,336.5z"/>
			<path class="st16" d="M450.6,338.3c-1.7-0.9-15.9-0.2-29.5-0.5c0.8,4.7,3,12.6,3.6,17.4c14.6-4.2,26.2-4.7,26.2-4.7
				S453.7,340,450.6,338.3z"/>
			<path class="st26" d="M407.7,335.5c8.7,0.1,23.2-0.9,25.2,0.4c2,1.3,5.5,16.8-1.5,18.8c-25.5,7.2-54.1,2-88.3-0.3
				c-34.2-2.3,38.7-22.9,38.7-22.9S400.5,335.3,407.7,335.5z"/>
			<path class="st14" d="M310.8,270.5c5.8-2.9,2.9-8.4,3.4-12.1c0.5-3.7-1.1-6.7,0.3-6.4c1.4,0.2,1.1,14.2,2.8,14.1
				c1.7-0.1,1.1-10.5,2.9-10.8c1.8-0.3,2.6-2.9,1.1-7.5c-1.4-4.6-0.3-8.6,3.6-5c3.9,3.6,12.6,12,17.7,10.9c5.1-1.2,4.8-6.4,4.3-7
				c-0.4-0.6-13.5-15.2-13.5-15.2l-25.8,14.8l-0.7,13.5L310.8,270.5z"/>
			<path class="st16" d="M315.4,254.7c0.3,3.5,0.5,8.8,0.8,9.6c-2.3,0.9-5.2-0.9-6.6-4.2c-1.3-3.3-1.2-7.5,1.1-8.4
				C312.2,251.1,315,250.6,315.4,254.7z"/>
			<path class="st14" d="M417.5,246.8c-3.7,11.8-24,12-25,15.3c-1,3.3-0.3,13.6-3.3,21.7c-4.8,13-7.8,19.8-14.5,21.8
				c-6.6,2-9.4-9-9.4-9s11.9-15.7,12.6-16c0.7-0.3,6.9-40.4,6.9-40.4s15.9-2.9,16.8-3.4c0.8-0.4,12.3,4.7,12.3,4.7L417.5,246.8z"/>
		</g>
		<path class="st16" d="M435.5,338.9c2.5,0,15.5-7.3,18-7.5c2.5-0.2,12.2,2.4,12.2,2.4s-18.7,14.5-19.1,14.3
			C446.3,348,435.5,338.9,435.5,338.9z"/>
		<path class="st18" d="M490,351.4l-14.1-1.4c0,0-7.6,6.7-14.5,8.3c-6.9,1.6-12.5-5.8-12.5-5.8l10.7-12.6l18.9-2.1l14.3,1.5
			L490,351.4z"/>
		<path class="st16" d="M443,349.5c0,0,8.7,7,16.1,8c7.4,1,11.5-2.6,14.1-5c2.6-2.4-5.6-4.9-8.5-7.8c-3-2.9-0.8-7.7-0.8-7.7h-12.9
			L443,349.5z"/>
		<path class="st18" d="M490,337.8l-14.3-1.6c0,0-5.9-5.2-8.9-4.8c-3,0.4-10.5,6.4-10.5,6.4s-6.5,6.1-4.2,6.7
			c2.3,0.7,8.8-1.3,9.7-2.8c0.8-1.5-1.6,0.5,5.8,0c7.4-0.5,8.2-1.8,8.2-1.8l14.3,1.1V337.8z"/>
		<path class="st18" d="M447.2,353.2c1.9-2.9,4.5-4.6,9.1-2c4.6,2.5,6,6.1,5.1,7.2c-0.9,1.1-9.5-1.8-12.8-2.7
			C446.1,354.8,447.2,353.2,447.2,353.2z"/>
		<g>
			<path class="st14" d="M624.2,266.3c2.5-9.4,9.3-31.9-1.5-36.9c-10.8-4.9-16.2-12.2-27-8.5c-10.8,3.7-8.7,12.2-12.5,16.8
				s2.6,19.8,8.8,25.2C598,268.4,624.2,266.3,624.2,266.3z"/>
			<polygon class="st27" points="489.8,336.6 480.7,336.2 476.8,353.9 492.1,356.8 			"/>
			<path class="st14" d="M634.5,302.3c14.3,20.1,5.6,35.5-12.2,48.5c-17.8,13-59.8,17.1-77.6,17.9s-62.1-12.8-62.1-12.8l2.7-19.6
				c0,0,42,4,58.3,1.2c16.3-2.8,74-35.2,74-35.2H634.5z"/>
			<path class="st28" d="M601.2,311.2c-5.1,2.7-11,5.8-17,8.9c-5.9,15.3-7.5,31.1-36.1,41.5c-6.6,2.4-12.9,4.1-18.7,5.3
				c6,1.2,11.4,1.9,15.5,1.8c12.9-0.6,41.8,1.1,61.7-5.1C605.8,348.2,601.7,324,601.2,311.2z"/>
			<polygon class="st16" points="617.9,247.2 628.8,282.4 606.4,309.9 613,286.3 606.4,262.2 			"/>
			<path class="st18" d="M617.9,247.2l-11.5,15l6.5,24c4.1-7,7.4-15.5,9.3-24.8L617.9,247.2z"/>
			<path class="st16" d="M618.3,261.4c-3.7,11.6-13.8,18.8-22.4,16c-8.7-2.8-12.6-14.5-8.9-26.1c3.7-11.6,13.8-18.8,22.4-16
				C618.1,238.1,622,249.8,618.3,261.4z"/>
			<path class="st26" d="M607.6,296.7c0,0-6.6,3.9-6.6,7c0,3.1,0,4.8,0,4.8s-5.7,8.7-10.1,19.9c-4.4,11.2-4.2,16.9-4.2,16.9
				l27.8-42.3L607.6,296.7z"/>
			<path class="st28" d="M646.7,630.2c-0.2,8.8-9.9,15-14.5,17.3c-14.4,7.3-16.9,11.9-1.1,11.6c11.9-0.2,20.2-4.8,33.1-5.7
				c8.2-0.6,2.3-9.7,2.7-14.9c0.4-5.3-3.3-12.7-3.3-12.7L646.7,630.2z"/>
			<path class="st28" d="M577.7,625.8c0,0-2.9,4-9.9,10s-31.7,6.3-18.6,12.5c8,3.8,22.7,1,31.5,2.3c8.8,1.3,16.5,0,17.1-2.3
				c0.7-2.3-1.8-18.4-1.8-18.4L577.7,625.8z"/>
			<path class="st14" d="M590.6,393c3.5,41.5-8.2,135.2-8.3,156.4c-0.1,21.2-12.1,82.9-12.1,82.9s23.1,9.4,28.6,9.8
				c5.4,0.5,16.9-53.8,19.2-81.9c2.3-28.1,15.3-85.9,15.3-85.9l-5-85.6L590.6,393z"/>
			<path class="st28" d="M614.9,584.2c1.4-8.8,2.5-17.2,3.1-24c2.3-28.1,15.3-85.9,15.3-85.9l-1.7-28.5l-41.6-0.6
				c-0.9,15.3-2.1,31.3-3.4,46.2C602.7,526.2,611.1,562.9,614.9,584.2z"/>
			<path class="st14" d="M592.1,406.9c16.1,87.1,27.9,121.8,38.8,159.2c10.8,37.5,8.4,76,8.4,76l30.1,3.8c0,0,11.8-68.2,0.2-102.5
				c-7.1-21-2.4-49.5-5-80.7c-3-35.2-5.5-71.3-5.5-71.3L592.1,406.9z"/>
			<path class="st28" d="M654.6,437.3l-52,22.5c0.2,1.1-0.2,6.4,0,7.4c25.5,2.1,41.6-0.3,62.4,4.8c-0.5-6.1-1.5-20.5-1.9-26.7
				L654.6,437.3z"/>
			<path class="st14" d="M632.6,285.7c21.7,20.5,29.6,42.2,28.9,54.1c-1.5,24.1,3.1,116.9,3.1,116.9s-12.7,2.9-34.1,6.8
				c-21.4,3.9-42-1.8-42-1.8s-3.6-66.3-3.4-107.9C585.1,328.4,632.6,285.7,632.6,285.7z"/>
			<path class="st28" d="M653.8,459c0.6-11,4.5-88.2,3.9-89.4c-0.7-1.3-25.6-59.6-25.6-59.6c-13.4,18.2-14.2,56.1-14,76.5
				c0.2,18.4,5.7,68.2,6.8,77.9c1.8-0.2,3.7-0.5,5.6-0.8C639.9,461.8,647.8,460.2,653.8,459z"/>
			<polygon class="st27" points="630.9,280.1 626.7,272 606.4,288.4 605.2,310.9 			"/>
			<path class="st28" d="M627.4,298.3c0,0,8.3-3.8,15.9-1.2c-3.1-3.8-6-7.6-10.7-12.1c0,0-47.4,42.8-47.5,68.1
				c0,6.2,0.1,12.5,0.4,18.7c0.2-12.7-1.7-21.9,10.8-38.5c11.1-14.7,34.6-26.8,34.6-26.8L627.4,298.3z"/>
			<path class="st14" d="M631.1,278.1l6,11.4L622.3,300l4,6.6c0,0-17.8,11.3-25.2,17.1c-12.5,9.7-16.9,32.7-16.9,32.7
				s1.8-23,16.9-42C614.9,296.9,631.1,278.1,631.1,278.1z"/>
			<polygon class="st29" points="610.7,457.9 673.9,465.6 669.6,507.4 609.5,501.3 			"/>
			<path class="st16" d="M646.9,430.8l-6.4,23.3l-9.6,6.5l7.8,1.3c0,0-1.4,13.9-4.1,20.2c-2.6,6.3,0.2,8.4,10.9,1
				c10.7-7.3,13.7-10.9,13-19.5c-0.7-8.6-2.7-9.7-1.6-16.8c1.1-7.1-10.3-17.4-10.3-17.4L646.9,430.8z"/>
			<polygon class="st27" points="640.1,442.6 637.9,454.5 658.7,457.9 662.1,442.6 			"/>
			<path class="st14" d="M645.8,302.3c7.8,3.2,17.8,31.8,32.4,82.7c3.5,12.3-16.1,67.9-16.1,67.9s-25-1.6-25.4-5.6
				c-0.2-2.3,11-46.5,9.5-50.7c-1.5-4.3-10.1-17.2-17.5-46.2C621.4,321.4,631.5,296.4,645.8,302.3z"/>
			<path class="st14" d="M587.6,233.8c-7.8,19.5,9.1,17.5,16.2,11.4c7.1-6,8-0.8,7.9,6.3c-0.1,6.7,2.5,1.8,1.9,9.4
				c-0.6,7.6-1.1,7.9,1.4,5.3c2.5-2.6,3.3-12.2,3.3-12.2s-0.6,12.4,3,13.3c3.5,0.8,3-1,3-1l0.8-20.8l-15.6-17.5c0,0-20,0.2-20.1,0.8
				C589.2,229.5,587.6,233.8,587.6,233.8z"/>
			<path class="st16" d="M618.2,254c2.4-5.3,7.7-2.8,6.3,3.4c-1.4,6.2-7.2,6.7-7.2,6.7L618.2,254z"/>
		</g>
	</g>
	<text transform="matrix(1 0 0 1 257.0932 175.6451)" class="st3 st30 st31">Solicitud de seguros</text>
</g>
</svg>
