<svg xmlns="http://www.w3.org/2000/svg" xmlns:xlink="http://www.w3.org/1999/xlink" viewBox="0 0 1042.44 765.1"><defs><style>.cls-1,.cls-12{fill:#245189;}.cls-1{opacity:0.75;}.cls-14,.cls-2,.cls-3,.cls-7{fill:#fff;}.cls-2,.cls-6{opacity:0.6;}.cls-3{opacity:0.78;}.cls-4{fill:url(#linear-gradient);}.cls-5{fill:url(#linear-gradient-2);}.cls-8{fill:url(#linear-gradient-3);}.cls-9{fill:url(#linear-gradient-4);}.cls-10{fill:url(#linear-gradient-5);}.cls-11{fill:url(#linear-gradient-6);}.cls-13{fill:url(#linear-gradient-7);}.cls-14{opacity:0.5;}.cls-15{fill:#e1e1e1;}.cls-16{fill:#f5f5f5;}.cls-17{fill:#ececec;}.cls-18{fill:#1a2e35;}.cls-19{opacity:0.3;}.cls-20{fill:#375a64;}.cls-21{fill:#eb4a2a;}.cls-22{font-size:42.14px;font-family:FranklinGothic-Demi, Franklin Gothic Demi;font-weight:300;}.cls-22,.cls-23{fill:#f15a24;}.cls-24{fill:#c07560;}.cls-25{fill:#7c4236;}.cls-26{fill:#d47800;}.cls-27{fill:#ffc19d;}.cls-28{fill:#ff9c6a;}.cls-29{fill:#00a0e4;}</style><linearGradient id="linear-gradient" x1="1302.08" y1="-306.89" x2="1094.77" y2="1.76" gradientTransform="translate(217.62 -1065.78) rotate(80.72)" gradientUnits="userSpaceOnUse"><stop offset="0" stop-color="#fdf53f"/><stop offset="1" stop-color="#d93c65"/></linearGradient><linearGradient id="linear-gradient-2" x1="1337.49" y1="-283.1" x2="1130.17" y2="25.54" gradientTransform="matrix(0.98, 0.21, -0.21, 0.98, -618.32, 135.84)" xlink:href="#linear-gradient"/><linearGradient id="linear-gradient-3" x1="1296.69" y1="-108.99" x2="1141.78" y2="155.4" gradientTransform="matrix(0.98, 0.21, -0.21, 0.98, -618.32, 135.84)" gradientUnits="userSpaceOnUse"><stop offset="0" stop-color="#a737d5"/><stop offset="1" stop-color="#ef497a"/></linearGradient><linearGradient id="linear-gradient-4" x1="1325.05" y1="-92.37" x2="1170.14" y2="172.02" xlink:href="#linear-gradient-3"/><linearGradient id="linear-gradient-5" x1="1348.89" y1="-27.2" x2="1145.07" y2="256.99" xlink:href="#linear-gradient-3"/><linearGradient id="linear-gradient-6" x1="1381.76" y1="-59.14" x2="1226.86" y2="205.25" xlink:href="#linear-gradient-3"/><linearGradient id="linear-gradient-7" x1="-271.84" y1="611.93" x2="-426.74" y2="876.31" gradientTransform="translate(547.7 -300.72) rotate(-11.48)" xlink:href="#linear-gradient-3"/></defs><g id="Capa_2" data-name="Capa 2"><g id="Capa_1-2" data-name="Capa 1"><path class="cls-1" d="M562.73,11.63A14.53,14.53,0,0,1,581.85.85c55.22,19.69,245.66,84.73,409.89,106.38a13.43,13.43,0,0,1,11.54,15.39l-95.54,613a15.46,15.46,0,0,1-17.57,12.91c-68.81-10.3-352-53.75-449.66-85.25a12.25,12.25,0,0,1-8.22-14.12Z"/><path class="cls-2" d="M566.23,28.23a14,14,0,0,1,18.39-10.37c53.14,19,236.41,81.53,394.46,102.37A12.94,12.94,0,0,1,990.19,135l-92,589.89a14.88,14.88,0,0,1-16.9,12.43c-66.23-9.92-338.77-51.73-432.73-82a11.81,11.81,0,0,1-7.92-13.6Z"/><path class="cls-3" d="M618,76.88a8.64,8.64,0,0,0-10.6,7L586.84,210.17a8.12,8.12,0,0,0,6.12,9.21c23,5.54,94.82,22.51,136,29a9.07,9.07,0,0,0,10.22-6.81c5.72-23.29,21.81-91.19,22.48-120.86a10.23,10.23,0,0,0-7.79-10.15Z"/><circle class="cls-4" cx="676.74" cy="145.2" r="27.48" transform="translate(296.87 723.78) rotate(-68.82)"/><path class="cls-5" d="M619.27,215.53l85.65,18.05a6.78,6.78,0,0,0,7.73-9.05c-4.88-12.92-16.58-32.85-43.1-37.65-25.56-4.63-43.8,7.3-53.66,16.54A7.09,7.09,0,0,0,619.27,215.53Z"/><g class="cls-6"><path class="cls-7" d="M947.61,167c2.68.56,5.22-.87,5.64-3.2s-1.43-4.72-4.1-5.33L799.59,124.11c-2.67-.61-4.57,1.11-4.21,3.83l.29,2.19a7.56,7.56,0,0,0,5.53,6Z"/></g><g class="cls-6"><path class="cls-7" d="M794.67,147.43c-2.67-.62-4.56,1.11-4.2,3.82l.29,2.2a7.56,7.56,0,0,0,5.52,6l146.41,30.85c2.69.57,5.22-.87,5.64-3.19s-1.42-4.72-4.09-5.34Z"/></g><g class="cls-6"><path class="cls-7" d="M789.69,171.08c-2.67-.61-4.57,1.11-4.21,3.83l.29,2.19a7.57,7.57,0,0,0,5.53,6l146.41,30.86c2.68.56,5.22-.88,5.64-3.2s-1.43-4.72-4.1-5.33Z"/></g><g class="cls-6"><path class="cls-7" d="M928.25,331.07c2.68.57,5.15-.88,5.48-3.22s-1.58-4.74-4.26-5.32l-351.12-76.9c-2.68-.59-3.86.94-2.64,3.39l2.12,4.21a11.77,11.77,0,0,0,7.11,5.49Z"/></g><g class="cls-6"><path class="cls-7" d="M573.44,268.94c-2.68-.58-3.87.94-2.64,3.39l2.11,4.22A11.71,11.71,0,0,0,580,282l343.31,72.36c2.68.56,5.15-.89,5.48-3.23s-1.58-4.73-4.26-5.32Z"/></g><path class="cls-2" d="M563.64,307.54c8.6,1.13,24.5,4.17,33.24,5.88a8.09,8.09,0,0,1,6.53,7.69,131.58,131.58,0,0,1-3,32.7,7.16,7.16,0,0,1-8.53,5.37l-32.09-7.12a7.88,7.88,0,0,1-6.13-8.61l3.55-30.86A5.74,5.74,0,0,1,563.64,307.54Z"/><g class="cls-6"><path class="cls-7" d="M620.51,332.5a4,4,0,0,0-5.12,3.75l-.31,5.35a6,6,0,0,0,4.58,6l78.13,16.47a4.93,4.93,0,0,0,5.84-3.86l.26-1.33a5.33,5.33,0,0,0-3.86-6.12Z"/></g><path class="cls-2" d="M738.89,344.47c8.6,1.14,24.5,4.17,33.24,5.89a8.07,8.07,0,0,1,6.52,7.68,131.49,131.49,0,0,1-3,32.7,7.17,7.17,0,0,1-8.53,5.38L735,389a7.89,7.89,0,0,1-6.14-8.61l3.55-30.85A5.76,5.76,0,0,1,738.89,344.47Z"/><g class="cls-6"><path class="cls-7" d="M795.76,369.44a4,4,0,0,0-5.12,3.74l-.31,5.35a6,6,0,0,0,4.58,6L873,401a4.92,4.92,0,0,0,5.84-3.86l.26-1.32a5.33,5.33,0,0,0-3.86-6.12Z"/></g><path class="cls-7" d="M583.73,437.17l-.08,0L554,430.61c-4.23-.93-7.12-4.59-6.71-8.5L550,396.65a5.5,5.5,0,0,1,2.14-3.8,6.62,6.62,0,0,1,5-1.28h0c2.54.35,6.12.8,9.92,1.27,8,1,17.93,2.21,23.45,3.3,4,.82,6.88,3.89,7.08,7.56.34,6.05-2.07,16.84-4.8,28.31C591.87,435.73,587.83,438,583.73,437.17Zm-27-43.29a4.28,4.28,0,0,0-3.26.81,3.2,3.2,0,0,0-1.25,2.2l-2.64,25.46c-.29,2.73,1.82,5.31,4.9,6l29.62,6.54h.06c2.87.61,5.68-.92,6.28-3.42,2.68-11.29,5.06-21.9,4.74-27.64a6.28,6.28,0,0,0-5.21-5.41c-5.43-1.07-15.33-2.29-23.29-3.27-3.8-.47-7.4-.92-10-1.27Z"/><path class="cls-2" d="M559.43,397.12c6.32.89,20.17,2.37,26.61,3.64A5.87,5.87,0,0,1,591,406c.28,4.85-1.81,13.95-3.81,22.35a5,5,0,0,1-6.17,3.42l-23.67-5.23a5.59,5.59,0,0,1-4.64-5.79l2.11-20.34A3.93,3.93,0,0,1,559.43,397.12Z"/><g class="cls-6"><path class="cls-7" d="M613.28,426.13a7.54,7.54,0,0,0,6,7l275.14,55.54a5.69,5.69,0,0,0,2.32-11.15L622.39,418.39A7.53,7.53,0,0,0,613.28,426.13Z"/></g><path class="cls-8" d="M559.87,401.29h0a4.65,4.65,0,0,1,5.92,3l3.64,11.72a1.5,1.5,0,0,0,2.64.44l21.34-29.27a1.66,1.66,0,0,1,3,1.36c-2.23,9.85-8.82,28.1-27.94,40.5,0,0-8-5.22-11.76-22.09A4.89,4.89,0,0,1,559.87,401.29Z"/><path class="cls-7" d="M570.32,500.79l-.08,0-29.63-6.54c-4.23-.93-7.11-4.59-6.71-8.5l2.64-25.46a5.54,5.54,0,0,1,2.14-3.8,6.63,6.63,0,0,1,5-1.28h0c2.54.35,6.12.8,9.92,1.26,8,1,17.94,2.22,23.45,3.31l.12,0a8.45,8.45,0,0,1,7,7.54c.35,6.05-2.07,16.84-4.79,28.31C578.46,499.35,574.42,501.65,570.32,500.79Zm-27-43.29a4.29,4.29,0,0,0-3.26.81,3.2,3.2,0,0,0-1.25,2.2L536.22,486c-.29,2.73,1.82,5.31,4.9,6l29.62,6.54h.06c2.88.61,5.68-.92,6.28-3.42,2.68-11.29,5.06-21.9,4.74-27.64a6.24,6.24,0,0,0-5.21-5.41c-5.43-1.07-15.33-2.29-23.29-3.27-3.8-.47-7.4-.92-10-1.27Z"/><path class="cls-2" d="M546,460.74c6.32.89,20.17,2.37,26.61,3.64a5.88,5.88,0,0,1,4.92,5.19c.27,4.85-1.82,13.95-3.81,22.35a5.06,5.06,0,0,1-6.18,3.42l-23.67-5.23a5.6,5.6,0,0,1-4.64-5.79L541.36,464A3.93,3.93,0,0,1,546,460.74Z"/><g class="cls-6"><path class="cls-7" d="M599.88,489.75a7.51,7.51,0,0,0,6,7l275.14,55.54a5.69,5.69,0,0,0,2.32-11.15L609,482A7.53,7.53,0,0,0,599.88,489.75Z"/></g><path class="cls-9" d="M546.46,464.91h0a4.65,4.65,0,0,1,5.92,3L556,479.67a1.49,1.49,0,0,0,2.63.44L580,450.84a1.66,1.66,0,0,1,3,1.36c-2.23,9.85-8.82,28.1-27.93,40.5,0,0-8-5.22-11.77-22.09A4.89,4.89,0,0,1,546.46,464.91Z"/><path class="cls-7" d="M556.91,564.41l-.08,0-29.62-6.54c-4.24-.93-7.12-4.59-6.72-8.5l2.64-25.46a5.58,5.58,0,0,1,2.14-3.8,6.63,6.63,0,0,1,5-1.28h0c2.54.35,6.12.8,9.92,1.26,8,1,17.94,2.22,23.45,3.31l.12,0a8.47,8.47,0,0,1,7,7.54c.34,6-2.08,16.84-4.8,28.31C565.05,563,561,565.27,556.91,564.41ZM530,521.11a4.34,4.34,0,0,0-3.26.82,3.2,3.2,0,0,0-1.25,2.2l-2.64,25.46c-.28,2.73,1.82,5.31,4.9,6l29.62,6.54h.06c2.88.61,5.69-.92,6.28-3.42,2.68-11.29,5.06-21.9,4.74-27.64a6.22,6.22,0,0,0-5.21-5.41c-5.43-1.07-15.33-2.29-23.29-3.27-3.8-.47-7.4-.92-9.95-1.28Z"/><path class="cls-2" d="M532.61,524.36c6.33.89,20.17,2.37,26.61,3.64a5.87,5.87,0,0,1,4.92,5.19c.27,4.85-1.82,13.95-3.81,22.35a5.05,5.05,0,0,1-6.18,3.41l-23.67-5.22a5.61,5.61,0,0,1-4.64-5.79L528,527.6A3.94,3.94,0,0,1,532.61,524.36Z"/><g class="cls-6"><path class="cls-7" d="M586.47,553.37a7.51,7.51,0,0,0,6,7l275.14,55.54A5.7,5.7,0,0,0,870,604.76L595.58,545.62A7.54,7.54,0,0,0,586.47,553.37Z"/></g><path class="cls-10" d="M533.05,528.53h0a4.66,4.66,0,0,1,5.93,3l3.64,11.73a1.49,1.49,0,0,0,2.63.44l21.34-29.27a1.66,1.66,0,0,1,2.95,1.36c-2.23,9.85-8.82,28.1-27.93,40.5,0,0-8-5.22-11.76-22.09A4.88,4.88,0,0,1,533.05,528.53Z"/><path class="cls-7" d="M543.5,628l-.08,0-29.62-6.54c-4.23-.93-7.12-4.59-6.72-8.5l2.64-25.46a5.58,5.58,0,0,1,2.14-3.8,6.64,6.64,0,0,1,5-1.28h0c2.54.35,6.13.79,9.92,1.26,8,1,17.94,2.22,23.45,3.31l.12,0a8.46,8.46,0,0,1,7,7.54c.34,6.05-2.08,16.84-4.8,28.31C551.64,626.59,547.61,628.89,543.5,628Zm-27-43.3a4.32,4.32,0,0,0-3.25.82,3.21,3.21,0,0,0-1.26,2.2l-2.64,25.46c-.28,2.73,1.82,5.31,4.9,6l29.62,6.55H544c2.88.6,5.69-.92,6.28-3.42C553,611,555.33,600.42,555,594.69a6.21,6.21,0,0,0-5.21-5.41c-5.43-1.07-15.33-2.29-23.28-3.27-3.81-.47-7.4-.92-10-1.28Z"/><path class="cls-2" d="M519.2,588c6.33.89,20.17,2.37,26.62,3.64a5.87,5.87,0,0,1,4.91,5.19c.27,4.84-1.82,14-3.81,22.35a5,5,0,0,1-6.17,3.41l-23.68-5.22a5.62,5.62,0,0,1-4.64-5.79l2.11-20.35A3.94,3.94,0,0,1,519.2,588Z"/><g class="cls-6"><path class="cls-7" d="M573.06,617h0a7.53,7.53,0,0,0,6,7l275.14,55.54a5.7,5.7,0,0,0,2.33-11.15L582.17,609.24A7.54,7.54,0,0,0,573.06,617Z"/></g><path class="cls-11" d="M519.64,592.15h0a4.66,4.66,0,0,1,5.93,3l3.64,11.73a1.5,1.5,0,0,0,2.64.44l21.33-29.27a1.65,1.65,0,0,1,3,1.35c-2.23,9.86-8.81,28.11-27.93,40.51,0,0-8-5.22-11.76-22.09A4.88,4.88,0,0,1,519.64,592.15Z"/><path class="cls-1" d="M95.5,103.35a14.53,14.53,0,0,1,13.27-17.48c58.49-3.84,259.11-19.73,418.44-65a13.45,13.45,0,0,1,16.71,9.54L699.49,630.93a15.46,15.46,0,0,1-11,18.82C621.24,667.61,344.05,740.12,241.92,750a12.25,12.25,0,0,1-13.15-9.7Z"/><path class="cls-2" d="M105.3,117.2a14,14,0,0,1,12.76-16.82c56.3-3.7,249.36-19,402.69-62.58A12.93,12.93,0,0,1,536.83,47L686.54,624.91A14.87,14.87,0,0,1,676,643c-64.73,17.18-331.48,87-429.75,96.43a11.78,11.78,0,0,1-12.66-9.33Z"/><path class="cls-3" d="M165.16,152,196.42,276a8.13,8.13,0,0,0,9.27,6c23.33-4.06,96-17,136.36-27.4a9.07,9.07,0,0,0,6.67-10.3c-4-23.65-16.17-92.37-27.33-119.86a10.24,10.24,0,0,0-11.19-6.23l-138.08,23A8.65,8.65,0,0,0,165.16,152Z"/><circle class="cls-12" cx="253.16" cy="180.7" r="27.48" transform="translate(55.66 420.99) rotate(-86.1)"/><path class="cls-12" d="M228.31,268.06l85.79-17.42a6.78,6.78,0,0,0,3.49-11.37c-9.6-9.92-28.24-23.58-54.49-17.46-25.3,5.9-37.31,24.09-42.69,36.48A7.08,7.08,0,0,0,228.31,268.06Z"/><g class="cls-6"><path class="cls-7" d="M510.41,93.18c2.69-.55,4.45-2.88,3.91-5.17s-3.18-3.77-5.88-3.28l-150.9,27.86c-2.69.5-3.75,2.83-2.34,5.19l1.14,1.89a7.55,7.55,0,0,0,7.44,3.29Z"/></g><g class="cls-6"><path class="cls-7" d="M362.29,135.94c-2.7.5-3.75,2.83-2.35,5.19l1.14,1.89a7.55,7.55,0,0,0,7.44,3.29l146.64-29.78c2.68-.55,4.44-2.88,3.9-5.17s-3.18-3.77-5.87-3.28Z"/></g><g class="cls-6"><path class="cls-7" d="M367.1,159.63c-2.7.5-3.75,2.83-2.34,5.19l1.13,1.89a7.56,7.56,0,0,0,7.44,3.29L520,140.22c2.68-.55,4.44-2.88,3.91-5.17s-3.19-3.77-5.88-3.28Z"/></g><g class="cls-6"><path class="cls-7" d="M557.78,251.5c2.68-.55,4.37-2.86,3.75-5.14s-3.33-3.72-6-3.19L202.7,311.93c-2.69.53-3.17,2.4-1.07,4.16l3.61,3a11.72,11.72,0,0,0,8.7,2.21Z"/></g><g class="cls-6"><path class="cls-7" d="M207.44,335.28c-2.69.53-3.17,2.4-1.07,4.16l3.61,3a11.74,11.74,0,0,0,8.71,2.21l343.83-69.83c2.68-.55,4.37-2.86,3.75-5.14s-3.33-3.72-6-3.19Z"/></g><path class="cls-2" d="M213.77,374.59c8.34-2.37,24.14-5.89,32.84-7.78a8.06,8.06,0,0,1,9,4.46,130.91,130.91,0,0,1,10.21,31.21,7.16,7.16,0,0,1-5.69,8.32L227.88,417a7.89,7.89,0,0,1-9-5.47l-9-29.74A5.75,5.75,0,0,1,213.77,374.59Z"/><g class="cls-6"><path class="cls-7" d="M275.88,374.94a4,4,0,0,0-3.22,5.47l1.84,5a6,6,0,0,0,6.59,3.7l78.24-15.9a4.92,4.92,0,0,0,3.84-5.86l-.29-1.32a5.33,5.33,0,0,0-6-4.08Z"/></g><path class="cls-2" d="M389.29,338.94c8.33-2.37,24.13-5.89,32.84-7.78a8.06,8.06,0,0,1,9,4.46,131.82,131.82,0,0,1,10.21,31.21,7.18,7.18,0,0,1-5.69,8.32l-32.29,6.2a7.9,7.9,0,0,1-9-5.47l-9-29.73A5.76,5.76,0,0,1,389.29,338.94Z"/><g class="cls-6"><path class="cls-7" d="M451.39,339.29a4,4,0,0,0-3.21,5.47l1.83,5a6,6,0,0,0,6.59,3.69l78.25-15.9a4.91,4.91,0,0,0,3.83-5.86l-.28-1.32a5.33,5.33,0,0,0-6-4.08Z"/></g><path class="cls-7" d="M283.65,485.61l-.08,0-29.79,5.75c-4.25.82-8.35-1.39-9.53-5.14l-7.68-24.41a5.55,5.55,0,0,1,.45-4.34,6.65,6.65,0,0,1,4.09-3.17h0c2.47-.68,5.94-1.7,9.61-2.77,7.73-2.27,17.34-5.09,22.83-6.28a8.48,8.48,0,0,1,9.51,4.14c2.71,5.41,4.78,16.27,6.83,27.88C290.56,481.06,287.76,484.77,283.65,485.61Zm-41.92-29a4.32,4.32,0,0,0-2.66,2,3.22,3.22,0,0,0-.28,2.53l7.68,24.41c.83,2.62,3.78,4.15,6.87,3.55l29.79-5.75h.06c2.88-.59,4.85-3.1,4.41-5.64-2-11.43-4.05-22.11-6.62-27.24-1.15-2.3-4-3.48-6.93-2.9-5.41,1.17-15,4-22.67,6.23-3.68,1.08-7.16,2.1-9.65,2.79Z"/><path class="cls-2" d="M245.45,458.49c6.16-1.69,19.46-5.83,25.88-7.22a5.89,5.89,0,0,1,6.57,2.81c2.17,4.34,3.87,13.54,5.37,22A5.06,5.06,0,0,1,279,481.7l-23.8,4.59a5.6,5.6,0,0,1-6.56-3.47l-6.14-19.51A3.94,3.94,0,0,1,245.45,458.49Z"/><g class="cls-6"><path class="cls-7" d="M306.4,463.74a7.54,7.54,0,0,0,8.32,4L589.3,409.57A5.7,5.7,0,0,0,587,398.41L311.69,453A7.54,7.54,0,0,0,306.4,463.74Z"/></g><path class="cls-7" d="M296.59,549.33h-.08l-29.78,5.75c-4.26.83-8.36-1.38-9.54-5.14l-7.68-24.41a5.53,5.53,0,0,1,.45-4.33,6.63,6.63,0,0,1,4.1-3.17h0c2.47-.68,5.93-1.7,9.6-2.78C271.39,513,281,510.18,286.5,509l.12,0a8.46,8.46,0,0,1,9.38,4.16c2.72,5.41,4.78,16.28,6.83,27.89C303.5,544.78,300.7,548.49,296.59,549.33Zm-41.92-29.05a4.33,4.33,0,0,0-2.66,2,3.2,3.2,0,0,0-.28,2.52l7.68,24.41c.83,2.63,3.78,4.15,6.87,3.56l29.79-5.76h.06c2.88-.58,4.85-3.1,4.41-5.63-2-11.43-4.05-22.11-6.62-27.25a6.22,6.22,0,0,0-6.93-2.89c-5.41,1.17-15,4-22.67,6.23-3.68,1.08-7.16,2.1-9.65,2.78Z"/><path class="cls-2" d="M258.4,522.21c6.15-1.7,19.45-5.83,25.87-7.22a5.87,5.87,0,0,1,6.57,2.81c2.17,4.34,3.87,13.53,5.37,22a5,5,0,0,1-4.31,5.58L268.1,550a5.6,5.6,0,0,1-6.56-3.47L255.4,527A3.94,3.94,0,0,1,258.4,522.21Z"/><g class="cls-6"><path class="cls-7" d="M319.34,527.46a7.54,7.54,0,0,0,8.32,4l274.59-58.22A5.7,5.7,0,0,0,600,462.12L324.63,516.74A7.53,7.53,0,0,0,319.34,527.46Z"/></g><path class="cls-7" d="M309.54,613l-.09,0-29.78,5.75c-4.26.82-8.36-1.39-9.54-5.14l-7.68-24.41a5.55,5.55,0,0,1,.45-4.34,6.73,6.73,0,0,1,4.1-3.17h0c2.47-.68,5.93-1.69,9.6-2.77,7.73-2.27,17.35-5.09,22.84-6.27l.12,0a8.45,8.45,0,0,1,9.38,4.16c2.72,5.41,4.78,16.27,6.83,27.88C316.44,608.49,313.65,612.21,309.54,613Zm-41.92-29a4.29,4.29,0,0,0-2.67,2,3.2,3.2,0,0,0-.28,2.52L272.35,613c.83,2.62,3.78,4.15,6.88,3.55L309,610.77h.06c2.88-.59,4.86-3.1,4.41-5.63-2-11.43-4.05-22.12-6.62-27.25a6.22,6.22,0,0,0-6.93-2.9c-5.41,1.17-15,4-22.67,6.24-3.68,1.07-7.16,2.09-9.64,2.78Z"/><path class="cls-2" d="M271.34,585.92c6.15-1.69,19.45-5.83,25.87-7.21a5.87,5.87,0,0,1,6.57,2.81c2.17,4.34,3.87,13.53,5.37,22a5,5,0,0,1-4.31,5.59l-23.8,4.6a5.61,5.61,0,0,1-6.56-3.48l-6.14-19.51A3.94,3.94,0,0,1,271.34,585.92Z"/><g class="cls-6"><path class="cls-7" d="M332.28,591.18a7.54,7.54,0,0,0,8.32,4L615.19,537a5.7,5.7,0,0,0-2.29-11.16L337.57,580.45A7.54,7.54,0,0,0,332.28,591.18Z"/></g><path class="cls-7" d="M322.48,676.76h-.08l-29.79,5.76c-4.26.82-8.36-1.39-9.54-5.14L275.39,653a5.49,5.49,0,0,1,.46-4.33,6.65,6.65,0,0,1,4.09-3.17h0c2.47-.68,5.93-1.7,9.6-2.77,7.73-2.27,17.35-5.09,22.84-6.28l.12,0a8.46,8.46,0,0,1,9.39,4.15c2.71,5.41,4.77,16.28,6.82,27.89C329.38,672.21,326.59,675.92,322.48,676.76Zm-41.92-29a4.28,4.28,0,0,0-2.67,2,3.2,3.2,0,0,0-.27,2.52l7.67,24.42c.83,2.62,3.78,4.15,6.88,3.55L322,674.49l.06,0c2.88-.58,4.86-3.09,4.41-5.63-2-11.43-4.05-22.11-6.62-27.24a6.19,6.19,0,0,0-6.93-2.9c-5.41,1.17-15,4-22.67,6.23-3.68,1.08-7.16,2.1-9.64,2.79Z"/><path class="cls-2" d="M284.28,649.64c6.16-1.7,19.45-5.83,25.87-7.22a5.88,5.88,0,0,1,6.57,2.81c2.18,4.34,3.87,13.53,5.37,22a5,5,0,0,1-4.31,5.59L294,677.44a5.6,5.6,0,0,1-6.56-3.47l-6.13-19.51A3.93,3.93,0,0,1,284.28,649.64Z"/><g class="cls-6"><path class="cls-7" d="M345.22,654.89h0a7.55,7.55,0,0,0,8.32,4l274.59-58.21a5.7,5.7,0,0,0-2.29-11.16L350.51,644.17A7.53,7.53,0,0,0,345.22,654.89Z"/></g><path class="cls-13" d="M286.34,653.29h0a4.66,4.66,0,0,1,6.64.44l8,9.32a1.49,1.49,0,0,0,2.59-.65l8-35.33a1.66,1.66,0,0,1,3.25.07c1.86,9.94,3,29.3-9.57,48.27,0,0-9.41-1.62-19.56-15.62A4.88,4.88,0,0,1,286.34,653.29Z"/><path class="cls-1" d="M213.44,650.45c7.91,27.63,21.12,63.65,34.65,94.29l4.75-.89C235.86,707,217,655.71,208.3,594.17c-8.77-62.06-7.6-139.62-42.36-170.1-28.93-25.36-129-11.34-161.83-5.92a4.91,4.91,0,0,0-2.42,8.54c15.45,13.42,48.45,45,56.66,76.45,10.82,41.43,49.58,68.31,84.55,76S197.28,594,213.44,650.45Z"/><path class="cls-14" d="M49.77,436.51A159.23,159.23,0,0,1,110.46,453a124.67,124.67,0,0,1,26.43,17.63,108,108,0,0,1,20.65,24.29l2.08,3.42c.68,1.15,1.26,2.35,1.89,3.53s1.26,2.37,1.82,3.55l1.68,3.55q3.39,7.08,6.69,14.21,6.59,14.26,12.71,28.73c8.19,19.29,15.78,38.82,22.16,58.81a.91.91,0,0,1-.59,1.15.93.93,0,0,1-1.13-.55v0q-5.55-14.61-11.69-29T180.7,553.49l-6.43-14.28-6.6-14.2c-2.19-4.73-4.44-9.44-6.7-14.15l-1.69-3.52c-.57-1.18-1.18-2.28-1.77-3.43s-1.15-2.29-1.8-3.39l-2-3.29a107,107,0,0,0-19.66-23.48,117.32,117.32,0,0,0-12.12-9.5l-1.58-1.11-1.62-1c-1.09-.69-2.16-1.41-3.26-2.07-2.23-1.31-4.43-2.64-6.73-3.83A159.42,159.42,0,0,0,80.1,444.42,165.52,165.52,0,0,0,49.68,438h0a.73.73,0,0,1,.13-1.46Z"/><path class="cls-1" d="M221.46,688.37c21.62,21.78,22,36.13,24.76,47.85.48,2.08,1.15,5,2,8.48l4.64-.86a102.78,102.78,0,0,1-4.54-14.07c-7.72-32.33-25.45-86.65-59.79-114.74s-65.72-25.39-98.92,12.12C62,658.42,44.17,674.91,32.77,679.48A4.55,4.55,0,0,0,31,686.56c10.2,12.57,37.64,40.69,73.26,31.73C149.68,706.85,199.84,666.6,221.46,688.37Z"/><path class="cls-14" d="M110.27,664.84a92.09,92.09,0,0,1,6.77-8.2c2.39-2.62,4.88-5.15,7.53-7.53a88,88,0,0,1,17.37-12.5,61.71,61.71,0,0,1,10-4.28,45.14,45.14,0,0,1,10.8-2.05c.92,0,1.84-.11,2.77-.07s1.87,0,2.77.13l5.36.63,5.32,1,5.23,1.42a61.38,61.38,0,0,1,19.18,10,76.51,76.51,0,0,1,14.88,15.47l1.59,2.15c.54.71,1,1.48,1.48,2.22,1,1.5,2,3,2.87,4.5l2.63,4.62c.91,1.53,1.61,3.16,2.41,4.74a184.52,184.52,0,0,1,8.18,19.51.7.7,0,0,1-.42.91.71.71,0,0,1-.89-.37v0c-2.87-6.39-5.67-12.8-9.1-18.87-1.62-3.08-3.49-6-5.28-9-.93-1.45-1.95-2.86-2.92-4.29-.51-.7-1-1.45-1.5-2.11l-1.61-2a77.45,77.45,0,0,0-14.57-14.43A60,60,0,0,0,183,637.21l-4.93-1.3-5-.92-5.1-.58c-.85-.07-1.66-.08-2.49-.13s-1.66,0-2.49.05a41.2,41.2,0,0,0-9.84,1.81,57.09,57.09,0,0,0-9.43,3.81,96.1,96.1,0,0,0-17.17,11.41c-2.66,2.21-5.29,4.49-7.81,6.89s-5,4.92-7.25,7.5h0a.74.74,0,0,1-1.15-.92Z"/><path class="cls-15" d="M858.6,266.2l4,1.32a5.43,5.43,0,0,0,6.86-3.44l52.73-158.46a9.61,9.61,0,0,0-6.09-12.15h0Z"/><path class="cls-16" d="M703.19,578.09l44.38,14.76,124.81-375.1a23.38,23.38,0,0,0-14.81-29.57h0A23.38,23.38,0,0,0,828,203Z"/><polygon class="cls-7" points="775.16 361.8 804.14 422.84 797.51 442.74 768.16 382.82 775.16 361.8"/><polygon class="cls-7" points="764.18 394.79 793.16 455.83 790 465.32 760.65 405.4 764.18 394.79"/><path class="cls-15" d="M823.9,204.84l49.62,16.51L914.55,98A26.15,26.15,0,0,0,898,65h0a26.15,26.15,0,0,0-33.07,16.56Z"/><path class="cls-17" d="M859.4,263.79c-.21-.07,11.92-37.13,27.11-82.76s27.67-82.59,27.89-82.52-11.93,37.13-27.11,82.77S859.62,263.86,859.4,263.79Z"/><path class="cls-15" d="M706.5,584.9h30.67a8,8,0,0,1,8,8v14.37a0,0,0,0,1,0,0H698.46a0,0,0,0,1,0,0V592.94A8,8,0,0,1,706.5,584.9Z" transform="translate(1218.55 1389.62) rotate(-161.6)"/><path class="cls-15" d="M863.7,218.08c.21.07-27.4,83.64-61.67,186.63s-62.24,186.47-62.45,186.4S767,507.48,801.25,404.46,863.48,218,863.7,218.08Z"/><path class="cls-15" d="M849.23,213.26c.21.08-27.4,83.65-61.67,186.64S725.32,586.36,725.1,586.29s27.4-83.62,61.68-186.65S849,213.19,849.23,213.26Z"/><path class="cls-15" d="M834.75,208.45c.22.07-27.4,83.64-61.66,186.63s-62.24,186.47-62.46,186.4,27.4-83.63,61.68-186.66S834.54,208.38,834.75,208.45Z"/><path class="cls-18" d="M1042.44,764.67c0,.24-228.8.43-511,.43s-511-.19-511-.43,228.76-.44,511-.44S1042.44,764.43,1042.44,764.67Z"/><path class="cls-15" d="M751.7,644.11l-381.88,5.71a16.79,16.79,0,0,1-17-16.53l-8.32-556.1a16.8,16.8,0,0,1,16.54-17l381.88-5.71a16.78,16.78,0,0,1,17,16.53l8.32,556.11A16.78,16.78,0,0,1,751.7,644.11Z"/><path class="cls-18" d="M751.7,644.11,753,644a18.66,18.66,0,0,0,3.73-.79,17.16,17.16,0,0,0,5.45-3.06,16.85,16.85,0,0,0,4.93-7,15.89,15.89,0,0,0,1-5.09c.07-1.84,0-3.78,0-5.82q-.1-6.11-.22-13.35c-.16-9.65-.34-20.78-.54-33.31-.78-50.14-1.91-122.68-3.3-212.32-.68-44.82-1.44-93.91-2.24-146.62q-.6-39.52-1.24-81.68-.33-21-.65-42.71-.18-10.81-.36-21.79a16.42,16.42,0,0,0-3.85-9.84,16.64,16.64,0,0,0-9.14-5.45,23.48,23.48,0,0,0-5.45-.33l-5.58.08-11.22.17-22.62.34-46,.7-94.93,1.43-199.64,3A16.37,16.37,0,0,0,344.9,76.37c0,8.46.23,17,.33,25.4q.39,25.32.75,50.32.75,50,1.47,98.38c1,64.5,1.88,126.71,2.76,186s1.7,115.59,2.48,168.3q.13,9.88.29,19.59c.06,3.23,0,6.48.17,9.65a16.38,16.38,0,0,0,3.11,8.73,16.66,16.66,0,0,0,7.26,5.63,17.76,17.76,0,0,0,4.48,1.08c1.52.11,3.09.05,4.65,0l18.54-.27,70.35-1,212.31-3,57.72-.79,15-.18c3.38,0,5.12,0,5.12,0l-5.12.12-15,.26-57.72.94-212.3,3.3-70.35,1.08-18.54.28c-1.55,0-3.11.08-4.72,0a18.56,18.56,0,0,1-4.65-1.11,17.38,17.38,0,0,1-7.55-5.85A17.08,17.08,0,0,1,352.5,634c-.12-3.23-.11-6.44-.18-9.68q-.15-9.71-.3-19.59c-.8-52.71-1.65-109-2.55-168.3s-1.83-121.48-2.81-186q-.72-48.37-1.47-98.38-.37-25-.76-50.32c-.11-8.46-.29-16.9-.34-25.44a17.19,17.19,0,0,1,17-16.59l199.63-3,94.94-1.41,46-.68,22.62-.34,11.22-.16,5.58-.08a23.68,23.68,0,0,1,5.62.35,17.1,17.1,0,0,1,13.57,16q.16,11,.34,21.81.33,21.66.63,42.71.63,42.12,1.21,81.68c.77,52.71,1.48,101.8,2.14,146.62,1.29,89.64,2.33,162.18,3,212.32.17,12.53.32,23.67.46,33.32.06,4.82.12,9.28.18,13.35,0,2,.1,4,0,5.83a16.14,16.14,0,0,1-1,5.13,16.93,16.93,0,0,1-5,7.06,17.2,17.2,0,0,1-5.49,3,17.69,17.69,0,0,1-3.75.75Z"/><g class="cls-19"><polygon points="392.23 634.84 740.57 627.73 743.55 560.36 732.27 519.92 388.22 578.96 392.23 634.84"/></g><path class="cls-18" d="M751.7,644.11,753,644a18.66,18.66,0,0,0,3.73-.79,17.16,17.16,0,0,0,5.45-3.06,16.85,16.85,0,0,0,4.93-7,15.89,15.89,0,0,0,1-5.09c.07-1.84,0-3.78,0-5.82q-.1-6.11-.22-13.35c-.16-9.65-.34-20.78-.54-33.31-.78-50.14-1.91-122.68-3.3-212.32-.68-44.82-1.44-93.91-2.24-146.62q-.6-39.52-1.24-81.68-.33-21-.65-42.71-.18-10.81-.36-21.79a16.42,16.42,0,0,0-3.85-9.84,16.64,16.64,0,0,0-9.14-5.45,23.48,23.48,0,0,0-5.45-.33l-5.58.08-11.22.17-22.62.34-46,.7-94.93,1.43-199.64,3A16.37,16.37,0,0,0,344.9,76.37c0,8.46.23,17,.33,25.4q.39,25.32.75,50.32.75,50,1.47,98.38c1,64.5,1.88,126.71,2.76,186s1.7,115.59,2.48,168.3q.13,9.88.29,19.59c.06,3.23,0,6.48.17,9.65a16.38,16.38,0,0,0,3.11,8.73,16.66,16.66,0,0,0,7.26,5.63,17.76,17.76,0,0,0,4.48,1.08c1.52.11,3.09.05,4.65,0l18.54-.27,70.35-1,212.31-3,57.72-.79,15-.18c3.38,0,5.12,0,5.12,0l-5.12.12-15,.26-57.72.94-212.3,3.3-70.35,1.08-18.54.28c-1.55,0-3.11.08-4.72,0a18.56,18.56,0,0,1-4.65-1.11,17.38,17.38,0,0,1-7.55-5.85A17.08,17.08,0,0,1,352.5,634c-.12-3.23-.11-6.44-.18-9.68q-.15-9.71-.3-19.59c-.8-52.71-1.65-109-2.55-168.3s-1.83-121.48-2.81-186q-.72-48.37-1.47-98.38-.37-25-.76-50.32c-.11-8.46-.29-16.9-.34-25.44a17.19,17.19,0,0,1,17-16.59l199.63-3,94.94-1.41,46-.68,22.62-.34,11.22-.16,5.58-.08a23.68,23.68,0,0,1,5.62.35,17.1,17.1,0,0,1,13.57,16q.16,11,.34,21.81.33,21.66.63,42.71.63,42.12,1.21,81.68c.77,52.71,1.48,101.8,2.14,146.62,1.29,89.64,2.33,162.18,3,212.32.17,12.53.32,23.67.46,33.32.06,4.82.12,9.28.18,13.35,0,2,.1,4,0,5.83a16.14,16.14,0,0,1-1,5.13,16.93,16.93,0,0,1-5,7.06,17.2,17.2,0,0,1-5.49,3,17.69,17.69,0,0,1-3.75.75Z"/><g class="cls-19"><polygon points="392.23 634.84 740.57 627.73 743.55 560.36 732.27 519.92 388.22 578.96 392.23 634.84"/></g><rect class="cls-7" x="369.6" y="81.02" width="373.43" height="538.13" transform="translate(-5.17 8.36) rotate(-0.86)"/><path class="cls-18" d="M747,616.33c0-3.1-3.44-220.52-8.4-538.07l.35.35L365.65,84.22h0l.38-.38c3,202.06,5.76,388.74,8,538.07l-.31-.31L747,616.33l-373.39,5.89h-.31v-.3c-2.26-149.33-5.07-336-8.12-538.07v-.38h.43L739,77.91h.35v.35C743.88,395.8,747,613.23,747,616.33Z"/><rect class="cls-15" x="389.06" y="214.55" width="81.67" height="17.3" transform="translate(-3.29 6.45) rotate(-0.86)"/><rect class="cls-16" x="480.01" y="174.88" width="163.71" height="17.3" transform="translate(-2.68 8.42) rotate(-0.86)"/><rect class="cls-16" x="387.7" y="176.55" width="77.88" height="17.3" transform="translate(-2.72 6.4) rotate(-0.86)"/><rect class="cls-16" x="653.07" y="173.02" width="59.24" height="17.3" transform="translate(-2.64 10.23) rotate(-0.86)"/><rect class="cls-15" x="593.18" y="465.46" width="105.31" height="19.7" transform="translate(-7.04 9.71) rotate(-0.86)"/><rect class="cls-15" x="389.36" y="256.1" width="323.05" height="19.7" transform="translate(-3.92 8.27) rotate(-0.86)"/><path class="cls-18" d="M706.85,298.64c0,.23-69.59,1.47-155.43,2.75S396,303.52,396,303.28s69.59-1.47,155.46-2.75S706.85,298.4,706.85,298.64Z"/><path class="cls-18" d="M639.48,157.16c0,.24-39,1-87.16,1.74s-87.19,1.11-87.19.87,39-1,87.17-1.74S639.48,156.92,639.48,157.16Z"/><path class="cls-18" d="M707.11,315.73c0,.24-69.6,1.48-155.44,2.76s-155.46,2.13-155.46,1.89,69.58-1.47,155.45-2.76S707.11,315.49,707.11,315.73Z"/><path class="cls-18" d="M707.37,332.83c0,.24-69.6,1.47-155.44,2.76s-155.46,2.13-155.46,1.89,69.58-1.47,155.45-2.76S707.36,332.59,707.37,332.83Z"/><path class="cls-18" d="M535.38,352.5c0,.24-31,.9-69.32,1.47s-69.34.85-69.34.61,31-.9,69.33-1.47S535.38,352.26,535.38,352.5Z"/><path class="cls-18" d="M707.88,367c0,.24-69.6,1.48-155.44,2.76S397,371.91,397,371.67s69.58-1.47,155.45-2.75S707.87,366.79,707.88,367Z"/><path class="cls-18" d="M708.13,384.12c0,.24-69.59,1.48-155.43,2.76S397.24,389,397.23,388.77s69.58-1.47,155.45-2.76S708.13,383.88,708.13,384.12Z"/><path class="cls-18" d="M646.64,402.14c0,.24-55.77,1.27-124.56,2.3s-124.59,1.67-124.59,1.43,55.76-1.27,124.57-2.3S646.64,401.9,646.64,402.14Z"/><path class="cls-18" d="M708.64,418.32c0,.24-69.59,1.47-155.43,2.75S397.75,423.2,397.74,423s69.59-1.48,155.45-2.76S708.64,418.08,708.64,418.32Z"/><path class="cls-18" d="M708.9,435.41c0,.24-69.6,1.48-155.44,2.76S398,440.3,398,440.06s69.58-1.47,155.45-2.75S708.9,435.17,708.9,435.41Z"/><path class="cls-12" d="M471.82,42.47H650.65A6.33,6.33,0,0,1,657,48.8V98a0,0,0,0,1,0,0H465.5a0,0,0,0,1,0,0V48.8a6.33,6.33,0,0,1,6.33-6.33Z" transform="translate(-0.99 8.4) rotate(-0.86)"/><polygon class="cls-12" points="584.87 21.22 536.14 21.95 542.47 63.64 579.17 63.09 584.87 21.22"/><path class="cls-7" d="M644.25,41.22c0,.23-37.35,1-83.42,1.65s-83.43,1.07-83.44.85,37.34-1,83.43-1.65S644.25,41,644.25,41.22Z"/><path class="cls-20" d="M470.08,90.41c-.23,0-.52-7.85-.67-17.53s-.08-17.55.14-17.56.52,7.85.67,17.54S470.3,90.41,470.08,90.41Z"/><path class="cls-7" d="M651,83.55c-.23,0-.51-7.13-.64-15.92s-.06-15.93.16-15.93.51,7.12.64,15.92S651.21,83.55,651,83.55Z"/><path class="cls-7" d="M641.86,91.07c0,.23-38.34,1-85.63,1.69s-85.64,1.1-85.64.88,38.33-1,85.63-1.69S641.86,90.85,641.86,91.07Z"/><g class="cls-19"><polygon points="656.79 56.93 665.06 80.31 665.24 91.83 656.3 91.96 656.79 56.93"/></g><g class="cls-19"><path d="M435.07,537.69l1.48,20.15s44.81.64,65.49-2.61l-.5,12.66,44.93-37.74-59.81-2.35Z"/></g><path class="cls-21" d="M428.25,553.41l-2.69-54.1c27.62,6.18,56,9.46,88.74,6.61l2.29,45.79C487.24,554.49,457.79,555.83,428.25,553.41Z"/><polygon class="cls-21" points="504.6 528.5 504.47 493.31 526.59 510.83 548.71 528.35 526.71 546.02 504.72 563.7 504.6 528.5"/><path class="cls-18" d="M733.31,675s-8.67-59.64-7.95-94.34,0-73.73,0-73.73h4s-2.7,68.87.24,110.41S740.25,675,740.25,675h-6.94"/><path class="cls-21" d="M759.15,439.83c-.8-2-1.79-4.16-3.64-5.33-2.54-1.61-5.86-.94-8.69.06-12.08,4.27-22.79,26.79-27.67,38.63l16,54C764.13,500.37,769.14,465.15,759.15,439.83Z"/><path class="cls-18" d="M754.57,436.68a3.18,3.18,0,0,1-.23.71l-.79,2c-.7,1.7-1.69,4.17-2.86,7.24-2.37,6.13-5.37,14.71-8.06,24.37s-4.53,18.57-5.66,25c-.58,3.24-1,5.86-1.28,7.68-.14.85-.25,1.54-.34,2.09a4.15,4.15,0,0,1-.16.73,2.33,2.33,0,0,1,0-.74c.06-.56.13-1.26.22-2.11.19-1.83.55-4.48,1.07-7.73a229.52,229.52,0,0,1,13.74-49.51c1.24-3.06,2.29-5.5,3.07-7.17l.9-1.93A3.37,3.37,0,0,1,754.57,436.68Z"/><path class="cls-21" d="M728.06,540.17c-15-8.3-23.89-23.92-24.71-41.08-.58-12,3.1-23.75,7.28-35a4.5,4.5,0,0,1,1.69-2.54c1.26-.72,2.84-.08,4.1.63,10.92,6.22,17.54,18.08,21.06,30.14,2.34,8,3.56,16.5,2.47,24.79a41.12,41.12,0,0,1-11.89,23.06"/><path class="cls-18" d="M728.06,540.17a3.42,3.42,0,0,1-.06-.72c0-.55,0-1.23,0-2.07,0-1.8-.08-4.41-.22-7.62a210.29,210.29,0,0,0-2.79-25c-1.67-9.68-3.69-18.34-5.19-24.6L718,472.78c-.19-.82-.34-1.49-.47-2a2.3,2.3,0,0,1-.11-.72,3.3,3.3,0,0,1,.24.68c.16.53.35,1.19.58,2,.5,1.74,1.18,4.25,2,7.37,1.61,6.24,3.7,14.91,5.38,24.61a182.75,182.75,0,0,1,2.6,25.05c.09,3.22.09,5.84,0,7.64,0,.84-.06,1.52-.09,2.07A2.85,2.85,0,0,1,728.06,540.17Z"/><g class="cls-19"><path d="M728.06,540.17c-15-8.3-23.89-23.92-24.71-41.08-.58-12,3.1-23.75,7.28-35a4.5,4.5,0,0,1,1.69-2.54c1.26-.72,2.84-.08,4.1.63,10.92,6.22,17.54,18.08,21.06,30.14,2.34,8,3.56,16.5,2.47,24.79a41.12,41.12,0,0,1-11.89,23.06"/></g><path class="cls-21" d="M745,631.42c14.79,3.25,27,13.68,41.24,18.76,9.44,3.35,20.12,4.54,27.65,11.14-1.81-4.56-6.09-7.61-10.26-10.21a183.74,183.74,0,0,0-37.38-17.84c-6.71-2.32-14-4.26-20.84-2.35"/><path class="cls-21" d="M723.63,644.6c-18.52-.3-38-16.07-56.47-17,19.3-6.23,46.93-1.14,56.47,17"/><path class="cls-21" d="M730.87,600.16c9.4-3.39,19.73-3.55,29.61-2s19.43,4.7,28.91,7.85c-.95-6.42-6.15-11.26-11-15.53a77.59,77.59,0,0,0-11.61-8.93,25.87,25.87,0,0,0-13.92-3.92,22,22,0,0,0-15.37,7.74,25.56,25.56,0,0,0-6.58,14.8"/><path class="cls-21" d="M692.85,579.71c-11.66-10-29.32-9-44.65-8.64,23.56,11.27,48.95,26.71,69.25,43.16C718.07,603.39,707.58,592.28,692.85,579.71Z"/><g class="cls-19"><path d="M692.85,579.71c-11.66-10-29.32-9-44.65-8.64,23.56,11.27,48.95,26.71,69.25,43.16C718.07,603.39,707.58,592.28,692.85,579.71Z"/></g><path class="cls-21" d="M736.11,566A130.71,130.71,0,0,1,754,555.54c6.14-2.79,11.87-7.23,17.8-10.44,7.68-4.16,14.34-10,21.4-15.11s14.8-9.81,23.44-11.18c-7-1.45-14.4-.66-21.33,1.23s-13.53,4.86-20.08,7.81c-9.1,4.1-18.35,8.3-25.79,14.95S735.33,556,736.11,566"/><path class="cls-18" d="M785.92,644.6a2.63,2.63,0,0,1-.59-.25l-1.61-.84c-1.4-.74-3.4-1.84-5.92-3.11-1.25-.66-2.64-1.35-4.14-2s-3.1-1.47-4.81-2.21a70.73,70.73,0,0,0-11.4-4,24.45,24.45,0,0,0-11.89-.3,34.68,34.68,0,0,0-5,1.5,26.2,26.2,0,0,0-4.07,2.09,25.73,25.73,0,0,0-5.1,4.22c-1.08,1.15-1.6,1.85-1.65,1.81a2.92,2.92,0,0,1,.34-.54,16.89,16.89,0,0,1,1.11-1.45,24.49,24.49,0,0,1,5.05-4.44,26.28,26.28,0,0,1,4.11-2.2,32.79,32.79,0,0,1,5.1-1.58,24.73,24.73,0,0,1,12.18.24,68.11,68.11,0,0,1,11.5,4.06c1.71.76,3.32,1.51,4.8,2.27s2.88,1.45,4.11,2.13c2.5,1.33,4.47,2.49,5.83,3.3l1.56,1A2.29,2.29,0,0,1,785.92,644.6Z"/><path class="cls-18" d="M709.81,635.42a4.3,4.3,0,0,1,1.16.34,26,26,0,0,1,3,1.31,36.75,36.75,0,0,1,15.48,14.87,26.44,26.44,0,0,1,1.43,3,3.77,3.77,0,0,1,.38,1.15c-.1.05-.79-1.52-2.22-3.87a41.49,41.49,0,0,0-6.68-8.36,42.36,42.36,0,0,0-8.61-6.34C711.36,636.16,709.77,635.53,709.81,635.42Z"/><path class="cls-18" d="M668.83,578.78a4.29,4.29,0,0,1,.79.23l2.22.79,3.5,1.3c1.37.5,2.85,1.25,4.53,2A107.18,107.18,0,0,1,704,598.46a118.43,118.43,0,0,1,11.25,11.07,125.49,125.49,0,0,1,8,10.12c2.11,3,3.72,5.49,4.82,7.21l1.26,2a3.4,3.4,0,0,1,.41.72,5.9,5.9,0,0,1-.52-.64c-.32-.44-.79-1.08-1.37-1.92-1.16-1.69-2.82-4.14-5-7.09s-4.87-6.36-8.06-10a122.43,122.43,0,0,0-11.22-11,112.42,112.42,0,0,0-23.89-15.44c-1.65-.77-3.12-1.54-4.47-2.08l-3.45-1.4-2.18-.9A4.43,4.43,0,0,1,668.83,578.78Z"/><path class="cls-18" d="M758.66,589.75a7.08,7.08,0,0,1-1.47-.19l-1.71-.32c-.66-.12-1.43-.13-2.27-.21a23,23,0,0,0-18.53,6.81,26.43,26.43,0,0,0-3.72,4.6,40,40,0,0,0-2.55,4.86,5.76,5.76,0,0,1,.38-1.44,21.18,21.18,0,0,1,1.77-3.67,25,25,0,0,1,3.69-4.78,22.52,22.52,0,0,1,19-6.85c.85.12,1.63.16,2.3.32l1.69.43A6.51,6.51,0,0,1,758.66,589.75Z"/><path class="cls-18" d="M777.28,532a3.68,3.68,0,0,1-.7.43l-2.07,1.13c-1.79,1-4.38,2.39-7.52,4.25s-6.81,4.18-10.73,7a89.78,89.78,0,0,0-12,10,30.3,30.3,0,0,0-4.9,6.34c-1.21,2.33-2.37,4.58-3.44,6.74a123.44,123.44,0,0,0-5.14,11.72,72.26,72.26,0,0,0-2.51,8.25c-.47,2-.64,3.1-.71,3.09a4.6,4.6,0,0,1,.08-.82c.06-.53.18-1.32.38-2.32a61.21,61.21,0,0,1,2.32-8.36,113.25,113.25,0,0,1,5-11.82c1.05-2.18,2.2-4.44,3.41-6.78a30.25,30.25,0,0,1,5-6.5,87.07,87.07,0,0,1,12.1-10.08c4-2.79,7.69-5.06,10.85-6.89s5.81-3.17,7.64-4.07l2.13-1A3.91,3.91,0,0,1,777.28,532Z"/><path class="cls-18" d="M725.34,588.08a6.68,6.68,0,0,1-.37-1.56c-.22-1.14-.49-2.58-.81-4.28A109.43,109.43,0,0,0,715.37,555l-1.81-4a7.43,7.43,0,0,1-.59-1.49,7.6,7.6,0,0,1,.82,1.37c.49.91,1.18,2.23,2,3.88a98.54,98.54,0,0,1,5.5,13.33,96.41,96.41,0,0,1,3.33,14c.29,1.82.5,3.29.6,4.32A7.92,7.92,0,0,1,725.34,588.08Z"/><path class="cls-21" d="M724,545.94a50.34,50.34,0,0,0-6-20,66,66,0,0,0-44.74-33.37l41.42,61.74,5.35,11C723.65,559.34,724.46,552.93,724,545.94Z"/><rect class="cls-12" x="687.09" y="667.62" width="96.33" height="17.07"/><polygon class="cls-12" points="694.28 681.31 702.49 734.28 766.44 734.28 776.23 681.31 694.28 681.31"/><path class="cls-18" d="M783.37,684.72c0,.18-21.73.33-48.53.33s-48.53-.15-48.53-.33,21.73-.34,48.53-.34S783.37,684.53,783.37,684.72Z"/><text class="cls-22" transform="translate(454.84 154.54) rotate(-0.86)">SOLICITUD</text><path class="cls-23" d="M179.72,175.77l-4.9,6.2,0,0a1,1,0,1,1-1.63-1.3v0l5.08-6.12a.95.95,0,0,1,1.47,1.19Z"/><path class="cls-23" d="M163.16,198.34l-8.3,13.25,0,.06a1.43,1.43,0,0,1-2.43-1.52l0,0L161,196.9a1.28,1.28,0,0,1,2.16,1.39Z"/><path class="cls-23" d="M145.22,229.2l-6.65,14.12,0,.08a1.75,1.75,0,1,1-3.17-1.49v0l7-14.16a1.61,1.61,0,0,1,2.91,1.4Z"/><path class="cls-23" d="M131.15,261.94l-4.83,14.82,0,.11a2.07,2.07,0,1,1-3.94-1.28v0l5.17-14.94a1.93,1.93,0,0,1,3.66,1.23Z"/><path class="cls-23" d="M121.34,296.15l-2.88,15.3,0,.13a2.3,2.3,0,1,1-4.53-.85v0l3.1-15.52a2.22,2.22,0,0,1,4.36.84Z"/><path class="cls-23" d="M116.11,331.31l-.77,15.53V347a2.5,2.5,0,0,1-5-.25v0l1-15.81a2.41,2.41,0,0,1,4.82.26Z"/><path class="cls-23" d="M115.74,366.82l1.38,15.48,0,.16a2.7,2.7,0,0,1-5.37.48v0l-1.23-15.81a2.61,2.61,0,0,1,5.2-.44Z"/><path class="cls-23" d="M120.25,402l3.48,15.14,0,.16a2.89,2.89,0,1,1-5.63,1.3v0l-3.38-15.51a2.8,2.8,0,0,1,5.47-1.22Z"/><path class="cls-23" d="M129.51,436.26l5.42,14.55.06.16a3,3,0,0,1-5.69,2.13v0l-5.48-14.9a3,3,0,1,1,5.63-2.07Z"/><path class="cls-23" d="M143.1,469l7.26,13.73.08.15a3.1,3.1,0,0,1-5.49,2.9h0l-7.37-14.06a3.08,3.08,0,1,1,5.45-2.85Z"/><path class="cls-23" d="M160.78,499.77l8.92,12.71.1.14a3.17,3.17,0,1,1-5.18,3.64h0l-9.07-13a3.14,3.14,0,1,1,5.15-3.59Z"/><path class="cls-23" d="M182.17,528.07l10.43,11.48.12.14a3.23,3.23,0,1,1-4.78,4.34h0L177.3,532.23a3.2,3.2,0,1,1,4.75-4.29Z"/><path class="cls-23" d="M206.94,553.42l11.83,10,.15.13a3.3,3.3,0,1,1-4.26,5h0l-12.09-10.31a3.27,3.27,0,0,1,4.24-5Z"/><path class="cls-23" d="M234.83,575.19l6.56,4.09,3.28,2.05c1.1.67,2.17,1.39,3.3,2a3.36,3.36,0,1,1-3.25,5.88h0l-.09-.05c-1.16-.64-2.26-1.39-3.39-2.08L237.86,585l-6.74-4.24a3.33,3.33,0,1,1,3.54-5.64Z"/><path class="cls-23" d="M265.65,592.39q7,3.21,14.27,5.94a3.38,3.38,0,1,1-2.37,6.33c-5-1.86-9.89-3.88-14.72-6.09a3.4,3.4,0,1,1,2.82-6.18Z"/><path class="cls-23" d="M298.82,604.54l15,3.72.2,0a3.34,3.34,0,0,1-1.59,6.48L297,611a3.36,3.36,0,0,1,1.59-6.52h0Z"/><path class="cls-23" d="M333.47,611.69l15.42,1.64.19,0a3.28,3.28,0,0,1-.68,6.53l-15.81-1.63a3.31,3.31,0,0,1,.68-6.59h0Z"/><path class="cls-23" d="M368.83,614.21l15.53-.25h.16a3.15,3.15,0,0,1,.13,6.29l-15.86.38a3.21,3.21,0,0,1-.15-6.41h.19Z"/><path class="cls-23" d="M404.29,612.49l15.43-2,.14,0a3,3,0,0,1,.79,6L405,618.6a3.07,3.07,0,0,1-.84-6.09h0Z"/><path class="cls-23" d="M439.41,606.94l15.17-3.53.12,0a2.75,2.75,0,0,1,1.28,5.34l-15.35,3.82a2.86,2.86,0,0,1-1.38-5.56h0Z"/><path class="cls-23" d="M473.85,597.92l14.78-5,.09,0a2.48,2.48,0,0,1,1.62,4.69l-14.9,5.26a2.6,2.6,0,0,1-1.73-4.9h0Z"/><path class="cls-23" d="M507.33,585.67l14.29-6.29.07,0a2.22,2.22,0,0,1,1.82,4L509.16,590a2.34,2.34,0,0,1-1.94-4.25h0Z"/><path class="cls-23" d="M539.66,570.55l13.75-7.43.06,0a1.81,1.81,0,0,1,1.76,3.17l-13.69,7.83a2,2,0,0,1-2-3.48l0,0Z"/><path class="cls-23" d="M570.69,552.84l13.11-8.53,0,0a1.4,1.4,0,0,1,1.92.41,1.38,1.38,0,0,1-.38,1.89l-13,8.91a1.58,1.58,0,0,1-1.78-2.6h0Z"/><path class="cls-23" d="M600.32,532.69l6.34-4.75h0a1,1,0,0,1,1.33.19,1,1,0,0,1-.17,1.31l-6.21,5a1.07,1.07,0,0,1-1.34-1.68l0,0Z"/><path class="cls-18" d="M825.28,239.84S818.56,265,818,282.76l-.19,5.93s14.83,12.32,27.28,13.08l10.43-25.65Z"/><path class="cls-18" d="M891.18,255.26c-2.84-12.26-3.93-26.53-14.12-34.52-7.57-5.94-16.19-7.59-25.79-7.19-4.73.2-10.07,2.38-14.19,4.71-5.65,3.2-8,9.69-10.77,15.58-5.46,11.8-4.77,27.78-1.07,32.22l49.32,26c9.84-5.12,16-7.16,17.59-20.29A48.26,48.26,0,0,0,891.18,255.26Z"/><path class="cls-24" d="M876.53,230.48l-31-9.16c-10-1.46-17.16,10.64-18.19,20.69-1.15,11.17-2.11,24.85-1.11,33.25,2,16.9,14.79,19.55,14.79,19.55s0,.25-.07,5.24l0,10.28c-.13,3.27.45,4.37,2.45,7,4.57,5.93,12.92,6.72,22.75,3.08,5.71-2.11,9.67-6.35,10.11-12.13l5.39-71.57A5.91,5.91,0,0,0,876.53,230.48Z"/><path class="cls-18" d="M830.26,257.31a2.15,2.15,0,0,0,2,2.25,2.05,2.05,0,0,0,2.29-1.85,2.15,2.15,0,0,0-2-2.26A2.06,2.06,0,0,0,830.26,257.31Z"/><path class="cls-18" d="M829.36,252.14c.26.29,1.93-.85,4.25-.75s4,1.32,4.24,1.05-.13-.64-.85-1.21a5.88,5.88,0,0,0-3.37-1.19,5.71,5.71,0,0,0-3.4,1C829.49,251.51,829.23,252,829.36,252.14Z"/><path class="cls-18" d="M850.63,257.64a2.16,2.16,0,0,0,2,2.25,2,2,0,0,0,2.29-1.85,2.16,2.16,0,0,0-2-2.26A2.07,2.07,0,0,0,850.63,257.64Z"/><path class="cls-18" d="M852.16,252.41c.26.29,1.94-.85,4.25-.75s4,1.32,4.24,1.05-.13-.64-.85-1.21a6,6,0,0,0-3.37-1.19,5.71,5.71,0,0,0-3.4,1C852.3,251.78,852,252.28,852.16,252.41Z"/><path class="cls-18" d="M843.13,267.44a15.18,15.18,0,0,0-3.74-.83c-.59-.08-1.14-.22-1.23-.63a3,3,0,0,1,.47-1.74q.92-2.12,1.93-4.43c2.68-6.33,4.65-11.53,4.39-11.64s-2.64,4.93-5.32,11.25q-1,2.34-1.85,4.47a3.36,3.36,0,0,0-.4,2.31,1.49,1.49,0,0,0,.94.91,4,4,0,0,0,1,.18A15.46,15.46,0,0,0,843.13,267.44Z"/><path class="cls-25" d="M840.93,294.81a42.74,42.74,0,0,0,22.72-5.12s-6,11.53-22.77,9.3Z"/><path class="cls-25" d="M850.65,272.59a3.36,3.36,0,0,0-2.74-1.63,4.36,4.36,0,0,0-4.06,1.82,2.73,2.73,0,0,0-.25,2c.13.34,0,.17.28.41a7.55,7.55,0,0,0,3,2.06,3.27,3.27,0,0,0,3.51-1.14A3.35,3.35,0,0,0,850.65,272.59Z"/><path class="cls-18" d="M850.3,269.41c-.37,0-.49,2.48-2.72,4.17s-4.9,1.29-4.94,1.64c0,.16.58.51,1.71.6a6.33,6.33,0,0,0,4.11-1.23,5.52,5.52,0,0,0,2.13-3.5C850.73,270,850.48,269.41,850.3,269.41Z"/><path class="cls-18" d="M851.28,243.93c.17.65,2.5.58,5.18,1.17s4.8,1.54,5.21,1c.19-.25-.14-.88-1-1.58a9.27,9.27,0,0,0-7.92-1.66C851.76,243.18,851.21,243.62,851.28,243.93Z"/><path class="cls-18" d="M829.55,245.9c.53.46,2.22-.34,4.34-.67s4-.22,4.31-.82c.14-.3-.22-.78-1.08-1.16a6.6,6.6,0,0,0-3.65-.34,6.52,6.52,0,0,0-3.31,1.55C829.48,245.1,829.32,245.68,829.55,245.9Z"/><path class="cls-18" d="M845.39,219.51c0,.12,0,.24-.08.36l.06,0Z"/><path class="cls-18" d="M867.09,301.59c.47-4.41-1.3-8.83-.78-13.23.54-4.67,3.56-8.66,4.8-13.19,2-7.26-.74-15-1.74-22.47a17.77,17.77,0,0,1-10.92-6.3c-3.37-3.93-5.41-8.8-7.39-13.57a22.73,22.73,0,0,0,4.57,13,6.12,6.12,0,0,1-5.23-1.7,13.66,13.66,0,0,1-3.08-4.77,37.45,37.45,0,0,1-3-13.44,48.31,48.31,0,0,0,2.19,19.62,8.37,8.37,0,0,0-3.65.14,4,4,0,0,1-3.47-.74,4.36,4.36,0,0,1-1-2.24,50.32,50.32,0,0,1-.55-17.09,52.14,52.14,0,0,0-3.86,9.47,18.38,18.38,0,0,0-.07,10.11,1.48,1.48,0,0,1-2.08,0,3.51,3.51,0,0,1-.92-2.11,26,26,0,0,1,.56-8.51c-1.68,3-2.24,6.43-3.17,9.72S826,251,823.1,252.86a45,45,0,0,1,.42-12.89c.57-3.52,2.24-7,3.78-10.23a30.52,30.52,0,0,1,6.81-9.48c4.95-4.33,7-2.47,10.18-.81l.37.15a1.6,1.6,0,0,0,0-.23l.14-.67a47.39,47.39,0,0,1,25,1.17c6,1.94,6.51,14.77,8,8.67.88-3.69,5.66-.32,5.72-.22,7,12.68,14.47,32.79,14.82,64.56h0Z"/><path class="cls-18" d="M887.42,204.77a15.81,15.81,0,0,0-10.92-5.32A11.94,11.94,0,0,0,866,205a9.6,9.6,0,0,0,1.3,11.49l5.19,4.16a14.22,14.22,0,0,0,11.79,1.14c3.8-1.47,6.76-5.28,6.66-9.35A12,12,0,0,0,887.42,204.77Z"/><path class="cls-20" d="M883.42,227.82c-1,.47-3.85-3.88-8.92-7.3s-10.08-4.66-10-5.76c0-.51,1.47-.91,3.79-.67A19.32,19.32,0,0,1,882.7,224C883.75,226.12,883.87,227.6,883.42,227.82Z"/><path class="cls-26" d="M811.23,365.89l19.44-18.21,13.18,20.92c-.26,1.88-17.06,38.07-24.33,45.57-8.29,8.55-19.6,7.89-24.59-3.93-3.93-9.31-10.46-38-10.46-38Z"/><path class="cls-26" d="M832.43,311.11c-4.64,1.67-15.33,7.51-18.44,11.34a29.08,29.08,0,0,0-3.93,6.08c-2.43,5.35-7.06,45-7.06,45l20.71,15,18-69.42-1.16-11Z"/><path class="cls-26" d="M825.56,425.69l1.3-10.25a332.6,332.6,0,0,1-5.45-34.18c-2.33-25.24,4.25-40.94,5.15-43.6.51-1.5,14-29.52,14-29.52s2.85,8.63,14.26,6.59c15.91-2.85,21.71-11.47,21.71-11.47l20.57,4.44s8,32.18,9.19,42.84c.63,5.72-6.9,38-6.9,38l12.13,18.14c.36.89-5.27,25.68-6.37,26.71s-20.83,5.6-21.08,6.45-37.61,16.48-37.58,15.85-18-22-18-22Z"/><path class="cls-18" d="M820.91,341.51a2.51,2.51,0,0,1,0,.75c-.07.58-.15,1.28-.25,2.13-.22,1.85-.53,4.52-.81,7.84a112.74,112.74,0,0,0,.48,25.87c1.33,10.06,3.28,19.06,4.53,25.6.63,3.27,1.12,5.92,1.43,7.76.13.85.24,1.55.33,2.12a2.82,2.82,0,0,1,.06.75,2.69,2.69,0,0,1-.22-.72c-.12-.57-.28-1.26-.47-2.09-.42-1.94-1-4.54-1.67-7.71-1.38-6.51-3.41-15.5-4.75-25.6a104.15,104.15,0,0,1-.26-26c.34-3.32.74-6,1-7.83.16-.92.29-1.63.4-2.11A2.5,2.5,0,0,1,820.91,341.51Z"/><path class="cls-18" d="M915.15,421.32c3.68,6.25,12.1,30.2,15.38,42.44,14.93,55.81,27.56,130.88,31.76,146.17,5.59,20.39,18.11,66.5,24.49,97.22l-30.61,13.34s-40.08-108-51-134.55c-11.33-27.51-30.24-79.38-30.24-79.38L864,712.32l-29.32.91s-10-58-14-92.64-4.43-106-4.47-124.09c0-22.05,9.52-71.65,9.52-71.65s11.43,8.59,32.88,5.3c17.07-2.61,52.48-15.75,52.48-15.75Z"/><path class="cls-20" d="M855.54,437.29a15.71,15.71,0,0,0,.17,2.36c.16,1.52.43,3.71.79,6.41.71,5.4,1.84,12.84,3.3,21s3,15.56,4.19,20.87c.6,2.66,1.11,4.8,1.49,6.28a14.37,14.37,0,0,0,.65,2.27,13.12,13.12,0,0,0-.36-2.34l-1.25-6.32c-1.06-5.34-2.51-12.72-4-20.89s-2.67-15.6-3.52-21c-.41-2.59-.76-4.73-1-6.37A12.67,12.67,0,0,0,855.54,437.29Z"/><path class="cls-20" d="M866,436.86s0-.37-.57-.6a3.77,3.77,0,0,0-2.23-.07,4.43,4.43,0,0,0-1.46.6,2.4,2.4,0,0,0-1,1.62,3.75,3.75,0,0,0,1.67,3.73,3.88,3.88,0,0,0,4.09.18,2.66,2.66,0,0,0,1.13-1.52,3.83,3.83,0,0,0,.11-1.59,3.2,3.2,0,0,0-1-2c-.42-.35-.74-.37-.75-.34s.24.18.54.55a3.26,3.26,0,0,1,.66,1.86,2.58,2.58,0,0,1-1.07,2.45,3.22,3.22,0,0,1-3.3-.22,3.09,3.09,0,0,1-1.4-3,1.87,1.87,0,0,1,.67-1.23,4.39,4.39,0,0,1,1.24-.59,4,4,0,0,1,2-.17C865.79,436.65,866,436.9,866,436.86Z"/><path class="cls-20" d="M847.25,489.18a29,29,0,0,0,3.55,2.43c2.22,1.45,5.25,3.49,8.5,5.89s6.1,4.69,8.14,6.38a27.32,27.32,0,0,0,3.37,2.67,20.83,20.83,0,0,0-3-3.07,100.64,100.64,0,0,0-16.71-12.33A20.12,20.12,0,0,0,847.25,489.18Z"/><path class="cls-20" d="M921.49,600.48a3.72,3.72,0,0,0,1.27,0c.81,0,2-.11,3.43-.27a61.53,61.53,0,0,0,21.62-6.77c1.28-.7,2.29-1.29,3-1.74a4.69,4.69,0,0,0,1-.76,42.33,42.33,0,0,0-4.24,2,78.17,78.17,0,0,1-10.48,4.15,79.13,79.13,0,0,1-11,2.57C923.26,600.19,921.48,600.36,921.49,600.48Z"/><path class="cls-20" d="M926.46,597.35a11.48,11.48,0,0,0,3-.79c1.82-.61,4.29-1.56,7-2.75s5-2.43,6.68-3.39a11.55,11.55,0,0,0,2.59-1.72c-.12-.19-4.28,2-9.58,4.41S926.39,597.14,926.46,597.35Z"/><path class="cls-18" d="M834.49,691.89l-.16,30.55s-31.1,10.1-31.68,15.74l59.22,2.43,2.2-47.59Z"/><path class="cls-15" d="M852.75,720.62a2.43,2.43,0,0,1,1.56,2.83,2.32,2.32,0,0,1-2.79,1.57,2.56,2.56,0,0,1-1.64-3A2.43,2.43,0,0,1,853,720.7"/><path class="cls-20" d="M861.87,740.61l0-4.81-56.79-.53s-2.69,1-2.47,2.91Z"/><path class="cls-7" d="M833.39,722.1c0,.29,1.43.48,2.82,1.46s2.09,2.24,2.36,2.13-.09-1.79-1.79-3S833.33,721.83,833.39,722.1Z"/><path class="cls-7" d="M827.07,724.41c-.08.28,1.15.82,2.09,2.08s1.16,2.57,1.45,2.57.54-1.63-.65-3.18S827.09,724.13,827.07,724.41Z"/><path class="cls-7" d="M823.24,731.7c.26.07.72-1.36,0-3s-2-2.3-2.13-2.06.66,1.11,1.2,2.45S823,731.66,823.24,731.7Z"/><path class="cls-7" d="M834.19,715.14c.11.27,1.46-.08,3.09.1s2.88.74,3,.5-1-1.32-2.94-1.5S834.06,714.9,834.19,715.14Z"/><path class="cls-18" d="M974.34,688.68l11.35,35.18,17,25.23a3.78,3.78,0,0,1-1.24,5.39h0a3.74,3.74,0,0,1-3.47.17c-7.1-3.25-33.17-15.36-33.86-18-.79-3-14.43-36.3-14.43-36.3Z"/><path class="cls-20" d="M1001.44,754.48l-38.15-20.16.51,1.48a5.69,5.69,0,0,0,2.5,3c3.12,1.84,11.85,6.71,31.57,15.85a3.77,3.77,0,0,0,3.57-.21Z"/><g class="cls-6"><path class="cls-7" d="M966.54,720.57a2.29,2.29,0,0,1,1.57,2.62,2.2,2.2,0,0,1-2.58,1.58,2.42,2.42,0,0,1-1.66-2.78,2.28,2.28,0,0,1,2.87-1.35"/></g><path class="cls-7" d="M988.15,742c.23,0,.38-2.08,2.12-3.78s3.78-1.94,3.75-2.17-.54-.21-1.39,0a5.83,5.83,0,0,0-2.94,1.64,5.89,5.89,0,0,0-1.6,3C987.93,741.48,988.06,742,988.15,742Z"/><path class="cls-7" d="M992.26,745.82c.22.09,1-1.43,2.57-2.58s3.28-1.39,3.26-1.62-1.9-.37-3.73,1S992.05,745.79,992.26,745.82Z"/><path class="cls-7" d="M981.44,737.63c.22.11,1.33-2.24,3.7-4.25s4.83-2.77,4.75-3-2.77.21-5.28,2.39S981.24,737.59,981.44,737.63Z"/><path class="cls-7" d="M977.1,727.22c.16.18,1.81-1.3,4.29-2.26s4.68-1.05,4.68-1.29-2.33-.53-5,.54S976.93,727.1,977.1,727.22Z"/><path class="cls-7" d="M973.51,717c.17.17,1.71-1.67,4.4-2.47s5-.21,5-.45c0-.09-.5-.4-1.46-.58a8.17,8.17,0,0,0-3.81.25,8.07,8.07,0,0,0-3.28,1.94C973.7,716.37,973.43,716.92,973.51,717Z"/><path class="cls-7" d="M977.17,712.58a3.11,3.11,0,0,0-.41-1.34,9.75,9.75,0,0,0-2.25-3.09,4.39,4.39,0,0,0-2.42-1.34,1.52,1.52,0,0,0-1.51.89,2.46,2.46,0,0,0,0,1.77,5.36,5.36,0,0,0,6.06,3.13,6.18,6.18,0,0,0,4.69-5.07,2.13,2.13,0,0,0-.49-1.73,1.49,1.49,0,0,0-1.73-.23,5.31,5.31,0,0,0-1.89,2,11.13,11.13,0,0,0-1.44,3.54,3.16,3.16,0,0,0-.11,1.39,17,17,0,0,1,2-4.62,5,5,0,0,1,1.69-1.7.79.79,0,0,1,.94.13,1.48,1.48,0,0,1,.26,1.15,5.54,5.54,0,0,1-4.12,4.35,4.65,4.65,0,0,1-5.18-2.59,1.81,1.81,0,0,1,0-1.23.83.83,0,0,1,.83-.5,3.87,3.87,0,0,1,2.07,1.09A14.25,14.25,0,0,1,977.17,712.58Z"/><polygon class="cls-24" points="788.43 341.51 802.55 356.1 803.13 368.8 786.73 372.57 785.9 372.57 784.84 364.38 775.39 351.81 788.43 341.51"/><path class="cls-20" d="M773.32,331a86,86,0,0,1-121.55,4h0a86,86,0,1,1,121.55-4Zm-117.61-.23a80.3,80.3,0,1,0-23.81-42.87A79.66,79.66,0,0,0,655.71,330.73Z"/><path class="cls-18" d="M773.32,331a86,86,0,0,1-121.55,4h0a86,86,0,1,1,121.55-4Zm-117.61-.23a80.3,80.3,0,1,0-23.81-42.87A79.66,79.66,0,0,0,655.71,330.73Z"/><path class="cls-20" d="M775.43,326.82a86,86,0,0,1-121.55,4h0a86,86,0,1,1,121.55-4Zm-117.61-.23A80.3,80.3,0,1,0,634,283.72,79.71,79.71,0,0,0,657.82,326.59Z"/><path class="cls-20" d="M870.9,435.38l2.73-2.65c2.44-2.36,1.08-7.76-1.48-10.38l-96.07-99.3-12.85,12.43,95.93,99.15C862.4,437.8,867.76,438.42,870.9,435.38Z"/><path class="cls-24" d="M782.36,335a2.29,2.29,0,0,0-2-.52,3.81,3.81,0,0,0-1.52,1.06,17.45,17.45,0,0,0-4.95,12.05c0,1.91.5,4.1,2.2,5l1.93-1.12c.6-.77,2.39-2.06,2.62-3,1-4-.43-3.82,2.07-10.74A2.38,2.38,0,0,0,782.36,335Z"/><path class="cls-24" d="M781.9,340.67a9.52,9.52,0,0,1,1.91-2.51,2.77,2.77,0,0,1,2.54-.76c1.34.41,2,2.33,1.83,4.12a15.56,15.56,0,0,1-1.65,5.07q-2.38,5.15-4.75,10.29l-.92-.68a1.3,1.3,0,0,1-2.05-.45,5.46,5.46,0,0,1-.45-2.8A27,27,0,0,1,781.9,340.67Z"/><path class="cls-24" d="M784.23,350.93a24.19,24.19,0,0,1,4.75-6.36,5.85,5.85,0,0,1,2.21-1.68,2.09,2.09,0,0,1,2.48.73,2.87,2.87,0,0,1-.34,2.52,117.57,117.57,0,0,1-8.17,14.35l-2.84-2.86C781,355.31,783.14,353.35,784.23,350.93Z"/><path class="cls-24" d="M860.87,382.66l-2.61-.56-13.63-11.61-7.46-6.27a4.66,4.66,0,0,0-2.18-1L827.61,362a4.2,4.2,0,0,0,2.21,5.07l4,2.09,3.71,4.38-.48.94s-24.26,3.77-25.78,5.62A2.52,2.52,0,0,0,812,384a3.88,3.88,0,0,0,1.85.17s-1.18,2.86,2.35,5.22c0,0-2.69,3.53,2,5.21a7.66,7.66,0,0,0,4,3.54c2.69.84,17.17,2.52,18.68,2.52l17.4,0,3.49.57Z"/><path class="cls-25" d="M813.28,384.16c0,.19,3,.61,6.71.36s6.65-.8,6.64-1-3,0-6.69.23S813.29,383.93,813.28,384.16Z"/><path class="cls-25" d="M816.19,389.34c0,.1.63.19,1.64.32s2.41.33,4,.42a33.13,33.13,0,0,0,4-.08,6.29,6.29,0,0,0,1.66-.15c0-.11-.62-.32-1.65-.39s-2.46,0-4-.14-3-.21-4-.2S816.19,389.23,816.19,389.34Z"/><path class="cls-25" d="M817.73,394.45c0,.21,2.91.6,6.54.87a15.68,15.68,0,0,1,4.48.7c1.07.4,1.56,1,1.65.89s-.29-.79-1.43-1.38a11.72,11.72,0,0,0-4.64-1C820.7,394.29,817.75,394.24,817.73,394.45Z"/><path class="cls-26" d="M897.13,307.7s10.25,1.77,18,17.05c4.3,8.45,24.38,59.25,25.57,63.7,5.1,19.06-4.76,31.34-14.26,32.18C916,421.55,862,404.1,862,404.1L860.77,381l49.31,7.49-23.69-46S885.48,311.89,897.13,307.7Z"/><path class="cls-18" d="M926.66,401.12a8.41,8.41,0,0,0-1.33-3.08,20.77,20.77,0,0,0-12.92-9.22,8.34,8.34,0,0,0-3.34-.25c0,.13,1.26.22,3.21.77a23.49,23.49,0,0,1,12.6,9C926,400,926.54,401.17,926.66,401.12Z"/><path class="cls-18" d="M912.93,418.65a.7.7,0,0,1-.25,0l-.74-.15c-.66-.14-1.6-.42-2.84-.76-2.46-.71-6.05-1.81-10.57-3.25-9-2.88-21.78-7.09-36.78-12.17l-.23-.07,0-.25c-.34-6.64-.72-13.89-1.12-21.44l0-.47.46.07,12.13,2,37.19,6.06-.37.51L893.4,356.59c-2-3.87-3.51-6.95-4.59-9.11l-1.2-2.43a5.29,5.29,0,0,1-.37-.85,5.87,5.87,0,0,1,.48.8l1.28,2.38,4.77,9,16.62,31.93.32.61-.68-.11-37.2-6-12.13-2,.44-.4c.38,7.56.74,14.8,1.07,21.45l-.24-.32L898.67,414l10.5,3.44c1.22.37,2.16.69,2.8.86l.72.22C912.85,418.61,912.94,418.64,912.93,418.65Z"/><path class="cls-18" d="M899.33,308.64c.07.12-1.4,1-3.44,2.72a29.29,29.29,0,0,0-9.82,18.08c-.37,2.67-.28,4.36-.42,4.37a3.76,3.76,0,0,1-.17-1.18,18.14,18.14,0,0,1,0-3.25,24.87,24.87,0,0,1,.89-4.76A27.14,27.14,0,0,1,892,314.27a26.39,26.39,0,0,1,3.5-3.33,19.35,19.35,0,0,1,2.7-1.81C898.92,308.77,899.3,308.59,899.33,308.64Z"/><path class="cls-27" d="M354.15,346.07s-10.89,60.61-10.37,66.28,3.43,14.68,10,16.23a29.42,29.42,0,0,0,12.62,0l-7.89-74.45Z"/><path class="cls-27" d="M386,294.29l-.76-62.64c-.7-15.57,7.78-29,23.37-29.23l1.44.06a27.87,27.87,0,0,1,26.71,26.75c.53,13.51.94,28.43.55,35.65-.8,14.94-15.85,16.65-15.85,16.65s-.09,9.09-.08,13.48l-12,16.69v.9Z"/><path class="cls-28" d="M421.43,281.53A36.16,36.16,0,0,1,402.21,275s4.22,11.43,19.19,10.7Z"/><path class="cls-18" d="M432,242.13a2.14,2.14,0,0,1-2.15,2.07,2,2,0,0,1-2.12-2,2.14,2.14,0,0,1,2.15-2.07A2.05,2.05,0,0,1,432,242.13Z"/><path class="cls-18" d="M433.28,235.7c-.28.27-1.85-1-4.14-1.08s-4,1-4.27.7c-.12-.13.17-.62.93-1.13a5.86,5.86,0,0,1,3.43-.9,5.63,5.63,0,0,1,3.28,1.21C433.2,235.07,433.41,235.58,433.28,235.7Z"/><path class="cls-18" d="M411.45,242.13a2.13,2.13,0,0,1-2.14,2.07,2,2,0,0,1-2.12-2,2.13,2.13,0,0,1,2.14-2.07A2,2,0,0,1,411.45,242.13Z"/><path class="cls-18" d="M410.74,235.31c-.28.26-1.85-1-4.14-1.09s-4,1-4.27.7c-.11-.13.17-.62.93-1.12a5.86,5.86,0,0,1,3.43-.91A5.7,5.7,0,0,1,410,234.1C410.66,234.67,410.88,235.19,410.74,235.31Z"/><path class="cls-18" d="M418.25,253.3a15.26,15.26,0,0,1,3.76-.52c.59,0,1.15-.13,1.26-.53a2.9,2.9,0,0,0-.32-1.75c-.49-1.45-1-3-1.55-4.54-2.14-6.46-3.67-11.76-3.41-11.84s2.21,5.08,4.36,11.54c.51,1.59,1,3.11,1.47,4.56a3.33,3.33,0,0,1,.21,2.31,1.48,1.48,0,0,1-1,.82,4.17,4.17,0,0,1-1,.1A15,15,0,0,1,418.25,253.3Z"/><path class="cls-18" d="M411.78,228.15c-.34.58-2.54-.13-5.25-.3s-5,.15-5.24-.46c-.11-.3.37-.8,1.35-1.24a8.61,8.61,0,0,1,4.06-.63,8.81,8.81,0,0,1,3.93,1.21C411.53,227.3,411.93,227.88,411.78,228.15Z"/><path class="cls-18" d="M433.66,229c-.49.5-2.35-.09-4.6-.17s-4.16.24-4.58-.32c-.19-.27.12-.78,1-1.26a7.26,7.26,0,0,1,3.76-.75,7.15,7.15,0,0,1,3.64,1.14C433.63,228.16,433.88,228.71,433.66,229Z"/><path class="cls-27" d="M386,242.77c-.25-.12-10.14-3.46-10.24,6.77s10.2,8.22,10.22,7.93S386,242.77,386,242.77Z"/><path class="cls-28" d="M382.86,253.56s-.18.12-.48.26a1.79,1.79,0,0,1-1.34,0c-1.07-.4-2-2.13-2-4a6,6,0,0,1,.52-2.55,2.07,2.07,0,0,1,1.36-1.36.9.9,0,0,1,1,.5c.14.29.07.49.13.51s.22-.17.14-.59a1.16,1.16,0,0,0-.4-.65,1.38,1.38,0,0,0-1-.27A2.52,2.52,0,0,0,379,247a6.1,6.1,0,0,0-.64,2.85c0,2.06,1.08,4,2.56,4.44a1.89,1.89,0,0,0,1.63-.25C382.84,253.81,382.89,253.58,382.86,253.56Z"/><path class="cls-18" d="M411,254.72c.35,0,.36,2.33,2.38,4s4.52,1.38,4.54,1.71c0,.15-.56.46-1.61.5a5.87,5.87,0,0,1-3.79-1.3,5.09,5.09,0,0,1-1.85-3.35C410.62,255.29,410.88,254.71,411,254.72Z"/><path class="cls-18" d="M457.38,215.77a2.45,2.45,0,0,0-1.12-1.43,7.57,7.57,0,0,0-3.82-.66,21.6,21.6,0,0,1-9.34-2.46,10.63,10.63,0,0,0,2.78-1.9A6.43,6.43,0,0,0,447.8,203a1.44,1.44,0,0,0-.79-1c-.67-.21-1.26.43-1.72.94a5.52,5.52,0,0,1-5.23,2.15,9.15,9.15,0,0,1-3.88-1.19l-.13-.15-1.54-1.6h0c-3.81-3.86-7.09-6.54-10.48-8-5-2.06-13.32-3-18.55-1.67s-10,5.48-10.73,10.81c-2.89-2.5-7.28-2.53-10.85-1.14l-.09,0c-4,1.37-6.28,5.53-7.49,9.56-.07.22-.13.44-.19.66a15.72,15.72,0,0,1-5.39,5.15c-.39.22-.83.48-.88.92a1.28,1.28,0,0,0,.67,1.07,7.9,7.9,0,0,0,3.19,1.37,18.07,18.07,0,0,1-1.35,2.76c-.45.76-1,1.66-.61,2.45a1.67,1.67,0,0,0,1.74.78,4.85,4.85,0,0,0,1.85-.81c-.45,1.05-.91,2.1-1.36,3.16a9.38,9.38,0,0,0,4.31-.24c.8,3.79,1.35,10.79,2.3,13.36,2.71.08,3.38-.21,4.74.26,1.77.61,1.05,3.74,3.37,2.88,1.18-.44,3-4.87,3.44-6.06A58.38,58.38,0,0,0,395,214.68a18.72,18.72,0,0,1,5.85-4.11l-.18.15c4.2-1.4,8.95-2.78,12.89-.77,3.07,1.56,4.84,4.78,7.11,7.35,4.31,4.88,9.22,7.52,15.72,7.87.54,4.53.63,11.92.8,16.13l3.69-8.39v0c.29-.49.54-1,.78-1.48l.08-.15v0c.38-.8.74-1.6,1.21-2.39l0,0a2.63,2.63,0,0,0,3.89-3.48,5.93,5.93,0,0,0-1.26-1.29,4.16,4.16,0,0,0,4,1.07,3.27,3.27,0,0,0,2.35-3.2,2.79,2.79,0,0,0-1.64-2.25,9.42,9.42,0,0,0,5.36-1.12C456.68,218.08,457.72,217.1,457.38,215.77Z"/><path class="cls-20" d="M399.44,205.08a11.51,11.51,0,0,0-1.52,1.35,10.91,10.91,0,0,0-2.35,4.95,19.09,19.09,0,0,0-.43,3.8c0,1.38.08,2.86.16,4.41a38.12,38.12,0,0,1,.06,4.92,16.53,16.53,0,0,1-.37,2.58,5.41,5.41,0,0,1-1.08,2.5,2.24,2.24,0,0,1-2.12.69,3.34,3.34,0,0,1-1.89-1.1,7.69,7.69,0,0,1-1.4-3.82l.31,0a12.58,12.58,0,0,1-1.86,3.12,4.41,4.41,0,0,1-2.93,1.55,2.88,2.88,0,0,1-1.54-.29,2.48,2.48,0,0,1-1-1,2.56,2.56,0,0,1-.3-1.33,1.82,1.82,0,0,1,.5-1.16l.15.14a9.65,9.65,0,0,1-3.24,2.38,8.56,8.56,0,0,1-1,.37,1.76,1.76,0,0,1-.36.09,1.51,1.51,0,0,1,.34-.14c.22-.09.55-.22,1-.43a9.85,9.85,0,0,0,3.13-2.41l.16.14a1.94,1.94,0,0,0-.13,2.23,2.31,2.31,0,0,0,.94.92,2.64,2.64,0,0,0,1.4.25,4.22,4.22,0,0,0,2.72-1.48,12.13,12.13,0,0,0,1.79-3.05l.22-.48.09.52a7.57,7.57,0,0,0,1.34,3.66,3,3,0,0,0,1.69,1,1.91,1.91,0,0,0,1.8-.59,5,5,0,0,0,1-2.34,17,17,0,0,0,.37-2.53,39.36,39.36,0,0,0,0-4.87c-.08-1.56-.16-3-.13-4.44a18.84,18.84,0,0,1,.48-3.85,10.58,10.58,0,0,1,2.49-5A6,6,0,0,1,399.44,205.08Z"/><path class="cls-20" d="M445.6,220.17s0,0-.12.1l-.38.27a4.55,4.55,0,0,1-.64.4,7.6,7.6,0,0,1-.91.47,13.19,13.19,0,0,1-6.42,1.08,17,17,0,0,1-9-3.44,29.31,29.31,0,0,1-7.67-9c-1.07-1.82-1.93-3.69-2.89-5.42a19.72,19.72,0,0,0-3.3-4.6,10.2,10.2,0,0,0-4.28-2.66,7.19,7.19,0,0,0-2.27-.29,8.23,8.23,0,0,0-2.09.37,8.76,8.76,0,0,0-4.86,4,10.55,10.55,0,0,0-.8,2.24.91.91,0,0,1,0-.16c0-.12,0-.27.07-.46a7.59,7.59,0,0,1,.59-1.68,8.58,8.58,0,0,1,1.7-2.25,8.8,8.8,0,0,1,3.2-1.94,8.27,8.27,0,0,1,2.16-.41,7.44,7.44,0,0,1,2.36.28,10.51,10.51,0,0,1,4.43,2.71,19.87,19.87,0,0,1,3.37,4.66c1,1.74,1.84,3.61,2.9,5.42a29.4,29.4,0,0,0,7.55,8.95,16.78,16.78,0,0,0,8.82,3.45,13.42,13.42,0,0,0,6.35-1A18.87,18.87,0,0,0,445.6,220.17Z"/><path class="cls-20" d="M447,213.61a2.51,2.51,0,0,1-.54.37,14,14,0,0,1-1.6.79,15.23,15.23,0,0,1-2.53.79,17.52,17.52,0,0,1-3.22.39,17.33,17.33,0,0,1-3.24-.25,15.78,15.78,0,0,1-2.56-.7,11.34,11.34,0,0,1-1.63-.72,2.56,2.56,0,0,1-.56-.34c0-.06.86.37,2.27.83a19.25,19.25,0,0,0,2.53.61,18.76,18.76,0,0,0,3.18.22,19,19,0,0,0,3.16-.35,17.51,17.51,0,0,0,2.51-.72C446.2,214,447,213.55,447,213.61Z"/><path class="cls-20" d="M407.87,689.05l-1.48,33.83s33.89,12.86,34.23,19.14l-65.69-.51.14-52.8Z"/><path class="cls-15" d="M386.1,719.88a2.68,2.68,0,0,0-1.88,3,2.58,2.58,0,0,0,3,1.89,2.82,2.82,0,0,0,2-3.24c-.43-1.24-2.17-2.23-3.34-1.61"/><g class="cls-6"><path class="cls-7" d="M374.93,741.51l.22-5.32,62.9,2.48S441,740,440.62,742Z"/></g><path class="cls-18" d="M407.46,722.55c0,.33-1.62.46-3.2,1.48s-2.44,2.36-2.73,2.23.19-2,2.14-3.18S407.53,722.26,407.46,722.55Z"/><path class="cls-18" d="M414.33,725.46c.07.31-1.32.84-2.42,2.19s-1.43,2.78-1.75,2.77-.51-1.84.89-3.49S414.32,725.15,414.33,725.46Z"/><path class="cls-18" d="M418.18,733.73c-.29.07-.73-1.54.11-3.29s2.34-2.43,2.48-2.17-.81,1.21-1.47,2.65S418.5,733.71,418.18,733.73Z"/><path class="cls-18" d="M406.94,714.81c-.13.29-1.6-.16-3.42-.06s-3.23.67-3.39.4,1.2-1.41,3.34-1.51S407.1,714.56,406.94,714.81Z"/><path class="cls-18" d="M407.78,714.43c.17,0,.19,3.13.09,8.14l-.26-.4c3.84,1.46,8.94,3.42,14.36,6,5.93,2.77,11.16,5.67,14.56,8.38a15.73,15.73,0,0,1,3.6,3.67c.68,1,.59,1.86.48,1.82a4.45,4.45,0,0,0-.83-1.58,18.5,18.5,0,0,0-3.72-3.29,95.64,95.64,0,0,0-14.56-8c-5.38-2.54-10.43-4.59-14.19-6.2l-.28-.12,0-.28C407.35,717.53,407.62,714.42,407.78,714.43Z"/><path class="cls-18" d="M365.39,453.18v30.66l12.1,97.89s-3.84,45.91-6.19,71.83c-2.05,22.5,1.3,61.7,1.3,61.7h35.85l12.83-130.72,8-81.52,14.44-48.29Z"/><path class="cls-20" d="M429,683.18l-9.39,32.54s29.92,20.47,28.76,26.65l-63.72-16,12.55-51.28Z"/><path class="cls-15" d="M400.55,708a2.68,2.68,0,0,0-2.54,2.52,2.58,2.58,0,0,0,2.47,2.55,2.84,2.84,0,0,0,2.68-2.69c-.12-1.31-1.59-2.68-2.87-2.36"/><g class="cls-6"><path class="cls-7" d="M384.6,726.42l1.46-5.12,60.56,17.2s2.53,2,1.7,3.87Z"/></g><path class="cls-18" d="M420.68,715.65c-.09.31-1.68.06-3.46.68s-2.93,1.72-3.18,1.52.65-1.87,2.82-2.58S420.82,715.38,420.68,715.65Z"/><path class="cls-18" d="M426.67,720.09c0,.32-1.48.51-2.87,1.56s-2,2.37-2.35,2.28-.06-1.91,1.69-3.18S426.74,719.79,426.67,720.09Z"/><path class="cls-18" d="M428.47,729c-.3,0-.35-1.67.88-3.18s2.85-1.82,2.91-1.52-1.06,1-2,2.23S428.78,729.08,428.47,729Z"/><path class="cls-18" d="M422,708c-.2.25-1.52-.54-3.31-.86s-3.29-.11-3.39-.41,1.5-1.09,3.6-.68S422.21,707.79,422,708Z"/><polygon class="cls-18" points="457.53 455.27 459.18 471.94 457.19 593.02 428.81 690.27 421.94 713.86 385.31 706.96 413.54 455.31 457.53 455.27"/><path class="cls-20" d="M456.42,595.55s0,.2-.14.58-.26,1-.46,1.68c-.42,1.5-1,3.68-1.84,6.51-1.64,5.71-4,14-7,24.45-6.07,20.94-14.65,50.52-24.69,85.18l-.09.28-.28-.05-36.63-6.88-.33-.07.06-.33c1.87-9.87,3.82-20.18,5.81-30.7,5.92-31.14,11.5-60.52,16.37-86.18v.1c-6.06-38.07-10.9-68.43-13.68-85.87l0,.05-6.12-11.13-1.56-2.88c-.35-.64-.51-1-.51-1s.21.31.58.95l1.62,2.84,6.23,11.06,0,0v0c2.84,17.42,7.8,47.76,14,85.82v.1c-4.85,25.67-10.4,55-16.29,86.2-2,10.51-4,20.83-5.82,30.69l-.27-.39L422,713.54l-.37.23c10.14-34.63,18.8-64.19,24.94-85.11l7.2-24.4,2-6.48.51-1.67C456.35,595.74,456.42,595.55,456.42,595.55Z"/><path class="cls-20" d="M451,465.2a11.79,11.79,0,0,1-2,2.93,27,27,0,0,1-14.43,8.78,11.12,11.12,0,0,1-3.51.43c-.07-.23,5.43-.76,11.07-4.25S450.78,465,451,465.2Z"/><path class="cls-27" d="M529,282.51a1.54,1.54,0,0,0-.34-2.13.78.78,0,0,0-.55-.16c-.73.12-2.66,1.53-4.15,1.55s-4-.43-5.5,1-5.11,8.95-5.57,10.59-2.07,16.07-2.07,16.07Z"/><path class="cls-18" d="M535.27,280.62c-.08.09-17.77,7.9-25.55,11.33a2.63,2.63,0,0,0-.75,4.33h0a2.76,2.76,0,0,0,3.16.5l25.39-12.38,2.1-3.18Z"/><path class="cls-27" d="M516.53,296.55l5.64-4.16,7.45-10.81s3-1.81,4.63-.67,2.1,2.46,1.37,3.94c0,0,4.2,1,4.51,2.41s-.61,4.84-.61,4.84.62,2.63,0,4a6.52,6.52,0,0,0-.53,2.6s2.72,3.33,1.55,6.74-6.09,11-8.72,13a57.38,57.38,0,0,1-7.61,4.32L521,329.6,507.5,317.39Z"/><path class="cls-28" d="M529.38,282.05a2.88,2.88,0,0,1-.33.58l-1,1.53c-.86,1.29-2.06,3-3.4,5l-1.91,2.73a6.56,6.56,0,0,1-1,1.11,4.76,4.76,0,0,1-1.09.7,8.24,8.24,0,0,1-1.74.59,2.71,2.71,0,0,1-.67.12,4.08,4.08,0,0,1,.64-.22,11.08,11.08,0,0,0,1.69-.66c1.45-.61,2.42-2.64,3.81-4.53s2.57-3.68,3.47-4.94l1.08-1.48A3.58,3.58,0,0,1,529.38,282.05Z"/><path class="cls-28" d="M531.12,293.29a39.08,39.08,0,0,1,2.17-4.25,42,42,0,0,1,2.42-4.12,42.87,42.87,0,0,1-2.18,4.25A46,46,0,0,1,531.12,293.29Z"/><path class="cls-28" d="M532.89,300s-.06-.24-.2-.59a2.41,2.41,0,0,0-2.24-1.56,4.43,4.43,0,0,1-.63,0s.21-.17.62-.21a2.35,2.35,0,0,1,1.53.41,2.23,2.23,0,0,1,.9,1.29C533,299.79,532.92,300.05,532.89,300Z"/><path class="cls-28" d="M539.15,302.07s-.23-.13-.55-.38a6.86,6.86,0,0,0-1.32-.86,2.52,2.52,0,0,0-1.49-.25,1.53,1.53,0,0,0-.56.29s.06-.33.51-.47a2.35,2.35,0,0,1,1.65.17,4.94,4.94,0,0,1,1.34,1C539,301.84,539.18,302,539.15,302.07Z"/><path class="cls-28" d="M536.74,296.38a11.58,11.58,0,0,1,1.23-2.21,12.08,12.08,0,0,1,1.47-2.06,11.58,11.58,0,0,1-1.23,2.21A12.08,12.08,0,0,1,536.74,296.38Z"/><path class="cls-28" d="M525.92,296.88s0-.23-.14-.57a2,2,0,0,0-2-1.48c-.36,0-.58.07-.59,0s.19-.17.57-.23a2.08,2.08,0,0,1,1.45.37,2,2,0,0,1,.79,1.26C526,296.65,526,296.88,525.92,296.88Z"/><path class="cls-20" d="M511.16,296.84s.25-.25.49-.72a2.43,2.43,0,0,0,.13-2,2.62,2.62,0,0,0-1.4-1.39c-.49-.2-.83-.19-.83-.24a1.34,1.34,0,0,1,.9.06,2.58,2.58,0,0,1,1.59,1.47,2.42,2.42,0,0,1-.22,2.16C511.51,296.7,511.18,296.86,511.16,296.84Z"/><path class="cls-27" d="M463.72,331l21.4,18.32,26.27-39.25,17.09,10.07s-25.61,58.94-32.55,64.15-12.79,3.85-21.71-.27-40.73-36.14-40.73-36.14Z"/><path class="cls-28" d="M485.88,365.59c-.21,0,.38-3.73.12-8.3s-1.21-8.19-1-8.25,1.45,3.54,1.69,8.21S486.05,365.64,485.88,365.59Z"/><path class="cls-29" d="M376.38,301s18.19.27,18.45,22.94-4.63,53-4.63,53l-46.44-8.18s5.77-42.22,10.68-54.38S368.85,299,376.38,301Z"/><path class="cls-29" d="M385,284.69l-.58,3.7s-24.82,16.4-26.22,20.63c-2.18,6.56,2.57,62,4.66,77.71s2.52,50.34,2.52,50.34c-1.52,4.08-3.25,7.76-3.83,13.45s3.83,10.79,3.83,10.79c26.63,8.69,59.16,2,94.36-6l-.33-10L447.91,337s3.35-28.17-10.39-36.33c-1.51-.89-13.5-7.7-13.5-7.7Z"/><g class="cls-19"><path d="M424.92,331.67a84.1,84.1,0,0,0,8.18,33.43,99.1,99.1,0,0,0,20.88,29l-3.73-32.43Z"/></g><path class="cls-29" d="M445.76,304.31c-4.35-3.52-12.44-5.43-17.06-2.27a13.93,13.93,0,0,0-5.6,6.9c-3.94,11.52-1.58,23.91,1.57,33.11S443.06,369,443.06,369l37.66-22.86s-25.21-30.54-27.83-33.7C451.52,310.76,448.18,306.26,445.76,304.31Z"/><path class="cls-29" d="M445.76,304.31a7.24,7.24,0,0,1,.8.63c.5.45,1.21,1.15,2.08,2.11,1.74,1.93,4,4.92,7.15,8.57L481,345.91l.22.27-.3.19L445.3,368l-2.06,1.25-.25.16-.19-.23c-4.21-5-8.12-10-11.63-15a79.27,79.27,0,0,1-4.81-7.66,32,32,0,0,1-1.85-4c-.51-1.36-.91-2.73-1.31-4.08C420.06,327.62,420,317,422.85,309a12.06,12.06,0,0,1,12.52-8.65,16.92,16.92,0,0,1,3.9.67,18.5,18.5,0,0,1,5,2.2,8.59,8.59,0,0,1,1.51,1.14s-.51-.4-1.58-1a19.91,19.91,0,0,0-5-2.06,17.37,17.37,0,0,0-3.85-.6,12.43,12.43,0,0,0-4.54.6,12.13,12.13,0,0,0-4.36,2.92,12.39,12.39,0,0,0-3.15,5c-2.77,8-2.64,18.45.51,29.16.4,1.34.8,2.7,1.3,4a31.27,31.27,0,0,0,1.83,3.9,79.73,79.73,0,0,0,4.78,7.59c3.5,5,7.41,10,11.6,14.94l-.44-.07,2.06-1.25,35.61-21.57-.07.46-25-30.44c-3.06-3.68-5.33-6.73-7-8.68-.84-1-1.52-1.69-2-2.16S445.75,304.33,445.76,304.31Z"/><path class="cls-18" d="M357.72,321.57a2.27,2.27,0,0,1,.11.66c.05.51.1,1.13.17,1.89.13,1.75.3,4.1.51,7,.38,6,.89,14.05,1.46,23s1.2,17.09,1.73,22.95c.27,2.85.49,5.2.65,6.95.06.75.12,1.38.16,1.89a2.08,2.08,0,0,1,0,.66,2.76,2.76,0,0,1-.15-.64c-.07-.51-.17-1.13-.29-1.88-.24-1.63-.54-4-.86-6.93-.66-5.86-1.35-14-1.94-23s-1-17.1-1.26-23c-.12-2.87-.21-5.22-.28-7,0-.75,0-1.38-.05-1.89A2.88,2.88,0,0,1,357.72,321.57Z"/><path class="cls-18" d="M441,453.18a2.79,2.79,0,0,1-.69.22l-2,.49c-.89.22-2,.45-3.24.68s-2.71.53-4.32.77c-3.2.55-7,1-11.32,1.42s-9,.62-13.95.68-9.68-.13-14-.42-8.13-.73-11.34-1.25c-1.61-.22-3.05-.49-4.32-.73s-2.36-.45-3.24-.67l-2-.49a2.35,2.35,0,0,1-.7-.22,3.36,3.36,0,0,1,.73.09l2.05.36c.89.17,2,.36,3.26.55s2.71.43,4.32.62c3.2.46,7.05.8,11.31,1.11s9,.4,13.92.36,9.64-.3,13.91-.63,8.1-.77,11.3-1.26c1.61-.21,3.05-.45,4.32-.67s2.36-.38,3.25-.56l2.06-.37A3.53,3.53,0,0,1,441,453.18Z"/><path class="cls-18" d="M159.19,221c-5.21-1-10.73.65-15,3.76a19.12,19.12,0,0,0-6.88,8.58,13.22,13.22,0,0,0,.52,10.81c1.84,3.37,5.3,5.58,8.87,7a19.35,19.35,0,0,0,9.45,1.47,10.82,10.82,0,0,0,7.94-4.9l6.16-13A13.45,13.45,0,0,0,159.19,221Z"/><path class="cls-18" d="M217.32,237.19h0c-10.73-13.59-29.89-17.56-44.83-8.81a48.36,48.36,0,0,0-4.36,2.88c-9.62,7.1-15,19.35-14.32,31.29a41.09,41.09,0,0,0,17,30.28l46.82-11.41c2.92-7.93,4.2-15.54,5.13-25.15a31.45,31.45,0,0,0,.12-3.69A25.65,25.65,0,0,0,217.32,237.19Z"/><path class="cls-27" d="M165.1,256.23a17.38,17.38,0,0,1,13.07-16l23.43-6c10.13-1.09,16.89,11.37,17.56,21.53.73,11.29,1.19,23.2-.13,31.63-2.66,16.95-15.64,19.14-15.64,19.14s0,8.06,0,13l.24,21.54-33.35-24L165,256.44C165,256.15,165.07,256.62,165.1,256.23Z"/><path class="cls-18" d="M216,269.4a2.18,2.18,0,0,1-2.09,2.2,2.08,2.08,0,0,1-2.25-2,2.18,2.18,0,0,1,2.09-2.2A2.08,2.08,0,0,1,216,269.4Z"/><path class="cls-18" d="M216.26,262.75c-.27.29-1.92-.93-4.26-.92s-4.05,1.19-4.3.9c-.13-.12.15-.64.89-1.18a5.89,5.89,0,0,1,3.45-1.07,5.78,5.78,0,0,1,3.39,1.08C216.15,262.11,216.39,262.63,216.26,262.75Z"/><path class="cls-18" d="M195.85,269.41a2.17,2.17,0,0,1-2.09,2.19,2.07,2.07,0,0,1-2.24-2,2.17,2.17,0,0,1,2.09-2.2A2.08,2.08,0,0,1,195.85,269.41Z"/><path class="cls-18" d="M194.51,263.19c-.27.28-1.92-.93-4.26-.92s-4,1.19-4.3.9c-.12-.13.15-.64.9-1.18a5.83,5.83,0,0,1,3.44-1.07,5.68,5.68,0,0,1,3.39,1.08C194.4,262.55,194.64,263.06,194.51,263.19Z"/><path class="cls-18" d="M201.72,280.78a15.24,15.24,0,0,1,3.79-.69c.6-.07,1.16-.19,1.26-.59a3,3,0,0,0-.4-1.77q-.84-2.18-1.77-4.54c-2.47-6.47-4.26-11.79-4-11.89s2.48,5.07,4.94,11.54c.6,1.59,1.16,3.11,1.7,4.57a3.44,3.44,0,0,1,.32,2.34,1.48,1.48,0,0,1-1,.87,4,4,0,0,1-1,.15A15.39,15.39,0,0,1,201.72,280.78Z"/><path class="cls-28" d="M180.92,300.52s5.51,11.64,22.47,10v-4A42.72,42.72,0,0,1,180.92,300.52Z"/><path class="cls-18" d="M193.67,254c-.23.63-2.56.34-5.3.67s-5,1.09-5.33.52c-.16-.27.22-.87,1.11-1.48a9.26,9.26,0,0,1,8.1-.92C193.26,253.17,193.77,253.66,193.67,254Z"/><path class="cls-18" d="M213.8,254.3c-.41.53-2,0-4,0s-3.58.36-4-.19c-.17-.27.09-.8.8-1.31a5.58,5.58,0,0,1,3.22-.88,5.44,5.44,0,0,1,3.16,1.07C213.75,253.49,214,254,213.8,254.3Z"/><path class="cls-27" d="M167.42,268.51c-.18-.49-9-3.68-9.13,5.72-.12,9.12,9.09,7.33,9.11,7.06S167.42,268.51,167.42,268.51Z"/><path class="cls-28" d="M164.62,277.81s-.16.11-.43.23a1.59,1.59,0,0,1-1.19,0c-1-.37-1.76-1.91-1.79-3.55a5.32,5.32,0,0,1,.47-2.27,1.81,1.81,0,0,1,1.21-1.21.8.8,0,0,1,.93.44c.12.26.06.44.11.46s.2-.16.13-.53a1.06,1.06,0,0,0-.36-.58,1.21,1.21,0,0,0-.87-.24,2.22,2.22,0,0,0-1.68,1.4,5.37,5.37,0,0,0-.57,2.54c0,1.84,1,3.57,2.28,4a1.64,1.64,0,0,0,1.45-.23C164.6,278,164.65,277.83,164.62,277.81Z"/><path class="cls-7" d="M163.58,279.42a1.8,1.8,0,0,0-.87,3.48,1.8,1.8,0,0,0,1.3-3.34"/><path class="cls-18" d="M164,279.56a2.54,2.54,0,0,1,.82,1.23,1.55,1.55,0,0,1-.36,1.43,1.6,1.6,0,0,1-2.81-.9,1.55,1.55,0,0,1,.54-1.37,2.55,2.55,0,0,1,1.38-.53s-.14-.09-.43-.1a1.93,1.93,0,0,0-1.14.4,1.85,1.85,0,0,0-.73,1.65,2,2,0,0,0,3.48,1.1,1.8,1.8,0,0,0,.35-1.76,1.84,1.84,0,0,0-.7-1C164.18,279.56,164,279.54,164,279.56Z"/><path class="cls-28" d="M192.84,284.79a3.36,3.36,0,0,1,2.73-1.63,4.36,4.36,0,0,1,4.06,1.81,2.71,2.71,0,0,1,.26,2c-.13.34,0,.17-.28.41a7.72,7.72,0,0,1-3.05,2.06,3.29,3.29,0,0,1-3.51-1.14A3.35,3.35,0,0,1,192.84,284.79Z"/><path class="cls-18" d="M193.18,281.61c.38,0,.5,2.48,2.73,4.16s4.9,1.3,4.94,1.65c0,.15-.58.51-1.71.59a6.26,6.26,0,0,1-4.11-1.22,5.5,5.5,0,0,1-2.13-3.5C192.76,282.24,193,281.6,193.18,281.61Z"/><path class="cls-18" d="M206,233c-.57-1-1.89-1.3-3.06-1.42A48.4,48.4,0,0,0,160,250.05l2.6,15.78c-1.1,2,4.08,5.91,6.33,5.77s4-2.11,4.8-4.21c1.56-4.12.67-9.39,3.89-12.4,1.81-1.7,4.43-2.12,6.85-2.65a35.3,35.3,0,0,0,13-5.49A22.77,22.77,0,0,0,206,235.76,3.5,3.5,0,0,0,206,233Z"/><path class="cls-20" d="M157.25,276.13a7.74,7.74,0,0,1-.88-1.65,32,32,0,0,1-1.73-4.82,35.41,35.41,0,0,1,6.9-31.92,31.3,31.3,0,0,1,3.56-3.68,8.39,8.39,0,0,1,1.49-1.14c.1.11-2,1.78-4.64,5.15a36.73,36.73,0,0,0-6.8,31.46C156.16,273.68,157.39,276.07,157.25,276.13Z"/><polygon class="cls-18" points="168.67 693.36 174.03 739.68 194.34 736.59 195.7 690.94 168.67 693.36"/><path class="cls-18" d="M194.55,729.36s-16.52,6.81-21.14-3.6l.07-1.43-18.34,33.72a4.2,4.2,0,0,0,1,5.41,3.91,3.91,0,0,0,4.28.17c7.14-4.22,33.7-20.83,33.7-20.83l1.09-6c.37-1.55-.06-5.2-.7-7.44Z"/><path class="cls-15" d="M194.94,738.3l-38.12,25.52a3.91,3.91,0,0,0,3.75-.16c19.82-11.83,33.59-20.86,33.59-20.86Z"/><path class="cls-20" d="M169.61,749.14c-.23.06-.58-2.16-2.54-3.78s-4.13-1.65-4.12-1.9.54-.29,1.46-.2a6,6,0,0,1,3.21,1.43,6.13,6.13,0,0,1,1.94,3C169.8,748.55,169.72,749.13,169.61,749.14Z"/><path class="cls-20" d="M165.65,753.63c-.22.12-1.11-1.42-2.92-2.46s-3.54-1.12-3.55-1.37,2-.6,4,.62S165.87,753.58,165.65,753.63Z"/><path class="cls-20" d="M176.25,743.77c-.22.14-1.59-2.24-4.24-4.11s-5.3-2.43-5.24-2.68,2.91-.08,5.74,2S176.46,743.7,176.25,743.77Z"/><path class="cls-18" d="M179.19,734.69c-.15.2-2-1.19-4.68-1.94s-5-.62-5-.88,2.38-.8,5.25,0S179.36,734.54,179.19,734.69Z"/><path class="cls-18" d="M249.1,729.86c-.47-.71-4.73-16.21-4.73-16.21l26.28-7.16,3.73,22.34Z"/><path class="cls-18" d="M273.29,722.28l.89,3.94S303.1,738,303.47,743.74l-57.16.42L247,723.1C255.54,727.18,263.52,726.48,273.29,722.28Z"/><path class="cls-15" d="M246.31,744.16l.16-4.81,54.72,1.36s2.56,1.14,2.28,3Z"/><path class="cls-20" d="M274.38,726.39c0,.29-1.41.43-2.77,1.39s-2.09,2.19-2.35,2.07.15-1.81,1.82-2.93S274.44,726.12,274.38,726.39Z"/><path class="cls-20" d="M280.39,729c.06.28-1.14.79-2.08,2s-1.21,2.56-1.48,2.55-.47-1.67.73-3.2S280.38,728.67,280.39,729Z"/><path class="cls-20" d="M283.84,736.46c-.25.07-.65-1.39.06-3s2-2.26,2.13-2-.69,1.11-1.25,2.44S284.12,736.43,283.84,736.46Z"/><path class="cls-18" d="M231.29,449.73s14.5,65,26.76,140c10.09,61.67,14.55,128.44,14.55,128.44l-29.69,1.74s-18.1-76.48-32.19-131.46c-13-50.71-23.56-77.31-23.56-77.31l-5.95-66.91Z"/><path class="cls-18" d="M149.36,436.79s-26.05,35.21-23.86,72c1.31,22,45.84,217.37,45.84,217.37l26.37-.9-8.43-207.54,8.93-67.95Z"/><path class="cls-18" d="M229.3,342a6.09,6.09,0,0,1,.14,1.09c.06.81.13,1.85.23,3.14.21,2.73.35,6.69.45,11.57.18,9.78-.28,23.29-1.26,38.17s-1.81,28.34-2,38.1c-.11,4.88-.15,8.83-.11,11.56v3.15a5.22,5.22,0,0,1-.06,1.1,5.37,5.37,0,0,1-.12-1.1c0-.8-.09-1.84-.15-3.14-.14-2.73-.19-6.69-.16-11.58,0-9.78.78-23.27,1.75-38.14s1.53-28.35,1.5-38.11c0-4.88-.06-8.83-.17-11.56,0-1.3-.06-2.34-.07-3.15A5.23,5.23,0,0,1,229.3,342Z"/><path class="cls-27" d="M316.56,344l-15.88,5.83-17.35,23.49,4.74,8.21,4.69-4.4s17.86-3.33,19.14-5.87a4.93,4.93,0,0,0-.18-4.72,11.09,11.09,0,0,0,.14-5,3.23,3.23,0,0,0-2.24-2.47s2-.8,1.12-3.3a4.29,4.29,0,0,0-2.58-3s10.66-5.07,11.6-6.51a1.19,1.19,0,0,0-.11-1.43A2.65,2.65,0,0,0,316.56,344Z"/><path class="cls-27" d="M280.61,368.37l3.21-4.5,6.92-12.56,15.44-4.16s2.6,1.21-1,5.82a9.35,9.35,0,0,1-8.62,3.67s1.09,10-1.63,14.49S284.85,376,284.85,376Z"/><path class="cls-28" d="M295.12,371.84a3.77,3.77,0,0,0,.67-1,14.08,14.08,0,0,0,1.27-3.06,17.12,17.12,0,0,0-.43-10.94l-.24.45.55-.09a18.68,18.68,0,0,0,5.83-1.7,7.71,7.71,0,0,0,3.52-3.65,5.8,5.8,0,0,0,.49-3.46,2.45,2.45,0,0,0-.47-1.19c-.05,0,.14.44.23,1.23a5.85,5.85,0,0,1-.65,3.21,7.44,7.44,0,0,1-3.38,3.32,19.3,19.3,0,0,1-5.67,1.59l-.55.09-.39.07.15.38a17.66,17.66,0,0,1,.59,10.57A37.16,37.16,0,0,1,295.12,371.84Z"/><path class="cls-28" d="M309.19,359.57a13.73,13.73,0,0,0-1.58.56c-1,.38-2.49.86-4.3,1.57a15.3,15.3,0,0,0-2.88,1.42,3.16,3.16,0,0,0-1.28,1.45,2.38,2.38,0,0,0,.3,2.12,3.72,3.72,0,0,0,1.62,1.39,3.52,3.52,0,0,0,2.17.12l1-.18a7.69,7.69,0,0,0,1.08-.24c.7-.21,1.39-.47,2.08-.74l1.84-.72-.2-.62a16.2,16.2,0,0,0-3.52,2L304,368.77a15.51,15.51,0,0,0-1.53,1,2.29,2.29,0,0,0-.87,1.73,1.46,1.46,0,0,0,.32.95,1.93,1.93,0,0,0,.73.54,6.64,6.64,0,0,0,2.91.39,13.83,13.83,0,0,0,4-1.06,6.49,6.49,0,0,0,1.35-.66,7.52,7.52,0,0,0-1.43.43,15.78,15.78,0,0,1-4,.85,6.23,6.23,0,0,1-2.67-.44,1.05,1.05,0,0,1-.73-1,1.76,1.76,0,0,1,.69-1.27c.41-.34,1-.6,1.49-.95l1.57-1.06a16.28,16.28,0,0,1,3.38-1.9l-.2-.63-1.85.72c-.68.27-1.36.52-2,.72a7.62,7.62,0,0,1-1,.24c-.36.05-.7.12-1,.18a2.9,2.9,0,0,1-1.83-.07,3.06,3.06,0,0,1-1.37-1.14,1.8,1.8,0,0,1-.26-1.57,2.63,2.63,0,0,1,1.05-1.2,16.27,16.27,0,0,1,2.75-1.45c1.78-.75,3.25-1.3,4.23-1.76A6.05,6.05,0,0,0,309.19,359.57Z"/><path class="cls-28" d="M308,352.91a11.14,11.14,0,0,0-3.27,1.15,24.76,24.76,0,0,0-3.31,1.89c-.59.4-1.2.85-1.81,1.35a3.32,3.32,0,0,0-1.48,2.17,1.69,1.69,0,0,0,.56,1.37,2.2,2.2,0,0,0,1.19.59,7.27,7.27,0,0,0,2.29,0,26.4,26.4,0,0,0,3.68-.8,10.05,10.05,0,0,0,3.23-1.29c0-.08-1.26.38-3.33.84a35,35,0,0,1-3.65.65,7.77,7.77,0,0,1-2.1,0,1.37,1.37,0,0,1-1.24-1.29,2.85,2.85,0,0,1,1.23-1.7c.59-.49,1.18-.94,1.76-1.35a30.58,30.58,0,0,1,3.17-2C306.79,353.48,308,353,308,352.91Z"/><path class="cls-20" d="M251.23,381.4,235.3,330.33a14.66,14.66,0,0,0-9.54-9.72L216,318.4l10.77,82.92,2.41,6.22c5.69,12.69,18.15,10.54,29.13,4.93.4-.2.78-.41,1.15-.62L291.63,386,281,366.8Z"/><path class="cls-18" d="M247.68,396c.19,0,.26-3.4,1.34-7.39s2.69-6.95,2.52-7-2,2.76-3.13,6.87S247.52,396,247.68,396Z"/><path class="cls-7" d="M151.27,344.89,162,445.35l59.63,4.38,4.75-4.06-1.65-75.86-21.42-54h0c-2.55,4.84-7.43,6.47-13.31,6A21.9,21.9,0,0,1,179,317.59l-9.86-7.09Z"/><path class="cls-20" d="M169.09,310.5l-7.26,7.9-34.13,8.17,20,96.56-15.2,37.37a91.83,91.83,0,0,0-4,12.08l-9.37,36.66s32.27,8.78,40.57,4,18.44-51.41,21.52-62.48,7.68-44,5.53-61.49-7.61-37.17-9.46-46.09S169.09,310.5,169.09,310.5Z"/><path class="cls-20" d="M133.86,411.42l7.68-29.84-13.84-55s-6.46,4.61-10.76,21.5c-4.49,17.68-19.53,66.36-18.61,77.74s61,32,61,32l2.46-31.66Z"/><path class="cls-20" d="M203.39,308.83l4.7,7.28,19.59,4.95s5.15,25.8,5.15,32.87-2.91,85.46-2.91,89.15,14.14,53.8,12.91,56.88-16,5.22-16,5.22-5.53-43.35-5.53-58.1-.62-51-3.69-68.87-14.14-62.1-14.14-62.1Z"/><path class="cls-18" d="M221.64,455.32a1.82,1.82,0,0,1,0-.37v-1.08q0-1.51.06-4.14c.08-3.66.2-8.85.34-15.22.3-12.85.82-30.61,1.14-50.22,0-2.45.06-4.87,0-7.25s-.25-4.7-.43-7c-.37-4.61-.74-9.06-1.17-13.28s-.91-8.23-1.54-11.94a51.23,51.23,0,0,0-2.87-10A128.8,128.8,0,0,0,210.74,321l-2-3.63-.52-.95a1.48,1.48,0,0,1-.15-.33s.09.09.22.29l.59.91c.5.8,1.22,2,2.11,3.56a117.24,117.24,0,0,1,6.69,13.7,50.48,50.48,0,0,1,3,10.12c.67,3.74,1.17,7.75,1.62,12s.84,8.68,1.22,13.29c.18,2.3.45,4.65.44,7.07s0,4.82,0,7.27c-.32,19.62-.93,37.38-1.37,50.23-.25,6.37-.45,11.55-.6,15.21-.08,1.75-.15,3.13-.2,4.14,0,.43-.06.78-.08,1.07A1.61,1.61,0,0,1,221.64,455.32Z"/><path class="cls-18" d="M185.2,425.81a5.27,5.27,0,0,1-.17-1.11c-.09-.73-.18-1.8-.28-3.19-.18-2.77-.35-6.79-.27-11.76,0-2.48.15-5.2.35-8.12a35.61,35.61,0,0,0-1.15-9.12,150.44,150.44,0,0,0-7.08-20.15c-3-7-6-13.59-8.86-19.56a79.42,79.42,0,0,1-3.78-8.61,70.34,70.34,0,0,1-2-7.92c-1-4.88-1.52-8.86-1.87-11.62-.17-1.38-.28-2.45-.35-3.18a5.46,5.46,0,0,1,0-1.11,7.76,7.76,0,0,1,.21,1.09c.12.8.29,1.85.49,3.16.44,2.74,1.06,6.71,2.12,11.56a73,73,0,0,0,2.08,7.83,81,81,0,0,0,3.82,8.51c2.88,5.95,6,12.54,8.93,19.57a143.41,143.41,0,0,1,7,20.28,35.25,35.25,0,0,1,1.1,9.32c-.22,2.9-.36,5.61-.44,8.09-.16,5-.06,9,0,11.73l.12,3.19A8.65,8.65,0,0,1,185.2,425.81Z"/><path class="cls-18" d="M273.38,423.39,256.6,446.07a3.05,3.05,0,0,1-3,1.19L181,433.54a3.06,3.06,0,0,1-2.35-4l7.84-24.11a3.05,3.05,0,0,1,3.47-2.06l81.55,15.15A3.06,3.06,0,0,1,273.38,423.39Z"/><path class="cls-18" d="M116.94,413.4a7.21,7.21,0,0,1,2.44-2,15,15,0,0,1,14.66-.2,7,7,0,0,1,2.5,1.91c-.08.1-1-.62-2.75-1.41a16.13,16.13,0,0,0-14.15.19C118,412.75,117,413.5,116.94,413.4Z"/><g class="cls-19"><polygon points="134.12 456.43 162.81 466.98 165.79 455.08 179.38 457.82 181.21 450.94 159.89 447.95 159.68 457.82 137.39 449.41 134.12 456.43"/></g><path class="cls-27" d="M161.63,428.69s5.74-4.85,7.52-5.94,7.79-5.06,10.52-4.65l2.73.41-2.46,7.24s22-3.27,25,.28-3.28,4.23-6.56,4.64-13.82,2.19-13.82,2.19,27.48-3,29.39,0-2.66,3.69-2.66,3.69l-18.2,7.24-2.09.82-2.09,2.73s-7.48,5.2-9.8,4.51S159.89,448,159.89,448Z"/><path class="cls-28" d="M180.74,441.11a21.76,21.76,0,0,1,4.26-1.3,103.61,103.61,0,0,1,10.56-2,105.41,105.41,0,0,1,10.71-1,21.74,21.74,0,0,1,4.45.08,29.66,29.66,0,0,1-4.42.48c-2.73.23-6.49.6-10.63,1.18s-7.86,1.26-10.55,1.78A29.57,29.57,0,0,1,180.74,441.11Z"/><path class="cls-28" d="M183.24,446.4c-.05-.21,1.71-.85,3.94-1.43s4.08-.88,4.13-.67-1.71.85-3.94,1.43S183.29,446.61,183.24,446.4Z"/><path class="cls-18" d="M232.34,343.17a5.49,5.49,0,0,1,.12,1c.06.74.13,1.71.22,2.9.19,2.52.32,6.18.41,10.69.17,9-.25,21.52-1.16,35.27s-1.67,26.18-1.85,35.2c-.1,4.51-.13,8.16-.1,10.68v2.91a4.65,4.65,0,0,1-.06,1,5.82,5.82,0,0,1-.1-1c0-.75-.09-1.71-.15-2.91-.12-2.52-.17-6.18-.14-10.7,0-9,.72-21.5,1.62-35.24s1.41-26.19,1.39-35.21c0-4.51-.07-8.16-.17-10.68,0-1.2-.05-2.16-.06-2.91A4.49,4.49,0,0,1,232.34,343.17Z"/><path class="cls-18" d="M143.73,378.44a10.47,10.47,0,0,1-.13-2c0-1.3-.1-3.18-.26-5.49a93.5,93.5,0,0,0-9.3-34.79c-1-2.09-1.88-3.76-2.52-4.89a9.27,9.27,0,0,1-.89-1.82,10.69,10.69,0,0,1,1.16,1.66c.71,1.09,1.66,2.73,2.75,4.8a83.58,83.58,0,0,1,9.36,35c.09,2.33.08,4.22,0,5.52A9.24,9.24,0,0,1,143.73,378.44Z"/><path class="cls-7" d="M244.35,217.09l-3.23-12a40,40,0,1,0-9.49,10.71v0Z"/><path class="cls-18" d="M244.35,217.09l-.86-.11L241,216.7l-9.41-1,.13.29,0,0a.19.19,0,0,0,0-.26.18.18,0,0,0-.22,0,39.93,39.93,0,0,1-17.8,7.81,39.08,39.08,0,0,1-12.65,0,39.46,39.46,0,0,1-23.73-65l1.63-1.8,1.78-1.64a41.4,41.4,0,0,1,3.75-3,39.93,39.93,0,0,1,26.26-6.89A39.68,39.68,0,0,1,241,205a.68.68,0,0,1,0,.14c1.09,3.82,1.92,6.78,2.5,8.82l.66,2.31.25.8a6.29,6.29,0,0,0-.17-.74q-.21-.82-.57-2.28c-.54-2.09-1.31-5.11-2.31-9l0,.14a39.66,39.66,0,0,0,5.82-18.75,40.31,40.31,0,0,0-36.27-42.09,40.76,40.76,0,0,0-26.83,7,43.14,43.14,0,0,0-3.83,3.06l-1.82,1.68L176.69,158a40.22,40.22,0,0,0,10.52,61.54A39.9,39.9,0,0,0,231.74,216l-.26-.26v0a.19.19,0,0,0,0,.26l.1,0,9.55.82,2.41.2A6.85,6.85,0,0,0,244.35,217.09Z"/><polygon class="cls-21" points="206.22 203.76 185.25 189.73 190.15 182.41 204.21 191.82 221.71 168.67 228.73 173.97 206.22 203.76"/></g></g></svg>