<?xml version="1.0" encoding="utf-8"?>
<!-- Generator: Adobe Illustrator 25.0.0, SVG Export Plug-In . SVG Version: 6.00 Build 0)  -->
<svg version="1.1" id="Capa_1" xmlns="http://www.w3.org/2000/svg" xmlns:xlink="http://www.w3.org/1999/xlink" x="0px" y="0px"
	 viewBox="0 0 1119 590" style="enable-background:new 0 0 1119 590;" xml:space="preserve">
<style type="text/css">
	.st0{fill:#FFFFFF;}
	.st1{fill:#DADADA;}
	.st2{fill:#706F6F;}
	.st3{fill:#6A64FA;}
</style>
<rect x="5.4" y="0" class="st0" width="1113.9" height="573.3"/>
<rect x="-0.1" y="7.8" class="st1" width="1113.9" height="573.3"/>
<rect x="5.4" y="0" class="st0" width="1113.9" height="573.3"/>
<g>
	<path d="M510.3,461.5c0,0.2,0,0.4,0,0.5s-0.1,0.3-0.1,0.4c-0.1,0.1-0.1,0.2-0.2,0.2c-0.1,0.1-0.2,0.1-0.3,0.1h-14
		c-0.3,0-0.6-0.1-0.9-0.3c-0.3-0.2-0.4-0.6-0.4-1.1v-26.9c0-0.6,0.1-0.9,0.4-1.1c0.3-0.2,0.6-0.3,0.9-0.3h13.7c0.1,0,0.2,0,0.3,0.1
		c0.1,0.1,0.2,0.1,0.2,0.2c0.1,0.1,0.1,0.2,0.1,0.4s0,0.3,0,0.6c0,0.2,0,0.4,0,0.5s-0.1,0.3-0.1,0.4c-0.1,0.1-0.1,0.2-0.2,0.2
		s-0.2,0.1-0.3,0.1h-12.2V446h10.5c0.1,0,0.2,0,0.3,0.1c0.1,0.1,0.2,0.1,0.2,0.2c0.1,0.1,0.1,0.2,0.1,0.4c0,0.2,0,0.3,0,0.6
		c0,0.2,0,0.4,0,0.5c0,0.1-0.1,0.3-0.1,0.4c-0.1,0.1-0.1,0.2-0.2,0.2c-0.1,0-0.2,0.1-0.3,0.1h-10.5v11.9h12.4c0.1,0,0.2,0,0.3,0.1
		c0.1,0.1,0.2,0.1,0.2,0.2c0.1,0.1,0.1,0.2,0.1,0.4S510.3,461.3,510.3,461.5z"/>
	<path d="M528.5,442.5c0,0.2,0,0.4,0,0.6c0,0.2,0,0.3-0.1,0.4c0,0.1-0.1,0.2-0.1,0.2c-0.1,0.1-0.1,0.1-0.2,0.1c-0.1,0-0.3,0-0.5-0.1
		c-0.2-0.1-0.4-0.1-0.6-0.2s-0.5-0.1-0.8-0.2s-0.6-0.1-1-0.1c-0.4,0-0.8,0.1-1.2,0.3s-0.8,0.5-1.3,0.9s-0.9,0.9-1.4,1.6
		s-1,1.4-1.6,2.4v14.1c0,0.1,0,0.2-0.1,0.3c0,0.1-0.1,0.1-0.2,0.2c-0.1,0-0.2,0.1-0.4,0.1c-0.2,0-0.4,0-0.7,0c-0.3,0-0.5,0-0.7,0
		c-0.2,0-0.3-0.1-0.4-0.1c-0.1,0-0.2-0.1-0.2-0.2c0-0.1-0.1-0.2-0.1-0.3v-20.8c0-0.1,0-0.2,0.1-0.3c0-0.1,0.1-0.1,0.2-0.2
		s0.2-0.1,0.4-0.1c0.2,0,0.4,0,0.6,0c0.3,0,0.5,0,0.6,0c0.2,0,0.3,0.1,0.4,0.1c0.1,0.1,0.2,0.1,0.2,0.2c0,0.1,0.1,0.2,0.1,0.3v3.3
		c0.6-0.9,1.2-1.6,1.7-2.1s1-1,1.5-1.3c0.5-0.3,0.9-0.5,1.3-0.6c0.4-0.1,0.9-0.2,1.3-0.2c0.2,0,0.4,0,0.7,0c0.3,0,0.5,0.1,0.8,0.1
		s0.6,0.1,0.8,0.2c0.2,0.1,0.4,0.2,0.5,0.2c0.1,0.1,0.2,0.1,0.2,0.2c0,0.1,0.1,0.1,0.1,0.2c0,0.1,0,0.2,0,0.3
		C528.5,442.1,528.5,442.3,528.5,442.5z"/>
	<path d="M544.7,442.5c0,0.2,0,0.4,0,0.6s0,0.3-0.1,0.4c0,0.1-0.1,0.2-0.1,0.2c-0.1,0.1-0.1,0.1-0.2,0.1c-0.1,0-0.3,0-0.5-0.1
		c-0.2-0.1-0.4-0.1-0.6-0.2s-0.5-0.1-0.8-0.2s-0.6-0.1-1-0.1c-0.4,0-0.8,0.1-1.2,0.3s-0.8,0.5-1.3,0.9s-0.9,0.9-1.4,1.6
		s-1,1.4-1.6,2.4v14.1c0,0.1,0,0.2-0.1,0.3c0,0.1-0.1,0.1-0.2,0.2c-0.1,0-0.2,0.1-0.4,0.1c-0.2,0-0.4,0-0.7,0c-0.3,0-0.5,0-0.7,0
		c-0.2,0-0.3-0.1-0.4-0.1c-0.1,0-0.2-0.1-0.2-0.2c0-0.1-0.1-0.2-0.1-0.3v-20.8c0-0.1,0-0.2,0.1-0.3c0-0.1,0.1-0.1,0.2-0.2
		s0.2-0.1,0.4-0.1c0.2,0,0.4,0,0.6,0c0.3,0,0.5,0,0.6,0c0.2,0,0.3,0.1,0.4,0.1c0.1,0.1,0.2,0.1,0.2,0.2c0,0.1,0.1,0.2,0.1,0.3v3.3
		c0.6-0.9,1.2-1.6,1.7-2.1s1-1,1.5-1.3c0.5-0.3,0.9-0.5,1.3-0.6c0.4-0.1,0.9-0.2,1.3-0.2c0.2,0,0.4,0,0.7,0c0.3,0,0.5,0.1,0.8,0.1
		c0.3,0.1,0.6,0.1,0.8,0.2c0.2,0.1,0.4,0.2,0.5,0.2c0.1,0.1,0.2,0.1,0.2,0.2c0,0.1,0.1,0.1,0.1,0.2c0,0.1,0,0.2,0,0.3
		C544.7,442.1,544.7,442.3,544.7,442.5z"/>
	<path d="M566.9,451.7c0,1.7-0.2,3.2-0.6,4.6s-1.1,2.6-1.9,3.6c-0.9,1-1.9,1.8-3.2,2.4c-1.3,0.6-2.8,0.9-4.4,0.9
		c-1.6,0-3-0.3-4.3-0.8c-1.2-0.5-2.2-1.3-3.1-2.2s-1.4-2.1-1.8-3.5c-0.4-1.4-0.6-2.9-0.6-4.6c0-1.7,0.2-3.2,0.6-4.6
		c0.4-1.4,1.1-2.6,1.9-3.6c0.9-1,1.9-1.8,3.2-2.4c1.3-0.6,2.8-0.9,4.5-0.9c1.6,0,3,0.3,4.3,0.8c1.2,0.5,2.2,1.2,3.1,2.2
		c0.8,1,1.4,2.1,1.8,3.5S566.9,450,566.9,451.7z M564,451.9c0-1.2-0.1-2.3-0.3-3.4c-0.2-1.1-0.6-2-1.2-2.8c-0.5-0.8-1.3-1.5-2.2-2
		c-0.9-0.5-2-0.7-3.4-0.7c-1.2,0-2.3,0.2-3.2,0.7c-0.9,0.4-1.6,1.1-2.2,1.9c-0.6,0.8-1,1.7-1.3,2.8c-0.3,1.1-0.4,2.2-0.4,3.5
		c0,1.2,0.1,2.3,0.3,3.4c0.2,1.1,0.6,2,1.2,2.8s1.3,1.5,2.2,1.9c0.9,0.5,2,0.7,3.4,0.7c1.2,0,2.3-0.2,3.2-0.7
		c0.9-0.4,1.6-1.1,2.2-1.8c0.6-0.8,1-1.7,1.3-2.8S564,453.2,564,451.9z"/>
	<path d="M584.6,442.5c0,0.2,0,0.4,0,0.6s0,0.3-0.1,0.4c0,0.1-0.1,0.2-0.1,0.2c-0.1,0.1-0.1,0.1-0.2,0.1c-0.1,0-0.3,0-0.5-0.1
		c-0.2-0.1-0.4-0.1-0.6-0.2s-0.5-0.1-0.8-0.2s-0.6-0.1-1-0.1c-0.4,0-0.8,0.1-1.2,0.3c-0.4,0.2-0.8,0.5-1.3,0.9s-0.9,0.9-1.4,1.6
		c-0.5,0.6-1,1.4-1.6,2.4v14.1c0,0.1,0,0.2-0.1,0.3c0,0.1-0.1,0.1-0.2,0.2c-0.1,0-0.2,0.1-0.4,0.1c-0.2,0-0.4,0-0.7,0
		c-0.3,0-0.5,0-0.7,0c-0.2,0-0.3-0.1-0.4-0.1c-0.1,0-0.2-0.1-0.2-0.2c0-0.1-0.1-0.2-0.1-0.3v-20.8c0-0.1,0-0.2,0.1-0.3
		c0-0.1,0.1-0.1,0.2-0.2c0.1-0.1,0.2-0.1,0.4-0.1c0.2,0,0.4,0,0.6,0c0.3,0,0.5,0,0.6,0c0.2,0,0.3,0.1,0.4,0.1
		c0.1,0.1,0.2,0.1,0.2,0.2c0,0.1,0.1,0.2,0.1,0.3v3.3c0.6-0.9,1.2-1.6,1.7-2.1s1-1,1.5-1.3c0.5-0.3,0.9-0.5,1.3-0.6s0.9-0.2,1.3-0.2
		c0.2,0,0.4,0,0.7,0c0.3,0,0.5,0.1,0.8,0.1c0.3,0.1,0.6,0.1,0.8,0.2c0.2,0.1,0.4,0.2,0.5,0.2c0.1,0.1,0.2,0.1,0.2,0.2
		c0,0.1,0.1,0.1,0.1,0.2c0,0.1,0,0.2,0,0.3C584.6,442.1,584.6,442.3,584.6,442.5z"/>
	<path d="M273.1,518.1c0,0.2,0,0.4,0,0.5s-0.1,0.3-0.1,0.4c-0.1,0.1-0.1,0.2-0.2,0.2c-0.1,0.1-0.2,0.1-0.3,0.1h-14
		c-0.3,0-0.6-0.1-0.9-0.3c-0.3-0.2-0.4-0.6-0.4-1.1V491c0-0.6,0.1-0.9,0.4-1.1c0.3-0.2,0.6-0.3,0.9-0.3h13.7c0.1,0,0.2,0,0.3,0.1
		s0.2,0.1,0.2,0.2c0.1,0.1,0.1,0.2,0.1,0.4s0,0.3,0,0.6c0,0.2,0,0.4,0,0.5s-0.1,0.3-0.1,0.4c-0.1,0.1-0.1,0.2-0.2,0.2
		s-0.2,0.1-0.3,0.1H260v10.5h10.5c0.1,0,0.2,0,0.3,0.1c0.1,0.1,0.2,0.1,0.2,0.2c0.1,0.1,0.1,0.2,0.1,0.4c0,0.2,0,0.3,0,0.6
		c0,0.2,0,0.4,0,0.5c0,0.1-0.1,0.3-0.1,0.4c-0.1,0.1-0.1,0.2-0.2,0.2c-0.1,0-0.2,0.1-0.3,0.1H260v11.9h12.4c0.1,0,0.2,0,0.3,0.1
		c0.1,0.1,0.2,0.1,0.2,0.2c0.1,0.1,0.1,0.2,0.1,0.4S273.1,517.9,273.1,518.1z"/>
	<path d="M291.9,513.3c0,1-0.2,1.9-0.6,2.7c-0.4,0.8-0.9,1.5-1.6,2c-0.7,0.6-1.5,1-2.5,1.3c-1,0.3-2,0.4-3.2,0.4
		c-0.7,0-1.4-0.1-2-0.2c-0.6-0.1-1.2-0.3-1.7-0.4c-0.5-0.2-1-0.4-1.3-0.6c-0.4-0.2-0.6-0.4-0.8-0.5c-0.2-0.2-0.3-0.3-0.4-0.6
		s-0.1-0.5-0.1-0.9c0-0.2,0-0.4,0-0.5c0-0.2,0.1-0.3,0.1-0.4c0-0.1,0.1-0.2,0.2-0.2c0.1-0.1,0.2-0.1,0.3-0.1c0.2,0,0.4,0.1,0.7,0.3
		s0.7,0.4,1.2,0.7s1.1,0.5,1.7,0.7c0.7,0.2,1.4,0.3,2.3,0.3c0.7,0,1.4-0.1,1.9-0.2c0.6-0.2,1.1-0.4,1.5-0.7c0.4-0.3,0.8-0.7,1-1.2
		c0.2-0.5,0.4-1,0.4-1.7s-0.2-1.2-0.5-1.6c-0.3-0.4-0.7-0.8-1.2-1.2s-1.1-0.6-1.7-0.9c-0.6-0.3-1.3-0.5-2-0.8s-1.3-0.6-2-0.9
		s-1.2-0.7-1.7-1.2c-0.5-0.5-0.9-1-1.2-1.7s-0.5-1.4-0.5-2.3c0-0.7,0.1-1.4,0.4-2.1c0.3-0.7,0.7-1.3,1.3-1.9c0.6-0.6,1.3-1,2.2-1.3
		c0.9-0.3,2-0.5,3.2-0.5c0.5,0,1,0,1.6,0.1s1,0.2,1.4,0.3c0.4,0.1,0.8,0.3,1.1,0.4c0.3,0.2,0.5,0.3,0.7,0.4c0.2,0.1,0.3,0.2,0.3,0.3
		c0.1,0.1,0.1,0.2,0.1,0.3c0,0.1,0,0.2,0.1,0.3c0,0.1,0,0.3,0,0.5c0,0.2,0,0.3,0,0.5c0,0.1-0.1,0.3-0.1,0.4c0,0.1-0.1,0.2-0.2,0.2
		s-0.1,0.1-0.2,0.1c-0.1,0-0.3-0.1-0.6-0.3c-0.2-0.2-0.6-0.4-1-0.6c-0.4-0.2-0.9-0.4-1.4-0.6s-1.2-0.3-1.9-0.3
		c-0.7,0-1.4,0.1-1.9,0.3c-0.5,0.2-1,0.4-1.3,0.7c-0.4,0.3-0.6,0.7-0.8,1.1c-0.2,0.4-0.3,0.9-0.3,1.4c0,0.7,0.2,1.2,0.5,1.7
		c0.3,0.5,0.7,0.9,1.2,1.2s1.1,0.6,1.7,0.9s1.3,0.5,2,0.8c0.7,0.3,1.3,0.5,2,0.9s1.2,0.7,1.7,1.1c0.5,0.4,0.9,1,1.2,1.6
		C291.8,511.7,291.9,512.5,291.9,513.3z"/>
	<path d="M307.4,517.6c0,0.3,0,0.6-0.1,0.8c-0.1,0.2-0.1,0.4-0.3,0.5c-0.1,0.1-0.3,0.2-0.5,0.3c-0.2,0.1-0.5,0.2-0.8,0.3
		c-0.3,0.1-0.6,0.1-0.9,0.2c-0.3,0-0.6,0.1-0.9,0.1c-1,0-1.9-0.1-2.6-0.4c-0.7-0.3-1.3-0.7-1.8-1.3c-0.5-0.6-0.8-1.3-1-2.1
		c-0.2-0.9-0.3-1.9-0.3-3v-13h-3.1c-0.2,0-0.4-0.1-0.5-0.3c-0.1-0.2-0.2-0.5-0.2-0.9c0-0.2,0-0.4,0-0.5c0-0.1,0.1-0.3,0.1-0.4
		c0.1-0.1,0.1-0.2,0.2-0.2c0.1,0,0.2-0.1,0.3-0.1h3.1v-5.1c0-0.1,0-0.2,0.1-0.3c0-0.1,0.1-0.1,0.2-0.2c0.1-0.1,0.2-0.1,0.4-0.1
		c0.2,0,0.4,0,0.7,0c0.3,0,0.5,0,0.7,0c0.2,0,0.3,0.1,0.4,0.1c0.1,0.1,0.2,0.1,0.2,0.2c0,0.1,0.1,0.2,0.1,0.3v5.1h5.8
		c0.1,0,0.2,0,0.3,0.1c0.1,0,0.2,0.1,0.2,0.2c0.1,0.1,0.1,0.2,0.1,0.4c0,0.1,0,0.3,0,0.5c0,0.4-0.1,0.7-0.2,0.9
		c-0.1,0.2-0.3,0.3-0.5,0.3h-5.8v12.6c0,1.6,0.2,2.8,0.7,3.6s1.3,1.2,2.5,1.2c0.4,0,0.7,0,1-0.1c0.3-0.1,0.6-0.2,0.8-0.3
		c0.2-0.1,0.4-0.2,0.6-0.3c0.2-0.1,0.3-0.1,0.4-0.1c0.1,0,0.1,0,0.2,0c0.1,0,0.1,0.1,0.1,0.2c0,0.1,0.1,0.2,0.1,0.3
		C307.4,517.3,307.4,517.4,307.4,517.6z"/>
	<path d="M329.4,507.4c0,0.6-0.1,0.9-0.4,1.1c-0.3,0.2-0.6,0.3-0.9,0.3h-14.2c0,1.3,0.1,2.5,0.4,3.5c0.3,1,0.7,1.9,1.3,2.7
		c0.6,0.7,1.3,1.3,2.3,1.7c0.9,0.4,2.1,0.6,3.5,0.6c1,0,1.8-0.1,2.6-0.3c0.8-0.2,1.4-0.4,2-0.6s1-0.4,1.4-0.6
		c0.4-0.2,0.6-0.3,0.8-0.3c0.1,0,0.2,0,0.3,0.1s0.1,0.1,0.2,0.2c0,0.1,0.1,0.2,0.1,0.4c0,0.2,0,0.3,0,0.6c0,0.1,0,0.2,0,0.3
		c0,0.1,0,0.2-0.1,0.3c0,0.1-0.1,0.2-0.1,0.2c0,0.1-0.1,0.2-0.2,0.2c-0.1,0.1-0.3,0.2-0.7,0.4c-0.4,0.2-0.9,0.4-1.6,0.6
		c-0.6,0.2-1.4,0.4-2.2,0.5c-0.9,0.2-1.8,0.2-2.8,0.2c-1.6,0-3-0.2-4.3-0.7s-2.3-1.2-3.1-2.1c-0.8-0.9-1.5-2.1-1.9-3.5
		s-0.7-3-0.7-4.9c0-1.8,0.2-3.3,0.7-4.7s1.1-2.6,1.9-3.6c0.8-1,1.9-1.7,3.1-2.2s2.5-0.8,4-0.8c1.6,0,2.9,0.3,4,0.8
		c1.1,0.5,2,1.2,2.7,2.1c0.7,0.9,1.2,1.9,1.6,3.1c0.3,1.2,0.5,2.4,0.5,3.7V507.4z M326.5,506.6c0-2.2-0.5-3.9-1.5-5.2
		c-1.1-1.2-2.6-1.9-4.6-1.9c-1,0-2,0.2-2.8,0.6c-0.8,0.4-1.5,0.9-2,1.6c-0.5,0.6-1,1.4-1.3,2.2c-0.3,0.9-0.5,1.7-0.5,2.7H326.5z"/>
	<path d="M363.1,518.9c0,0.1,0,0.2-0.1,0.3s-0.1,0.1-0.2,0.2c-0.1,0-0.2,0.1-0.4,0.1c-0.2,0-0.4,0-0.6,0c-0.3,0-0.5,0-0.7,0
		c-0.2,0-0.3-0.1-0.4-0.1c-0.1,0-0.2-0.1-0.2-0.2s-0.1-0.2-0.1-0.3v-2.9c-1.2,1.3-2.4,2.3-3.5,2.9c-1.1,0.6-2.3,0.9-3.4,0.9
		c-1.4,0-2.5-0.2-3.5-0.7c-0.9-0.5-1.7-1.1-2.3-1.9c-0.6-0.8-1-1.7-1.2-2.8c-0.3-1-0.4-2.3-0.4-3.8v-12.6c0-0.1,0-0.2,0.1-0.3
		c0-0.1,0.1-0.1,0.2-0.2c0.1-0.1,0.2-0.1,0.4-0.1c0.2,0,0.4,0,0.7,0c0.3,0,0.5,0,0.7,0c0.2,0,0.3,0.1,0.4,0.1
		c0.1,0.1,0.2,0.1,0.2,0.2c0,0.1,0.1,0.2,0.1,0.3v12.3c0,1.3,0.1,2.3,0.3,3.2c0.2,0.8,0.5,1.5,0.9,2.1c0.4,0.6,0.9,1,1.5,1.3
		s1.3,0.5,2.2,0.5c1.1,0,2.1-0.4,3.2-1.1c1.1-0.8,2.2-1.9,3.3-3.3v-14.9c0-0.1,0-0.2,0.1-0.3c0-0.1,0.1-0.1,0.2-0.2s0.2-0.1,0.4-0.1
		c0.2,0,0.4,0,0.7,0c0.3,0,0.5,0,0.7,0c0.2,0,0.3,0.1,0.4,0.1c0.1,0.1,0.2,0.1,0.2,0.2c0,0.1,0.1,0.2,0.1,0.3V518.9z"/>
	<path d="M383.1,513.3c0,1-0.2,1.9-0.6,2.7c-0.4,0.8-0.9,1.5-1.6,2c-0.7,0.6-1.5,1-2.5,1.3c-1,0.3-2,0.4-3.2,0.4
		c-0.7,0-1.4-0.1-2-0.2c-0.6-0.1-1.2-0.3-1.7-0.4c-0.5-0.2-1-0.4-1.3-0.6c-0.4-0.2-0.6-0.4-0.8-0.5c-0.2-0.2-0.3-0.3-0.4-0.6
		s-0.1-0.5-0.1-0.9c0-0.2,0-0.4,0-0.5c0-0.2,0.1-0.3,0.1-0.4c0-0.1,0.1-0.2,0.2-0.2c0.1-0.1,0.2-0.1,0.3-0.1c0.2,0,0.4,0.1,0.7,0.3
		s0.7,0.4,1.2,0.7s1.1,0.5,1.7,0.7c0.7,0.2,1.4,0.3,2.3,0.3c0.7,0,1.4-0.1,1.9-0.2c0.6-0.2,1.1-0.4,1.5-0.7c0.4-0.3,0.8-0.7,1-1.2
		c0.2-0.5,0.4-1,0.4-1.7s-0.2-1.2-0.5-1.6c-0.3-0.4-0.7-0.8-1.2-1.2s-1.1-0.6-1.7-0.9c-0.6-0.3-1.3-0.5-2-0.8s-1.3-0.6-2-0.9
		s-1.2-0.7-1.7-1.2c-0.5-0.5-0.9-1-1.2-1.7s-0.5-1.4-0.5-2.3c0-0.7,0.1-1.4,0.4-2.1c0.3-0.7,0.7-1.3,1.3-1.9c0.6-0.6,1.3-1,2.2-1.3
		c0.9-0.3,2-0.5,3.2-0.5c0.5,0,1,0,1.6,0.1s1,0.2,1.4,0.3c0.4,0.1,0.8,0.3,1.1,0.4c0.3,0.2,0.5,0.3,0.7,0.4c0.2,0.1,0.3,0.2,0.3,0.3
		c0.1,0.1,0.1,0.2,0.1,0.3c0,0.1,0,0.2,0.1,0.3c0,0.1,0,0.3,0,0.5c0,0.2,0,0.3,0,0.5c0,0.1-0.1,0.3-0.1,0.4c0,0.1-0.1,0.2-0.2,0.2
		s-0.1,0.1-0.2,0.1c-0.1,0-0.3-0.1-0.6-0.3c-0.2-0.2-0.6-0.4-1-0.6c-0.4-0.2-0.9-0.4-1.4-0.6s-1.2-0.3-1.9-0.3
		c-0.7,0-1.4,0.1-1.9,0.3c-0.5,0.2-1,0.4-1.3,0.7c-0.4,0.3-0.6,0.7-0.8,1.1c-0.2,0.4-0.3,0.9-0.3,1.4c0,0.7,0.2,1.2,0.5,1.7
		c0.3,0.5,0.7,0.9,1.2,1.2s1.1,0.6,1.7,0.9s1.3,0.5,2,0.8c0.7,0.3,1.3,0.5,2,0.9s1.2,0.7,1.7,1.1c0.5,0.4,0.9,1,1.2,1.6
		C382.9,511.7,383.1,512.5,383.1,513.3z"/>
	<path d="M405.9,518.9c0,0.1,0,0.2-0.1,0.3s-0.1,0.1-0.2,0.2c-0.1,0-0.2,0.1-0.4,0.1c-0.2,0-0.4,0-0.6,0c-0.3,0-0.5,0-0.7,0
		c-0.2,0-0.3-0.1-0.4-0.1c-0.1,0-0.2-0.1-0.2-0.2s-0.1-0.2-0.1-0.3v-2.9c-1.2,1.3-2.4,2.3-3.5,2.9c-1.1,0.6-2.3,0.9-3.4,0.9
		c-1.4,0-2.5-0.2-3.5-0.7c-0.9-0.5-1.7-1.1-2.3-1.9c-0.6-0.8-1-1.7-1.2-2.8c-0.3-1-0.4-2.3-0.4-3.8v-12.6c0-0.1,0-0.2,0.1-0.3
		c0-0.1,0.1-0.1,0.2-0.2c0.1-0.1,0.2-0.1,0.4-0.1c0.2,0,0.4,0,0.7,0c0.3,0,0.5,0,0.7,0c0.2,0,0.3,0.1,0.4,0.1
		c0.1,0.1,0.2,0.1,0.2,0.2c0,0.1,0.1,0.2,0.1,0.3v12.3c0,1.3,0.1,2.3,0.3,3.2c0.2,0.8,0.5,1.5,0.9,2.1c0.4,0.6,0.9,1,1.5,1.3
		s1.3,0.5,2.2,0.5c1.1,0,2.1-0.4,3.2-1.1c1.1-0.8,2.2-1.9,3.3-3.3v-14.9c0-0.1,0-0.2,0.1-0.3c0-0.1,0.1-0.1,0.2-0.2s0.2-0.1,0.4-0.1
		c0.2,0,0.4,0,0.7,0c0.3,0,0.5,0,0.7,0c0.2,0,0.3,0.1,0.4,0.1c0.1,0.1,0.2,0.1,0.2,0.2c0,0.1,0.1,0.2,0.1,0.3V518.9z"/>
	<path d="M428.1,518.9c0,0.2,0,0.3-0.1,0.4c-0.1,0.1-0.2,0.1-0.4,0.2c-0.2,0-0.4,0.1-0.7,0.1c-0.3,0-0.5,0-0.7-0.1
		c-0.2,0-0.3-0.1-0.4-0.2c-0.1-0.1-0.1-0.2-0.1-0.4v-2.3c-0.9,1-2,1.8-3.1,2.3s-2.3,0.8-3.5,0.8c-1.1,0-2.1-0.1-2.9-0.4
		c-0.9-0.3-1.6-0.7-2.2-1.2s-1.1-1.2-1.4-1.9s-0.5-1.6-0.5-2.5c0-1.2,0.2-2.2,0.7-3c0.5-0.9,1.2-1.6,2-2.1c0.9-0.6,1.9-1,3.2-1.3
		c1.2-0.3,2.6-0.4,4.1-0.4h3.3V505c0-0.9-0.1-1.7-0.3-2.4c-0.2-0.7-0.5-1.3-0.9-1.7s-1-0.8-1.6-1c-0.7-0.2-1.5-0.3-2.4-0.3
		c-0.9,0-1.7,0.1-2.5,0.3c-0.7,0.2-1.4,0.5-1.9,0.7c-0.6,0.3-1,0.5-1.4,0.7c-0.4,0.2-0.6,0.3-0.8,0.3c-0.1,0-0.2,0-0.3,0
		c-0.1,0-0.1-0.1-0.2-0.2c-0.1-0.1-0.1-0.2-0.1-0.3c0-0.1,0-0.3,0-0.5c0-0.3,0-0.6,0.1-0.8c0-0.2,0.2-0.4,0.4-0.6
		c0.2-0.2,0.5-0.4,1-0.7c0.5-0.3,1.1-0.5,1.7-0.7c0.6-0.2,1.3-0.4,2.1-0.5c0.7-0.1,1.5-0.2,2.2-0.2c1.4,0,2.6,0.2,3.6,0.5
		c1,0.3,1.8,0.8,2.4,1.5c0.6,0.6,1,1.4,1.3,2.4c0.3,0.9,0.4,2,0.4,3.2V518.9z M425.4,509.1h-3.8c-1.1,0-2.1,0.1-2.9,0.3
		c-0.8,0.2-1.5,0.5-2.1,0.9c-0.6,0.4-1,0.8-1.2,1.4c-0.3,0.5-0.4,1.2-0.4,1.8c0,1.2,0.4,2.2,1.1,2.9s1.8,1.1,3.2,1.1
		c1.1,0,2.1-0.3,3.1-0.8s1.9-1.4,3-2.6V509.1z"/>
	<path d="M447.3,499.1c0,0.2,0,0.4,0,0.6c0,0.2,0,0.3-0.1,0.4c0,0.1-0.1,0.2-0.1,0.2c-0.1,0.1-0.1,0.1-0.2,0.1c-0.1,0-0.3,0-0.5-0.1
		c-0.2-0.1-0.4-0.1-0.6-0.2s-0.5-0.1-0.8-0.2s-0.6-0.1-1-0.1c-0.4,0-0.8,0.1-1.2,0.3s-0.8,0.5-1.3,0.9s-0.9,0.9-1.4,1.6
		s-1,1.4-1.6,2.4v14.1c0,0.1,0,0.2-0.1,0.3c0,0.1-0.1,0.1-0.2,0.2c-0.1,0-0.2,0.1-0.4,0.1c-0.2,0-0.4,0-0.7,0c-0.3,0-0.5,0-0.7,0
		c-0.2,0-0.3-0.1-0.4-0.1c-0.1,0-0.2-0.1-0.2-0.2c0-0.1-0.1-0.2-0.1-0.3v-20.8c0-0.1,0-0.2,0.1-0.3c0-0.1,0.1-0.1,0.2-0.2
		s0.2-0.1,0.4-0.1c0.2,0,0.4,0,0.6,0c0.3,0,0.5,0,0.6,0c0.2,0,0.3,0.1,0.4,0.1c0.1,0.1,0.2,0.1,0.2,0.2c0,0.1,0.1,0.2,0.1,0.3v3.3
		c0.6-0.9,1.2-1.6,1.7-2.1s1-1,1.5-1.3c0.5-0.3,0.9-0.5,1.3-0.6c0.4-0.1,0.9-0.2,1.3-0.2c0.2,0,0.4,0,0.7,0c0.3,0,0.5,0.1,0.8,0.1
		s0.6,0.1,0.8,0.2c0.2,0.1,0.4,0.2,0.5,0.2c0.1,0.1,0.2,0.1,0.2,0.2c0,0.1,0.1,0.1,0.1,0.2c0,0.1,0,0.2,0,0.3
		C447.3,498.7,447.3,498.9,447.3,499.1z"/>
	<path d="M455.1,491c0,0.7-0.1,1.2-0.4,1.5c-0.3,0.3-0.7,0.4-1.4,0.4c-0.7,0-1.1-0.1-1.4-0.4c-0.3-0.3-0.4-0.7-0.4-1.5
		s0.1-1.2,0.4-1.5s0.7-0.4,1.4-0.4c0.7,0,1.1,0.1,1.4,0.4C455,489.8,455.1,490.3,455.1,491z M454.7,518.9c0,0.1,0,0.2-0.1,0.3
		c0,0.1-0.1,0.1-0.2,0.2c-0.1,0-0.2,0.1-0.4,0.1c-0.2,0-0.4,0-0.7,0c-0.3,0-0.5,0-0.7,0c-0.2,0-0.3-0.1-0.4-0.1
		c-0.1,0-0.2-0.1-0.2-0.2c0-0.1-0.1-0.2-0.1-0.3v-20.8c0-0.1,0-0.2,0.1-0.3c0-0.1,0.1-0.1,0.2-0.2s0.2-0.1,0.4-0.1
		c0.2,0,0.4,0,0.7,0c0.3,0,0.5,0,0.7,0c0.2,0,0.3,0.1,0.4,0.1c0.1,0.1,0.2,0.1,0.2,0.2c0,0.1,0.1,0.2,0.1,0.3V518.9z"/>
	<path d="M480.8,508.3c0,1.7-0.2,3.2-0.6,4.6c-0.4,1.4-1.1,2.6-1.9,3.6c-0.9,1-1.9,1.8-3.2,2.4c-1.3,0.6-2.8,0.9-4.4,0.9
		c-1.6,0-3.1-0.3-4.3-0.8c-1.2-0.5-2.2-1.3-3.1-2.2c-0.8-1-1.4-2.1-1.8-3.5c-0.4-1.4-0.6-2.9-0.6-4.6c0-1.7,0.2-3.2,0.6-4.6
		c0.4-1.4,1.1-2.6,1.9-3.6c0.9-1,1.9-1.8,3.2-2.4c1.3-0.6,2.8-0.9,4.5-0.9c1.6,0,3.1,0.3,4.3,0.8s2.2,1.2,3.1,2.2
		c0.8,1,1.4,2.1,1.8,3.5C480.6,505,480.8,506.5,480.8,508.3z M477.9,508.5c0-1.2-0.1-2.3-0.3-3.4c-0.2-1.1-0.6-2-1.2-2.8
		c-0.5-0.8-1.3-1.5-2.2-2c-0.9-0.5-2-0.7-3.4-0.7c-1.2,0-2.3,0.2-3.2,0.7c-0.9,0.4-1.6,1.1-2.2,1.9c-0.6,0.8-1,1.7-1.3,2.8
		c-0.3,1.1-0.4,2.2-0.4,3.5c0,1.2,0.1,2.3,0.3,3.4c0.2,1.1,0.6,2,1.2,2.8c0.5,0.8,1.3,1.5,2.2,1.9c0.9,0.5,2,0.7,3.4,0.7
		c1.2,0,2.3-0.2,3.2-0.7c0.9-0.4,1.6-1.1,2.2-1.8c0.6-0.8,1-1.7,1.3-2.8C477.8,510.9,477.9,509.8,477.9,508.5z"/>
	<path d="M514.5,518.9c0,0.1,0,0.2-0.1,0.3c0,0.1-0.1,0.1-0.2,0.2c-0.1,0-0.2,0.1-0.4,0.1c-0.2,0-0.4,0-0.7,0c-0.3,0-0.5,0-0.7,0
		c-0.2,0-0.3-0.1-0.4-0.1c-0.1,0-0.2-0.1-0.2-0.2c0-0.1-0.1-0.2-0.1-0.3v-12.4c0-1.3-0.1-2.3-0.3-3.1c-0.2-0.8-0.5-1.5-0.9-2.1
		c-0.4-0.6-0.9-1-1.5-1.3s-1.3-0.5-2.2-0.5c-1.1,0-2.1,0.4-3.2,1.1c-1.1,0.8-2.2,1.9-3.3,3.3v14.9c0,0.1,0,0.2-0.1,0.3
		c0,0.1-0.1,0.1-0.2,0.2c-0.1,0-0.2,0.1-0.4,0.1c-0.2,0-0.4,0-0.7,0c-0.3,0-0.5,0-0.7,0c-0.2,0-0.3-0.1-0.4-0.1
		c-0.1,0-0.2-0.1-0.2-0.2c0-0.1-0.1-0.2-0.1-0.3v-20.8c0-0.1,0-0.2,0.1-0.3c0-0.1,0.1-0.1,0.2-0.2s0.2-0.1,0.4-0.1
		c0.2,0,0.4,0,0.6,0c0.3,0,0.5,0,0.6,0c0.2,0,0.3,0.1,0.4,0.1c0.1,0.1,0.2,0.1,0.2,0.2c0,0.1,0.1,0.2,0.1,0.3v2.9
		c1.2-1.3,2.4-2.3,3.5-2.9c1.2-0.6,2.3-0.9,3.4-0.9c1.4,0,2.5,0.2,3.5,0.7c0.9,0.5,1.7,1.1,2.3,1.9c0.6,0.8,1,1.7,1.2,2.7
		s0.4,2.3,0.4,3.8V518.9z"/>
	<path d="M540.6,508.3c0,1.7-0.2,3.2-0.6,4.6c-0.4,1.4-1.1,2.6-1.9,3.6c-0.9,1-1.9,1.8-3.2,2.4c-1.3,0.6-2.8,0.9-4.4,0.9
		c-1.6,0-3.1-0.3-4.3-0.8c-1.2-0.5-2.2-1.3-3.1-2.2c-0.8-1-1.4-2.1-1.8-3.5c-0.4-1.4-0.6-2.9-0.6-4.6c0-1.7,0.2-3.2,0.6-4.6
		c0.4-1.4,1.1-2.6,1.9-3.6c0.9-1,1.9-1.8,3.2-2.4c1.3-0.6,2.8-0.9,4.5-0.9c1.6,0,3.1,0.3,4.3,0.8s2.2,1.2,3.1,2.2
		c0.8,1,1.4,2.1,1.8,3.5C540.4,505,540.6,506.5,540.6,508.3z M537.7,508.5c0-1.2-0.1-2.3-0.3-3.4c-0.2-1.1-0.6-2-1.2-2.8
		c-0.5-0.8-1.3-1.5-2.2-2c-0.9-0.5-2-0.7-3.4-0.7c-1.2,0-2.3,0.2-3.2,0.7c-0.9,0.4-1.6,1.1-2.2,1.9c-0.6,0.8-1,1.7-1.3,2.8
		c-0.3,1.1-0.4,2.2-0.4,3.5c0,1.2,0.1,2.3,0.3,3.4c0.2,1.1,0.6,2,1.2,2.8c0.5,0.8,1.3,1.5,2.2,1.9c0.9,0.5,2,0.7,3.4,0.7
		c1.2,0,2.3-0.2,3.2-0.7c0.9-0.4,1.6-1.1,2.2-1.8c0.6-0.8,1-1.7,1.3-2.8C537.5,510.9,537.7,509.8,537.7,508.5z"/>
	<path d="M574.4,507.4c0,0.6-0.1,0.9-0.4,1.1c-0.3,0.2-0.6,0.3-0.9,0.3h-14.2c0,1.3,0.1,2.5,0.4,3.5s0.7,1.9,1.3,2.7
		c0.6,0.7,1.3,1.3,2.3,1.7c0.9,0.4,2.1,0.6,3.5,0.6c1,0,1.8-0.1,2.6-0.3c0.8-0.2,1.4-0.4,2-0.6c0.6-0.2,1-0.4,1.4-0.6
		s0.6-0.3,0.8-0.3c0.1,0,0.2,0,0.3,0.1s0.1,0.1,0.2,0.2s0.1,0.2,0.1,0.4c0,0.2,0,0.3,0,0.6c0,0.1,0,0.2,0,0.3c0,0.1,0,0.2-0.1,0.3
		c0,0.1-0.1,0.2-0.1,0.2c0,0.1-0.1,0.2-0.2,0.2c-0.1,0.1-0.3,0.2-0.7,0.4c-0.4,0.2-0.9,0.4-1.6,0.6c-0.6,0.2-1.4,0.4-2.2,0.5
		s-1.8,0.2-2.8,0.2c-1.6,0-3-0.2-4.3-0.7s-2.3-1.2-3.1-2.1c-0.8-0.9-1.5-2.1-1.9-3.5c-0.4-1.4-0.7-3-0.7-4.9c0-1.8,0.2-3.3,0.7-4.7
		c0.5-1.4,1.1-2.6,1.9-3.6c0.8-1,1.9-1.7,3.1-2.2c1.2-0.5,2.5-0.8,4-0.8c1.6,0,2.9,0.3,4,0.8c1.1,0.5,2,1.2,2.7,2.1
		c0.7,0.9,1.2,1.9,1.6,3.1s0.5,2.4,0.5,3.7V507.4z M571.5,506.6c0-2.2-0.5-3.9-1.5-5.2c-1.1-1.2-2.6-1.9-4.6-1.9c-1,0-2,0.2-2.8,0.6
		c-0.8,0.4-1.5,0.9-2,1.6s-1,1.4-1.3,2.2c-0.3,0.9-0.5,1.7-0.5,2.7H571.5z"/>
	<path d="M592.9,513.3c0,1-0.2,1.9-0.6,2.7c-0.4,0.8-0.9,1.5-1.6,2c-0.7,0.6-1.5,1-2.5,1.3c-1,0.3-2,0.4-3.2,0.4
		c-0.7,0-1.4-0.1-2-0.2s-1.2-0.3-1.7-0.4c-0.5-0.2-1-0.4-1.3-0.6c-0.4-0.2-0.6-0.4-0.8-0.5c-0.2-0.2-0.3-0.3-0.4-0.6
		c-0.1-0.2-0.1-0.5-0.1-0.9c0-0.2,0-0.4,0-0.5c0-0.2,0.1-0.3,0.1-0.4s0.1-0.2,0.2-0.2c0.1-0.1,0.2-0.1,0.3-0.1
		c0.2,0,0.4,0.1,0.7,0.3s0.7,0.4,1.2,0.7s1.1,0.5,1.7,0.7c0.7,0.2,1.4,0.3,2.3,0.3c0.7,0,1.4-0.1,1.9-0.2c0.6-0.2,1.1-0.4,1.5-0.7
		c0.4-0.3,0.8-0.7,1-1.2c0.2-0.5,0.4-1,0.4-1.7s-0.2-1.2-0.5-1.6s-0.7-0.8-1.2-1.2c-0.5-0.3-1.1-0.6-1.7-0.9c-0.6-0.3-1.3-0.5-2-0.8
		c-0.7-0.3-1.3-0.6-2-0.9c-0.6-0.3-1.2-0.7-1.7-1.2c-0.5-0.5-0.9-1-1.2-1.7c-0.3-0.6-0.5-1.4-0.5-2.3c0-0.7,0.1-1.4,0.4-2.1
		c0.3-0.7,0.7-1.3,1.3-1.9c0.6-0.6,1.3-1,2.2-1.3c0.9-0.3,2-0.5,3.2-0.5c0.5,0,1,0,1.6,0.1c0.5,0.1,1,0.2,1.4,0.3
		c0.4,0.1,0.8,0.3,1.1,0.4c0.3,0.2,0.5,0.3,0.7,0.4c0.2,0.1,0.3,0.2,0.3,0.3c0.1,0.1,0.1,0.2,0.1,0.3c0,0.1,0,0.2,0.1,0.3
		c0,0.1,0,0.3,0,0.5c0,0.2,0,0.3,0,0.5c0,0.1-0.1,0.3-0.1,0.4s-0.1,0.2-0.2,0.2s-0.1,0.1-0.2,0.1c-0.1,0-0.3-0.1-0.6-0.3
		c-0.2-0.2-0.6-0.4-1-0.6c-0.4-0.2-0.9-0.4-1.4-0.6s-1.2-0.3-1.9-0.3c-0.7,0-1.4,0.1-1.9,0.3c-0.5,0.2-1,0.4-1.3,0.7
		c-0.4,0.3-0.6,0.7-0.8,1.1c-0.2,0.4-0.3,0.9-0.3,1.4c0,0.7,0.2,1.2,0.5,1.7c0.3,0.5,0.7,0.9,1.2,1.2s1.1,0.6,1.7,0.9s1.3,0.5,2,0.8
		c0.7,0.3,1.3,0.5,2,0.9s1.2,0.7,1.7,1.1c0.5,0.4,0.9,1,1.2,1.6C592.8,511.7,592.9,512.5,592.9,513.3z"/>
	<path d="M608.4,517.6c0,0.3,0,0.6-0.1,0.8s-0.1,0.4-0.3,0.5s-0.3,0.2-0.5,0.3c-0.2,0.1-0.5,0.2-0.8,0.3c-0.3,0.1-0.6,0.1-0.9,0.2
		c-0.3,0-0.6,0.1-0.9,0.1c-1,0-1.9-0.1-2.6-0.4c-0.7-0.3-1.3-0.7-1.8-1.3c-0.5-0.6-0.8-1.3-1-2.1s-0.3-1.9-0.3-3v-13h-3.1
		c-0.2,0-0.4-0.1-0.5-0.3c-0.1-0.2-0.2-0.5-0.2-0.9c0-0.2,0-0.4,0-0.5c0-0.1,0.1-0.3,0.1-0.4s0.1-0.2,0.2-0.2c0.1,0,0.2-0.1,0.3-0.1
		h3.1v-5.1c0-0.1,0-0.2,0.1-0.3c0-0.1,0.1-0.1,0.2-0.2s0.2-0.1,0.4-0.1c0.2,0,0.4,0,0.7,0c0.3,0,0.5,0,0.7,0c0.2,0,0.3,0.1,0.4,0.1
		c0.1,0.1,0.2,0.1,0.2,0.2c0,0.1,0.1,0.2,0.1,0.3v5.1h5.8c0.1,0,0.2,0,0.3,0.1c0.1,0,0.2,0.1,0.2,0.2s0.1,0.2,0.1,0.4
		c0,0.1,0,0.3,0,0.5c0,0.4-0.1,0.7-0.2,0.9c-0.1,0.2-0.3,0.3-0.5,0.3h-5.8v12.6c0,1.6,0.2,2.8,0.7,3.6c0.5,0.8,1.3,1.2,2.5,1.2
		c0.4,0,0.7,0,1-0.1c0.3-0.1,0.6-0.2,0.8-0.3c0.2-0.1,0.4-0.2,0.6-0.3c0.2-0.1,0.3-0.1,0.4-0.1c0.1,0,0.1,0,0.2,0
		c0.1,0,0.1,0.1,0.1,0.2c0,0.1,0.1,0.2,0.1,0.3C608.4,517.3,608.4,517.4,608.4,517.6z"/>
	<path d="M627.7,518.9c0,0.2-0.1,0.3-0.2,0.4s-0.2,0.1-0.4,0.2c-0.2,0-0.4,0.1-0.7,0.1c-0.3,0-0.5,0-0.7-0.1c-0.2,0-0.3-0.1-0.4-0.2
		s-0.1-0.2-0.1-0.4v-2.3c-0.9,1-2,1.8-3.1,2.3s-2.3,0.8-3.5,0.8c-1.1,0-2.1-0.1-2.9-0.4c-0.9-0.3-1.6-0.7-2.2-1.2s-1.1-1.2-1.4-1.9
		s-0.5-1.6-0.5-2.5c0-1.2,0.2-2.2,0.7-3c0.5-0.9,1.2-1.6,2-2.1s1.9-1,3.2-1.3c1.2-0.3,2.6-0.4,4.1-0.4h3.3V505
		c0-0.9-0.1-1.7-0.3-2.4c-0.2-0.7-0.5-1.3-0.9-1.7s-1-0.8-1.6-1c-0.7-0.2-1.5-0.3-2.4-0.3c-0.9,0-1.8,0.1-2.5,0.3
		c-0.7,0.2-1.4,0.5-1.9,0.7c-0.6,0.3-1,0.5-1.4,0.7c-0.4,0.2-0.6,0.3-0.8,0.3c-0.1,0-0.2,0-0.3,0c-0.1,0-0.1-0.1-0.2-0.2
		c-0.1-0.1-0.1-0.2-0.1-0.3c0-0.1,0-0.3,0-0.5c0-0.3,0-0.6,0.1-0.8c0-0.2,0.2-0.4,0.4-0.6c0.2-0.2,0.5-0.4,1-0.7s1.1-0.5,1.7-0.7
		c0.6-0.2,1.3-0.4,2.1-0.5c0.7-0.1,1.5-0.2,2.2-0.2c1.4,0,2.6,0.2,3.6,0.5c1,0.3,1.8,0.8,2.4,1.5s1,1.4,1.3,2.4
		c0.3,0.9,0.4,2,0.4,3.2V518.9z M625,509.1h-3.8c-1.1,0-2.1,0.1-2.9,0.3c-0.8,0.2-1.5,0.5-2.1,0.9c-0.6,0.4-1,0.8-1.2,1.4
		c-0.3,0.5-0.4,1.2-0.4,1.8c0,1.2,0.4,2.2,1.1,2.9s1.8,1.1,3.2,1.1c1.1,0,2.1-0.3,3.1-0.8c0.9-0.6,1.9-1.4,3-2.6V509.1z
		 M622.6,487.9c0.1-0.2,0.2-0.3,0.3-0.4s0.2-0.2,0.4-0.2c0.1-0.1,0.3-0.1,0.5-0.1c0.2,0,0.5,0,0.7,0c0.3,0,0.5,0,0.7,0.1
		c0.2,0,0.3,0.1,0.4,0.2c0.1,0.1,0.1,0.2,0.1,0.3c0,0.1-0.1,0.2-0.2,0.4l-4,5.4c-0.1,0.2-0.2,0.3-0.3,0.4c-0.1,0.1-0.2,0.1-0.3,0.2
		c-0.1,0-0.2,0.1-0.4,0.1c-0.2,0-0.3,0-0.6,0c-0.2,0-0.4,0-0.6-0.1c-0.1,0-0.2-0.1-0.3-0.2c-0.1-0.1-0.1-0.2-0.1-0.3
		c0-0.1,0.1-0.2,0.2-0.4L622.6,487.9z"/>
	<path d="M660.6,518.9c0,0.2-0.1,0.3-0.2,0.4s-0.2,0.1-0.4,0.2c-0.2,0-0.4,0.1-0.7,0.1c-0.3,0-0.5,0-0.7-0.1c-0.2,0-0.3-0.1-0.4-0.2
		s-0.1-0.2-0.1-0.4v-2.3c-0.9,1-2,1.8-3.1,2.3s-2.3,0.8-3.5,0.8c-1.1,0-2.1-0.1-2.9-0.4c-0.9-0.3-1.6-0.7-2.2-1.2s-1.1-1.2-1.4-1.9
		s-0.5-1.6-0.5-2.5c0-1.2,0.2-2.2,0.7-3c0.5-0.9,1.2-1.6,2-2.1s1.9-1,3.2-1.3c1.2-0.3,2.6-0.4,4.1-0.4h3.3V505
		c0-0.9-0.1-1.7-0.3-2.4c-0.2-0.7-0.5-1.3-0.9-1.7s-1-0.8-1.6-1c-0.7-0.2-1.5-0.3-2.4-0.3c-0.9,0-1.8,0.1-2.5,0.3
		c-0.7,0.2-1.4,0.5-1.9,0.7c-0.6,0.3-1,0.5-1.4,0.7c-0.4,0.2-0.6,0.3-0.8,0.3c-0.1,0-0.2,0-0.3,0c-0.1,0-0.1-0.1-0.2-0.2
		c-0.1-0.1-0.1-0.2-0.1-0.3c0-0.1,0-0.3,0-0.5c0-0.3,0-0.6,0.1-0.8c0-0.2,0.2-0.4,0.4-0.6c0.2-0.2,0.5-0.4,1-0.7s1.1-0.5,1.7-0.7
		c0.6-0.2,1.3-0.4,2.1-0.5c0.7-0.1,1.5-0.2,2.2-0.2c1.4,0,2.6,0.2,3.6,0.5c1,0.3,1.8,0.8,2.4,1.5s1,1.4,1.3,2.4
		c0.3,0.9,0.4,2,0.4,3.2V518.9z M657.8,509.1h-3.8c-1.1,0-2.1,0.1-2.9,0.3c-0.8,0.2-1.5,0.5-2.1,0.9c-0.6,0.4-1,0.8-1.2,1.4
		c-0.3,0.5-0.4,1.2-0.4,1.8c0,1.2,0.4,2.2,1.1,2.9s1.8,1.1,3.2,1.1c1.1,0,2.1-0.3,3.1-0.8c0.9-0.6,1.9-1.4,3-2.6V509.1z"/>
	<path d="M685,518.9c0,0.1,0,0.2-0.1,0.3c0,0.1-0.1,0.1-0.2,0.2c-0.1,0-0.2,0.1-0.4,0.1c-0.2,0-0.4,0-0.6,0c-0.3,0-0.5,0-0.7,0
		c-0.2,0-0.3-0.1-0.4-0.1c-0.1,0-0.2-0.1-0.2-0.2s-0.1-0.2-0.1-0.3v-2.9c-1.2,1.3-2.4,2.3-3.5,2.9s-2.3,0.9-3.4,0.9
		c-1.4,0-2.5-0.2-3.5-0.7c-0.9-0.5-1.7-1.1-2.3-1.9c-0.6-0.8-1-1.7-1.2-2.8c-0.3-1-0.4-2.3-0.4-3.8v-12.6c0-0.1,0-0.2,0.1-0.3
		c0-0.1,0.1-0.1,0.2-0.2s0.2-0.1,0.4-0.1c0.2,0,0.4,0,0.7,0c0.3,0,0.5,0,0.7,0c0.2,0,0.3,0.1,0.4,0.1s0.2,0.1,0.2,0.2
		c0,0.1,0.1,0.2,0.1,0.3v12.3c0,1.3,0.1,2.3,0.3,3.2c0.2,0.8,0.5,1.5,0.9,2.1c0.4,0.6,0.9,1,1.5,1.3c0.6,0.3,1.3,0.5,2.2,0.5
		c1.1,0,2.1-0.4,3.2-1.1c1.1-0.8,2.2-1.9,3.3-3.3v-14.9c0-0.1,0-0.2,0.1-0.3c0-0.1,0.1-0.1,0.2-0.2s0.2-0.1,0.4-0.1
		c0.2,0,0.4,0,0.7,0c0.3,0,0.5,0,0.7,0c0.2,0,0.3,0.1,0.4,0.1s0.2,0.1,0.2,0.2c0,0.1,0.1,0.2,0.1,0.3V518.9z"/>
	<path d="M702.7,517.6c0,0.3,0,0.6-0.1,0.8s-0.1,0.4-0.3,0.5s-0.3,0.2-0.5,0.3c-0.2,0.1-0.5,0.2-0.8,0.3c-0.3,0.1-0.6,0.1-0.9,0.2
		c-0.3,0-0.6,0.1-0.9,0.1c-1,0-1.9-0.1-2.6-0.4c-0.7-0.3-1.3-0.7-1.8-1.3c-0.5-0.6-0.8-1.3-1-2.1s-0.3-1.9-0.3-3v-13h-3.1
		c-0.2,0-0.4-0.1-0.5-0.3c-0.1-0.2-0.2-0.5-0.2-0.9c0-0.2,0-0.4,0-0.5c0-0.1,0.1-0.3,0.1-0.4s0.1-0.2,0.2-0.2c0.1,0,0.2-0.1,0.3-0.1
		h3.1v-5.1c0-0.1,0-0.2,0.1-0.3c0-0.1,0.1-0.1,0.2-0.2s0.2-0.1,0.4-0.1c0.2,0,0.4,0,0.7,0c0.3,0,0.5,0,0.7,0c0.2,0,0.3,0.1,0.4,0.1
		c0.1,0.1,0.2,0.1,0.2,0.2c0,0.1,0.1,0.2,0.1,0.3v5.1h5.8c0.1,0,0.2,0,0.3,0.1c0.1,0,0.2,0.1,0.2,0.2s0.1,0.2,0.1,0.4
		c0,0.1,0,0.3,0,0.5c0,0.4-0.1,0.7-0.2,0.9c-0.1,0.2-0.3,0.3-0.5,0.3h-5.8v12.6c0,1.6,0.2,2.8,0.7,3.6c0.5,0.8,1.3,1.2,2.5,1.2
		c0.4,0,0.7,0,1-0.1c0.3-0.1,0.6-0.2,0.8-0.3c0.2-0.1,0.4-0.2,0.6-0.3c0.2-0.1,0.3-0.1,0.4-0.1c0.1,0,0.1,0,0.2,0
		c0.1,0,0.1,0.1,0.1,0.2c0,0.1,0.1,0.2,0.1,0.3C702.7,517.3,702.7,517.4,702.7,517.6z"/>
	<path d="M726.2,508.3c0,1.7-0.2,3.2-0.6,4.6s-1.1,2.6-1.9,3.6c-0.9,1-1.9,1.8-3.2,2.4c-1.3,0.6-2.8,0.9-4.4,0.9
		c-1.6,0-3-0.3-4.3-0.8c-1.2-0.5-2.2-1.3-3.1-2.2s-1.4-2.1-1.8-3.5c-0.4-1.4-0.6-2.9-0.6-4.6c0-1.7,0.2-3.2,0.6-4.6
		c0.4-1.4,1.1-2.6,1.9-3.6c0.9-1,1.9-1.8,3.2-2.4c1.3-0.6,2.8-0.9,4.5-0.9c1.6,0,3,0.3,4.3,0.8c1.2,0.5,2.2,1.2,3.1,2.2
		c0.8,1,1.4,2.1,1.8,3.5S726.2,506.5,726.2,508.3z M723.3,508.5c0-1.2-0.1-2.3-0.3-3.4c-0.2-1.1-0.6-2-1.2-2.8
		c-0.5-0.8-1.3-1.5-2.2-2c-0.9-0.5-2-0.7-3.4-0.7c-1.2,0-2.3,0.2-3.2,0.7c-0.9,0.4-1.6,1.1-2.2,1.9c-0.6,0.8-1,1.7-1.3,2.8
		c-0.3,1.1-0.4,2.2-0.4,3.5c0,1.2,0.1,2.3,0.3,3.4c0.2,1.1,0.6,2,1.2,2.8s1.3,1.5,2.2,1.9c0.9,0.5,2,0.7,3.4,0.7
		c1.2,0,2.3-0.2,3.2-0.7c0.9-0.4,1.6-1.1,2.2-1.8c0.6-0.8,1-1.7,1.3-2.8S723.3,509.8,723.3,508.5z"/>
	<path d="M743.9,499.1c0,0.2,0,0.4,0,0.6s0,0.3-0.1,0.4c0,0.1-0.1,0.2-0.1,0.2c-0.1,0.1-0.1,0.1-0.2,0.1c-0.1,0-0.3,0-0.5-0.1
		c-0.2-0.1-0.4-0.1-0.6-0.2s-0.5-0.1-0.8-0.2s-0.6-0.1-1-0.1c-0.4,0-0.8,0.1-1.2,0.3c-0.4,0.2-0.8,0.5-1.3,0.9s-0.9,0.9-1.4,1.6
		c-0.5,0.6-1,1.4-1.6,2.4v14.1c0,0.1,0,0.2-0.1,0.3c0,0.1-0.1,0.1-0.2,0.2c-0.1,0-0.2,0.1-0.4,0.1c-0.2,0-0.4,0-0.7,0
		c-0.3,0-0.5,0-0.7,0c-0.2,0-0.3-0.1-0.4-0.1c-0.1,0-0.2-0.1-0.2-0.2c0-0.1-0.1-0.2-0.1-0.3v-20.8c0-0.1,0-0.2,0.1-0.3
		c0-0.1,0.1-0.1,0.2-0.2c0.1-0.1,0.2-0.1,0.4-0.1c0.2,0,0.4,0,0.6,0c0.3,0,0.5,0,0.6,0c0.2,0,0.3,0.1,0.4,0.1
		c0.1,0.1,0.2,0.1,0.2,0.2c0,0.1,0.1,0.2,0.1,0.3v3.3c0.6-0.9,1.2-1.6,1.7-2.1s1-1,1.5-1.3c0.5-0.3,0.9-0.5,1.3-0.6s0.9-0.2,1.3-0.2
		c0.2,0,0.4,0,0.7,0c0.3,0,0.5,0.1,0.8,0.1c0.3,0.1,0.6,0.1,0.8,0.2c0.2,0.1,0.4,0.2,0.5,0.2c0.1,0.1,0.2,0.1,0.2,0.2
		c0,0.1,0.1,0.1,0.1,0.2c0,0.1,0,0.2,0,0.3C743.9,498.7,743.9,498.9,743.9,499.1z"/>
	<path d="M751.7,491c0,0.7-0.1,1.2-0.4,1.5c-0.3,0.3-0.7,0.4-1.4,0.4c-0.7,0-1.1-0.1-1.4-0.4c-0.3-0.3-0.4-0.7-0.4-1.5
		s0.1-1.2,0.4-1.5c0.3-0.3,0.7-0.4,1.4-0.4c0.7,0,1.1,0.1,1.4,0.4C751.6,489.8,751.7,490.3,751.7,491z M751.3,518.9
		c0,0.1,0,0.2-0.1,0.3c0,0.1-0.1,0.1-0.2,0.2c-0.1,0-0.2,0.1-0.4,0.1c-0.2,0-0.4,0-0.7,0c-0.3,0-0.5,0-0.7,0c-0.2,0-0.3-0.1-0.4-0.1
		c-0.1,0-0.2-0.1-0.2-0.2c0-0.1-0.1-0.2-0.1-0.3v-20.8c0-0.1,0-0.2,0.1-0.3c0-0.1,0.1-0.1,0.2-0.2c0.1-0.1,0.2-0.1,0.4-0.1
		c0.2,0,0.4,0,0.7,0c0.3,0,0.5,0,0.7,0c0.2,0,0.3,0.1,0.4,0.1s0.2,0.1,0.2,0.2c0,0.1,0.1,0.2,0.1,0.3V518.9z"/>
	<path d="M771.6,518.2c0,0.2,0,0.4-0.1,0.5c0,0.2-0.1,0.3-0.2,0.4c-0.1,0.1-0.1,0.2-0.2,0.2c-0.1,0-0.2,0.1-0.3,0.1h-12.4
		c-0.3,0-0.5-0.1-0.7-0.3c-0.2-0.2-0.3-0.5-0.3-0.9v-0.6c0-0.2,0-0.3,0-0.5c0-0.1,0.1-0.3,0.1-0.4s0.1-0.3,0.2-0.5
		c0.1-0.2,0.2-0.4,0.4-0.6l9.9-15.5h-9.7c-0.2,0-0.4-0.1-0.5-0.3c-0.1-0.2-0.2-0.5-0.2-0.9c0-0.2,0-0.4,0.1-0.5
		c0-0.2,0.1-0.3,0.1-0.4c0.1-0.1,0.1-0.2,0.2-0.2c0.1,0,0.2-0.1,0.3-0.1h11.5c0.1,0,0.3,0,0.4,0.1c0.1,0,0.2,0.1,0.3,0.2
		c0.1,0.1,0.2,0.2,0.2,0.4c0.1,0.2,0.1,0.3,0.1,0.6v0.5c0,0.2,0,0.3,0,0.5c0,0.2-0.1,0.3-0.1,0.5c-0.1,0.2-0.1,0.3-0.3,0.5
		c-0.1,0.2-0.2,0.4-0.4,0.7l-9.9,15.5h10.6c0.1,0,0.2,0,0.3,0.1c0.1,0,0.2,0.1,0.2,0.2s0.1,0.2,0.2,0.4
		C771.5,517.8,771.6,518,771.6,518.2z"/>
	<path d="M791.2,518.9c0,0.2-0.1,0.3-0.2,0.4s-0.2,0.1-0.4,0.2c-0.2,0-0.4,0.1-0.7,0.1c-0.3,0-0.5,0-0.7-0.1c-0.2,0-0.3-0.1-0.4-0.2
		s-0.1-0.2-0.1-0.4v-2.3c-0.9,1-2,1.8-3.1,2.3s-2.3,0.8-3.5,0.8c-1.1,0-2.1-0.1-2.9-0.4c-0.9-0.3-1.6-0.7-2.2-1.2s-1.1-1.2-1.4-1.9
		s-0.5-1.6-0.5-2.5c0-1.2,0.2-2.2,0.7-3c0.5-0.9,1.2-1.6,2-2.1s1.9-1,3.2-1.3c1.2-0.3,2.6-0.4,4.1-0.4h3.3V505
		c0-0.9-0.1-1.7-0.3-2.4c-0.2-0.7-0.5-1.3-0.9-1.7s-1-0.8-1.6-1c-0.7-0.2-1.5-0.3-2.4-0.3c-0.9,0-1.8,0.1-2.5,0.3
		c-0.7,0.2-1.4,0.5-1.9,0.7c-0.6,0.3-1,0.5-1.4,0.7c-0.4,0.2-0.6,0.3-0.8,0.3c-0.1,0-0.2,0-0.3,0c-0.1,0-0.1-0.1-0.2-0.2
		c-0.1-0.1-0.1-0.2-0.1-0.3c0-0.1,0-0.3,0-0.5c0-0.3,0-0.6,0.1-0.8c0-0.2,0.2-0.4,0.4-0.6c0.2-0.2,0.5-0.4,1-0.7s1.1-0.5,1.7-0.7
		c0.6-0.2,1.3-0.4,2.1-0.5c0.7-0.1,1.5-0.2,2.2-0.2c1.4,0,2.6,0.2,3.6,0.5c1,0.3,1.8,0.8,2.4,1.5s1,1.4,1.3,2.4
		c0.3,0.9,0.4,2,0.4,3.2V518.9z M788.4,509.1h-3.8c-1.1,0-2.1,0.1-2.9,0.3c-0.8,0.2-1.5,0.5-2.1,0.9c-0.6,0.4-1,0.8-1.2,1.4
		c-0.3,0.5-0.4,1.2-0.4,1.8c0,1.2,0.4,2.2,1.1,2.9s1.8,1.1,3.2,1.1c1.1,0,2.1-0.3,3.1-0.8c0.9-0.6,1.9-1.4,3-2.6V509.1z"/>
	<path d="M815.6,518.9c0,0.1,0,0.2-0.1,0.3c0,0.1-0.1,0.1-0.2,0.2c-0.1,0-0.2,0.1-0.4,0.1c-0.2,0-0.3,0-0.6,0c-0.2,0-0.4,0-0.6,0
		c-0.2,0-0.3-0.1-0.4-0.1c-0.1,0-0.2-0.1-0.2-0.2c-0.1-0.1-0.1-0.2-0.1-0.3v-3c-1.1,1.2-2.2,2.1-3.4,2.8s-2.5,1-3.9,1
		c-1.5,0-2.8-0.3-3.8-0.9c-1.1-0.6-1.9-1.4-2.6-2.4c-0.7-1-1.2-2.2-1.5-3.5c-0.3-1.3-0.5-2.8-0.5-4.3c0-1.8,0.2-3.4,0.6-4.8
		c0.4-1.4,1-2.6,1.7-3.6c0.8-1,1.7-1.8,2.8-2.3c1.1-0.5,2.4-0.8,3.8-0.8c1.3,0,2.4,0.3,3.5,0.8c1,0.6,2.1,1.4,3.1,2.5V488
		c0-0.1,0-0.2,0.1-0.3s0.1-0.1,0.2-0.2s0.2-0.1,0.4-0.1c0.2,0,0.4,0,0.7,0c0.3,0,0.5,0,0.7,0c0.2,0,0.3,0.1,0.4,0.1s0.2,0.1,0.2,0.2
		s0.1,0.2,0.1,0.3V518.9z M812.9,503.9c-1.2-1.4-2.3-2.5-3.3-3.2c-1.1-0.7-2.2-1.1-3.3-1.1c-1.1,0-2,0.3-2.7,0.8
		c-0.8,0.5-1.4,1.2-1.8,2c-0.5,0.8-0.8,1.8-1,2.8c-0.2,1-0.3,2.1-0.3,3.2c0,1.2,0.1,2.3,0.3,3.4c0.2,1.1,0.5,2.1,0.9,2.9
		c0.4,0.9,1,1.5,1.8,2c0.7,0.5,1.7,0.8,2.8,0.8c0.6,0,1.1-0.1,1.6-0.2c0.5-0.2,1.1-0.4,1.6-0.8c0.6-0.4,1.1-0.8,1.7-1.4
		c0.6-0.6,1.2-1.3,1.9-2.1V503.9z"/>
	<path d="M841.7,508.3c0,1.7-0.2,3.2-0.6,4.6s-1.1,2.6-1.9,3.6c-0.9,1-1.9,1.8-3.2,2.4c-1.3,0.6-2.8,0.9-4.4,0.9
		c-1.6,0-3-0.3-4.3-0.8c-1.2-0.5-2.2-1.3-3.1-2.2s-1.4-2.1-1.8-3.5c-0.4-1.4-0.6-2.9-0.6-4.6c0-1.7,0.2-3.2,0.6-4.6
		c0.4-1.4,1.1-2.6,1.9-3.6c0.9-1,1.9-1.8,3.2-2.4c1.3-0.6,2.8-0.9,4.5-0.9c1.6,0,3,0.3,4.3,0.8c1.2,0.5,2.2,1.2,3.1,2.2
		c0.8,1,1.4,2.1,1.8,3.5S841.7,506.5,841.7,508.3z M838.8,508.5c0-1.2-0.1-2.3-0.3-3.4c-0.2-1.1-0.6-2-1.2-2.8
		c-0.5-0.8-1.3-1.5-2.2-2c-0.9-0.5-2-0.7-3.4-0.7c-1.2,0-2.3,0.2-3.2,0.7c-0.9,0.4-1.6,1.1-2.2,1.9c-0.6,0.8-1,1.7-1.3,2.8
		c-0.3,1.1-0.4,2.2-0.4,3.5c0,1.2,0.1,2.3,0.3,3.4c0.2,1.1,0.6,2,1.2,2.8s1.3,1.5,2.2,1.9c0.9,0.5,2,0.7,3.4,0.7
		c1.2,0,2.3-0.2,3.2-0.7c0.9-0.4,1.6-1.1,2.2-1.8c0.6-0.8,1-1.7,1.3-2.8S838.8,509.8,838.8,508.5z"/>
</g>
<g>
	<path class="st2" d="M531.9,382.7c-40.3,0-80.6,0-120.9,0c-31.6,0-50.5-32.6-34.7-60c40.4-70,80.8-140,121.2-209.9
		c15.5-26.8,53.3-26.8,68.9,0c40.5,70,80.7,140,121.3,209.9c14.1,24.3,0,54.2-26.1,59.3c-2.7,0.5-5.6,0.7-8.4,0.7
		C612.6,382.7,572.3,382.7,531.9,382.7z M531.9,357.4c39.3,0,78.5,0,117.8,0c1.4,0,2.9,0,4.3,0c6.7-0.2,12.1-4.8,13.6-11.3
		c0.9-4.2-0.3-7.9-2.4-11.5c-26.6-46-53.1-92-79.7-138c-13.6-23.6-27.2-47.1-40.8-70.7c-2-3.5-4.6-6.1-8.6-7.3
		c-7-2.1-13.3,0.6-17.2,7.4c-29.3,50.8-58.7,101.6-88,152.4c-10.9,18.9-21.8,37.8-32.8,56.7c-2,3.4-3,6.9-2.1,10.8
		c1.6,7.1,7.2,11.4,14.9,11.4C451.3,357.4,491.6,357.4,531.9,357.4z"/>
	<path class="st2" d="M548.4,193.9c-1.1,10.6-2.2,20.6-3.2,30.6c-2.2,20.6-4.4,41.2-6.6,61.7c-0.5,4.4-3.2,7-7.2,6.9
		c-3.8-0.1-6.4-2.8-6.8-7c-3-29.8-6-59.6-9-89.3c-0.9-9.1,4.3-16.8,12.7-18.7c8.2-1.8,16.3,2.7,19.1,10.5
		C547.9,190.5,548.1,192.5,548.4,193.9z"/>
	<path class="st2" d="M546.3,318.8c0,8.5-6.6,15.2-15.1,15.2c-8.4,0-15.1-6.7-15.1-15.2c0-8.4,6.6-15,14.9-15.1
		C539.6,303.7,546.3,310.4,546.3,318.8z"/>
</g>
<rect x="-0.1" y="0" class="st3" width="1119.4" height="75.3"/>
</svg>
