<?xml version="1.0" encoding="UTF-8"?><svg id="Capa_2" xmlns="http://www.w3.org/2000/svg" viewBox="0 0 833.29 821.26"><defs><style>.cls-1{fill:#fff;}.cls-2{fill:#ff735d;}.cls-3{fill:#fafafa;}.cls-4{opacity:.6;}.cls-5{fill:#f5f5f5;}.cls-6{fill:#c27460;}.cls-7{font-family:MyriadPro-Regular, 'Myriad Pro';font-size:12px;}.cls-8{fill:#7c4235;}.cls-9{fill:#e1e1e1;}.cls-10{opacity:.3;}.cls-11{fill:#00a0e4;}.cls-12{fill:#f15a24;font-family:ChauPhilomeneOne-Regular, 'Chau Philomene One';font-size:46.64px;}.cls-13{fill:#375a64;}.cls-14{fill:#eb4a2a;}.cls-15{fill:#ececec;}.cls-16{fill:#1a2e35;}</style></defs><g id="Capa_1-2"><g><path class="cls-9" d="M762.4,339.13l4.4,1.46c3.14,1.05,6.54-.65,7.59-3.8l58.36-175.38c1.85-5.57-1.16-11.59-6.73-13.45h0l-63.61,191.17Z"/><path class="cls-5" d="M590.4,684.32l49.11,16.34,138.14-415.15c4.51-13.56-2.82-28.21-16.39-32.73h0c-13.56-4.51-28.22,2.82-32.73,16.39l-138.14,415.15Z"/><polygon class="cls-1" points="670.05 444.93 702.12 512.5 694.79 534.52 662.31 468.2 670.05 444.93"/><polygon class="cls-1" points="657.9 481.44 689.97 549.01 686.48 559.51 653.99 493.19 657.9 481.44"/><path class="cls-9" d="M723.99,271.22l54.92,18.27,45.41-136.48c5.05-15.17-3.16-31.55-18.32-36.6h0c-15.17-5.05-31.55,3.16-36.6,18.32l-45.41,136.48Z"/><path class="cls-15" d="M763.29,336.46c-.24-.08,13.2-41.1,30-91.6,16.81-50.52,30.63-91.4,30.86-91.32,.24,.08-13.19,41.09-30,91.61-16.81,50.51-30.62,91.39-30.86,91.31Z"/><path class="cls-9" d="M593.2,691.85h35.67c4.44,0,8.05,3.61,8.05,8.05v16.76h-51.76v-16.76c0-4.44,3.61-8.05,8.05-8.05Z" transform="translate(968.47 1565.41) rotate(-161.6)"/><path class="cls-9" d="M768.04,285.87c.24,.08-30.32,92.57-68.25,206.56-37.94,114.03-68.88,206.37-69.12,206.29-.24-.08,30.32-92.55,68.26-206.58,37.93-113.99,68.88-206.35,69.11-206.27Z"/><path class="cls-9" d="M752.02,280.54c.24,.08-30.32,92.57-68.25,206.56-37.94,114.03-68.88,206.37-69.12,206.29-.24-.08,30.32-92.55,68.26-206.58,37.93-113.99,68.88-206.35,69.11-206.27Z"/><path class="cls-9" d="M736.01,275.21c.24,.08-30.32,92.57-68.25,206.56-37.94,114.03-68.88,206.37-69.12,206.29-.24-.08,30.32-92.55,68.26-206.58,37.93-113.99,68.88-206.35,69.11-206.27Z"/></g><g><rect class="cls-9" x="20.75" y="44.83" width="165.89" height="240.44"/><rect class="cls-5" x="12.44" y="44.83" width="165.89" height="240.44"/><g><rect class="cls-1" x="33.05" y="70.87" width="124.67" height="188.36"/><path class="cls-9" d="M157.72,259.23s-.02-.32-.02-.92c0-.62-.01-1.51-.02-2.67-.01-2.37-.03-5.83-.05-10.33-.03-9.03-.06-22.18-.11-38.8-.05-33.21-.12-80.25-.2-135.64l.41,.41c-38.09,.01-80.29,.02-124.65,.04h-.02l.45-.45c-.03,71.06-.07,136.57-.09,188.36l-.36-.36c37.97,.08,69.09,.14,90.74,.19,10.83,.04,19.29,.07,25.07,.09,2.87,.02,5.07,.03,6.58,.04,1.49,.01,2.28,.04,2.28,.04,0,0-.73,.03-2.2,.04-1.49,0-3.67,.02-6.51,.04-5.76,.02-14.19,.05-24.99,.09-21.71,.05-52.9,.11-90.96,.19h-.36v-.36c-.03-51.79-.06-117.3-.09-188.36v-.45h.47c44.36,.01,86.56,.03,124.65,.04h.41v.41c-.08,55.5-.15,102.63-.2,135.91-.05,16.58-.09,29.7-.11,38.71-.02,4.46-.04,7.9-.05,10.25-.01,1.14-.02,2.01-.02,2.62,0,.59-.02,.87-.02,.87Z"/></g><path class="cls-9" d="M178.8,44.83c.1,.08-1.03,1.72-2.96,4.3-1.93,2.58-4.66,6.08-7.78,9.87-3.12,3.79-6.04,7.15-8.2,9.53-2.16,2.39-3.56,3.81-3.65,3.72-.1-.08,1.13-1.65,3.17-4.14,2.22-2.7,4.96-6.02,7.99-9.69,3.02-3.67,5.76-6.99,7.98-9.69,2.05-2.47,3.36-3.98,3.46-3.9Z"/><g><path class="cls-1" d="M158.36,258.62c6.19,9.85,13.5,18.99,21.74,27.19"/><path class="cls-9" d="M180.1,285.82c-.08,.08-1.56-1.2-3.79-3.45-2.23-2.25-5.18-5.48-8.2-9.25-3.02-3.78-5.52-7.37-7.22-10.04-1.7-2.67-2.63-4.39-2.53-4.46,.11-.07,1.23,1.53,3.06,4.1,1.83,2.57,4.4,6.08,7.4,9.83,3,3.75,5.86,7.03,7.96,9.38,2.1,2.35,3.42,3.79,3.33,3.89Z"/></g><g><path class="cls-1" d="M12.42,285.08c7.24-8.94,14.49-17.87,21.73-26.81"/><path class="cls-9" d="M34.15,258.27c.19,.16-4.51,6.29-10.51,13.69-6,7.4-11.02,13.28-11.22,13.12-.19-.16,4.51-6.28,10.51-13.69,6-7.4,11.02-13.28,11.21-13.12Z"/></g><path class="cls-9" d="M12.44,44.83c.2-.15,4.92,5.49,10.55,12.61,5.63,7.12,10.03,13.01,9.84,13.17-.2,.15-4.92-5.49-10.55-12.61-5.63-7.12-10.03-13.01-9.84-13.17Z"/><rect class="cls-9" x="77.14" y="109.11" width="41.74" height="118.52"/></g><g><g><path class="cls-9" d="M42.56,638.21c-7.19-4.52-15.44-7.35-23.89-8.22-3.9-.4-8.17-.29-11.3,2.08-.66,.5-1.31,1.24-1.16,2.06,.11,.6,.62,1.04,1.1,1.41,9.72,7.41,24.42,8.35,35.24,2.67"/><path class="cls-9" d="M41.95,637.54c-5.41-4.22-10.85-8.47-15.43-13.57-4.58-5.11-8.3-11.17-9.67-17.89-.42-2.04-.54-4.37,.76-5.99,12.3,9.6,21.96,22.03,24.34,37.45"/><path class="cls-9" d="M42.43,638.12c-.93-6.73-1.26-13.64,.29-20.26,1.55-6.61,5.14-12.94,10.79-16.71,2.13,4.97,1.21,10.69-.29,15.88-2.31,8.02-5.94,15.66-10.7,22.52"/><path class="cls-9" d="M54.49,659.72c-7.32,.89-13.69,4.75-19.16,9.7-5.46,4.95-9.35,11.62-10.96,18.81,7.18-.44,13.27-5.51,17.68-11.18,4.42-5.68,7.48-11.9,12.33-17.21"/><path class="cls-9" d="M57.11,663.18c-5.89-14.52-3.76-32.01,5.46-44.69,4.17,14.83,2.64,31.58-5.46,44.69"/><path class="cls-9" d="M73.04,682.14c-6.64-.41-13.39,1.17-19.16,4.49-5.77,3.32-10.53,8.36-13.51,14.31-.4,.81-.76,1.84-.22,2.56,.47,.63,1.38,.69,2.17,.64,6.44-.42,12.14-4.29,16.85-8.7,4.71-4.41,8.81-9.51,14.01-13.32"/><path class="cls-9" d="M72.53,681.11c-3.43-10.96-3.64-22.91-.61-33.99,1.2-4.37,3.21-8.98,7.25-11.03,.35-.18,.75-.33,1.11-.19,.34,.13,.54,.48,.7,.81,1.44,3.01,1.86,6.42,1.71,9.75-.15,3.33-.84,6.61-1.53,9.87-1.27,6.03-1.95,12.52-5.26,17.72-.79,1.23-1.48,2.57-2.1,3.89-.63,1.32-.63,1.79-1.21,2.84"/><path class="cls-9" d="M114.69,687.39c-3.12-11.88,.19-26.29,7.68-36.03,.55-.72,1.28-1.49,2.18-1.4,1.38,.13,1.74,1.96,1.67,3.35-.54,12.14-4.59,24.11-11.54,34.08"/><path class="cls-9" d="M118.49,689.99c14.44,3.76,31,.11,43-8.75-7.12-3.61-15.5-4.64-23.28-2.86-7.78,1.78-14.88,5.26-19.72,11.6"/><path class="cls-9" d="M121.7,682.08c8.09-13.18,23.59-21.79,39.03-22.57-1.78,6.28-6.94,11.16-12.77,14.11s-12.33,4.23-18.74,5.48c-2.49,.48-5.91,1.02-7.53,2.98"/><path class="cls-9" d="M115.5,643.69c2.19-7.5,4.39-15.07,4.99-22.86,.6-7.79-.51-15.92-4.55-22.61-7.55,14.61-8.32,31.69-.67,46.25"/><path class="cls-9" d="M140.92,630.84c8.83-16.05,26.85-28.87,45.08-30.67-7.03,17.51-26.22,31.05-45.08,30.67"/><path class="cls-9" d="M135.37,633.98c13.17,2.01,24.39,10.42,36.7,15.52,2.63,1.09,5.47,1.96,8.3,1.59,2.83-.37,5.61-2.27,6.25-5.04,.53-2.31-.52-4.76-2.18-6.45-1.66-1.69-3.84-2.75-6.03-3.66-13.41-5.58-27.78-5.72-41.91-2.34"/><path class="cls-9" d="M127.74,643.22c2.98,.85,4,2.4,6.36,4.41,8.01,6.82,17.62,11.76,27.83,14.3,1.06,.26,2.46,.37,2.98-.59,.46-.84-.12-1.85-.72-2.6-4.28-5.35-10.38-9.02-16.8-11.41-6.42-2.39-11.99-5.27-19.65-4.66"/><path class="cls-9" d="M119.14,587.42c10.71,10,25.8,15.13,40.38,13.74,.66-.06,1.39-.17,1.84-.66,1.02-1.11-.2-2.81-1.39-3.74-11.87-9.26-26.25-13.09-40.83-9.34"/><path class="cls-9" d="M129.34,583.69c14.16-10.61,33.57-13.82,50.39-8.31-6.35,6.25-15.15,9.62-24.01,10.54-8.86,.92-17.74-.06-26.38-2.23"/><path class="cls-9" d="M125.29,558.05c-1.17-11.85-.41-21.2-1.23-33.11-.07-.95-.27-2.1-1.16-2.44-1.24-.48-2.27,1.05-2.68,2.31-3.53,10.98-1.6,23.56,5.05,32.98"/><path class="cls-9" d="M124.44,559.36c8.03-4.97,14.06-11.45,19.63-19.08,3.88-5.31,7.15-11.66,6.26-18.17-5.44-.11-10.62,2.89-14.16,7.03-3.54,4.14-5.65,9.31-7.22,14.52-1.57,5.21-2.67,10.57-4.52,15.7"/><path class="cls-9" d="M143.72,554c17.63-6.52,34.07-16.22,48.31-28.49-5.77-2.32-12.38-.93-18.15,1.4-13.18,5.32-23.95,14.3-30.41,26.96"/><path class="cls-9" d="M129.86,565.84c8.92,.97,17.98,1.61,26.83,.13,8.7-1.45,16.92-4.9,25.04-8.32,.67-.28,1.41-.62,1.7-1.29,.32-.73-.02-1.61-.61-2.14-.59-.53-1.37-.79-2.14-1-8.84-2.47-18.37-1.31-27.06,1.62-8.69,2.93-15.82,6.41-23.76,11.01"/><path class="cls-9" d="M78.94,587.83c-6.08-12.28-5.69-26.61-.43-39.27,3.7,5.64,4.15,12.82,3.48,19.53-.68,6.71-2.72,13.61-2.85,20.36"/><path class="cls-9" d="M54.63,575.57c-15.19-.29-30.39,6.18-40.7,17.34,7.58,1.19,15.39-.76,22.29-4.13,6.9-3.37,13.02-8.09,19.1-12.78"/><path class="cls-9" d="M38.29,570.1c-7.43-.6-14.58-1.52-21.73,.67-7.15,2.19-13.65,7.16-16.56,14.04,6.95,.78,14-.96,20.37-3.85,6.37-2.89,12.16-6.89,17.92-10.86"/><path class="cls-9" d="M62.48,570.35c-6.69-4.38-13.55-8.84-21.33-10.66-7.78-1.81-16.81-.47-22.23,5.39,6.3,3.7,13.95,4.13,21.25,4.13,7.31,0,16.26-.09,23.15,2.35"/><path class="cls-9" d="M62.52,570.71c-11.43-11.22-15.76-31.38-11.16-46.73,8.98,13.65,13.01,30.49,11.16,46.73"/><path class="cls-9" d="M93.95,538.91c2.16-5.01,3.67-10.27,5.61-15.37,1.93-5.1,4.34-10.12,7.99-14.17,3.65-4.05,8.71-7.07,14.16-7.34-3.41,15.44-13.67,29.24-27.47,36.96"/><path class="cls-9" d="M88.26,545.53c-3.57-4.91-7.69-11.57-12.53-15.24-4.84-3.66-11.14-5.88-17.04-4.48,6,10.73,17.35,18.3,29.57,19.71"/><path class="cls-9" d="M89.4,539.32c-2.34-5.94-4.69-11.95-5.64-18.26-.95-6.31-.37-13.06,2.86-18.57,6.27,11.86,8.29,24.59,3.1,36.96"/><path class="cls-9" d="M94.01,502.49c3.55-11.76,14.32-20.41,25.94-24.39,1.47-.5,3.02-.92,4.55-.68,1.53,.24,3.03,1.28,3.35,2.8,.42,2-1.23,3.79-2.78,5.12-9.05,7.74-19.69,13.61-31.06,17.15"/><path class="cls-9" d="M94.14,492.87c.45-7.58,.92-15.27,3.39-22.45,2.47-7.18,7.22-13.92,14.13-17.06,1.18,7.66-2.2,15.27-6.28,21.86-4.07,6.59-8.98,12.81-11.43,20.16"/><path class="cls-9" d="M93.95,498.09c-2.94-8.57-3.24-19.45-8.37-26.92-3.59-5.22-9.33-8.77-12.42-14.3-2.05,5.16-1.42,11.11,.72,16.23,2.15,5.12,5.69,9.53,9.49,13.59,3.8,4.05,7.05,7.1,10.58,11.39"/><path class="cls-9" d="M94.01,750.42c-.23,0-.43-57.16-.44-127.65-.02-70.52,.16-127.66,.38-127.66s.43,57.15,.44,127.66c.02,70.49-.16,127.65-.38,127.65Z"/><path class="cls-9" d="M143.96,579.2c.02,.05-.75,.34-2.15,.81-1.54,.52-3.53,1.19-5.91,2-4.99,1.7-11.84,4.16-19.27,7.21-7.36,3.16-14.3,5.72-18.26,9.15-1.98,1.69-3.11,3.52-3.67,4.85-.57,1.34-.67,2.16-.74,2.15-.03,0-.02-.21,.02-.6,.07-.39,.16-.96,.42-1.67,.48-1.41,1.58-3.37,3.58-5.17,1.99-1.81,4.75-3.44,7.92-4.92,3.17-1.48,6.68-3.02,10.41-4.55,7.46-3.06,14.36-5.44,19.4-7,2.52-.79,4.58-1.37,6-1.75,1.43-.37,2.23-.55,2.24-.5Z"/><path class="cls-9" d="M160.33,538.99s-.19,.24-.6,.64c-.49,.46-1.09,1.03-1.83,1.72-1.7,1.55-4.02,3.65-6.85,6.22-5.91,5.26-13.93,12.4-22.79,20.29-8.9,7.92-16.58,15.48-21.91,21.18-2.67,2.84-4.77,5.2-6.2,6.85-.67,.76-1.22,1.39-1.66,1.89-.38,.43-.6,.65-.62,.63-.02-.02,.15-.27,.49-.73,.35-.46,.85-1.14,1.54-1.99,1.36-1.71,3.4-4.13,6.02-7.04,5.23-5.81,12.88-13.47,21.79-21.4,8.93-7.9,17.05-15,22.95-20.11,2.9-2.49,5.27-4.52,7.02-6.02,.78-.65,1.42-1.18,1.94-1.61,.45-.36,.69-.54,.71-.52Z"/><path class="cls-9" d="M118.65,575.92c-.23-.1,1.63-4.39,3.48-9.82,1.87-5.43,2.75-10.01,2.99-9.97,.22,.02-.31,4.74-2.2,10.23-.93,2.74-1.96,5.16-2.77,6.87-.81,1.71-1.39,2.73-1.49,2.69Z"/><path class="cls-9" d="M94.06,610.51s-.53-.53-1.37-1.59c-.93-1.19-2.11-2.7-3.51-4.5-2.95-3.81-7.03-9.08-11.6-14.84-4.57-5.76-8.77-10.93-11.82-14.67-1.44-1.78-2.64-3.27-3.59-4.44-.84-1.06-1.28-1.66-1.24-1.7,.04-.04,.57,.49,1.48,1.49,.92,.99,2.21,2.45,3.79,4.28,3.16,3.65,7.44,8.76,12.02,14.53,4.58,5.77,8.59,11.09,11.42,15,1.42,1.95,2.54,3.55,3.3,4.66,.76,1.12,1.16,1.75,1.11,1.78Z"/><path class="cls-9" d="M83.11,596.45c-.13,.14-3.06-3.32-4.59-8.59-1.13-3.71-1.18-7.11-1.04-8.66l.36,.03c-.16,.66-.28,1.01-.35,1-.06-.01-.07-.38-.01-1.06l.37,.03c.13,1.54,.37,4.82,1.47,8.42,1.48,5.1,4.02,8.68,3.8,8.82Z"/><path class="cls-9" d="M68.97,578.67c-.11,.11-1.05-1.07-3.2-1.86-2.14-.83-5.36-1.01-8.89-.71-3.54,.26-6.7,.89-8.96,1.45-2.26,.56-3.64,1-3.69,.88-.04-.1,1.28-.73,3.53-1.45,2.25-.71,5.45-1.44,9.05-1.71,3.57-.31,6.96-.03,9.17,.99,2.24,.99,3.06,2.38,2.98,2.4Z"/><path class="cls-9" d="M65.62,574.36c-.06,.13-1.87-.75-4.91-1.79-3.04-1.04-7.36-2.14-12.24-2.52-4.89-.36-9.33,.06-12.49,.63-3.16,.57-5.08,1.16-5.12,1.02-.02-.05,.44-.25,1.3-.55,.85-.32,2.12-.68,3.71-1.04,3.17-.73,7.69-1.26,12.66-.89,4.97,.39,9.36,1.6,12.38,2.8,1.51,.6,2.71,1.15,3.51,1.59,.8,.43,1.23,.69,1.2,.75Z"/><path class="cls-9" d="M93.95,556.13c-.22,.06-1.82-5.51-3.58-12.43-1.76-6.92-3-12.58-2.78-12.64,.22-.06,1.82,5.51,3.58,12.43,1.76,6.92,3,12.58,2.78,12.64Z"/><path class="cls-9" d="M94.18,556.13c-.25,.08-1.28-3.64-3.97-7.44-2.62-3.88-5.96-5.83-5.84-6.03,.04-.09,.97,.25,2.25,1.16,1.29,.9,2.89,2.42,4.26,4.39,2.79,3.96,3.49,7.9,3.29,7.92Z"/><path class="cls-9" d="M94.01,719.95c-.09,.01-.26-1.37-.9-3.8-.64-2.43-1.84-5.87-3.82-9.9-3.95-8.07-11.13-18.3-20.27-28.55-4.52-5.17-8.91-10.05-12.64-14.71-3.73-4.66-6.8-9.11-9.04-13.04-2.25-3.93-3.71-7.3-4.56-9.67-.42-1.19-.73-2.12-.9-2.77-.18-.64-.26-.98-.23-.99,.07-.02,.49,1.31,1.43,3.64,.94,2.33,2.47,5.63,4.77,9.49,2.29,3.86,5.38,8.24,9.13,12.85,3.74,4.62,8.14,9.47,12.67,14.65,9.15,10.28,16.32,20.64,20.17,28.84,1.93,4.09,3.06,7.6,3.61,10.07,.26,1.24,.44,2.2,.51,2.87,.08,.66,.11,1.01,.08,1.01Z"/><path class="cls-9" d="M139.14,668.97c.03,.06-.84,.5-2.37,1.33-1.52,.85-3.67,2.17-6.14,4.06-2.47,1.89-5.22,4.37-8.06,7.35-2.83,2.99-5.74,6.46-8.72,10.18-5.94,7.46-11.5,14.06-14.83,19.33-1.69,2.61-2.92,4.82-3.72,6.36-.81,1.54-1.24,2.41-1.3,2.38-.03-.01,.05-.24,.22-.67,.18-.43,.41-1.06,.79-1.85,.72-1.6,1.88-3.86,3.52-6.53,3.23-5.4,8.75-12.09,14.68-19.53,2.98-3.72,5.93-7.2,8.81-10.18,2.89-2.98,5.72-5.44,8.26-7.29,2.54-1.85,4.76-3.1,6.34-3.87,.78-.39,1.42-.64,1.85-.82,.43-.17,.66-.25,.67-.23Z"/><path class="cls-9" d="M140.03,685.51c.01,.12-1.91,.35-5,.73-3.08,.4-7.37,.91-11.86,2.34-4.47,1.46-8.19,3.68-10.62,5.57-2.45,1.89-3.6,3.46-3.72,3.36-.04-.03,.2-.45,.74-1.15,.53-.7,1.41-1.64,2.61-2.67,2.38-2.05,6.14-4.41,10.73-5.91,4.6-1.46,8.95-1.88,12.05-2.13,3.12-.23,5.05-.25,5.06-.14Z"/><path class="cls-9" d="M110.3,695.69c-.26-.15,1.99-3.59,3.74-8.22,1.64-4.67,2.02-8.77,2.32-8.72,.11,.01,.1,1.04-.08,2.68-.2,1.64-.59,3.92-1.46,6.32-.87,2.4-2.02,4.4-2.9,5.8-.89,1.39-1.52,2.2-1.62,2.14Z"/><path class="cls-9" d="M153.76,624.57s-.27,.17-.8,.43c-.62,.28-1.4,.64-2.35,1.07-1.03,.44-2.28,1-3.69,1.74-1.41,.73-3.06,1.48-4.78,2.51-.87,.5-1.78,1.01-2.73,1.55-.95,.54-1.88,1.19-2.88,1.81-2.01,1.22-4.02,2.72-6.18,4.26-4.21,3.19-8.63,6.97-12.89,11.34-4.22,4.41-7.85,8.96-10.89,13.27-1.46,2.2-2.89,4.27-4.04,6.32-.59,1.02-1.2,1.97-1.71,2.94-.51,.96-.99,1.89-1.46,2.78-.97,1.75-1.67,3.42-2.35,4.86-.69,1.43-1.21,2.7-1.62,3.74-.4,.97-.73,1.76-.99,2.38-.23,.54-.37,.82-.4,.81-.03,0,.06-.31,.24-.87,.22-.65,.5-1.45,.84-2.44,.36-1.06,.84-2.36,1.49-3.81,.64-1.46,1.3-3.16,2.25-4.94,.45-.9,.93-1.84,1.42-2.82,.5-.98,1.1-1.95,1.68-2.98,1.13-2.08,2.55-4.17,4.01-6.4,3.04-4.37,6.67-8.97,10.93-13.42,4.29-4.4,8.77-8.19,13.03-11.37,2.18-1.53,4.22-3.02,6.26-4.22,1.01-.62,1.96-1.25,2.92-1.78,.96-.53,1.89-1.03,2.77-1.51,1.74-1,3.42-1.72,4.86-2.41,1.43-.71,2.71-1.22,3.76-1.62,.98-.38,1.78-.68,2.41-.93,.55-.2,.85-.3,.86-.27Z"/><path class="cls-9" d="M118.04,648.5c-.07-.01,.32-1.4,1.96-2.93,1.6-1.52,4.52-2.93,7.91-3.04,3.39-.09,6.32,.86,8.33,1.63,2.02,.79,3.19,1.43,3.15,1.53-.05,.11-1.3-.34-3.34-.98-2.03-.62-4.9-1.44-8.11-1.35-3.2,.1-5.96,1.33-7.56,2.65-1.64,1.32-2.21,2.56-2.35,2.48Z"/><path class="cls-9" d="M112.7,654.01c-.23-.13,1.79-3.08,2.25-7.31,.53-4.22-.75-7.56-.5-7.63,.09-.04,.54,.74,.93,2.13,.39,1.38,.65,3.4,.4,5.6-.26,2.2-.98,4.1-1.67,5.36-.7,1.26-1.31,1.92-1.39,1.86Z"/></g><path class="cls-9" d="M54.53,728.14c1.23,21.84,7.81,44.06,17.94,66.52h44.03c9.66-22.24,15.78-44.42,16.87-66.52H54.53Z"/><path class="cls-3" d="M126.23,763.48c0,.23-14.5,.41-32.37,.41s-32.38-.18-32.38-.41,14.49-.41,32.38-.41,32.37,.18,32.37,.41Z"/><path class="cls-3" d="M125.25,771.4c0,.23-13.59,.41-30.35,.41s-30.35-.19-30.35-.41,13.59-.41,30.35-.41,30.35,.19,30.35,.41Z"/><path class="cls-3" d="M73.18,742.48c.23,0,.41,4.54,.41,10.14s-.19,10.14-.41,10.14-.41-4.54-.41-10.14,.19-10.14,.41-10.14Z"/><path class="cls-3" d="M96.77,742.48c.23,0,.41,4.7,.41,10.5s-.18,10.5-.41,10.5-.41-4.7-.41-10.5,.18-10.5,.41-10.5Z"/><path class="cls-3" d="M118.92,742.3c.23,0,.41,4.8,.41,10.71s-.18,10.71-.41,10.71-.41-4.8-.41-10.71,.18-10.71,.41-10.71Z"/><path class="cls-3" d="M131.97,742.48c0,.23-17,.41-37.97,.41s-37.97-.18-37.97-.41,17-.41,37.97-.41,37.97,.19,37.97,.41Z"/></g><path class="cls-16" d="M821.58,792.93c0,.26-181.03,.48-404.29,.48s-404.33-.21-404.33-.48,180.99-.48,404.33-.48,404.29,.21,404.29,.48Z"/><g><g><g><g><path class="cls-9" d="M680.08,689.39l-422.65,6.32c-10.26,.15-18.7-8.04-18.85-18.3L229.37,61.94c-.15-10.26,8.04-18.7,18.3-18.85l422.65-6.32c10.26-.15,18.7,8.04,18.85,18.3l9.2,615.47c.15,10.26-8.04,18.7-18.3,18.85Z"/><path class="cls-16" d="M680.08,689.39s.48-.05,1.42-.12c.94-.08,2.34-.31,4.13-.87,1.76-.61,3.89-1.62,6.03-3.39,2.1-1.77,4.2-4.35,5.46-7.76,.67-1.69,1.03-3.61,1.12-5.63,.08-2.03-.04-4.19-.05-6.44-.07-4.51-.15-9.44-.24-14.78-.17-10.68-.37-23-.59-36.87-.86-55.49-2.11-135.78-3.66-234.98-.76-49.61-1.59-103.94-2.48-162.27-.44-29.17-.9-59.33-1.37-90.4-.24-15.54-.47-31.3-.72-47.27-.13-7.98-.26-16.02-.39-24.11-.14-3.97-1.72-7.84-4.26-10.9-2.6-3.01-6.17-5.23-10.11-6.03-1.97-.42-3.97-.43-6.04-.37-2.06,.03-4.11,.06-6.18,.09-4.12,.06-8.26,.13-12.41,.19-8.3,.13-16.65,.25-25.04,.38-16.79,.25-33.78,.51-50.94,.77-34.33,.52-69.38,1.05-105.07,1.58-71.37,1.07-145.26,2.18-220.95,3.31-4.63,.05-9.19,1.95-12.46,5.19-3.3,3.21-5.29,7.72-5.42,12.31,.05,9.36,.26,18.77,.37,28.11,.28,18.69,.56,37.26,.83,55.69,.55,36.87,1.09,73.19,1.62,108.89,1.06,71.39,2.08,140.25,3.05,205.84,.97,65.59,1.89,127.93,2.74,186.26,.11,7.29,.21,14.52,.32,21.69,.07,3.58,.06,7.17,.2,10.68,.17,3.48,1.42,6.87,3.44,9.66,2.03,2.8,4.86,4.96,8.03,6.24,1.6,.62,3.27,1.01,4.96,1.19,1.69,.12,3.42,.06,5.15,.04,6.9-.1,13.74-.2,20.51-.3,27.08-.4,53.06-.77,77.86-1.14,99.21-1.42,179.49-2.58,234.97-3.37,27.74-.38,49.27-.67,63.89-.87,7.3-.09,12.86-.16,16.61-.2,3.74-.04,5.66-.04,5.66-.04,0,0-1.92,.06-5.66,.13-3.75,.07-9.32,.16-16.61,.29-14.61,.24-36.15,.59-63.88,1.04-55.49,.86-135.77,2.11-234.97,3.66-24.8,.38-50.79,.78-77.86,1.19-6.77,.1-13.61,.21-20.51,.31-1.72,.02-3.45,.09-5.23-.04-1.76-.19-3.49-.59-5.15-1.23-3.3-1.32-6.24-3.57-8.35-6.47-2.11-2.89-3.41-6.42-3.58-10.03-.14-3.58-.13-7.12-.2-10.71-.11-7.17-.22-14.39-.33-21.69-.89-58.33-1.83-120.67-2.83-186.26-.99-65.59-2.03-134.45-3.1-205.84-.54-35.69-1.08-72.02-1.64-108.89-.28-18.43-.55-37-.83-55.69-.12-9.36-.33-18.7-.37-28.15,.13-4.82,2.22-9.55,5.68-12.92,3.44-3.4,8.22-5.39,13.07-5.45,75.68-1.13,149.58-2.23,220.95-3.3,35.68-.53,70.74-1.05,105.07-1.56,17.17-.25,34.15-.51,50.94-.75,8.4-.12,16.74-.25,25.04-.37,4.15-.06,8.29-.12,12.41-.18,2.06-.03,4.12-.06,6.18-.09,2.03-.06,4.17-.05,6.22,.39,4.12,.84,7.85,3.15,10.57,6.3,2.66,3.19,4.31,7.24,4.45,11.38,.13,8.1,.26,16.15,.39,24.14,.24,15.98,.47,31.74,.7,47.28,.46,31.07,.9,61.23,1.33,90.4,.85,58.33,1.65,112.67,2.37,162.27,1.42,99.21,2.58,179.49,3.37,234.99,.19,13.87,.36,26.19,.51,36.87,.07,5.34,.14,10.27,.2,14.78,0,2.26,.11,4.4,.03,6.45-.1,2.04-.48,3.98-1.15,5.69-1.29,3.45-3.42,6.03-5.54,7.81-2.16,1.77-4.31,2.77-6.08,3.37-1.8,.54-3.21,.76-4.15,.82-.95,.05-1.43,.07-1.43,.07Z"/></g><g class="cls-10"><polygon points="282.23 679.13 667.76 671.25 671.07 596.69 658.58 551.94 277.8 617.29 282.23 679.13"/></g></g><g><path class="cls-16" d="M680.08,689.39s.48-.05,1.42-.12c.94-.08,2.34-.31,4.13-.87,1.76-.61,3.89-1.62,6.03-3.39,2.1-1.77,4.2-4.35,5.46-7.76,.67-1.69,1.03-3.61,1.12-5.63,.08-2.03-.04-4.19-.05-6.44-.07-4.51-.15-9.44-.24-14.78-.17-10.68-.37-23-.59-36.87-.86-55.49-2.11-135.78-3.66-234.98-.76-49.61-1.59-103.94-2.48-162.27-.44-29.17-.9-59.33-1.37-90.4-.24-15.54-.47-31.3-.72-47.27-.13-7.98-.26-16.02-.39-24.11-.14-3.97-1.72-7.84-4.26-10.9-2.6-3.01-6.17-5.23-10.11-6.03-1.97-.42-3.97-.43-6.04-.37-2.06,.03-4.11,.06-6.18,.09-4.12,.06-8.26,.13-12.41,.19-8.3,.13-16.65,.25-25.04,.38-16.79,.25-33.78,.51-50.94,.77-34.33,.52-69.38,1.05-105.07,1.58-71.37,1.07-145.26,2.18-220.95,3.31-4.63,.05-9.19,1.95-12.46,5.19-3.3,3.21-5.29,7.72-5.42,12.31,.05,9.36,.26,18.77,.37,28.11,.28,18.69,.56,37.26,.83,55.69,.55,36.87,1.09,73.19,1.62,108.89,1.06,71.39,2.08,140.25,3.05,205.84,.97,65.59,1.89,127.93,2.74,186.26,.11,7.29,.21,14.52,.32,21.69,.07,3.58,.06,7.17,.2,10.68,.17,3.48,1.42,6.87,3.44,9.66,2.03,2.8,4.86,4.96,8.03,6.24,1.6,.62,3.27,1.01,4.96,1.19,1.69,.12,3.42,.06,5.15,.04,6.9-.1,13.74-.2,20.51-.3,27.08-.4,53.06-.77,77.86-1.14,99.21-1.42,179.49-2.58,234.97-3.37,27.74-.38,49.27-.67,63.89-.87,7.3-.09,12.86-.16,16.61-.2,3.74-.04,5.66-.04,5.66-.04,0,0-1.92,.06-5.66,.13-3.75,.07-9.32,.16-16.61,.29-14.61,.24-36.15,.59-63.88,1.04-55.49,.86-135.77,2.11-234.97,3.66-24.8,.38-50.79,.78-77.86,1.19-6.77,.1-13.61,.21-20.51,.31-1.72,.02-3.45,.09-5.23-.04-1.76-.19-3.49-.59-5.15-1.23-3.3-1.32-6.24-3.57-8.35-6.47-2.11-2.89-3.41-6.42-3.58-10.03-.14-3.58-.13-7.12-.2-10.71-.11-7.17-.22-14.39-.33-21.69-.89-58.33-1.83-120.67-2.83-186.26-.99-65.59-2.03-134.45-3.1-205.84-.54-35.69-1.08-72.02-1.64-108.89-.28-18.43-.55-37-.83-55.69-.12-9.36-.33-18.7-.37-28.15,.13-4.82,2.22-9.55,5.68-12.92,3.44-3.4,8.22-5.39,13.07-5.45,75.68-1.13,149.58-2.23,220.95-3.3,35.68-.53,70.74-1.05,105.07-1.56,17.17-.25,34.15-.51,50.94-.75,8.4-.12,16.74-.25,25.04-.37,4.15-.06,8.29-.12,12.41-.18,2.06-.03,4.12-.06,6.18-.09,2.03-.06,4.17-.05,6.22,.39,4.12,.84,7.85,3.15,10.57,6.3,2.66,3.19,4.31,7.24,4.45,11.38,.13,8.1,.26,16.15,.39,24.14,.24,15.98,.47,31.74,.7,47.28,.46,31.07,.9,61.23,1.33,90.4,.85,58.33,1.65,112.67,2.37,162.27,1.42,99.21,2.58,179.49,3.37,234.99,.19,13.87,.36,26.19,.51,36.87,.07,5.34,.14,10.27,.2,14.78,0,2.26,.11,4.4,.03,6.45-.1,2.04-.48,3.98-1.15,5.69-1.29,3.45-3.42,6.03-5.54,7.81-2.16,1.77-4.31,2.77-6.08,3.37-1.8,.54-3.21,.76-4.15,.82-.95,.05-1.43,.07-1.43,.07Z"/><g class="cls-10"><polygon points="282.23 679.13 667.76 671.25 671.07 596.69 658.58 551.94 277.8 617.29 282.23 679.13"/></g></g><g><rect class="cls-1" x="257.19" y="66.18" width="413.3" height="595.58" transform="translate(-5.39 6.98) rotate(-.86)"/><path class="cls-16" d="M674.92,658.64c-.05-3.43-3.81-244.06-9.29-595.51l.39,.38c-125.35,1.89-265.58,4-413.21,6.22h-.05l.42-.43c3.31,223.64,6.37,430.25,8.82,595.52l-.35-.34c251.35-3.55,410.47-5.8,413.26-5.84-2.79,.04-161.9,2.55-413.25,6.52h-.34v-.34c-2.5-165.27-5.62-371.88-8.99-595.51v-.42h.46c147.63-2.2,287.86-4.29,413.21-6.15h.39v.38c5.03,351.45,8.48,592.09,8.53,595.52Z"/></g><rect class="cls-9" x="278.73" y="213.97" width="90.39" height="19.14" transform="translate(-3.31 4.87) rotate(-.86)"/><rect class="cls-5" x="379.39" y="170.07" width="181.19" height="19.14" transform="translate(-2.63 7.05) rotate(-.86)"/><rect class="cls-5" x="277.22" y="171.91" width="86.19" height="19.14" transform="translate(-2.68 4.81) rotate(-.86)"/><rect class="cls-5" x="570.93" y="168" width="65.57" height="19.14" transform="translate(-2.59 9.05) rotate(-.86)"/><rect class="cls-9" x="504.64" y="491.66" width="116.55" height="21.8" transform="translate(-7.45 8.47) rotate(-.86)"/><rect class="cls-9" x="279.06" y="259.95" width="357.54" height="21.8" transform="translate(-4 6.88) rotate(-.86)"/><path class="cls-16" d="M630.45,307.03c0,.26-77.03,1.63-172.03,3.05-95.04,1.42-172.06,2.36-172.06,2.09,0-.26,77.01-1.63,172.05-3.05,95-1.42,172.04-2.36,172.05-2.09Z"/><path class="cls-16" d="M555.89,150.45c0,.26-43.19,1.13-96.47,1.92-53.3,.8-96.49,1.23-96.5,.96,0-.26,43.18-1.12,96.48-1.92,53.28-.8,96.48-1.23,96.49-.96Z"/><path class="cls-16" d="M630.74,325.95c0,.26-77.03,1.63-172.03,3.05-95.04,1.42-172.06,2.36-172.06,2.09,0-.26,77.01-1.63,172.05-3.05,95-1.42,172.04-2.36,172.05-2.09Z"/><path class="cls-16" d="M631.02,344.87c0,.26-77.03,1.63-172.03,3.05-95.04,1.42-172.06,2.36-172.06,2.09,0-.26,77.01-1.63,172.05-3.05,95-1.42,172.04-2.36,172.05-2.09Z"/><path class="cls-16" d="M440.68,366.65c0,.26-34.35,.99-76.72,1.63-42.39,.63-76.74,.93-76.74,.67,0-.26,34.34-.99,76.73-1.63,42.37-.63,76.73-.93,76.74-.67Z"/><path class="cls-16" d="M631.58,382.72c0,.26-77.03,1.63-172.03,3.05-95.04,1.42-172.06,2.36-172.06,2.09,0-.26,77.01-1.63,172.05-3.05,95-1.42,172.04-2.36,172.05-2.09Z"/><path class="cls-16" d="M631.87,401.64c0,.26-77.03,1.63-172.03,3.05-95.04,1.42-172.06,2.36-172.06,2.09,0-.26,77.01-1.63,172.05-3.05,95-1.42,172.04-2.36,172.05-2.09Z"/><path class="cls-16" d="M563.81,421.59c0,.26-61.73,1.4-137.86,2.54-76.16,1.14-137.89,1.85-137.89,1.58,0-.26,61.71-1.4,137.88-2.54,76.14-1.14,137.87-1.85,137.88-1.58Z"/><path class="cls-16" d="M632.43,439.49c0,.26-77.03,1.63-172.03,3.05-95.04,1.42-172.06,2.36-172.06,2.09,0-.26,77.01-1.63,172.05-3.05,95-1.42,172.04-2.36,172.05-2.09Z"/><path class="cls-16" d="M632.72,458.41c0,.26-77.03,1.63-172.03,3.05-95.04,1.42-172.06,2.36-172.06,2.09,0-.26,77.01-1.63,172.05-3.05,95-1.42,172.04-2.36,172.05-2.09Z"/><g><path class="cls-16" d="M369.65,23.51h199.27c3.49,0,6.33,2.83,6.33,6.33v55.14h-211.92V29.84c0-3.49,2.83-6.33,6.33-6.33Z" transform="translate(-.76 7.02) rotate(-.86)"/><polygon class="cls-16" points="495.45 0 441.52 .81 448.51 46.94 489.14 46.33 495.45 0"/><path class="cls-13" d="M561.16,22.14c0,.25-41.34,1.06-92.32,1.83-51.01,.76-92.34,1.18-92.35,.94,0-.25,41.33-1.06,92.33-1.83,50.99-.76,92.33-1.18,92.34-.94Z"/><path class="cls-13" d="M368.39,76.57c-.25,0-.57-8.69-.74-19.41-.16-10.73-.09-19.42,.15-19.42,.25,0,.57,8.69,.74,19.41,.16,10.72,.09,19.42-.15,19.42Z"/><path class="cls-13" d="M568.62,68.98c-.25,0-.56-7.89-.71-17.62-.15-9.74-.06-17.63,.18-17.64,.25,0,.56,7.88,.71,17.62,.15,9.73,.06,17.63-.18,17.63Z"/><path class="cls-13" d="M558.52,77.31c0,.25-42.43,1.08-94.77,1.86-52.36,.78-94.79,1.22-94.79,.97,0-.25,42.42-1.08,94.78-1.86,52.34-.78,94.78-1.22,94.78-.97Z"/></g><g class="cls-10"><polygon points="575.04 39.52 584.2 65.4 584.39 78.14 574.5 78.29 575.04 39.52"/></g></g><g class="cls-10"><path d="M329.65,571.61l1.63,22.3s49.6,.71,72.48-2.89l-.55,14.02,49.73-41.77-66.19-2.6-57.1,10.95Z"/></g><g><path class="cls-14" d="M322.1,589.01l-2.97-59.88c30.57,6.84,61.94,10.48,98.2,7.33l2.54,50.67c-32.49,3.07-65.08,4.57-97.77,1.89Z"/><polygon class="cls-14" points="406.6 561.44 406.46 522.48 430.94 541.87 455.42 561.27 431.08 580.83 406.73 600.39 406.6 561.44"/></g><path class="cls-16" d="M611.25,539.62s.33,.02,.97,.11c.68,.1,1.62,.24,2.83,.42,2.48,.41,6.17,.97,10.78,2.3,2.3,.67,4.83,1.55,7.45,2.87,2.62,1.29,5.33,3.07,7.74,5.5,2.42,2.41,4.61,5.49,5.86,9.2,1.26,3.69,1.33,8.1-.3,12.15-1.6,4.07-4.63,7.64-8.25,10.62-3.64,2.99-7.87,5.51-12.4,7.7-8.99,4.56-19.1,8.44-30.1,11.21-21.94,5.52-47.63,6.37-73-.27-3.17-.82-6.27-1.8-9.35-2.78-3.06-1.05-6.06-2.27-8.89-3.78-2.83-1.51-5.52-3.27-7.85-5.45-2.31-2.18-4.23-4.79-5.44-7.71-1.2-2.92-1.59-6.12-1.3-9.18,.3-3.07,1.24-6.02,2.58-8.71,2.69-5.42,7.14-9.58,11.86-12.73,4.76-3.15,9.82-5.47,14.79-7.47,4.95-2.09,9.91-3.72,14.72-5.21,9.67-2.84,18.94-4.53,27.46-5.44,8.52-.9,16.29-1.04,23.08-.75,6.79,.36,12.63,.97,17.34,1.77,2.37,.32,4.45,.8,6.26,1.14,1.81,.33,3.32,.71,4.55,1.02,1.19,.3,2.11,.53,2.78,.7,.62,.16,.94,.27,.94,.27,0,0-.33-.04-.96-.17-.67-.14-1.6-.35-2.8-.61-1.23-.28-2.74-.63-4.56-.93-1.81-.31-3.89-.76-6.26-1.05-4.72-.74-10.54-1.29-17.31-1.6-6.77-.23-14.51-.05-22.99,.89-8.47,.95-17.69,2.66-27.3,5.52-4.78,1.5-9.71,3.13-14.62,5.23-4.94,2-9.95,4.33-14.62,7.43-4.63,3.1-8.94,7.16-11.53,12.4-2.63,5.14-3.56,11.53-1.23,17.13,1.15,2.77,2.99,5.26,5.22,7.37,2.25,2.1,4.87,3.82,7.65,5.3,2.78,1.48,5.73,2.68,8.76,3.72,3.05,.97,6.14,1.94,9.28,2.76,25.2,6.6,50.72,5.78,72.54,.34,10.93-2.73,21-6.56,29.95-11.06,4.52-2.16,8.7-4.64,12.29-7.56,3.57-2.92,6.52-6.39,8.09-10.3,1.59-3.9,1.55-8.13,.35-11.72-1.18-3.61-3.3-6.64-5.66-9.02-4.77-4.82-10.42-6.99-14.92-8.39-4.57-1.37-8.24-1.99-10.7-2.46-1.21-.22-2.14-.39-2.82-.52-.63-.12-.96-.2-.96-.2Z"/></g><g><g><path class="cls-16" d="M725.73,726.57s-9.6-66-8.8-104.41c.8-38.4-.05-81.6-.05-81.6h4.42s-3,76.22,.26,122.2c3.26,45.94,11.84,63.81,11.84,63.81h-7.68"/><path class="cls-14" d="M754.33,466.3c-.89-2.25-1.98-4.6-4.03-5.9-2.81-1.78-6.49-1.04-9.62,.07-13.37,4.73-25.22,29.65-30.62,42.76l17.75,59.79c32.03-29.72,37.58-68.7,26.52-96.72Z"/><path class="cls-16" d="M749.26,462.82s-.07,.28-.26,.78c-.23,.57-.52,1.29-.87,2.18-.78,1.88-1.87,4.62-3.17,8.01-2.61,6.79-5.94,16.28-8.92,26.98-2.96,10.7-5.01,20.55-6.26,27.72-.63,3.58-1.11,6.49-1.41,8.5-.15,.94-.28,1.71-.38,2.31-.09,.53-.16,.8-.18,.8s-.01-.29,.04-.82c.06-.61,.14-1.39,.24-2.33,.22-2.03,.61-4.95,1.18-8.55,1.13-7.2,3.1-17.1,6.07-27.83,2.98-10.72,6.4-20.22,9.14-26.97,1.37-3.38,2.53-6.09,3.39-7.94,.4-.86,.73-1.57,1-2.13,.23-.48,.37-.73,.39-.72Z"/><path class="cls-14" d="M719.92,577.35c-16.63-9.19-26.44-26.48-27.35-45.46-.64-13.27,3.44-26.29,8.06-38.75,.4-1.08,.88-2.24,1.88-2.81,1.39-.79,3.14-.09,4.53,.71,12.09,6.88,19.41,20,23.31,33.36,2.59,8.88,3.94,18.25,2.74,27.43-1.2,9.18-6.45,19.16-13.16,25.53"/><path class="cls-16" d="M719.92,577.35s-.05-.28-.07-.8c-.01-.61-.03-1.36-.04-2.3,0-1.99-.09-4.87-.25-8.43-.32-7.11-1.25-16.91-3.09-27.62-1.85-10.71-4.08-20.3-5.73-27.23-.81-3.39-1.48-6.17-1.97-8.21-.21-.91-.38-1.65-.51-2.24-.11-.51-.15-.79-.13-.79s.12,.25,.27,.76c.17,.58,.38,1.31,.64,2.2,.55,1.92,1.3,4.7,2.2,8.16,1.78,6.9,4.1,16.49,5.95,27.23,1.84,10.74,2.7,20.59,2.88,27.73,.1,3.57,.1,6.46,.02,8.45-.04,.93-.07,1.69-.09,2.3-.03,.52-.06,.8-.08,.8Z"/><g class="cls-10"><path d="M719.92,577.35c-16.63-9.19-26.44-26.48-27.35-45.46-.64-13.27,3.44-26.29,8.06-38.75,.4-1.08,.88-2.24,1.88-2.81,1.39-.79,3.14-.09,4.53,.71,12.09,6.88,19.41,20,23.31,33.36,2.59,8.88,3.94,18.25,2.74,27.43-1.2,9.18-6.45,19.16-13.16,25.53"/></g><path class="cls-14" d="M738.69,678.34c16.37,3.6,29.85,15.14,45.64,20.76,10.45,3.71,22.27,5.03,30.61,12.34-2-5.05-6.75-8.42-11.36-11.3-12.99-8.11-26.9-14.75-41.37-19.75-7.43-2.57-15.49-4.71-23.06-2.6"/><path class="cls-14" d="M715.02,692.93c-20.5-.33-42.09-17.79-62.5-18.83,21.36-6.9,51.93-1.26,62.5,18.83"/><path class="cls-14" d="M723.03,643.75c10.41-3.75,21.84-3.93,32.78-2.23,10.94,1.7,21.5,5.21,32,8.7-1.05-7.11-6.81-12.46-12.22-17.2-4.07-3.56-8.18-7.15-12.85-9.88-4.67-2.73-10-4.58-15.41-4.35-6.52,.28-12.73,3.64-17.01,8.57-4.28,4.93-6.58,9.89-7.28,16.38"/><path class="cls-14" d="M680.95,621.11c-12.91-11.02-32.45-9.94-49.42-9.56,26.08,12.47,54.18,29.56,76.64,47.76,.69-11.99-10.92-24.28-27.22-38.2Z"/><g class="cls-10"><path d="M680.95,621.11c-12.91-11.02-32.45-9.94-49.42-9.56,26.08,12.47,54.18,29.56,76.64,47.76,.69-11.99-10.92-24.28-27.22-38.2Z"/></g><path class="cls-14" d="M728.83,605.9c6.49-4.33,13.05-8.45,19.85-11.54,6.79-3.09,13.13-8,19.69-11.56,8.51-4.61,15.88-11.01,23.69-16.72,7.81-5.71,16.39-10.87,25.94-12.38-7.79-1.61-15.93-.73-23.61,1.37-7.68,2.1-14.97,5.38-22.22,8.64-10.07,4.54-20.31,9.18-28.54,16.54-8.23,7.36-15.67,14.63-14.8,25.64"/><path class="cls-16" d="M783.96,692.93s-.24-.08-.65-.28c-.48-.25-1.07-.56-1.79-.93-1.54-.82-3.76-2.04-6.55-3.44-1.38-.73-2.91-1.49-4.57-2.27-1.64-.82-3.43-1.62-5.32-2.44-3.79-1.62-8.01-3.3-12.62-4.4-4.6-1.13-9.18-1.38-13.15-.33-2.01,.48-3.89,.96-5.57,1.66-1.69,.68-3.19,1.48-4.5,2.31-2.63,1.65-4.46,3.41-5.65,4.67-1.19,1.27-1.77,2.05-1.82,2.01-.02-.01,.11-.22,.37-.6,.26-.38,.67-.93,1.24-1.6,1.14-1.33,2.94-3.17,5.58-4.91,1.32-.87,2.84-1.71,4.55-2.44,1.71-.74,3.64-1.25,5.65-1.76,4.06-1.11,8.82-.87,13.48,.27,4.68,1.11,8.93,2.83,12.73,4.49,1.9,.84,3.68,1.67,5.32,2.51,1.66,.81,3.18,1.6,4.55,2.36,2.77,1.47,4.95,2.75,6.45,3.65,.69,.42,1.26,.76,1.72,1.05,.39,.25,.59,.39,.58,.41Z"/><path class="cls-16" d="M699.73,682.77s.47,.09,1.28,.38c.82,.28,1.96,.77,3.34,1.45,2.76,1.36,6.39,3.68,9.8,6.95,3.4,3.28,5.86,6.81,7.33,9.51,.74,1.35,1.28,2.48,1.58,3.28,.32,.8,.47,1.25,.43,1.27-.12,.05-.88-1.68-2.46-4.29-1.57-2.6-4.05-6.02-7.39-9.24-3.35-3.21-6.87-5.55-9.53-7.02-2.66-1.47-4.43-2.17-4.38-2.29Z"/><path class="cls-16" d="M654.36,620.08s.31,.07,.87,.26c.63,.23,1.45,.52,2.46,.88,1.09,.4,2.39,.88,3.88,1.43,1.51,.56,3.15,1.39,5.01,2.21,7.38,3.35,17.2,8.99,26.69,17.01,4.68,4.07,8.91,8.21,12.45,12.26,3.52,4.05,6.51,7.87,8.83,11.19,2.34,3.32,4.12,6.08,5.33,7.99,.58,.9,1.04,1.63,1.4,2.2,.32,.5,.48,.78,.45,.79-.02,.01-.22-.23-.58-.71-.36-.48-.88-1.19-1.52-2.13-1.29-1.86-3.13-4.58-5.51-7.84-2.37-3.28-5.38-7.04-8.92-11.05-3.55-4-7.77-8.1-12.42-12.15-9.43-7.97-19.14-13.64-26.44-17.09-1.84-.84-3.46-1.7-4.95-2.3-1.47-.59-2.75-1.11-3.82-1.54-.99-.41-1.79-.74-2.41-1-.55-.24-.83-.37-.82-.4Z"/><path class="cls-16" d="M753.79,632.22s-.6-.03-1.63-.21c-.56-.1-1.19-.22-1.88-.35-.73-.14-1.59-.15-2.52-.24-3.69-.27-9.06,.04-14.09,2.78-2.54,1.28-4.67,3.02-6.41,4.76-1.77,1.73-3.11,3.52-4.12,5.1-2.06,3.15-2.69,5.42-2.82,5.38-.04-.01,.07-.59,.42-1.6,.38-.99,.96-2.43,1.96-4.05,.97-1.64,2.3-3.5,4.08-5.3,1.76-1.81,3.93-3.61,6.55-4.93,5.19-2.83,10.75-3.06,14.48-2.65,.94,.13,1.81,.17,2.54,.35,.69,.17,1.32,.33,1.88,.47,1.03,.27,1.59,.44,1.57,.49Z"/><path class="cls-16" d="M774.4,568.3s-.26,.19-.78,.48c-.59,.32-1.35,.73-2.29,1.24-1.99,1.07-4.85,2.65-8.33,4.7-3.46,2.08-7.54,4.63-11.88,7.73-4.33,3.11-8.97,6.72-13.26,11.11-2.12,2.21-4.06,4.51-5.42,7.02-1.34,2.58-2.63,5.07-3.81,7.46-2.37,4.78-4.3,9.18-5.7,12.97-1.39,3.78-2.26,6.94-2.77,9.13-.52,2.19-.71,3.43-.79,3.42-.02,0,0-.32,.08-.91,.07-.59,.2-1.46,.43-2.57,.43-2.22,1.23-5.42,2.56-9.25,1.34-3.83,3.23-8.28,5.58-13.09,1.17-2.41,2.44-4.91,3.78-7.5,1.41-2.62,3.39-4.96,5.53-7.2,4.34-4.44,9.03-8.06,13.4-11.15,4.38-3.09,8.5-5.6,12.01-7.62,3.52-2,6.43-3.51,8.46-4.51,.97-.46,1.75-.83,2.35-1.12,.54-.25,.83-.37,.84-.35Z"/><path class="cls-16" d="M716.91,630.38c-.05,0-.19-.61-.41-1.73-.24-1.26-.54-2.85-.9-4.74-.78-3.99-1.97-9.49-3.88-15.38-1.88-5.91-4.18-11.04-5.86-14.75-.8-1.75-1.47-3.22-2-4.39-.47-1.04-.7-1.63-.66-1.65,.05-.02,.37,.52,.91,1.52,.54,1,1.31,2.46,2.21,4.29,1.8,3.66,4.18,8.79,6.08,14.75,1.92,5.94,3.04,11.49,3.69,15.52,.32,2.02,.55,3.65,.67,4.79,.13,1.13,.18,1.76,.13,1.77Z"/><path class="cls-14" d="M715.43,583.73c-.51-7.75-3.04-15.27-6.67-22.13-9.95-18.81-28.65-32.76-49.52-36.93,15.28,22.78,30.57,45.56,45.85,68.34l5.92,12.2c4.04-6.63,4.94-13.72,4.42-21.47Z"/></g><g><rect class="cls-11" x="674.58" y="718.41" width="106.61" height="18.9"/><polygon class="cls-11" points="682.54 733.56 691.62 792.19 762.4 792.19 773.23 733.56 682.54 733.56"/><path class="cls-16" d="M781.13,737.33c0,.21-24.05,.37-53.71,.37s-53.71-.17-53.71-.37,24.04-.37,53.71-.37,53.71,.17,53.71,.37Z"/></g></g><g><g><path class="cls-1" d="M118.57,216.78l-3.58-13.26c4.57-7.54,6.95-16.55,6.25-26.14-1.58-21.64-19.15-39.19-40.79-40.72-27.19-1.92-49.52,20.75-47.2,47.91,1.87,21.78,19.92,39.14,41.75,40.2,11.16,.55,21.45-3.06,29.49-9.39v.02l14.08,1.39Z"/><path class="cls-16" d="M118.57,216.78s-.34-.05-.95-.13c-.66-.08-1.56-.18-2.72-.31-2.41-.27-5.89-.65-10.41-1.15l.14,.33v-.02c.08-.09,.07-.22-.02-.29-.08-.06-.18-.05-.25,0-4.45,3.44-11.05,7.19-19.69,8.65-4.29,.76-9.06,.81-14.01,.05-4.94-.75-10.08-2.41-14.93-5.18-4.85-2.75-9.41-6.6-13.11-11.43-3.7-4.82-6.54-10.62-7.98-16.97-2.94-12.65,.18-27.64,9.77-38.37l1.8-2,1.97-1.82c1.25-1.27,2.78-2.21,4.15-3.32,2.94-1.94,5.99-3.69,9.24-4.86,6.44-2.48,13.3-3.35,19.82-2.76,6.52,.64,12.66,2.73,17.93,5.83,5.27,3.09,9.67,7.16,13.01,11.65,6.72,9.04,9.1,19.49,8.66,28.17-.39,8.76-3.3,15.77-6.17,20.58,0,.06-.01,.1-.02,.16,1.2,4.23,2.12,7.5,2.76,9.76,.31,1.09,.56,1.93,.74,2.55,.17,.58,.27,.89,.27,.89,.01,.01-.05-.27-.19-.83-.15-.61-.36-1.45-.63-2.52-.59-2.31-1.45-5.65-2.56-9.97l-.02,.16c2.97-4.81,5.98-11.87,6.45-20.75,.52-8.79-1.83-19.44-8.64-28.68-3.38-4.59-7.85-8.75-13.22-11.92-5.36-3.17-11.63-5.33-18.28-5.99-6.65-.62-13.66,.27-20.25,2.79-3.32,1.2-6.44,2.98-9.45,4.96-1.4,1.13-2.96,2.09-4.24,3.39l-2.01,1.86-1.84,2.04c-9.8,10.97-12.98,26.3-9.94,39.21,1.49,6.48,4.4,12.4,8.19,17.3,3.79,4.91,8.45,8.82,13.4,11.6,4.96,2.79,10.2,4.46,15.22,5.2,5.03,.74,9.87,.66,14.22-.14,8.76-1.54,15.4-5.42,19.84-8.95l-.29-.28v.02c-.08,.09-.07,.22,.02,.29,.03,.02,.07,.04,.11,.04,4.59,.4,8.12,.7,10.57,.91,1.14,.09,2.02,.16,2.67,.22,.59,.05,.89,.06,.87,.05Z"/></g><polygon class="cls-14" points="76.37 202.02 53.16 186.5 58.58 178.4 74.14 188.81 93.51 163.18 101.28 169.06 76.37 202.02"/></g><g><g><g><g><path class="cls-16" d="M222.3,736.47l-2.67,36.54s38.35,14.84,38.55,21.64l-75.05-2.35,1.69-57.1,37.48,1.27Z"/><path class="cls-9" d="M196.54,769.21c-1.47,.33-2.52,1.84-2.23,3.24,.29,1.4,1.91,2.43,3.38,2.12,1.47-.31,2.8-2.09,2.35-3.45-.45-1.36-2.42-2.47-3.77-1.84"/><path class="cls-13" d="M183.14,792.31l.41-5.75,71.81,4.4s3.29,1.48,2.84,3.7l-75.05-2.35Z"/><path class="cls-1" d="M220.87,772.69c-.02,.35-1.86,.45-3.7,1.5-1.87,1.01-2.85,2.49-3.19,2.34-.34-.08,.28-2.13,2.54-3.38,2.24-1.26,4.44-.78,4.35-.46Z"/><path class="cls-1" d="M228.63,776.02c.07,.34-1.54,.88-2.83,2.31-1.34,1.39-1.71,2.97-2.07,2.94-.35,.04-.53-2,1.12-3.74,1.63-1.76,3.79-1.84,3.79-1.51Z"/><path class="cls-1" d="M232.79,785.08c-.34,.06-.78-1.69,.22-3.56,.99-1.88,2.75-2.57,2.89-2.28,.2,.29-.95,1.28-1.75,2.82-.84,1.53-1,2.99-1.36,3.01Z"/><path class="cls-1" d="M220.5,764.3c-.16,.31-1.83-.22-3.91-.15-2.08,.03-3.71,.64-3.89,.33-.2-.26,1.42-1.49,3.86-1.54,2.45-.07,4.13,1.09,3.94,1.36Z"/></g><g><path class="cls-16" d="M132.74,735.88l-2.21,44.27,8.92,35.49c.64,2.56-1.14,5.1-3.88,5.53h0c-1.53,.24-3.09-.22-4.18-1.27-6.98-6.65-32.51-31.23-32.16-34.46,.41-3.74-.94-46.84-.94-46.84l34.46-2.72Z"/><path class="cls-13" d="M135.57,821.17l-36.27-38.72-.05,1.88c-.04,1.62,.52,3.21,1.6,4.47,2.89,3.37,11.08,12.53,30.39,31.1,1.12,1.08,2.75,1.56,4.32,1.27h0Z"/><g class="cls-4"><path class="cls-1" d="M109.28,768.38c1.15,.79,1.49,2.48,.7,3.61-.79,1.12-2.6,1.46-3.77,.69-1.17-.77-1.64-2.79-.72-3.82,.92-1.03,3.07-1.32,4.01-.31"/></g><path class="cls-1" d="M125.37,801.57c.26,.13,1.38-2.17,4.19-3.35,2.78-1.26,5.35-.58,5.41-.85,.04-.11-.54-.47-1.63-.64-1.08-.18-2.67-.07-4.21,.61-1.54,.68-2.66,1.75-3.22,2.65-.57,.9-.66,1.55-.54,1.59Z"/><path class="cls-1" d="M128.55,807.58c.22,.2,1.76-1.21,4.2-1.81,2.42-.65,4.5-.18,4.59-.45,.14-.22-2.09-1.21-4.86-.49-2.78,.7-4.17,2.62-3.93,2.75Z"/><path class="cls-1" d="M119.36,793.82c.21,.22,2.57-1.96,6.28-3.21,3.68-1.3,6.97-1.08,6.98-1.37,.08-.23-3.38-.93-7.34,.46-3.97,1.35-6.15,3.99-5.92,4.12Z"/><path class="cls-1" d="M118.84,780.31c.12,.27,2.73-.69,6.1-.73,3.37-.08,6.02,.79,6.12,.52,.13-.21-2.52-1.57-6.14-1.49-3.62,.05-6.22,1.5-6.08,1.71Z"/><path class="cls-1" d="M119.14,767.3c.14,.26,2.78-1.16,6.33-.92,3.56,.16,6,1.86,6.17,1.62,.08-.09-.42-.66-1.48-1.27-1.05-.62-2.71-1.21-4.63-1.32-1.91-.1-3.63,.3-4.76,.79-1.13,.49-1.7,1-1.63,1.1Z"/><path class="cls-1" d="M125.45,763.9c.06,0,.18-.59,.11-1.67-.08-1.08-.36-2.66-1.29-4.42-.48-.84-.98-1.91-2.28-2.52-.64-.31-1.61-.22-2.18,.36-.57,.56-.76,1.28-.79,1.98-.02,2.81,2.46,5.59,5.79,6.07,3.35,.43,6.43-1.32,7.82-3.71,.31-.62,.53-1.39,.18-2.15-.34-.76-1.28-1.09-1.95-.99-1.4,.16-2.29,.9-3.12,1.45-1.65,1.19-2.68,2.46-3.28,3.37-.61,.92-.81,1.49-.76,1.51,.16,.12,1.24-2.15,4.47-4.33,.81-.5,1.75-1.13,2.75-1.2,.49-.03,.9,.16,1.07,.53,.17,.36,.06,.92-.21,1.4-1.17,1.96-4,3.55-6.82,3.15-2.81-.38-4.99-2.82-4.99-5.09,0-.54,.17-1.09,.49-1.41,.31-.31,.77-.39,1.2-.21,.9,.37,1.49,1.31,1.97,2.1,1.89,3.3,1.62,5.81,1.83,5.77Z"/></g><path class="cls-16" d="M243.49,437.53s6.56,20.63,5.57,46.11c-.39,9.86-24.01,283.05-24.01,283.05l-47.31,1.78,2.57-256.03-3.84,.94s-21.25,109.95-22.62,127.68c-1.23,15.93-18.17,131.97-18.17,131.97l-43.24,2.1,7.41-152.93,9.94-146.84,4.26-42.8,129.44,4.96Z"/></g><g><path class="cls-13" d="M182.22,498.01s.09,.13,.32,.31c.24,.16,.62,.38,1.16,.49,1.07,.26,2.83,.04,4.4-1.23,1.64-1.25,2.55-3.64,2.79-6.17,.23-2.56,.18-5.29,.25-8.19,.08-5.79,.11-11.04,.08-14.83-.03-3.8-.11-6.15-.23-6.15-.13,0-.27,2.34-.41,6.14-.14,3.79-.27,9.04-.35,14.83-.07,2.89,0,5.68-.18,8.12-.19,2.43-.97,4.6-2.37,5.76-1.37,1.2-2.93,1.51-3.92,1.37-1.02-.12-1.49-.54-1.54-.45Z"/><path class="cls-13" d="M112.28,473.27c-.01,.06,.46,.22,1.33,.42,.87,.2,2.16,.4,3.77,.48,3.19,.18,7.75-.31,12.26-2.33,4.52-2.03,7.91-5.11,9.9-7.61,1.01-1.25,1.71-2.35,2.15-3.13,.43-.78,.62-1.24,.57-1.27-.14-.08-1.11,1.64-3.21,3.99-2.07,2.34-5.41,5.24-9.78,7.2-4.36,1.96-8.75,2.53-11.88,2.52-3.15,0-5.08-.41-5.11-.26Z"/><path class="cls-13" d="M229.22,456.71c-.1,.01,.06,1.84,.9,4.67,.83,2.82,2.48,6.61,5.12,10.28,2.66,3.66,5.74,6.41,8.16,8.08,2.42,1.68,4.11,2.4,4.15,2.31,.2-.25-6.41-3.68-11.58-10.93-5.27-7.18-6.46-14.53-6.76-14.42Z"/></g></g><g><g><path class="cls-16" d="M217.85,162.44c4.22,.37,8.47-2.83,9.26-6.99,.8-4.17-1.96-8.71-6.03-9.92,2.55-2.75,3.1-7.17,1.29-10.46-1.81-3.29-5.83-5.2-9.52-4.52-.25-3.7-2.55-7.19-5.85-8.88-3.3-1.69-7.48-1.51-10.62,.46-4.18-3.4-10.78-3.37-14.92,.08-3.61-.57-7.49,1.44-9.09,4.73-1.61,3.29-.82,7.58,1.86,10.08"/><g><g><path class="cls-6" d="M179.83,130.8l1.9-.05c19.13-.46,35.41,13.84,37.4,32.88,1.86,17.7,3.68,37.28,3.79,46.8,.23,19.71-19.4,23.25-19.4,23.25l2.24,23.63-47.85-.33-6.3-85.74c-2.26-20.41,7.74-38.74,28.21-40.43Z"/><path class="cls-8" d="M203.69,233.64s-12.56,1.06-26-6.93c0,0,6.41,14.03,26.03,11.78l-.03-4.85Z"/><path class="cls-16" d="M211.73,183.2c.09,1.48-1.1,2.78-2.64,2.9-1.55,.12-2.87-.98-2.96-2.47-.09-1.48,1.1-2.78,2.64-2.91,1.55-.12,2.88,.98,2.96,2.47Z"/><path class="cls-16" d="M215.13,173.37c-.34,.38-2.51-1.15-5.54-1.07-3.02,.04-5.21,1.65-5.55,1.29-.17-.16,.17-.83,1.12-1.56,.94-.72,2.54-1.45,4.43-1.48,1.89-.03,3.49,.62,4.42,1.31,.95,.69,1.28,1.35,1.11,1.52Z"/><path class="cls-16" d="M184.07,183.1c.09,1.48-1.1,2.78-2.64,2.9-1.55,.12-2.87-.98-2.96-2.47-.09-1.48,1.1-2.78,2.64-2.91,1.55-.12,2.88,.98,2.96,2.47Z"/><path class="cls-16" d="M185.38,174.65c-.34,.38-2.51-1.15-5.54-1.07-3.02,.04-5.21,1.65-5.55,1.29-.17-.16,.17-.83,1.13-1.56,.94-.72,2.54-1.45,4.43-1.48,1.89-.04,3.49,.62,4.42,1.31,.95,.69,1.28,1.35,1.11,1.52Z"/><path class="cls-16" d="M196.91,196.84c-.02-.17,1.86-.54,4.9-1.01,.77-.1,1.5-.27,1.62-.8,.17-.56-.17-1.39-.57-2.28-.77-1.85-1.58-3.8-2.43-5.83-3.38-8.3-5.84-15.14-5.51-15.27,.34-.13,3.35,6.49,6.72,14.8,.81,2.05,1.59,4,2.33,5.87,.31,.87,.84,1.86,.47,3.02-.19,.58-.75,1.02-1.24,1.16-.49,.16-.93,.18-1.31,.21-3.07,.24-4.97,.3-4.98,.13Z"/><path class="cls-16" d="M187.73,162.94c-.38,.78-3,0-6.19-.02-3.2-.1-5.87,.57-6.18-.22-.13-.38,.42-1.08,1.55-1.72,1.13-.64,2.85-1.16,4.77-1.12,1.92,.04,3.59,.62,4.66,1.31,1.08,.69,1.56,1.41,1.4,1.78Z"/><path class="cls-16" d="M214.98,160.88c-.62,.7-3.14,.05-6.14,.09-3.01-.05-5.54,.6-6.14-.11-.27-.34,.12-1.04,1.21-1.72,1.08-.68,2.9-1.25,4.97-1.25,2.07,0,3.87,.59,4.93,1.26,1.08,.68,1.44,1.38,1.17,1.72Z"/><path class="cls-16" d="M217.02,154.64s-5.49-12.21-11.51-14.95c-7.29-3.31-10.2,4.67-17.11,2.91-6.91-1.75-13.87-4.93-20.75,.54-7.54,5.99-3.84,9.98-4.11,18.73-1.07,35.49-7.3,45.66-9.54,29.02-.25-1.82-5.36-3.16-6.29-10.86-1.22-10-1.89-22.15,.17-29.32,1.74-6.04,5.06-10.26,11.08-14.97,9.5-7.44,22.78-7.91,31.83-7.22,9.04,.69,26.69,10.65,26.24,26.12Z"/><path class="cls-6" d="M155.24,190.33c-.2-3.04-2.88-5.38-5.9-5.01-3.67,.44-7.7,2.62-7.28,10.21,.75,13.46,14.11,9.92,14.11,9.54,0-.26-.57-9.1-.94-14.73Z"/><path class="cls-8" d="M152.97,200.16c-.06-.04-.23,.18-.61,.38-.38,.2-1.03,.36-1.75,.13-1.45-.44-2.77-2.63-2.98-5.05-.1-1.22,.09-2.4,.47-3.39,.36-1.01,.95-1.73,1.66-1.9,.7-.2,1.23,.2,1.42,.56,.2,.37,.13,.64,.2,.66,.04,.03,.28-.24,.14-.79-.07-.26-.25-.57-.58-.81-.34-.24-.82-.35-1.32-.27-1.03,.13-1.91,1.14-2.33,2.22-.47,1.09-.72,2.42-.6,3.8,.24,2.71,1.77,5.17,3.75,5.62,.96,.19,1.73-.14,2.12-.48,.4-.36,.45-.66,.4-.68Z"/></g><path class="cls-16" d="M154.88,164.23c1.78,1.15,3.66,2.34,5.77,2.5,2.11,.16,4.49-1.11,4.8-3.21,.14-.94-.12-2.02,.48-2.76,.71-.88,2.08-.64,3.21-.55,3.93,.32,8.4-4.11,9.3-7.95,1.03,1.47,3.23,1.87,4.72,.86,1.49-1.01,2.03-1.58,3.18-2.96,1.15-1.38,2.78-2.63,4.57-2.42,1,.12,1.95,.69,2.95,.57,1.77-.2,2.58-2.29,2.8-4.05,.23-1.76,.38-3.82,1.86-4.81,1.37-.92,3.18-.45,4.81-.25,1.63,.2,3.73-.23,4.11-1.83,.2-.84-.18-1.71-.66-2.43-2.18-3.25-6.79-4.61-10.38-3.05-1.42-4.42-5.67-7.78-10.3-8.16-4.63-.38-9.36,2.26-11.48,6.39-2.91-2.51-7.07-3.5-10.8-2.55-3.73,.94-6.92,3.79-8.28,7.39-3.3-.78-7,.57-9.01,3.3-2.01,2.73-2.21,6.67-.49,9.59-2.39,1.44-4.4,3.9-4.39,6.69,.02,2.79,2.8,5.5,5.47,4.7-1.03,2.2-.08,5.12,2.05,6.28,2.13,1.16,5.11,.38,6.39-1.68"/><path class="cls-13" d="M197.49,135.81s.01,.08,0,.25c-.01,.16-.02,.41-.07,.72-.11,.62-.34,1.55-.92,2.62-.58,1.05-1.5,2.27-2.91,3.26-1.38,1-3.3,1.77-5.48,1.71l.22-.3c.45,1.14,.36,2.53-.18,3.73-.51,1.22-1.34,2.31-2.23,3.37-.45,.51-.84,1.11-1.47,1.58-.61,.46-1.35,.73-2.12,.84-1.51,.23-3.24-.2-4.37-1.45l.5-.16c-.28,2.69-1.74,5.4-4.12,7.09-1.26,.96-2.83,1.56-4.39,1.56-1.56,.02-3.02-.4-4.38-.85l.36-.17c-.68,1.69-1.76,3.15-3.09,4.23-1.3,1.08-3.05,1.74-4.66,1.39-3.2-.6-5.37-3.19-5.85-5.67l.31,.13c-1.56,.9-3.25,1.02-4.61,.79-1.38-.22-2.48-.79-3.26-1.36-.79-.58-1.26-1.19-1.54-1.61-.26-.44-.37-.68-.36-.69,.07-.06,.47,1.01,2.03,2.11,.78,.52,1.85,1.05,3.18,1.22,1.31,.19,2.91,.04,4.35-.82l.25-.15,.06,.28c.48,2.31,2.57,4.73,5.54,5.25,1.46,.31,3-.28,4.23-1.31,1.24-1.02,2.27-2.43,2.9-4.02l.1-.25,.26,.08c1.34,.44,2.75,.84,4.19,.81,1.44,0,2.85-.54,4.05-1.45,2.25-1.6,3.62-4.14,3.89-6.68l.07-.64,.43,.48c.96,1.07,2.5,1.48,3.86,1.28,.68-.1,1.34-.34,1.88-.73,.52-.38,.93-.97,1.39-1.48,.88-1.04,1.69-2.09,2.18-3.22,.52-1.12,.59-2.34,.21-3.37l-.12-.32h.34c2.06,.1,3.9-.6,5.25-1.54,1.38-.92,2.3-2.08,2.9-3.08,1.18-2.07,1.1-3.49,1.2-3.46Z"/></g></g><path class="cls-16" d="M197.74,206.46c-.09-.5-3.38,.27-6.39-2-3.01-2.26-3.47-5.86-3.94-5.78-.22,0-.46,.93-.15,2.43,.29,1.47,1.26,3.48,3.1,4.87,1.84,1.38,3.93,1.67,5.31,1.46,1.41-.2,2.14-.76,2.06-.98Z"/></g><g><path class="cls-11" d="M246.58,370.25l-.18-4.46-8.83-108.49c-2.65-.67-26.92-5.88-26.92-5.88l-5.47-12.5-17.08,10.97-32.51-13.88-4.43,12.19-35.79,15.69-.82,1.73,6.39,97.74-11.13,62.21,2.48,18.69,85.55,13.22c4.29,.44,8.63,.27,12.87-.51l38.81-7.13,4.28-11.03-7.21-68.56Z"/><path class="cls-11" d="M122.5,261.88s-27.32,3.13-32.71,37.15c-4.49,28.34-17,91.99-10.68,102.61,17.21,28.91,41.27,5.98,41.27,5.98l2.3-40.19,3.5-57.29-3.69-48.26Z"/><path class="cls-11" d="M237.18,257.3s25.71,1.8,31.53,30c2.03,9.82,6.81,97.01,6.81,97.01l-7.02,75.9-33.16-2.67-2.49-134.55,4.33-65.69Z"/><path class="cls-16" d="M110.51,421.59s.04-.32,.18-.9c.18-.67,.4-1.52,.68-2.56,.66-2.33,1.56-5.54,2.67-9.51,2.38-8.19,5.66-19.49,9.43-32.45l-.02,.17c-.34-4.55-.55-9.36-.74-14.31-.61-17-.91-32.38-1.22-43.51-.16-5.48-.29-9.95-.39-13.18-.05-1.48-.09-2.67-.12-3.58-.02-.82-.02-1.25,.02-1.25s.09,.43,.17,1.24,.19,2.02,.3,3.58c.22,3.11,.46,7.61,.69,13.18,.48,11.13,.89,26.52,1.5,43.5,.19,4.94,.38,9.75,.71,14.27v.09l-.02,.08c-3.89,12.92-7.29,24.19-9.75,32.35-1.23,3.94-2.22,7.12-2.94,9.44-.34,1.03-.61,1.86-.83,2.52-.2,.57-.31,.86-.34,.86Z"/><path class="cls-16" d="M248.56,293.2c.26,.01-.03,12.48-.65,27.85-.62,15.38-1.34,27.83-1.61,27.82s.03-12.48,.65-27.86c.62-15.37,1.34-27.82,1.61-27.81Z"/><path class="cls-16" d="M188.09,249.89c.09,.09-1.24,1.54-3.02,4.32-1.77,2.77-4.23,6.76-6.41,11.59l-.23,.5-.45-.29c-1.67-1.1-3.45-2.27-5.28-3.48-5.75-3.81-10.93-7.3-14.64-9.87-1.86-1.28-3.35-2.33-4.37-3.08-1.02-.74-1.57-1.18-1.53-1.24,.04-.05,.66,.28,1.74,.93,1.08,.65,2.64,1.62,4.54,2.83,3.81,2.42,9.04,5.82,14.78,9.62,1.83,1.22,3.6,2.39,5.26,3.5l-.67,.21c2.29-4.93,4.85-8.84,6.78-11.56,.97-1.35,1.82-2.38,2.45-3.04,.62-.67,1.02-.98,1.05-.94Z"/><path class="cls-16" d="M190.34,257.47s.04,.18,.06,.53c.02,.4,.05,.91,.09,1.55,.06,1.43,.14,3.42,.25,5.95,.2,5.17,.41,12.65,.6,21.89,.39,18.49,.58,44.04,.12,72.25-.47,28.22-1.51,53.76-2.5,72.22-.5,9.23-.95,16.7-1.33,21.86-.19,2.52-.34,4.51-.44,5.94-.06,.63-.1,1.14-.14,1.54-.04,.35-.06,.52-.08,.52-.02,0-.02-.18-.02-.53,.01-.4,.03-.91,.04-1.55,.06-1.43,.15-3.42,.26-5.95,.24-5.24,.59-12.69,1.02-21.87,.83-18.47,1.75-43.99,2.22-72.2,.46-28.2,.37-53.74,.16-72.23-.13-9.19-.23-16.65-.3-21.89-.03-2.53-.05-4.52-.07-5.95,0-.64,0-1.15,0-1.55,0-.35,.02-.53,.03-.53Z"/><path class="cls-16" d="M207.32,309.86s.68-.06,2.04-.09c1.49-.03,3.48-.06,5.96-.11,5.33-.05,12.72-.13,21.54-.21h.44l-.02,.44c-.38,8.36-.82,18.15-1.29,28.58v.32l-.31,.11h-.04c-5.27,1.93-10.37,3.78-15.18,5.53l-.18,.06-.17-.08c-4.35-1.99-8.46-3.86-12.24-5.59l-.24-.11v-.26c-.13-8.55-.24-15.71-.31-20.86-.02-2.39-.03-4.32-.04-5.76,0-1.32,.01-2,.04-1.97s.08,.77,.15,2.14c.06,1.46,.15,3.42,.25,5.85,.18,5.09,.43,12.15,.73,20.59l-.24-.36c3.79,1.7,7.91,3.54,12.28,5.5h-.35c4.81-1.77,9.9-3.63,15.17-5.56h.04l-.31,.41c.52-10.43,1-20.22,1.41-28.58l.42,.44c-8.71-.09-16.02-.16-21.27-.21-2.52-.05-4.54-.08-6.05-.11-1.41-.03-2.18-.06-2.21-.09Z"/><path class="cls-16" d="M210.07,252.41c.09,.07-.82,1.46-2.65,3.42-.92,.98-2.07,2.09-3.44,3.22-.69,.56-1.42,1.13-2.21,1.69-.39,.27-.79,.58-1.32,.82-.51,.26-1.3,.28-1.85-.03-1.05-.61-1.63-1.33-2.38-1.97-.7-.66-1.36-1.31-1.98-1.95-1.23-1.27-2.28-2.47-3.12-3.51-1.68-2.08-2.56-3.48-2.46-3.56,.11-.09,1.18,1.17,2.97,3.11,.9,.97,1.98,2.11,3.23,3.33,.62,.61,1.29,1.24,1.99,1.88,.7,.6,1.46,1.4,2.17,1.8,.66,.4,1.41-.15,2.21-.7,.78-.54,1.51-1.08,2.2-1.61,1.37-1.07,2.55-2.11,3.51-3.01,1.92-1.81,3.02-3.04,3.13-2.94Z"/></g><g><path class="cls-6" d="M97.65,370.91s-2.63-1.98-10.21,.85-7.45,24.04-7.45,24.04c0,0-.55,11.11,16.04,13.85,16.59,2.74,24.25-8.43,24.25-8.43l7.82-16.89-30.45-13.42Z"/><g><path class="cls-6" d="M124.54,367.4s3.07-2.65,7.07-1.05c4,1.6,1.94,8.3,1.94,8.3l-5.8-2.83-3.21-4.42Z"/><path class="cls-2" d="M100.21,354.7c10.57,8.97,47.07,40.36,47.07,40.36l6.64,2.09-2.51-6.48-46.46-41.4c-1.48-1.33-3.76-1.2-5.09,.28h0c-1.35,1.51-1.2,3.83,.35,5.15Z"/><g><path class="cls-6" d="M125.38,373.49s1.62-1.97,.3-4.07c-1.31-2.1-3.29-2.12-5.47-2.21-2.18-.09-15.66,1.64-19.57,2.48-3.91,.83-9.32,5.54-7.38,10.43l1.68,1.97s-4.25,5.3-1.67,8.91l3.02,2.19s-1.37,6.92,1.79,8.58c3.16,1.67,7,.43,7,.43,0,0,3.84,1.79,7.97,1.63,4.13-.16,19.27-12.6,20.22-13.76,2.03-2.46,.28-5.05,.28-5.05,0,0,.88-1.82,0-4.23-.87-2.41-2.74-2.25-2.74-2.25,0,0,.05-2.67-1.18-3.76-1.23-1.09-4.26-1.3-4.26-1.3Z"/><path class="cls-8" d="M125.38,373.49s.2-.03,.57,0c.37,.03,.93,.08,1.65,.25,.69,.19,1.67,.36,2.44,1.24,.71,.91,.96,2.19,1,3.59l-.25-.24c1.32-.07,2.53,1,3,2.34,.5,1.32,.67,2.92,.04,4.51l-.02-.32c.69,1.11,1.01,2.54,.57,3.94-.23,.69-.61,1.32-1.16,1.84-.51,.49-1.04,.95-1.59,1.42-2.19,1.86-4.58,3.77-7.17,5.71-2.62,1.91-5.36,3.94-8.58,5.58-.4,.21-.82,.4-1.26,.55-.42,.19-.91,.29-1.42,.37-.95,.08-1.88,0-2.82-.11-1.87-.25-3.71-.75-5.51-1.53l.34,.02c-1.81,.5-3.72,.65-5.64,.19-.93-.25-1.92-.58-2.68-1.41-.72-.81-1.04-1.82-1.21-2.8-.31-1.89-.18-3.73,.13-5.54l.19,.48c-1.02-.74-2.02-1.47-3.02-2.19l-.06-.05-.04-.06c-1.09-1.55-1.08-3.54-.57-5.12,.48-1.63,1.3-3.05,2.27-4.35v.58c-.56-.67-1.11-1.33-1.67-1.98l-.05-.06-.03-.07c-.63-1.64-.53-3.51,.2-5,.69-1.51,1.76-2.75,2.97-3.71,1.22-.96,2.54-1.73,3.99-2.14,1.45-.37,2.8-.54,4.15-.76,5.36-.78,10.09-1.34,14.04-1.65,.97-.08,1.96-.11,2.84-.03,.89,.06,1.74,.15,2.51,.43,1.56,.56,2.42,1.84,2.7,2.91,.25,1.12-.1,1.97-.35,2.47-.27,.5-.49,.71-.51,.69-.02-.02,.15-.25,.37-.76,.2-.5,.47-1.32,.2-2.32-.29-.96-1.14-2.12-2.55-2.57-.7-.24-1.52-.3-2.39-.34-.89-.06-1.77,0-2.77,.09-3.92,.39-8.64,1.02-13.97,1.85-1.32,.23-2.73,.42-4.04,.77-1.31,.38-2.56,1.11-3.68,2.02-1.12,.91-2.1,2.07-2.71,3.41-.64,1.34-.69,2.9-.16,4.31l-.08-.13c.55,.65,1.12,1.31,1.68,1.97l.24,.28-.23,.31c-.88,1.18-1.67,2.57-2.09,4.04-.45,1.46-.42,3.08,.45,4.31l-.11-.11c1,.72,2,1.45,3.02,2.19l.24,.17-.05,.31c-.29,1.68-.41,3.49-.12,5.18,.16,.88,.45,1.73,.98,2.33,.5,.58,1.36,.9,2.19,1.12,1.68,.42,3.52,.28,5.12-.16l.18-.05,.16,.07c1.67,.73,3.47,1.23,5.24,1.47,.88,.11,1.78,.18,2.63,.11,.39-.07,.77-.13,1.18-.31,.4-.13,.79-.31,1.18-.51,3.1-1.56,5.87-3.57,8.48-5.44,2.59-1.9,4.99-3.79,7.18-5.61,1.08-.94,2.22-1.72,2.57-2.91,.39-1.14,.12-2.43-.44-3.37l-.09-.15,.07-.17c1.06-2.61-.22-6.15-2.43-6.11h-.25v-.24c0-1.31-.23-2.56-.82-3.36-.62-.77-1.56-1.01-2.22-1.22-1.39-.38-2.17-.43-2.16-.48Z"/></g><path class="cls-8" d="M125.38,373.49c.03,.26-5.43,1.08-11.99,2.92-6.56,1.83-11.91,3.31-12,3.02-.04-.13,1.26-.63,3.37-1.36,2.12-.72,5.06-1.68,8.37-2.58,6.62-1.85,12.22-2.26,12.24-2Z"/><path class="cls-8" d="M130.82,378.55c.06,.12-1.36,.96-3.71,2.23-2.35,1.26-5.64,2.94-9.36,4.6-3.73,1.66-7.2,2.95-9.76,3.72-2.56,.78-4.19,1.1-4.22,.98-.04-.14,1.52-.68,4-1.62,2.49-.93,5.89-2.31,9.59-3.96,7.39-3.34,13.33-6.22,13.46-5.95Z"/><path class="cls-8" d="M133.55,385.04c.07,.12-1.12,.96-3.04,2.3-1.93,1.33-4.59,3.18-7.61,5.12-3.02,1.94-5.88,3.53-8.03,4.5-2.15,.98-3.55,1.4-3.6,1.29-.05-.13,1.25-.77,3.29-1.9,2.05-1.12,4.81-2.78,7.82-4.71,5.97-3.93,11.01-6.88,11.16-6.61Z"/></g></g><g><g><g><g><g><path class="cls-9" d="M292.68,475.01h-94.32c-2.29,0-4.15-1.61-4.15-3.59v-118.86c0-1.98,1.86-3.59,4.15-3.59h94.32c2.29,0,4.15,1.61,4.15,3.59v118.86c0,1.98-1.86,3.59-4.15,3.59Z"/><path class="cls-16" d="M292.68,475.01s.11,0,.32-.02c.21-.01,.52-.05,.92-.16,.39-.11,.87-.3,1.36-.64,.47-.34,.95-.83,1.24-1.48,.15-.32,.24-.69,.27-1.08,.02-.39,0-.81,0-1.24,0-.87,0-1.82,0-2.85,0-2.06,0-4.44,0-7.12,0-10.72-.02-26.22-.03-45.38,0-9.58,0-20.07-.01-31.34,0-5.63,0-11.46,0-17.46,0-3,0-6.04,0-9.13,0-1.54,0-3.09,0-4.66-.02-.77-.36-1.52-.91-2.12-.57-.59-1.36-1.03-2.24-1.19-.44-.09-.88-.09-1.35-.09-.46,0-.92,0-1.38,0h-2.77c-1.85,0-3.72,0-5.59,0-3.75,0-7.54,0-11.37,0-7.66,0-15.48,0-23.45,0-15.93,0-32.42,0-49.31,0-1.03,0-2.06,.35-2.8,.97-.75,.61-1.21,1.48-1.25,2.36-.02,1.81,0,3.62-.01,5.43,0,3.61,0,7.2,0,10.76,0,7.12,0,14.13,0,21.03,0,13.79,0,27.08,0,39.75,0,12.67,0,24.7,0,35.97,0,1.41,0,2.8,0,4.19,0,.69,0,1.38,0,2.06,.03,.67,.29,1.33,.74,1.87,.44,.55,1.07,.97,1.77,1.23,.35,.12,.73,.2,1.1,.24,.38,.03,.76,.02,1.15,.02,1.54,0,3.07,0,4.58,0,6.04,0,11.84,0,17.38,0,22.14,.01,40.06,.02,52.44,.03,6.19,0,11,.01,14.26,.02,1.63,0,2.87,0,3.71,0,.84,0,1.26,0,1.26,0,0,0-.43,0-1.26,0-.84,0-2.08,0-3.71,0-3.26,0-8.07,0-14.26,.02-12.38,0-30.3,.02-52.44,.03-5.54,0-11.33,0-17.38,0-1.51,0-3.04,0-4.58,0-.38,0-.77,0-1.17-.02-.39-.04-.78-.12-1.15-.25-.73-.26-1.38-.71-1.84-1.27-.46-.57-.74-1.25-.77-1.95-.02-.69,0-1.38,0-2.07,0-1.38,0-2.78,0-4.19,0-11.27,0-23.3,0-35.97,0-12.67,0-25.96,0-39.75,0-6.89,0-13.91,0-21.03,0-3.56,0-7.15,0-10.76,0-1.81-.01-3.61,.01-5.44,.05-.93,.53-1.84,1.31-2.48,.78-.65,1.85-1.02,2.93-1.01,16.89,0,33.38,0,49.31,0,7.96,0,15.79,0,23.45,0,3.83,0,7.62,0,11.37,0,1.87,0,3.74,0,5.59,0,.93,0,1.85,0,2.77,0,.46,0,.92,0,1.38,0,.45,0,.93,0,1.39,.09,.92,.17,1.74,.63,2.34,1.25,.58,.62,.94,1.41,.96,2.21,0,1.56,0,3.12,0,4.66,0,3.09,0,6.13,0,9.13,0,6,0,11.83,0,17.46,0,11.26,0,21.76-.01,31.34-.01,19.16-.02,34.66-.03,45.38,0,2.68,0,5.06,0,7.12,0,1.03,0,1.98,0,2.85,0,.44,.01,.85-.01,1.25-.03,.39-.12,.77-.28,1.09-.3,.66-.78,1.15-1.26,1.49-.49,.34-.97,.52-1.37,.63-.4,.1-.72,.14-.93,.15-.21,0-.32,0-.32,0Z"/></g><g class="cls-10"><polygon points="203.95 471.88 289.99 471.47 290.98 457.08 288.34 448.41 203.16 459.93 203.95 471.88"/></g></g><g><path class="cls-16" d="M292.68,475.01s.11,0,.32-.02c.21-.01,.52-.05,.92-.16,.39-.11,.87-.3,1.36-.64,.47-.34,.95-.83,1.24-1.48,.15-.32,.24-.69,.27-1.08,.02-.39,0-.81,0-1.24,0-.87,0-1.82,0-2.85,0-2.06,0-4.44,0-7.12,0-10.72-.02-26.22-.03-45.38,0-9.58,0-20.07-.01-31.34,0-5.63,0-11.46,0-17.46,0-3,0-6.04,0-9.13,0-1.54,0-3.09,0-4.66-.02-.77-.36-1.52-.91-2.12-.57-.59-1.36-1.03-2.24-1.19-.44-.09-.88-.09-1.35-.09-.46,0-.92,0-1.38,0h-2.77c-1.85,0-3.72,0-5.59,0-3.75,0-7.54,0-11.37,0-7.66,0-15.48,0-23.45,0-15.93,0-32.42,0-49.31,0-1.03,0-2.06,.35-2.8,.97-.75,.61-1.21,1.48-1.25,2.36-.02,1.81,0,3.62-.01,5.43,0,3.61,0,7.2,0,10.76,0,7.12,0,14.13,0,21.03,0,13.79,0,27.08,0,39.75,0,12.67,0,24.7,0,35.97,0,1.41,0,2.8,0,4.19,0,.69,0,1.38,0,2.06,.03,.67,.29,1.33,.74,1.87,.44,.55,1.07,.97,1.77,1.23,.35,.12,.73,.2,1.1,.24,.38,.03,.76,.02,1.15,.02,1.54,0,3.07,0,4.58,0,6.04,0,11.84,0,17.38,0,22.14,.01,40.06,.02,52.44,.03,6.19,0,11,.01,14.26,.02,1.63,0,2.87,0,3.71,0,.84,0,1.26,0,1.26,0,0,0-.43,0-1.26,0-.84,0-2.08,0-3.71,0-3.26,0-8.07,0-14.26,.02-12.38,0-30.3,.02-52.44,.03-5.54,0-11.33,0-17.38,0-1.51,0-3.04,0-4.58,0-.38,0-.77,0-1.17-.02-.39-.04-.78-.12-1.15-.25-.73-.26-1.38-.71-1.84-1.27-.46-.57-.74-1.25-.77-1.95-.02-.69,0-1.38,0-2.07,0-1.38,0-2.78,0-4.19,0-11.27,0-23.3,0-35.97,0-12.67,0-25.96,0-39.75,0-6.89,0-13.91,0-21.03,0-3.56,0-7.15,0-10.76,0-1.81-.01-3.61,.01-5.44,.05-.93,.53-1.84,1.31-2.48,.78-.65,1.85-1.02,2.93-1.01,16.89,0,33.38,0,49.31,0,7.96,0,15.79,0,23.45,0,3.83,0,7.62,0,11.37,0,1.87,0,3.74,0,5.59,0,.93,0,1.85,0,2.77,0,.46,0,.92,0,1.38,0,.45,0,.93,0,1.39,.09,.92,.17,1.74,.63,2.34,1.25,.58,.62,.94,1.41,.96,2.21,0,1.56,0,3.12,0,4.66,0,3.09,0,6.13,0,9.13,0,6,0,11.83,0,17.46,0,11.26,0,21.76-.01,31.34-.01,19.16-.02,34.66-.03,45.38,0,2.68,0,5.06,0,7.12,0,1.03,0,1.98,0,2.85,0,.44,.01,.85-.01,1.25-.03,.39-.12,.77-.28,1.09-.3,.66-.78,1.15-1.26,1.49-.49,.34-.97,.52-1.37,.63-.4,.1-.72,.14-.93,.15-.21,0-.32,0-.32,0Z"/><g class="cls-10"><polygon points="203.95 471.88 289.99 471.47 290.98 457.08 288.34 448.41 203.16 459.93 203.95 471.88"/></g></g><g><rect class="cls-1" x="199.41" y="354.05" width="92.22" height="115"/><path class="cls-16" d="M291.63,469.06c0-.66-.04-47.13-.09-115l.09,.07c-27.97,0-59.27,0-92.21,0h-.01l.09-.08c0,43.19-.01,83.09-.02,115l-.08-.07c56.09,.04,91.6,.07,92.22,.07-.62,0-36.13,.03-92.22,.07h-.08v-.07c0-31.92-.01-71.82-.02-115v-.08h.11c32.95,0,64.24,0,92.21,0h.09v.07c-.05,67.87-.09,114.34-.09,115Z"/></g><rect class="cls-9" x="204.68" y="385.15" width="20.17" height="4.02"/><rect class="cls-5" x="227.29" y="376.38" width="40.43" height="4.02"/><rect class="cls-5" x="204.49" y="376.29" width="19.23" height="4.02"/><rect class="cls-5" x="270.03" y="376.36" width="14.63" height="4.02"/><rect class="cls-9" x="204.6" y="443.26" width="26.01" height="4.58"/><rect class="cls-9" x="204.6" y="395.23" width="79.78" height="4.58"/><path class="cls-16" d="M282.88,405.67c0,.26-17.19,.48-38.39,.48s-38.4-.21-38.4-.48,17.19-.48,38.4-.48,38.39,.21,38.39,.48Z"/><path class="cls-16" d="M282.88,409.65c0,.26-17.19,.48-38.39,.48s-38.4-.21-38.4-.48,17.19-.48,38.4-.48,38.39,.21,38.39,.48Z"/><path class="cls-16" d="M282.88,413.63c0,.26-17.19,.48-38.39,.48s-38.4-.21-38.4-.48,17.19-.48,38.4-.48,38.39,.21,38.39,.48Z"/><path class="cls-16" d="M240.34,417.61c0,.26-7.67,.48-17.12,.48s-17.13-.21-17.13-.48,7.67-.48,17.13-.48,17.12,.21,17.12,.48Z"/><path class="cls-16" d="M282.88,421.59c0,.26-17.19,.48-38.39,.48s-38.4-.21-38.4-.48,17.19-.48,38.4-.48,38.39,.21,38.39,.48Z"/><path class="cls-16" d="M282.88,425.56c0,.26-17.19,.48-38.39,.48s-38.4-.21-38.4-.48,17.19-.48,38.4-.48,38.39,.21,38.39,.48Z"/><path class="cls-16" d="M267.63,429.54c0,.26-13.78,.48-30.77,.48s-30.77-.21-30.77-.48,13.77-.48,30.77-.48,30.77,.21,30.77,.48Z"/><path class="cls-16" d="M282.88,433.52c0,.26-17.19,.48-38.39,.48s-38.4-.21-38.4-.48,17.19-.48,38.4-.48,38.39,.21,38.39,.48Z"/><path class="cls-16" d="M282.88,437.5c0,.26-17.19,.48-38.39,.48s-38.4-.21-38.4-.48,17.19-.48,38.4-.48,38.39,.21,38.39,.48Z"/><g><path class="cls-16" d="M226.35,345.57h42.83c1.23,0,2.23,1,2.23,2.23v10.7h-47.29v-10.7c0-1.23,1-2.23,2.23-2.23Z"/><polygon class="cls-16" points="253.78 340.71 241.75 340.71 243.16 350.43 252.22 350.43 253.78 340.71"/><path class="cls-13" d="M268.37,345.57c0,.05-9.23,.09-20.61,.09s-20.61-.04-20.61-.09,9.22-.09,20.61-.09,20.61,.04,20.61,.09Z"/><path class="cls-13" d="M225.18,356.4c-.05,0-.1-1.83-.1-4.08s.04-4.08,.1-4.08,.1,1.83,.1,4.08-.04,4.08-.1,4.08Z"/><path class="cls-13" d="M269.88,355.44c-.05,0-.1-1.66-.1-3.71s.04-3.71,.1-3.71,.1,1.66,.1,3.71-.04,3.71-.1,3.71Z"/><path class="cls-13" d="M267.6,357.16c0,.05-9.47,.09-21.15,.09s-21.15-.04-21.15-.09,9.47-.09,21.15-.09,21.15,.04,21.15,.09Z"/></g><g class="cls-10"><polygon points="271.41 349.26 273.37 354.73 273.37 357.41 271.16 357.41 271.41 349.26"/></g></g><text class="cls-7" transform="translate(219 372.4)"><tspan x="0" y="0">SOLICITUD</tspan></text></g><path class="cls-6" d="M262.42,477.77l-2.16-3.41s-.82-8.61-4.78-8.78c-3.96-.17-4.67,4.6-4.67,4.6,0,0-.35-3.52-3.93-3.9-3.59-.38-3.68,4.25-3.68,4.25,0,0-.33-5.31-3.22-4.87-2.89,.44-4.24,3.18-4.24,3.18,0,0,.07-4.33-1.46-4.81-1.53-.47-2.97-.06-4.21,1.62-1.25,1.68-.71,9.71-.71,9.71,0,0,.02,3.01,3.12,3.48l2.44-.42s-.69,7.78,4.8,8.54c5.48,.76,5.29-1.66,5.29-1.66,0,0,2.41,3.38,6.45,2.55,4.03-.83,3.52-3.27,3.52-3.27,0,0,4.29,1.88,6.21,.45,1.91-1.43,1.25-7.26,1.25-7.26Z"/><path class="cls-8" d="M234.82,478.65c-.25,.05-.83-2.4-.45-5.44,.35-3.04,1.48-5.29,1.71-5.19,.26,.1-.43,2.39-.76,5.3-.36,2.9-.22,5.29-.5,5.33Z"/><path class="cls-8" d="M245.22,485.56c-.22,.09-1.73-3.29-2.19-7.79-.45-4.5,.2-8.11,.43-8.08,.3,.02,.08,3.62,.52,7.98,.45,4.36,1.52,7.8,1.24,7.89Z"/><path class="cls-8" d="M255.24,484.68c-.1,.07-.72-.56-1.39-1.81-.67-1.24-1.35-3.07-1.88-5.12-1.05-4.12-1.4-7.53-1.16-7.58,.28-.06,1.06,3.28,2.09,7.33,.52,2.02,1.08,3.82,1.57,5.08,.48,1.27,.89,2.01,.77,2.09Z"/></g></g><text class="cls-12" transform="translate(351.48 147.57) rotate(-.86)"><tspan x="0" y="0">SOLICITUD</tspan></text></g></svg>