<?xml version="1.0" encoding="utf-8"?>
<!-- Generator: Adobe Illustrator 26.3.1, SVG Export Plug-In . SVG Version: 6.00 Build 0)  -->
<svg version="1.1" id="Capa_1" xmlns="http://www.w3.org/2000/svg" xmlns:xlink="http://www.w3.org/1999/xlink" x="0px" y="0px"
	 viewBox="0 0 1067.91 1080" style="enable-background:new 0 0 1067.91 1080;" xml:space="preserve">
<style type="text/css">
	.st0{opacity:0.15;fill:#575EA7;}
	.st1{opacity:0.6;fill:#575EA7;}
	.st2{fill:none;stroke:#F2CEC0;stroke-linecap:round;stroke-miterlimit:10;}
	.st3{fill:#55C2E3;}
	.st4{fill:#19A0DB;}
	.st5{fill:#045C95;}
	.st6{fill:#FFFFFF;}
	.st7{fill:#F0D3D8;}
	.st8{fill:#A7C2D8;}
	.st9{opacity:0.4;fill:#575EA7;}
	.st10{fill:#575EA7;}
	.st11{fill:#FADED2;}
	.st12{fill:#336895;}
	.st13{fill:#4E8AB3;}
	.st14{fill:#994615;}
	.st15{fill:#852F12;}
	.st16{fill:#732E0E;}
	.st17{fill:#EBF4FD;}
	.st18{fill:#F8BD9A;}
	.st19{fill:#F1997F;}
	.st20{fill:#D43226;}
	.st21{fill:#102A40;}
	.st22{fill:#E94A2C;}
	.st23{fill:#07384F;}
	.st24{fill:none;stroke:#28788F;stroke-linecap:round;stroke-miterlimit:10;}
	.st25{fill:#8C4314;}
	.st26{fill:#A66417;}
	.st27{fill:#2F334C;}
	.st28{fill:none;stroke:#8C4314;stroke-width:2;stroke-linecap:round;stroke-miterlimit:10;}
	.st29{fill:none;stroke:#D55E4E;stroke-width:2;stroke-linecap:round;stroke-miterlimit:10;}
	.st30{fill:#DE3B25;}
	.st31{fill:#163749;}
	.st32{fill:#B82621;}
	.st33{fill:#F8BD9A;stroke:#D55E4E;stroke-linecap:round;stroke-miterlimit:10;}
	.st34{fill:none;stroke:#B82621;stroke-linecap:round;stroke-miterlimit:10;}
	.st35{fill:#F8BC9B;}
	.st36{fill:none;stroke:#B1524B;stroke-width:0.5;stroke-linecap:round;stroke-miterlimit:10;}
	.st37{fill:#316483;}
	.st38{fill:#417C91;}
	.st39{fill:#4F250F;}
	.st40{fill:#855321;}
	.st41{fill:#112C44;}
	.st42{fill:#163A49;}
	.st43{fill:#4C8394;}
	.st44{fill:#6B4019;}
	.st45{fill:none;stroke:#4F250F;stroke-width:2;stroke-linecap:round;stroke-miterlimit:10;}
	.st46{fill:none;stroke:#B1524B;stroke-width:2;stroke-linecap:round;stroke-miterlimit:10;}
	.st47{fill:#2D3A5E;}
	.st48{fill:#6BC4C8;}
	.st49{fill:none;stroke:#3F7D8A;stroke-width:0.5;stroke-linecap:round;stroke-miterlimit:10;}
	.st50{fill:#A3D7DB;}
	.st51{fill:#DBE9F8;}
	.st52{fill:none;stroke:#B9C8E3;stroke-linecap:round;stroke-miterlimit:10;}
	.st53{fill:none;stroke:#163749;stroke-miterlimit:10;}
	.st54{fill:none;stroke:#163749;stroke-linecap:round;stroke-miterlimit:10;}
	.st55{fill:#351D10;}
	.st56{fill:#DB8E61;}
	.st57{fill:#545B9C;}
	.st58{fill:#B33F37;}
	.st59{fill:#678CA8;}
	.st60{fill:#CF6E49;}
	.st61{fill:#1B9EB3;}
	.st62{fill:none;stroke:#6AC4CD;stroke-linecap:round;stroke-miterlimit:10;}
	.st63{fill:#D68A59;}
	.st64{fill:#24151A;}
	.st65{fill:none;stroke:#A9483E;stroke-width:0.5;stroke-linecap:round;stroke-miterlimit:10;}
	.st66{fill:#3F2612;}
	.st67{fill:#664316;}
	.st68{fill:#3E2311;}
	.st69{fill:none;stroke:#3F2612;stroke-width:2;stroke-linecap:round;stroke-miterlimit:10;}
	.st70{fill:none;stroke:#A9483E;stroke-width:2;stroke-linecap:round;stroke-miterlimit:10;}
	.st71{opacity:0.79;fill:#575EA7;}
	.st72{fill:#F4964A;}
	.st73{fill:none;stroke:#FFFFFF;stroke-linecap:round;stroke-miterlimit:10;}
	.st74{fill:#F2E4E6;}
</style>
<path class="st0" d="M-5.49,5.27l794.67,5c0,0,405.44,479.43-9.8,1063.71l-8.39,11.29H-5.49V5.27z"/>
<g>
	<g>
		<g>
			<path class="st1" d="M805.01,917.05c18.17-315.18,155.26-353.98,176.79-327.46C1026.89,645.15,870.3,819.06,805.01,917.05z"/>
			<g>
				<path class="st2" d="M966.86,602.06c-76.75,89.46-131.5,197.66-158.14,312.47"/>
				<path class="st2" d="M926.42,604.76c4.45,13.2,6.87,27.07,7.19,40.99c14.65-3.16,29.6-4.86,44.6-5.08"/>
				<path class="st2" d="M873.65,659.39c8.62,14.98,14.98,31.24,18.82,48.08c17.42-3.73,35.26-5.55,53.07-5.39"/>
				<path class="st2" d="M837.28,738.61c7.19,11.26,13.39,23.15,18.51,35.49c16.86-6.81,35.12-10.11,53.28-9.61"/>
				<path class="st2" d="M871.6,814.65c-11.06-0.81-22.24,0.03-33.05,2.47c-2.81-8.94-6.81-17.5-11.86-25.37"/>
			</g>
		</g>
		<g>
			<path class="st1" d="M805.01,917.05c100.76-160.43,229.38-213.29,235.23-155.32C1048.34,842.01,874.57,894.4,805.01,917.05z"/>
			<g>
				<path class="st2" d="M1024.22,767.4c-79.33,37.87-152.73,88.12-216.73,148.37"/>
				<path class="st2" d="M995.71,750.65c0.33,11.18-0.73,22.42-3.19,33.34c11.01,1.06,21.67,5.41,30.27,12.36"/>
				<path class="st2" d="M942.01,775.46c2.08,11.78,2.91,23.78,2.44,35.74c14.9,1.36,29.43,6.5,41.87,14.79"/>
				<path class="st2" d="M891.17,812.43c4.11,9.23,6.03,19.42,5.59,29.51c13.78,1.08,27.29,5.45,39.08,12.64"/>
			</g>
		</g>
	</g>
	<rect x="628.27" y="665.27" class="st3" width="223.39" height="23.43"/>
	<g>
		<polygon class="st4" points="845.06,688.7 845.06,917.05 825.27,917.05 825.27,904.55 654.56,904.55 654.56,917.05 634.84,917.05 
			634.84,688.7 		"/>
		<rect x="634.84" y="688.7" class="st5" width="210.2" height="4.69"/>
	</g>
	<g>
		<g>
			<rect x="655.87" y="709.16" class="st5" width="167.54" height="50.77"/>
			<rect x="654.15" y="704.48" class="st3" width="170.98" height="50.77"/>
		</g>
	</g>
	<g>
		<g>
			<rect x="655.87" y="773.21" class="st5" width="167.54" height="50.77"/>
			<rect x="654.15" y="768.52" class="st3" width="170.98" height="50.77"/>
		</g>
	</g>
	<g>
		<rect x="655.87" y="837.26" class="st5" width="167.54" height="50.77"/>
		<rect x="654.15" y="832.57" class="st3" width="170.98" height="50.77"/>
	</g>
	<g>
		<g>
			<g>
				<g>
					<path class="st6" d="M683.07,653.88v-35.54h9.76v35.54c0,2.37-1.92,4.3-4.3,4.3h-1.17
						C684.99,658.17,683.07,656.25,683.07,653.88z"/>
					<path class="st6" d="M681.3,617.21L681.3,617.21c0-0.61,0.5-1.12,1.12-1.12h11.04c0.61,0,1.12,0.5,1.12,1.12l0,0
						c0,0.61-0.5,1.12-1.12,1.12h-11.04C681.8,618.32,681.3,617.82,681.3,617.21z"/>
				</g>
				<path class="st7" d="M684.63,653.3v-23.24h6.64v23.24c0,1.83-1.48,3.31-3.31,3.31l0,0C686.11,656.61,684.63,655.13,684.63,653.3
					z"/>
			</g>
			<g>
				<g>
					<path class="st6" d="M702.59,653.88v-35.54h9.76v35.54c0,2.37-1.92,4.3-4.3,4.3h-1.17
						C704.51,658.17,702.59,656.25,702.59,653.88z"/>
					<path class="st6" d="M700.83,617.21L700.83,617.21c0-0.61,0.5-1.12,1.12-1.12H713c0.61,0,1.12,0.5,1.12,1.12l0,0
						c0,0.61-0.5,1.12-1.12,1.12h-11.04C701.33,618.32,700.83,617.82,700.83,617.21z"/>
				</g>
				<path class="st7" d="M704.16,653.3v-23.24h6.64v23.24c0,1.83-1.48,3.31-3.31,3.31l0,0C705.64,656.61,704.16,655.13,704.16,653.3
					z"/>
			</g>
			<g>
				<g>
					<path class="st6" d="M723.29,653.88v-35.54h9.76v35.54c0,2.37-1.92,4.3-4.3,4.3h-1.17
						C725.21,658.17,723.29,656.25,723.29,653.88z"/>
					<path class="st6" d="M721.53,617.21L721.53,617.21c0-0.61,0.5-1.12,1.12-1.12h11.04c0.61,0,1.12,0.5,1.12,1.12l0,0
						c0,0.61-0.5,1.12-1.12,1.12h-11.04C722.03,618.32,721.53,617.82,721.53,617.21z"/>
				</g>
				<path class="st7" d="M724.85,653.3v-23.24h6.64v23.24c0,1.83-1.48,3.31-3.31,3.31l0,0C726.34,656.61,724.85,655.13,724.85,653.3
					z"/>
			</g>
			<g>
				<g>
					<path class="st6" d="M744.38,653.88v-35.54h9.76v35.54c0,2.37-1.92,4.3-4.3,4.3h-1.17
						C746.3,658.17,744.38,656.25,744.38,653.88z"/>
					<path class="st6" d="M742.61,617.21L742.61,617.21c0-0.61,0.5-1.12,1.12-1.12h11.04c0.61,0,1.12,0.5,1.12,1.12l0,0
						c0,0.61-0.5,1.12-1.12,1.12h-11.04C743.11,618.32,742.61,617.82,742.61,617.21z"/>
				</g>
				<path class="st7" d="M745.94,653.3v-23.24h6.64v23.24c0,1.83-1.48,3.31-3.31,3.31l0,0C747.43,656.61,745.94,655.13,745.94,653.3
					z"/>
			</g>
			<g>
				<g>
					<path class="st6" d="M767.03,653.88v-35.54h9.76v35.54c0,2.37-1.92,4.3-4.3,4.3h-1.17
						C768.95,658.17,767.03,656.25,767.03,653.88z"/>
					<path class="st6" d="M765.27,617.21L765.27,617.21c0-0.61,0.5-1.12,1.12-1.12h11.04c0.61,0,1.12,0.5,1.12,1.12l0,0
						c0,0.61-0.5,1.12-1.12,1.12h-11.04C765.77,618.32,765.27,617.82,765.27,617.21z"/>
				</g>
				<path class="st7" d="M768.59,653.3v-23.24h6.64v23.24c0,1.83-1.48,3.31-3.31,3.31l0,0C770.08,656.61,768.59,655.13,768.59,653.3
					z"/>
			</g>
		</g>
		<g>
			<rect x="673.41" y="620.39" class="st8" width="120.28" height="3.12"/>
			<rect x="667.12" y="657.46" class="st5" width="134.34" height="7.81"/>
			<g>
				<rect x="672.44" y="616.09" class="st5" width="3.42" height="45.26"/>
				<rect x="791.65" y="616.09" class="st5" width="3.42" height="45.26"/>
			</g>
		</g>
	</g>
	<g>
		<g>
			<g>
				<path class="st1" d="M181.84,776.97c28.31-35.51,42.13-82.07,37.74-127.16s-26.95-88.15-62.86-118.08
					c0.52,33.4-0.86,66.83-4.14,100.07c-3.11,31.62-7.89,63.95-0.33,94.82C156.75,744.98,165.59,762.26,181.84,776.97z"/>
				<g>
					<path class="st2" d="M179.18,817.51c0-111.74,29.65-147.81-13.79-265.73"/>
					<path class="st2" d="M186.07,571.16c-3.03,6.47-6.06,12.95-9.09,19.42c-5.39-2.66-11.29-4.26-17.28-4.72"/>
					<path class="st2" d="M155.81,638.38c11.39,0.45,22.65,3.53,32.7,8.89c6.67-8.23,14.61-15.45,23.43-21.34"/>
					<path class="st2" d="M154.52,692.59c11.43-0.94,23.18,2.06,32.74,8.37c9.29-9.84,20-18.37,31.68-25.26"/>
					<path class="st2" d="M159.69,737.25c8.58,0.92,16.78,5.01,22.64,11.31c6.2-8.45,13.78-15.92,22.35-21.99"/>
				</g>
			</g>
			<g>
				<path class="st9" d="M202.23,774.57c0,0-24.06-52.63,6.76-110.22c17.03-31.82,53.82-70.55,99.7-102.93
					c0,0-21.84,118.88-48.97,168.59C238.81,768.3,202.23,774.57,202.23,774.57z"/>
				<g>
					<path class="st2" d="M292.08,584.43c-47.4,76.14-81.14,159.21-107.9,244.68"/>
					<path class="st2" d="M261.93,603.28c2.84,6.62,5.12,13.5,6.8,20.5c8.04-1.53,16.18-2.55,24.35-3.06"/>
					<path class="st2" d="M224.28,651.05c6.65,9.44,12.04,19.75,15.95,30.59c12.54-6.05,26.04-10.14,39.85-12.09"/>
					<path class="st2" d="M202.15,691.45c8.14,10.45,14.32,22.4,18.11,35.05c14.12-5.95,28.88-10.4,43.96-13.26"/>
					<path class="st2" d="M196.15,740.06c4.69,5.23,9.09,10.73,13.17,16.45c10.39-4.26,21.31-7.31,32.41-9.03"/>
				</g>
			</g>
			<g>
				<path class="st9" d="M156.86,784.22c0,0,20.85-29.57,5.44-80.86c-21.12-70.26-109.08-120.1-109.08-120.1S76.8,679.4,95.2,727.3
					C113.84,775.76,156.86,784.22,156.86,784.22z"/>
				<g>
					<path class="st2" d="M162.3,810c0,0-12-96.7-97.43-213.26"/>
					<path class="st2" d="M95.83,617.12c-2.5,5.81-4.17,11.97-4.95,18.23c-5.97-1.69-12.18-2.55-18.4-2.53"/>
					<path class="st2" d="M84.55,682.23c11.65-1.8,23.73-0.95,35.01,2.45c2.19-10.45,7.11-20.34,14.14-28.42"/>
					<path class="st2" d="M159.11,702.4c-7.95,8.73-14.18,19.01-18.23,30.07c-11.04-4.78-23.78-5.59-35.35-2.25"/>
					<path class="st2" d="M130.4,768.69c7.61-1.39,15.45-1.48,23.09-0.31c2.66-6.11,6.47-11.72,11.18-16.43"/>
				</g>
			</g>
		</g>
		<g>
			<polygon class="st10" points="234.36,792.36 231.07,810.95 227.46,831.4 225.55,842.12 221.94,862.58 212.32,917.05 
				142.05,917.05 132.24,862.58 128.56,842.12 126.64,831.4 122.93,810.95 119.59,792.36 			"/>
			<polygon class="st11" points="231.07,810.95 227.46,831.4 126.64,831.4 122.93,810.95 			"/>
			<polygon class="st11" points="225.55,842.12 221.94,862.58 132.24,862.58 128.56,842.12 			"/>
		</g>
	</g>
	<g>
		<g>
			<g>
				<g>
					<g>
						<rect x="249.87" y="888.54" class="st12" width="115.08" height="10.7"/>
						<g>
							<path class="st13" d="M269.57,789.47c0,0.27-0.03,0.55-0.06,0.81l-1.78,14.75l-15.92,131.39c-0.42,3.53-3.55,6.03-6.98,5.58
								c-3.17-0.41-5.5-3.17-5.5-6.36c0-0.27,0.03-0.55,0.06-0.81l15.72-129.8l1.97-16.32c0.44-3.51,3.55-6.03,6.98-5.58
								C267.26,783.52,269.57,786.28,269.57,789.47z"/>
							<path class="st12" d="M269.57,789.47c0,0.27-0.03,0.55-0.06,0.81l-1.78,14.75h-12.61l1.97-16.32
								c0.44-3.51,3.55-6.03,6.98-5.58C267.26,783.52,269.57,786.28,269.57,789.47z"/>
						</g>
						<g>
							<path class="st13" d="M315.25,788.36v147.25c0,3.56-2.8,6.42-6.25,6.42c-1.72,0-3.28-0.72-4.42-1.89
								c-1.12-1.16-1.83-2.75-1.83-4.55V788.35c0-3.56,2.81-6.42,6.25-6.42c1.73,0,3.3,0.72,4.42,1.89
								C314.54,784.99,315.25,786.6,315.25,788.36z"/>
							<path class="st12" d="M313.4,783.83c1.14,1.16,1.83,2.76,1.83,4.55v16.65h-12.51v-16.65c0-3.56,2.81-6.42,6.25-6.42
								C310.72,781.94,312.28,782.66,313.4,783.83z"/>
						</g>
						<g>
							<path class="st13" d="M378.14,935.61c0,3.22-2.31,5.97-5.48,6.37c-3.44,0.44-6.56-2.06-6.98-5.58l-15.92-131.39l-1.78-14.75
								c-0.03-0.27-0.06-0.55-0.06-0.81c0-3.19,2.33-5.94,5.5-6.36c3.44-0.44,6.55,2.06,6.98,5.58l1.97,16.32l15.72,129.8
								C378.12,935.09,378.14,935.34,378.14,935.61z"/>
							<path class="st12" d="M362.38,805.01h-12.61l-1.78-14.75c-0.03-0.27-0.06-0.55-0.06-0.81c0-3.19,2.33-5.94,5.5-6.36
								c3.44-0.44,6.55,2.06,6.98,5.58L362.38,805.01z"/>
						</g>
					</g>
					<g>
						<path class="st14" d="M389.53,771.76v4.17c0,7.3-5.9,13.2-13.2,13.2H258.17c-7.3,0-13.2-5.9-13.2-13.2v-4.17
							c0-7.3,5.9-13.2,13.2-13.2h118.16C383.62,758.54,389.53,764.46,389.53,771.76z"/>
						<path class="st15" d="M389.53,771.76v4.17c0,7.3-5.9,13.2-13.2,13.2H269.07c-7.3,0-13.2-5.9-13.2-13.2v-4.17
							c0-7.3,5.9-13.2,13.2-13.2h107.26C383.62,758.54,389.53,764.46,389.53,771.76z"/>
					</g>
				</g>
				<g>
					<path class="st16" d="M266.13,508.66c-1.48,3.03-2.98,6.08-4.31,9c-0.91,5.22-0.37,10.56,0,15.86s0.59,10.68-0.89,15.79
						c-1.48,5.11-4.94,9.92-10.03,11.87c-3.31,1.27-7.26,1.36-9.83,3.76c-2.91,2.73-2.7,7.33-1.64,11.11
						c0.89,3.17,2.3,6.33,4.81,8.53c2.52,2.2,6.56,3.64,9.31,2.05c2.72-1.59,6.33-0.44,8.29,1.97s2.89,5.51,4.83,7.95
						c2.75,3.47,7.36,5.26,11.87,5.37c4.51,0.11,9.33-0.53,12.34-2.41c6.45-4.05,14.5-6.73,21.1-2.94c3.48,2,6.23,5.19,10,6.62
						c3.2,1.22,6.94,0.98,9.95-0.61s4.17-5,6.06-7.61c3.47-4.78,11.87-0.92,17.68-2.5c6.22-1.7,10.4-8.53,8.95-14.64
						c-1.45-6.11-8.22-8.28-14.25-9.19c-4.14-0.62-5.84-5.89-6.8-9.83c-0.95-3.95-0.78-8.06-0.61-12.12
						c0.36-8.26,4.12-27.54,1.73-30.13c-1.25-1.36-5.94-4.8-7.64-5.56c-7.84-3.58-15.68-7.17-23.53-10.75
						c-7.14-3.26-14.62-6.59-22.51-6.37C283.18,494.07,271.79,497.15,266.13,508.66z"/>
					<g>
						<path class="st17" d="M293.31,583.07c0,0-34.8,5.5-38.49,17.82c-3.69,12.33,17.45,98.57,17.45,98.57l78.2-4.78
							c0,0,5.69-99.41-6.75-105.65C331.29,582.8,293.31,583.07,293.31,583.07z"/>
						<g>
							<path class="st18" d="M323.67,586.49c0,0-5.08,17.29-14.29,21.07c-9.2,3.8-29.35-19.28-29.35-19.28
								c4.06-2.58,5.59-8.78,6.09-14.43c0.5-5.75-0.06-10.9-0.06-10.9l27.96,5.37c-0.72,8.65,1.83,13.2,4.5,15.59
								C321.04,586.19,323.67,586.49,323.67,586.49z"/>
							<path class="st19" d="M318.51,583.93c-13.28,1.75-25.31-4.91-32.4-10.06c0.5-5.75-0.06-10.9-0.06-10.9l27.96,5.37
								C313.28,576.97,315.84,581.54,318.51,583.93z"/>
						</g>
					</g>
					<g>
						<g>
							<g>
								<path class="st20" d="M399.4,910.74c-3.01,5.01-55.35-27.24-55.35-32.8c0-3.62,6.83-8.87,11.58-12.06
									c2.55-1.72,4.48-2.86,4.48-2.86l12.22-5.61l5.5,2.95c8.01,13.81,15.67,28.2,19.5,38.21
									C399.6,904.48,400.52,908.88,399.4,910.74z"/>
								<path class="st19" d="M397.34,898.56c-15,0.62-34.82-23.64-41.69-32.7c2.55-1.72,4.48-2.86,4.48-2.86l12.22-5.61l5.5,2.95
									C385.87,874.15,393.51,888.54,397.34,898.56z"/>
							</g>
							<path class="st21" d="M345.55,702.05c0,0,95.26,12.06,98.49,36.44c3.23,24.37-59.75,131.98-59.75,131.98l-22.65-5.9
								l29.56-96.2l-75.84-32.18l15.11-34.15H345.55L345.55,702.05z"/>
						</g>
						<g>
							<g>
								<path class="st22" d="M376.25,913.52c-3.01,5.01-55.35-27.24-55.35-32.8c0-3.62,6.83-8.87,11.58-12.06
									c2.55-1.72,4.48-2.86,4.48-2.86l12.22-5.61l5.5,2.95c8.01,13.81,15.67,28.2,19.5,38.21
									C376.45,907.26,377.37,911.66,376.25,913.52z"/>
								<path class="st18" d="M374.19,901.34c-15,0.62-34.82-23.64-41.69-32.7c2.55-1.72,4.48-2.86,4.48-2.86l12.22-5.61l5.5,2.95
									C362.72,876.94,370.36,891.32,374.19,901.34z"/>
							</g>
							<g>
								<path class="st23" d="M265.21,693.88c0,0-33.01,65.27,25.07,72.31c42.19,5.12,70.16,4.09,71.03,6.44
									c1.44,3.76-27.45,94.9-27.45,94.9l28.45,9c0,0,58.88-126.45,55.67-137.47c-2.64-9.06-83.89-22.89-83.89-22.89
									c6.84-3.25,11.87-15.07,11.14-30.32L265.21,693.88z"/>
								<g>
									<path class="st24" d="M274.36,688.23c0,0-18.93,41.66-3.78,58.56c17.86,19.92,95.95,13.5,101.38,20.54
										c4.36,5.64-30.16,97.76-30.16,97.76"/>
									<line class="st24" x1="336.16" y1="863.7" x2="363.69" y2="872.09"/>
								</g>
							</g>
						</g>
					</g>
					<g>
						<path class="st19" d="M337.03,532.93c6.71-0.76,12.6,2.6,13.16,7.5c0.56,4.9-4.44,9.49-11.15,10.26
							c-6.71,0.76-12.6-2.6-13.16-7.5C325.33,538.28,330.32,533.69,337.03,532.93z"/>
						<g>
							<path class="st18" d="M270.58,532.53c0-23.17,14.72-41.94,34.48-41.94s35.79,18.78,35.79,41.94
								c0,23.17-10.11,43.1-28.71,43.82C293.39,577.07,270.58,555.68,270.58,532.53z"/>
							<path class="st19" d="M272.51,537.9c9.94-4.61,18.12-12.86,21.79-22.93c5.14,5.8,12.64,9.08,20.25,10.5
								s15.42,1.16,22.73,0.95c2.37,2.02,4.03,4.86,4.59,7.92c0.83-6.87,0.09-13.95-2.14-20.51c-19.68-6-39.24-12.37-58.69-19.1
								C278.13,508.58,275.22,522.44,272.51,537.9z"/>
						</g>
						<g>
							<path class="st25" d="M291.05,504.37c4.23,7.98,12.42,13.29,21.03,16.04c8.61,2.73,17.76,3.19,26.92,3.45
								c1.44,5.03,1.73,10.92,1.73,16.07c3.16-7.31,4.78-13.54,5.08-19.6c0.08-1.75,0.08-3.53,0.03-5.41
								c-0.45-12.75-5.73-20-12.81-25.43c-7.09-5.44-15.79-7.75-24.73-7.75c-8.83,0-14.43,2-17.79,5.48
								c-1.19,1.23-2.09,2.64-2.75,4.22C286.31,494.82,287.92,498.49,291.05,504.37z"/>
							<path class="st25" d="M261.62,540.7c-0.3-11.33-1.02-30.71,3.55-39.98c2.98-6.06,8.62-11.11,15.32-12.01
								c6.7-0.89,14.11,3.25,15.65,9.83c-2.97,15.22-10.61,29.18-21.43,40.13C270.96,540.48,265.43,541.69,261.62,540.7z"/>
							<path class="st26" d="M290.49,487.24c12.95-3.5,27.45-0.44,38.15,7.69c8.29,6.3,14.25,15.4,17.17,25.42
								c0.08-1.75,0.08-3.53,0.03-5.4c-0.45-12.75-5.73-20-12.81-25.43c-7.09-5.44-15.79-7.75-24.73-7.75
								C299.45,481.76,293.84,483.76,290.49,487.24z"/>
						</g>
						<path class="st18" d="M257.44,541.06c1.22-4.78,7.52-7.3,14.07-5.62c6.54,1.68,10.86,6.91,9.63,11.69
							c-1.22,4.78-7.52,7.3-14.07,5.62C260.53,551.07,256.22,545.84,257.44,541.06z"/>
						<g>
							<ellipse class="st27" cx="306.39" cy="544.09" rx="1.86" ry="2.97"/>
							<ellipse class="st27" cx="332.24" cy="544.11" rx="1.86" ry="2.97"/>
							<path class="st28" d="M326.81,530.27c3.19-1.08,7.72-0.84,10.86,1.31"/>
							<path class="st28" d="M307.98,529.94c-3.48-1.55-9.87-1.22-12.89,2.22"/>
							<path class="st29" d="M319.62,542.29c0.84,3.16,0.22,7.08-0.8,9.54"/>
							<path class="st29" d="M317.39,561.02c-4.12,0.81-11.59-1.55-13.62-4.98"/>
						</g>
					</g>
					<g>
						<g>
							<path class="st18" d="M332.24,597.02l13.95-8.42c0,0,11.76,1,19.73,15.64c7.92,14.56,22.84,61.63,27.54,63.7
								c4.7,2.08,62.02,2.81,62.02,2.81l0.78,16.79c0,0-70.2,11.14-78.58,6.53c-8.37-4.62-35.48-58.89-35.48-58.89L332.24,597.02z"
								/>
							<path class="st30" d="M331.38,595.13l2.69-9.4c0,0,15.4,0.66,23.28,6.83c7.87,6.17,14.32,22.95,14.32,22.95l-20.03,32.34
								L331.38,595.13z"/>
							<path class="st31" d="M355.14,659.97c0,0,21.51-18.57,24.82-23.21c1.64-2.3,13.28,24.74,11.31,28.06
								c-3.14,5.28-22.74,17.96-23.84,17.23C366.34,681.31,355.14,659.97,355.14,659.97z"/>
							<path class="st32" d="M349.5,643.05c6.48-10.29,12.97-20.57,19.43-30.87c0.36-0.56,0.73-1.16,1.3-1.53
								c1.61-1.08,3.95,0.25,4.61,2.06c0.67,1.83,0.19,3.84-0.31,5.72c2.08-0.33,3.95,1.7,4.2,3.78c0.27,2.09-0.64,4.14-1.62,6
								c-6,11.36-16.06,20.5-27.93,25.38C348.63,650.07,347.55,646.15,349.5,643.05z"/>
							<g>
								<path class="st18" d="M446.62,673.37c8.03-5.64,23.56-16.82,24.73-17.36c1.37-0.62,10.81-0.67,15.95,0.87
									c5.14,1.55,9.92,5.09,11.78,10.15c0.52,1.42,0.66,3.31-0.59,4.14c-0.81,0.55-1.94,0.36-2.78-0.14
									c-0.84-0.5-1.47-1.3-2.14-2.02c-3.44-3.73-6.55-5.2-12.18-5.51c6.69,1.02,10.93,5.14,12.93,11.64
									c0.39,1.3,0.55,2.94-0.5,3.78c-0.83,0.66-2.08,0.48-2.97-0.09c-0.89-0.58-1.5-1.48-2.17-2.31c-2.45-3.12-5.73-5.58-9.4-7.05
									c5.11,2.17,8.94,7.15,9.75,12.68c0.12,0.81,0.17,1.67-0.14,2.42c-0.31,0.75-1.11,1.36-1.91,1.22
									c-0.62-0.11-1.08-0.61-1.5-1.08c-2.78-3.14-4.97-6.48-8.67-8.73c3.37,4.5,6.22,11.81,5.51,13.72
									c-0.22,0.58-1.66,1.58-3.26-0.02c-1.83-1.83-3.11-4.95-5.95-8.44c-4.86,5.42-12.72,7.94-19.79,6.34
									C451.01,682.79,448.76,677.97,446.62,673.37z"/>
								<path class="st33" d="M461.2,666.22c5.7-2.05,11.51-3.8,17.42-5.2c0.78-0.19,1.59-0.37,2.39-0.28
									c0.8,0.09,1.61,0.52,1.95,1.23c0.36,0.75,0.12,1.67-0.36,2.34c-0.48,0.67-1.19,1.16-1.91,1.59
									c-2.48,1.55-5.12,2.86-7.9,4.19c-0.55,4.19-3.62,7.92-7.62,9.25"/>
							</g>
						</g>
						<path class="st22" d="M318.98,584.21c3.34,2.91,5.51,19.28,7.23,29.68c2.58,15.59,15.7,83.37,16.48,88.17
							c1.39,8.47,28.2,7.89,29.27,3.47c0.2-0.81-7.83-4.55-9.11-9.95c-1.14-4.84-10.04-99.21-14.34-104.18
							C342.85,584.83,317.9,583.27,318.98,584.21z"/>
					</g>
					<g>
						<path class="st22" d="M282.19,584.21c2.8,1,11.58,19.65,15.75,36.73c8.72,35.66,3.53,88.62,0,95.62
							c-3.53,7-37.74,10.08-43.55,8.22c-3.37-1.08-7.05-107.83-4.72-121.24C251.23,594.59,281.35,583.91,282.19,584.21z"/>
						<path class="st18" d="M333.44,703.46c7.22-2.64,28.1-8.14,30.99-7.84c2.91,0.3,5.92,1.34,7.75,3.78
							c1.17,1.56,1.75,3.55,2.3,5.47c0.89,3.12,1.78,6.25,2.67,9.37c0.31,1.09,0.62,2.23,0.47,3.36c-0.16,1.12-0.94,2.25-2,2.33
							c-1.5,0.12-2.44-1.67-2.98-3.19c-1.41-3.89-2.81-7.78-4.2-11.59c0.92,4.8,1.83,9.61,2.75,14.4c0.22,1.14,0.44,2.31,0.17,3.44
							c-0.27,1.12-1.14,2.17-2.22,2.16c-1.59-0.03-2.36-2.08-2.72-3.76c-0.8-3.75-1.61-7.51-2.84-11.23
							c1.66,5.28,1.91,11.06,0.69,16.48c-0.19,0.83-0.44,1.7-1,2.3c-0.56,0.59-1.56,0.81-2.16,0.25c-0.45-0.42-0.55-1.14-0.61-1.78
							c-0.48-4.84-0.97-9.7-1.45-14.54c0.47,5.11,0.92,10.37-0.52,15.26c-0.25,0.87-0.59,1.75-1.23,2.34
							c-0.64,0.59-1.67,0.78-2.33,0.22c-0.64-0.55-0.72-1.53-0.75-2.41c-0.11-3.05-0.22-6.09-0.23-9.65
							c-2.69,3.14-6.4,5.23-10.33,5.84c-3.92,0.61-8.03-0.3-11.89-1.53C332.12,717.25,332.44,711.57,333.44,703.46z"/>
						<path class="st22" d="M280.02,616.09c-2.19-10.11-11.25-26.49-18.64-23.1c-4.23,1.95-16.43,6.03-16.43,32.76
							c0,36.13,4.75,83.61,16.43,91.56c5.94,4.05,70.86,8.01,70.86,8.01l4.75-23.26c0,0-47.85-8.87-50.05-15.43
							C283.83,677.36,285.83,642.97,280.02,616.09z"/>
						<g>
							<path class="st34" d="M274.36,610.54c8.03,27.15,9.72,73.34,10.9,76.12c1.08,2.53,7.19,3.59,11.98,5.23"/>
							<path class="st34" d="M283.53,721.44c-8.9-0.89-19.96-2.62-22.43-4.47c-2.91-2.17-6.45-12.79-8.95-20.04"/>
							<path class="st34" d="M282.24,655.46c3.2-4.01,4.51-10.67,4.78-18.78"/>
						</g>
					</g>
				</g>
			</g>
			<g>
				<g>
					<g>
						<g>
							<rect x="519.31" y="885.76" class="st12" width="115.08" height="10.42"/>
							<g>
								<path class="st13" d="M539.02,789.27c0,0.27-0.03,0.53-0.06,0.8l-1.78,14.36l-15.92,127.95c-0.42,3.44-3.55,5.87-6.98,5.44
									c-3.17-0.41-5.5-3.09-5.5-6.19c0-0.27,0.03-0.53,0.06-0.8l15.72-126.42l1.97-15.9c0.44-3.42,3.55-5.87,6.98-5.44
									C536.69,783.49,539.02,786.18,539.02,789.27z"/>
								<path class="st12" d="M539.02,789.27c0,0.27-0.03,0.53-0.06,0.8l-1.78,14.36h-12.61l1.97-15.9
									c0.44-3.42,3.55-5.87,6.98-5.44C536.69,783.49,539.02,786.18,539.02,789.27z"/>
							</g>
							<g>
								<path class="st13" d="M584.68,788.19v143.4c0,3.47-2.8,6.25-6.25,6.25c-1.72,0-3.28-0.69-4.42-1.83
									c-1.12-1.12-1.83-2.69-1.83-4.42v-143.4c0-3.47,2.81-6.25,6.25-6.25c1.73,0,3.3,0.69,4.42,1.83
									C584,784.91,584.68,786.47,584.68,788.19z"/>
								<path class="st12" d="M582.86,783.77c1.14,1.12,1.83,2.7,1.83,4.42v16.23h-12.51v-16.23c0-3.47,2.81-6.25,6.25-6.25
									C580.17,781.94,581.73,782.64,582.86,783.77z"/>
							</g>
							<g>
								<path class="st13" d="M647.59,931.61c0,3.12-2.31,5.81-5.48,6.22c-3.44,0.44-6.56-2-6.98-5.44l-15.92-127.95l-1.78-14.36
									c-0.03-0.27-0.06-0.53-0.06-0.8c0-3.09,2.33-5.78,5.5-6.19c3.44-0.44,6.55,2.02,6.98,5.44l1.97,15.9l15.72,126.42
									C647.57,931.11,647.59,931.36,647.59,931.61z"/>
								<path class="st12" d="M631.83,804.42h-12.61l-1.78-14.36c-0.03-0.27-0.06-0.53-0.06-0.8c0-3.09,2.33-5.78,5.5-6.19
									c3.44-0.44,6.55,2.02,6.98,5.44L631.83,804.42z"/>
							</g>
						</g>
						<g>
							<path class="st14" d="M658.98,771.76v4.17c0,7.3-5.9,13.2-13.2,13.2H527.62c-7.3,0-13.2-5.9-13.2-13.2v-4.17
								c0-7.3,5.9-13.2,13.2-13.2h118.16C653.07,758.54,658.98,764.46,658.98,771.76z"/>
							<path class="st15" d="M658.98,771.76v4.17c0,7.3-5.9,13.2-13.2,13.2H538.54c-7.3,0-13.2-5.9-13.2-13.2v-4.17
								c0-7.3,5.9-13.2,13.2-13.2h107.24C653.07,758.54,658.98,764.46,658.98,771.76z"/>
						</g>
					</g>
					<g>
						<g>
							<g>
								<g>
									<path class="st35" d="M504.22,583.07c2.37-3.89,0.06-8.95,0.81-13.45c0.22-1.25,0.72-2.52,1.72-3.31s2.58-0.91,3.48-0.02
										c1.11,1.08,0.73,2.89,0.72,4.44c-0.03,2.78,1.3,5.36,1.87,8.08c1.41,6.59-2.09,12.01-5.44,17.7
										c-4.2,2.91-9.86,4.95-13.39,5.3c-2.22,0.22-13.57-6.05-18.01-19.51c-2.23-6.75-1.97-9.54-1.22-10.47
										c0.75-0.92,2.22-1.36,3.17-0.64c0.58,0.42,0.84,1.14,1.08,1.81c1.42,4.05,2.83,8.09,4.22,12.29
										c-5.48-5.12-8.54-12.73-8.11-20.23c0.08-1.44,0.52-3.17,1.89-3.59c0.87-0.28,1.86,0.12,2.52,0.78
										c0.66,0.66,1.06,1.5,1.45,2.34c1.97,4.26,3.95,8.51,6.72,13.57c-5.01-4.75-7.15-12.31-5.37-18.98
										c0.3-1.12,0.97-2.44,2.14-2.45c1.19-0.02,1.89,1.3,2.31,2.42c2,5.36,4,10.73,6,16.09c-2.86-4.45-4.08-9.94-3.37-15.18
										c0.25-1.91,1.22-4.2,3.16-4.28c1.09-0.05,2.11,0.7,2.69,1.64c0.58,0.94,0.81,2.03,1.08,3.11
										C497.83,566.65,500.55,572.46,504.22,583.07z"/>
									<path class="st36" d="M475.97,571.32c1.78-0.48,3.03,0.14,3.72,2.72c0.97,3.64,3.55,12.08,6.2,13.95"/>
								</g>
								<polygon class="st35" points="507.95,593.17 514.5,608.44 497.19,618.92 489.49,598.55 								"/>
							</g>
							<g>
								<g>
									<path class="st37" d="M507.23,575.21c-1.25-6.98-6.51-12.09-12.53-12.73l-0.09-0.48c0,0-3.14,0.56-4.19,0.8
										c-6.84,1.53-11.08,9.2-9.67,17.14c1.42,7.94,8.05,13.65,15,12.73c1.06-0.14,4.2-0.7,4.2-0.7l-0.09-0.48
										C505.3,588.81,508.48,582.21,507.23,575.21z"/>
								</g>
								<path class="st38" d="M494.35,562.04c7.3-1.3,14.42,4.35,15.9,12.64s-3.25,16.05-10.55,17.35
									c-7.3,1.3-14.42-4.35-15.9-12.64C482.32,571.11,487.05,563.34,494.35,562.04z"/>
								<g>
									<path class="st17" d="M507.19,575.22c-1.14-6.36-6.62-10.72-12.25-9.72c-0.09,0.02-0.2,0.03-0.3,0.06
										c-5.45,1.14-8.95,7.03-7.83,13.28c1.12,6.26,6.42,10.58,11.95,9.76c0.09,0,0.2-0.03,0.3-0.05
										C504.67,587.58,508.33,581.6,507.19,575.22z"/>
								</g>
							</g>
						</g>
						<path class="st6" d="M561.05,589.1l-10.65-8.11c0,0-6.95,3.94-10.65,12.17c-3.7,8.23-8.61,35.71-8.61,35.71l-19.9-33.05
							l-25.35,18c0,0,28.12,71.17,45.05,72.03c16.93,0.86,28.85-14.82,28.85-14.82L561.05,589.1z"/>
					</g>
					<g>
						<g>
							<polygon class="st18" points="477.07,896.65 480.3,917.04 493.64,922.46 508.97,915.13 506.19,895.04 							"/>
							<g>
								<path class="st39" d="M517.59,942.05l-69.16-1c0,0-0.47-1.44-0.66-3.51c-0.28-3.26,0.17-8.06,4.28-11.28
									c5.81-4.51,15.04-5.14,21.04-7.47c3.59-1.39,5.76-4.94,5.76-4.94l9.84,0.56c0,0,0.81,5.48,4.47,5.16
									c3.66-0.33,15.73-6.25,15.73-6.25c6.25,10.68,8.08,19.31,8.58,24.21C517.76,940.42,517.59,942.05,517.59,942.05z"/>
								<path class="st40" d="M517.59,942.05l-69.16-1c0,0-0.47-1.44-0.66-3.51h69.69C517.76,940.42,517.59,942.05,517.59,942.05z"
									/>
							</g>
						</g>
						<g>
							<g>
								<polygon class="st18" points="559.77,896.65 563,917.04 576.34,922.46 591.67,915.13 588.89,895.04 								"/>
								<g>
									<path class="st39" d="M600.29,942.05l-69.16-1c0,0-0.47-1.44-0.66-3.51c-0.28-3.26,0.17-8.06,4.28-11.28
										c5.81-4.51,15.04-5.14,21.04-7.47c3.59-1.39,5.76-4.94,5.76-4.94l9.84,0.56c0,0,0.81,5.48,4.47,5.16
										c3.66-0.33,15.73-6.25,15.73-6.25c6.25,10.68,8.08,19.31,8.58,24.21C600.46,940.42,600.29,942.05,600.29,942.05z"/>
									<path class="st40" d="M600.29,942.05l-69.16-1c0,0-0.47-1.44-0.66-3.51h69.69C600.46,940.42,600.29,942.05,600.29,942.05z"
										/>
								</g>
							</g>
							<g>
								<path class="st41" d="M555.71,695.13l-11.33,18.36c0,0-64.84,9.87-75.34,25.76c-9.69,14.65,3.44,163.18,3.44,163.18h44.54
									c0,0-3.41-109.71,0-119.86s105.52-9.58,111.38-23.35c5.86-13.78,7.81-62.13,7.81-62.13"/>
								<path class="st42" d="M638.01,716.32c0,0,2.52,39.76-10.54,49.27c-11.34,8.26-40.18,10.42-40.18,10.42l5.56,123.66
									l-42.58,2.78c0,0-21.15-144.33-20.15-158.17s41.96-23.85,39.16-25.82c0,0-31.57-10.72-19.87-22.49
									c0.27-0.27,0.56-0.55,0.86-0.81c2.72-2.41,35.98,0.08,35.98,0.08l30.66-2.81l12.14,13.76L638.01,716.32z"/>
							</g>
						</g>
					</g>
					<path class="st41" d="M636.44,728.91c-0.27,1.95-0.56,4.05-0.87,6.17c-5.25-6.67-13.73-16.43-21.21-20.54
						c-15.51-8.53-65.09-14.36-65.09-14.36l0.19-4.23c0.27-0.27,0.56-0.55,0.86-0.81c2.72-2.41,35.98,0.08,35.98,0.08l30.66-2.81
						l12.14,13.76L636.44,728.91z"/>
					<g>
						<g>
							<path class="st35" d="M615.89,569.16c0,0-18.26,23.59-29.63,22.39c-11.37-1.2-20.26-13.79-20.26-13.79s4.56-1.69,6.53-9.14
								c1.16-4.3,1.42-10.51-0.55-19.43l33.8-5.01c0,0-0.23,5.64,1.27,11.72C608.33,561.07,610.86,566.6,615.89,569.16z"/>
							<path class="st19" d="M572.53,568.63c1.16-4.3,1.42-10.51-0.55-19.43l33.8-5.01c0,0-0.23,5.64,1.27,11.72
								C597.93,563.57,585.37,568.19,572.53,568.63z"/>
						</g>
						<g>
							<g>
								<path class="st19" d="M540.93,529.19c0.52-4.57,6.01-7.7,12.27-6.99c6.26,0.71,10.91,4.99,10.39,9.56
									c-0.52,4.57-6.01,7.7-12.27,6.99C545.06,538.04,540.41,533.76,540.93,529.19z"/>
								<g>
									<path class="st43" d="M553.77,530.41v-0.12c0-1.5-1.22-2.72-2.72-2.72h-1.52c-1.5,0-2.72,1.22-2.72,2.72v0.12
										c0,1.5,1.22,2.72,2.72,2.72h1.52C552.55,533.12,553.77,531.91,553.77,530.41z"/>
									<rect x="546.82" y="530.34" class="st43" width="2.28" height="6.25"/>
								</g>
							</g>
							<g>
								<path class="st35" d="M617.24,517.36c0-21.59-14.93-39.1-33.37-39.1s-33.37,11.53-33.37,39.1
									c0,21.59,8.37,40.32,28.21,41.63C597.1,560.2,617.24,538.97,617.24,517.36z"/>
								<path class="st19" d="M613.3,527.58c-6.11-5.87-10.64-13.37-12.86-21.73c-3.11,1-6.69,0.37-8.95-1.36
									c-6.78,2.75-14.81,2.23-20.96-1.2c-4.81,2.25-10.67,2.14-15.54-0.48c-2.34,3.19-4.09,6.8-5.17,10.61
									c0.47-7.44,0.95-14.87,1.44-22.32c17.61-2.48,35.3-4.22,53.05-5.19c1-0.06,2.06-0.09,2.97,0.36
									c1.33,0.69,1.91,2.25,2.34,3.69C613.36,502.29,615.27,515.19,613.3,527.58z"/>
							</g>
							<g>
								<path class="st39" d="M621.78,488.7c-0.73,11.09-1.45,25.4-2.19,36.35c-1.03,3.76-4.26,3.62-8.65,5.03
									c-4.08-9.09-6.58-18.87-8.09-29.62c-4.26,1.12-8.89,0.81-13.25-0.87c-6.53,2.52-13.93,2.64-20.64-0.05
									c-5.06,1.67-10.58,2-15.34,0.28c-1.8,5.45-2.67,13.73-3.14,19.54c-0.62-5.33-2.69-21.81-3.2-33.1
									c-0.22-4.84-0.17-8.73,0.39-10.39c2.09-6.14,8.87-4.16,10.68-2.05c1.23-2.84,3.87-5.05,6.89-5.75
									c3.01-0.7,6.36,0.11,9.12,2.17c1.89-3.55,5.8-5.92,9.79-6.01c4.01-0.06,8,2.17,9.39,6c1.86-1.03,3.81-1.97,5.89-2.37
									c2.09-0.39,4.36-0.19,6.15,0.95c0.86,0.55,1.59,1.33,2.16,2.3c0.61,1.02,1.02,2.22,1.2,3.51c1.69-2.36,5.25-2.8,7.8-1.45
									c2.56,1.34,4.14,4.08,4.78,6.9C622.17,482.89,621.99,485.82,621.78,488.7z"/>
								<path class="st44" d="M607.76,471.11c-2.22-0.97-4.73-1.22-7.09-0.69c-2.97,0.67-5.64,2.58-7.12,5.47
									c-1.39-3.73-5.34-6.34-9.33-6.15c-3.98,0.2-7.67,3.17-9.5,7.83c-2.14-2.53-5.61-3.91-8.9-3.51s-6.36,2.5-7.81,5.81
									c-1.14-1.34-3.2-1.59-4.86-0.98c-1.64,0.62-2.94,1.97-3.91,3.44c-0.83,1.23-1.45,2.56-1.97,3.94
									c-0.22-4.84-0.17-8.73,0.39-10.39c2.09-6.14,8.87-4.16,10.69-2.05c1.23-2.84,3.87-5.05,6.89-5.75
									c3.01-0.7,6.36,0.11,9.12,2.17c1.89-3.55,5.8-5.92,9.79-6.01c4.01-0.06,8,2.17,9.39,6c1.86-1.03,3.81-1.97,5.89-2.37
									c2.09-0.39,4.36-0.19,6.15,0.95C606.46,469.36,607.19,470.14,607.76,471.11z"/>
							</g>
							<g>
								<path class="st45" d="M564.03,515.71c-2.87-0.69-6.03-0.11-8.48,1.55"/>
								<path class="st45" d="M586.07,516.27c3.12-1.36,6.94-0.98,9.75,0.95"/>
								<path class="st46" d="M572.7,528.2c0.08,3.09,0.39,6.17,0.91,9.22"/>
								<path class="st46" d="M577.06,546.01c3.75,0.14,7.55-1.27,10.29-3.81"/>
								<path class="st47" d="M587.29,527.52c0.94-0.17,1.88,0.7,2.1,1.93c0.22,1.23-0.37,2.37-1.31,2.53
									c-0.94,0.17-1.88-0.7-2.1-1.93C585.75,528.82,586.34,527.69,587.29,527.52z"/>
								<path class="st47" d="M561.13,527.88c0.94-0.17,1.88,0.7,2.1,1.93c0.22,1.23-0.37,2.37-1.31,2.53
									c-0.94,0.17-1.88-0.7-2.1-1.93C559.6,529.18,560.19,528.04,561.13,527.88z"/>
							</g>
							<g>
								<path class="st35" d="M614.36,522.2c6.24-0.86,11.81,2.14,12.43,6.69c0.63,4.56-3.92,8.95-10.16,9.81
									c-6.24,0.86-11.81-2.13-12.43-6.69C603.57,527.45,608.12,523.06,614.36,522.2z"/>
								<g>
									<path class="st43" d="M614,530.41v-0.12c0-1.5,1.22-2.72,2.72-2.72h1.52c1.5,0,2.72,1.22,2.72,2.72v0.12
										c0,1.5-1.22,2.72-2.72,2.72h-1.52C615.22,533.12,614,531.91,614,530.41z"/>
									<rect x="618.67" y="530.34" class="st43" width="2.28" height="6.25"/>
								</g>
							</g>
						</g>
					</g>
					<g>
						<path class="st48" d="M611.74,563.99c0,0-18.51,11.18-21.73,15.2c-3.22,4.03-4.2,9.53-4.2,9.53s-4.44-9.36-5.44-10.14
							c-1-0.78-8.76-8.14-8.76-8.14l-9.11,6.9l-12.2,6.34l0.52,117.19l82.51,5.59l2.12-127.17L611.74,563.99z"/>
						<path class="st49" d="M585.71,589.41c-3.91,32.87,2.87,90.31-8.14,112.61"/>
						<path class="st50" d="M587.31,583.85c0,0,1.39-5.19,4.59-7.75c3.2-2.56,19.71-12.28,20.15-12.39
							c0.44-0.11,8.54,5.55,8.54,5.55l-12.25,17.39c0,0-12.56-8.83-15.5-8.08C590.04,579.3,587.31,583.85,587.31,583.85z"/>
						<path class="st50" d="M583.46,583.86c0,0-0.95-3.66-2.62-5.72c-1.94-2.39-8.34-9.29-9-9.25c-0.66,0.03-7.15,3.94-8.31,6.3
							c-1.16,2.36-0.5,13.51-0.5,13.51s10.97-10.44,15.25-9.25C581.12,580.25,583.46,583.86,583.46,583.86z"/>
					</g>
					<g>
						<path class="st6" d="M618.83,567.23c0,0-14.32,13.47-16.48,27.13c-2.16,13.67-1.33,85.59,11.93,109.52
							c11.5,20.76,12.59,86.89,12.59,117.58l40.24-13.87c0,0-0.17-55.07-13.17-106.05c-10.08-39.52-0.41-111.74-6.17-118.8
							C643.76,577.8,618.83,567.23,618.83,567.23z"/>
						<path class="st51" d="M601.85,643.97c0,0-3.33-37.99-0.11-50.22c3.22-12.23,12.53-27.77,15.04-28.32
							c4.16-0.89,13.45,6.31,13.45,6.31s-7.53,13.03-9.75,32.79c-0.2,1.78-14.97,7.23-14.97,7.23s11.53,8.44,11.37,9.26
							C616.72,621.89,601.85,643.97,601.85,643.97z"/>
					</g>
					<g>
						<g>
							<ellipse class="st38" cx="575.44" cy="708.71" rx="15.64" ry="9.73"/>
							<path class="st18" d="M596.87,695.96c-5.31-0.7-10.62-1.41-15.93-2.11c-1.42-0.19-2.95-0.36-4.25,0.25
								c-1.8,0.84-2.62,2.91-2.78,5.03c2.66,0.23,5.31,0.45,8,0.89c-3.25,4.47-7.23,8.4-11.72,11.64c-1,0.72-2.05,1.42-2.8,2.39
								c-0.77,0.97-1.19,2.28-0.8,3.45c0.41,1.16,1.56,1.94,2.77,2.17c1.2,0.23,2.44,0.03,3.87,0.11c-0.44,1.77,0.45,3.75,2.05,4.61
								c1.59,0.86,3.75,0.5,5.31-0.69c0.81,1.53,2.39,2.64,4.11,2.89s3.55-0.37,5.05-0.8c1.25,1.45,3.17,2.31,5.08,2.28
								c1.92-0.03,3.8-0.95,5.34-2.33c4.61-4.09,8.28-9.25,10.64-14.95C605.76,706.27,601.07,701.37,596.87,695.96z"/>
						</g>
						<g>
							<path class="st6" d="M622.61,597.22c-0.39-7.55,3.44-21.74,8.87-23.23c8.47-2.3,22.85,10.42,26.63,20.54
								c3.78,10.12,15.2,72.16,12,80.61c-4.39,11.53-62.36,42.54-62.36,42.54l-17.96-26.26c0,0,40.19-21.81,42.58-28.74
								C633.86,658.33,623.53,614.92,622.61,597.22z"/>
							<path class="st52" d="M642.06,584.22c0,0-6.48,8.48-6.48,23.76s3.75,51.46,2.87,52.78c-0.86,1.33-29.2,19.7-29.2,19.7"/>
							<path class="st52" d="M636.05,631.02c-4.28-5.08-7.23-11-8.56-17.2"/>
							<path class="st52" d="M620.66,711.44c9.2-5.01,22.51-12.84,30.52-19.23"/>
						</g>
					</g>
					<g>
						<path class="st6" d="M569.3,569.9c0,0-2.44,9.37-2.44,25.67c0,27.34-3.56,103.35-17.95,114.58
							c-11.31,8.83-25.48,8.26-31.91,8.26c0,0,13.39-7.12,18.39-15.39c5.56-9.19,6.5-38.38,7.23-53.6
							c0.78-16.12,2.23-60.55,4.08-64.42C550.69,576.65,569.3,569.9,569.3,569.9z"/>
						<path class="st51" d="M564.63,646.3c0,0,3.26-25.73,3.26-43.61c0-20.03,3.3-33.8,3.3-33.8s-11.37,3.61-12.62,5.45
							c-1.25,1.84-7.14,12.42-10.15,32.46c-0.5,3.31,12.93,6.05,12.93,6.05s-10.36,8.04-10.36,10.06
							C551,626.81,564.63,646.3,564.63,646.3z"/>
						<g>
							<path class="st52" d="M546.07,592.95c0,43.58-3.95,78.45-5.86,90.56"/>
							<path class="st52" d="M539.88,608.58c1.12,6.25,3.84,12.42,5.51,14.31"/>
						</g>
					</g>
				</g>
				<g>
					<path class="st53" d="M547.91,536.5c0,0,2.14,50.29,32.29,52.21c25.45,1.62,39.57-29.65,39.57-52.28"/>
					<g>
						<path class="st54" d="M582.11,589.33c0,0-18.54,67.77-69.98,80.01c-62.95,15-124.64-1.86-124.64-1.86"/>
						<path class="st54" d="M498.97,591.25c0,0,7.11,41.08-24.74,62.36c-28.21,18.85-86.75,13.03-86.75,13.03"/>
						<path class="st54" d="M560.86,708.46c0,0-115.38,0.23-174.18-40.97"/>
					</g>
				</g>
			</g>
		</g>
		<g>
			<path class="st55" d="M802.41,419.2c-0.7-12.31,8.23-24.49,20.18-27.51s25.6,3.47,30.82,14.64c4.47,9.56,2.94,20.76,0.78,31.1
				c-2.14,10.34-4.81,21.04-2.36,31.31c2.08,8.64,7.65,16.26,8.76,25.07c1.52,12.12-7.01,24.71-18.84,27.79
				c-6.69,1.73-15.32-0.41-17.45-6.98c-1.97-6.09,2.53-12.58,1.62-18.9c-0.77-5.31-5.09-9.25-8.65-13.25
				C804.16,467.69,803.98,446.39,802.41,419.2z"/>
			<g>
				<path class="st56" d="M687.71,574.8c-5.98-6.83-10.36-19.12-10.36-23.26c0-4.89-0.78-9.9,0.94-14.48
					c0.89-2.36,2.25-4.5,3.61-6.62c1.55-2.42,3.08-4.84,4.62-7.26c0.64-1,1.37-2.06,2.52-2.37c1.92-0.52,3.69,1.66,3.59,3.66
					c-0.11,1.98-1.42,3.67-3.69,5.44c0.86-3.64,2.7-7.05,5.26-9.76c0.67-0.72,1.58-1.44,2.55-1.22c1.58,0.37,1.53,2.62,1.11,4.19
					c-1.06,3.92-2.11,7.84-2.95,11.22c3.34,6.37,3.05,13.93,3.11,21.12c0.06,7.19,0.77,14.97,5.51,20.37
					C698.97,577.8,693.6,569.84,687.71,574.8z"/>
				<path class="st56" d="M687.02,573.96c0,0,15.86,54.17,27.84,55.28c14.5,1.36,26.28-12.04,26.28-12.04l9.47-48.52l-21.46-12.86
					l-11.84,38.88l-16.9-19.1L687.02,573.96z"/>
				<path class="st57" d="M758.42,576.77c-11.81-4.47-23.67-8.84-35.46-13.37c3.22-15.42,7.69-33.9,11.59-39.8
					c7.31-11.04,19.12-11.61,19.12-11.61l5.39,15.95l-0.64,48.5C758.42,576.44,758.42,576.57,758.42,576.77z"/>
				<g>
					<polygon class="st58" points="747.54,608.15 713.01,518.91 670.68,529.89 709.86,629.26 					"/>
					<polygon class="st17" points="741.79,603.25 710.68,523.81 676.16,533.17 710.17,620.09 					"/>
					<polygon class="st59" points="699.59,521.66 701.75,527.42 688.21,531.19 685.78,525.3 					"/>
				</g>
			</g>
			<g>
				<g>
					<g>
						<g>
							<path class="st10" d="M727.13,930.74c0.12,5.86,61.56,3.87,64.33-0.95c1.8-3.16-1.52-11.09-4.05-16.23
								c-1.34-2.77-2.47-4.72-2.47-4.72l-7.81-10.93l-6.23-0.17c-13.82,7.98-27.6,16.67-35.91,23.46
								C730.09,925.22,727.09,928.56,727.13,930.74z"/>
							<path class="st56" d="M734.99,921.21c12.7,8,41.96-3.19,52.43-7.64c-1.34-2.77-2.47-4.72-2.47-4.72l-7.81-10.93l-6.23-0.17
								C757.08,905.73,743.29,914.41,734.99,921.21z"/>
						</g>
						<polygon class="st56" points="753.85,873.64 756.02,897.59 756.8,906.18 757.35,912.08 782.2,909.47 782.4,905.3 
							782.4,905.29 782.61,900.91 783.98,872.61 784.12,869.77 768.98,871.7 						"/>
					</g>
					<polygon class="st60" points="753.85,873.64 756.02,897.59 768.45,899.13 768.47,899.13 778.95,900.46 782.61,900.91 
						783.98,872.61 768.98,871.7 					"/>
				</g>
				<path class="st57" d="M736.29,634.04c0,0-10.68,29.56-8.58,71.58c2.11,42.02,19.82,188.57,19.82,188.57l44.15-2.08l-7.56-189.17
					l-10.65-58.58"/>
			</g>
			<g>
				<g>
					<g>
						<g>
							<path class="st10" d="M837.59,930.14c3.89,4.37,49.36-36.99,48.35-42.44c-0.67-3.56-8.34-7.45-13.61-9.72
								c-2.81-1.22-4.94-1.98-4.94-1.98l-13.04-3.25l-4.86,3.91c-5.34,15.04-10.2,30.6-12.11,41.15
								C836.25,924.02,836.16,928.52,837.59,930.14z"/>
							<path class="st56" d="M837.39,917.79c14.86-2.16,29.87-29.65,34.94-39.82c-2.81-1.22-4.94-1.98-4.94-1.98l-13.04-3.25
								l-4.86,3.91C844.15,891.68,839.3,907.23,837.39,917.79z"/>
						</g>
						<polygon class="st56" points="820.89,869.36 831.22,879.47 844.23,892.2 848.48,896.34 865.71,878.25 863.15,874.92 
							855.7,865.27 841.42,846.77 						"/>
					</g>
					<polygon class="st60" points="820.89,869.36 831.22,879.47 855.7,865.27 841.42,846.77 					"/>
				</g>
				<g>
					<path class="st10" d="M730.41,661.81c4.3,11.93,36.65,32.96,36.65,32.96s-0.31,83.31,0.89,104.3
						c1.2,21,44.71,89.54,44.71,89.54l40.77-36.19c0,0-31.6-52.85-33.77-65.27c-2.17-12.43,11.5-77.73,11.5-104.32
						c0-4.91-0.45-9.98-1.2-15.01c-1.62-11.09-4.64-21.93-7.26-29.98c-2.61-8.04-4.81-13.33-4.81-13.33s-22.15,3.22-44.27,9.4
						c-20.25,5.65-40.41,13.82-43.49,24.24C729.81,659.24,729.93,660.47,730.41,661.81z"/>
					<path class="st61" d="M730.41,661.81c10.78,6.37,22.01,11.98,33.57,16.75c0.72-1.92,1.44-3.84,2.44-5.76
						c1.02,2.2,2.05,4.37,3.3,7.36c19.93-5,40.05-9.23,60.25-12.33c-1.62-11.09-4.64-21.93-7.26-29.98
						c-16.34-1.53-32.71-2.84-49.08-3.92c-20.25,5.65-40.41,13.82-43.49,24.24C729.81,659.24,729.93,660.47,730.41,661.81z"/>
				</g>
			</g>
			<path class="st10" d="M843.64,524.92c-1.55-9.37-37.02-21.42-49.08-20.32c-25.9,2.36-44.66,7.06-50.57,10.76
				c-5.9,3.7-11.29,38.29-11.29,47.93c0,11.4,3.92,33.79,2.87,42.82c-2.03,17.51-12.65,54.6-12.65,54.6l39.04,13.68l4.84-8.53
				l4.42,10.81l64.52-14.79c0,0-4.94-51.38-4.94-60.39C830.81,592.85,845.64,537.01,843.64,524.92z"/>
			<g>
				<path class="st62" d="M783.37,531.05c-12.97,67.53-13.68,86.87-16.64,134.31"/>
				<g>
					<circle class="st3" cx="785.09" cy="544.42" r="2.17"/>
					<circle class="st3" cx="779.65" cy="573.96" r="2.17"/>
					<circle class="st3" cx="775.47" cy="605.09" r="2.17"/>
					<circle class="st3" cx="773.3" cy="640.79" r="2.17"/>
				</g>
			</g>
			<g>
				<g>
					<g>
						<g>
							<g>
								<path class="st3" d="M708.08,572.85l6.47,0.52l0.5,0.05l43.36-11.39c2.97-1.58,3.47-4.01,2.77-6
									c-0.89-2.47-3.78-3.62-6.26-2.75l-41.37,14.62l-0.42,0.37L708.08,572.85z"/>
								<g>
									<path class="st63" d="M708.08,572.85l1.78,0.14l4.69,0.37c-0.14-0.11-0.3-0.22-0.42-0.36c-0.55-0.55-0.87-1.36-0.64-2.09
										c0.09-0.31,0.28-0.64,0.16-0.94c-0.06-0.14-0.19-0.23-0.28-0.34c-0.31-0.36-0.36-0.91-0.25-1.36l-3.7,3.37L708.08,572.85z"
										/>
									<path class="st64" d="M708.08,572.85l1.78,0.14c-0.19-0.2-0.31-0.44-0.39-0.7c-0.06-0.2-0.08-0.42-0.06-0.64L708.08,572.85
										z"/>
								</g>
							</g>
							<g>
								<path class="st56" d="M759.31,582.49c-4.26-7.9-8.51-15.81-13.06-23.73c-3.37-2.62-7.17-4.61-11.04-6.09
									c-4.62,1.5-8.97,4.26-12.54,7.98c-0.87,0.92-1.8,2.22-1.39,3.45c0.3,0.91,1.23,1.34,2.11,1.28
									c0.86-0.06,1.67-0.53,2.45-0.98c2.36-1.37,4.72-2.76,7.45-4.09c0.77,0.66,1.53,1.31,2.11,1.98
									c-1.59,0.02-3.19,0.05-5.09,0.59c-3.05,1.44-6.03,3.08-8.92,4.92c-0.81,0.52-1.7,1.2-1.8,2.23
									c-0.08,0.84,0.44,1.61,1.11,1.97c0.67,0.36,1.44,0.37,2.19,0.31c2.72-0.19,5.42-1.17,7.65-2.86
									c0.91,0.27,1.81,0.53,2.5,0.97c-1.17,0.22-2.34,0.44-3.44,0.98s-2.09,1.45-2.58,2.69c-0.48,1.23-0.31,2.8,0.33,4.09
									c-0.62,0.23-0.97,1.05-0.94,1.78s0.34,1.39,0.66,2.02c0.67,1.33,1.41,2.61,2.2,3.83c0.77,1.14,1.64,2.27,2.84,2.76
									c1.2,0.48,2.78,0.14,3.58-1.36c3.22,5.56,9.25,8.83,15.09,8.2C754.27,591.66,757.17,587.24,759.31,582.49z"/>
								<g>
									<path class="st65" d="M740.72,563.2c-1.55-0.64-3.19-0.86-4.86-1.03"/>
									<path class="st65" d="M737.58,570.02c-1.56-0.12-3.09-0.08-4.26,0.12"/>
									<path class="st65" d="M727.57,577.71c2.17-1.2,5.76-1.89,8.23-1.58"/>
									<path class="st65" d="M735.02,586.8c-0.77-1.23-1.44-3.26-1.73-4.69"/>
									<path class="st65" d="M733.79,584.66c-0.98,0.12-2.02,0.3-2.81,0.22"/>
								</g>
							</g>
						</g>
					</g>
					<g>
						<path class="st56" d="M748.16,593.41c0,0,53.99,45.79,68.56,40.63c5.8-2.06,11.54-18.87,15.72-34.52
							c3.84-14.39,6.34-27.77,6.34-27.77l-30.59-12.92c0,0-2.05,13.87-4.11,25.15c-1.36,7.61-2.73,14.03-3.47,14.22
							c-3.12,0.87-42.76-16.76-42.76-16.76L748.16,593.41z"/>
						<path class="st60" d="M804.08,583.99c7.3,4.78,18.76,11.83,28.34,15.54c3.84-14.39,6.34-27.77,6.34-27.77l-30.59-12.92
							C808.18,558.84,806.15,572.71,804.08,583.99z"/>
					</g>
				</g>
				<path class="st10" d="M838.76,588.03c-13.39-2.55-24.01-4.75-36.8-9.33c1.81-15.03,6.05-42.21,9.48-50.58
					c2.44-5.94,12.01-16.37,22.81-11.86c10.79,4.51,14.93,11.64,13.79,30.43C847.62,553.39,841.26,574.43,838.76,588.03z"/>
			</g>
			<g>
				<g>
					<g>
						<path class="st56" d="M773.5,511.44c0,0,3.14,14.22,9.2,18.37s29.01-21.4,29.01-21.4c-3.95-3.69-4.91-10.92-4.86-17.32
							c0.05-6.53,1.14-12.15,1.14-12.15l-27.96,8.08c0.28,6.9-0.28,11.89-1.16,15.47C776.97,510.24,773.5,511.44,773.5,511.44z"/>
						<path class="st60" d="M778.89,502.48c12.89,2.73,22.74-5.47,27.96-11.39c0.05-6.53,1.14-12.15,1.14-12.15l-27.96,8.08
							C780.32,493.93,779.76,498.9,778.89,502.48z"/>
					</g>
					<g>
						<g>
							<path class="st3" d="M783.73,530.31c-0.36-0.06,1.44-9.65,2.34-10.48c0.91-0.83,22.95-20.14,24.26-19.42
								c1.92,1.03,5.09,7.15,5.09,7.15s-4.53,6.14-13.08,13.08C796.48,525.41,787.1,530.89,783.73,530.31z"/>
							<path class="st3" d="M783.73,530.27c0.48-0.48-0.5-10-1.06-10.87c-1.83-2.89-4.92-10.42-4.92-15.54c0,0-5.56,2.11-6.25,3.33
								c-0.67,1.23,2.34,10.25,4.67,14.54C780.12,528.95,783.34,530.66,783.73,530.27z"/>
						</g>
					</g>
				</g>
				<g>
					<g>
						
							<ellipse transform="matrix(0.1126 -0.9936 0.9936 0.1126 209.7045 1165.08)" class="st60" cx="757.14" cy="465.13" rx="8.5" ry="11.64"/>
						<g>
							<path class="st56" d="M823.38,451.75c0-22.03-15.23-39.88-34.02-39.88s-34.02,17.86-34.02,39.88
								c0,22.03,9.39,43.93,28.43,43.15C802.52,494.12,823.38,473.78,823.38,451.75z"/>
							<path class="st60" d="M815.83,461.2c-3.95-4.3-6.45-12.4-7.06-15.86c-3.78-1.09-8.36-4.72-10.65-9.61
								c-5.76,5.76-27.67,9.01-34.98,7.11c-5.2,6.42-5.36,9.61-7.2,17.81c-1.19-10.01-0.66-20.23,1.55-30.07
								c13.7-4.42,27.1-9.75,40.1-15.97c2.22-1.06,4.87-2.14,7-0.89c1.36,0.8,2.06,2.34,2.76,3.76c2.94,5.98,7.15,11.34,12.28,15.61
								c1.33,1.11,2.84,2.36,2.91,4.08c0.05,1.12-0.55,2.16-1.09,3.14C818.99,444.83,819.41,455.69,815.83,461.2z"/>
						</g>
						<g>
							<path class="st66" d="M749.55,438.26c-0.11,8.34,6.69,25.67,6.69,25.67s0.05-14.26,6.55-23.53c13.45,0,28.35-0.62,36.6-8.28
								c2.39,6.06,6.5,9.59,11.45,11.25c-0.16,7.56,3.31,14.64,5.48,21c4.23-2.58,7.42-1.48,10.87-5.56
								c2-7.39,4.12-18.93,3.51-26.07c-0.5-5.75-2.06-11.56-5.19-16.39c-0.73-1.16-1.58-2.27-2.5-3.3
								c-4.81-5.33-12.4-8.44-19.35-6.7c-3.84-4.62-9.78-7.36-15.7-7.69c-5.94-0.33-11.83,1.53-17,4.48
								c-10.08,5.73-17.95,14.61-20.53,26.95C749.88,432.74,749.6,435.48,749.55,438.26z"/>
							<path class="st67" d="M749.55,438.26c0.28-1.08,0.62-2.14,1.02-3.19c1.92-5.08,5.05-9.64,8.64-13.72
								c5.42-6.22,12.15-11.58,20.1-13.79c7.95-2.2,17.18-0.81,23.12,4.92c7.5-3.19,16.7-1.45,23.07,3.84
								c-0.73-1.16-1.58-2.27-2.5-3.3c-4.81-5.33-12.4-8.44-19.35-6.7c-3.84-4.62-9.78-7.36-15.7-7.69
								c-5.94-0.33-11.83,1.53-17,4.48c-10.08,5.73-17.95,14.61-20.53,26.95C749.88,432.74,749.6,435.48,749.55,438.26z"/>
						</g>
						<path class="st56" d="M821.3,457.04c6.23-1.59,12.22,0.8,13.38,5.35c1.16,4.55-2.94,9.52-9.17,11.12
							c-6.23,1.59-12.22-0.8-13.38-5.35C810.97,463.62,815.08,458.64,821.3,457.04z"/>
					</g>
					<g>
						<g>
							<ellipse class="st68" cx="791.67" cy="466.5" rx="1.48" ry="2.37"/>
							<ellipse class="st68" cx="764.41" cy="466.5" rx="1.48" ry="2.37"/>
							<path class="st69" d="M768.78,452.11c-2.84-0.98-6.11-0.73-8.76,0.7"/>
							<path class="st69" d="M789.35,453.35c3.19-1.39,7.08-1,9.94,0.97"/>
							<path class="st70" d="M774.61,468.31c-0.25,1.53-0.23,5.19,0.03,6.67"/>
						</g>
						<path class="st70" d="M776.28,481.57c4.14,1.64,8.47,0.75,10.7-2.64"/>
					</g>
				</g>
			</g>
		</g>
	</g>
	<g>
		<circle class="st71" cx="296.05" cy="374.91" r="57.31"/>
		<g>
			<path class="st72" d="M258.6,355.63c12.54-23.37,37.35,8,37.35,8s24.85-26.81,37.35-9.39c12.98,18.07-37.35,60.17-37.35,60.17
				S247.93,375.52,258.6,355.63z"/>
			<polyline class="st73" points="254.46,381.86 271.85,382.05 277.25,360.9 288.39,401.11 297.2,352.4 306.78,396.27 312.5,364.46 
				318.62,381.14 337.63,381.66 			"/>
		</g>
	</g>
	<g>
		<circle class="st71" cx="454.7" cy="464.23" r="58.58"/>
		<g>
			<path class="st6" d="M485.96,466.83l-44.83,25.68c-8.53,4.89-19.4,1.94-24.28-6.58c-2.44-4.26-2.92-9.11-1.73-13.51
				c1.19-4.41,4.05-8.33,8.33-10.78l44.83-25.68c8.51-4.87,19.39-1.92,24.28,6.61c2.44,4.26,2.92,9.11,1.72,13.5
				C493.08,460.47,490.22,464.39,485.96,466.83z"/>
			<path class="st72" d="M485.96,466.83l-22.43,12.84l-17.68-30.87l22.43-12.84c8.51-4.87,19.39-1.92,24.28,6.61
				c2.44,4.26,2.92,9.11,1.72,13.5C493.08,460.47,490.22,464.39,485.96,466.83z"/>
		</g>
	</g>
	<g>
		<circle class="st71" cx="603.68" cy="356.17" r="57.31"/>
		<g>
			<g>
				<path class="st6" d="M632.89,327.41v39.29c0,9.58-4.86,18.54-12.97,23.82L603.68,400l-14.9-9.67
					c-8.87-5.12-14.32-14.53-14.32-24.67v-38.26l29.02-8.31l0.2,0.06L632.89,327.41z"/>
				<path class="st74" d="M632.89,327.41v39.29c0,9.58-4.86,18.54-12.97,23.82L603.68,400v-80.84L632.89,327.41z"/>
			</g>
			<g>
				<rect x="596.93" y="337.34" class="st72" width="13.48" height="44.4"/>
				<rect x="581.47" y="352.8" class="st72" width="44.4" height="13.48"/>
			</g>
		</g>
	</g>
</g>
</svg>
