<?xml version="1.0" encoding="UTF-8"?><svg id="Capa_2" xmlns="http://www.w3.org/2000/svg" viewBox="0 0 1019.32 648.26"><defs><style>.cls-1{fill:#fff;}.cls-2{fill:#ff735d;}.cls-3{fill:#fafafa;}.cls-4{opacity:.6;}.cls-5{fill:#f5f5f5;}.cls-6{fill:#e1e1e1;}.cls-7{fill:#7c4236;}.cls-8{opacity:.3;}.cls-9{fill:#ffc19d;}.cls-10{fill:#ff9c6a;}.cls-11{fill:#375a64;}.cls-12{fill:#eb4a2a;}.cls-13{fill:#c07560;}.cls-14{fill:#004980;}.cls-15{fill:#ececec;}.cls-16{fill:#1a2e35;}</style></defs><g id="Capa_1-2"><g><g><g><path class="cls-15" d="M79.07,522.12c.08-13.67,9.02-22.41,9.02-22.41,2.73,11.25-9.02,22.41-9.02,22.41Z"/><path class="cls-15" d="M92.17,515.77c12.57-5.38,24.15-.67,24.15-.67-9.22,6.99-24.15,.67-24.15,.67Z"/><path class="cls-15" d="M93.66,508.49c-2.18-10.57,3.28-18.77,3.28-18.77,3.95,8.24-3.28,18.77-3.28,18.77Z"/><path class="cls-15" d="M43,482.2c19.15,5.1,29.42,21.74,29.42,21.74-16.37,.01-29.42-21.74-29.42-21.74Z"/><path class="cls-15" d="M73.59,490.04c-1-20.64,19.18-44,19.18-44-3.05,25.63-19.18,44-19.18,44"/><path class="cls-15" d="M73.49,431.26c.86,16.74-7.25,29.56-7.25,29.56-2.85-13.28,7.25-29.56,7.25-29.56Z"/><path class="cls-15" d="M65.71,473.2c-15.09-1.62-23.3-16.63-23.3-16.63,18.25,5.11,23.3,16.63,23.3,16.63Z"/><path class="cls-15" d="M33.16,536.29c11.53-7.35,23.72-4.57,23.72-4.57-7.97,8.39-23.72,4.57-23.72,4.57Z"/><path class="cls-15" d="M72.26,543.07c-2.86,7.89-10.14,11.42-10.14,11.42,.65-6.96,10.14-11.42,10.14-11.42Z"/><path class="cls-15" d="M70.32,540.85c-8.58,5.28-18.05,3.22-18.05,3.22,5.81-6.05,18.05-3.22,18.05-3.22Z"/><path class="cls-6" d="M78.04,568.63s-.02-.1-.03-.31c0-.24-.01-.54-.02-.9,0-.85,0-2,0-3.46,.01-1.5,.01-3.34-.03-5.47-.03-2.13-.04-4.56-.15-7.24-.13-5.37-.51-11.75-1.06-18.82-.61-7.07-1.47-14.82-2.65-22.92-2.39-16.21-5.64-30.7-8.26-41.1-1.32-5.2-2.43-9.4-3.24-12.29-.38-1.41-.68-2.52-.9-3.34-.09-.35-.16-.64-.22-.87-.05-.2-.06-.3-.05-.3,.01,0,.05,.09,.12,.28,.08,.23,.17,.51,.28,.85,.25,.81,.59,1.91,1.02,3.3,.89,2.87,2.07,7.05,3.45,12.25,2.74,10.39,6.08,24.88,8.47,41.12,1.18,8.12,2.02,15.89,2.61,22.97,.52,7.09,.85,13.48,.92,18.86,.08,2.69,.05,5.12,.05,7.25,0,2.13-.03,3.97-.08,5.47-.05,1.46-.09,2.61-.12,3.46-.02,.36-.04,.66-.05,.9-.01,.2-.03,.31-.04,.31Z"/><path class="cls-6" d="M50.34,524.94c.11-.15,6.2,3.84,13.62,8.93,7.42,5.09,13.35,9.33,13.24,9.49s-6.2-3.84-13.62-8.93c-7.42-5.08-13.34-9.33-13.24-9.49Z"/><path class="cls-6" d="M77.2,527.14s.3-.4,.94-1.03c.75-.72,1.65-1.59,2.72-2.62,2.44-2.29,5.59-5.24,9.07-8.51,3.48-3.26,6.63-6.21,9.07-8.5,1.07-1.01,1.99-1.87,2.75-2.58,.65-.6,1.03-.92,1.07-.89,.03,.03-.28,.41-.88,1.07-.59,.67-1.49,1.59-2.6,2.73-2.23,2.27-5.39,5.34-8.94,8.66-3.55,3.32-6.82,6.26-9.21,8.37-1.2,1.05-2.17,1.89-2.86,2.46-.69,.57-1.08,.86-1.11,.83Z"/><path class="cls-15" d="M30.97,515.16s15.59-.3,22.19,11.98c0,0-13.3,.44-22.19-11.98Z"/><path class="cls-15" d="M52.27,508.9s12.7,9.06,10.68,22.84c0,0-10.94-7.58-10.68-22.84Z"/><path class="cls-15" d="M119.15,486.59s-5.01,17.46-20.93,20.59c0,0,4.07-14.95,20.93-20.59Z"/><path class="cls-15" d="M45.34,421.69s19.9,12.98,17.69,34.09c0,0-17.13-10.84-17.69-34.09Z"/></g><path class="cls-6" d="M111.56,537.12s-.44,.41-1.29,1.04c-.86,.62-2.09,1.55-3.57,2.73-2.97,2.35-6.91,5.82-10.77,10.12-3.86,4.31-6.89,8.59-8.91,11.8-1.01,1.6-1.8,2.92-2.33,3.84-.53,.92-.85,1.42-.89,1.4-.04-.02,.19-.56,.66-1.52,.46-.96,1.19-2.32,2.15-3.97,1.93-3.29,4.92-7.66,8.82-12,3.9-4.33,7.92-7.78,10.98-10.05,1.53-1.14,2.8-2.01,3.71-2.57,.9-.56,1.42-.86,1.44-.82Z"/><path class="cls-15" d="M94.25,550.09c-2.54-13.43,4.57-23.72,4.57-23.72,2.14,14.79-4.57,23.72-4.57,23.72Z"/><path class="cls-15" d="M107.63,542.79c8.58-5.03,17.37-2.69,17.37-2.69-9.61,5.09-17.37,2.69-17.37,2.69Z"/></g><g><polygon class="cls-15" points="49.03 570.25 56.49 619.31 99.86 619.31 109.93 570.96 49.03 570.25"/><g><path class="cls-3" d="M103.86,601.69c0,.14-11.11,.25-24.82,.25s-24.82-.11-24.82-.25,11.11-.25,24.82-.25,24.82,.11,24.82,.25Z"/><path class="cls-3" d="M104.03,599.28c0,.14-11.19,.25-24.98,.25s-24.99-.11-24.99-.25,11.19-.25,24.99-.25,24.98,.11,24.98,.25Z"/><path class="cls-3" d="M103.95,596.55c0,.14-11.19,.25-24.99,.25s-24.99-.11-24.99-.25,11.19-.25,24.99-.25,24.99,.11,24.99,.25Z"/><path class="cls-3" d="M61.48,616.51c-.14,.02-.73-2.74-1.33-6.18-.6-3.44-.97-6.24-.83-6.26,.14-.02,.73,2.74,1.33,6.18,.6,3.43,.97,6.24,.83,6.26Z"/><path class="cls-3" d="M64.43,615.99c-.14,0-.31-2.7-.54-6.03-.22-3.33-.43-6.03-.28-6.04,.14-.02,.57,2.67,.79,6.01,.23,3.34,.17,6.06,.03,6.06Z"/><path class="cls-3" d="M69.8,615.98c-.13,.02-.73-2.73-1.13-6.18-.41-3.45-.47-6.26-.33-6.27,.14,0,.43,2.78,.84,6.21,.4,3.43,.77,6.21,.62,6.24Z"/><path class="cls-3" d="M73.58,616.24c-.14,.01-.49-2.79-.6-6.28-.12-3.48,.06-6.31,.19-6.3,.14,0,.2,2.82,.32,6.29,.11,3.47,.24,6.28,.09,6.29Z"/><path class="cls-3" d="M80.26,615.99c-.14,0-.34-2.66-.46-5.96-.11-3.3-.09-5.97,.05-5.98,.14,0,.34,2.66,.46,5.96,.11,3.3,.09,5.97-.05,5.98Z"/><path class="cls-3" d="M85.14,616.24c-.14,0-.23-2.76-.2-6.16,.03-3.4,.16-6.16,.3-6.16,.14,0,.23,2.76,.2,6.16-.03,3.4-.16,6.16-.3,6.16Z"/><path class="cls-3" d="M89.72,615.59c-.14-.01,.03-2.9,.37-6.44,.34-3.55,.74-6.41,.88-6.39,.14,.01-.03,2.9-.37,6.44-.34,3.54-.74,6.41-.88,6.39Z"/><path class="cls-3" d="M95.62,614.95c-.13-.02,.08-2.49,.73-5.48,.65-2.99,1.48-5.33,1.61-5.29,.14,.04-.47,2.43-1.12,5.39-.65,2.96-1.08,5.39-1.23,5.37Z"/></g><path class="cls-15" d="M44.05,560.54v9.18c0,2,1.62,3.61,3.61,3.61h62.8c2,0,3.61-1.62,3.61-3.61v-9.18H44.05Z"/><polygon class="cls-6" points="49.5 573.33 50.02 576.25 107.96 580.38 109.43 573.33 49.5 573.33"/></g></g><g><g><polygon class="cls-5" points="202.5 10.14 199.44 94.53 220.18 103.96 224.78 115.85 261.96 100.72 256.87 88.72 263.97 66.57 202.5 10.14"/><path class="cls-6" d="M202.5,10.14c1.72,1.57,25.4,23.17,61.65,56.24l.12,.11-.05,.16c-2.25,7.04-4.63,14.46-7.09,22.15v-.19c1.6,3.8,3.33,7.86,5.09,11.99l.11,.26-.26,.11c-6.09,2.48-12.48,5.08-18.98,7.73-6.18,2.52-12.26,4.99-18.2,7.41l-.27,.11-.11-.27c-1.55-4.03-3.08-8-4.59-11.9l.15,.15c-7.18-3.27-14.11-6.43-20.74-9.45l-.16-.07v-.17c1.96-49.4,3.25-82.04,3.34-84.37-.08,2.34-1.16,34.98-2.8,84.4l-.16-.25c6.64,3.01,13.57,6.16,20.75,9.42l.11,.05,.04,.11c1.51,3.89,3.04,7.86,4.6,11.89l-.38-.16c5.94-2.42,12.02-4.9,18.2-7.41,6.5-2.65,12.89-5.25,18.98-7.72l-.15,.37c-1.75-4.13-3.48-8.2-5.09-12l-.04-.09,.03-.1c2.47-7.69,4.86-15.11,7.12-22.14l.07,.27c-36.04-33.3-59.58-55.04-61.29-56.62Z"/></g><path class="cls-6" d="M239.19,62.39c2.63,6.21-.33,13.31-6.61,15.87-6.29,2.56-13.52-.4-16.15-6.61-2.63-6.21,.33-13.31,6.61-15.87,6.29-2.56,13.52,.4,16.15,6.61Z"/><path class="cls-6" d="M202.5,10.14c.15-.06,5.93,12.62,12.92,28.33,6.99,15.71,12.53,28.49,12.39,28.56-.15,.06-5.93-12.62-12.92-28.33-6.99-15.71-12.53-28.49-12.39-28.55Z"/><path class="cls-6" d="M343.68,341.62h0c-9.98,4.06-21.47-.6-25.7-10.43l-87.48-202.95,36.29-14.77,87.4,202.74c4.27,9.91-.44,21.31-10.5,25.4Z"/><polygon class="cls-6" points="270.27 112.05 227.59 129.43 221.38 114.79 264.05 97.41 270.27 112.05"/></g><g><g><polygon class="cls-5" points="242.69 423.86 220.51 504.24 247.69 523.62 308.81 538.51 333.05 447.76 242.69 423.86"/><path class="cls-15" d="M232.31,500.64l-11.81,3.6s3.72,7.06,9.55,11.13c5.82,4.07,11.52,6.77,17.64,8.26,0,0-13.06-7.59-15.37-22.98Z"/></g><path class="cls-6" d="M315.39,473.79c-.04,.15-15.45-3.79-34.42-8.8-18.98-5.01-34.32-9.19-34.28-9.34,.04-.15,15.45,3.79,34.43,8.8,18.97,5.01,34.32,9.19,34.28,9.34Z"/><path class="cls-6" d="M311.81,486.1c-.04,.15-15.45-3.79-34.42-8.8-18.98-5.01-34.32-9.19-34.28-9.34,.04-.15,15.45,3.79,34.43,8.8,18.97,5.01,34.32,9.19,34.28,9.34Z"/><path class="cls-6" d="M309.3,497.19c-.04,.15-15.45-3.79-34.42-8.8-18.98-5.01-34.32-9.19-34.28-9.34,.04-.15,15.45,3.79,34.43,8.8,18.97,5.01,34.32,9.19,34.28,9.34Z"/><path class="cls-6" d="M306.43,507.75c-.04,.15-15.45-3.79-34.42-8.8-18.98-5.01-34.32-9.19-34.28-9.34,.04-.15,15.45,3.79,34.43,8.8,18.97,5.01,34.32,9.19,34.28,9.34Z"/></g><g><g><polygon class="cls-5" points="950.4 350.18 933.49 411.49 954.22 426.27 1000.84 437.63 1019.32 368.41 950.4 350.18"/><path class="cls-15" d="M942.49,408.74l-9.01,2.74s2.84,5.38,7.28,8.49c4.44,3.1,8.79,5.16,13.45,6.3,0,0-9.96-5.79-11.73-17.53Z"/></g><path class="cls-6" d="M1005.85,388.27c-.03,.11-11.79-2.89-26.25-6.71-14.47-3.82-26.18-7.01-26.15-7.12,.03-.11,11.78,2.89,26.26,6.71,14.47,3.82,26.18,7.01,26.15,7.12Z"/><path class="cls-6" d="M1003.12,397.66c-.03,.11-11.79-2.89-26.25-6.71-14.47-3.82-26.18-7.01-26.15-7.12,.03-.11,11.78,2.89,26.26,6.71,14.47,3.82,26.18,7.01,26.15,7.12Z"/><path class="cls-6" d="M1001.21,406.11c-.03,.11-11.79-2.89-26.25-6.71-14.47-3.82-26.18-7.01-26.15-7.12,.03-.11,11.78,2.89,26.26,6.71,14.47,3.82,26.18,7.01,26.15,7.12Z"/><path class="cls-6" d="M999.02,414.16c-.03,.11-11.79-2.89-26.25-6.71-14.47-3.82-26.18-7.01-26.15-7.12,.03-.11,11.78,2.89,26.26,6.71,14.47,3.82,26.18,7.01,26.15,7.12Z"/></g><path class="cls-6" d="M861,45.44l-22.36,5.72-1.08,6.84c-.35,2.28-.35,4.08,0,5.42,.45,1.77,1.5,2.9,3.15,3.37,.97,.28,3.13,.13,6.49-.47l.44,1.73-21.05,5.38-.44-1.73c2.18-.92,3.81-2.34,4.88-4.26,1.07-1.91,2.06-5.56,2.97-10.93L843.72,.23l.89-.23,36.1,46.07c3.43,4.36,6.02,7,7.74,7.91,1.3,.69,2.94,.87,4.91,.54l.44,1.73-30.62,7.83-.44-1.73,1.26-.32c2.46-.63,4.1-1.41,4.92-2.35,.56-.67,.72-1.48,.48-2.41-.14-.56-.38-1.11-.72-1.66-.14-.26-.9-1.31-2.3-3.14l-5.38-7.03Zm-2.47-3.05l-15-19.39-4.13,24.28,19.14-4.9Z"/><g><rect class="cls-15" x="913.07" y="204.71" width="90.31" height="82.18" rx="8.92" ry="8.92" transform="translate(7.61 -27.97) rotate(1.68)"/><path class="cls-6" d="M912.48,265.29l30.49-20.46c2.37-1.9,5.77-1.77,7.99,.3l15.02,7.71,21.43-20.95c2.7-2.41,6.87-2.05,9.12,.78l7,8.79-.34,36.01c-.05,5.78-4.85,10.39-10.63,10.21l-70.45-2.23c-5.71-.18-10.18-4.97-9.98-10.68l.35-9.47Z"/><path class="cls-6" d="M956.08,225.89c.23,4.98-3.62,9.2-8.6,9.43-4.98,.23-9.2-3.62-9.43-8.6-.23-4.98,3.62-9.2,8.6-9.43,4.98-.23,9.2,3.62,9.43,8.6Z"/></g><g><rect class="cls-3" x="39.27" y="12.04" width="62.77" height="57.12" rx="8.92" ry="8.92" transform="translate(1.22 -2.05) rotate(1.68)"/><path class="cls-5" d="M38.86,54.15l21.19-14.22c1.65-1.32,4.01-1.23,5.55,.21l10.44,5.36,14.89-14.56c1.88-1.67,4.77-1.43,6.34,.54l4.86,6.11-.18,19.4c-.07,7.11-5.97,12.77-13.07,12.55l-37.8-1.2c-7.02-.22-12.52-6.11-12.26-13.13l.04-1.05Z"/><path class="cls-5" d="M69.17,26.76c.16,3.46-2.52,6.4-5.98,6.55-3.46,.16-6.4-2.52-6.55-5.98s2.52-6.4,5.98-6.55c3.46-.16,6.4,2.52,6.55,5.98Z"/></g><g><g><path class="cls-5" d="M595.66,540.09c7.93,20.15-2,42.92-22.19,50.88-20.19,7.95-42.99-1.93-50.93-22.07-7.94-20.14,2-42.92,22.19-50.88,20.19-7.95,42.99,1.93,50.93,22.07Z"/><path class="cls-15" d="M586.96,543.51c6.05,15.35-1.52,32.71-16.91,38.77-15.39,6.06-32.76-1.47-38.81-16.82-6.05-15.35,1.52-32.71,16.91-38.77,15.39-6.06,32.76,1.47,38.81,16.82Z"/><path class="cls-6" d="M586.61,542.64c-.17,.07-.77-1.1-2.06-3.06-1.29-1.94-3.35-4.68-6.58-7.27-1.61-1.29-3.51-2.54-5.68-3.61-2.18-1.04-4.63-1.93-7.3-2.44-1.33-.26-2.71-.45-4.13-.51-1.42-.07-2.87-.06-4.33,.09-1.46,.15-2.95,.38-4.42,.77-1.47,.38-2.94,.88-4.38,1.49-1.43,.63-2.8,1.35-4.09,2.16-1.29,.8-2.48,1.72-3.6,2.68-1.12,.96-2.12,2.01-3.05,3.08-.93,1.07-1.74,2.21-2.46,3.35-1.46,2.29-2.5,4.67-3.24,6.98-.72,2.31-1.11,4.55-1.28,6.61-.33,4.13,.25,7.5,.77,9.77,.54,2.28,.98,3.53,.81,3.6-.12,.06-.85-1.07-1.67-3.34-.8-2.26-1.67-5.74-1.53-10.11,.07-2.18,.39-4.57,1.08-7.06,.7-2.48,1.75-5.06,3.26-7.55,.75-1.25,1.6-2.48,2.58-3.65,.97-1.17,2.04-2.32,3.24-3.36,1.19-1.05,2.47-2.05,3.86-2.92,1.39-.88,2.86-1.66,4.4-2.34,1.55-.66,3.13-1.19,4.72-1.59,1.59-.41,3.2-.65,4.78-.8,1.58-.15,3.15-.14,4.67-.04,1.52,.09,3,.32,4.43,.63,2.85,.61,5.44,1.62,7.73,2.81,2.28,1.21,4.24,2.62,5.87,4.07,3.27,2.91,5.2,5.92,6.3,8.06,1.09,2.16,1.41,3.46,1.28,3.51Z"/></g><path class="cls-6" d="M568.8,569.87l1.98,4.83-4.31,1.77-1.93-4.7c-4.37,1.49-9.01,1.84-12.14,.96l.21-6.23c2.81,.71,6.39,.6,9.61-.37l-2.96-7.19c-5.26,.8-11.26,1.4-13.79-4.76-1.88-4.57-.17-9.85,6.32-13.42l-1.96-4.78,4.31-1.77,1.93,4.7c3.34-1.07,6.83-1.5,9.82-.96l.02,6.18c-2.71-.35-5.25-.16-7.51,.47l3.01,7.32c5.24-.84,11.15-1.41,13.65,4.66,1.84,4.48,.16,9.7-6.27,13.3Zm-12.13-17.27l-2.51-6.12c-2.07,1.45-2.46,3.08-1.88,4.5,.62,1.51,2.25,1.8,4.39,1.62Zm11.67,7.34c-.62-1.51-2.2-1.81-4.32-1.7l2.44,5.95c1.96-1.36,2.45-2.87,1.88-4.25Z"/></g><g><g><path class="cls-5" d="M75.85,243.4c7.93,20.15-2,42.92-22.19,50.88-20.19,7.95-42.99-1.93-50.93-22.07-7.94-20.14,2-42.92,22.19-50.88,20.19-7.95,42.99,1.93,50.93,22.07Z"/><path class="cls-15" d="M67.15,246.83c6.05,15.35-1.52,32.71-16.91,38.77-15.39,6.06-32.76-1.47-38.81-16.82-6.05-15.35,1.52-32.71,16.91-38.77,15.39-6.06,32.76,1.47,38.81,16.82Z"/><path class="cls-6" d="M66.8,245.96c-.17,.07-.77-1.1-2.06-3.06-1.29-1.94-3.35-4.68-6.58-7.27-1.61-1.29-3.51-2.54-5.68-3.61-2.18-1.04-4.63-1.93-7.3-2.44-1.33-.26-2.71-.45-4.13-.51-1.42-.07-2.87-.06-4.33,.09-1.46,.15-2.95,.38-4.42,.77-1.47,.38-2.94,.88-4.38,1.49-1.43,.63-2.8,1.35-4.09,2.16-1.29,.8-2.48,1.72-3.6,2.68-1.12,.96-2.12,2.01-3.05,3.08-.93,1.07-1.74,2.21-2.46,3.35-1.46,2.29-2.5,4.67-3.24,6.98-.72,2.31-1.11,4.55-1.28,6.61-.33,4.13,.25,7.5,.77,9.77,.54,2.28,.98,3.53,.81,3.6-.12,.06-.85-1.07-1.67-3.34-.8-2.26-1.67-5.74-1.53-10.11,.07-2.18,.39-4.57,1.08-7.06,.7-2.48,1.75-5.06,3.26-7.55,.75-1.25,1.6-2.48,2.58-3.65,.97-1.17,2.04-2.32,3.24-3.36,1.19-1.05,2.47-2.05,3.86-2.92,1.39-.88,2.86-1.66,4.4-2.34,1.55-.66,3.13-1.19,4.72-1.59,1.59-.41,3.2-.65,4.78-.8,1.58-.15,3.15-.14,4.67-.04,1.52,.09,3,.32,4.43,.63,2.85,.61,5.44,1.62,7.73,2.81,2.28,1.21,4.24,2.62,5.87,4.07,3.27,2.91,5.2,5.92,6.3,8.06,1.09,2.16,1.41,3.46,1.28,3.51Z"/></g><path class="cls-6" d="M48.99,273.18l1.98,4.83-4.31,1.77-1.93-4.7c-4.37,1.49-9.01,1.84-12.14,.96l.21-6.23c2.81,.71,6.39,.6,9.61-.37l-2.96-7.19c-5.26,.8-11.26,1.4-13.79-4.76-1.88-4.57-.17-9.85,6.32-13.42l-1.96-4.78,4.31-1.77,1.93,4.7c3.34-1.07,6.83-1.5,9.82-.96l.02,6.18c-2.71-.35-5.25-.16-7.51,.47l3.01,7.32c5.24-.84,11.15-1.41,13.65,4.66,1.84,4.48,.16,9.7-6.27,13.3Zm-12.13-17.27l-2.51-6.12c-2.07,1.45-2.46,3.08-1.88,4.5,.62,1.51,2.25,1.8,4.39,1.62Zm11.67,7.34c-.62-1.51-2.2-1.81-4.32-1.7l2.44,5.95c1.96-1.36,2.45-2.87,1.88-4.25Z"/></g><path class="cls-16" d="M151.7,108.86c.03,.12,.05,.24,.08,.36l-.06,.02-.02-.39Z"/><path class="cls-16" d="M991.38,619.62s1.08-.03,3.29-.04c2.22,0,5.57-.02,10.1-.04v.17c-49.53,.03-246.38,.15-481.56,.3-136.71-.04-260.45-.08-350.03-.11-44.78-.05-81.02-.09-106.07-.12-12.52-.03-22.24-.06-28.84-.07-3.29-.02-5.8-.03-7.5-.04-1.69-.01-2.56-.04-2.56-.04,0,0,.87-.03,2.56-.04,1.7,0,4.21-.02,7.5-.04,6.6-.02,16.32-.04,28.84-.07,25.06-.03,61.29-.07,106.07-.12,89.58-.03,213.32-.07,350.03-.11,235.18,.15,432.02,.27,481.56,.3v.17c-4.53-.02-7.88-.03-10.1-.04-2.21-.01-3.29-.04-3.29-.04Z"/><g><g><path class="cls-3" d="M446.71,51.61h-74.59c-3.61,0-6.49-3.02-6.31-6.62l1.51-31.6c.16-3.37,2.94-6.02,6.31-6.02h74.59c3.61,0,6.49,3.02,6.31,6.62l-1.51,31.6c-.16,3.37-2.94,6.02-6.31,6.02Z"/><path class="cls-16" d="M446.71,51.61c-.01-.07,.92,.07,2.46-.59,.75-.34,1.65-.91,2.39-1.87,.76-.94,1.31-2.28,1.33-3.86,.28-6.41,.68-15.63,1.17-27-.02-2.8,.92-6.06-1.17-8.42-.93-1.16-2.34-1.97-3.87-2.15-1.53-.12-3.24-.03-4.9-.05-6.71,.01-13.88,.02-21.42,.04-15.09,0-31.67,.02-49.07,.03-2.05,0-4.05,1.12-5.08,2.86-.52,.86-.81,1.85-.86,2.86-.05,1.07-.1,2.13-.15,3.19-.2,4.23-.41,8.41-.6,12.51-.2,4.1-.4,8.13-.59,12.07-.05,.99-.1,1.97-.14,2.94-.07,1-.09,1.88,.19,2.77,.51,1.75,1.84,3.23,3.5,3.87,.84,.34,1.7,.45,2.62,.44,.93,0,1.86,0,2.77,0,1.84,0,3.65,0,5.44,0,3.57,0,7.04,.01,10.4,.02,6.71,.02,12.95,.03,18.66,.05,11.38,.05,20.6,.09,27.02,.12,3.16,.03,5.63,.06,7.35,.07,.81,.02,1.45,.03,1.91,.04,.43,.01,.65,.03,.65,.04s-.22,.03-.65,.04c-.46,0-1.1,.02-1.91,.04-1.72,.02-4.19,.04-7.35,.07-6.42,.03-15.64,.07-27.02,.12-5.71,.01-11.96,.03-18.66,.05-3.35,0-6.82,.01-10.4,.02-1.79,0-3.6,0-5.44,0-.92,0-1.84,0-2.77,0-.94,.02-1.97-.1-2.88-.48-1.86-.72-3.35-2.36-3.93-4.33-.32-.97-.29-2.06-.22-3.01,.05-.98,.09-1.96,.14-2.94,.19-3.94,.38-7.97,.57-12.07,.19-4.1,.39-8.27,.59-12.51,.05-1.06,.1-2.12,.15-3.19,.05-1.12,.38-2.25,.97-3.22,1.17-1.97,3.42-3.24,5.74-3.23,17.41,.01,33.99,.02,49.07,.03,7.54,.01,14.71,.02,21.42,.04,1.69,.03,3.29-.06,4.98,.08,1.69,.22,3.23,1.12,4.24,2.39,1.03,1.27,1.54,2.88,1.47,4.44-.08,1.49-.15,2.95-.22,4.38-.6,11.37-1.08,20.58-1.41,26.99-.05,1.62-.65,3.04-1.45,3.99-.79,.98-1.73,1.54-2.5,1.87-.79,.33-1.44,.4-1.87,.45-.43,.01-.65,0-.65,0Z"/></g><polygon class="cls-2" points="678.78 51.87 681.97 31.89 695.58 23.99 706.75 35.97 703.38 56.45 678.78 51.87"/><g><polygon class="cls-6" points="741.68 72.96 725.17 435.35 458.91 427.78 443.07 400.11 471.71 63.31 719.5 46.91 741.68 72.96"/><g class="cls-8"><polygon points="725.17 435.35 702.99 409.3 719.5 46.91 741.68 72.96 725.17 435.35"/></g><g><polygon class="cls-3" points="719.5 46.91 702.99 409.3 443.07 400.11 462.73 43.25 719.5 46.91"/><path class="cls-16" d="M719.5,46.91c-2.55-.03-100.92-1.32-256.77-3.35l.31-.29c-5.47,99.72-12.25,223.25-19.59,356.87l-.37-.4c1.35,.05,2.82,.1,4.29,.15,91.45,3.25,178.26,6.33,255.62,9.07l-.36,.33c9.96-214.01,16.71-359.28,16.86-362.37-.14,3.09-6.62,148.37-16.16,362.4l-.02,.34h-.35c-77.36-2.74-164.17-5.79-255.62-9.02-1.47-.05-2.94-.1-4.29-.15h-.39l.02-.4c7.39-133.61,14.22-257.14,19.73-356.86l.02-.3h.3c155.84,2.42,254.21,3.94,256.76,3.98Z"/></g><rect class="cls-6" x="489.33" y="121.66" width="97.71" height="10.31" rx="2.35" ry="2.35" transform="translate(1072.42 269.34) rotate(-178.32)"/><rect class="cls-6" x="488.45" y="141.58" width="97.71" height="10.31" rx="2.35" ry="2.35" transform="translate(1070.08 309.14) rotate(-178.32)"/><rect class="cls-6" x="487.58" y="161.5" width="97.71" height="10.31" rx="2.35" ry="2.35" transform="translate(1067.75 348.95) rotate(-178.32)"/><rect class="cls-6" x="486.7" y="181.42" width="97.71" height="10.31" rx="2.35" ry="2.35" transform="translate(1065.42 388.76) rotate(-178.32)"/><rect class="cls-6" x="485.83" y="201.34" width="97.71" height="10.31" rx="2.35" ry="2.35" transform="translate(1063.08 428.56) rotate(-178.32)"/><rect class="cls-6" x="484.95" y="221.26" width="97.71" height="10.31" rx="2.35" ry="2.35" transform="translate(1060.75 468.37) rotate(-178.32)"/><rect class="cls-6" x="484.08" y="241.18" width="97.71" height="10.31" rx="2.35" ry="2.35" transform="translate(1058.41 508.18) rotate(-178.32)"/><rect class="cls-6" x="592.6" y="224.24" width="97.71" height="10.31" rx="2.35" ry="2.35" transform="translate(1275.92 477.48) rotate(-178.32)"/><rect class="cls-6" x="591.73" y="244.16" width="97.71" height="10.31" rx="2.35" ry="2.35" transform="translate(1273.59 517.29) rotate(-178.32)"/><rect class="cls-6" x="590.67" y="265.17" width="97.71" height="10.31" rx="2.35" ry="2.35" transform="translate(1270.86 559.27) rotate(-178.32)"/><rect class="cls-6" x="589.62" y="286.17" width="97.71" height="10.31" rx="2.35" ry="2.35" transform="translate(1268.13 601.24) rotate(-178.32)"/><rect class="cls-6" x="588.56" y="307.18" width="97.71" height="10.31" rx="2.35" ry="2.35" transform="translate(1265.4 643.21) rotate(-178.32)"/><rect class="cls-6" x="587.5" y="328.19" width="97.71" height="10.31" rx="2.35" ry="2.35" transform="translate(1262.68 685.18) rotate(-178.32)"/><rect class="cls-6" x="586.45" y="349.19" width="97.71" height="10.31" rx="2.35" ry="2.35" transform="translate(1259.95 727.16) rotate(-178.32)"/><path class="cls-6" d="M478.49,373.83l200.32,5.87c1.91,.06,3.5-1.44,3.55-3.35l.1-3.4c.06-1.91-1.44-3.5-3.35-3.55l-200.32-5.87c-1.91-.06-3.5,1.44-3.55,3.35l-.1,3.4c-.06,1.91,1.44,3.5,3.35,3.55Z"/><rect class="cls-6" x="490.9" y="95.28" width="68.14" height="10.31" rx="2.35" ry="2.35" transform="translate(1046.78 216.22) rotate(-178.32)"/><path class="cls-16" d="M457.43,408.28s.43,.04,1.27,.08c.86,.04,2.1,.09,3.72,.16,3.3,.12,8.13,.31,14.38,.54,12.54,.44,30.72,1.08,53.38,1.88,45.35,1.53,108.61,3.67,180.31,6.09h.39l.02-.37c.68-14.33,1.39-29.36,2.12-44.65,3.85-82.19,7.33-156.58,9.85-210.45,1.22-26.92,2.21-48.7,2.9-63.78,.32-7.52,.58-13.36,.75-17.34,.08-1.97,.13-3.48,.17-4.51,.03-1.02,.03-1.54,.03-1.54,0,0-.05,.52-.11,1.53-.06,1.03-.14,2.54-.25,4.51-.21,3.98-.51,9.82-.9,17.33-.74,15.07-1.82,36.85-3.15,63.77-2.58,53.87-6.15,128.26-10.09,210.44-.72,15.3-1.43,30.32-2.11,44.65l.4-.37c-71.7-2.32-134.96-4.36-180.32-5.83-22.66-.7-40.84-1.26-53.38-1.65-6.25-.18-11.09-.31-14.39-.41-1.63-.04-2.87-.07-3.73-.09-.84-.02-1.27,0-1.27,0Z"/><path class="cls-16" d="M478.55,419.13s.4,.04,1.19,.08c.81,.04,1.98,.09,3.52,.16,3.11,.13,7.68,.31,13.58,.55,11.85,.45,29.04,1.11,50.51,1.93,42.96,1.58,102.99,3.78,171.33,6.28h.38l.02-.37c.91-17.29,1.86-35.27,2.83-53.65,4.23-81.1,8.05-154.5,10.82-207.66,1.35-26.56,2.44-48.06,3.19-62.93,.36-7.42,.64-13.18,.83-17.11,.09-1.94,.15-3.43,.2-4.45,.04-1,.04-1.52,.04-1.52,0,0-.05,.51-.12,1.51-.06,1.02-.15,2.51-.27,4.45-.22,3.93-.55,9.69-.98,17.1-.81,14.87-1.99,36.37-3.44,62.92-2.83,53.15-6.74,126.55-11.05,207.64-.97,18.38-1.91,36.36-2.82,53.65l.4-.37c-68.35-2.4-128.38-4.51-171.34-6.02-21.46-.72-38.66-1.3-50.51-1.7-5.9-.18-10.47-.32-13.59-.42-1.54-.04-2.71-.07-3.52-.09-.79-.02-1.2,0-1.2,0Z"/><g><polygon class="cls-14" points="564.62 42.28 568.54 38.44 615.35 38.67 617.61 42.95 564.62 42.28"/><rect class="cls-14" x="579.82" y="27.27" width="22.3" height="53" transform="translate(652.18 -536.48) rotate(90.72)"/><rect class="cls-14" x="588.56" y="36.91" width="4.45" height="56.68" rx="1.25" ry="1.25" transform="translate(663.49 -524.66) rotate(90.72)"/><path class="cls-11" d="M602.58,59.63h-.03l-23.31-.29c-.67,0-1.29-.34-1.67-.89-.38-.55-.46-1.25-.23-1.88l6.87-18.46c-3.03-2.26-4.86-5.8-4.91-9.58-.09-6.64,5.22-12.18,11.85-12.35,3.32-.1,6.5,1.16,8.87,3.51,2.38,2.35,3.66,5.48,3.62,8.82-.05,3.96-2,7.6-5.24,9.85l6.13,18.6c.21,.63,.1,1.33-.29,1.86-.39,.53-1.01,.84-1.66,.84Zm-11.11-42c-.09,0-.19,0-.28,0-5.73,.15-10.5,5.12-10.42,10.86,.05,3.5,1.82,6.76,4.74,8.72l.48,.32-7.26,19.54c-.07,.18-.04,.38,.06,.54,.11,.16,.28,.25,.48,.25l23.31,.29c.21,0,.37-.08,.48-.24,.11-.15,.14-.35,.08-.53l-6.49-19.68,.49-.31c3.11-1.95,4.99-5.29,5.04-8.94,.04-2.94-1.09-5.69-3.18-7.75-2.02-2-4.68-3.09-7.52-3.09Z"/><path class="cls-11" d="M616.96,63.36s-.19-.02-.53-.03c-.39-.01-.9-.02-1.52-.04-1.38-.03-3.28-.07-5.6-.12-4.78-.08-11.29-.18-18.49-.3-7.2-.08-13.71-.15-18.49-.21-2.33,0-4.23-.01-5.6-.02-.62,0-1.13,.01-1.52,.02-.35,0-.53,.02-.53,.04,0,.02,.18,.03,.53,.05,.39,.02,.9,.04,1.52,.06,1.38,.04,3.28,.09,5.6,.15,4.73,.11,11.27,.23,18.49,.34,7.22,.1,13.76,.16,18.49,.17,2.37,0,4.28,0,5.61-.02,.66-.01,1.17-.02,1.53-.04,.35-.02,.53-.04,.53-.06Z"/><path class="cls-11" d="M617.72,42.49s-.19-.02-.53-.03c-.39,0-.9-.02-1.52-.04-1.38-.03-3.28-.07-5.6-.12-4.78-.08-11.29-.18-18.49-.3-7.2-.08-13.71-.15-18.49-.21-2.33,0-4.23-.01-5.6-.02-.62,0-1.13,.01-1.52,.02-.35,0-.53,.02-.53,.04,0,.02,.18,.03,.53,.05,.39,.02,.9,.04,1.52,.06,1.38,.04,3.28,.09,5.6,.15,4.73,.11,11.27,.23,18.49,.34,7.22,.1,13.76,.16,18.49,.17,2.37,0,4.28,0,5.61-.02,.66-.01,1.17-.02,1.53-.04,.35-.02,.53-.04,.53-.06Z"/></g><g><rect class="cls-15" x="483.14" y="266.25" width="90.31" height="82.18" rx="8.92" ry="8.92" transform="translate(9.23 -15.35) rotate(1.68)"/><path class="cls-6" d="M482.51,327.96c.03-.71,.39-1.36,.98-1.75l29.55-19.83c2.31-1.85,5.59-1.77,7.81,.14,.12,.1,.25,.2,.39,.27l13.39,6.88c.84,.43,1.87,.28,2.55-.39l20.29-19.84c2.7-2.41,6.87-2.05,9.12,.78l6.51,8.17c.32,.4,.49,.89,.48,1.39l-.31,33.02c-.07,6.99-5.87,12.57-12.86,12.35l-66.07-2.09c-6.91-.22-12.32-6.01-12.07-12.92l.23-6.18Z"/><path class="cls-6" d="M526.15,287.43c.23,4.98-3.62,9.2-8.6,9.43-4.98,.23-9.2-3.62-9.43-8.6-.23-4.98,3.62-9.2,8.6-9.43,4.98-.23,9.2,3.62,9.43,8.6Z"/></g><g><rect class="cls-15" x="599.79" y="127.16" width="90.31" height="82.18" rx="8.92" ry="8.92" transform="translate(5.21 -18.83) rotate(1.68)"/><path class="cls-6" d="M599.2,187.74l30.49-20.46c2.37-1.9,5.77-1.77,7.99,.3l15.02,7.71,21.43-20.95c2.7-2.41,6.87-2.05,9.12,.78l7,8.79-.3,31.61c-.08,8.2-6.88,14.73-15.07,14.47l-61.72-1.95c-8.1-.26-14.44-7.05-14.14-15.14l.19-5.15Z"/><path class="cls-6" d="M642.8,148.34c.23,4.98-3.62,9.2-8.6,9.43-4.98,.23-9.2-3.62-9.43-8.6-.23-4.98,3.62-9.2,8.6-9.43,4.98-.23,9.2,3.62,9.43,8.6Z"/></g></g><path class="cls-16" d="M496.22,174.16s-.43-.02-1.19-.33c-.74-.32-1.8-.99-2.69-2.27-.87-1.26-1.63-3.17-1.31-5.4,.27-2.2,1.5-4.58,3.57-6.44,2.07-1.89,4.92-3.16,8.04-3.95,3.13-.78,6.56-1.28,10.19-1.32,7.24-.1,15.32,1.57,22.64,5.74,1.81,1.07,3.51,2.37,4.8,4.03,1.27,1.66,2.1,3.66,2.15,5.72,.08,2.07-.79,4.08-2.15,5.49-1.36,1.44-3.07,2.35-4.78,3-3.46,1.3-6.96,1.5-10.16,1.64-3.22,.11-6.22-.05-8.94-.39-5.44-.67-9.7-1.98-12.56-3.03-1.43-.53-2.52-.99-3.25-1.34-.73-.34-1.1-.53-1.09-.55,.01-.02,.41,.12,1.15,.41,.74,.3,1.85,.71,3.29,1.2,2.87,.96,7.13,2.18,12.52,2.77,2.69,.29,5.67,.42,8.85,.29,3.17-.17,6.62-.4,9.93-1.67,1.64-.63,3.26-1.52,4.5-2.84,1.23-1.31,2.01-3.1,1.93-4.97-.06-1.87-.82-3.74-2.01-5.28-1.2-1.55-2.82-2.8-4.58-3.83-7.16-4.08-15.12-5.75-22.24-5.7-3.57,.02-6.96,.49-10.05,1.23-3.07,.75-5.84,1.96-7.83,3.74-2,1.76-3.21,4.01-3.51,6.1-.34,2.1,.33,3.94,1.14,5.17,.82,1.26,1.81,1.94,2.51,2.3,.71,.35,1.13,.43,1.12,.47Z"/><path class="cls-16" d="M534.22,379.6s-.43-.02-1.19-.33c-.74-.32-1.8-.99-2.69-2.27-.87-1.26-1.63-3.17-1.31-5.4,.27-2.2,1.5-4.58,3.57-6.44,2.07-1.89,4.92-3.16,8.04-3.95,3.13-.78,6.56-1.28,10.19-1.32,7.24-.1,15.32,1.57,22.64,5.74,1.81,1.06,3.51,2.37,4.8,4.03,1.27,1.66,2.1,3.66,2.15,5.72,.08,2.07-.79,4.08-2.15,5.49-1.36,1.44-3.07,2.35-4.78,3-3.46,1.3-6.96,1.5-10.16,1.64-3.22,.11-6.22-.05-8.94-.39-5.44-.67-9.7-1.98-12.56-3.03-1.43-.53-2.52-.99-3.25-1.34-.73-.34-1.1-.53-1.09-.55,.01-.02,.41,.12,1.15,.41,.74,.3,1.85,.71,3.29,1.2,2.87,.96,7.13,2.18,12.52,2.77,2.69,.29,5.67,.42,8.85,.29,3.17-.17,6.62-.4,9.93-1.67,1.64-.63,3.26-1.52,4.5-2.84,1.23-1.31,2.01-3.1,1.93-4.97-.06-1.87-.82-3.74-2.01-5.28-1.2-1.55-2.82-2.8-4.58-3.83-7.16-4.08-15.12-5.75-22.24-5.7-3.57,.02-6.96,.49-10.05,1.23-3.07,.75-5.84,1.96-7.83,3.74-2,1.76-3.21,4.01-3.51,6.1-.34,2.1,.33,3.93,1.14,5.17,.82,1.26,1.81,1.94,2.51,2.3,.71,.35,1.13,.43,1.12,.47Z"/><path class="cls-16" d="M490.1,106.88s-.43-.02-1.19-.33c-.74-.32-1.8-.99-2.69-2.27-.87-1.26-1.63-3.17-1.31-5.4,.27-2.2,1.5-4.58,3.57-6.44,2.07-1.89,4.92-3.16,8.04-3.95,3.13-.78,6.56-1.28,10.19-1.32,7.24-.1,15.32,1.57,22.64,5.74,1.81,1.07,3.51,2.37,4.8,4.03,1.27,1.66,2.1,3.66,2.15,5.72,.08,2.07-.79,4.08-2.15,5.49-1.36,1.44-3.07,2.35-4.78,3-3.46,1.3-6.96,1.5-10.16,1.64-3.22,.11-6.22-.05-8.94-.39-5.44-.67-9.7-1.98-12.56-3.03-1.43-.53-2.52-.99-3.25-1.34-.73-.34-1.1-.53-1.09-.55,.01-.02,.41,.12,1.15,.41,.74,.3,1.85,.71,3.29,1.2,2.87,.96,7.13,2.18,12.52,2.77,2.69,.29,5.67,.42,8.85,.29,3.17-.17,6.62-.4,9.93-1.67,1.64-.63,3.26-1.52,4.5-2.84,1.23-1.31,2.01-3.1,1.93-4.97-.06-1.87-.82-3.74-2.01-5.28-1.2-1.55-2.82-2.8-4.58-3.83-7.16-4.08-15.12-5.75-22.24-5.7-3.57,.02-6.96,.49-10.05,1.23-3.07,.75-5.84,1.96-7.83,3.74-2,1.76-3.21,4.01-3.51,6.1-.34,2.1,.33,3.94,1.14,5.17,.82,1.26,1.81,1.94,2.51,2.3,.71,.35,1.13,.43,1.12,.47Z"/><polygon class="cls-2" points="715.76 313.22 735.98 313.72 745.63 326.16 735.24 338.82 714.5 338.21 715.76 313.22"/><polygon class="cls-11" points="717.68 277.75 737.9 278.26 747.54 290.69 737.16 303.35 716.41 302.75 717.68 277.75"/><path class="cls-6" d="M377.95,22.74h64.45c.29,0,.52,.23,.52,.52v.8c0,.29-.23,.52-.52,.52h-64.45c-.29,0-.52-.23-.52-.52v-.8c0-.29,.23-.52,.52-.52Z"/><path class="cls-6" d="M377.95,28.57h64.45c.29,0,.52,.23,.52,.52v.8c0,.29-.23,.52-.52,.52h-64.45c-.29,0-.52-.23-.52-.52v-.8c0-.29,.23-.52,.52-.52Z"/><path class="cls-6" d="M377.95,34.4h64.45c.29,0,.52,.23,.52,.52v.8c0,.29-.23,.52-.52,.52h-64.45c-.29,0-.52-.23-.52-.52v-.8c0-.29,.23-.52,.52-.52Z"/><path class="cls-16" d="M454.71,28.18c.17-.13,10.35,13.05,22.73,29.43,12.39,16.39,22.29,29.77,22.12,29.9-.17,.13-10.34-13.05-22.73-29.43-12.38-16.38-22.29-29.76-22.12-29.89Z"/><circle class="cls-16" cx="454.34" cy="27" r="2.49"/><g><path class="cls-3" d="M523.62,531.75h-74.59c-3.61,0-6.49-3.02-6.31-6.62l1.51-31.6c.16-3.37,2.94-6.02,6.31-6.02h74.59c3.61,0,6.49,3.02,6.31,6.62l-1.51,31.6c-.16,3.37-2.94,6.02-6.31,6.02Z"/><path class="cls-16" d="M523.62,531.75c-.01-.07,.92,.07,2.46-.59,.75-.34,1.65-.91,2.39-1.87,.76-.94,1.31-2.28,1.33-3.86,.28-6.41,.68-15.63,1.17-27-.02-2.8,.92-6.06-1.17-8.42-.93-1.16-2.34-1.97-3.87-2.15-1.53-.12-3.24-.03-4.9-.05-6.71,.01-13.88,.02-21.42,.04-15.09,0-31.67,.02-49.07,.03-2.05,0-4.05,1.12-5.08,2.86-.52,.87-.81,1.85-.86,2.86-.05,1.07-.1,2.13-.15,3.19-.2,4.23-.41,8.41-.6,12.51-.2,4.1-.4,8.13-.59,12.07-.05,.99-.1,1.97-.14,2.94-.07,1-.09,1.88,.19,2.77,.51,1.75,1.84,3.23,3.5,3.87,.84,.34,1.7,.45,2.62,.44,.93,0,1.86,0,2.77,0,1.84,0,3.65,0,5.44,0,3.57,0,7.04,.01,10.4,.02,6.71,.02,12.95,.03,18.66,.05,11.38,.05,20.6,.09,27.02,.12,3.16,.03,5.63,.06,7.35,.07,.81,.02,1.45,.03,1.91,.04,.43,.01,.65,.03,.65,.04s-.22,.03-.65,.04c-.46,0-1.1,.02-1.91,.04-1.72,.02-4.19,.04-7.35,.07-6.42,.03-15.64,.07-27.02,.12-5.71,.01-11.96,.03-18.66,.05-3.35,0-6.82,.01-10.4,.02-1.79,0-3.6,0-5.44,0-.92,0-1.84,0-2.77,0-.94,.02-1.97-.1-2.88-.48-1.86-.72-3.35-2.36-3.93-4.33-.32-.97-.29-2.06-.22-3.01,.05-.98,.09-1.96,.14-2.94,.19-3.94,.38-7.97,.57-12.07,.19-4.1,.39-8.27,.59-12.51,.05-1.06,.1-2.12,.15-3.19,.05-1.12,.38-2.25,.97-3.22,1.17-1.97,3.42-3.24,5.74-3.23,17.41,.01,33.99,.02,49.07,.03,7.54,.01,14.71,.02,21.42,.04,1.69,.03,3.29-.06,4.98,.08,1.69,.22,3.23,1.12,4.24,2.39,1.03,1.27,1.54,2.88,1.47,4.44-.08,1.49-.15,2.95-.22,4.38-.6,11.37-1.08,20.58-1.41,26.99-.05,1.62-.65,3.04-1.45,3.99-.79,.98-1.73,1.54-2.5,1.87-.79,.33-1.44,.4-1.87,.45-.43,.01-.65,0-.65,0Z"/></g><path class="cls-6" d="M454.85,502.88h64.45c.29,0,.52,.23,.52,.52v.8c0,.29-.23,.52-.52,.52h-64.45c-.29,0-.52-.23-.52-.52v-.8c0-.29,.23-.52,.52-.52Z"/><path class="cls-6" d="M454.85,508.71h64.45c.29,0,.52,.23,.52,.52v.8c0,.29-.23,.52-.52,.52h-64.45c-.29,0-.52-.23-.52-.52v-.8c0-.29,.23-.52,.52-.52Z"/><rect class="cls-6" x="454.34" y="514.53" width="65.48" height="1.84" rx=".52" ry=".52"/><path class="cls-16" d="M551.85,383.94c.19,.1-11.74,23.36-26.64,51.96-14.9,28.6-27.13,51.7-27.32,51.61-.19-.1,11.74-23.36,26.64-51.96,14.9-28.59,27.13-51.7,27.32-51.6Z"/><path class="cls-16" d="M500.39,487.5c0,1.38-1.12,2.49-2.49,2.49s-2.49-1.12-2.49-2.49,1.12-2.49,2.49-2.49,2.49,1.12,2.49,2.49Z"/></g><g><g><path class="cls-12" d="M745.32,503.6h217.32c1.39,0,2.51,1.13,2.51,2.51v3.91c0,1.39-1.13,2.51-2.51,2.51h-217.32v-8.93h0Z"/><path class="cls-16" d="M742.4,508.77c0,.18-18.13,.32-40.5,.32s-40.5-.14-40.5-.32,18.13-.32,40.5-.32,40.5,.14,40.5,.32Z"/><g><path class="cls-12" d="M663.48,458.72h108.65v53.82h-108.65c-8.35,0-15.14-6.78-15.14-15.14v-23.55c0-8.35,6.78-15.14,15.14-15.14Z"/><path class="cls-12" d="M746.46,458.72h216.18c1.39,0,2.51,1.13,2.51,2.51v3.91c0,1.39-1.13,2.51-2.51,2.51h-216.18c-.63,0-1.14-.51-1.14-1.14v-6.65c0-.63,.51-1.14,1.14-1.14Z"/><path class="cls-5" d="M958.59,503.6h-188.74c-9.93,0-17.97-8.05-17.97-17.97h0c0-9.93,8.05-17.97,17.97-17.97h188.74c-5.06,11.98-5.06,23.97,0,35.95Z"/><g class="cls-8"><path d="M751.87,512.54h-83.14c-11.26,0-20.39-9.13-20.39-20.39v-13.2c0-11.17,9.06-20.23,20.23-20.23h85.35c-19.49,11.8-18.03,40.07-2.05,53.82Z"/></g><path class="cls-16" d="M935.66,487.3c0,.18-38.74,.32-86.52,.32s-86.53-.14-86.53-.32,38.73-.32,86.53-.32,86.52,.14,86.52,.32Z"/><path class="cls-16" d="M953.47,495.29c0,.18-38.74,.32-86.52,.32s-86.53-.14-86.53-.32,38.73-.32,86.53-.32,86.52,.14,86.52,.32Z"/><path class="cls-16" d="M948.22,475.97c0,.18-38.74,.32-86.52,.32s-86.53-.14-86.53-.32,38.73-.32,86.53-.32,86.52,.14,86.52,.32Z"/><path class="cls-16" d="M742.4,463.19c0,.18-18.13,.32-40.5,.32s-40.5-.14-40.5-.32,18.13-.32,40.5-.32,40.5,.14,40.5,.32Z"/></g></g><g><path class="cls-12" d="M622.56,550.31h132.36c4.17,0,7.56,3.39,7.56,7.56v54.19c0,4.17-3.39,7.56-7.56,7.56h-132.36c-10.76,0-19.49-8.73-19.49-19.49v-30.32c0-10.76,8.73-19.49,19.49-19.49Z"/><path class="cls-12" d="M729.82,550.31h278.01c1.79,0,3.24,1.45,3.24,3.24v5.03c0,1.79-1.45,3.24-3.24,3.24h-278.01c-1.03,0-1.87-.84-1.87-1.87v-7.77c0-1.03,.84-1.87,1.87-1.87Z"/><path class="cls-12" d="M729.82,608.12h278.01c1.79,0,3.24,1.45,3.24,3.24v5.03c0,1.79-1.45,3.24-3.24,3.24h-278.01c-1.03,0-1.87-.84-1.87-1.87v-7.77c0-1.03,.84-1.87,1.87-1.87Z"/><path class="cls-5" d="M1002.62,608.12h-243.07c-12.78,0-23.15-10.36-23.15-23.15h0c0-12.78,10.36-23.15,23.15-23.15h243.07c-6.52,15.43-6.52,30.86,0,46.3Z"/><g class="cls-8"><path d="M736.4,619.62h-99.05c-18.93,0-34.28-15.35-34.28-34.28h0c0-19.34,15.68-35.03,35.03-35.03h100.94c-25.09,15.2-23.22,51.61-2.64,69.31Z"/></g><path class="cls-16" d="M973.09,587.12c0,.18-49.89,.32-111.42,.32s-111.43-.14-111.43-.32,49.88-.32,111.43-.32,111.42,.14,111.42,.32Z"/><path class="cls-16" d="M996.02,597.41c0,.18-49.89,.32-111.42,.32s-111.43-.14-111.43-.32,49.88-.32,111.43-.32,111.42,.14,111.42,.32Z"/><path class="cls-16" d="M989.26,577.57c0,.18-49.89,.32-111.42,.32s-111.43-.14-111.43-.32,49.88-.32,111.43-.32,111.42,.14,111.42,.32Z"/><path class="cls-16" d="M724.19,614.77c0,.18-23.35,.32-52.16,.32s-52.16-.14-52.16-.32,23.35-.32,52.16-.32,52.16,.14,52.16,.32Z"/><path class="cls-16" d="M724.19,556.07c0,.18-23.35,.32-52.16,.32s-52.16-.14-52.16-.32,23.35-.32,52.16-.32,52.16,.14,52.16,.32Z"/></g><g><path class="cls-14" d="M685.52,510.88h117.84c.29,0,.52,.23,.52,.52v38.65c0,.29-.23,.52-.52,.52h-117.84c-6.16,0-11.16-5-11.16-11.16v-17.36c0-6.16,5-11.16,11.16-11.16Z"/><path class="cls-14" d="M777.02,510.88h226.19c1.45,0,2.63,1.18,2.63,2.63v4.09c0,1.45-1.18,2.63-2.63,2.63h-226.19c-.66,0-1.2-.54-1.2-1.2v-6.95c0-.66,.54-1.2,1.2-1.2Z"/><path class="cls-14" d="M777.02,541.22h226.19c1.45,0,2.63,1.18,2.63,2.63v4.09c0,1.45-1.18,2.63-2.63,2.63h-226.19c-.66,0-1.2-.54-1.2-1.2v-6.95c0-.66,.54-1.2,1.2-1.2Z"/><path class="cls-5" d="M998.98,541.22h-205.8c-5.8,0-10.49-4.7-10.49-10.49h0c0-5.8,4.7-10.49,10.49-10.49h205.8c-5.3,7-5.3,13.99,0,20.99Z"/><g class="cls-8"><path d="M782.69,550.57h-88.64c-10.87,0-19.68-8.81-19.68-19.68h0c0-11.05,8.95-20,20-20h90.47c-20.39,8.7-18.87,29.55-2.14,39.68Z"/></g><path class="cls-16" d="M974.99,529.07c0,.18-40.54,.32-90.53,.32s-90.54-.14-90.54-.32,40.53-.32,90.54-.32,90.53,.14,90.53,.32Z"/><path class="cls-16" d="M993.62,534.72c0,.18-40.54,.32-90.53,.32s-90.54-.14-90.54-.32,40.53-.32,90.54-.32,90.53,.14,90.53,.32Z"/><path class="cls-16" d="M772.77,546.62c0,.18-18.97,.32-42.38,.32s-42.38-.14-42.38-.32,18.97-.32,42.38-.32,42.38,.14,42.38,.32Z"/><path class="cls-16" d="M772.77,515.56c0,.18-18.97,.32-42.38,.32s-42.38-.14-42.38-.32,18.97-.32,42.38-.32,42.38,.14,42.38,.32Z"/><path class="cls-16" d="M1003.14,510.88c0,.18-69.6,.32-155.45,.32s-155.46-.14-155.46-.32,69.59-.32,155.46-.32,155.45,.14,155.45,.32Z"/></g><polygon class="cls-12" points="878.32 475.38 878.32 496.93 885.79 492.14 894.12 496.93 894.12 475.38 878.32 475.38"/></g><g><g><path class="cls-1" d="M977.2,106.77h-66.69c-14.12,0-25.57,11.45-25.57,25.57h0c0,13.62,10.66,24.72,24.09,25.49,2.01,3.48,4.03,6.96,6.04,10.45,2.51-3.46,5.03-6.91,7.54-10.37h54.59c14.12,0,25.57-11.45,25.57-25.57h0c0-14.12-11.45-25.57-25.57-25.57Z"/><path class="cls-16" d="M977.2,106.77s.23-.01,.68,0c.48,.02,1.14,.04,2,.07,1.74,.23,4.36,.56,7.47,1.88,3.09,1.3,6.66,3.61,9.79,7.3,1.51,1.88,2.89,4.08,3.96,6.61,1.07,2.53,1.7,5.41,1.87,8.45,.36,6.07-1.6,13.03-6.47,18.45-2.4,2.7-5.47,5-9.02,6.57-3.54,1.59-7.6,2.21-11.67,2.14-16.22,.01-34.16,.03-53.18,.04l.31-.16c-2.4,3.3-4.95,6.82-7.54,10.37l-.35,.48-.29-.51c-.78-1.35-1.62-2.8-2.46-4.25-1.23-2.12-2.45-4.23-3.58-6.19l.31,.19c-2.57-.19-5.08-.71-7.48-1.56-2.38-.88-4.59-2.13-6.6-3.61-3.99-3.01-7.04-7.12-8.71-11.65-1.72-4.53-2-9.42-1.16-13.98,.91-4.54,2.97-8.76,5.9-12.06,2.91-3.32,6.56-5.84,10.5-7.26,.49-.17,.98-.37,1.47-.52l1.5-.38c.99-.3,2.01-.37,3.01-.54,1-.13,2.01-.12,3-.19,.98,0,1.96,0,2.93,0,7.73,.02,14.92,.03,21.49,.05,13.1,.05,23.67,.09,31.01,.12,3.63,.03,6.45,.05,8.41,.07,.94,.02,1.66,.03,2.18,.04,.49,.01,.74,.04,.74,.04,0,0-.25,.03-.74,.04-.52,0-1.25,.02-2.18,.04-1.95,.02-4.78,.04-8.41,.07-7.34,.03-17.91,.07-31.01,.12-6.56,.01-13.75,.03-21.49,.05-.97,0-1.94,0-2.92,0-.97,.07-1.95,.06-2.93,.2-.97,.17-1.97,.24-2.93,.54l-1.46,.38c-.48,.15-.95,.34-1.43,.51-3.83,1.39-7.38,3.85-10.2,7.09-2.85,3.22-4.84,7.33-5.72,11.74-.81,4.43-.53,9.19,1.15,13.58,1.62,4.4,4.59,8.38,8.46,11.3,1.95,1.43,4.1,2.64,6.41,3.5,2.32,.82,4.76,1.33,7.26,1.51l.21,.02,.1,.18c1.13,1.96,2.35,4.07,3.58,6.19,.84,1.46,1.68,2.91,2.46,4.25l-.64-.03c2.59-3.56,5.15-7.08,7.55-10.37l.11-.16h.19c19.02,.01,36.96,.03,53.18,.04,4.03,.07,7.94-.51,11.41-2.05,3.47-1.51,6.47-3.75,8.83-6.38,4.78-5.28,6.74-12.07,6.41-18.03-.14-2.99-.74-5.82-1.78-8.31-1.03-2.49-2.37-4.67-3.84-6.53-3.05-3.65-6.54-5.97-9.59-7.29-6.21-2.57-10.09-2-10.04-2.21Z"/></g><polygon class="cls-2" points="914.55 124.35 916.94 129.19 922.29 129.97 918.42 133.74 919.33 139.07 914.55 136.55 909.76 139.07 910.68 133.74 906.81 129.97 912.16 129.19 914.55 124.35"/><polygon class="cls-2" points="934.83 124.35 937.23 129.19 942.57 129.97 938.7 133.74 939.62 139.07 934.83 136.55 930.05 139.07 930.97 133.74 927.1 129.97 932.44 129.19 934.83 124.35"/><polygon class="cls-2" points="955.12 124.35 957.51 129.19 962.86 129.97 958.99 133.74 959.9 139.07 955.12 136.55 950.34 139.07 951.25 133.74 947.38 129.97 952.73 129.19 955.12 124.35"/><polygon class="cls-2" points="975.41 124.35 977.8 129.19 983.15 129.97 979.28 133.74 980.19 139.07 975.41 136.55 970.63 139.07 971.54 133.74 967.67 129.97 973.02 129.19 975.41 124.35"/></g><g><g><path class="cls-1" d="M186.63,188.79l10.89,1.05c4.34,5.52,10.38,9.82,17.73,11.99,16.57,4.89,34.58-3.28,41.79-18.98,9.06-19.72-1.57-42.73-22.46-48.61-16.75-4.72-34.75,3.87-41.67,19.84-3.54,8.17-3.73,16.84-1.27,24.61v-.02l-5,10.11Z"/><path class="cls-16" d="M186.63,188.79s.13-.23,.36-.67c.24-.47,.57-1.11,1-1.94,.87-1.72,2.14-4.21,3.78-7.43l-.28,.02v.02c.06,.08,.16,.1,.24,.05,.06-.04,.09-.12,.07-.19-1.31-4.28-2.26-10.25-.92-17.1,.64-3.41,1.94-6.98,3.89-10.45,1.95-3.47,4.63-6.83,8.05-9.68,3.41-2.84,7.56-5.16,12.2-6.56,4.63-1.41,9.75-1.89,14.89-1.19,10.25,1.35,20.55,7.89,25.86,18.04l.98,1.9,.8,1.98c.6,1.29,.87,2.69,1.31,4.02,.62,2.73,1.07,5.5,1.03,8.25,.04,5.5-1.23,10.85-3.5,15.55-2.3,4.68-5.59,8.67-9.37,11.73-3.78,3.06-8.05,5.2-12.33,6.43-8.62,2.47-17.08,1.32-23.42-1.45-6.42-2.75-10.83-6.88-13.6-10.37l-.11-.06c-3.49-.29-6.18-.52-8.05-.68-.9-.07-1.6-.13-2.11-.17-.48-.04-.74-.05-.74-.05-.01,0,.21,.04,.67,.09,.5,.06,1.18,.14,2.06,.24,1.89,.21,4.62,.5,8.15,.89l-.11-.06c2.75,3.56,7.17,7.79,13.66,10.63,6.41,2.85,15,4.09,23.79,1.61,4.37-1.23,8.73-3.39,12.59-6.51,3.87-3.1,7.23-7.17,9.59-11.95,2.32-4.79,3.63-10.26,3.6-15.87,.04-2.81-.41-5.64-1.05-8.43-.45-1.36-.73-2.79-1.34-4.11l-.82-2.02-1-1.95c-5.43-10.38-15.96-17.05-26.43-18.41-5.25-.71-10.47-.2-15.19,1.25-4.73,1.45-8.94,3.82-12.41,6.73-3.47,2.91-6.18,6.35-8.14,9.89-1.97,3.54-3.26,7.17-3.88,10.64-1.31,6.96-.28,12.99,1.11,17.3l.29-.14v-.02c-.06-.08-.16-.1-.23-.05-.03,.02-.05,.04-.06,.07-1.58,3.31-2.8,5.86-3.65,7.62-.39,.82-.69,1.46-.91,1.93-.2,.43-.3,.64-.28,.64Z"/></g><path class="cls-6" d="M226.74,181.76l-.05,3.95-3.53-.05,.05-3.85c-3.49-.26-6.83-1.4-8.75-2.94l2-4.28c1.75,1.33,4.27,2.32,6.81,2.6l.08-5.89c-3.9-1-8.26-2.37-8.19-7.41,.05-3.74,2.81-6.91,8.39-7.47l.05-3.92,3.53,.05-.05,3.85c2.64,.25,5.21,.99,7.13,2.25l-1.82,4.32c-1.79-1.05-3.61-1.67-5.37-1.91l-.08,6c3.9,.97,8.19,2.33,8.12,7.31-.05,3.67-2.77,6.81-8.32,7.41Zm-3.32-15.64l.07-5.01c-1.88,.4-2.63,1.41-2.65,2.58-.02,1.23,1.03,1.92,2.58,2.43Zm5.96,8.58c.02-1.24-1-1.92-2.51-2.47l-.06,4.87c1.77-.36,2.56-1.27,2.57-2.4Z"/></g><g><g><path class="cls-1" d="M74.1,170.94l-2.85-10.56c3.64-6,5.53-13.18,4.97-20.81-1.26-17.23-15.25-31.21-32.48-32.43-21.65-1.53-39.43,16.52-37.58,38.15,1.49,17.34,15.86,31.16,33.25,32.01,8.89,.43,17.08-2.44,23.48-7.48v.02l11.21,1.1Z"/><path class="cls-16" d="M74.1,170.94s-.27-.04-.76-.1c-.52-.06-1.24-.14-2.16-.25-1.92-.21-4.69-.52-8.29-.92l.11,.26v-.02c.07-.07,.05-.17-.02-.23-.06-.05-.14-.04-.2,0-3.55,2.74-8.8,5.73-15.68,6.89-3.42,.61-7.21,.64-11.15,.04-3.94-.6-8.03-1.92-11.89-4.12-3.86-2.19-7.49-5.26-10.44-9.1-2.95-3.84-5.2-8.46-6.36-13.51-2.34-10.07,.15-22.01,7.78-30.55l1.43-1.59,1.57-1.45c1-1.01,2.21-1.76,3.3-2.64,2.34-1.55,4.77-2.94,7.36-3.87,5.13-1.97,10.59-2.67,15.78-2.2,5.19,.51,10.08,2.17,14.28,4.64,4.2,2.46,7.7,5.7,10.36,9.28,5.35,7.2,7.25,15.52,6.89,22.43-.31,6.98-2.63,12.56-4.91,16.38l-.02,.13c.95,3.37,1.69,5.97,2.2,7.77,.25,.87,.44,1.54,.59,2.03,.13,.46,.22,.71,.22,.71,.01,0-.04-.21-.15-.66-.12-.49-.29-1.15-.5-2.01-.47-1.84-1.15-4.5-2.04-7.94l-.02,.13c2.36-3.83,4.76-9.45,5.14-16.52,.42-7-1.46-15.48-6.88-22.83-2.69-3.65-6.25-6.97-10.53-9.49-4.27-2.53-9.26-4.24-14.56-4.77-5.3-.49-10.88,.21-16.12,2.22-2.64,.96-5.13,2.37-7.52,3.95-1.12,.9-2.35,1.67-3.38,2.7l-1.6,1.48-1.47,1.62c-7.8,8.73-10.33,20.95-7.92,31.22,1.19,5.16,3.5,9.87,6.52,13.78,3.02,3.91,6.73,7.03,10.67,9.24,3.95,2.23,8.12,3.55,12.12,4.14,4.01,.59,7.86,.53,11.33-.11,6.97-1.23,12.26-4.31,15.8-7.13l-.23-.23v.02c-.07,.07-.05,.17,.02,.23,.02,.02,.06,.03,.09,.03,3.65,.32,6.47,.56,8.42,.73,.91,.07,1.61,.13,2.13,.17,.47,.04,.71,.05,.69,.04Z"/></g><polygon class="cls-2" points="40.5 159.18 22.02 146.82 26.34 140.37 38.73 148.66 54.15 128.26 60.34 132.93 40.5 159.18"/></g><g><g><g><path class="cls-16" d="M798.8,125.91s-6.68,24.98-7.26,42.65l-.19,5.89s14.74,12.24,27.11,12.99l10.36-25.48-30.02-36.05Z"/><g><g><g><path class="cls-16" d="M864.28,141.23c-2.82-12.18-3.9-26.36-14.03-34.31-7.52-5.89-16.08-7.54-25.63-7.14-4.7,.2-10.01,2.37-14.1,4.68-5.61,3.18-7.99,9.62-10.7,15.47-5.43,11.73-4.74,27.61-1.06,32.02l49,25.88c9.79-5.09,15.92-7.12,17.48-20.16,.66-5.49,.28-11.06-.96-16.45Z"/><g><path class="cls-13" d="M849.72,116.61l-30.84-9.1c-9.93-1.45-17.05,10.57-18.08,20.56-1.14,11.1-2.09,24.69-1.1,33.04,1.99,16.79,14.7,19.42,14.7,19.42,0-.06,.03,.25-.07,5.21l-.04,10.22c-.13,3.25,.44,4.34,2.43,6.92,4.55,5.89,12.84,6.68,22.61,3.06,5.67-2.1,9.61-6.31,10.04-12.06l5.36-71.12c.18-3.04-2-5.72-5.02-6.16Z"/><path class="cls-16" d="M803.74,143.27c-.08,1.13,.8,2.13,1.98,2.24,1.17,.11,2.2-.71,2.28-1.84,.08-1.13-.8-2.13-1.98-2.24-1.18-.11-2.2,.72-2.28,1.84Z"/><path class="cls-16" d="M802.85,138.13c.25,.29,1.92-.85,4.23-.75,2.3,.06,3.95,1.32,4.21,1.04,.13-.12-.12-.63-.84-1.2-.7-.56-1.92-1.13-3.35-1.18-1.43-.05-2.66,.43-3.38,.95-.73,.52-.99,1.01-.86,1.14Z"/><path class="cls-16" d="M823.99,143.6c-.08,1.13,.8,2.13,1.98,2.24,1.17,.11,2.2-.71,2.28-1.84,.08-1.13-.8-2.13-1.98-2.24-1.18-.11-2.2,.72-2.28,1.84Z"/><path class="cls-16" d="M825.5,138.4c.26,.29,1.93-.85,4.23-.75,2.3,.06,3.95,1.31,4.21,1.04,.13-.12-.12-.63-.84-1.2-.7-.56-1.92-1.13-3.35-1.18-1.43-.05-2.66,.43-3.38,.95-.73,.52-.99,1.01-.86,1.14Z"/><path class="cls-16" d="M816.53,153.34c.02-.13-1.41-.43-3.71-.82-.59-.08-1.14-.22-1.22-.63-.12-.43,.15-1.05,.46-1.73,.61-1.4,1.25-2.87,1.92-4.41,2.67-6.28,4.62-11.46,4.37-11.56-.25-.11-2.62,4.9-5.29,11.18-.64,1.55-1.26,3.03-1.84,4.44-.25,.66-.66,1.4-.4,2.3,.14,.45,.56,.78,.93,.9,.37,.13,.7,.15,.99,.18,2.33,.22,3.78,.29,3.79,.15Z"/><path class="cls-7" d="M814.34,180.53s11.2,1.17,22.59-5.08c0,0-5.98,11.46-22.63,9.24l.04-4.16Z"/><path class="cls-7" d="M824,158.45c-.56-.99-1.61-1.54-2.72-1.62-1.59-.11-2.94,.38-4.03,1.8-.37,.41-.39,1.61-.25,1.94,.13,.34,.03,.17,.27,.41,.9,.86,1.85,1.72,3.03,2.05,1.18,.33,2.67,0,3.49-1.13,.73-1.01,.76-2.46,.21-3.45Z"/><path class="cls-16" d="M823.66,155.3c-.37-.04-.49,2.46-2.71,4.14-2.22,1.68-4.87,1.28-4.9,1.63-.04,.16,.57,.51,1.69,.59,1.1,.09,2.73-.19,4.09-1.22,1.35-1.03,1.98-2.46,2.11-3.48,.14-1.04-.11-1.67-.28-1.67Z"/><path class="cls-16" d="M824.63,129.97c.17,.65,2.49,.57,5.14,1.16,2.67,.53,4.77,1.53,5.18,1.01,.19-.25-.14-.88-.96-1.56-.81-.69-2.14-1.4-3.74-1.73-1.6-.33-3.1-.22-4.12,.08-1.03,.3-1.57,.74-1.5,1.05Z"/><path class="cls-16" d="M803.04,131.93c.52,.45,2.2-.34,4.31-.67,2.1-.4,3.95-.22,4.28-.82,.14-.29-.21-.77-1.07-1.15-.84-.38-2.19-.59-3.63-.34-1.44,.25-2.63,.9-3.29,1.54-.67,.64-.84,1.21-.6,1.43Z"/></g></g><path class="cls-16" d="M818.78,105.71c-.03,.12-.05,.24-.08,.36l.06,.02,.02-.39Z"/></g><path class="cls-16" d="M840.34,187.27c.47-4.38-1.29-8.77-.78-13.14,.54-4.63,3.54-8.61,4.78-13.11,1.97-7.21-.73-14.87-1.73-22.32-4.18-.52-8.07-3.02-10.85-6.27-3.35-3.9-5.37-8.74-7.34-13.49,.12,4.66,1.73,9.26,4.54,12.97-1.85,.39-3.81-.41-5.2-1.69-1.39-1.28-2.3-3-3.05-4.74-1.81-4.21-2.8-8.77-2.96-13.35-.62,6.56,.11,13.24,2.18,19.5-1.17-.36-2.42-.04-3.63,.14-1.21,.18-2.6,.14-3.45-.73-.57-.58-.78-1.43-.95-2.23-1.15-5.58-1.34-11.35-.55-16.99-1.49,3.05-2.96,6.13-3.83,9.41-.86,3.28-1.09,6.81-.07,10.05-.48,.61-1.5,.51-2.07-.01-.57-.53-.79-1.33-.91-2.1-.44-2.8,.06-5.66,.55-8.46-1.67,2.96-2.22,6.39-3.15,9.66-.92,3.27-2.39,6.62-5.23,8.48-.49-4.89-.32-8.23,.42-12.81,.56-3.5,2.22-6.97,3.75-10.17,1.72-3.58,4.1-7.08,6.77-9.42,4.92-4.31,6.97-2.45,10.11-.81l.37,.16c.01-.08,.01-.15,.03-.23l.14-.67c8.17-1.84,16.84-1.44,24.81,1.16,5.92,1.93,6.46,14.68,7.91,8.62,.87-3.67,5.62-.32,5.68-.21,6.98,12.59,14.38,32.57,14.72,64.14h0l-31.01,8.66Z"/></g></g><path class="cls-16" d="M860.55,91.06c-2.79-3.05-6.72-5.16-10.86-5.28-4.13-.13-8.38,1.9-10.48,5.46-2.1,3.56-1.69,8.56,1.29,11.42l5.16,4.13c3.55,1.96,7.94,2.6,11.72,1.14,3.78-1.46,6.71-5.24,6.61-9.29-.07-2.83-1.53-5.48-3.44-7.57Z"/><path class="cls-11" d="M856.57,113.97c-1,.47-3.82-3.86-8.86-7.26-4.97-3.51-10.01-4.62-9.93-5.72,.04-.5,1.46-.9,3.76-.67,2.29,.23,5.41,1.22,8.34,3.24,2.92,2.02,4.96,4.59,5.98,6.65,1.04,2.07,1.16,3.54,.71,3.76Z"/></g><g><path class="cls-12" d="M784.83,251.16l19.32-18.1,13.09,20.79c-.26,1.87-16.95,37.82-24.17,45.27-8.24,8.5-19.48,7.84-24.44-3.9-3.91-9.25-10.39-37.75-10.39-37.75l26.59-6.33Z"/><path class="cls-12" d="M805.9,196.73c-4.62,1.66-15.23,7.47-18.33,11.28-1.5,1.84-2.95,3.93-3.9,6.03-2.42,5.32-7.01,44.76-7.01,44.76l20.58,14.9,17.92-68.98-1.14-10.94-8.11,2.95Z"/><path class="cls-12" d="M799.07,310.58l1.3-10.19s-3.97-18.18-5.42-33.96c-2.32-25.09,4.23-40.68,5.12-43.32,.51-1.5,13.95-29.34,13.95-29.34,0,0,2.82,8.58,14.16,6.55,15.82-2.83,21.58-11.4,21.58-11.4l20.43,4.42s7.96,31.97,9.13,42.57c.63,5.68-6.86,37.78-6.86,37.78l12.05,18.03c.36,.89-5.23,25.52-6.33,26.54-1.09,1.02-20.7,5.57-20.94,6.41-.24,.84-37.37,16.38-37.35,15.75,.02-.64-17.86-21.88-17.86-21.88l-2.96-7.96Z"/><path class="cls-16" d="M794.45,226.94s0,.26-.05,.75c-.07,.57-.15,1.27-.25,2.12-.22,1.84-.53,4.49-.8,7.79-.51,6.57-1.03,15.74,.48,25.71,1.32,10,3.25,18.94,4.49,25.44,.63,3.25,1.11,5.88,1.42,7.71,.13,.84,.24,1.54,.33,2.11,.07,.48,.09,.74,.06,.74-.03,0-.1-.24-.21-.72-.13-.56-.28-1.25-.47-2.08-.42-1.92-.98-4.51-1.66-7.66-1.38-6.47-3.39-15.41-4.72-25.44-1.52-10.04-.91-19.29-.26-25.86,.34-3.3,.74-5.95,1.05-7.78,.16-.91,.29-1.62,.39-2.1,.1-.48,.17-.72,.2-.72Z"/></g><g><path class="cls-16" d="M888.09,306.24c3.66,6.22,12.03,30.02,15.28,42.17,14.84,55.46,27.4,130.05,31.57,145.25,5.56,20.25,18,66.08,24.33,96.6l-30.41,13.26s-39.83-107.33-50.7-133.71c-11.26-27.33-30.05-78.88-30.05-78.88l-10.85,204.47-29.13,.9s-9.96-57.61-13.92-92.05c-3.96-34.44-4.4-105.32-4.44-123.31-.04-21.91,9.46-71.19,9.46-71.19,0,0,11.36,8.53,32.67,5.26,16.97-2.6,52.15-15.65,52.15-15.65l4.05,6.87Z"/><path class="cls-11" d="M828.87,322.11c-.05,0,.01,.84,.17,2.35,.16,1.51,.42,3.68,.78,6.36,.71,5.37,1.83,12.76,3.28,20.89,1.46,8.13,2.97,15.46,4.16,20.74,.6,2.64,1.1,4.77,1.48,6.24,.37,1.47,.6,2.27,.65,2.26,.05-.01-.08-.84-.37-2.32-.32-1.61-.74-3.73-1.24-6.28-1.06-5.3-2.49-12.64-3.94-20.76-1.45-8.12-2.65-15.49-3.5-20.83-.41-2.57-.75-4.7-1.02-6.32-.25-1.49-.41-2.32-.46-2.31Z"/><path class="cls-11" d="M839.26,321.69s-.05-.37-.57-.59c-.5-.22-1.3-.28-2.22-.07-.46,.11-.96,.27-1.45,.59-.52,.34-.88,.96-.99,1.62-.24,1.31,.37,2.87,1.67,3.7,1.26,.83,2.91,.91,4.06,.18,.58-.35,.97-.96,1.12-1.51,.17-.56,.17-1.1,.11-1.58-.13-.96-.57-1.66-.98-2-.42-.35-.74-.37-.74-.34-.03,.06,.23,.18,.53,.55,.3,.36,.61,1,.66,1.84,.05,.81-.17,1.93-1.06,2.44-.89,.53-2.24,.46-3.28-.22-1.04-.66-1.55-1.92-1.39-2.95,.08-.52,.32-.96,.67-1.22,.38-.28,.82-.46,1.23-.59,.82-.26,1.53-.27,1.98-.17,.46,.11,.61,.35,.66,.32Z"/><path class="cls-11" d="M820.63,373.67c-.06,.1,1.32,.98,3.52,2.42,2.2,1.44,5.22,3.47,8.45,5.85,3.23,2.38,6.06,4.67,8.09,6.35,2.03,1.68,3.27,2.73,3.35,2.65,.07-.07-1.05-1.27-3-3.06-1.95-1.79-4.74-4.15-7.99-6.55-3.25-2.39-6.33-4.37-8.62-5.7-2.29-1.33-3.76-2.05-3.81-1.96Z"/><path class="cls-11" d="M894.39,484.28c0,.05,.45,.06,1.26,.04,.81-.02,1.98-.1,3.41-.27,2.87-.32,6.83-1.05,11.05-2.37,4.22-1.33,7.88-2.99,10.43-4.36,1.27-.69,2.28-1.28,2.96-1.73,.68-.44,1.04-.71,1.01-.75-.06-.1-1.62,.76-4.21,2-2.59,1.24-6.24,2.81-10.41,4.12-4.18,1.3-8.06,2.1-10.9,2.56-2.83,.46-4.61,.64-4.6,.76Z"/><path class="cls-11" d="M899.33,481.17c.03,.1,1.18-.19,2.98-.79,1.81-.6,4.27-1.54,6.92-2.73,2.65-1.19,4.98-2.41,6.63-3.37,1.65-.95,2.62-1.62,2.57-1.71-.11-.19-4.25,2.02-9.52,4.38-5.26,2.38-9.66,4.01-9.59,4.22Z"/></g><g><path class="cls-16" d="M807.94,575.1l-.15,30.35s-30.91,10.04-31.48,15.65l58.84,2.41,2.18-47.29-29.39-1.12Z"/><path class="cls-6" d="M826.09,603.65c1.13,.36,1.86,1.67,1.55,2.81-.31,1.14-1.64,1.9-2.77,1.56-1.13-.34-2.06-1.89-1.62-2.98,.44-1.1,2.05-1.9,3.06-1.3"/><path class="cls-11" d="M835.16,623.51l.03-4.78-56.43-.52s-2.67,1.03-2.45,2.89l58.84,2.41Z"/><path class="cls-1" d="M806.85,605.12c0,.29,1.43,.48,2.81,1.46,1.4,.95,2.08,2.22,2.35,2.12,.27-.05-.09-1.78-1.78-2.94-1.68-1.17-3.43-.9-3.38-.64Z"/><path class="cls-1" d="M800.57,607.42c-.08,.28,1.15,.82,2.07,2.07,.96,1.23,1.16,2.55,1.44,2.55,.27,.06,.54-1.62-.65-3.16-1.17-1.55-2.85-1.74-2.87-1.46Z"/><path class="cls-1" d="M796.76,614.66c.26,.07,.72-1.35,.04-2.95-.66-1.61-1.99-2.29-2.12-2.05-.17,.23,.67,1.11,1.2,2.43,.56,1.31,.6,2.53,.88,2.57Z"/><path class="cls-1" d="M807.65,598.21c.11,.27,1.44-.08,3.06,.1,1.62,.14,2.87,.74,3.02,.5,.18-.2-1.02-1.31-2.93-1.5-1.91-.2-3.29,.66-3.16,.89Z"/></g><g><path class="cls-16" d="M946.92,571.92l11.27,34.95,16.89,25.07c1.22,1.81,.65,4.27-1.24,5.36h0c-1.06,.61-2.33,.68-3.44,.17-7.06-3.23-32.97-15.26-33.65-17.87-.79-3.02-14.34-36.08-14.34-36.08l24.51-11.61Z"/><path class="cls-11" d="M973.84,637.3l-37.91-20.04,.51,1.47c.44,1.27,1.32,2.35,2.48,3.03,3.1,1.82,11.78,6.66,31.37,15.75,1.14,.53,2.48,.45,3.55-.21h0Z"/><g class="cls-4"><path class="cls-1" d="M939.16,603.6c1.08,.3,1.82,1.51,1.57,2.6-.25,1.09-1.48,1.85-2.57,1.57-1.08-.28-2.02-1.71-1.64-2.77,.37-1.05,1.87-1.87,2.85-1.34"/></g><path class="cls-1" d="M960.64,624.91c.23,.03,.38-2.06,2.1-3.76,1.67-1.75,3.76-1.92,3.73-2.15,0-.1-.53-.21-1.38-.04-.85,.16-1.98,.68-2.92,1.63-.93,.95-1.44,2.09-1.59,2.94-.16,.85-.03,1.39,.06,1.38Z"/><path class="cls-1" d="M964.72,628.69c.22,.09,.94-1.42,2.55-2.56,1.59-1.17,3.25-1.38,3.24-1.62,.04-.21-1.89-.37-3.71,.96-1.83,1.31-2.29,3.18-2.08,3.21Z"/><path class="cls-1" d="M953.97,620.55c.22,.11,1.32-2.23,3.67-4.22,2.33-2.03,4.8-2.76,4.73-2.99,0-.2-2.75,.21-5.25,2.38-2.52,2.14-3.35,4.79-3.15,4.83Z"/><path class="cls-1" d="M949.65,610.22c.16,.18,1.8-1.29,4.26-2.25,2.45-.99,4.65-1.05,4.65-1.29,.04-.2-2.31-.52-4.94,.54-2.64,1.04-4.13,2.88-3.97,3Z"/><path class="cls-1" d="M946.08,600.04c.18,.16,1.7-1.66,4.38-2.46,2.66-.86,4.95-.21,5-.45,.03-.09-.5-.4-1.46-.58-.95-.19-2.34-.19-3.78,.25-1.43,.45-2.58,1.23-3.26,1.93-.69,.69-.95,1.25-.88,1.3Z"/><path class="cls-1" d="M949.73,595.66s-.04-.51-.41-1.33c-.37-.81-1.04-1.96-2.24-3.07-.6-.51-1.28-1.21-2.4-1.33-.56-.06-1.25,.28-1.5,.88-.25,.59-.18,1.2,0,1.76,.8,2.19,3.43,3.66,6.02,3.12,2.58-.59,4.34-2.8,4.66-5.04,.04-.57-.02-1.22-.49-1.72-.47-.5-1.26-.49-1.72-.23-.98,.51-1.42,1.33-1.87,1.98-.86,1.38-1.25,2.64-1.43,3.52-.18,.88-.16,1.38-.12,1.38,.15,.05,.28-2.01,2.02-4.59,.45-.61,.96-1.36,1.67-1.69,.35-.16,.71-.13,.94,.12,.23,.23,.31,.69,.26,1.15-.29,1.85-1.9,3.86-4.09,4.32-2.17,.48-4.49-.82-5.15-2.57-.15-.42-.19-.89-.05-1.23,.14-.33,.46-.51,.82-.5,.77,.04,1.48,.61,2.06,1.09,2.35,2.04,2.88,4.06,3.03,3.97Z"/></g><g><polygon class="cls-13" points="762.18 226.94 776.21 241.44 776.78 254.06 760.49 257.81 759.66 257.81 758.61 249.66 749.22 237.18 762.18 226.94"/><g><path class="cls-11" d="M747.16,216.45c-15.6,16.66-36.76,26.24-59.57,26.99-22.81,.75-44.55-7.44-61.21-23.04h0c-34.39-32.21-36.16-86.4-3.95-120.78,15.6-16.66,36.76-26.24,59.57-26.99,22.81-.75,44.55,7.44,61.21,23.04,13.53,12.67,22,28.73,25.36,45.66,5.17,26.11-1.86,54.26-21.4,75.13Zm-116.87-.23c15.54,14.56,35.82,22.19,57.11,21.5,21.28-.7,41.02-9.64,55.58-25.18,14.56-15.54,22.19-35.83,21.5-57.11-.69-21.29-9.64-41.03-25.18-55.58-15.54-14.56-35.82-22.19-57.11-21.5-21.28,.7-41.02,9.64-55.58,25.18-18.23,19.47-24.8,45.73-19.97,70.09,3.13,15.79,11.04,30.78,23.66,42.6Z"/><path class="cls-16" d="M747.16,216.45c-15.6,16.66-36.76,26.24-59.57,26.99-22.81,.75-44.55-7.44-61.21-23.04h0c-34.39-32.21-36.16-86.4-3.95-120.78,15.6-16.66,36.76-26.24,59.57-26.99,22.81-.75,44.55,7.44,61.21,23.04,13.53,12.67,22,28.73,25.36,45.66,5.17,26.11-1.86,54.26-21.4,75.13Zm-116.87-.23c15.54,14.56,35.82,22.19,57.11,21.5,21.28-.7,41.02-9.64,55.58-25.18,14.56-15.54,22.19-35.83,21.5-57.11-.69-21.29-9.64-41.03-25.18-55.58-15.54-14.56-35.82-22.19-57.11-21.5-21.28,.7-41.02,9.64-55.58,25.18-18.23,19.47-24.8,45.73-19.97,70.09,3.13,15.79,11.04,30.78,23.66,42.6Z"/><path class="cls-11" d="M749.26,212.34c-15.6,16.66-36.76,26.24-59.57,26.99-22.81,.75-44.55-7.44-61.21-23.04h0c-34.39-32.21-36.16-86.4-3.95-120.78,15.6-16.66,36.76-26.24,59.57-26.99,22.81-.75,44.55,7.44,61.21,23.04,13.53,12.67,22,28.73,25.36,45.66,5.17,26.11-1.86,54.26-21.4,75.12Zm-116.87-.23c15.54,14.56,35.82,22.19,57.11,21.5,21.28-.7,41.02-9.64,55.58-25.18,14.56-15.54,22.19-35.83,21.5-57.11-.69-21.29-9.64-41.03-25.18-55.58-15.54-14.56-35.82-22.19-57.11-21.5-21.28,.7-41.02,9.64-55.58,25.18-18.23,19.47-24.8,45.73-19.97,70.09,3.13,15.79,11.04,30.78,23.66,42.6Z"/></g><path class="cls-11" d="M844.12,320.21l2.72-2.63c2.43-2.35,1.07-7.71-1.48-10.32l-95.46-98.67-12.76,12.35,95.32,98.52c3.22,3.16,8.55,3.77,11.67,.75Z"/><g><path class="cls-13" d="M756.14,220.49c-.45-.43-1.33-.7-1.93-.51-.6,.18-1.08,.61-1.51,1.06-3.1,3.15-4.91,7.55-4.92,11.97,0,1.9,.5,4.07,2.19,4.94l1.92-1.11c.6-.77,2.37-2.05,2.61-2.99,.99-3.96-.43-3.8,2.05-10.67,.24-.67,.51-1.8-.4-2.67Z"/><path class="cls-13" d="M755.69,226.11c.54-.94,1.14-1.85,1.9-2.5,.76-.65,1.7-1.01,2.52-.75,1.32,.42,1.97,2.32,1.82,4.09-.15,1.77-.91,3.44-1.65,5.04-1.57,3.41-3.14,6.82-4.72,10.22l-.91-.67c-.65,.64-1.6,.31-2.04-.45-.44-.76-.48-1.8-.45-2.78,.14-4.26,1.44-8.57,3.52-12.2Z"/><path class="cls-13" d="M758,236.3c1.08-2.4,2.9-4.4,4.72-6.33,.63-.67,1.31-1.36,2.19-1.66,.88-.3,2.03-.08,2.46,.72,.42,.78,.05,1.72-.33,2.51-2.36,4.93-5.08,9.69-8.12,14.25l-2.82-2.84c-1.28-2.31,.81-4.26,1.89-6.65Z"/></g><g><g><g><path class="cls-13" d="M834.16,267.83l-2.59-.55-13.54-11.54-7.41-6.23c-.62-.52-1.37-.87-2.17-1l-7.34-1.22s-1.15,3.19,2.2,5.03l4.02,2.08,3.68,4.35-.47,.94s-24.11,3.74-25.62,5.58c-1.51,1.84,0,3.51,.67,3.85,.67,.33,1.84,.17,1.84,.17,0,0-1.17,2.84,2.34,5.18,0,0-2.68,3.51,2.01,5.18,0,0,1.34,2.68,4.01,3.51,2.68,.84,17.06,2.51,18.56,2.51s17.29,.03,17.29,.03l3.47,.57-.94-18.43Z"/><path class="cls-7" d="M786.87,269.32c-.02,.2,2.97,.61,6.67,.36,3.68-.27,6.61-.79,6.6-.98-.02-.23-3-.04-6.65,.22-3.64,.25-6.6,.18-6.62,.4Z"/><path class="cls-7" d="M789.77,274.46c0,.11,.63,.19,1.63,.33,1.01,.13,2.4,.32,3.96,.42,1.58,.1,3-.05,4-.09,1.01-.07,1.62-.05,1.65-.15,.03-.11-.61-.32-1.64-.39-1.03-.1-2.44-.04-3.96-.14-1.53-.09-2.95-.21-3.97-.2-1.03,0-1.67,.11-1.66,.21Z"/><path class="cls-7" d="M791.29,279.54c-.02,.21,2.9,.6,6.5,.87,1.81,.11,3.4,.26,4.45,.69,1.06,.4,1.55,.97,1.64,.88,.07-.03-.29-.79-1.42-1.37-1.11-.61-2.82-.85-4.61-.96-3.61-.27-6.54-.33-6.56-.12Z"/></g><g><path class="cls-12" d="M870.19,193.34s10.19,1.76,17.92,16.94c4.27,8.39,24.23,58.87,25.41,63.3,5.06,18.94-4.74,31.14-14.17,31.97-10.39,.91-64.1-16.42-64.1-16.42l-1.19-22.95,49,7.44-23.54-45.69s-.9-30.43,10.67-34.59Z"/><path class="cls-16" d="M899.53,286.17c.07-.02-.25-1.28-1.32-3.06-1.05-1.78-2.93-4.01-5.51-5.86-2.59-1.84-5.31-2.9-7.33-3.31-2.03-.43-3.32-.33-3.32-.25,0,.13,1.25,.22,3.19,.77,1.94,.53,4.52,1.63,7.02,3.41,2.49,1.79,4.37,3.87,5.5,5.53,1.15,1.65,1.65,2.82,1.77,2.77Z"/></g></g><path class="cls-16" d="M885.89,303.59s-.09,0-.25-.03l-.73-.16c-.65-.13-1.59-.41-2.82-.75-2.45-.71-6.01-1.8-10.5-3.23-8.97-2.86-21.65-7.05-36.56-12.09l-.23-.08v-.24c-.36-6.6-.74-13.8-1.13-21.31l-.02-.47,.46,.08c3.86,.63,7.93,1.28,12.05,1.95,13.29,2.17,25.87,4.22,36.95,6.03l-.36,.5c-6.66-13.04-12.29-24.06-16.27-31.86-1.94-3.85-3.48-6.91-4.56-9.06-.5-1.02-.89-1.82-1.18-2.41-.26-.55-.39-.84-.37-.85,.02,0,.18,.26,.47,.8,.31,.58,.74,1.36,1.28,2.36,1.12,2.13,2.72,5.15,4.73,8.97,4.05,7.77,9.76,18.74,16.52,31.73l.32,.61-.68-.11c-11.09-1.79-23.67-3.81-36.96-5.96-4.13-.67-8.19-1.33-12.05-1.96l.44-.39c.38,7.51,.74,14.71,1.07,21.31l-.24-.32c14.87,5.04,27.49,9.32,36.46,12.35,4.43,1.45,7.96,2.61,10.43,3.42,1.22,.37,2.15,.68,2.78,.85,.29,.09,.52,.16,.72,.21,.16,.05,.24,.08,.24,.09Z"/><path class="cls-16" d="M872.37,194.27c.07,.12-1.39,.96-3.42,2.71-2.03,1.74-4.55,4.51-6.51,8.09-1.94,3.6-2.9,7.22-3.25,9.87-.36,2.66-.27,4.34-.41,4.34-.05,0-.11-.41-.17-1.17-.08-.76-.07-1.87,.05-3.23,.1-1.36,.4-2.97,.88-4.72,.52-1.74,1.24-3.6,2.23-5.45,1.01-1.83,2.18-3.46,3.36-4.84,1.2-1.36,2.39-2.48,3.48-3.31,1.08-.84,2.01-1.45,2.68-1.8,.67-.36,1.05-.54,1.08-.49Z"/></g></g></g><g><path class="cls-9" d="M307.3,225.18s-10.83,60.23-10.3,65.86c.52,5.63,3.4,14.59,9.93,16.13,6.53,1.54,12.54,0,12.54,0l-7.84-73.98-4.33-8.01Z"/><g><g><path class="cls-9" d="M338.92,173.73l-.76-62.24c-.69-15.48,7.74-28.78,23.23-29.04l1.43,.06c14.42,.6,25.97,12.16,26.54,26.58,.53,13.42,.94,28.25,.55,35.42-.8,14.84-15.75,16.54-15.75,16.54-.03,0-.09,9.04-.08,13.4l-11.95,16.59v.89l-23.2-18.19Z"/><path class="cls-10" d="M374.16,161.05s-9.38,.16-19.1-6.52c0,0,4.19,11.36,19.07,10.63l.04-4.12Z"/><path class="cls-16" d="M384.63,121.9c0,1.12-.96,2.04-2.13,2.06-1.17,.01-2.11-.88-2.11-2,0-1.12,.96-2.04,2.13-2.06,1.17-.01,2.12,.88,2.11,2Z"/><path class="cls-16" d="M385.93,115.52c-.27,.27-1.83-.99-4.11-1.08-2.28-.12-4,.98-4.24,.69-.12-.13,.17-.62,.92-1.12,.74-.5,1.99-.96,3.41-.9,1.42,.07,2.6,.64,3.26,1.2,.68,.57,.9,1.08,.76,1.2Z"/><path class="cls-16" d="M364.24,121.9c0,1.12-.96,2.04-2.13,2.06-1.17,.01-2.11-.88-2.11-2,0-1.12,.96-2.04,2.13-2.06,1.17-.01,2.12,.88,2.11,2Z"/><path class="cls-16" d="M363.53,115.12c-.27,.27-1.83-.99-4.12-1.08-2.28-.12-4,.98-4.24,.69-.12-.13,.17-.62,.92-1.12,.74-.5,1.99-.96,3.41-.9,1.42,.07,2.6,.64,3.26,1.2,.68,.57,.9,1.08,.76,1.2Z"/><path class="cls-16" d="M370.99,133c0-.13,1.42-.32,3.73-.52,.59-.04,1.14-.13,1.26-.52,.15-.42-.06-1.05-.32-1.74-.49-1.43-1-2.94-1.54-4.51-2.13-6.42-3.65-11.68-3.39-11.77,.26-.08,2.2,5.05,4.33,11.47,.51,1.58,1,3.09,1.47,4.53,.19,.67,.54,1.44,.21,2.3-.18,.43-.62,.73-.99,.81-.38,.1-.71,.09-1,.1-2.32,.03-3.75-.02-3.76-.15Z"/><path class="cls-16" d="M364.56,108.01c-.33,.57-2.52-.13-5.22-.3-2.69-.22-4.96,.16-5.21-.46-.11-.29,.37-.8,1.34-1.23,.96-.43,2.42-.74,4.04-.63,1.61,.12,3.02,.64,3.9,1.21,.9,.57,1.29,1.14,1.14,1.41Z"/><path class="cls-16" d="M386.31,108.81c-.49,.51-2.33-.08-4.57-.17-2.23-.15-4.14,.24-4.56-.31-.18-.27,.13-.78,.97-1.25,.83-.47,2.2-.83,3.74-.75,1.54,.08,2.85,.59,3.62,1.14,.78,.55,1.02,1.1,.81,1.34Z"/><path class="cls-9" d="M338.92,122.54c-.25-.12-10.08-3.44-10.18,6.73-.09,10.17,10.13,8.17,10.15,7.87,.02-.29,.02-14.6,.02-14.6Z"/><path class="cls-10" d="M335.83,133.26s-.18,.12-.48,.26c-.29,.13-.8,.22-1.32,.01-1.07-.4-1.96-2.12-1.99-3.95-.02-.93,.19-1.8,.52-2.53,.32-.74,.8-1.26,1.35-1.35,.54-.12,.92,.21,1.04,.5,.13,.29,.07,.49,.12,.51,.03,.03,.22-.17,.14-.59-.04-.2-.16-.44-.39-.64-.24-.2-.6-.31-.98-.27-.78,.05-1.5,.76-1.87,1.56-.41,.8-.66,1.79-.64,2.83,.05,2.05,1.08,3.98,2.54,4.41,.71,.19,1.31-.02,1.62-.25,.32-.25,.37-.47,.34-.49Z"/><path class="cls-16" d="M363.82,134.41c.35-.02,.37,2.31,2.37,3.96,2,1.65,4.49,1.38,4.51,1.71,.03,.15-.55,.46-1.6,.49-1.03,.04-2.54-.28-3.76-1.29-1.22-1.01-1.75-2.36-1.84-3.32-.09-.98,.16-1.56,.32-1.54Z"/></g><g><path class="cls-16" d="M409.88,95.71c-.16-.6-.59-1.1-1.12-1.42-1.16-.7-2.5-.62-3.8-.66-3.23-.09-6.42-.95-9.28-2.44,1.01-.5,1.95-1.1,2.76-1.89,1.66-1.62,2.64-4.12,1.91-6.32-.14-.41-.37-.85-.79-.98-.66-.21-1.24,.43-1.71,.94-1.53,1.67-2.94,2.39-5.2,2.13-1.4-.16-2.76-.49-3.85-1.19-.04-.05-.08-.1-.13-.14-.52-.55-1.03-1.08-1.54-1.59h0c-3.78-3.84-7.04-6.51-10.41-7.91-4.94-2.05-13.23-2.96-18.43-1.66-5.19,1.3-9.89,5.45-10.67,10.74-2.87-2.49-7.23-2.52-10.78-1.13l-.09-.04c-3.95,1.36-6.24,5.49-7.44,9.49-.07,.22-.12,.44-.19,.66-1.35,2.1-3.19,3.88-5.36,5.11-.38,.22-.82,.48-.87,.92-.05,.43,.31,.8,.66,1.06,.94,.69,2.03,1.14,3.17,1.36-.37,.95-.8,1.87-1.34,2.75-.45,.75-.99,1.64-.61,2.43,.29,.61,1.06,.87,1.73,.78,.67-.09,1.27-.45,1.84-.81-.45,1.05-.9,2.09-1.35,3.14,1.42,.26,2.9,.17,4.29-.24,.79,3.76,1.34,10.72,2.28,13.28,2.7,.08,3.36-.21,4.71,.26,1.75,.6,1.05,3.71,3.35,2.85,1.17-.44,3.01-4.84,3.42-6.02,2.68-7.85,3.64-16.29,2.79-24.55,1.65-1.72,3.63-3.12,5.81-4.09l-.18,.16c4.17-1.4,8.89-2.76,12.81-.77,3.04,1.55,4.8,4.74,7.06,7.3,4.28,4.85,9.16,7.47,15.62,7.82,.53,4.5,.62,11.84,.79,16.03l3.67-8.34v.03c.3-.49,.54-.98,.78-1.47l.08-.15v-.02c.38-.79,.73-1.59,1.21-2.37l.04,.04c2.25,2.03,5.63-1,3.86-3.46-.35-.49-.77-.92-1.25-1.29,1.03,.99,2.57,1.47,3.93,1.07,1.37-.4,2.44-1.77,2.33-3.19-.07-.97-.75-1.84-1.62-2.23,1.83,.16,3.71-.22,5.32-1.11,1.05-.59,2.09-1.56,1.75-2.88Z"/><path class="cls-11" d="M352.3,85.08s-.63,.39-1.51,1.35c-.87,.96-1.86,2.63-2.34,4.91-.25,1.14-.41,2.41-.42,3.78-.02,1.37,.07,2.84,.16,4.39,.08,1.55,.17,3.18,.06,4.88-.06,.85-.17,1.71-.37,2.57-.2,.85-.43,1.76-1.08,2.49-.52,.59-1.37,.84-2.11,.68-.74-.14-1.4-.54-1.88-1.09-.94-1.13-1.17-2.55-1.39-3.8l.31,.04c-.52,1.12-1.06,2.22-1.85,3.1-.77,.88-1.84,1.46-2.91,1.54-.54,.04-1.07-.05-1.53-.29-.47-.23-.8-.63-1.03-1.04-.22-.42-.33-.88-.3-1.32,.03-.44,.21-.86,.49-1.15l.16,.14c-1.16,1.29-2.38,1.98-3.22,2.36-.42,.19-.76,.3-.99,.37-.23,.07-.35,.09-.36,.08,0-.01,.11-.06,.34-.14,.22-.09,.55-.22,.97-.42,.82-.41,2-1.11,3.11-2.4l.16,.14c-.51,.53-.55,1.46-.12,2.21,.21,.37,.52,.72,.93,.92,.41,.21,.9,.29,1.39,.24,.99-.09,1.98-.63,2.7-1.47,.74-.84,1.26-1.91,1.78-3.03l.22-.47,.09,.52c.22,1.25,.46,2.61,1.32,3.63,.43,.49,1.03,.85,1.68,.97,.65,.13,1.34-.07,1.79-.58,.57-.62,.8-1.49,1-2.33,.19-.84,.3-1.68,.36-2.52,.12-1.67,.04-3.29-.04-4.84-.08-1.55-.16-3.02-.13-4.41,.03-1.39,.21-2.68,.47-3.83,.52-2.31,1.56-4.01,2.48-4.95,.93-.95,1.61-1.26,1.61-1.26Z"/><path class="cls-11" d="M398.17,100.08s-.04,.04-.12,.1c-.1,.07-.22,.16-.37,.27-.16,.12-.37,.26-.64,.4-.26,.14-.55,.32-.91,.47-1.39,.64-3.61,1.27-6.38,1.07-2.74-.19-6.03-1.2-8.94-3.42-2.95-2.17-5.52-5.35-7.61-8.98-1.06-1.81-1.92-3.67-2.88-5.39-.95-1.72-2-3.31-3.27-4.57-1.26-1.27-2.73-2.21-4.26-2.65-.76-.24-1.53-.29-2.26-.29-.73,.03-1.43,.17-2.07,.37-1.29,.42-2.33,1.11-3.12,1.83-.8,.73-1.33,1.5-1.7,2.16-.69,1.36-.74,2.24-.79,2.22,0,0,0-.05,.01-.16,.02-.12,.05-.27,.08-.45,.08-.4,.26-.97,.58-1.67,.36-.68,.89-1.48,1.69-2.24,.8-.75,1.86-1.48,3.18-1.92,.66-.22,1.38-.37,2.14-.41,.76-.02,1.56,.04,2.35,.28,1.58,.45,3.11,1.41,4.4,2.7,1.32,1.28,2.39,2.9,3.35,4.63,.96,1.73,1.83,3.58,2.88,5.38,2.08,3.6,4.61,6.75,7.5,8.9,2.86,2.2,6.07,3.21,8.77,3.43,2.72,.22,4.92-.36,6.31-.95,1.4-.61,2.07-1.15,2.1-1.11Z"/><path class="cls-11" d="M399.6,93.56s-.18,.15-.54,.37c-.35,.22-.9,.5-1.59,.78-.69,.3-1.54,.57-2.51,.79-.97,.21-2.06,.36-3.2,.39-1.15,.02-2.24-.09-3.22-.26-.98-.19-1.84-.42-2.54-.69-.7-.26-1.26-.51-1.62-.72-.37-.2-.56-.32-.55-.34,.03-.06,.85,.37,2.25,.83,.7,.23,1.56,.44,2.52,.61,.96,.15,2.03,.24,3.16,.22,1.12-.03,2.19-.17,3.14-.35,.95-.2,1.8-.45,2.49-.71,1.39-.51,2.18-.98,2.22-.92Z"/></g></g><g><g><g><g><path class="cls-11" d="M360.68,566l-1.47,33.61s33.67,12.78,34.01,19.02l-65.27-.51,.14-52.47,32.6,.34Z"/><path class="cls-6" d="M339.05,596.63c-1.27,.34-2.15,1.75-1.87,3.03,.28,1.28,1.71,2.19,2.98,1.88,1.27-.31,2.39-1.98,1.96-3.22-.42-1.24-2.16-2.22-3.32-1.61"/><g class="cls-4"><path class="cls-1" d="M327.94,618.13l.22-5.29,62.5,2.46s2.9,1.29,2.55,3.33l-65.27-.51Z"/></g><path class="cls-16" d="M360.27,599.29c-.01,.32-1.61,.45-3.18,1.46-1.6,.97-2.42,2.35-2.71,2.22-.29-.06,.2-1.97,2.13-3.16,1.92-1.21,3.84-.81,3.77-.52Z"/><path class="cls-16" d="M367.1,602.18c.07,.31-1.31,.84-2.41,2.18-1.13,1.31-1.42,2.76-1.73,2.75-.3,.05-.51-1.82,.89-3.46,1.38-1.65,3.25-1.77,3.26-1.47Z"/><path class="cls-16" d="M370.92,610.4c-.29,.07-.72-1.53,.11-3.27,.82-1.75,2.33-2.42,2.46-2.16,.18,.26-.8,1.19-1.46,2.63-.7,1.42-.8,2.77-1.11,2.79Z"/><path class="cls-16" d="M359.76,591.59c-.14,.29-1.6-.16-3.4-.05-1.8,.07-3.21,.67-3.38,.39-.18-.23,1.2-1.4,3.32-1.5,2.12-.11,3.61,.91,3.45,1.16Z"/></g><path class="cls-16" d="M360.59,591.21c.16,0,.19,3.11,.09,8.09l-.26-.4c3.81,1.45,8.88,3.4,14.27,5.94,5.9,2.76,11.09,5.64,14.46,8.33,1.69,1.33,2.94,2.59,3.58,3.65,.68,1.05,.59,1.85,.48,1.81-.05,0-.1-.66-.83-1.57-.71-.92-1.98-2.05-3.69-3.27-3.41-2.48-8.6-5.22-14.46-7.96-5.35-2.52-10.37-4.56-14.11-6.17l-.28-.12,.02-.28c.3-4.97,.57-8.07,.73-8.06Z"/></g><g><path class="cls-16" d="M318.47,331.62v30.46l12.02,97.28s-3.81,45.62-6.15,71.37c-2.03,22.36,1.29,61.31,1.29,61.31h35.63l12.75-129.89,7.91-81.01,14.35-47.98-77.79-1.54Z"/><g><path class="cls-11" d="M381.63,560.17l-9.33,32.32s29.72,20.34,28.58,26.48l-63.33-15.84,12.47-50.96,31.6,8Z"/><path class="cls-6" d="M353.4,584.85c-1.31,.03-2.5,1.19-2.53,2.5-.03,1.31,1.15,2.53,2.46,2.53,1.31,0,2.78-1.36,2.66-2.67-.12-1.3-1.58-2.66-2.85-2.34"/><g class="cls-4"><path class="cls-1" d="M337.55,603.13l1.46-5.09,60.17,17.09s2.51,1.93,1.7,3.84l-63.33-15.84Z"/></g><path class="cls-16" d="M373.41,592.43c-.09,.31-1.67,.06-3.44,.67-1.79,.57-2.91,1.71-3.16,1.52-.27-.13,.65-1.86,2.81-2.57,2.15-.72,3.93,.11,3.79,.38Z"/><path class="cls-16" d="M379.36,596.84c0,.32-1.47,.51-2.85,1.55-1.41,1-2.03,2.35-2.33,2.26-.3-.02-.06-1.89,1.67-3.16,1.73-1.28,3.58-.96,3.51-.66Z"/><path class="cls-16" d="M381.14,605.73c-.3,0-.34-1.66,.88-3.15,1.21-1.5,2.83-1.81,2.9-1.52,.11,.3-1.05,.97-2.04,2.21-1.01,1.22-1.42,2.5-1.74,2.45Z"/><path class="cls-16" d="M374.71,584.83c-.2,.25-1.51-.53-3.29-.85-1.77-.35-3.28-.11-3.37-.41-.12-.27,1.49-1.08,3.58-.68,2.09,.39,3.3,1.74,3.08,1.94Z"/></g><polygon class="cls-16" points="410.02 333.7 411.66 350.26 409.68 470.57 381.49 567.21 374.66 590.65 338.26 583.8 366.32 333.73 410.02 333.7"/></g></g><path class="cls-11" d="M408.92,473.09s-.04,.2-.14,.57c-.11,.39-.26,.95-.46,1.67-.42,1.49-1.04,3.66-1.83,6.47-1.63,5.67-4,13.91-6.99,24.3-6.03,20.81-14.56,50.2-24.54,84.64l-.08,.28-.29-.05c-11.5-2.16-23.73-4.46-36.4-6.84l-.33-.06,.06-.33c1.86-9.81,3.8-20.05,5.78-30.5,5.88-30.95,11.42-60.14,16.27-85.64v.1c-6.03-37.83-10.83-68-13.59-85.33l.02,.05c-2.65-4.81-4.69-8.53-6.08-11.06-.68-1.25-1.19-2.2-1.55-2.86-.34-.64-.5-.98-.5-.98,0,0,.2,.31,.57,.95,.37,.65,.91,1.59,1.61,2.82,1.42,2.52,3.5,6.21,6.2,10.99v.02l.02,.03c2.83,17.31,7.75,47.46,13.92,85.27v.11c-4.82,25.51-10.34,54.7-16.19,85.65-1.98,10.45-3.92,20.7-5.78,30.5l-.27-.4c12.66,2.39,24.89,4.7,36.39,6.87l-.37,.22c10.08-34.41,18.69-63.78,24.78-84.57,3.06-10.37,5.49-18.59,7.16-24.24,.84-2.8,1.49-4.96,1.93-6.44,.22-.72,.39-1.26,.51-1.66,.12-.37,.19-.56,.19-.56Z"/><path class="cls-11" d="M403.49,343.56c.06,.04-.58,1.23-1.98,2.91-1.39,1.67-3.61,3.77-6.46,5.52-2.86,1.74-5.74,2.75-7.87,3.22-2.13,.48-3.49,.5-3.49,.43-.07-.23,5.4-.76,11-4.23,5.65-3.39,8.63-8,8.8-7.84Z"/></g><g><g><path class="cls-9" d="M481.04,162.03c.46-.68,.35-1.65-.34-2.12-.18-.12-.36-.19-.54-.16-.73,.12-2.65,1.52-4.12,1.55-1.48,.02-3.99-.43-5.46,.94-1.48,1.37-5.07,8.89-5.53,10.52-.46,1.63-2.06,15.97-2.06,15.97l18.06-26.69Z"/><path class="cls-16" d="M487.27,160.15c-.08,.09-17.66,7.85-25.38,11.26-1.72,.76-2.11,2.99-.75,4.31h0c.84,.81,2.11,1.01,3.14,.49l25.23-12.3,2.08-3.16-4.32-.6Z"/><path class="cls-9" d="M468.65,175.97l5.61-4.13,7.4-10.74s3.03-1.8,4.6-.67c1.57,1.13,2.08,2.45,1.35,3.91,0,0,4.18,1,4.48,2.4,.3,1.4-.6,4.81-.6,4.81,0,0,.62,2.62,.03,4-.59,1.39-.53,2.58-.53,2.58,0,0,2.71,3.32,1.55,6.7-1.16,3.39-6.05,10.95-8.66,12.91-2.61,1.96-7.56,4.3-7.56,4.3l-3.23,6.77-13.41-12.14,8.97-20.71Z"/><path class="cls-10" d="M481.42,161.57s-.1,.22-.34,.58c-.27,.41-.6,.92-1,1.52-.85,1.28-2.05,3.03-3.38,4.96-.67,.96-1.31,1.87-1.89,2.71-.3,.41-.61,.8-.96,1.1-.35,.31-.72,.53-1.07,.7-.71,.33-1.32,.48-1.74,.58-.42,.1-.65,.14-.66,.12,0-.02,.22-.09,.63-.22,.41-.13,1-.31,1.68-.65,1.45-.61,2.41-2.63,3.79-4.5,1.33-1.93,2.55-3.66,3.45-4.91,.43-.59,.79-1.08,1.07-1.47,.26-.34,.41-.53,.42-.52Z"/><path class="cls-10" d="M483.15,172.74c-.07-.04,.9-1.93,2.16-4.22,1.26-2.3,2.33-4.13,2.4-4.09s-.9,1.93-2.16,4.22c-1.26,2.3-2.33,4.13-2.4,4.09Z"/><path class="cls-10" d="M484.91,179.45s-.06-.24-.2-.59c-.13-.35-.41-.8-.87-1.12-.46-.32-.99-.42-1.36-.43-.38-.01-.61,.05-.62,0-.01-.03,.21-.16,.62-.2,.4-.04,.99,.04,1.52,.4,.52,.36,.81,.9,.9,1.29,.1,.4,.05,.65,.02,.65Z"/><path class="cls-10" d="M491.13,181.46s-.23-.13-.55-.38c-.32-.25-.76-.61-1.31-.86-.55-.25-1.11-.32-1.48-.24-.38,.07-.52,.31-.55,.28-.04,0,.06-.32,.5-.47,.42-.15,1.05-.09,1.65,.18,.6,.27,1.03,.67,1.33,.96,.29,.3,.45,.5,.42,.52Z"/><path class="cls-10" d="M488.73,175.81c-.06-.04,.49-1.02,1.23-2.2,.74-1.17,1.4-2.09,1.46-2.05,.06,.04-.49,1.02-1.23,2.2-.74,1.17-1.4,2.09-1.46,2.05Z"/><path class="cls-10" d="M477.99,176.3s-.04-.23-.14-.57c-.1-.33-.33-.77-.76-1.08-.42-.31-.92-.39-1.26-.39-.35,0-.57,.07-.58,.03-.01-.03,.19-.17,.57-.23,.38-.06,.95,0,1.44,.36,.49,.36,.73,.88,.79,1.26,.06,.38-.02,.62-.05,.61Z"/><path class="cls-11" d="M463.32,176.27s.24-.25,.48-.71c.24-.45,.42-1.21,.13-1.95-.29-.73-.92-1.19-1.39-1.38-.49-.2-.83-.19-.83-.24,0-.03,.35-.11,.89,.06,.53,.16,1.25,.63,1.58,1.46,.32,.84,.09,1.68-.22,2.14-.31,.48-.64,.64-.65,.62Z"/></g><g><path class="cls-9" d="M416.18,210.2l21.27,18.2,26.1-39,16.97,10.01s-25.44,58.56-32.33,63.74c-6.89,5.17-12.71,3.83-21.58-.26-8.87-4.1-40.47-35.91-40.47-35.91l30.04-16.78Z"/><path class="cls-10" d="M438.2,244.58c-.21-.03,.37-3.71,.11-8.25-.23-4.55-1.2-8.14-.99-8.19,.16-.06,1.44,3.51,1.68,8.16,.26,4.64-.64,8.33-.8,8.29Z"/></g></g><g><path class="cls-12" d="M329.38,180.41s18.08,.26,18.34,22.8c.26,22.53-4.6,52.68-4.6,52.68l-46.14-8.13s5.72-41.95,10.61-54.03c4.92-12.16,14.31-15.36,21.79-13.31Z"/><path class="cls-12" d="M337.96,164.19l-.57,3.67s-24.66,16.29-26.06,20.5c-2.16,6.52,2.55,61.61,4.63,77.22,2.08,15.61,2.5,50.02,2.5,50.02-1.51,4.05-3.23,7.71-3.8,13.36-.56,5.61,3.8,10.73,3.8,10.73,26.46,8.64,58.79,2.01,93.76-5.97l-.33-9.91-11.43-107.7s3.33-27.99-10.32-36.09c-1.5-.89-13.41-7.66-13.41-7.66l-38.77-8.18Z"/><g class="cls-8"><path d="M377.62,210.88s-.21,15.5,8.13,33.22c8.34,17.72,20.74,28.79,20.74,28.79l-3.7-32.22-25.17-29.79Z"/></g><g><path class="cls-12" d="M398.33,183.69c-4.32-3.5-12.37-5.4-16.95-2.25-2.04,1.4-4.42,3.51-5.57,6.85-3.92,11.45-1.57,23.76,1.56,32.9,3.13,9.14,18.28,26.74,18.28,26.74l37.42-22.71s-25.04-30.35-27.65-33.49c-1.36-1.64-4.68-6.1-7.08-8.04Z"/><path class="cls-12" d="M398.33,183.69s.3,.18,.79,.63c.5,.44,1.2,1.14,2.06,2.1,1.73,1.91,4.02,4.89,7.11,8.51,6.11,7.35,14.76,17.76,25.01,30.09l.23,.27-.31,.19c-10.59,6.44-22.63,13.76-35.35,21.5-.7,.43-1.4,.85-2.05,1.24l-.25,.15-.19-.22c-4.18-4.95-8.07-9.92-11.56-14.92-1.74-2.5-3.37-5.02-4.77-7.61-.7-1.29-1.33-2.61-1.84-3.97-.5-1.35-.9-2.71-1.3-4.05-3.12-10.75-3.2-21.29-.35-29.31,.68-2.04,1.9-3.75,3.28-5.08,1.4-1.29,2.86-2.44,4.51-2.96,1.62-.53,3.22-.63,4.65-.55,1.44,.08,2.74,.33,3.87,.66,2.28,.63,3.9,1.53,4.95,2.19,1.05,.66,1.51,1.13,1.51,1.13-.03,.04-.51-.4-1.58-1.02-1.06-.61-2.68-1.47-4.95-2.05-1.12-.31-2.41-.54-3.82-.59-1.41-.06-2.96,.06-4.52,.59-1.56,.51-2.97,1.64-4.33,2.91-1.33,1.3-2.48,2.96-3.13,4.93-2.75,7.93-2.63,18.33,.5,28.98,.4,1.33,.8,2.68,1.3,4.01,.49,1.32,1.12,2.61,1.81,3.88,1.39,2.55,3.01,5.05,4.75,7.53,3.48,4.97,7.37,9.93,11.53,14.85l-.44-.07c.65-.39,1.35-.82,2.05-1.24,12.73-7.72,24.79-15.02,35.39-21.44l-.08,.46c-10.17-12.4-18.75-22.86-24.82-30.25-3.05-3.66-5.3-6.69-6.97-8.62-.83-.97-1.51-1.69-1.99-2.15-.47-.47-.74-.69-.72-.7Z"/></g><path class="cls-16" d="M310.85,200.84s.06,.22,.11,.65c.05,.51,.1,1.13,.17,1.88,.13,1.74,.29,4.08,.5,6.92,.38,5.94,.89,13.96,1.45,22.83,.58,8.92,1.2,16.98,1.72,22.81,.26,2.84,.48,5.17,.64,6.9,.07,.75,.12,1.37,.16,1.88,.03,.43,.03,.66,.01,.66-.02,0-.07-.22-.15-.64-.08-.5-.18-1.12-.29-1.86-.24-1.62-.54-3.97-.86-6.89-.65-5.82-1.34-13.89-1.93-22.81-.58-8.92-.98-17-1.25-22.85-.12-2.85-.21-5.19-.28-6.93-.02-.75-.03-1.38-.04-1.89,0-.43,0-.66,.03-.66Z"/><path class="cls-16" d="M393.58,331.62s-.23,.1-.69,.22c-.54,.13-1.2,.29-2.02,.49-.88,.22-1.96,.44-3.22,.68-1.26,.25-2.69,.52-4.29,.76-3.18,.55-7,.99-11.25,1.41-4.25,.36-8.94,.62-13.87,.68-4.93,.04-9.62-.13-13.88-.42-4.25-.35-8.08-.73-11.27-1.25-1.6-.22-3.04-.49-4.29-.73-1.26-.23-2.34-.45-3.22-.66-.82-.2-1.48-.36-2.02-.49-.46-.12-.7-.19-.69-.22,0-.02,.25,0,.72,.08,.54,.1,1.22,.21,2.04,.36,.88,.18,1.97,.36,3.23,.55,1.26,.2,2.7,.44,4.3,.62,3.18,.46,7,.79,11.24,1.1,4.25,.25,8.92,.4,13.83,.36,4.91-.06,9.58-.3,13.82-.62,4.24-.38,8.05-.77,11.23-1.26,1.6-.21,3.03-.45,4.29-.66,1.26-.2,2.35-.39,3.23-.56,.82-.15,1.5-.27,2.04-.36,.47-.08,.72-.1,.72-.08Z"/></g></g><g><g><path class="cls-16" d="M113.57,100.9c-5.18-1.02-10.66,.64-14.95,3.73-3,2.16-5.53,5.07-6.83,8.53-1.3,3.46-1.26,7.49,.51,10.74,1.83,3.35,5.26,5.55,8.82,6.94,2.98,1.17,6.21,1.88,9.38,1.46,3.17-.42,6.27-2.1,7.9-4.86l6.12-12.92c0-8.29-5.77-12.6-10.95-13.62Z"/><path class="cls-16" d="M171.33,116.99h0c-10.66-13.5-29.7-17.45-44.54-8.76-1.53,.89-2.97,1.86-4.34,2.87-9.56,7.05-14.93,19.23-14.23,31.09,.7,11.86,7.23,23.12,16.86,30.09l46.53-11.34c2.91-7.88,4.18-15.44,5.1-24.99,.1-.99,.14-2.26,.12-3.67-.1-5.56-2.05-10.93-5.5-15.29Z"/><g><path class="cls-9" d="M119.44,135.91c.54-7.69,5.52-14,12.99-15.9l23.28-5.94c10.06-1.09,16.78,11.29,17.44,21.39,.73,11.22,1.18,23.06-.13,31.44-2.64,16.84-15.54,19.01-15.54,19.01,0-.03,0,8.01-.01,12.93l.24,21.4-33.14-23.83-5.2-60.29c0-.29,.03,.18,.06-.2Z"/><path class="cls-16" d="M170.05,149c.04,1.14-.89,2.12-2.08,2.18-1.19,.07-2.19-.8-2.23-1.94-.04-1.14,.89-2.12,2.07-2.18,1.19-.07,2.19,.8,2.23,1.94Z"/><path class="cls-16" d="M170.28,142.39c-.27,.28-1.91-.92-4.23-.91-2.32-.02-4.02,1.18-4.28,.89-.12-.13,.15-.63,.89-1.18,.73-.54,1.98-1.07,3.42-1.06,1.45,0,2.67,.53,3.37,1.08,.72,.55,.96,1.06,.83,1.18Z"/><path class="cls-16" d="M150,149c.04,1.14-.89,2.12-2.08,2.18-1.19,.07-2.19-.8-2.23-1.94-.04-1.14,.89-2.12,2.08-2.18,1.19-.07,2.19,.8,2.23,1.94Z"/><path class="cls-16" d="M148.67,142.83c-.27,.28-1.91-.92-4.23-.91-2.32-.02-4.02,1.18-4.28,.89-.12-.13,.14-.63,.89-1.18,.73-.54,1.98-1.07,3.42-1.06,1.45,0,2.67,.54,3.37,1.08,.71,.55,.96,1.06,.83,1.18Z"/><path class="cls-16" d="M155.83,160.31c-.01-.13,1.43-.38,3.77-.69,.59-.06,1.15-.18,1.25-.59,.14-.43-.11-1.07-.4-1.76-.56-1.43-1.15-2.94-1.76-4.51-2.45-6.43-4.23-11.71-3.97-11.81,.26-.1,2.46,5.03,4.91,11.46,.59,1.58,1.15,3.1,1.69,4.54,.23,.67,.61,1.44,.31,2.33-.16,.44-.59,.77-.97,.87-.38,.12-.71,.12-1.01,.14-2.35,.13-3.82,.15-3.83,.01Z"/><path class="cls-10" d="M135.16,179.92s5.48,11.56,22.33,9.95v-3.96s-11.09,.73-22.33-5.99Z"/><path class="cls-16" d="M147.83,133.66c-.23,.63-2.55,.34-5.27,.67-2.73,.28-4.93,1.08-5.29,.52-.16-.27,.22-.87,1.11-1.48,.88-.61,2.28-1.2,3.92-1.38,1.64-.18,3.13,.07,4.13,.48,1,.4,1.51,.9,1.41,1.2Z"/><path class="cls-16" d="M167.83,133.99c-.41,.53-2.01-.02-3.93-.04-1.92-.09-3.55,.36-3.93-.19-.17-.27,.09-.8,.8-1.3,.7-.5,1.87-.91,3.2-.87,1.32,.04,2.47,.52,3.14,1.05,.68,.54,.91,1.08,.73,1.34Z"/><g><path class="cls-9" d="M121.75,148.11c-.18-.48-8.96-3.65-9.08,5.68-.11,9.07,9.04,7.28,9.06,7.02,.02-.26,.02-12.71,.02-12.71Z"/><path class="cls-10" d="M118.96,157.36s-.16,.11-.43,.23c-.26,.12-.71,.2-1.18,.01-.95-.36-1.75-1.89-1.78-3.52-.02-.83,.16-1.61,.46-2.26,.28-.66,.72-1.12,1.2-1.2,.48-.11,.82,.19,.93,.44,.12,.25,.06,.44,.11,.45,.03,.02,.2-.15,.13-.53-.04-.18-.14-.4-.35-.57-.22-.18-.54-.27-.87-.24-.7,.04-1.34,.68-1.66,1.39-.37,.71-.59,1.6-.57,2.52,.04,1.83,.96,3.55,2.27,3.94,.64,.17,1.17-.01,1.45-.23,.28-.22,.33-.42,.3-.44Z"/></g><g><path class="cls-1" d="M117.93,158.96c-.88-.16-1.84,.45-2.06,1.32-.22,.87,.33,1.86,1.19,2.14,.86,.27,1.88-.22,2.21-1.05,.33-.84-.1-1.89-.92-2.27"/><path class="cls-16" d="M118.36,159.09c-.05,.05,.59,.31,.82,1.22,.11,.43,.05,1-.35,1.42-.38,.42-1.07,.68-1.69,.49-.62-.2-1.03-.81-1.1-1.37-.09-.57,.2-1.08,.53-1.37,.71-.61,1.38-.45,1.37-.52,0-.02-.14-.09-.42-.1-.28,0-.71,.08-1.13,.4-.41,.3-.81,.91-.73,1.64,.07,.7,.54,1.45,1.35,1.73,.82,.25,1.64-.1,2.1-.63,.49-.54,.52-1.27,.35-1.75-.16-.5-.46-.82-.69-.98-.24-.16-.4-.19-.4-.16Z"/></g></g><g><path class="cls-10" d="M147.01,164.29c.56-.99,1.61-1.54,2.72-1.62,1.59-.11,2.94,.38,4.03,1.8,.37,.41,.39,1.61,.25,1.94-.13,.34-.03,.17-.27,.41-.9,.86-1.85,1.72-3.03,2.05-1.18,.33-2.67,0-3.49-1.13-.73-1.01-.76-2.46-.21-3.45Z"/><path class="cls-16" d="M147.35,161.13c.37-.04,.49,2.46,2.71,4.14,2.22,1.68,4.87,1.28,4.9,1.63,.04,.16-.57,.51-1.69,.59-1.1,.09-2.73-.19-4.09-1.22-1.35-1.03-1.98-2.46-2.11-3.48-.14-1.04,.11-1.67,.28-1.67Z"/></g><path class="cls-16" d="M160.09,112.79c-.57-1.02-1.88-1.29-3.04-1.42-16.11-1.74-32.89,5.49-42.68,18.4l2.59,15.68c-1.1,1.95,4.05,5.87,6.29,5.73,2.23-.14,3.98-2.1,4.77-4.19,1.56-4.09,.67-9.33,3.86-12.32,1.8-1.69,4.4-2.1,6.81-2.63,4.59-1.01,9.08-2.72,12.91-5.46s6.96-6.55,8.44-11.02c.3-.91,.52-1.95,.06-2.78Z"/><path class="cls-11" d="M111.65,155.69s-.38-.55-.88-1.64c-.51-1.09-1.14-2.71-1.71-4.79-1.16-4.12-1.85-10.22-.45-16.69,1.4-6.48,4.54-11.74,7.3-15.02,1.38-1.65,2.63-2.87,3.54-3.66,.91-.78,1.45-1.17,1.48-1.13,.1,.11-1.99,1.77-4.61,5.12-2.62,3.32-5.62,8.51-6.99,14.85-1.37,6.33-.78,12.31,.23,16.41,1,4.13,2.22,6.51,2.09,6.56Z"/></g><g><g><polygon class="cls-16" points="122.99 570.28 128.32 616.31 148.49 613.24 149.85 567.88 122.99 570.28"/><g><path class="cls-16" d="M148.56,604.12s-13.54,11.48-21.08,3.05l-.38-1.38-7.04,37.49c-.38,2.05,.69,4.19,2.63,4.8,1.5,.47,3.07,.02,4.1-1.14,5.47-6.17,25.51-29.99,25.51-29.99l-.8-6c-.13-1.58-1.65-4.9-2.94-6.82h0Z"/><path class="cls-6" d="M151.66,612.44l-28.26,35.78c1.3,.19,2.62-.3,3.5-1.3,15.13-17.24,25.4-29.98,25.4-29.98l-.63-4.49Z"/><path class="cls-11" d="M131.02,630.43c-.21,.12-1.21-1.87-3.56-2.8-2.33-1.01-4.41-.3-4.47-.54-.04-.09,.43-.43,1.31-.63,.88-.2,2.19-.17,3.48,.37,1.29,.54,2.25,1.45,2.74,2.22,.5,.77,.6,1.35,.51,1.39Z"/><path class="cls-11" d="M128.64,635.89c-.17,.18-1.49-1-3.51-1.44-2.01-.48-3.7,.02-3.78-.22-.12-.19,1.67-1.16,3.96-.63,2.3,.51,3.51,2.16,3.32,2.28Z"/><path class="cls-11" d="M135.66,623.32c-.17,.2-2.18-1.63-5.27-2.59-3.07-1.01-5.75-.68-5.78-.94-.08-.2,2.74-.96,6.03,.11,3.3,1.04,5.19,3.29,5.01,3.42Z"/><path class="cls-16" d="M135.67,613.84c-.09,.24-2.26-.51-5.03-.41-2.76,.06-4.9,.94-5,.7-.12-.18,2.01-1.49,4.98-1.57,2.97-.1,5.16,1.08,5.05,1.27Z"/></g></g><g><path class="cls-16" d="M202.91,606.55c-.47-.71-4.69-16.11-4.69-16.11l26.11-7.11,3.7,22.2-25.12,1.02Z"/><g><path class="cls-16" d="M226.94,599.02l.88,3.92s28.74,11.71,29.11,17.41l-56.79,.41,.7-20.92c8.47,4.05,16.39,3.36,26.1-.82Z"/><path class="cls-6" d="M200.14,620.76l.15-4.78,54.38,1.35s2.54,1.14,2.26,3.01l-56.8,.41Z"/><path class="cls-11" d="M228.03,603.1c0,.29-1.39,.43-2.75,1.38-1.38,.91-2.08,2.18-2.33,2.06-.26-.05,.15-1.8,1.81-2.92,1.65-1.13,3.33-.8,3.27-.53Z"/><path class="cls-11" d="M234,605.65c.07,.28-1.13,.79-2.07,2.03-.97,1.21-1.2,2.55-1.47,2.53-.26,.05-.46-1.66,.73-3.18,1.18-1.53,2.81-1.66,2.81-1.38Z"/><path class="cls-11" d="M237.44,613.11c-.25,.06-.65-1.39,.05-2.99,.69-1.61,1.99-2.25,2.11-2,.16,.24-.68,1.1-1.24,2.43-.59,1.31-.66,2.54-.93,2.57Z"/></g></g><g><path class="cls-16" d="M185.21,328.19s14.42,64.61,26.6,139.12c10.02,61.28,14.45,127.63,14.45,127.63l-29.51,1.73s-17.98-75.99-31.98-130.63c-12.91-50.38-23.41-76.82-23.41-76.82l-5.91-66.49,49.76,5.46Z"/><path class="cls-16" d="M103.8,315.33s-25.88,34.99-23.71,71.51c1.3,21.85,45.55,216,45.55,216l26.21-.89-8.38-206.24,8.87-67.51-48.55-12.86Z"/></g></g><path class="cls-16" d="M183.23,221.17s.08,.37,.14,1.08c.06,.8,.14,1.84,.23,3.12,.21,2.71,.35,6.64,.44,11.5,.18,9.72-.27,23.14-1.24,37.92-.97,14.79-1.81,28.16-1.99,37.86-.11,4.85-.14,8.77-.11,11.49,0,1.29,0,2.32,0,3.13-.01,.72-.03,1.09-.06,1.09-.03,0-.07-.37-.11-1.09-.04-.8-.09-1.84-.16-3.12-.14-2.71-.19-6.65-.16-11.5,.03-9.72,.78-23.13,1.75-37.91,.97-14.78,1.52-28.17,1.49-37.87-.02-4.85-.07-8.77-.18-11.49-.03-1.29-.05-2.32-.07-3.12,0-.72,0-1.09,.03-1.09Z"/><g><g><g><path class="cls-9" d="M269.95,223.08l-15.78,5.8-17.24,23.33,4.71,8.16,4.66-4.37s17.75-3.3,19.02-5.83c1.27-2.53-.18-4.69-.18-4.69,0,0,.75-2.77,.14-4.92-.61-2.15-2.23-2.45-2.23-2.45,0,0,1.95-.8,1.12-3.29-.83-2.48-2.56-2.95-2.56-2.95,0,0,10.59-5.04,11.53-6.46,.33-.5,.2-.99-.11-1.42-.7-.98-1.97-1.3-3.07-.9Z"/><path class="cls-9" d="M234.22,247.34l3.19-4.47,6.88-12.48,15.34-4.13s2.58,1.21-.99,5.78c-3.57,4.58-8.57,3.65-8.57,3.65,0,0,1.09,9.96-1.62,14.4-2.71,4.45-10.02,4.83-10.02,4.83l-4.22-7.58Z"/><path class="cls-10" d="M248.64,250.79s.29-.32,.67-.99c.38-.67,.86-1.7,1.26-3.04,.82-2.65,1.16-6.78-.43-10.87l-.24,.45c.17-.03,.36-.06,.55-.09,2.09-.34,4.11-.79,5.79-1.69,1.7-.87,2.91-2.28,3.5-3.63,.62-1.36,.66-2.63,.49-3.44-.17-.82-.44-1.19-.46-1.18-.06,.02,.13,.44,.22,1.22,.09,.77-.02,1.95-.64,3.19-.61,1.24-1.74,2.5-3.36,3.3-1.6,.83-3.56,1.25-5.63,1.58-.19,.03-.37,.06-.55,.09l-.39,.06,.15,.38c1.52,3.91,1.28,7.89,.59,10.5-.68,2.66-1.62,4.09-1.51,4.15Z"/><path class="cls-10" d="M262.62,238.6s-.56,.2-1.57,.56c-1,.38-2.48,.85-4.28,1.55-.89,.36-1.89,.77-2.86,1.42-.48,.33-1.01,.75-1.27,1.44-.27,.69-.09,1.51,.3,2.1,.39,.61,.94,1.09,1.61,1.38,.68,.32,1.49,.26,2.16,.12,.34-.06,.68-.13,1.01-.18,.37-.05,.72-.15,1.07-.25,.7-.21,1.38-.46,2.07-.73,.63-.25,1.25-.49,1.83-.72l-.2-.62c-1.35,.49-2.44,1.28-3.5,1.99-.52,.36-1.04,.71-1.54,1.06-.49,.34-1.03,.59-1.52,1.01-.49,.4-.87,1.03-.86,1.71,0,.34,.11,.69,.32,.95,.21,.26,.47,.42,.73,.53,1.02,.4,2,.45,2.88,.39,1.76-.16,3.08-.71,3.97-1.06,.89-.37,1.36-.62,1.35-.66-.02-.04-.52,.13-1.42,.43-.91,.28-2.23,.75-3.92,.84-.83,.03-1.78-.06-2.66-.43-.43-.19-.74-.53-.72-1,0-.47,.27-.93,.69-1.26,.4-.34,.95-.6,1.47-.95,.51-.34,1.03-.69,1.56-1.05,1.05-.7,2.15-1.47,3.36-1.9l-.2-.62c-.59,.23-1.21,.47-1.84,.72-.68,.26-1.35,.51-2.02,.71-.33,.1-.67,.19-.99,.23-.36,.05-.7,.12-1.04,.19-.67,.14-1.27,.18-1.82-.07-.55-.23-1.04-.65-1.36-1.14-.33-.49-.44-1.07-.26-1.56,.17-.5,.6-.88,1.04-1.19,.91-.63,1.86-1.06,2.74-1.44,1.76-.75,3.22-1.29,4.2-1.75,.99-.44,1.5-.77,1.48-.8Z"/><path class="cls-10" d="M261.43,231.99c-.02-.07-1.31,.23-3.26,1.14-.97,.46-2.1,1.08-3.28,1.87-.59,.4-1.2,.85-1.8,1.34-.58,.49-1.35,1.07-1.47,2.16-.04,.53,.21,1.05,.56,1.37,.34,.33,.78,.51,1.19,.59,.82,.14,1.57,.05,2.27-.03,1.41-.2,2.64-.5,3.66-.79,2.05-.58,3.25-1.2,3.21-1.28-.03-.08-1.26,.38-3.31,.83-1.02,.23-2.26,.49-3.62,.64-.68,.07-1.41,.13-2.09,0-.66-.11-1.28-.63-1.23-1.28,.05-.65,.66-1.23,1.23-1.69,.59-.49,1.17-.94,1.74-1.34,1.14-.81,2.22-1.46,3.16-1.96,1.86-1,3.1-1.46,3.06-1.56Z"/></g><path class="cls-11" d="M205.03,260.3l-15.83-50.75c-1.45-4.65-4.99-8.26-9.47-9.66l-9.67-2.19,10.7,82.39,2.4,6.18c5.65,12.61,18.04,10.47,28.95,4.91,.39-.2,.77-.41,1.14-.62l31.94-25.73-10.56-19.03-29.59,14.51Z"/><path class="cls-16" d="M201.5,274.78c.2,0,.26-3.38,1.34-7.35,1.05-3.98,2.67-6.91,2.5-7.01-.12-.1-2.03,2.75-3.11,6.83-1.11,4.07-.88,7.54-.73,7.52Z"/></g><g><path class="cls-1" d="M105.7,224.01l10.7,99.83,59.25,4.35,4.72-4.04-1.64-75.38-21.28-53.69h0c-2.53,4.8-7.38,6.43-13.23,5.98-3.98-.31-7.77-1.85-11.02-4.18l-9.79-7.05-17.71,34.17Z"/><g><path class="cls-11" d="M123.41,189.84l-7.22,7.85-33.91,8.11,19.84,95.95-15.11,37.14c-1.59,3.91-2.91,7.92-3.96,12.01l-9.31,36.43s32.06,8.73,40.31,3.97c8.25-4.76,18.33-51.09,21.39-62.09,3.06-11,7.64-43.69,5.5-61.1-2.14-17.41-7.57-36.94-9.4-45.8-1.83-8.86-8.12-32.47-8.12-32.47Z"/><path class="cls-11" d="M88.4,290.12l7.62-29.65-13.75-54.66s-6.42,4.58-10.69,21.36c-4.47,17.57-19.41,65.95-18.49,77.25,.92,11.3,60.65,31.81,60.65,31.81l2.44-31.47-27.79-14.65Z"/><path class="cls-11" d="M157.49,188.18l4.67,7.23,19.47,4.92s5.12,25.64,5.12,32.67-2.9,84.92-2.9,88.58,14.05,53.46,12.83,56.52c-1.22,3.06-15.89,5.19-15.89,5.19,0,0-5.5-43.08-5.5-57.74s-.61-50.71-3.67-68.43c-3.06-17.72-14.05-61.71-14.05-61.71l-.08-7.23Z"/><path class="cls-16" d="M175.63,333.74s-.02-.12-.03-.37c0-.29,0-.64,0-1.07,.01-1.01,.03-2.38,.06-4.11,.08-3.64,.2-8.79,.34-15.13,.3-12.77,.81-30.41,1.13-49.9,.02-2.44,.06-4.84,.04-7.21,.01-2.35-.25-4.67-.42-6.97-.37-4.58-.73-9-1.16-13.19-.43-4.2-.91-8.18-1.54-11.87-.62-3.69-1.7-7-2.85-9.97-2.33-5.93-4.74-10.51-6.4-13.67-.83-1.52-1.49-2.73-1.97-3.61-.21-.38-.38-.69-.51-.94-.11-.21-.17-.33-.15-.33,.01,0,.09,.09,.22,.29,.16,.24,.35,.54,.58,.9,.5,.8,1.22,1.99,2.1,3.54,1.75,3.11,4.24,7.67,6.65,13.61,1.19,2.97,2.32,6.33,2.97,10.06,.66,3.71,1.17,7.7,1.61,11.91,.45,4.2,.83,8.63,1.21,13.21,.18,2.28,.45,4.62,.44,7.02,.02,2.38,0,4.79-.03,7.23-.32,19.5-.92,37.14-1.36,49.9-.25,6.33-.45,11.48-.59,15.12-.09,1.73-.16,3.11-.21,4.11-.03,.43-.05,.78-.07,1.07-.02,.24-.04,.36-.05,.36Z"/><path class="cls-16" d="M139.41,304.42s-.09-.38-.17-1.1c-.08-.72-.18-1.79-.27-3.17-.18-2.75-.35-6.75-.27-11.69,.04-2.47,.15-5.17,.34-8.07,.12-2.85-.43-5.9-1.15-9.06-1.6-6.31-4.13-13.05-7.03-20.03-2.94-6.97-5.99-13.51-8.81-19.44-1.37-2.98-2.86-5.74-3.76-8.56-.91-2.79-1.49-5.44-1.99-7.86-.98-4.85-1.51-8.81-1.86-11.55-.17-1.37-.28-2.44-.34-3.16-.06-.72-.08-1.11-.05-1.11,.03,0,.1,.37,.21,1.09,.12,.79,.29,1.83,.49,3.14,.44,2.72,1.05,6.67,2.1,11.48,.53,2.4,1.15,5.04,2.07,7.78,.9,2.73,2.41,5.49,3.8,8.46,2.86,5.92,5.93,12.46,8.88,19.44,2.91,6.99,5.43,13.77,7,20.15,.71,3.2,1.25,6.3,1.09,9.26-.22,2.89-.36,5.58-.44,8.04-.15,4.92-.07,8.91,.02,11.66,.05,1.32,.09,2.37,.12,3.17,.03,.73,.04,1.11,.01,1.11Z"/><path class="cls-16" d="M227.04,302.01l-16.68,22.54c-.69,.94-1.86,1.4-3.01,1.18l-72.15-13.63c-1.8-.34-2.89-2.18-2.33-3.93l7.78-23.96c.47-1.45,1.95-2.33,3.45-2.05l81.04,15.05c2.21,.41,3.23,2.99,1.89,4.8Z"/><path class="cls-16" d="M71.59,292.09c-.06-.06,.75-.97,2.42-1.96,1.66-.99,4.26-1.97,7.26-2.01,3-.04,5.63,.87,7.31,1.81,1.7,.94,2.53,1.83,2.48,1.89-.08,.1-1.02-.62-2.72-1.4-1.69-.79-4.21-1.56-7.05-1.52-2.84,.04-5.34,.88-7.01,1.71-1.68,.83-2.61,1.57-2.69,1.47Z"/><g class="cls-8"><polygon points="88.66 334.85 117.16 345.33 120.13 333.5 133.63 336.23 135.45 329.4 114.26 326.43 114.05 336.23 91.91 327.87 88.66 334.85"/></g><g><path class="cls-9" d="M116,307.28s5.7-4.82,7.47-5.9c1.77-1.09,7.74-5.02,10.45-4.62l2.72,.41-2.44,7.2s21.86-3.26,24.85,.27c2.99,3.53-3.26,4.21-6.52,4.62-3.26,.41-13.73,2.17-13.73,2.17,0,0,27.31-2.99,29.21,0,1.9,2.99-2.65,3.67-2.65,3.67l-18.09,7.2-2.07,.81-2.08,2.72s-7.43,5.16-9.73,4.48c-2.31-.68-19.11-3.87-19.11-3.87l1.73-19.14Z"/><path class="cls-10" d="M134.99,319.62c-.03-.1,1.58-.63,4.23-1.29,2.65-.66,6.36-1.43,10.49-2.01,4.14-.58,7.91-.86,10.64-.95,2.73-.09,4.42-.02,4.43,.08,0,.11-1.68,.24-4.39,.47-2.71,.23-6.45,.6-10.57,1.17-4.11,.58-7.81,1.25-10.48,1.78-2.67,.52-4.33,.86-4.35,.75Z"/><path class="cls-10" d="M137.47,324.88c-.05-.21,1.7-.84,3.91-1.42,2.22-.58,4.05-.87,4.11-.66,.05,.21-1.7,.84-3.91,1.42-2.21,.58-4.05,.87-4.11,.66Z"/></g><path class="cls-16" d="M186.25,222.31s.07,.34,.13,1c.05,.74,.13,1.7,.21,2.88,.19,2.5,.32,6.13,.41,10.62,.17,8.98-.25,21.38-1.15,35.04-.89,13.66-1.67,26.02-1.84,34.98-.1,4.48-.13,8.11-.1,10.61,0,1.19,0,2.15,0,2.89,0,.66-.03,1.01-.05,1.01-.03,0-.06-.34-.1-1-.04-.74-.08-1.7-.14-2.89-.13-2.51-.18-6.14-.15-10.63,.03-8.98,.72-21.37,1.61-35.02,.9-13.65,1.4-26.03,1.38-34.99-.02-4.48-.06-8.11-.16-10.61-.03-1.19-.05-2.15-.07-2.89,0-.66,0-1.01,.03-1.01Z"/><path class="cls-16" d="M98.21,257.35c-.05,0-.1-.72-.13-2.01-.02-1.29-.1-3.16-.26-5.46-.31-4.6-1.14-10.94-2.95-17.73-1.83-6.79-4.27-12.7-6.3-16.84-1.01-2.07-1.87-3.73-2.5-4.86-.62-1.13-.94-1.78-.89-1.81,.05-.03,.45,.56,1.15,1.65,.71,1.08,1.65,2.71,2.73,4.76,2.16,4.1,4.71,10.03,6.56,16.89,1.82,6.86,2.57,13.27,2.74,17.9,.09,2.32,.09,4.2,.01,5.49-.06,1.3-.12,2.01-.18,2.01Z"/></g></g></g></g></g></svg>