<svg id="Capa_1" data-name="Capa 1" xmlns="http://www.w3.org/2000/svg" xmlns:xlink="http://www.w3.org/1999/xlink" viewBox="0 0 2119.04 1322.55"><defs><style>.cls-1,.cls-12,.cls-33,.cls-37,.cls-38,.cls-43,.cls-45,.cls-54,.cls-55,.cls-58,.cls-61,.cls-62,.cls-63,.cls-73,.cls-76,.cls-81,.cls-82,.cls-83{fill:none;}.cls-2{fill:#89d0f0;opacity:0.3;}.cls-3{clip-path:url(#clip-path);}.cls-4{fill:url(#Degradado_sin_nombre_203);}.cls-5{fill:url(#Degradado_sin_nombre_201);}.cls-6{fill:url(#Degradado_sin_nombre_201-2);}.cls-10,.cls-7,.cls-9{fill:#f3feff;}.cls-15,.cls-8{fill:#fff;}.cls-8{opacity:0.54;}.cls-9{opacity:0.3;}.cls-10{opacity:0.73;}.cls-11,.cls-18{fill:#10a0dc;}.cls-12{stroke:#f2cdbf;}.cls-12,.cls-33,.cls-37,.cls-38,.cls-42,.cls-43,.cls-45,.cls-54,.cls-55,.cls-58,.cls-61,.cls-63,.cls-73,.cls-76,.cls-81,.cls-82,.cls-83{stroke-linecap:round;}.cls-12,.cls-33,.cls-37,.cls-38,.cls-42,.cls-43,.cls-45,.cls-54,.cls-55,.cls-58,.cls-61,.cls-62,.cls-63,.cls-73,.cls-76,.cls-81,.cls-82,.cls-83{stroke-miterlimit:10;}.cls-13{fill:#3ad1f0;}.cls-14{fill:#025b93;}.cls-16{fill:#f0d3d8;}.cls-17{fill:#a7c2d9;}.cls-18{opacity:0.6;}.cls-19{fill:#00a0e4;}.cls-20{fill:#faded2;}.cls-21{fill:#326894;}.cls-22{fill:#4d8ab3;}.cls-23{fill:#994403;}.cls-24{fill:#852e03;}.cls-25{fill:#732d02;}.cls-26{fill:#ebf5ff;}.cls-27,.cls-42{fill:#fbbd9a;}.cls-28{fill:#f0997f;}.cls-29{fill:#d43226;}.cls-30{fill:#002a42;}.cls-31{fill:#eb4a2a;}.cls-32{fill:#06384f;}.cls-33{stroke:#27788f;}.cls-34{fill:#8c4206;}.cls-35{fill:#a66317;}.cls-36{fill:#2f344d;}.cls-37{stroke:#8c4206;}.cls-37,.cls-38,.cls-54,.cls-55,.cls-81,.cls-82{stroke-width:2px;}.cls-38,.cls-42{stroke:#d45e4e;}.cls-39{fill:#de3b26;}.cls-40{fill:#163649;}.cls-41{fill:#b82621;}.cls-43{stroke:#b82621;}.cls-44{fill:#fdbd9b;}.cls-45,.cls-55{stroke:#b0514a;}.cls-45,.cls-58,.cls-76{stroke-width:0.5px;}.cls-46{fill:#316382;}.cls-47{fill:#407c91;}.cls-48{fill:#502202;}.cls-49{fill:#855321;}.cls-50{fill:#112c45;}.cls-51{fill:#163a4a;}.cls-52{fill:#4b8394;}.cls-53{fill:#6b4019;}.cls-54{stroke:#502202;}.cls-56{fill:#2d3a5e;}.cls-57{fill:#69c5c9;}.cls-58{stroke:#3e7c8a;}.cls-59{fill:#9bebe7;}.cls-60{fill:#dae8f7;}.cls-61{stroke:#b8c8e3;}.cls-62,.cls-63{stroke:#163649;}.cls-64{fill:#381b07;}.cls-65{fill:#db8e62;}.cls-66{fill:#1d9fb3;}.cls-67{fill:#b23f37;}.cls-68{fill:#678ca8;}.cls-69{fill:#136d94;}.cls-70{fill:#cf6e4a;}.cls-71{fill:#25b2c2;}.cls-72{fill:#27b8c1;}.cls-73{stroke:#51dbdb;}.cls-74{fill:#d68a5a;}.cls-75{fill:#24151a;}.cls-76,.cls-82{stroke:#a8473e;}.cls-77{fill:#32c9cf;}.cls-78{fill:#412408;}.cls-79{fill:#664216;}.cls-80{fill:#411f00;}.cls-81{stroke:#412408;}.cls-83{stroke:#fff;}.cls-84{fill:#f2e4e5;}</style><clipPath id="clip-path" transform="translate(101.98 118.06)"><rect class="cls-1" width="1920" height="1080"/></clipPath><linearGradient id="Degradado_sin_nombre_203" x1="1631.72" y1="138.14" x2="1906.16" y2="-136.3" gradientTransform="translate(2376.95 -1516.1) rotate(104.78)" gradientUnits="userSpaceOnUse"><stop offset="0.31" stop-color="#e9e9ff" stop-opacity="0"/><stop offset="0.39" stop-color="#e9e9ff" stop-opacity="0.02"/><stop offset="0.47" stop-color="#e8e8ff" stop-opacity="0.07"/><stop offset="0.56" stop-color="#e8e8ff" stop-opacity="0.17"/><stop offset="0.66" stop-color="#e7e7ff" stop-opacity="0.29"/><stop offset="0.75" stop-color="#e5e5ff" stop-opacity="0.46"/><stop offset="0.86" stop-color="#e4e4ff" stop-opacity="0.66"/><stop offset="0.96" stop-color="#e2e2ff" stop-opacity="0.89"/><stop offset="1" stop-color="#e1e1ff"/></linearGradient><linearGradient id="Degradado_sin_nombre_201" x1="909.48" y1="919.53" x2="1145.55" y2="1155.6" gradientTransform="translate(1034.62 -422.67) rotate(45)" gradientUnits="userSpaceOnUse"><stop offset="0" stop-color="#e1e1ff"/><stop offset="0.06" stop-color="#e2e2ff" stop-opacity="0.89"/><stop offset="0.21" stop-color="#e4e4ff" stop-opacity="0.66"/><stop offset="0.36" stop-color="#e5e5ff" stop-opacity="0.46"/><stop offset="0.5" stop-color="#e7e7ff" stop-opacity="0.29"/><stop offset="0.64" stop-color="#e8e8ff" stop-opacity="0.17"/><stop offset="0.77" stop-color="#e8e8ff" stop-opacity="0.07"/><stop offset="0.89" stop-color="#e9e9ff" stop-opacity="0.02"/><stop offset="1" stop-color="#e9e9ff" stop-opacity="0"/></linearGradient><linearGradient id="Degradado_sin_nombre_201-2" x1="-36.94" y1="766.25" x2="277.1" y2="1080.3" gradientTransform="translate(688.02 185.51) rotate(45)" xlink:href="#Degradado_sin_nombre_201"/></defs><path class="cls-2" d="M0,0,794.67,5s405.44,479.43-9.79,1063.71L776.49,1080H0Z" transform="translate(101.98 118.06)"/><g class="cls-3"><circle class="cls-4" cx="1924.93" cy="194.1" r="194.06"/><circle class="cls-5" cx="1027.52" cy="1037.56" r="166.93" transform="translate(-330.73 1148.52) rotate(-45)"/><circle class="cls-6" cx="120.08" cy="923.27" r="222.06" transform="translate(-515.7 473.39) rotate(-45)"/><circle class="cls-7" cx="1085.47" cy="485.82" r="90.11"/><path class="cls-8" d="M1984.71,1096.59a246.64,246.64,0,0,1-127.18,34.31c-136.86-.74-247.21-112.28-246.47-249.13s112.27-247.21,249.13-246.47A246.66,246.66,0,0,1,1987,671Z" transform="translate(101.98 118.06)"/><circle class="cls-9" cx="894.7" cy="193.84" r="156.18"/><circle class="cls-7" cx="216.97" cy="304.59" r="90.11"/><circle class="cls-10" cx="449.06" cy="223.63" r="57.07" transform="translate(75.38 501.09) rotate(-45)"/></g><path class="cls-11" d="M810.5,911.78c18.17-315.18,155.26-354,176.79-327.46C1032.39,639.87,875.8,813.79,810.5,911.78Z" transform="translate(101.98 118.06)"/><path class="cls-12" d="M972.35,596.79A738.39,738.39,0,0,0,814.22,909.26" transform="translate(101.98 118.06)"/><path class="cls-12" d="M931.91,599.49a138.16,138.16,0,0,1,7.18,41,227.57,227.57,0,0,1,44.6-5.07" transform="translate(101.98 118.06)"/><path class="cls-12" d="M879.14,654.12A174.21,174.21,0,0,1,898,702.2,244,244,0,0,1,951,696.81" transform="translate(101.98 118.06)"/><path class="cls-12" d="M842.77,733.34a229.17,229.17,0,0,1,18.51,35.49,133,133,0,0,1,53.29-9.61" transform="translate(101.98 118.06)"/><path class="cls-12" d="M877.09,809.38A112.94,112.94,0,0,0,844,811.85a105.78,105.78,0,0,0-11.86-25.37" transform="translate(101.98 118.06)"/><path class="cls-11" d="M810.5,911.78c100.76-160.43,229.38-213.3,235.23-155.32C1053.83,836.73,880.06,889.13,810.5,911.78Z" transform="translate(101.98 118.06)"/><path class="cls-12" d="M1029.71,762.13A852.69,852.69,0,0,0,813,910.5" transform="translate(101.98 118.06)"/><path class="cls-12" d="M1001.2,745.38A134.39,134.39,0,0,1,998,778.72a57.21,57.21,0,0,1,30.27,12.35" transform="translate(101.98 118.06)"/><path class="cls-12" d="M947.5,770.19a168.42,168.42,0,0,1,2.44,35.74,90.68,90.68,0,0,1,41.86,14.79" transform="translate(101.98 118.06)"/><path class="cls-12" d="M896.67,807.16a65.81,65.81,0,0,1,5.59,29.51,88.72,88.72,0,0,1,39.08,12.64" transform="translate(101.98 118.06)"/><rect class="cls-13" x="735.74" y="778.06" width="223.39" height="23.43"/><polygon class="cls-11" points="952.53 801.49 952.53 1029.84 932.74 1029.84 932.74 1017.35 762.03 1017.35 762.03 1029.84 742.32 1029.84 742.32 801.49 952.53 801.49"/><rect class="cls-14" x="742.32" y="801.49" width="210.2" height="4.69"/><rect class="cls-14" x="763.34" y="821.95" width="167.54" height="50.77"/><rect class="cls-13" x="761.62" y="817.27" width="170.98" height="50.77"/><rect class="cls-14" x="763.34" y="886" width="167.54" height="50.77"/><rect class="cls-13" x="761.62" y="881.31" width="170.98" height="50.77"/><rect class="cls-14" x="763.34" y="950.05" width="167.54" height="50.77"/><rect class="cls-13" x="761.62" y="945.36" width="170.98" height="50.77"/><path class="cls-15" d="M688.56,648.61V613.07h9.76v35.54A4.29,4.29,0,0,1,694,652.9h-1.18A4.29,4.29,0,0,1,688.56,648.61Z" transform="translate(101.98 118.06)"/><path class="cls-15" d="M686.79,611.94h0a1.13,1.13,0,0,1,1.13-1.12h11a1.13,1.13,0,0,1,1.13,1.12h0a1.14,1.14,0,0,1-1.13,1.13h-11A1.15,1.15,0,0,1,686.79,611.94Z" transform="translate(101.98 118.06)"/><path class="cls-16" d="M690.12,648V624.78h6.64V648a3.31,3.31,0,0,1-3.31,3.31h0A3.32,3.32,0,0,1,690.12,648Z" transform="translate(101.98 118.06)"/><path class="cls-15" d="M708.09,648.61V613.07h9.76v35.54a4.29,4.29,0,0,1-4.3,4.29h-1.17A4.29,4.29,0,0,1,708.09,648.61Z" transform="translate(101.98 118.06)"/><path class="cls-15" d="M706.32,611.94h0a1.13,1.13,0,0,1,1.13-1.12h11a1.12,1.12,0,0,1,1.12,1.12h0a1.13,1.13,0,0,1-1.12,1.13h-11A1.15,1.15,0,0,1,706.32,611.94Z" transform="translate(101.98 118.06)"/><path class="cls-16" d="M709.65,648V624.78h6.64V648a3.31,3.31,0,0,1-3.31,3.31h0A3.31,3.31,0,0,1,709.65,648Z" transform="translate(101.98 118.06)"/><path class="cls-15" d="M728.78,648.61V613.07h9.77v35.54a4.29,4.29,0,0,1-4.3,4.29h-1.17A4.3,4.3,0,0,1,728.78,648.61Z" transform="translate(101.98 118.06)"/><path class="cls-15" d="M727,611.94h0a1.12,1.12,0,0,1,1.12-1.12h11.05a1.12,1.12,0,0,1,1.12,1.12h0a1.13,1.13,0,0,1-1.12,1.13H728.14A1.15,1.15,0,0,1,727,611.94Z" transform="translate(101.98 118.06)"/><path class="cls-16" d="M730.35,648V624.78H737V648a3.32,3.32,0,0,1-3.32,3.31h0A3.31,3.31,0,0,1,730.35,648Z" transform="translate(101.98 118.06)"/><path class="cls-15" d="M749.87,648.61V613.07h9.77v35.54a4.3,4.3,0,0,1-4.3,4.29h-1.17A4.29,4.29,0,0,1,749.87,648.61Z" transform="translate(101.98 118.06)"/><path class="cls-15" d="M748.11,611.94h0a1.12,1.12,0,0,1,1.12-1.12h11a1.12,1.12,0,0,1,1.12,1.12h0a1.13,1.13,0,0,1-1.12,1.13h-11A1.15,1.15,0,0,1,748.11,611.94Z" transform="translate(101.98 118.06)"/><path class="cls-16" d="M751.43,648V624.78h6.64V648a3.31,3.31,0,0,1-3.31,3.31h0A3.32,3.32,0,0,1,751.43,648Z" transform="translate(101.98 118.06)"/><path class="cls-15" d="M772.52,648.61V613.07h9.77v35.54a4.29,4.29,0,0,1-4.3,4.29h-1.17A4.3,4.3,0,0,1,772.52,648.61Z" transform="translate(101.98 118.06)"/><path class="cls-15" d="M770.76,611.94h0a1.12,1.12,0,0,1,1.12-1.12h11a1.12,1.12,0,0,1,1.12,1.12h0a1.13,1.13,0,0,1-1.12,1.13h-11A1.15,1.15,0,0,1,770.76,611.94Z" transform="translate(101.98 118.06)"/><path class="cls-16" d="M774.09,648V624.78h6.63V648a3.31,3.31,0,0,1-3.31,3.31h0A3.31,3.31,0,0,1,774.09,648Z" transform="translate(101.98 118.06)"/><rect class="cls-17" x="780.89" y="733.18" width="120.28" height="3.12"/><rect class="cls-14" x="774.59" y="770.25" width="134.34" height="7.81"/><rect class="cls-14" x="779.92" y="728.88" width="3.42" height="45.26"/><rect class="cls-14" x="899.12" y="728.88" width="3.42" height="45.26"/><path class="cls-11" d="M187.33,771.7a178.5,178.5,0,0,0,37.74-127.16c-4.39-45.08-26.94-88.15-62.86-118.08a879.86,879.86,0,0,1-4.14,100.07c-3.11,31.62-7.89,64-.32,94.82C162.24,739.71,171.09,757,187.33,771.7Z" transform="translate(101.98 118.06)"/><path class="cls-12" d="M184.68,812.24c0-111.74,29.65-147.81-13.8-265.74" transform="translate(101.98 118.06)"/><path class="cls-12" d="M191.57,565.89q-4.56,9.71-9.1,19.42a47.14,47.14,0,0,0-17.27-4.72" transform="translate(101.98 118.06)"/><path class="cls-12" d="M161.31,633.11A76.12,76.12,0,0,1,194,642a106,106,0,0,1,23.43-21.34" transform="translate(101.98 118.06)"/><path class="cls-12" d="M160,687.32a52.24,52.24,0,0,1,32.74,8.37,145.09,145.09,0,0,1,31.68-25.26" transform="translate(101.98 118.06)"/><path class="cls-12" d="M165.18,732a36.55,36.55,0,0,1,22.64,11.31,98.24,98.24,0,0,1,22.35-22" transform="translate(101.98 118.06)"/><path class="cls-18" d="M207.72,768.3s-24.06-52.63,6.76-110.23c17-31.82,53.82-70.54,99.7-102.93,0,0-21.84,118.88-49,168.59C244.3,762,207.72,768.3,207.72,768.3Z" transform="translate(101.98 118.06)"/><path class="cls-12" d="M297.57,578.15c-47.39,76.14-81.14,159.22-107.89,244.68" transform="translate(101.98 118.06)"/><path class="cls-12" d="M267.42,597a125.88,125.88,0,0,1,6.8,20.49,197.34,197.34,0,0,1,24.35-3.06" transform="translate(101.98 118.06)"/><path class="cls-12" d="M229.78,644.78a128.73,128.73,0,0,1,15.94,30.59,136,136,0,0,1,39.85-12.1" transform="translate(101.98 118.06)"/><path class="cls-12" d="M207.64,685.18a107.13,107.13,0,0,1,18.1,35.05,218.19,218.19,0,0,1,44-13.26" transform="translate(101.98 118.06)"/><path class="cls-12" d="M201.64,733.79a189.32,189.32,0,0,1,13.17,16.45,143,143,0,0,1,32.41-9" transform="translate(101.98 118.06)"/><path class="cls-18" d="M162.35,779s20.86-29.57,5.44-80.86C146.67,627.83,58.71,578,58.71,578s23.58,96.13,42,144C119.33,770.48,162.35,779,162.35,779Z" transform="translate(101.98 118.06)"/><path class="cls-12" d="M167.79,804.73s-12-96.7-97.43-213.27" transform="translate(101.98 118.06)"/><path class="cls-12" d="M101.32,611.85a67.14,67.14,0,0,0-4.95,18.23A66.92,66.92,0,0,0,78,627.55" transform="translate(101.98 118.06)"/><path class="cls-12" d="M90,677a79.72,79.72,0,0,1,35,2.45A63.25,63.25,0,0,1,139.19,651" transform="translate(101.98 118.06)"/><path class="cls-12" d="M164.6,697.13a91.58,91.58,0,0,0-18.23,30.07A52.86,52.86,0,0,0,111,725" transform="translate(101.98 118.06)"/><path class="cls-12" d="M135.89,763.42a69.91,69.91,0,0,1,23.09-.31,53.32,53.32,0,0,1,11.18-16.43" transform="translate(101.98 118.06)"/><polygon class="cls-19" points="341.83 905.15 338.54 923.74 334.93 944.19 333.02 954.91 329.42 975.37 319.79 1029.84 249.53 1029.84 239.72 975.37 236.03 954.91 234.11 944.19 230.41 923.74 227.06 905.15 341.83 905.15"/><polygon class="cls-20" points="338.54 923.74 334.93 944.19 234.11 944.19 230.41 923.74 338.54 923.74"/><polygon class="cls-20" points="333.02 954.91 329.42 975.37 239.72 975.37 236.03 954.91 333.02 954.91"/><rect class="cls-21" x="357.34" y="1001.33" width="115.08" height="10.7"/><path class="cls-22" d="M275.06,784.2a7.36,7.36,0,0,1-.06.81l-1.78,14.75L257.3,931.15a6.27,6.27,0,0,1-7,5.58,6.38,6.38,0,0,1-5.5-6.36,7.18,7.18,0,0,1,.06-.81l15.72-129.8,2-16.33a6.27,6.27,0,0,1,12.5.77Z" transform="translate(101.98 118.06)"/><path class="cls-21" d="M275.06,784.2a7.36,7.36,0,0,1-.06.81l-1.78,14.75H260.61l2-16.33a6.26,6.26,0,0,1,12.48.77Z" transform="translate(101.98 118.06)"/><path class="cls-22" d="M320.74,783.09V930.34a6.33,6.33,0,0,1-6.25,6.42,6.15,6.15,0,0,1-4.42-1.89,6.47,6.47,0,0,1-1.83-4.55V783.07a6.34,6.34,0,0,1,6.25-6.42,6.1,6.1,0,0,1,4.42,1.89A6.56,6.56,0,0,1,320.74,783.09Z" transform="translate(101.98 118.06)"/><path class="cls-21" d="M318.89,778.56a6.4,6.4,0,0,1,1.83,4.55v16.65H308.21V783.11a6.33,6.33,0,0,1,6.25-6.42A6,6,0,0,1,318.89,778.56Z" transform="translate(101.98 118.06)"/><path class="cls-22" d="M383.63,930.34a6.25,6.25,0,0,1-12.47.79L355.25,799.74,353.47,785a5.67,5.67,0,0,1-.07-.82,6.38,6.38,0,0,1,5.5-6.35,6.28,6.28,0,0,1,7,5.57l2,16.33,15.72,129.79A6,6,0,0,1,383.63,930.34Z" transform="translate(101.98 118.06)"/><path class="cls-21" d="M367.87,799.74H355.26L353.48,785a7.54,7.54,0,0,1-.06-.82,6.38,6.38,0,0,1,5.5-6.35,6.3,6.3,0,0,1,7,5.57Z" transform="translate(101.98 118.06)"/><path class="cls-23" d="M395,766.48v4.18a13.2,13.2,0,0,1-13.2,13.2H263.66a13.19,13.19,0,0,1-13.2-13.2v-4.18a13.19,13.19,0,0,1,13.2-13.2H381.82A13.19,13.19,0,0,1,395,766.48Z" transform="translate(101.98 118.06)"/><path class="cls-24" d="M395,766.48v4.18a13.2,13.2,0,0,1-13.2,13.2H274.56a13.2,13.2,0,0,1-13.2-13.2v-4.18a13.2,13.2,0,0,1,13.2-13.2H381.82A13.19,13.19,0,0,1,395,766.48Z" transform="translate(101.98 118.06)"/><path class="cls-25" d="M271.62,503.39c-1.48,3-3,6.08-4.31,9-.9,5.22-.37,10.56,0,15.85s.6,10.69-.89,15.8-4.93,9.92-10,11.87c-3.31,1.26-7.26,1.36-9.82,3.76-2.91,2.74-2.7,7.33-1.64,11.11a17.21,17.21,0,0,0,4.81,8.53c2.51,2.2,6.56,3.64,9.31,2.05s6.33-.44,8.29,2,2.89,5.52,4.83,8c2.75,3.46,7.36,5.26,11.87,5.37s9.33-.53,12.34-2.41c6.46-4,14.5-6.73,21.11-2.93,3.48,2,6.23,5.18,10,6.62a12.29,12.29,0,0,0,9.95-.61c3-1.59,4.17-5,6.06-7.61,3.47-4.78,11.87-.92,17.68-2.5,6.22-1.7,10.41-8.53,8.95-14.63s-8.21-8.28-14.24-9.19c-4.14-.62-5.85-5.89-6.8-9.82s-.78-8.07-.61-12.13c.36-8.26,4.13-27.54,1.74-30.13a39.83,39.83,0,0,0-7.64-5.56L319.05,495c-7.14-3.26-14.62-6.59-22.51-6.37S277.28,491.88,271.62,503.39Z" transform="translate(101.98 118.06)"/><path class="cls-26" d="M298.81,577.79s-34.81,5.5-38.5,17.83,17.45,98.57,17.45,98.57l78.2-4.78s5.69-99.42-6.74-105.65S298.81,577.79,298.81,577.79Z" transform="translate(101.98 118.06)"/><path class="cls-27" d="M329.16,581.22s-5.08,17.29-14.3,21.07S285.51,583,285.51,583c4.06-2.58,5.59-8.78,6.09-14.43a63.12,63.12,0,0,0-.06-10.91l28,5.38c-.71,8.65,1.83,13.2,4.5,15.59A10.24,10.24,0,0,0,329.16,581.22Z" transform="translate(101.98 118.06)"/><path class="cls-28" d="M324,578.65c-13.27,1.75-25.3-4.9-32.4-10.06a63,63,0,0,0-.06-10.9l28,5.37C318.77,571.7,321.33,576.26,324,578.65Z" transform="translate(101.98 118.06)"/><path class="cls-29" d="M404.89,905.47c-3,5-55.35-27.25-55.35-32.81,0-3.62,6.83-8.87,11.58-12.06,2.55-1.72,4.48-2.86,4.48-2.86l12.22-5.6,5.5,3c8,13.81,15.67,28.2,19.49,38.21C405.09,899.2,406,903.61,404.89,905.47Z" transform="translate(101.98 118.06)"/><path class="cls-28" d="M402.83,893.28c-15,.63-34.82-23.63-41.69-32.69,2.54-1.72,4.48-2.86,4.48-2.86l12.21-5.61,5.5,3C391.36,868.88,399,883.27,402.83,893.28Z" transform="translate(101.98 118.06)"/><path class="cls-30" d="M351,696.78s95.26,12.06,98.5,36.45-59.76,132-59.76,132l-22.65-5.9,29.56-96.2-75.84-32.18L336,696.78Z" transform="translate(101.98 118.06)"/><path class="cls-31" d="M381.74,908.25c-3,5-55.35-27.25-55.35-32.81,0-3.62,6.83-8.87,11.58-12.06,2.54-1.71,4.48-2.85,4.48-2.85l12.22-5.61,5.5,3c8,13.81,15.66,28.2,19.49,38.21C381.94,902,382.86,906.39,381.74,908.25Z" transform="translate(101.98 118.06)"/><path class="cls-27" d="M379.68,896.06c-15,.63-34.82-23.63-41.7-32.69,2.55-1.72,4.49-2.86,4.49-2.86l12.21-5.61,5.5,3C368.21,871.66,375.85,886.05,379.68,896.06Z" transform="translate(101.98 118.06)"/><path class="cls-32" d="M270.7,688.61s-33,65.27,25.08,72.31c42.19,5.13,70.15,4.1,71,6.44,1.43,3.76-27.45,94.9-27.45,94.9l28.45,9s58.87-126.46,55.67-137.47c-2.64-9.06-83.89-22.89-83.89-22.89,6.85-3.25,11.88-15.07,11.14-30.32Z" transform="translate(101.98 118.06)"/><path class="cls-33" d="M279.86,683s-18.94,41.66-3.78,58.56C293.93,761.44,372,755,377.46,762.06c4.36,5.64-30.17,97.76-30.17,97.76" transform="translate(101.98 118.06)"/><line class="cls-33" x1="443.64" y1="976.5" x2="471.16" y2="984.88"/><path class="cls-28" d="M342.53,527.66c6.71-.76,12.6,2.6,13.16,7.5s-4.44,9.49-11.15,10.25-12.6-2.59-13.16-7.5S335.82,528.42,342.53,527.66Z" transform="translate(101.98 118.06)"/><path class="cls-27" d="M276.08,527.26c0-23.17,14.71-41.94,34.47-41.94s35.79,18.77,35.79,41.94-10.11,43.1-28.71,43.82S276.08,550.41,276.08,527.26Z" transform="translate(101.98 118.06)"/><path class="cls-28" d="M278,532.63c9.93-4.61,18.12-12.85,21.79-22.93,5.14,5.8,12.64,9.08,20.25,10.5s15.41,1.15,22.72.95a13.79,13.79,0,0,1,4.6,7.92,46.66,46.66,0,0,0-2.14-20.51q-29.54-9-58.69-19.1C283.62,503.31,280.72,517.17,278,532.63Z" transform="translate(101.98 118.06)"/><path class="cls-34" d="M296.54,499.09c4.23,8,12.42,13.3,21,16.05s17.76,3.18,26.91,3.45c1.44,5,1.74,10.92,1.74,16.07,3.15-7.31,4.78-13.54,5.07-19.6.08-1.75.08-3.53,0-5.41-.45-12.74-5.73-20-12.8-25.43s-15.8-7.75-24.73-7.75-14.44,2-17.8,5.49a13.68,13.68,0,0,0-2.75,4.21C291.81,489.55,293.42,493.22,296.54,499.09Z" transform="translate(101.98 118.06)"/><path class="cls-34" d="M267.11,535.43c-.3-11.33-1-30.71,3.55-40,3-6.06,8.62-11.1,15.32-12s14.11,3.25,15.65,9.83A78.77,78.77,0,0,1,280.2,533.4C276.45,535.21,270.92,536.41,267.11,535.43Z" transform="translate(101.98 118.06)"/><path class="cls-35" d="M296,482a44.87,44.87,0,0,1,38.15,7.69,49.2,49.2,0,0,1,17.16,25.41c.08-1.75.08-3.53,0-5.4-.45-12.75-5.73-20-12.8-25.43s-15.8-7.75-24.73-7.75S299.34,478.49,296,482Z" transform="translate(101.98 118.06)"/><ellipse class="cls-27" cx="274.78" cy="538.82" rx="8.94" ry="12.23" transform="translate(-213.37 789.46) rotate(-75.64)"/><ellipse class="cls-36" cx="413.86" cy="656.88" rx="1.86" ry="2.97"/><ellipse class="cls-36" cx="439.71" cy="656.9" rx="1.86" ry="2.97"/><path class="cls-37" d="M332.3,525a13,13,0,0,1,10.85,1.32" transform="translate(101.98 118.06)"/><path class="cls-37" d="M313.47,524.67c-3.48-1.55-9.87-1.22-12.88,2.21" transform="translate(101.98 118.06)"/><path class="cls-38" d="M325.11,537a16.35,16.35,0,0,1-.79,9.55" transform="translate(101.98 118.06)"/><path class="cls-38" d="M322.88,555.75c-4.13.81-11.59-1.54-13.62-5" transform="translate(101.98 118.06)"/><path class="cls-27" d="M337.73,591.74l13.95-8.42s11.77,1,19.73,15.64,22.84,61.63,27.54,63.71,62,2.81,62,2.81l.78,16.79s-70.2,11.14-78.57,6.53-35.48-58.89-35.48-58.89Z" transform="translate(101.98 118.06)"/><path class="cls-39" d="M336.88,589.85l2.68-9.4s15.4.66,23.28,6.83,14.32,22.94,14.32,22.94l-20,32.34Z" transform="translate(101.98 118.06)"/><path class="cls-40" d="M360.64,654.7s21.51-18.58,24.82-23.22c1.64-2.29,13.28,24.75,11.31,28.06-3.14,5.28-22.75,18-23.84,17.23S360.64,654.7,360.64,654.7Z" transform="translate(101.98 118.06)"/><path class="cls-41" d="M355,637.78q9.72-15.43,19.43-30.87a4.91,4.91,0,0,1,1.3-1.53c1.6-1.08,3.95.25,4.6,2.06s.19,3.85-.31,5.72c2.08-.33,4,1.7,4.2,3.78s-.64,4.14-1.62,6a55.94,55.94,0,0,1-27.93,25.38C354.12,644.79,353,640.87,355,637.78Z" transform="translate(101.98 118.06)"/><path class="cls-27" d="M452.11,668.1c8-5.64,23.56-16.82,24.73-17.35,1.38-.63,10.81-.68,16,.87s9.92,5.09,11.78,10.15c.52,1.43.66,3.32-.59,4.14a2.66,2.66,0,0,1-2.78-.14,10.18,10.18,0,0,1-2.14-2c-3.44-3.73-6.55-5.2-12.19-5.52,6.69,1,10.94,5.14,12.94,11.64.39,1.3.54,2.94-.5,3.78a2.61,2.61,0,0,1-3-.09,10.37,10.37,0,0,1-2.17-2.31,22.82,22.82,0,0,0-9.41-7,16.67,16.67,0,0,1,9.75,12.69,4.51,4.51,0,0,1-.14,2.42,1.88,1.88,0,0,1-1.91,1.22,2.9,2.9,0,0,1-1.5-1.08c-2.78-3.14-5-6.48-8.67-8.73,3.38,4.49,6.22,11.81,5.52,13.71-.22.58-1.66,1.58-3.27,0-1.82-1.83-3.1-5-6-8.44a20.93,20.93,0,0,1-19.79,6.34C456.5,677.52,454.25,672.69,452.11,668.1Z" transform="translate(101.98 118.06)"/><path class="cls-42" d="M466.69,661a163.79,163.79,0,0,1,17.42-5.21,7.19,7.19,0,0,1,2.39-.28,2.47,2.47,0,0,1,1.95,1.24,2.38,2.38,0,0,1-.36,2.34,6.15,6.15,0,0,1-1.91,1.59,79.63,79.63,0,0,1-7.9,4.19,11.52,11.52,0,0,1-7.62,9.25" transform="translate(101.98 118.06)"/><path class="cls-31" d="M324.47,578.93c3.34,2.91,5.52,19.28,7.23,29.69,2.58,15.59,15.7,83.37,16.49,88.16,1.39,8.47,28.19,7.89,29.27,3.47.2-.81-7.83-4.55-9.11-10-1.14-4.84-10-99.21-14.34-104.18C348.34,579.56,323.39,578,324.47,578.93Z" transform="translate(101.98 118.06)"/><path class="cls-31" d="M287.68,578.93c2.8,1,11.58,19.66,15.75,36.73,8.72,35.66,3.53,88.62,0,95.62s-37.74,10.07-43.55,8.22c-3.38-1.08-7-107.84-4.72-121.24C256.72,589.32,286.84,578.64,287.68,578.93Z" transform="translate(101.98 118.06)"/><path class="cls-27" d="M338.94,698.19c7.21-2.64,28.1-8.14,31-7.84s5.92,1.34,7.75,3.78a16.36,16.36,0,0,1,2.29,5.46l2.68,9.38a8.23,8.23,0,0,1,.46,3.36,2.53,2.53,0,0,1-2,2.32c-1.49.13-2.43-1.67-3-3.18-1.4-3.89-2.81-7.78-4.2-11.59.92,4.79,1.83,9.6,2.75,14.4a8.14,8.14,0,0,1,.17,3.43,2.56,2.56,0,0,1-2.22,2.16c-1.59,0-2.36-2.08-2.72-3.76a103.32,103.32,0,0,0-2.84-11.24,32,32,0,0,1,.69,16.48,4.9,4.9,0,0,1-1,2.3,1.59,1.59,0,0,1-2.16.25,2.82,2.82,0,0,1-.61-1.78c-.48-4.84-1-9.7-1.45-14.54.47,5.1.92,10.37-.52,15.26a5,5,0,0,1-1.23,2.34,1.79,1.79,0,0,1-2.33.22,3.24,3.24,0,0,1-.75-2.41c-.11-3-.22-6.09-.23-9.65a17.24,17.24,0,0,1-10.33,5.84c-3.92.61-8-.29-11.88-1.53C337.61,712,337.94,706.3,338.94,698.19Z" transform="translate(101.98 118.06)"/><path class="cls-31" d="M285.51,610.82c-2.18-10.11-11.25-26.5-18.63-23.11-4.24,2-16.44,6-16.44,32.76,0,36.13,4.75,83.61,16.44,91.56,5.93,4,70.85,8,70.85,8l4.75-23.26s-47.84-8.87-50.05-15.43C289.32,672.08,291.32,637.7,285.51,610.82Z" transform="translate(101.98 118.06)"/><path class="cls-43" d="M279.86,605.27c8,27.15,9.71,73.34,10.9,76.13,1.08,2.53,7.19,3.59,12,5.23" transform="translate(101.98 118.06)"/><path class="cls-43" d="M289,716.17c-8.91-.89-20-2.63-22.44-4.47-2.9-2.17-6.45-12.79-8.95-20" transform="translate(101.98 118.06)"/><path class="cls-43" d="M287.73,650.18c3.2-4,4.51-10.67,4.78-18.77" transform="translate(101.98 118.06)"/><rect class="cls-21" x="626.78" y="998.55" width="115.08" height="10.42"/><path class="cls-22" d="M544.51,784a7,7,0,0,1-.06.79l-1.78,14.36-15.92,128a6.26,6.26,0,0,1-12.48-.75,7,7,0,0,1,.06-.79l15.72-126.43,2-15.9a6.27,6.27,0,0,1,12.49.77Z" transform="translate(101.98 118.06)"/><path class="cls-21" d="M544.51,784a7,7,0,0,1-.06.79l-1.78,14.36H530.06l2-15.9a6.26,6.26,0,0,1,12.48.75Z" transform="translate(101.98 118.06)"/><path class="cls-22" d="M590.18,782.92v143.4a6.25,6.25,0,1,1-12.5,0V782.92a6.25,6.25,0,1,1,12.5,0Z" transform="translate(101.98 118.06)"/><path class="cls-21" d="M588.35,778.5a6.19,6.19,0,0,1,1.83,4.42v16.23H577.66V782.92a6.26,6.26,0,0,1,10.69-4.42Z" transform="translate(101.98 118.06)"/><path class="cls-22" d="M653.08,926.34a6.25,6.25,0,0,1-12.46.78l-15.92-128-1.78-14.35a7.18,7.18,0,0,1-.06-.8,6.26,6.26,0,0,1,12.48-.75l2,15.9L653,925.59A3.8,3.8,0,0,1,653.08,926.34Z" transform="translate(101.98 118.06)"/><path class="cls-21" d="M637.32,799.15H624.71l-1.78-14.36a7,7,0,0,1-.06-.79,6.26,6.26,0,0,1,12.48-.75Z" transform="translate(101.98 118.06)"/><path class="cls-23" d="M664.47,766.48v4.18a13.19,13.19,0,0,1-13.2,13.2H533.11a13.2,13.2,0,0,1-13.2-13.2v-4.18a13.2,13.2,0,0,1,13.2-13.2H651.27A13.19,13.19,0,0,1,664.47,766.48Z" transform="translate(101.98 118.06)"/><path class="cls-24" d="M664.47,766.48v4.18a13.19,13.19,0,0,1-13.2,13.2H544a13.19,13.19,0,0,1-13.2-13.2v-4.18a13.19,13.19,0,0,1,13.2-13.2H651.27A13.19,13.19,0,0,1,664.47,766.48Z" transform="translate(101.98 118.06)"/><path class="cls-44" d="M509.71,577.79c2.37-3.89.06-8.95.81-13.45a5.32,5.32,0,0,1,1.72-3.31,2.72,2.72,0,0,1,3.48,0c1.11,1.07.74,2.89.72,4.43,0,2.78,1.3,5.36,1.88,8.08,1.4,6.59-2.1,12-5.44,17.7a32.56,32.56,0,0,1-13.39,5.29c-2.21.22-13.57-6-18-19.51-2.23-6.75-2-9.54-1.22-10.46a2.42,2.42,0,0,1,3.17-.64,3.53,3.53,0,0,1,1.08,1.81c1.42,4,2.83,8.09,4.22,12.29a26,26,0,0,1-8.11-20.23c.08-1.43.52-3.17,1.89-3.59A2.59,2.59,0,0,1,485,557a8.06,8.06,0,0,1,1.45,2.34c2,4.27,3.95,8.52,6.72,13.58a19.68,19.68,0,0,1-5.38-19c.3-1.13,1-2.44,2.14-2.45s1.89,1.29,2.32,2.42l6,16.09a22.81,22.81,0,0,1-3.38-15.19c.25-1.9,1.22-4.2,3.16-4.28a3.2,3.2,0,0,1,2.68,1.64,10.44,10.44,0,0,1,1.08,3.11C503.32,561.38,506,567.19,509.71,577.79Z" transform="translate(101.98 118.06)"/><path class="cls-45" d="M481.47,566.05c1.78-.49,3,.14,3.71,2.72,1,3.63,3.55,12.07,6.21,13.94" transform="translate(101.98 118.06)"/><polygon class="cls-44" points="615.42 705.97 621.97 721.23 604.66 731.71 596.96 711.34 615.42 705.97"/><path class="cls-46" d="M512.72,569.94c-1.24-7-6.51-12.09-12.52-12.73l-.1-.49s-3.14.56-4.18.8c-6.85,1.53-11.08,9.2-9.67,17.13s8,13.66,15,12.74c1.07-.14,4.21-.71,4.21-.71l-.1-.48C510.79,583.54,514,576.94,512.72,569.94Z" transform="translate(101.98 118.06)"/><path class="cls-47" d="M499.84,556.77c7.31-1.3,14.43,4.35,15.91,12.63s-3.25,16.05-10.56,17.36-14.42-4.36-15.9-12.64S492.54,558.07,499.84,556.77Z" transform="translate(101.98 118.06)"/><path class="cls-26" d="M512.68,570c-1.14-6.36-6.63-10.71-12.25-9.71l-.3.06c-5.45,1.14-8.95,7-7.82,13.28s6.42,10.57,11.95,9.76a1.47,1.47,0,0,0,.29-.05C510.16,582.31,513.82,576.33,512.68,570Z" transform="translate(101.98 118.06)"/><path class="cls-15" d="M566.54,583.82l-10.65-8.1a28.44,28.44,0,0,0-10.66,12.17c-3.7,8.23-8.6,35.71-8.6,35.71l-19.91-33.06-25.35,18s28.12,71.17,45,72,28.86-14.83,28.86-14.83Z" transform="translate(101.98 118.06)"/><polygon class="cls-27" points="584.54 1009.44 587.77 1029.83 601.12 1035.25 616.44 1027.92 613.66 1007.83 584.54 1009.44"/><path class="cls-48" d="M523.08,936.77l-69.15-1a17.47,17.47,0,0,1-.66-3.51c-.28-3.27.17-8.06,4.28-11.28,5.81-4.51,15-5.14,21-7.47a13.35,13.35,0,0,0,5.77-4.93l9.84.56s.81,5.48,4.47,5.15,15.73-6.24,15.73-6.24c6.24,10.68,8.07,19.3,8.57,24.21A25,25,0,0,1,523.08,936.77Z" transform="translate(101.98 118.06)"/><path class="cls-49" d="M523.08,936.77l-69.15-1a17.47,17.47,0,0,1-.66-3.51H523A24.53,24.53,0,0,1,523.08,936.77Z" transform="translate(101.98 118.06)"/><polygon class="cls-27" points="667.24 1009.44 670.47 1029.83 683.81 1035.25 699.14 1027.92 696.36 1007.83 667.24 1009.44"/><path class="cls-48" d="M605.78,936.77l-69.15-1a17.47,17.47,0,0,1-.66-3.51c-.28-3.27.17-8.06,4.28-11.28,5.81-4.51,15-5.14,21-7.47a13.42,13.42,0,0,0,5.77-4.93l9.84.56s.81,5.48,4.47,5.15,15.73-6.24,15.73-6.24c6.24,10.68,8.07,19.3,8.57,24.21A25,25,0,0,1,605.78,936.77Z" transform="translate(101.98 118.06)"/><path class="cls-49" d="M605.78,936.77l-69.15-1a17.47,17.47,0,0,1-.66-3.51h69.69A24.53,24.53,0,0,1,605.78,936.77Z" transform="translate(101.98 118.06)"/><path class="cls-50" d="M561.2,689.86l-11.33,18.36S485,718.09,474.53,734C464.85,748.63,478,897.16,478,897.16H522.5s-3.4-109.71,0-119.87S628,767.72,633.88,753.94s7.81-62.13,7.81-62.13" transform="translate(101.98 118.06)"/><path class="cls-51" d="M643.51,711S646,750.8,633,760.31c-11.34,8.27-40.18,10.42-40.18,10.42l5.57,123.66-42.59,2.78S534.61,752.85,535.61,739s42-23.86,39.16-25.83c0,0-31.57-10.71-19.87-22.49.27-.27.56-.55.86-.81,2.72-2.41,36,.08,36,.08l30.66-2.82,12.14,13.77Z" transform="translate(101.98 118.06)"/><path class="cls-50" d="M641.93,723.64c-.27,2-.56,4-.88,6.17-5.24-6.67-13.73-16.44-21.21-20.55-15.51-8.53-65.09-14.35-65.09-14.35l.18-4.24.86-.81c2.72-2.4,36,.08,36,.08l30.66-2.81,12.14,13.76Z" transform="translate(101.98 118.06)"/><path class="cls-44" d="M621.39,563.89s-18.26,23.59-29.64,22.39-20.26-13.8-20.26-13.8,4.56-1.68,6.53-9.14c1.16-4.29,1.42-10.51-.54-19.43l33.8-5a46.88,46.88,0,0,0,1.27,11.71C613.83,555.8,616.36,561.33,621.39,563.89Z" transform="translate(101.98 118.06)"/><path class="cls-28" d="M578,563.36c1.16-4.3,1.42-10.51-.54-19.43l33.8-5a47,47,0,0,0,1.27,11.72C603.42,558.3,590.86,562.92,578,563.36Z" transform="translate(101.98 118.06)"/><path class="cls-28" d="M546.42,523.92c.52-4.57,6-7.7,12.27-7s10.91,5,10.39,9.55-6,7.7-12.27,7S545.9,528.49,546.42,523.92Z" transform="translate(101.98 118.06)"/><path class="cls-52" d="M559.26,525.13V525a2.72,2.72,0,0,0-2.72-2.72H555a2.72,2.72,0,0,0-2.72,2.72v.12a2.72,2.72,0,0,0,2.72,2.72h1.51A2.72,2.72,0,0,0,559.26,525.13Z" transform="translate(101.98 118.06)"/><rect class="cls-52" x="654.29" y="643.14" width="2.28" height="6.25"/><path class="cls-44" d="M622.73,512.09c0-21.59-14.93-39.1-33.37-39.1S556,484.52,556,512.09c0,21.59,8.37,40.32,28.21,41.63C602.59,554.92,622.73,533.7,622.73,512.09Z" transform="translate(101.98 118.06)"/><path class="cls-28" d="M618.79,522.31a47,47,0,0,1-12.85-21.73,10.18,10.18,0,0,1-9-1.36,24.86,24.86,0,0,1-21-1.2,17.44,17.44,0,0,1-15.54-.49,33.33,33.33,0,0,0-5.17,10.61q.71-11.16,1.44-22.32,26.4-3.74,53-5.19a5.81,5.81,0,0,1,3,.36c1.33.69,1.91,2.25,2.35,3.69C618.86,497,620.76,509.92,618.79,522.31Z" transform="translate(101.98 118.06)"/><path class="cls-48" d="M627.28,483.43c-.74,11.09-1.46,25.4-2.19,36.35-1,3.76-4.27,3.62-8.65,5a108.71,108.71,0,0,1-8.1-29.62,21.5,21.5,0,0,1-13.24-.88,28.28,28.28,0,0,1-20.64,0c-5.06,1.67-10.58,2-15.34.28-1.8,5.45-2.67,13.73-3.14,19.54-.62-5.33-2.69-21.81-3.2-33.1-.22-4.84-.17-8.73.39-10.39,2.09-6.14,8.87-4.15,10.68-2.05a10.17,10.17,0,0,1,6.89-5.74,11.13,11.13,0,0,1,9.13,2.17,11.65,11.65,0,0,1,9.79-6c4-.06,8,2.17,9.39,6a20.28,20.28,0,0,1,5.89-2.37,8.58,8.58,0,0,1,6.15,1,6.65,6.65,0,0,1,2.16,2.3,9.42,9.42,0,0,1,1.2,3.51c1.69-2.36,5.25-2.8,7.8-1.45a10.15,10.15,0,0,1,4.78,6.9A29.68,29.68,0,0,1,627.28,483.43Z" transform="translate(101.98 118.06)"/><path class="cls-53" d="M613.25,465.84a11.51,11.51,0,0,0-7.09-.69,10.61,10.61,0,0,0-7.13,5.47,9.72,9.72,0,0,0-9.32-6.16c-4,.2-7.67,3.17-9.5,7.83a10.33,10.33,0,0,0-8.91-3.52,9.84,9.84,0,0,0-7.81,5.81,4.43,4.43,0,0,0-4.85-1,8.57,8.57,0,0,0-3.91,3.44,19,19,0,0,0-2,3.93c-.22-4.84-.17-8.73.39-10.39,2.1-6.13,8.88-4.15,10.69-2a10.15,10.15,0,0,1,6.89-5.75,11.19,11.19,0,0,1,9.12,2.17,11.65,11.65,0,0,1,9.79-6c4-.07,8,2.17,9.39,6a20.31,20.31,0,0,1,5.89-2.38,8.6,8.6,0,0,1,6.16.95A6.82,6.82,0,0,1,613.25,465.84Z" transform="translate(101.98 118.06)"/><path class="cls-54" d="M569.52,510.43A10.91,10.91,0,0,0,561,512" transform="translate(101.98 118.06)"/><path class="cls-54" d="M591.57,511a10.25,10.25,0,0,1,9.74.95" transform="translate(101.98 118.06)"/><path class="cls-55" d="M578.19,522.93a64.7,64.7,0,0,0,.91,9.22" transform="translate(101.98 118.06)"/><path class="cls-55" d="M582.55,540.74a14.55,14.55,0,0,0,10.3-3.81" transform="translate(101.98 118.06)"/><path class="cls-56" d="M592.78,522.25c.94-.17,1.88.69,2.1,1.93a2,2,0,0,1-1.32,2.53c-.94.16-1.88-.7-2.1-1.93A2.06,2.06,0,0,1,592.78,522.25Z" transform="translate(101.98 118.06)"/><path class="cls-56" d="M566.63,522.61c.94-.17,1.88.69,2.1,1.92a2.06,2.06,0,0,1-1.32,2.54c-.94.16-1.88-.7-2.1-1.93A2,2,0,0,1,566.63,522.61Z" transform="translate(101.98 118.06)"/><path class="cls-44" d="M619.85,516.92c6.24-.86,11.81,2.14,12.44,6.7s-3.92,8.94-10.16,9.8-11.81-2.13-12.44-6.69S613.61,517.79,619.85,516.92Z" transform="translate(101.98 118.06)"/><path class="cls-52" d="M619.5,525.13V525a2.72,2.72,0,0,1,2.71-2.72h1.52a2.72,2.72,0,0,1,2.72,2.72v.12a2.72,2.72,0,0,1-2.72,2.72h-1.52A2.72,2.72,0,0,1,619.5,525.13Z" transform="translate(101.98 118.06)"/><rect class="cls-52" x="726.15" y="643.14" width="2.28" height="6.25"/><path class="cls-57" d="M617.23,558.72s-18.51,11.19-21.73,15.2a24.15,24.15,0,0,0-4.2,9.53s-4.44-9.36-5.44-10.14-8.76-8.14-8.76-8.14L568,572.08l-12.2,6.34.52,117.19,82.51,5.59L640.94,574Z" transform="translate(101.98 118.06)"/><path class="cls-58" d="M591.21,584.14c-3.91,32.86,2.87,90.3-8.14,112.61" transform="translate(101.98 118.06)"/><path class="cls-59" d="M592.8,578.58s1.39-5.19,4.59-7.75,19.72-12.28,20.15-12.39,8.55,5.54,8.55,5.54l-12.25,17.39s-12.56-8.82-15.49-8.07S592.8,578.58,592.8,578.58Z" transform="translate(101.98 118.06)"/><path class="cls-59" d="M589,578.59a18.48,18.48,0,0,0-2.63-5.72c-1.93-2.39-8.34-9.29-9-9.24s-7.15,3.93-8.31,6.29-.5,13.51-.5,13.51,11-10.43,15.25-9.24C586.61,575,589,578.59,589,578.59Z" transform="translate(101.98 118.06)"/><path class="cls-15" d="M624.32,562S610,575.42,607.84,589.09s-1.32,85.59,11.94,109.52c11.5,20.76,12.59,86.89,12.59,117.58l40.24-13.87s-.17-55.07-13.17-106.05c-10.08-39.53-.41-111.74-6.17-118.8C649.26,572.53,624.32,562,624.32,562Z" transform="translate(101.98 118.06)"/><path class="cls-60" d="M607.34,638.7s-3.32-38-.11-50.22,12.53-27.78,15-28.32c4.15-.89,13.45,6.31,13.45,6.31s-7.53,13-9.75,32.79c-.2,1.78-15,7.23-15,7.23s11.53,8.44,11.38,9.26S607.34,638.7,607.34,638.7Z" transform="translate(101.98 118.06)"/><ellipse class="cls-47" cx="682.91" cy="821.5" rx="15.64" ry="9.73"/><path class="cls-27" d="M602.36,690.69l-15.93-2.11a7.64,7.64,0,0,0-4.25.25c-1.8.84-2.63,2.91-2.78,5,2.65.24,5.31.45,8,.89a52.15,52.15,0,0,1-11.71,11.64,12.88,12.88,0,0,0-2.8,2.39,3.8,3.8,0,0,0-.79,3.45,3.58,3.58,0,0,0,2.76,2.17,30.09,30.09,0,0,0,3.88.11,4.23,4.23,0,0,0,2,4.61,5.07,5.07,0,0,0,5.31-.69,5.67,5.67,0,0,0,4.11,2.89,12.64,12.64,0,0,0,5-.79,6.68,6.68,0,0,0,5.07,2.28,8.48,8.48,0,0,0,5.35-2.33,41.06,41.06,0,0,0,10.63-15A114.55,114.55,0,0,1,602.36,690.69Z" transform="translate(101.98 118.06)"/><path class="cls-15" d="M628.1,592c-.39-7.55,3.44-21.75,8.88-23.23,8.46-2.3,22.85,10.42,26.63,20.54s15.2,72.16,12,80.61c-4.39,11.53-62.36,42.53-62.36,42.53l-18-26.26s40.2-21.8,42.59-28.74C639.35,653.06,629,609.65,628.1,592Z" transform="translate(101.98 118.06)"/><path class="cls-61" d="M647.55,579s-6.48,8.48-6.48,23.76,3.75,51.46,2.87,52.78-29.19,19.7-29.19,19.7" transform="translate(101.98 118.06)"/><path class="cls-61" d="M641.54,625.75a39.77,39.77,0,0,1-8.56-17.2" transform="translate(101.98 118.06)"/><path class="cls-61" d="M626.15,706.17c9.2-5,22.51-12.84,30.53-19.23" transform="translate(101.98 118.06)"/><path class="cls-15" d="M574.79,564.63s-2.44,9.37-2.44,25.66c0,27.34-3.56,103.35-18,114.58-11.31,8.83-25.48,8.27-31.91,8.27,0,0,13.39-7.13,18.38-15.39,5.57-9.18,6.5-38.38,7.24-53.6.78-16.12,2.23-60.54,4.07-64.42C556.18,571.37,574.79,564.63,574.79,564.63Z" transform="translate(101.98 118.06)"/><path class="cls-60" d="M570.12,641s3.26-25.73,3.26-43.62c0-20,3.3-33.8,3.3-33.8s-11.37,3.61-12.62,5.45-7.14,12.42-10.16,32.46c-.5,3.31,12.94,6.05,12.94,6.05s-10.36,8-10.36,10.06C556.5,621.53,570.12,641,570.12,641Z" transform="translate(101.98 118.06)"/><path class="cls-61" d="M551.56,587.68c0,43.59-3.95,78.45-5.86,90.56" transform="translate(101.98 118.06)"/><path class="cls-61" d="M545.37,603.3c1.13,6.25,3.85,12.42,5.52,14.31" transform="translate(101.98 118.06)"/><path class="cls-62" d="M553.4,531.23s2.14,50.28,32.29,52.2c25.45,1.63,39.57-29.65,39.57-52.28" transform="translate(101.98 118.06)"/><path class="cls-63" d="M587.6,584.06s-18.54,67.76-70,80c-62.95,15-124.64-1.86-124.64-1.86" transform="translate(101.98 118.06)"/><path class="cls-63" d="M504.46,586s7.11,41.08-24.74,62.36c-28.22,18.86-86.75,13-86.75,13" transform="translate(101.98 118.06)"/><path class="cls-63" d="M566.35,703.19s-115.38.23-174.18-41" transform="translate(101.98 118.06)"/><path class="cls-64" d="M807.91,413.93c-.71-12.31,8.23-24.5,20.18-27.51s25.6,3.46,30.82,14.63c4.47,9.56,2.94,20.76.78,31.11s-4.81,21-2.36,31.3c2.08,8.64,7.66,16.26,8.77,25.07,1.51,12.13-7,24.72-18.84,27.79-6.69,1.74-15.33-.4-17.45-7-2-6.09,2.53-12.57,1.62-18.9-.76-5.31-5.09-9.25-8.65-13.25C809.66,462.41,809.47,441.12,807.91,413.93Z" transform="translate(101.98 118.06)"/><path class="cls-65" d="M693.2,569.53c-6-6.83-10.36-19.12-10.36-23.26,0-4.89-.78-9.9.94-14.48a36,36,0,0,1,3.61-6.62c1.54-2.43,3.07-4.85,4.62-7.27a4.88,4.88,0,0,1,2.52-2.37c1.92-.52,3.68,1.65,3.59,3.65s-1.42,3.67-3.69,5.44a21.53,21.53,0,0,1,5.27-9.76,2.89,2.89,0,0,1,2.54-1.22c1.58.37,1.53,2.62,1.11,4.18-1.06,3.92-2.11,7.85-3,11.22,3.34,6.37,3.05,13.93,3.11,21.12s.76,15,5.51,20.37C704.46,572.53,699.09,564.56,693.2,569.53Z" transform="translate(101.98 118.06)"/><path class="cls-65" d="M692.51,568.69s15.86,54.17,27.84,55.28c14.49,1.36,26.27-12,26.27-12l9.47-48.52-21.46-12.86-11.84,38.88-16.91-19.1Z" transform="translate(101.98 118.06)"/><path class="cls-66" d="M763.92,571.5c-11.81-4.47-23.67-8.84-35.46-13.37,3.21-15.42,7.68-33.9,11.59-39.81a26.21,26.21,0,0,1,19.12-11.6l5.39,15.95-.64,48.5Z" transform="translate(101.98 118.06)"/><polygon class="cls-67" points="855.01 720.95 820.49 631.7 778.15 642.68 817.33 742.05 855.01 720.95"/><polygon class="cls-26" points="849.26 716.04 818.16 636.61 783.63 645.96 817.64 732.88 849.26 716.04"/><polygon class="cls-68" points="807.07 634.45 809.22 640.22 795.68 643.98 793.26 638.09 807.07 634.45"/><path class="cls-69" d="M732.63,925.46c.12,5.86,61.56,3.88,64.33-1,1.79-3.16-1.52-11.09-4.05-16.23-1.34-2.77-2.47-4.72-2.47-4.72l-7.81-10.93-6.23-.17c-13.83,8-27.61,16.66-35.92,23.46C735.58,920,732.58,923.29,732.63,925.46Z" transform="translate(101.98 118.06)"/><path class="cls-65" d="M740.48,915.93c12.7,8,42-3.18,52.43-7.63-1.34-2.77-2.47-4.72-2.47-4.72l-7.81-10.94-6.23-.17C762.57,900.45,748.78,909.14,740.48,915.93Z" transform="translate(101.98 118.06)"/><polygon class="cls-65" points="861.32 986.43 863.49 1010.38 864.27 1018.97 864.82 1024.88 889.67 1022.27 889.88 1018.1 889.88 1018.08 890.08 1013.71 891.45 985.4 891.59 982.56 876.46 984.49 861.32 986.43"/><polygon class="cls-70" points="861.32 986.43 863.49 1010.38 875.93 1011.92 875.94 1011.92 886.42 1013.25 890.08 1013.71 891.45 985.4 876.46 984.49 861.32 986.43"/><path class="cls-66" d="M741.78,628.77s-10.68,29.55-8.58,71.57S753,888.91,753,888.91l44.14-2.08-7.56-189.17L779,639.08" transform="translate(101.98 118.06)"/><path class="cls-69" d="M843.09,924.87c3.89,4.37,49.36-37,48.34-42.44-.67-3.57-8.34-7.46-13.6-9.72-2.81-1.22-4.94-2-4.94-2l-13-3.25-4.86,3.9c-5.34,15-10.2,30.6-12.11,41.15C841.74,918.75,841.65,923.24,843.09,924.87Z" transform="translate(101.98 118.06)"/><path class="cls-65" d="M842.88,912.51c14.86-2.15,29.87-29.65,35-39.82-2.81-1.21-4.94-2-4.94-2l-13-3.25L855,871.37C849.65,886.41,844.79,902,842.88,912.51Z" transform="translate(101.98 118.06)"/><polygon class="cls-65" points="928.37 982.15 938.69 992.26 951.71 1004.99 955.95 1009.13 973.18 991.04 970.62 987.71 963.17 978.06 948.89 959.56 928.37 982.15"/><polygon class="cls-70" points="928.37 982.15 938.69 992.26 963.17 978.06 948.89 959.56 928.37 982.15"/><path class="cls-71" d="M735.91,656.54c4.29,11.94,36.64,33,36.64,33s-.31,83.31.9,104.31,44.7,89.54,44.7,89.54l40.78-36.2s-31.61-52.84-33.78-65.26,11.5-77.73,11.5-104.32a102.54,102.54,0,0,0-1.2-15,186.86,186.86,0,0,0-7.27-30c-2.61-8.05-4.81-13.33-4.81-13.33a401.74,401.74,0,0,0-44.27,9.41c-20.25,5.65-40.41,13.82-43.49,24.24A5.86,5.86,0,0,0,735.91,656.54Z" transform="translate(101.98 118.06)"/><path class="cls-66" d="M735.91,656.54a262.61,262.61,0,0,0,33.57,16.75,50.67,50.67,0,0,1,2.43-5.77c1,2.21,2.05,4.38,3.3,7.36,19.93-5,40-9.23,60.25-12.32a186.93,186.93,0,0,0-7.26-30q-24.51-2.3-49.08-3.92c-20.25,5.65-40.42,13.82-43.49,24.24A5.7,5.7,0,0,0,735.91,656.54Z" transform="translate(101.98 118.06)"/><path class="cls-72" d="M849.13,519.65c-1.55-9.37-37-21.42-49.08-20.32-25.9,2.36-44.66,7.06-50.57,10.76S738.19,548.38,738.19,558c0,11.4,3.92,33.79,2.87,42.82-2,17.51-12.65,54.59-12.65,54.59l39,13.69,4.84-8.53,4.42,10.81,64.52-14.8s-4.94-51.37-4.94-60.39C836.31,587.57,851.13,531.74,849.13,519.65Z" transform="translate(101.98 118.06)"/><path class="cls-73" d="M788.86,525.78c-13,67.53-13.68,86.87-16.63,134.31" transform="translate(101.98 118.06)"/><circle class="cls-69" cx="892.56" cy="657.21" r="2.17"/><circle class="cls-69" cx="887.13" cy="686.75" r="2.17"/><circle class="cls-69" cx="882.94" cy="717.88" r="2.17"/><circle class="cls-69" cx="880.77" cy="753.58" r="2.17"/><path class="cls-69" d="M713.57,567.58l6.47.51.5,0,43.36-11.39c3-1.58,3.47-4,2.77-6A4.92,4.92,0,0,0,760.4,548L719,562.63l-.43.37Z" transform="translate(101.98 118.06)"/><path class="cls-74" d="M713.57,567.58l1.78.14,4.69.37a3.57,3.57,0,0,1-.43-.36,2.16,2.16,0,0,1-.64-2.09c.1-.31.28-.64.16-.94a1.54,1.54,0,0,0-.28-.34,1.56,1.56,0,0,1-.25-1.36l-3.7,3.37Z" transform="translate(101.98 118.06)"/><path class="cls-75" d="M713.57,567.58l1.78.14a1.73,1.73,0,0,1-.39-.7,1.78,1.78,0,0,1-.06-.65Z" transform="translate(101.98 118.06)"/><path class="cls-65" d="M764.81,577.22c-4.27-7.91-8.52-15.81-13.06-23.73a42.73,42.73,0,0,0-11-6.09,30.64,30.64,0,0,0-12.54,8c-.88.92-1.8,2.22-1.39,3.45a2,2,0,0,0,2.11,1.28,6,6,0,0,0,2.45-1c2.36-1.38,4.72-2.77,7.45-4.1a20.38,20.38,0,0,1,2.11,2,17.52,17.52,0,0,0-5.09.59,81,81,0,0,0-8.92,4.92,3.3,3.3,0,0,0-1.8,2.24,2.07,2.07,0,0,0,1.11,2,3.9,3.9,0,0,0,2.19.32,14.4,14.4,0,0,0,7.65-2.86,9.72,9.72,0,0,1,2.5,1,12.73,12.73,0,0,0-3.44,1,4.78,4.78,0,0,0-2.24,6.78,1.8,1.8,0,0,0-.94,1.78,5.06,5.06,0,0,0,.65,2,40.87,40.87,0,0,0,2.21,3.82,7,7,0,0,0,2.84,2.77,2.82,2.82,0,0,0,3.58-1.36c3.22,5.56,9.25,8.83,15.09,8.2A48.39,48.39,0,0,0,764.81,577.22Z" transform="translate(101.98 118.06)"/><path class="cls-76" d="M746.22,557.92a17.06,17.06,0,0,0-4.86-1" transform="translate(101.98 118.06)"/><path class="cls-76" d="M743.08,564.75a17.79,17.79,0,0,0-4.27.13" transform="translate(101.98 118.06)"/><path class="cls-76" d="M733.06,572.44a15.45,15.45,0,0,1,8.24-1.58" transform="translate(101.98 118.06)"/><path class="cls-76" d="M740.52,581.53a16.67,16.67,0,0,1-1.74-4.69" transform="translate(101.98 118.06)"/><path class="cls-76" d="M739.28,579.39a15.09,15.09,0,0,1-2.81.22" transform="translate(101.98 118.06)"/><path class="cls-65" d="M753.65,588.14s54,45.78,68.57,40.63c5.79-2.07,11.54-18.87,15.71-34.53,3.84-14.38,6.34-27.77,6.34-27.77l-30.58-12.92s-2.05,13.87-4.11,25.15c-1.36,7.61-2.74,14-3.47,14.22-3.12.87-42.76-16.77-42.76-16.77Z" transform="translate(101.98 118.06)"/><path class="cls-70" d="M809.58,578.72c7.29,4.78,18.76,11.82,28.33,15.54,3.85-14.39,6.35-27.78,6.35-27.78l-30.59-12.91S811.64,567.44,809.58,578.72Z" transform="translate(101.98 118.06)"/><path class="cls-77" d="M844.26,582.76c-13.39-2.54-24-4.75-36.81-9.32,1.82-15,6-42.21,9.49-50.59,2.43-5.93,12-16.37,22.8-11.85s14.94,11.64,13.8,30.43C853.11,548.11,846.76,569.16,844.26,582.76Z" transform="translate(101.98 118.06)"/><path class="cls-65" d="M779,506.17s3.14,14.22,9.2,18.37,29-21.4,29-21.4c-4-3.69-4.9-10.92-4.86-17.32a74.8,74.8,0,0,1,1.14-12.16l-28,8.08a55.87,55.87,0,0,1-1.16,15.46C782.46,505,779,506.17,779,506.17Z" transform="translate(101.98 118.06)"/><path class="cls-70" d="M784.38,497.2c12.89,2.74,22.75-5.46,28-11.38a74.8,74.8,0,0,1,1.14-12.16l-28,8.08A55.17,55.17,0,0,1,784.38,497.2Z" transform="translate(101.98 118.06)"/><path class="cls-69" d="M789.22,525c-.36-.06,1.44-9.65,2.35-10.48s22.94-20.14,24.26-19.42c1.92,1,5.09,7.16,5.09,7.16a80.49,80.49,0,0,1-13.08,13.07C802,520.14,792.6,525.62,789.22,525Z" transform="translate(101.98 118.06)"/><path class="cls-69" d="M789.22,525c.49-.48-.5-10-1.06-10.87-1.83-2.89-4.92-10.42-4.92-15.54,0,0-5.56,2.11-6.25,3.33s2.34,10.24,4.67,14.54C785.61,523.68,788.83,525.38,789.22,525Z" transform="translate(101.98 118.06)"/><ellipse class="cls-70" cx="762.63" cy="459.86" rx="8.5" ry="11.64" transform="translate(321.8 1283.92) rotate(-83.53)"/><path class="cls-65" d="M828.87,446.48c0-22-15.23-39.88-34-39.88s-34,17.85-34,39.88,9.39,43.93,28.43,43.15C808,488.85,828.87,468.51,828.87,446.48Z" transform="translate(101.98 118.06)"/><path class="cls-70" d="M821.32,455.93c-4-4.29-6.45-12.4-7.06-15.85-3.78-1.1-8.35-4.72-10.65-9.61-5.76,5.76-27.67,9-35,7.11-5.2,6.42-5.35,9.6-7.2,17.81A90,90,0,0,1,763,425.31a321.87,321.87,0,0,0,40.1-16c2.22-1.06,4.87-2.14,7-.89,1.36.8,2.06,2.34,2.76,3.76a47.87,47.87,0,0,0,12.28,15.61c1.33,1.11,2.84,2.36,2.91,4.08a6.26,6.26,0,0,1-1.1,3.14C824.48,439.56,824.9,450.42,821.32,455.93Z" transform="translate(101.98 118.06)"/><path class="cls-78" d="M755,433c-.11,8.35,6.69,25.67,6.69,25.67s0-14.26,6.54-23.53c13.45,0,28.36-.62,36.61-8.28,2.39,6.07,6.49,9.6,11.45,11.25-.16,7.56,3.31,14.64,5.48,21,4.23-2.58,7.42-1.49,10.87-5.56,2-7.39,4.13-18.94,3.52-26.08A36,36,0,0,0,831,411.07a24.89,24.89,0,0,0-2.5-3.3c-4.81-5.33-12.4-8.43-19.35-6.7a22.28,22.28,0,0,0-15.7-7.69,31.23,31.23,0,0,0-17,4.49c-10.08,5.73-18,14.6-20.53,26.94A43.39,43.39,0,0,0,755,433Z" transform="translate(101.98 118.06)"/><path class="cls-79" d="M755,433a32.66,32.66,0,0,1,1-3.18,45.2,45.2,0,0,1,8.64-13.72c5.42-6.22,12.15-11.57,20.1-13.79s17.19-.81,23.12,4.92c7.5-3.19,16.7-1.45,23.07,3.84a25.38,25.38,0,0,0-2.49-3.29c-4.82-5.33-12.41-8.44-19.36-6.71a22.25,22.25,0,0,0-15.7-7.68,31.24,31.24,0,0,0-17,4.48c-10.07,5.73-17.94,14.61-20.52,26.95A44.43,44.43,0,0,0,755,433Z" transform="translate(101.98 118.06)"/><path class="cls-65" d="M826.8,451.77c6.22-1.59,12.21.8,13.38,5.35s-2.94,9.52-9.17,11.12-12.22-.8-13.38-5.35S820.57,453.37,826.8,451.77Z" transform="translate(101.98 118.06)"/><ellipse class="cls-80" cx="899.14" cy="579.29" rx="1.48" ry="2.37"/><ellipse class="cls-80" cx="871.88" cy="579.29" rx="1.48" ry="2.37"/><path class="cls-81" d="M774.27,446.84a11.11,11.11,0,0,0-8.76.7" transform="translate(101.98 118.06)"/><path class="cls-81" d="M794.85,448.07a10.46,10.46,0,0,1,9.93,1" transform="translate(101.98 118.06)"/><path class="cls-82" d="M780.1,463a29.16,29.16,0,0,0,0,6.67" transform="translate(101.98 118.06)"/><path class="cls-82" d="M781.77,476.3c4.14,1.64,8.47.75,10.7-2.64" transform="translate(101.98 118.06)"/><circle class="cls-13" cx="403.52" cy="487.7" r="57.31"/><path class="cls-41" d="M264.1,350.36c12.54-23.37,37.35,8,37.35,8S326.3,331.55,338.8,349c13,18.08-37.35,60.18-37.35,60.18S253.43,370.25,264.1,350.36Z" transform="translate(101.98 118.06)"/><polyline class="cls-83" points="361.94 494.65 379.32 494.84 384.73 473.69 395.87 513.9 404.68 465.19 414.25 509.06 419.97 477.25 426.09 493.94 445.1 494.45"/><circle class="cls-13" cx="562.17" cy="577.03" r="58.58"/><path class="cls-15" d="M491.45,461.56l-44.83,25.68a17.78,17.78,0,0,1-26-20.09,17.61,17.61,0,0,1,8.32-10.78l44.84-25.68a17.79,17.79,0,0,1,17.68,30.87Z" transform="translate(101.98 118.06)"/><path class="cls-41" d="M491.45,461.56,469,474.4l-17.69-30.87,22.44-12.84a17.79,17.79,0,0,1,17.68,30.87Z" transform="translate(101.98 118.06)"/><circle class="cls-13" cx="711.15" cy="468.96" r="57.31"/><path class="cls-15" d="M638.38,322.14v39.28a28.47,28.47,0,0,1-13,23.83l-16.25,9.48-14.9-9.67a28.55,28.55,0,0,1-14.33-24.67V322.14l29-8.32.2.07Z" transform="translate(101.98 118.06)"/><path class="cls-84" d="M638.38,322.14v39.28a28.47,28.47,0,0,1-13,23.83l-16.25,9.48V313.89Z" transform="translate(101.98 118.06)"/><rect class="cls-41" x="704.4" y="450.13" width="13.48" height="44.4"/><rect class="cls-41" x="688.94" y="465.6" width="44.4" height="13.48"/></svg>